<svg width="1126" height="1126" viewBox="0 0 1126 1126" fill="none" xmlns="http://www.w3.org/2000/svg">
<path d="M654.331 181.572C653.926 181.572 653.526 181.491 653.155 181.334C652.784 181.177 652.446 180.947 652.164 180.658C651.877 180.369 651.658 180.026 651.512 179.649C651.365 179.273 651.292 178.871 651.303 178.467V104.971C651.292 104.567 651.365 104.165 651.512 103.789C651.658 103.413 651.877 103.07 652.164 102.781C652.446 102.491 652.784 102.261 653.155 102.104C653.526 101.947 653.926 101.867 654.331 101.867C655.153 101.867 655.941 102.194 656.526 102.776C657.106 103.358 657.432 104.148 657.432 104.971V178.467C657.432 179.29 657.106 180.08 656.526 180.662C655.941 181.244 655.153 181.572 654.331 181.572Z" fill="#CE9C5C"/>
<path d="M628.099 176.371C627.367 176.365 626.658 176.12 626.078 175.673C625.459 175.145 625.065 174.393 624.992 173.579C624.919 172.766 625.172 171.956 625.69 171.327L678.312 108.696C678.863 108.167 679.589 107.861 680.355 107.835C681.12 107.809 681.863 108.066 682.448 108.556C683.034 109.046 683.422 109.735 683.529 110.491C683.641 111.247 683.467 112.017 683.045 112.654L630.429 175.285C630.147 175.634 629.793 175.914 629.393 176.103C628.988 176.291 628.544 176.383 628.099 176.371Z" fill="#CE9C5C"/>
<path d="M683.276 173.965C682.477 173.951 681.706 173.648 681.103 173.111L623.287 115.215C622.995 114.932 622.764 114.595 622.606 114.222C622.449 113.848 622.364 113.447 622.364 113.041C622.364 112.636 622.449 112.235 622.606 111.862C622.764 111.489 622.995 111.151 623.287 110.868C623.867 110.3 624.649 109.981 625.46 109.981C626.27 109.981 627.052 110.3 627.632 110.868L685.454 168.687C685.747 168.976 685.977 169.321 686.135 169.701C686.298 170.08 686.377 170.488 686.377 170.899C686.377 171.311 686.298 171.719 686.135 172.099C685.977 172.478 685.747 172.822 685.454 173.111C684.852 173.648 684.081 173.951 683.276 173.965Z" fill="#CE9C5C"/>
<path d="M691.115 144.784H617.62C616.798 144.784 616.01 144.457 615.425 143.876C614.845 143.293 614.519 142.503 614.519 141.68C614.519 141.276 614.597 140.876 614.755 140.504C614.912 140.131 615.143 139.794 615.43 139.512C615.717 139.23 616.061 139.008 616.438 138.861C616.815 138.714 617.214 138.643 617.62 138.653H691.115C691.521 138.643 691.92 138.714 692.297 138.861C692.674 139.008 693.018 139.23 693.31 139.512C693.597 139.794 693.828 140.131 693.986 140.504C694.143 140.876 694.222 141.276 694.222 141.68C694.222 142.503 693.896 143.293 693.31 143.876C692.731 144.457 691.943 144.784 691.115 144.784Z" fill="#CE9C5C"/>
<path d="M367.719 221.773C364.872 221.77 362.115 220.778 359.921 218.965C357.726 217.153 356.23 214.633 355.689 211.839L353.749 201.749L347.308 209.743C345.333 212.069 342.561 213.576 339.535 213.968C336.509 214.36 333.446 213.61 330.943 211.864C328.44 210.118 326.679 207.502 326.002 204.526C325.326 201.551 325.783 198.43 327.284 195.774H326.897C323.784 196.198 320.628 195.412 318.079 193.578C315.529 191.744 313.781 189.001 313.193 185.916C312.606 182.831 313.225 179.638 314.922 176.995C316.62 174.353 319.267 172.463 322.318 171.714L330.855 170.085L322.783 165.428C319.963 163.802 317.905 161.123 317.061 157.979C316.216 154.835 316.656 151.485 318.282 148.665C319.908 145.845 322.588 143.786 325.732 142.942C328.875 142.098 332.226 142.537 335.045 144.163L343.738 149.208L341.875 139.351C341.26 136.161 341.936 132.858 343.755 130.165C345.574 127.474 348.387 125.613 351.576 124.994C353.167 124.687 354.803 124.7 356.389 125.033C357.975 125.366 359.479 126.013 360.812 126.934C362.152 127.825 363.298 128.98 364.178 130.327C365.059 131.674 365.656 133.187 365.934 134.772L367.874 144.862L374.316 136.79C375.312 135.532 376.549 134.483 377.955 133.707C379.36 132.931 380.905 132.441 382.501 132.268C384.098 132.095 385.712 132.241 387.252 132.697C388.791 133.154 390.224 133.912 391.467 134.928C392.735 135.93 393.792 137.172 394.578 138.584C395.364 139.996 395.863 141.549 396.046 143.154C396.369 146.384 395.423 149.613 393.407 152.157L387.742 159.219L394.727 157.9C397.913 157.327 401.196 158.02 403.878 159.832C406.559 161.644 408.428 164.432 409.085 167.601C409.67 170.815 408.974 174.13 407.145 176.836C405.467 179.325 402.921 181.096 400.004 181.804C402.553 183.655 404.291 186.416 404.859 189.515C405.427 192.613 404.781 195.811 403.054 198.446C401.328 201.081 398.653 202.95 395.586 203.666C392.518 204.382 389.293 203.89 386.578 202.292L377.886 197.248L379.748 207.104C380.363 210.294 379.687 213.598 377.868 216.29C376.049 218.982 373.236 220.842 370.047 221.462C369.283 221.643 368.504 221.746 367.719 221.773ZM355.534 191.505H356.311C356.873 191.654 357.383 191.959 357.781 192.385C358.179 192.81 358.449 193.339 358.561 193.911L361.743 210.597C361.892 211.384 362.195 212.133 362.635 212.802C363.075 213.471 363.644 214.046 364.309 214.493C364.973 214.941 365.719 215.253 366.504 215.41C367.289 215.567 368.098 215.566 368.883 215.408C370.463 215.089 371.853 214.161 372.753 212.825C373.654 211.489 373.992 209.852 373.695 208.269L370.513 191.738C370.408 191.157 370.469 190.559 370.691 190.013C370.914 189.467 371.287 188.995 371.767 188.654C372.247 188.311 372.815 188.113 373.404 188.082C373.993 188.051 374.578 188.189 375.092 188.478L389.682 196.937C391.085 197.728 392.742 197.935 394.295 197.513C395.849 197.092 397.175 196.077 397.986 194.687C398.388 193.995 398.649 193.23 398.753 192.437C398.857 191.644 398.802 190.838 398.594 190.066C398.384 189.293 398.024 188.57 397.533 187.938C397.043 187.306 396.432 186.777 395.736 186.383L389.915 182.968C389.347 182.677 388.889 182.21 388.608 181.635C388.329 181.062 388.243 180.413 388.363 179.786C388.487 179.174 388.79 178.612 389.231 178.17C389.673 177.729 390.234 177.427 390.847 177.302L398.142 175.906C399.721 175.594 401.115 174.674 402.022 173.344C402.471 172.694 402.785 171.962 402.945 171.188C403.104 170.415 403.108 169.617 402.954 168.843C402.808 168.058 402.506 167.31 402.066 166.644C401.626 165.977 401.057 165.406 400.392 164.963C399.07 164.08 397.456 163.746 395.891 164.031L380.68 166.98C380.058 167.1 379.415 167.026 378.837 166.77C378.259 166.514 377.772 166.088 377.443 165.547C377.113 165.007 376.957 164.379 376.995 163.748C377.032 163.116 377.262 162.511 377.653 162.014L388.596 148.354C389.57 147.085 390.018 145.489 389.844 143.899C389.67 142.308 388.89 140.846 387.665 139.817C387.044 139.315 386.33 138.941 385.564 138.717C384.798 138.491 383.996 138.421 383.202 138.507C382.409 138.593 381.64 138.836 380.941 139.221C380.242 139.605 379.626 140.125 379.128 140.748L368.495 154.02C368.116 154.473 367.615 154.809 367.051 154.988C366.488 155.167 365.884 155.181 365.313 155.029C364.746 154.888 364.231 154.586 363.832 154.159C363.432 153.731 363.165 153.198 363.062 152.623L359.88 135.937C359.543 134.367 358.611 132.989 357.28 132.092C355.949 131.195 354.322 130.848 352.74 131.125C351.161 131.444 349.771 132.372 348.87 133.708C347.97 135.044 347.632 136.681 347.928 138.265L351.11 154.796C351.212 155.378 351.15 155.976 350.93 156.524C350.711 157.072 350.343 157.549 349.869 157.9C349.385 158.242 348.814 158.438 348.223 158.465C347.632 158.492 347.045 158.35 346.531 158.055L331.941 149.596C330.534 148.826 328.884 148.63 327.336 149.049C325.788 149.469 324.462 150.472 323.637 151.847C323.236 152.538 322.975 153.303 322.871 154.097C322.767 154.89 322.821 155.696 323.03 156.468C323.239 157.24 323.6 157.963 324.09 158.596C324.581 159.228 325.191 159.756 325.887 160.151L341.099 168.998C341.651 169.307 342.095 169.777 342.373 170.346C342.65 170.915 342.748 171.555 342.651 172.18C342.527 172.792 342.225 173.354 341.783 173.796C341.341 174.237 340.78 174.539 340.168 174.664L323.481 177.846C321.908 178.172 320.52 179.089 319.601 180.407C319.142 181.066 318.823 181.813 318.663 182.6C318.502 183.387 318.505 184.199 318.67 184.986C318.971 186.559 319.883 187.949 321.207 188.851C322.531 189.753 324.158 190.093 325.732 189.798L334.192 188.168C334.809 188.064 335.443 188.149 336.011 188.413C336.579 188.676 337.054 189.104 337.374 189.642C337.701 190.177 337.855 190.8 337.813 191.425C337.771 192.051 337.537 192.648 337.141 193.135L333.028 198.257C332.034 199.518 331.575 201.12 331.749 202.716C331.923 204.312 332.716 205.777 333.959 206.794C334.579 207.296 335.293 207.67 336.059 207.894C336.825 208.12 337.627 208.191 338.421 208.104C339.214 208.018 339.983 207.775 340.682 207.39C341.382 207.006 341.998 206.486 342.496 205.863L353.129 192.669C353.413 192.304 353.779 192.009 354.196 191.807C354.613 191.605 355.071 191.502 355.534 191.505Z" fill="#D13535"/>
<path d="M329.768 795.773C413.431 814.396 516.186 800.737 565.314 722.666C565.82 721.777 565.961 720.724 565.696 719.739C565.437 718.749 564.796 717.905 563.918 717.387C558.25 714.438 554.137 727.089 551.343 729.025C543.349 739.426 531.941 750.761 522.628 757.818C511.265 766.553 498.822 773.774 485.608 779.317C471.716 785.525 449.054 791.271 433.998 793.055C408.775 796.55 379.904 795.616 356.311 792.436C348.084 791.293 339.935 789.898 331.863 788.243C327.052 786.926 324.956 794.451 329.768 795.773Z" fill="#EFDCC4"/>
<path d="M422.278 819.208C423.675 802.448 401.401 785.373 390.614 803.923C388.13 808.267 384.405 819.366 391.623 820.762C396.202 820.531 395.348 816.259 395.426 813.001C395.426 813.001 395.348 813.777 395.426 813.079C395.633 811.796 395.998 810.547 396.512 809.354C396.279 809.821 396.357 809.663 396.512 809.275C396.667 808.887 397.599 807.333 398.219 806.405C398.84 805.47 398.142 806.557 398.142 806.635C398.142 806.714 400.392 804.311 399.694 804.851C401.168 803.923 401.091 803.996 403.031 803.534C401.634 803.686 405.515 803.456 404.195 803.534C404.782 803.613 405.356 803.771 405.903 803.996H405.747L407.843 805.318C408.386 805.707 407.843 805.318 407.766 805.24C409.061 806.264 410.233 807.435 411.258 808.735C412.5 810.13 414.44 814.785 414.517 816.726C413.198 823.092 420.959 826.271 422.278 819.287V819.208Z" fill="#D13535"/>
<path d="M437.412 839.621C433.616 832.771 428.05 827.07 421.297 823.114C414.543 819.152 406.849 817.081 399.02 817.109C391.191 817.142 383.514 819.275 376.793 823.294C370.071 827.307 364.552 833.053 360.812 839.93C382.62 828.291 417.932 830.464 437.412 839.621Z" fill="#EFDCC4"/>
<path d="M355.534 861.429C355.617 873.017 360.299 884.099 368.551 892.237C376.804 900.369 387.95 904.894 399.538 904.815C411.127 904.731 422.208 900.048 430.344 891.798C438.48 883.541 443.004 872.398 442.922 860.81C442.922 860.81 421.813 849.475 397.055 849.245C380.137 849.087 360.579 858.711 355.534 861.429Z" fill="#EFDCC4"/>
<path d="M360.812 844.202C361.522 844.213 362.223 844.028 362.829 843.656C383.318 832.794 417.001 834.73 435.627 843.426C436.437 843.797 437.344 843.91 438.222 843.746C439.098 843.577 439.901 843.139 440.516 842.491C441.14 841.844 441.538 841.006 441.65 840.111C441.762 839.216 441.582 838.31 441.137 837.527C436.97 830.014 430.864 823.761 423.455 819.417C416.047 815.077 407.608 812.798 399.02 812.832C390.432 812.866 382.01 815.201 374.633 819.597C367.257 823.998 361.197 830.295 357.086 837.837C356.633 838.636 356.455 839.565 356.582 840.477C356.708 841.388 357.13 842.232 357.785 842.88C358.581 843.701 359.669 844.174 360.812 844.202ZM399.228 821.381C408.561 821.381 417.587 824.713 424.684 830.774C415.966 828.68 407.03 827.639 398.064 827.667C389.991 827.628 381.941 828.54 374.083 830.386C381.168 824.561 390.056 821.381 399.228 821.381Z" fill="#452D34"/>
<path d="M442.922 860.81C450.063 863.759 453.632 856.696 450.063 849.864C439.275 829.609 366.089 821.617 346.687 852.503C343.66 857.315 346.764 863.833 354.215 862.127C354.215 862.127 377.42 849.087 397.055 849.245C421.813 849.476 442.922 860.81 442.922 860.81Z" fill="#D13535"/>
<path d="M450.761 844.202C426.857 821.769 362.442 821.071 343.427 850.41C339.236 856.696 343.194 866.084 351.033 866.241H351.499C352.78 878.077 358.419 889.018 367.319 896.925C376.219 904.838 387.744 909.155 399.65 909.036C411.557 908.924 422.995 904.382 431.739 896.3C440.482 888.218 445.907 877.171 446.958 865.307C448.309 865.217 449.616 864.789 450.761 864.069C457.668 859.567 455.883 849.476 450.761 844.202ZM402.876 900.077L402.1 885.101C403.975 883.812 405.389 881.96 406.134 879.81C406.879 877.666 406.916 875.336 406.238 873.164C405.561 870.991 404.206 869.095 402.371 867.755C400.537 866.41 398.32 865.69 396.046 865.695C393.633 865.667 391.281 866.461 389.378 867.947C387.474 869.427 386.132 871.515 385.573 873.862C385.013 876.208 385.269 878.679 386.297 880.863C387.326 883.046 389.067 884.814 391.234 885.877V899.458C382.895 897.69 375.345 893.289 369.699 886.902C364.053 880.514 360.611 872.483 359.88 863.99C366.554 860.732 382.775 853.511 396.589 853.511H397.055C415.759 853.747 432.523 860.653 438.576 863.45C437.921 872.792 433.975 881.6 427.438 888.303C420.902 895.011 412.198 899.182 402.876 900.077ZM447.268 856.775V856.927C447.268 857.163 447.036 857.236 446.958 857.394L440.594 855.143C432.911 851.727 416.147 845.362 397.133 845.131H396.589C378.972 845.131 359.182 854.833 353.516 857.782C353.109 858.002 352.741 858.289 352.43 858.638C348.86 859.178 348.937 855.222 350.878 853.359C370.125 829.918 418.475 831.939 442.301 847.072C442.224 847.072 442.224 846.994 442.146 846.915L442.689 847.382C445.483 849.476 448.433 852.97 447.268 856.775Z" fill="#452D34"/>
<path d="M446.958 857.236L447.268 856.927C447.191 856.927 447.036 857.085 446.958 857.236Z" fill="#452D34"/>
<path d="M442.534 847.072L442.301 846.915L442.688 847.224L442.534 847.072Z" fill="#452D34"/>
<path d="M352.43 858.48H352.584C352.894 858.401 352.817 858.323 352.43 858.48Z" fill="#452D34"/>
<path d="M260.773 829.997C231.825 851.259 223.21 914.512 222.9 948.741C223.598 959.913 223.288 973.341 229.885 982.656C232.601 984.44 236.792 981.491 235.628 978.311C234.464 975.125 231.747 964.725 231.669 962.941C229.807 947.886 230.661 932.595 232.679 917.54C234.697 902.485 240.905 875.865 246.959 862.284C250.529 853.201 257.203 842.024 262.326 838.225C268.689 835.737 267.603 827.824 260.773 829.997Z" fill="#452D34"/>
<path d="M943.423 976.679C949.867 979.549 956.306 982.735 961.973 987.08C965.637 989.995 968.946 993.327 971.828 997.013C976.409 1002.91 982.076 1013.39 985.954 1021.46C988.363 1025.81 995.19 1021.93 992.629 1017.5C986.961 1006.02 980.99 994.374 971.755 985.296C967.719 981.412 946.063 964.725 942.028 971.321C941.099 973.032 941.409 975.751 943.423 976.679Z" fill="#452D34"/>
<path d="M285.918 405.474C298.414 411.217 311.141 417.969 324.723 415.563C331.524 414.313 337.981 411.632 343.667 407.699C349.353 403.765 354.139 398.668 357.707 392.746C358.571 391.538 359.082 390.115 359.182 388.633C359.182 385.761 356.776 383.666 354.836 381.648C348.316 374.741 345.988 364.884 344.358 355.493C342.728 346.103 341.254 336.324 335.977 328.408C330.699 320.492 320.067 315.137 311.374 319.095C317.04 307.764 317.893 293.173 310.288 283.084C302.682 272.995 285.375 270.667 277.459 280.523C282.271 265.312 286.617 247.306 276.916 234.733C270.785 226.817 260.54 223.325 250.762 221.695C234.541 218.979 217.855 222.006 206.679 233.647C189.761 251.342 187.975 280.057 192.244 304.194C194.139 313.969 197.406 323.427 201.945 332.288C220.649 369.774 260.929 393.988 285.918 405.474Z" fill="#CE9C5C"/>
<path d="M475.906 405.629C463.412 411.373 450.683 418.125 437.102 415.719C430.292 414.497 423.823 411.828 418.132 407.891C412.442 403.955 407.663 398.844 404.118 392.902C403.254 391.694 402.743 390.269 402.643 388.788C402.566 385.994 405.049 383.899 406.912 381.803C413.508 374.896 415.837 365.04 417.467 355.649C419.096 346.258 420.493 336.48 425.848 328.563C431.203 320.647 441.759 315.292 450.45 319.25C444.785 307.919 443.931 293.329 451.537 283.239C459.143 273.15 476.45 270.822 484.366 280.679C479.554 265.545 475.13 247.462 484.909 234.889C491.04 226.973 501.207 223.48 511.064 221.851C527.284 219.134 543.97 222.161 555.145 233.802C572.067 251.497 573.851 280.29 569.579 304.349C567.688 314.149 564.419 323.633 559.88 332.521C541.176 369.929 500.897 394.143 475.906 405.629Z" fill="#CE9C5C"/>
<path d="M347.308 386.537C330.079 368.222 341.72 322.51 306.33 320.57C314.867 298.684 298.026 270.434 272.88 278.195C293.68 180.717 114.325 215.642 194.262 352.855C220.649 389.797 303.458 456.386 344.126 409.2C350.024 402.991 355.845 393.212 347.308 386.537ZM343.971 394.687C343.971 394.687 343.893 394.687 343.971 394.609V394.687ZM312.384 329.572C312.404 329.572 312.424 329.581 312.438 329.595C312.453 329.609 312.461 329.629 312.461 329.65C312.306 329.572 311.84 329.339 312.384 329.572ZM300.432 303.495C300.354 302.719 300.432 303.418 300.432 303.495V303.495ZM298.724 296.976L298.569 296.588C298.664 296.696 298.719 296.833 298.724 296.976ZM251.538 235.665L251.227 235.51L251.538 235.665ZM188.442 258.172H188.519C188.752 257.396 188.519 258.094 188.442 258.172ZM342.573 398.334C331.786 416.107 308.27 424.489 288.402 414.089C253.012 398.877 217.7 377.224 197.444 343.387C165.159 294.415 186.812 201.439 258.678 239.778C271.871 248.859 267.603 272.064 262.48 286.188C261.239 289.759 266.361 292.785 268.922 289.914C279.555 277.652 300.044 288.75 300.432 303.651C301.208 310.403 300.044 315.758 297.716 321.889C294.844 325.614 296.939 331.28 302.061 329.107C307.183 326.934 311.685 328.485 316.652 332.056C316.652 332.056 317.195 332.444 316.807 332.211C334.037 347.655 324.646 376.681 342.108 392.358C344.281 394.298 344.669 395.385 342.573 398.334Z" fill="#452D34"/>
<path d="M316.652 332.055L316.806 332.21L316.652 332.055Z" fill="#452D34"/>
<path d="M579.749 255.611C563.372 203.69 466.128 218.048 488.091 278.195C462.868 270.745 446.027 298.451 454.564 320.57C419.562 323.286 430.583 364.73 415.216 384.908C396.435 400.12 428.953 422.238 443.543 425.42C521.929 424.101 610.405 337.489 579.749 255.611ZM577.188 276.177C577.233 276.217 577.262 276.273 577.262 276.333C577.188 276.255 577.11 275.479 577.188 276.177ZM455.961 328.331C455.961 328.409 456.038 328.409 456.116 328.409C456.194 328.409 456.116 328.409 455.961 328.331ZM577.419 300.702C572.529 359.685 510.908 403.612 457.668 418.591C442.146 420.453 426.547 411.295 418.32 398.334C417.467 396.938 416.147 395.23 417.544 393.755C436.404 378.156 426.624 348.121 444.087 332.211C447.269 329.572 454.176 326.856 458.987 329.185C462.325 330.97 465.972 327.167 464.11 323.83C458.755 312.964 457.979 297.365 468.068 288.983C468.378 288.75 468.534 288.517 468.068 288.983C475.053 283.317 487.005 283.085 491.972 289.914C494.533 292.786 499.655 289.837 498.491 286.189C495.386 275.944 492.437 266.942 493.601 255.611C493.601 255.456 493.601 255.145 493.679 255.145C494.027 252.111 494.975 249.177 496.468 246.512C497.96 243.847 499.966 241.506 502.371 239.623H502.216C525.188 224.024 562.286 229.456 572.298 257.706C572.377 257.706 572.45 257.939 572.529 258.017C577.965 271.599 578.815 286.422 577.419 300.702ZM458.833 329.107C458.91 329.107 458.91 329.107 458.91 329.185C458.91 329.262 458.91 329.107 458.833 329.107ZM463.179 321.734C463.184 321.794 463.211 321.85 463.256 321.889C463.179 321.811 463.179 321.811 463.179 321.734Z" fill="#452D34"/>
<path d="M493.679 255.222C493.661 255.352 493.635 255.482 493.601 255.61C493.652 255.487 493.679 255.355 493.679 255.222Z" fill="#452D34"/>
<path d="M572.528 258.171L572.298 257.861C572.298 257.861 572.298 258.016 572.528 258.171Z" fill="#452D34"/>
<path d="M138.073 369.541C136.676 374.042 136.831 378.932 137.452 383.588C138.178 388.653 139.453 393.623 141.255 398.412C142.921 403.116 145.108 407.619 147.774 411.838C150.763 416.079 154.085 420.076 157.708 423.79C165.142 431.587 173.571 438.371 182.776 443.969C191.839 449.393 201.642 453.472 211.879 456.076C222.321 458.708 233.104 459.729 243.854 459.102L247.967 458.792C249.986 458.559 251.925 457.085 251.848 454.911C251.77 452.738 250.14 450.798 247.967 451.031C242.757 451.522 237.517 451.626 232.291 451.341C229.729 451.264 227.168 451.031 224.685 450.721C223.909 450.565 225.306 450.798 224.53 450.643H223.676L221.658 450.332L217.932 449.556C213.052 448.541 208.253 447.166 203.575 445.443L200.005 444.123L199.617 443.891C198.918 443.658 199.694 443.969 199.772 443.969C199.497 443.912 199.234 443.808 198.996 443.658L197.211 442.882C194.96 441.795 192.71 440.709 190.537 439.467C186.067 437.081 181.786 434.357 177.731 431.318L176.179 430.154C175.558 429.688 176.645 430.464 176.024 429.999C175.732 429.836 175.471 429.626 175.248 429.378L172.221 426.972L166.478 421.695C162.74 418.019 159.216 414.132 155.923 410.053L155.69 409.743L156.001 410.131L155.612 409.587L154.681 408.268C154.065 407.409 153.52 406.5 153.052 405.552C151.894 403.599 150.857 401.578 149.947 399.498C149.803 399.221 149.674 398.936 149.559 398.644C149.403 398.257 149.714 398.877 149.714 398.955C149.714 399.033 149.559 398.644 149.559 398.567L148.86 396.86C148.395 395.695 148.007 394.531 147.619 393.367C146.843 390.961 146.221 388.633 145.678 386.227C145.445 384.985 145.291 383.821 145.058 382.657C144.825 381.493 145.135 383.355 145.058 382.657C144.98 381.958 144.98 382.036 144.98 381.725C144.98 381.415 144.902 380.562 144.825 380.019C144.747 379.475 144.747 377.845 144.747 376.681C144.814 376.167 144.84 375.648 144.825 375.129C144.888 374.902 144.915 374.666 144.902 374.43C144.825 375.129 144.98 373.577 144.902 374.43C144.98 373.732 145.291 372.568 145.523 371.637C145.785 370.649 145.647 369.598 145.138 368.711C144.629 367.825 143.792 367.175 142.807 366.903C141.819 366.641 140.768 366.779 139.881 367.287C138.995 367.796 138.345 368.634 138.073 369.619V369.541Z" fill="#D13535"/>
<path d="M621.194 366.903C621.503 367.834 621.734 368.765 621.965 369.696C622.201 370.628 622.043 370.162 622.043 370.395C621.863 369.841 621.475 369.378 620.957 369.106C620.445 368.833 619.843 368.77 619.28 368.932C618.723 369.093 618.244 369.466 617.957 369.971C617.665 370.476 617.58 371.075 617.721 371.641C617.862 372.206 618.216 372.695 618.712 373.004C619.207 373.312 619.803 373.417 620.372 373.296C620.946 373.175 621.447 372.837 621.773 372.354C622.1 371.87 622.223 371.279 622.122 370.705C622.043 370.007 622.122 370.938 622.122 371.093C622.122 371.248 622.201 371.637 622.28 371.947C622.432 374.195 622.432 376.451 622.28 378.699C622.19 379.29 622.133 379.886 622.122 380.484C622.06 380.738 622.032 380.999 622.043 381.26C621.965 381.493 621.891 382.579 621.965 381.958C622.043 381.338 621.891 382.269 621.891 382.424C621.801 382.727 621.751 383.04 621.734 383.356C621.599 383.945 621.497 384.541 621.424 385.141C620.957 387.576 620.361 389.986 619.64 392.358L618.475 395.851L617.856 397.48L617.541 398.257C617.524 398.372 617.468 398.481 617.389 398.567C617.231 399.11 617.699 397.946 617.468 398.412C616.624 400.395 615.639 402.314 614.519 404.155L612.887 406.638C612.729 406.716 612.189 407.414 612.498 407.027L612.11 407.57L610.793 409.2C609.082 411.295 607.298 413.235 605.514 415.175C601.85 418.956 597.939 422.482 593.797 425.73L593.408 426.041C593.487 426.041 593.949 425.575 593.639 425.885L592.784 426.506L591.236 427.671L587.898 429.999C585.726 431.473 583.475 432.87 581.224 434.19C578.972 435.509 576.642 436.751 574.239 437.915L570.592 439.622L568.96 440.321L568.651 440.476L567.643 440.864C562.769 442.867 557.765 444.527 552.662 445.831C550.101 446.529 547.54 447.073 544.901 447.538L540.943 448.237H540.012C539.624 448.315 540.322 448.237 540.322 448.237H539.779L537.839 448.47C532.53 449.039 527.187 449.221 521.851 449.013L517.971 448.781C516.941 448.781 515.954 449.189 515.227 449.917C514.499 450.645 514.09 451.632 514.09 452.661C514.09 453.69 514.499 454.677 515.227 455.405C515.954 456.132 516.941 456.541 517.971 456.541C529.079 457.347 540.246 456.511 551.11 454.058C561.943 451.62 572.388 447.703 582.152 442.416C591.877 437.151 600.815 430.541 608.694 422.781C612.735 418.9 616.444 414.695 619.792 410.209C622.589 406.483 624.452 402.059 626.079 397.713C627.806 392.678 629.005 387.476 629.652 382.191C630.35 377.372 630.271 372.473 629.416 367.679C629.27 366.703 629.033 365.743 628.718 364.807C628.583 364.313 628.347 363.85 628.032 363.446C627.716 363.042 627.322 362.705 626.878 362.452C626.428 362.2 625.938 362.038 625.426 361.976C624.919 361.914 624.401 361.953 623.906 362.091C623.411 362.228 622.949 362.462 622.544 362.778C622.145 363.095 621.807 363.487 621.554 363.934C621.3 364.381 621.137 364.873 621.075 365.382C621.013 365.892 621.053 366.408 621.194 366.903Z" fill="#D13535"/>
<path d="M444.708 545.481C444.569 541.815 443.076 538.331 440.517 535.702C439.151 534.228 437.446 533.109 435.55 532.443C431.049 529.727 424.995 530.115 420.571 532.753C416.147 535.392 412.189 541.135 412.655 546.878C413.121 552.622 416.303 557.899 421.425 560.537C424.005 561.965 426.944 562.612 429.884 562.4C431.793 562.184 433.654 561.66 435.394 560.848C436.597 560.271 437.718 559.541 438.732 558.675C440.642 557.055 442.169 555.032 443.203 552.75C444.236 550.468 444.75 547.986 444.708 545.481Z" fill="#452D34"/>
<path d="M319.601 535.702C318.195 534.241 316.467 533.125 314.557 532.443C310.133 529.727 304.079 530.115 299.578 532.753C295.077 535.392 291.274 541.135 291.739 546.878C291.925 549.711 292.827 552.451 294.361 554.84C295.895 557.229 298.01 559.19 300.509 560.537C303.065 561.955 305.976 562.602 308.891 562.4C310.803 562.204 312.668 561.679 314.401 560.848C315.603 560.271 316.725 559.541 317.739 558.675C319.675 557.077 321.221 555.058 322.256 552.771C323.292 550.484 323.791 547.991 323.714 545.481C323.575 541.831 322.113 538.355 319.601 535.702Z" fill="#452D34"/>
<path d="M491.513 614.062C502.128 610.534 508.43 600.747 505.589 592.209C502.748 583.666 491.84 579.602 481.224 583.137C470.609 586.666 464.307 596.453 467.148 604.996C469.989 613.533 480.898 617.597 491.513 614.062Z" fill="#D13535"/>
<path d="M286.383 605.036C289.239 596.499 282.955 586.706 272.345 583.155C261.736 579.604 250.821 583.644 247.965 592.182C245.109 600.72 251.393 610.518 262.003 614.064C272.611 617.615 283.527 613.574 286.383 605.036Z" fill="#D13535"/>
<path d="M696.006 861.897C667.99 798.098 624.604 738.577 558.095 711.641C599.458 657.393 603.032 580.481 570.356 518.085C687.317 540.67 699.732 313.74 596.357 369.309C550.644 412.459 533.337 406.095 476.915 417.892C474.432 416.728 471.871 414.012 468.921 415.098C460.695 418.202 454.331 419.134 448.2 418.047C441.994 416.91 436.1 414.468 430.909 410.883C425.718 407.297 421.347 402.649 418.087 397.248C417.311 395.618 416.38 393.678 414.362 393.367C402.49 390.904 390.399 389.656 378.274 389.642C367.717 389.659 357.188 390.725 346.842 392.824C344.436 393.135 343.738 395.385 342.806 397.248C332.407 413.934 312.849 423.402 293.214 415.564C291.429 414.865 289.644 415.719 288.247 416.728C235.007 412.382 210.56 407.803 172.066 373.034C66.8277 319.018 84.6774 551.846 206.291 519.871C125.5 731.902 412.344 874.081 553.128 717.854C617.231 742.921 661.237 801.824 688.166 863.444C689.489 869.731 698.488 868.645 696.006 861.897ZM525.654 418.358C558.327 413.779 583.238 392.126 601.4 376.293C684.131 325.304 679.786 537.41 564.767 507.608C546.919 473.771 517.505 448.159 489.488 423.402L525.654 418.358ZM192.787 513.506C98.7248 519.327 90.2654 372.025 146.222 372.18C153.648 372.214 160.833 374.819 166.555 379.553C200.704 409.821 226.547 421.151 277.537 424.1C249.21 445.055 226.547 473.848 211.957 506.056C210.327 510.092 202.799 513.041 192.787 513.506ZM397.055 775.051C196.357 774.038 133.261 529.649 292.283 424.256C315.255 432.56 339.003 420.608 350.645 400.74C370.668 397.015 390.536 397.481 410.637 401.361C421.347 421.307 449.752 432.87 470.086 423.79C640.362 519.871 618.166 774.742 397.055 775.051Z" fill="#452D34"/>
<path d="M455.495 631.707C455.495 645.366 427.4 677.806 393.951 677.806C360.501 677.806 332.329 646.064 332.329 632.483C332.329 618.897 358.794 608.188 392.321 608.188C425.848 608.188 455.495 618.126 455.495 631.707Z" fill="#D13535"/>
<path d="M381.301 677.963C345.988 677.963 315.488 644.668 315.488 628.369C315.488 619.91 322.628 612.38 335.589 607.18C347.308 602.447 362.985 599.807 379.748 599.807C412.422 599.807 447.191 609.589 447.191 627.592C447.191 644.201 416.69 677.963 381.301 677.963ZM379.748 608.345C346.92 608.345 324.025 618.897 324.025 628.369C324.025 633.26 329.923 643.503 340.789 652.89C347.929 659.025 362.752 669.425 381.301 669.425C399.849 669.425 414.673 658.867 421.89 652.502C432.755 643.036 438.654 632.556 438.654 627.592C438.654 618.515 413.431 608.345 379.748 608.345Z" fill="#452D34"/>
<path d="M427.555 630.93L428.098 631.549C428.464 631.881 428.884 632.14 429.341 632.326C429.827 632.545 430.358 632.652 430.893 632.635C431.401 632.646 431.906 632.54 432.367 632.326C432.824 632.14 433.244 631.881 433.609 631.549L434.23 630.699C434.572 630.108 434.759 629.439 434.773 628.758L434.618 627.745C434.423 627.103 434.077 626.518 433.609 626.039L432.988 625.42C432.655 625.049 432.225 624.779 431.746 624.644C431.282 624.435 430.78 624.334 430.272 624.334C429.764 624.334 429.262 624.435 428.797 624.644C428.318 624.779 427.888 625.049 427.555 625.42L426.935 626.197C426.565 626.805 426.376 627.503 426.391 628.212L426.546 629.219C426.697 629.883 427.05 630.48 427.555 630.93Z" fill="white"/>
<path d="M397.831 623.867H398.452L399.384 623.709H401.712C403.162 623.647 404.615 623.698 406.058 623.867C406.213 623.867 407.299 624.024 406.368 623.945L407.455 624.097L409.628 624.564C411.128 624.981 412.603 625.442 414.052 625.96C415.914 626.737 418.398 625.184 418.786 623.248C419.174 621.306 418.165 619.285 416.069 618.514C409.595 616.027 402.572 615.329 395.735 616.494C393.718 616.882 392.399 619.443 393.019 621.306C393.64 623.169 395.658 624.334 397.831 624.024V623.867Z" fill="white"/>
<path d="M437.49 703.492C441.987 704.555 446.659 704.645 451.195 703.762C455.731 702.878 460.027 701.043 463.799 698.37C465.429 697.211 466.438 694.96 465.196 693.018C463.955 691.076 461.704 690.378 459.919 691.695C458.337 692.821 456.647 693.783 454.874 694.571C454.564 694.723 454.331 694.802 454.797 694.644L454.098 694.881L452.701 695.348L449.829 696.119L448.433 696.355H447.734C446.757 696.485 445.771 696.535 444.785 696.507L441.991 696.355C440.982 696.277 442.457 696.434 441.913 696.355L441.137 696.198L439.585 695.888C438.587 695.612 437.519 695.742 436.617 696.248C435.714 696.761 435.051 697.605 434.773 698.607C434.495 699.603 434.625 700.672 435.135 701.572C435.644 702.479 436.491 703.137 437.49 703.418V703.492Z" fill="#452D34"/>
<path d="M738.07 983.973L764.69 1004.46C768.962 1007.1 772.918 1000.43 768.646 997.79L742.026 977.298C737.76 974.659 733.804 981.412 738.07 983.973Z" fill="#452D34"/>
<path d="M924.721 539.273C923.872 538.872 923.146 538.255 922.611 537.483C922.071 536.712 921.75 535.814 921.671 534.878C921.592 533.943 921.761 533.003 922.161 532.154C922.56 531.304 923.174 530.574 923.945 530.037C941.172 518.163 950.408 502.331 950.875 489.059C951.421 472.451 935.51 452.428 909.278 464.612C847.19 493.406 811.565 470.511 783.707 447.383C770.048 436.052 748.391 451.419 740.788 467.406C723.403 504.193 781.067 538.807 839.041 546.568L840.904 546.801C855.34 549.206 872.876 566.591 880.795 577.532C888.708 588.478 892.822 602.993 897.246 616.336C901.669 629.686 907.494 643.424 918.514 652.35C929.533 661.276 946.918 663.527 957.24 653.903C961.821 649.553 964.382 643.581 968.259 638.612C972.143 633.648 988.053 633.333 991.385 622.392C998.915 597.713 959.722 555.338 924.721 539.273Z" fill="#EFDCC4"/>
<path d="M925.965 457.472L925.729 457.317C926.195 457.705 926.195 457.627 925.965 457.472Z" fill="#452D34"/>
<path d="M939.546 476.021C939.624 476.332 939.624 476.951 939.546 476.021V476.021Z" fill="#452D34"/>
<path d="M736.674 483.083C736.365 482.308 736.516 482.773 736.674 483.083V483.083Z" fill="#452D34"/>
<path d="M920.685 455.998C919.832 455.843 920.528 455.998 920.685 455.998V455.998Z" fill="#452D34"/>
<path d="M987.817 597.325C977.343 564.418 947.774 539.35 916.961 525.614C932.562 515.369 946.84 499.149 947.538 479.668C946.609 450.41 918.666 440.631 895.152 454.446C870.553 465.854 837.876 469.347 814.594 458.481C804.576 454.009 795.138 448.327 786.499 441.563H786.577C779.514 435.587 771.832 428.834 761.82 430.93C743.501 434.422 727.827 452.117 726.583 470.744C726.741 500.235 757.239 517.464 781.068 527.942C799.302 536.401 819.327 538.807 838.574 543.308H838.805C856.314 552.207 870.209 566.872 878.156 584.831C883.666 597.944 887.391 615.177 894.685 628.679C910.286 659.177 947.695 666.549 963.836 632.247L964.146 631.858C965.311 630.62 966.943 630.074 968.417 629.298H968.339C984.789 625.032 992.398 614.322 987.817 597.325ZM799.229 526.39C777.961 519.405 756.153 509.471 741.796 491.698L742.105 492.086C739.933 489.32 738.109 486.296 736.674 483.083C736.68 483.143 736.708 483.199 736.753 483.239C727.596 463.759 746.765 438.536 767.172 438.458H767.099C769.491 438.74 771.765 439.651 773.695 441.097L773.537 440.942C811.099 476.176 859.685 481.997 905.165 458.481C909.509 456.464 916.184 455.299 920.687 455.998C922.414 456.245 924.103 456.688 925.729 457.317H925.65C929.072 458.806 932.077 461.095 934.424 463.992H934.346C935.595 465.601 936.664 467.345 937.525 469.191C937.604 469.424 938.071 470.666 937.683 469.502C938.538 471.628 939.163 473.84 939.546 476.099V475.943C940.863 485.955 936.051 495.734 930.074 503.572H930.153C898.878 541.29 842.379 540.126 799.229 526.39ZM850.759 550.603L850.916 550.759L850.759 550.603ZM914.4 640.942H914.242C913.781 640.554 914.169 640.784 914.4 640.942ZM981.221 607.726C981.063 611.136 980.135 614.789 977.264 616.804H977.416C960.808 625.572 960.499 621.464 949.946 639.31C941.797 650.645 924.491 648.934 914.4 641.021C904.309 633.102 899.655 622.781 895.698 611.913C887.313 583.976 878.387 560.305 853.32 542.998C872.258 543.075 891.348 539.428 908.266 530.736C931.396 538.419 952.507 555.726 966.864 573.885C971.304 579.665 975.058 585.94 978.041 592.592C978.041 592.434 977.962 592.356 977.962 592.283C979.977 597.168 981.531 602.368 981.221 607.726Z" fill="#452D34"/>
<path d="M967.95 629.607C967.792 629.764 967.719 629.764 968.337 629.455L967.95 629.607Z" fill="#452D34"/>
<path d="M963.836 632.246C964.066 632.094 964.145 631.937 964.145 631.858C964.145 631.785 963.915 632.246 963.836 632.246Z" fill="#452D34"/>
<path d="M760.188 470.666C764.898 479.123 772.074 485.945 780.758 490.224C785.137 492.399 789.678 494.24 794.338 495.734C798.993 497.208 803.726 498.761 808.538 499.847C813.35 500.934 820.649 501.943 826.547 500.158C828.483 499.614 829.958 497.441 829.26 495.424C828.99 494.439 828.337 493.601 827.453 493.093C826.564 492.584 825.517 492.446 824.527 492.707L822.821 493.173L821.887 493.328C821.735 493.328 820.959 493.406 821.735 493.328C820.576 493.496 819.405 493.548 818.24 493.483H815.601C815.37 493.483 814.593 493.328 815.37 493.483L811.802 492.863C807.221 491.853 802.64 490.379 798.216 488.982L791.856 486.809L788.907 485.645L788.44 485.49L787.973 485.257L786.347 484.481C784.337 483.57 782.396 482.533 780.522 481.376C779.615 480.827 778.732 480.231 777.882 479.591L777.184 479.126C776.723 478.737 777.882 479.669 777.105 479.048L775.558 477.807C773.791 476.208 772.153 474.469 770.667 472.606L770.358 472.219C770.588 472.606 769.89 471.675 769.89 471.598C769.53 471.196 769.215 470.754 768.962 470.278C768.23 469.201 767.555 468.087 766.941 466.941C766.429 466.046 765.579 465.391 764.583 465.122C763.581 464.853 762.523 464.991 761.623 465.505C760.728 466.02 760.075 466.869 759.805 467.866C759.535 468.863 759.676 469.926 760.188 470.822V470.666Z" fill="#452D34"/>
<path d="M828.641 307.454C820.491 300.702 809.703 313.119 817.385 320.414C825.534 329.417 838.962 314.128 828.641 307.454Z" fill="#452D34"/>
<path d="M907.803 325.769C901.05 314.439 884.673 325.847 893.756 335.859C900.195 343.154 912.458 334.151 907.803 325.769Z" fill="#452D34"/>
<path d="M832.755 383.976L836.79 385.606C849.02 390.501 862.358 391.976 875.364 389.875L879.709 389.177C880.075 389.11 880.452 389.146 880.801 389.282C881.15 389.417 881.454 389.646 881.679 389.944C881.904 390.242 882.039 390.596 882.078 390.967C882.112 391.339 882.045 391.712 881.881 392.048C878.544 398.955 869.466 413.235 853.01 411.217C836.559 409.2 831.899 393.755 830.036 386.382C829.935 386.018 829.941 385.632 830.048 385.27C830.155 384.907 830.363 384.581 830.644 384.33C830.926 384.079 831.275 383.913 831.646 383.851C832.023 383.788 832.406 383.832 832.755 383.976Z" fill="#452D34"/>
<path d="M746.607 258.87C749.247 260.81 751.886 262.595 754.447 264.303C735.042 278.661 741.176 311.257 760.576 322.976C757.925 350.919 764.555 378.958 779.435 402.758C780.37 416.107 779.283 429.533 777.494 442.804C777.274 443.79 777.432 444.824 777.933 445.701C778.433 446.577 779.25 447.233 780.212 447.539C782.075 447.926 784.714 446.996 785.024 444.822C786.346 434.5 787.585 424.178 787.506 413.779C813.507 446.064 859.217 458.404 895.54 435.975C895.462 441.097 890.419 459.723 897.944 460.034C900.043 459.879 901.906 458.326 901.827 456.153C901.669 447.151 902.446 438.07 905.007 429.533C927.592 412.46 946.761 390.496 958.169 364.497C982.853 367.057 1004.27 333.22 990.456 311.722C1024.06 233.958 973.46 145.716 861.159 147.035C796.511 148.044 723.555 219.445 746.607 258.87ZM762.596 309.471C762.208 311.024 761.972 312.654 761.662 314.206C760.176 312.953 758.803 311.577 757.548 310.092C757.396 309.86 756.619 309.084 757.396 309.86C755.573 307.501 754.059 304.919 752.894 302.176C752.894 302.254 752.973 302.254 752.973 302.332C749.787 294.803 749.404 285.956 752.584 278.428C753.282 276.332 758.094 269.58 762.518 268.882C764.797 270.072 767.042 271.158 769.271 272.142C766.553 284.482 765.236 297.132 762.596 309.471ZM985.335 318.629C985.335 318.521 985.307 318.414 985.256 318.319C985.256 318.397 985.335 318.552 985.335 318.629ZM983.314 315.215C985.487 317.853 986.342 321.268 986.888 324.45V323.984C988.903 339.429 976.488 354.873 961.275 357.357C966.864 343.697 969.655 329.107 972.374 314.672C976.009 315.046 979.662 315.227 983.314 315.215ZM823.131 272.84C830.734 252.118 856.893 245.599 870.862 262.984C872.415 265.933 875.285 267.33 878.234 265.545C883.277 262.906 889.485 263.76 895.073 263.216C923.945 261.043 910.905 304.582 936.439 309.239C943.89 310.869 954.758 312.654 964.613 313.818C959.57 345.56 947.774 376.681 925.498 400.507C903.223 424.333 876.135 444.512 842.846 438.924C837.674 438.091 832.625 436.659 827.785 434.656C785.333 416.805 762.05 364.73 768.725 319.173C771.207 306.135 773.847 289.371 776.565 275.091C791.31 279.98 821.268 291.544 823.131 272.84Z" fill="#452D34"/>
<path d="M752.972 302.332C753.051 302.564 753.203 302.797 752.972 302.332V302.332Z" fill="#452D34"/>
<path d="M801.942 296.123C802.15 296.63 802.476 297.08 802.893 297.432C803.315 297.784 803.816 298.027 804.35 298.14C816.687 300.702 829.187 302.719 841.759 304.116C843.617 304.271 845.328 302.409 845.558 300.702C845.637 292.242 811.644 289.681 804.35 289.293C800.776 289.138 799.071 294.027 801.942 296.123Z" fill="#452D34"/>
<path d="M893.52 313.352C900.741 314.439 933.569 327.71 935.511 318.862C937.447 310.015 901.669 306.367 894.606 305.669C890.183 305.591 889.333 312.266 893.52 313.352Z" fill="#452D34"/>
<path d="M664.344 636.98C665.97 632.872 671.018 622.781 675.205 617.502C677.226 613.703 685.218 610.286 681.261 605.475C668.142 597.714 647.887 656.774 646.722 667.016C640.121 671.828 632.951 675.813 625.381 678.891C608.306 685.876 585.023 692.241 564.768 690.221C562.751 689.99 560.811 692.162 560.889 694.104C562.363 703.339 592.941 696.197 599.926 695.032C615.369 691.543 630.66 686.185 644.319 677.963C637.723 706.986 636.946 737.096 630.891 766.125C629.574 767.757 629.264 770.16 630.891 771.635C639.896 776.604 639.665 760.227 640.903 754.869C642.766 740.901 644.24 726.932 646.182 713.042C649.908 687.198 654.41 661.197 664.344 636.98Z" fill="#452D34"/>
<path d="M579.901 540.748C628.448 517.541 679.375 499.689 731.783 487.508C736.595 486.266 734.653 478.738 729.768 480.057C723.403 478.117 539.235 536.945 579.901 540.748Z" fill="#452D34"/>
<path d="M763.446 285.568C764.38 282.386 760.655 279.436 757.705 281.222C754.756 283.007 754.289 297.752 757.705 299.848C766.71 302.719 761.898 290.302 763.446 285.568Z" fill="#452D34"/>
<path d="M970.511 327.244C970.511 330.891 972.531 334.694 969.504 337.876L969.656 337.566C966.397 341.214 971.985 346.413 975.323 342.843C982.695 335.859 977.653 316.922 970.511 327.244Z" fill="#452D34"/>
<path d="M926.973 623.71C925.678 623.079 924.435 622.353 923.247 621.537C920.99 619.742 919.206 617.429 918.047 614.789C917.889 614.401 917.968 614.474 918.204 615.02C916.803 612.302 917.501 607.18 913.235 607.18C911.293 607.338 909.121 608.964 909.357 611.063C910.286 622.393 920.067 631.938 931.396 632.557C936.439 632.636 936.439 624.875 931.396 624.796C929.792 624.644 928.228 624.25 926.737 623.636L926.973 623.71Z" fill="#452D34"/>
<path d="M939.776 595.153C935.589 592.592 931.475 599.109 935.662 601.749C938.02 603.651 940.176 605.779 942.106 608.114H942.027C942.258 608.345 942.495 608.733 942.185 608.345C945.134 611.136 946.22 619.134 951.651 616.415C958.017 610.984 944.048 598.8 939.776 595.153Z" fill="#452D34"/>
<path d="M942.106 608.114C942.106 608.187 942.185 608.187 942.185 608.265L942.106 608.114Z" fill="#452D34"/>
<path d="M954.291 586.07C964.224 591.191 961.196 604.231 968.102 602.605C976.955 597.714 962.282 580.02 955.686 578.078C949.091 576.136 947.847 584.443 954.291 586.07Z" fill="#452D34"/>
<path d="M855.88 368.998C870.085 374.12 883.435 360.616 873.344 347.578C871.639 345.172 870.704 342.378 871.402 339.506C871.869 334.384 877.537 323.752 869.776 322.2C867.834 322.277 865.74 323.907 865.892 326.08C866.129 333.22 861.39 340.205 864.418 347.267C865.504 351.148 870.237 354.563 868.763 358.909C867.288 363.255 861.548 362.789 857.979 361.47C853.168 360.073 851.068 367.679 855.88 368.998ZM869.151 357.745C869.23 357.512 869.23 357.59 869.151 357.745V357.745ZM867.288 360.772L866.979 361.082C866.9 361.004 867.215 360.849 867.288 360.772Z" fill="#452D34"/>
<path d="M843.695 245.365L846.802 244.279L848.586 243.891H849.205C849.442 243.813 850.68 243.503 849.672 243.813C850.77 243.582 851.89 243.504 853.01 243.581L856.505 243.736L857.433 243.891L858.908 244.201C860.09 244.466 861.26 244.803 862.403 245.211L863.253 245.521L863.641 245.676L864.029 245.831L864.885 246.219C865.96 246.765 867.001 247.387 867.986 248.082L870.704 249.867C871.925 250.639 873.265 251.214 874.66 251.574C877.463 252.311 880.401 252.311 883.198 251.574L887.081 250.643L888.944 250.41C888.089 250.488 889.254 250.333 889.333 250.333H890.419C891.758 250.229 893.109 250.203 894.454 250.255L896.396 250.41H896.317L897.555 250.643C898.878 250.869 900.178 251.207 901.438 251.652L901.979 251.885L902.525 252.04C903.104 252.246 903.656 252.534 904.157 252.894L905.862 253.902L906.56 254.291L906.948 254.601C908.001 255.432 908.963 256.368 909.818 257.395C910.179 257.759 910.612 258.047 911.085 258.244C911.557 258.441 912.064 258.543 912.576 258.543C913.088 258.543 913.595 258.441 914.068 258.244C914.54 258.047 914.968 257.759 915.328 257.395C916.026 256.648 916.414 255.663 916.414 254.64C916.414 253.617 916.026 252.632 915.328 251.885C907.804 243.192 895.461 241.175 884.673 243.348C883.356 243.581 882.112 243.968 880.874 244.279L879.94 244.434C880.874 244.357 879.861 244.434 879.709 244.434H877.767C876.76 244.357 878.623 244.589 877.61 244.357L876.681 244.124L875.825 243.891C874.677 243.321 873.591 242.646 872.567 241.873C868.093 238.8 862.943 236.845 857.557 236.169C852.171 235.494 846.695 236.119 841.602 237.993C839.739 238.769 838.186 240.632 838.883 242.805C839.581 244.978 841.681 246.297 843.695 245.521V245.365Z" fill="white"/>
<path d="M825.382 243.658C818.707 244.978 819.872 254.136 826.62 251.652C833.374 249.169 832.135 241.097 825.382 243.658Z" fill="white"/>
<path d="M969.194 194.609C966.554 189.409 946.142 169.541 942.106 179.242C941.251 182.192 944.358 184.054 945.596 184.365C948.489 185.655 951.224 187.269 953.745 189.177C957.139 191.781 960.077 194.927 962.44 198.489C965.001 202.836 971.755 198.878 969.194 194.609Z" fill="white"/>
<path d="M790.381 273.694C795.165 275.384 800.202 276.275 805.279 276.332C805.791 276.343 806.303 276.25 806.776 276.059C807.254 275.867 807.688 275.582 808.048 275.219C808.408 274.857 808.695 274.425 808.886 273.949C809.078 273.474 809.173 272.964 809.162 272.452C808.926 267.563 803.416 268.804 800.078 268.183L801.092 268.339C798.142 267.87 795.233 267.169 792.396 266.243C787.584 264.846 785.491 272.374 790.381 273.694Z" fill="white"/>
<path d="M961.275 320.957C961.056 319.283 960.363 317.707 959.277 316.414C958.191 315.121 956.756 314.167 955.146 313.662L934.886 306.911C934.812 306.833 934.655 306.755 934.655 306.6L928.678 286.034C928.222 284.417 927.322 282.963 926.078 281.837C924.828 280.71 923.292 279.958 921.637 279.666C919.988 279.375 918.283 279.555 916.73 280.187C915.176 280.819 913.826 281.877 912.846 283.239L900.122 300.391C900.088 300.465 900.031 300.528 899.964 300.57C899.891 300.612 899.812 300.631 899.733 300.624L878.386 299.848C876.715 299.801 875.06 300.219 873.608 301.055C872.156 301.89 870.963 303.111 870.164 304.582C870.108 303.923 869.978 303.271 869.775 302.642C869.235 301.023 868.25 299.589 866.928 298.505C865.611 297.42 864.018 296.729 862.324 296.511L840.594 293.639C840.499 293.622 840.409 293.586 840.33 293.532C840.246 293.479 840.178 293.41 840.127 293.329L830.194 273.771C829.44 272.244 828.264 270.966 826.806 270.086C825.348 269.206 823.671 268.761 821.966 268.804C820.266 268.818 818.606 269.304 817.165 270.208C815.724 271.113 814.565 272.4 813.817 273.926L804.35 293.717C804.311 293.796 804.26 293.865 804.193 293.919C804.125 293.973 804.046 294.01 803.962 294.027L782.306 297.442C780.623 297.692 779.036 298.412 777.741 299.52C776.441 300.629 775.484 302.081 774.972 303.709C774.46 305.337 774.421 307.076 774.854 308.727C775.287 310.377 776.177 311.873 777.42 313.042L793.252 328.175C793.325 328.243 793.387 328.327 793.426 328.421C793.466 328.515 793.488 328.617 793.483 328.718L789.993 350.371C789.734 352.046 789.943 353.761 790.601 355.322C791.26 356.885 792.34 358.233 793.719 359.219C795.25 360.334 797.096 360.932 798.992 360.926C800.506 360.917 801.998 360.545 803.343 359.84L822.664 349.362C822.748 349.326 822.844 349.308 822.934 349.308C823.03 349.308 823.12 349.326 823.21 349.362L842.688 359.374C844.213 360.143 845.919 360.47 847.624 360.319C849.323 360.169 850.944 359.546 852.312 358.521C853.68 357.519 854.738 356.147 855.357 354.567C855.976 352.986 856.133 351.261 855.801 349.595L852.931 333.608L858.908 333.996L863.18 334.462H864.339L866.517 334.85C871.408 335.608 876.253 336.645 881.026 337.954L875.983 351.846C875.415 353.425 875.297 355.131 875.645 356.773C875.994 358.414 876.794 359.925 877.959 361.136C879.118 362.347 880.598 363.208 882.225 363.624C883.845 364.04 885.556 363.992 887.16 363.487L907.567 357.046C907.725 356.969 907.883 356.969 907.956 357.123L924.8 370.239C926.382 371.448 928.318 372.102 930.31 372.102C931.683 372.106 933.04 371.787 934.267 371.171C935.78 370.452 937.052 369.319 937.947 367.904C938.842 366.489 939.315 364.85 939.309 363.177L939.467 341.834C939.461 341.753 939.478 341.673 939.523 341.603C939.562 341.533 939.624 341.479 939.697 341.447L957.397 329.494C958.771 328.571 959.863 327.284 960.549 325.777C961.23 324.269 961.483 322.6 961.275 320.957ZM847.19 351.691C846.954 351.924 846.723 351.768 846.566 351.768L827.087 341.757C825.759 341.094 824.285 340.762 822.799 340.789C821.313 340.816 819.855 341.201 818.55 341.912L799.302 352.312C799.212 352.375 799.105 352.409 798.992 352.409C798.886 352.409 798.773 352.375 798.683 352.312C798.587 352.241 798.52 352.145 798.475 352.035C798.435 351.925 798.43 351.806 798.452 351.691L801.863 330.038C802.099 328.585 801.975 327.096 801.503 325.703C801.03 324.309 800.219 323.053 799.15 322.044L783.319 306.911C783.217 306.846 783.144 306.746 783.116 306.631C783.088 306.515 783.105 306.393 783.161 306.289C783.178 306.18 783.24 306.08 783.324 306.01C783.409 305.938 783.516 305.9 783.628 305.901L805.279 302.486C806.737 302.267 808.11 301.692 809.292 300.811C810.468 299.931 811.408 298.774 812.032 297.442L821.578 277.652C821.611 277.556 821.673 277.475 821.758 277.419C821.842 277.363 821.943 277.336 822.045 277.341C822.152 277.34 822.264 277.368 822.36 277.423C822.455 277.477 822.534 277.556 822.585 277.652L832.524 297.209C833.199 298.516 834.179 299.641 835.383 300.491C836.582 301.342 837.972 301.893 839.429 302.099L861.159 304.97C861.277 304.976 861.39 305.016 861.485 305.085C861.581 305.153 861.66 305.249 861.705 305.358C861.733 305.466 861.739 305.581 861.711 305.69C861.682 305.8 861.626 305.899 861.547 305.979L846.025 321.423C844.967 322.471 844.185 323.761 843.735 325.181C843.29 326.601 843.195 328.108 843.465 329.572L847.421 351.148C847.438 351.251 847.427 351.357 847.387 351.454C847.342 351.55 847.275 351.633 847.19 351.691ZM853.708 325.847L867.524 312.033C868.183 311.402 868.729 310.668 869.151 309.86C869.325 311.398 869.882 312.867 870.783 314.128L882.5 330.426C873.085 327.933 863.438 326.399 853.708 325.847ZM952.586 322.587L934.886 334.539C933.692 335.37 932.713 336.47 932.027 337.752C931.34 339.033 930.963 340.458 930.929 341.912L930.777 363.254C930.783 363.335 930.76 363.417 930.721 363.486C930.681 363.556 930.614 363.611 930.541 363.643C930.513 363.676 930.479 363.702 930.439 363.72C930.394 363.738 930.355 363.748 930.31 363.748C930.265 363.748 930.22 363.738 930.181 363.72C930.141 363.702 930.107 363.676 930.074 363.643L913.235 350.527C911.636 349.285 909.672 348.603 907.646 348.586C906.723 348.596 905.806 348.753 904.934 349.052L884.6 355.493C884.515 355.514 884.425 355.51 884.341 355.482C884.262 355.455 884.189 355.405 884.132 355.339C884.071 355.28 884.026 355.203 884.014 355.119C883.997 355.035 884.014 354.948 884.054 354.873L891.269 334.772C891.77 333.416 891.933 331.958 891.741 330.525C891.556 329.092 891.021 327.726 890.183 326.545L877.767 309.161C877.728 309.138 877.694 309.107 877.672 309.069C877.643 309.032 877.627 308.99 877.621 308.946C877.615 308.902 877.615 308.857 877.627 308.813C877.638 308.77 877.66 308.729 877.688 308.695C877.846 308.385 877.998 308.385 878.156 308.385L899.497 309.083C900.955 309.144 902.407 308.842 903.718 308.206C905.035 307.569 906.172 306.617 907.027 305.435L919.679 288.284C919.724 288.209 919.797 288.152 919.881 288.123C919.966 288.095 920.056 288.097 920.14 288.129C920.377 288.129 920.45 288.362 920.529 288.44L926.427 308.928C926.815 310.344 927.552 311.639 928.565 312.697C929.584 313.755 930.85 314.54 932.252 314.982L952.507 321.734C952.586 321.734 952.738 321.811 952.816 322.122C952.799 322.301 952.715 322.468 952.586 322.587Z" fill="#D13535"/>
<path d="M669.234 1004.15C630.429 1022.7 583.627 1020.68 542.961 1006.56C517.816 997.868 493.369 982.189 482.426 957.898C471.483 933.608 479.011 900.155 503.225 889.057C527.439 877.959 557.629 893.481 584.64 898.99C586.171 899.311 587.758 899.311 589.294 898.99C590.831 898.67 592.283 898.039 593.56 897.128C601.4 891.308 594.416 880.131 592.784 870.895C589.604 853.978 608.852 839.463 626.006 841.017C643.154 842.57 684.52 870.507 692.9 879.045C737.214 923.984 702.839 988.166 669.234 1004.15Z" fill="#D13535"/>
<path d="M681.88 863.99C682.116 864.147 682.655 864.608 681.88 863.99V863.99Z" fill="#452D34"/>
<path d="M689.489 968.062L689.64 967.753C689.562 967.91 689.253 968.298 689.489 968.062Z" fill="#452D34"/>
<path d="M1018.63 671.44C1005.59 610.984 984.012 542.61 930.85 505.9C928.757 504.503 922.78 509.781 926.894 512.575C945.984 524.449 960.347 541.988 971.057 561.624C1010.17 631.785 1031.51 720.724 997.131 796.859C940.553 914.202 804.66 965.423 682.814 985.683C685.375 983.584 687.936 981.333 690.339 979.009C711.686 955.726 722.936 920.489 710.988 890.222C707.853 881.971 703.193 874.39 697.25 867.873C722.238 857.163 909.74 773.886 863.951 777.69C869.539 753.079 873.586 728.142 876.062 703.029C876.839 694.959 877.458 686.883 877.925 678.812C877.93 678.3 877.84 677.794 877.649 677.315C877.458 676.842 877.171 676.409 876.81 676.049C876.445 675.683 876.017 675.396 875.539 675.205C875.066 675.013 874.554 674.923 874.042 674.935C873.017 674.951 872.044 675.368 871.318 676.094C870.597 676.814 870.181 677.794 870.164 678.812C868.143 714.083 862.949 749.094 854.642 783.431C802.178 813.31 746.686 837.6 691.504 861.969H691.425C678.312 849.785 661.625 840.864 646.182 832.405C638.578 828.601 630.193 824.644 621.503 824.644C604.349 824.487 585.101 838.534 586.654 857.005C586.424 864.609 597.832 880.057 586.114 882.928C554.602 878.116 517.66 855.221 488.944 880.131C450.14 920.022 481.106 974.197 526.197 992.431C567.716 1010.36 625.538 1017.66 667.444 995.617C771.753 981.958 878.623 945.167 955.067 870.586C952.197 888.438 949.479 906.363 946.609 924.215C941.639 944.779 944.588 971.011 926.275 985.295C926.427 985.239 926.505 985.166 926.505 985.059C924.091 986.921 921.457 988.486 918.666 989.719H918.744C918.277 989.87 918.125 989.949 918.666 989.719C915.469 991.058 912.098 991.942 908.654 992.358C905.631 992.431 901.05 992.279 901.129 996.393C901.129 997.418 901.534 998.408 902.266 999.134C902.992 999.86 903.977 1000.27 905.007 1000.27C925.262 1000.27 943.89 984.985 947.385 964.961C953.902 930.343 958.945 895.422 964.382 860.731C1011.33 810.439 1031.2 738.885 1018.63 671.44ZM594.494 852.582C594.455 852.734 594.427 852.891 594.415 853.049C594.415 852.812 594.415 852.582 594.494 852.582ZM580.526 999.731C530 994.221 461.548 958.675 483.435 901.162C510.597 842.569 581.454 909.312 597.207 884.323C603.263 873.923 593.099 862.436 594.415 852.812C596.2 841.483 607.534 834.032 618.244 832.557C639.118 831.938 664.883 852.424 681.88 863.911H681.728C691.127 871.058 698.505 880.525 703.148 891.387C706.716 899.226 708.967 912.649 707.881 922.819C707.014 931.165 704.949 939.348 701.747 947.109C698.634 954.538 694.565 961.528 689.641 967.91C665.12 1000.19 618.087 1004.15 580.526 999.731Z" fill="#452D34"/>
<path d="M656.036 973.342C661.597 971.833 667 969.807 672.183 967.286C673.967 966.357 674.586 963.639 673.579 961.934C673.016 961.078 672.161 960.459 671.17 960.2C670.18 959.942 669.127 960.06 668.221 960.538L664.653 962.243L664.107 962.474H664.265L663.409 962.789L661.546 963.487C659.064 964.416 656.582 965.192 654.022 965.89C653.526 966.025 653.059 966.256 652.654 966.571C652.249 966.886 651.905 967.28 651.658 967.731C651.405 968.175 651.241 968.67 651.179 969.183C651.123 969.689 651.163 970.207 651.303 970.702C651.573 971.687 652.226 972.526 653.11 973.032C653.999 973.544 655.052 973.679 656.036 973.42V973.342Z" fill="#452D34"/>
<path d="M671.407 898.838L673.112 899.925C673.343 900.077 673.889 900.622 672.954 899.846L673.269 900.077L674.046 900.701L675.442 902.176C675.69 902.395 675.898 902.66 676.061 902.952C676.607 903.493 675.521 902.176 675.982 902.795L676.292 903.183C676.674 903.724 677.012 904.298 677.305 904.888L677.766 905.744L678.003 906.211C678.081 906.363 678.312 906.909 678.081 906.29C677.845 905.665 678.081 906.29 678.081 906.363C678.166 906.504 678.216 906.667 678.233 906.83C678.391 907.14 678.47 907.449 678.622 907.838L679.089 909.858C679.359 910.843 680.012 911.681 680.895 912.188C681.785 912.695 682.837 912.835 683.822 912.571C684.812 912.284 685.651 911.62 686.158 910.719C686.664 909.819 686.805 908.761 686.54 907.764C685.893 904.517 684.559 901.444 682.634 898.76C680.704 896.069 678.228 893.818 675.363 892.164C674.924 891.893 674.434 891.713 673.928 891.629C673.416 891.55 672.898 891.573 672.397 891.697C671.896 891.82 671.429 892.04 671.013 892.349C670.602 892.659 670.253 893.042 669.988 893.486C669.724 893.931 669.555 894.42 669.482 894.933C669.409 895.439 669.442 895.962 669.572 896.458C669.707 896.959 669.938 897.426 670.253 897.831C670.562 898.242 670.956 898.579 671.407 898.838Z" fill="#452D34"/>
<path d="M666.206 937.019L678.081 939.427C678.571 939.557 679.088 939.591 679.589 939.529C680.096 939.461 680.585 939.292 681.03 939.039C681.475 938.797 681.863 938.465 682.172 938.065C682.476 937.666 682.696 937.204 682.814 936.709C683.276 934.767 682.268 932.364 680.175 931.897L668.3 929.494C667.281 929.229 666.195 929.37 665.272 929.882C664.411 930.411 663.775 931.239 663.488 932.207C663.021 934.148 664.107 936.557 666.206 937.019Z" fill="#452D34"/>
<path d="M332.251 774.117H332.174C306.428 763.998 283.046 748.673 263.489 729.104L260.773 727.32C241.216 746.568 240.44 793.286 245.95 808.735C257.669 841.715 285.686 847.613 300.82 848.237C315.953 848.857 331.941 841.253 338.538 827.594C341.254 821.769 342.263 815.331 342.962 808.965C344.048 797.169 343.117 778.929 332.251 774.117Z" fill="#D13535"/>
<path d="M290.188 843.189C266.284 844.123 237.025 827.357 229.419 800.816C223.521 792.588 224.685 716.452 250.684 714.438C271.794 733.449 294.145 750.761 321.619 760.925C336.675 767.678 335.434 792.514 334.735 800.039C334.717 805.819 333.542 811.537 331.279 816.855C329.016 822.174 325.712 826.986 321.56 831.01C317.408 835.028 312.494 838.18 307.105 840.273C301.717 842.361 295.965 843.358 290.188 843.189ZM248.899 723.673C218.166 771.477 237.956 835.507 288.558 834.651C302.915 835.197 316.73 827.746 322.163 816.338C327.828 803.224 329.923 775.282 318.049 768.686C292.181 758.533 268.653 743.219 248.899 723.673Z" fill="#452D34"/>
</svg>
