<svg width="1126" height="1127" viewBox="0 0 1126 1127" fill="none" xmlns="http://www.w3.org/2000/svg">
<path d="M331.733 488.605L333.065 488.84C337.104 489.979 340.538 492.653 342.632 496.289C343.57 497.887 344.95 499.18 346.605 500.015C348.26 500.849 350.12 501.189 351.963 500.994C357.452 500.524 363.882 501.935 369.605 504.601C380.662 498.955 393.757 492.29 408.499 485.704L406.852 484.606C366.861 477.314 321.382 474.726 281.077 479.117C270.257 480.293 259.357 481.94 249.556 486.723C236.069 493.153 225.64 504.915 216.387 517.147C153.421 600.498 135.073 719.063 169.574 819.196C171.77 825.702 174.279 832.208 178.67 837.306C183.062 842.405 189.021 845.777 195.059 848.517C219.915 859.734 237.166 864.518 263.513 857.849C254.966 827.035 250.575 798.102 247.595 777.245C217.877 738.035 135.543 694.361 206.664 602.305C214.74 591.876 211.29 546.474 235.99 523.891C243.407 516.207 252.357 510.17 262.26 506.172C272.162 502.173 282.795 500.302 293.467 500.68C295.929 500.733 298.316 499.834 300.132 498.171C307.973 490.565 321.225 487.429 331.733 488.605Z" fill="#D13535"/>
<path d="M455.311 764.852C455.31 765.488 455.231 766.118 455.076 766.737C448.489 801 410.851 820.293 376.976 818.177C379.928 829.348 383.728 840.278 388.347 850.875L390.777 850.718C404.635 846.39 419.244 845 433.669 846.637C437.354 847.031 441.04 847.656 444.804 847.268C454.684 846.243 462.525 838.246 467.857 829.782C477.11 814.8 482.834 791.59 480.717 773.952L455.311 764.852Z" fill="#D13535"/>
<path d="M544.937 576.348L540.075 571.88L523.059 560.745C514.356 561.372 500.791 567.096 486.284 573.917L481.423 572.425H481.501C507.769 586.152 533.88 607.009 538.507 636.179C539.526 642.516 539.526 648.972 538.507 655.309L542.82 646.371C546.348 635.864 554.895 619.791 554.66 608.653C554.425 599.716 551.288 584.661 544.937 576.348Z" fill="#D13535"/>
<path d="M405.833 488.448C406.828 488.672 407.873 488.515 408.758 488.007C409.644 487.498 410.307 486.677 410.615 485.703C411.164 483.743 409.988 481.234 407.871 480.842C385.053 476.687 361.966 474.172 338.789 473.314C315.814 472.53 292.369 473 269.551 476.764C258.573 478.568 247.909 482.018 238.735 488.526C229.56 495.034 222.738 502.641 216.152 511.109C203.788 526.903 193.043 543.899 184.081 561.842C175.128 579.719 167.831 598.381 162.282 617.595C151.041 656.344 146.61 696.753 149.187 737.015C150.568 757.209 153.77 777.233 158.753 796.846C161.176 806.639 164.188 816.274 167.771 825.701C169.809 830.879 172.24 835.814 175.847 840.052C179.461 844.043 183.798 847.318 188.629 849.699C193.75 852.333 199.011 854.691 204.389 856.751C209.154 858.692 214.024 860.369 218.974 861.771C228.483 864.416 238.392 865.322 248.222 864.438C253.725 863.932 259.179 862.986 264.532 861.613C269.394 860.358 267.355 852.833 262.415 854.01C252.743 856.644 242.673 857.493 232.696 856.52C223.13 855.422 213.799 852.203 204.939 848.596C196.078 844.994 185.492 840.835 179.768 832.286C177.023 828.132 175.22 823.506 173.573 818.801C171.927 814.096 170.515 809.706 169.182 805.08C158.313 767.71 154.249 728.697 157.185 689.892C159.888 651.284 169.308 613.442 185.022 578.076C192.928 560.431 202.485 543.576 213.564 527.733C224.698 511.736 237.794 494.564 256.848 487.899C267.198 484.292 278.254 483.194 289.076 482.253C299.897 481.312 311.501 480.92 322.715 480.92C345.178 480.892 367.612 482.517 389.836 485.782C395.168 486.566 400.5 487.429 405.833 488.448Z" fill="#452D34"/>
<path d="M480.717 769.399C478.757 769.478 476.482 771.205 476.796 773.321C477.253 777.464 477.358 781.634 477.11 785.787C477.043 787.915 476.861 790.037 476.561 792.141V792.378C476.561 792.535 476.482 792.766 476.482 793.003C476.416 793.56 476.311 794.111 476.169 794.652C476.012 795.828 475.777 796.925 475.62 798.101C474.747 802.48 473.594 806.802 472.17 811.04C471.464 813.078 470.68 815.194 469.896 817.231C469.817 817.231 469.817 817.31 469.817 817.389L469.582 817.94L468.876 819.426L467.465 822.33C466.605 824.137 465.637 825.892 464.563 827.581C464.07 828.453 463.52 829.292 462.917 830.091L462.054 831.346L461.506 832.055C461.485 832.055 461.465 832.061 461.45 832.078C461.435 832.089 461.427 832.111 461.427 832.134C460.036 833.89 458.516 835.539 456.879 837.07L455.703 838.167L455.154 838.64C454.303 839.355 453.384 839.985 452.41 840.52C451.581 841.026 450.716 841.476 449.822 841.853L449.665 842.011H449.744L449.195 842.247L447.47 842.793L446.058 843.187L445.196 843.345H441.118C438.374 843.266 435.629 842.793 432.885 842.563C430.141 842.326 427.788 842.09 425.2 842.011C413.199 841.662 401.222 843.305 389.758 846.874C387.797 847.498 386.308 849.62 387.013 851.736C387.719 853.852 389.758 855.107 391.797 854.398C396.964 852.845 402.229 851.64 407.558 850.796H408.734L410.537 850.639C411.993 850.43 413.459 850.295 414.928 850.245C417.516 850.008 420.182 849.93 422.848 849.93C428.258 850.008 433.59 850.718 439.001 851.185C444.272 851.731 449.59 850.808 454.37 848.523C462.525 844.442 468.563 836.76 472.875 828.915C477.222 820.929 480.441 812.38 482.442 803.51C484.716 793.712 485.892 783.435 484.637 773.4C484.324 771.284 482.991 769.32 480.717 769.399Z" fill="#452D34"/>
<path d="M557.405 597.988C556.429 592.456 554.797 587.064 552.543 581.914C550.347 576.663 547.054 571.486 542.035 568.509C541.149 567.985 540.094 567.833 539.097 568.081C538.099 568.334 537.24 568.964 536.703 569.842C536.185 570.748 536.042 571.823 536.306 572.831C536.57 573.844 537.219 574.711 538.115 575.251L539.134 575.954H539.291C539.493 576.118 539.677 576.303 539.84 576.506L540.938 577.525L541.486 578.228L541.643 578.386C542.192 579.331 542.976 580.192 543.525 581.211C544.163 582.275 544.739 583.372 545.25 584.503L545.564 585.285C545.643 585.443 545.721 585.522 545.721 585.679C545.721 585.837 545.721 585.443 545.643 585.443C546.005 585.989 546.245 586.602 546.348 587.25C546.818 588.426 547.289 589.681 547.681 590.936C548.465 593.452 549.093 596.018 549.563 598.618C549.798 599.794 550.034 601.049 550.191 602.304C550.269 602.62 550.269 602.85 550.347 603.166C550.364 603.745 550.416 604.319 550.504 604.893C550.766 607.128 550.792 609.39 550.582 611.636C550.582 611.793 550.504 612.26 550.504 612.339C550.504 612.418 550.504 612.576 550.425 612.654C550.333 613.363 550.202 614.073 550.034 614.77C549.72 616.183 549.406 617.596 549.014 619.003C548.152 621.828 547.132 624.653 546.034 627.394C543.761 633.433 541.095 639.235 539.056 645.353C538.789 646.36 538.927 647.435 539.44 648.341C539.952 649.247 540.799 649.923 541.8 650.215C542.796 650.441 543.841 650.283 544.726 649.771C545.612 649.264 546.275 648.443 546.584 647.469C550.347 636.258 556.542 625.672 558.189 613.831C558.894 608.574 558.346 603.244 557.405 597.988ZM541.643 578.464C541.643 578.487 541.652 578.504 541.666 578.521C541.681 578.538 541.701 578.543 541.722 578.543L541.643 578.464Z" fill="#452D34"/>
<path d="M550.19 602.541C550.269 602.85 550.269 603.4 550.19 602.541V602.541Z" fill="#452D34"/>
<path d="M1006.16 347.932C1003.1 344.168 999.106 341.345 996.202 337.503L996.517 337.974C993.304 330.446 985.695 332.485 987.811 338.993C990.163 342.835 999.416 353.892 1003.42 354.676C1007.42 355.46 1008.59 350.363 1006.16 347.932Z" fill="#CE9C5C"/>
<path d="M134.524 508.286H133.661C130.38 508.045 127.327 506.516 125.168 504.034C123.009 501.552 121.919 498.317 122.134 495.034L122.919 484.919L114.685 490.957C112.737 492.429 110.394 493.289 107.956 493.426C105.518 493.563 103.093 492.972 100.991 491.729C98.89 490.484 97.2056 488.643 96.1531 486.439C95.1013 484.235 94.7281 481.768 95.0821 479.352C95.4592 476.56 96.7891 473.984 98.8455 472.059C95.713 471.666 92.8489 470.092 90.8375 467.658C88.8266 465.224 87.8203 462.115 88.0246 458.964C88.2678 455.694 89.789 452.652 92.2591 450.495C93.4838 449.413 94.9122 448.585 96.4604 448.06C98.0087 447.534 99.6458 447.323 101.276 447.438L108.412 447.986L101.904 441.478C100.736 440.35 99.8074 438.997 99.1742 437.501C98.5411 436.006 98.2158 434.398 98.2186 432.774C98.1938 431.149 98.4932 429.536 99.0988 428.028C99.7049 426.52 100.605 425.148 101.747 423.992C102.875 422.824 104.228 421.896 105.723 421.262C107.219 420.629 108.827 420.304 110.451 420.306C112.076 420.282 113.689 420.581 115.197 421.187C116.705 421.793 118.077 422.693 119.233 423.835L126.682 431.128L127.388 420.777C127.5 419.156 127.931 417.573 128.659 416.12C129.385 414.666 130.393 413.371 131.622 412.308C134.086 410.156 137.296 409.058 140.561 409.25C142.189 409.368 143.777 409.81 145.232 410.551C146.686 411.291 147.978 412.316 149.03 413.563C150.118 414.768 150.95 416.182 151.476 417.719C152.002 419.256 152.21 420.883 152.088 422.502L151.382 432.696L159.537 426.58C160.834 425.537 162.328 424.766 163.929 424.313C165.53 423.861 167.206 423.735 168.857 423.944C170.508 424.154 172.1 424.693 173.538 425.531C174.975 426.369 176.23 427.488 177.225 428.821C178.221 430.154 178.938 431.674 179.334 433.29C179.73 434.906 179.796 436.586 179.528 438.229C179.26 439.871 178.664 441.442 177.776 442.849C176.888 444.257 175.725 445.47 174.357 446.418L166.83 452.064L175.533 452.613C178.803 452.856 181.846 454.377 184.002 456.847C185.641 458.683 186.692 460.969 187.018 463.408C187.345 465.847 186.934 468.329 185.836 470.532C184.739 472.735 183.006 474.558 180.862 475.767C178.718 476.976 176.261 477.514 173.809 477.313H173.495C175.144 479.443 176.028 482.068 176.004 484.762C176.051 486.39 175.763 488.01 175.155 489.521C174.548 491.032 173.636 492.402 172.475 493.544C171.347 494.712 169.994 495.641 168.499 496.274C167.004 496.907 165.396 497.232 163.772 497.229H163.693C160.442 497.241 157.315 495.974 154.989 493.701L147.619 486.409L146.834 496.759C146.599 499.873 145.203 502.785 142.924 504.92C140.644 507.054 137.647 508.255 134.524 508.286ZM126.447 475.195C126.968 475.204 127.48 475.338 127.937 475.588C128.463 475.86 128.898 476.279 129.19 476.794C129.483 477.309 129.619 477.898 129.584 478.489L128.408 495.504C128.354 496.308 128.461 497.114 128.719 497.877C128.979 498.639 129.386 499.343 129.918 499.948C130.449 500.552 131.096 501.046 131.819 501.4C132.542 501.755 133.328 501.963 134.131 502.013C134.927 502.08 135.727 501.982 136.483 501.726C137.238 501.469 137.932 501.06 138.523 500.523C139.147 500.018 139.659 499.387 140.024 498.67C140.388 497.954 140.598 497.17 140.64 496.367L141.816 479.273C141.854 478.667 142.067 478.086 142.429 477.599C142.79 477.112 143.286 476.74 143.855 476.529C144.415 476.33 145.02 476.291 145.601 476.416C146.182 476.54 146.718 476.824 147.148 477.234L159.381 489.232C159.941 489.807 160.611 490.264 161.353 490.574C162.094 490.884 162.89 491.04 163.693 491.035C165.348 491.012 166.926 490.335 168.084 489.153C169.204 487.998 169.824 486.449 169.809 484.841C169.795 483.223 169.147 481.674 168.006 480.528L163.223 475.823C162.767 475.388 162.46 474.82 162.348 474.2C162.235 473.58 162.322 472.94 162.595 472.373C162.842 471.776 163.27 471.274 163.819 470.936C164.369 470.598 165.01 470.442 165.654 470.491L174.279 471.118C175.083 471.171 175.889 471.065 176.651 470.806C177.414 470.547 178.117 470.14 178.722 469.608C179.327 469.076 179.82 468.43 180.175 467.707C180.529 466.984 180.737 466.198 180.787 465.394C180.875 463.789 180.335 462.212 179.281 460.998C178.228 459.783 176.743 459.026 175.142 458.886L157.969 457.709C157.342 457.634 156.75 457.379 156.263 456.976C155.776 456.572 155.416 456.038 155.224 455.436C155.035 454.829 155.038 454.179 155.235 453.574C155.431 452.97 155.812 452.442 156.322 452.064L170.594 441.399C171.237 440.915 171.779 440.31 172.188 439.616C172.598 438.923 172.866 438.155 172.98 437.359C173.093 436.561 173.047 435.749 172.846 434.969C172.645 434.189 172.293 433.457 171.809 432.813C171.325 432.17 170.719 431.628 170.025 431.218C169.332 430.809 168.565 430.54 167.767 430.428C166.971 430.315 166.158 430.36 165.379 430.56C164.599 430.761 163.866 431.114 163.223 431.598L149.657 441.713C149.184 442.083 148.615 442.309 148.017 442.364C147.419 442.42 146.818 442.303 146.285 442.027C145.76 441.734 145.326 441.3 145.035 440.773C144.745 440.246 144.607 439.649 144.639 439.047L145.815 422.032C145.903 420.426 145.362 418.85 144.309 417.635C143.255 416.421 141.771 415.663 140.17 415.524C139.362 415.451 138.548 415.545 137.779 415.801C137.009 416.058 136.302 416.47 135.7 417.013C134.486 418.075 133.728 419.563 133.583 421.169L132.406 438.342C132.356 438.935 132.136 439.503 131.774 439.977C131.412 440.451 130.923 440.811 130.364 441.017C129.804 441.223 129.198 441.265 128.615 441.138C128.032 441.012 127.498 440.721 127.074 440.302L114.842 428.305C114.293 427.719 113.622 427.261 112.877 426.964C112.132 426.665 111.331 426.534 110.529 426.58C109.726 426.57 108.928 426.724 108.186 427.035C107.444 427.345 106.774 427.804 106.217 428.383C105.641 428.944 105.184 429.614 104.874 430.355C104.564 431.096 104.408 431.893 104.413 432.696C104.468 434.344 105.14 435.91 106.295 437.087L118.841 449.398C119.288 449.854 119.593 450.431 119.719 451.057C119.844 451.684 119.784 452.333 119.547 452.927C119.266 453.507 118.816 453.99 118.256 454.311C117.697 454.633 117.054 454.779 116.41 454.73L100.806 453.632C99.1939 453.563 97.6186 454.125 96.4148 455.2C95.7901 455.706 95.2785 456.337 94.9138 457.053C94.5492 457.769 94.3392 458.553 94.2976 459.356C94.2334 460.16 94.3291 460.968 94.5784 461.735C94.8277 462.501 95.2262 463.212 95.7507 463.824C96.2753 464.436 96.9163 464.938 97.6355 465.302C98.3554 465.666 99.1393 465.883 99.9436 465.943L107.471 466.413C108.11 466.459 108.719 466.699 109.217 467.102C109.715 467.504 110.078 468.049 110.258 468.664C110.437 469.278 110.424 469.933 110.22 470.54C110.017 471.147 109.632 471.677 109.118 472.059L103.629 476.136C102.987 476.627 102.449 477.24 102.044 477.94C101.641 478.64 101.38 479.412 101.276 480.214C101.034 481.815 101.428 483.448 102.374 484.762C102.854 485.416 103.459 485.968 104.155 486.385C104.85 486.803 105.622 487.078 106.424 487.195C107.227 487.312 108.045 487.268 108.831 487.065C109.616 486.863 110.353 486.507 111 486.017L124.644 475.823C125.165 475.431 125.795 475.212 126.447 475.195Z" fill="#D13535"/>
<path d="M336.985 355.224C336.217 355.23 335.473 354.954 334.895 354.448C334.317 353.942 333.945 353.241 333.849 352.479L325.067 278.693C325.065 277.921 325.347 277.175 325.86 276.599C326.374 276.022 327.081 275.655 327.848 275.567C328.615 275.48 329.387 275.679 330.017 276.125C330.647 276.571 331.09 277.234 331.262 277.987L340.043 351.774C340.098 352.182 340.07 352.596 339.96 352.993C339.85 353.39 339.662 353.761 339.406 354.083C339.15 354.405 338.831 354.672 338.469 354.868C338.107 355.064 337.709 355.185 337.299 355.224H336.985Z" fill="#CE9C5C"/>
<path d="M362.706 346.912C362.311 346.929 361.918 346.861 361.553 346.712C361.187 346.563 360.858 346.337 360.588 346.05L300.367 289.514C299.889 288.927 299.639 288.187 299.664 287.43C299.689 286.672 299.987 285.95 300.503 285.396C301.019 284.841 301.719 284.493 302.472 284.414C303.225 284.334 303.982 284.531 304.601 284.966L364.822 341.502C365.424 342.081 365.776 342.871 365.805 343.705C365.835 344.539 365.539 345.352 364.979 345.971C364.683 346.274 364.329 346.513 363.939 346.674C363.547 346.836 363.128 346.917 362.706 346.912Z" fill="#CE9C5C"/>
<path d="M307.032 351.147C306.318 351.142 305.626 350.893 305.072 350.441C304.43 349.919 304.021 349.165 303.932 348.342C303.845 347.52 304.085 346.696 304.601 346.05L355.727 281.124C356.235 280.493 356.968 280.084 357.772 279.982C358.576 279.879 359.389 280.092 360.039 280.575C360.371 280.822 360.651 281.133 360.859 281.49C361.068 281.847 361.202 282.243 361.253 282.653C361.305 283.064 361.272 283.481 361.158 283.879C361.043 284.276 360.85 284.646 360.588 284.966L309.463 349.892C309.179 350.272 308.812 350.581 308.391 350.799C307.97 351.016 307.506 351.135 307.032 351.147Z" fill="#CE9C5C"/>
<path d="M295.662 322.761C294.911 322.699 294.208 322.369 293.68 321.832C293.152 321.294 292.836 320.584 292.789 319.833C292.741 319.081 292.965 318.337 293.421 317.737C293.877 317.137 294.533 316.722 295.27 316.566L369.056 307.784C369.459 307.728 369.867 307.754 370.26 307.859C370.652 307.964 371.019 308.146 371.34 308.394C371.661 308.642 371.93 308.951 372.13 309.304C372.33 309.657 372.458 310.047 372.507 310.45C372.618 311.271 372.401 312.103 371.901 312.764C371.401 313.425 370.661 313.862 369.84 313.978L296.054 322.761H295.662Z" fill="#CE9C5C"/>
<path d="M558.267 666.131C564.897 667.195 571.391 668.984 577.633 671.461L575.359 670.442C578.55 671.832 581.572 673.565 584.381 675.62L582.338 674.049C584.24 675.451 585.928 677.117 587.358 678.991L585.866 677.032C587.15 678.754 588.23 680.623 589.086 682.598L588.061 680.246C588.928 682.283 589.558 684.416 589.947 686.594C590.887 691.147 591.438 695.773 592.063 700.321L591.748 697.732C592.378 702.594 592.845 707.457 593.003 712.314C593.042 717.036 592.733 721.758 592.063 726.429L592.378 723.84C590.92 735.771 587.887 747.449 583.356 758.582L584.302 756.308C580.841 764.395 576.361 772.016 570.969 778.966L572.539 777.008C567.001 784.195 560.6 790.672 553.484 796.295L555.444 794.73C551.02 798.287 546.142 801.242 540.938 803.51L543.29 802.57C540.602 803.679 537.82 804.545 534.978 805.159C532.539 805.84 530.46 807.444 529.176 809.627C528.511 810.764 528.079 812.019 527.904 813.325C527.729 814.631 527.815 815.959 528.157 817.231C528.869 819.656 530.463 821.727 532.626 823.033C534.947 824.305 537.658 824.671 540.232 824.052C544.315 823.095 548.284 821.699 552.072 819.898C555.324 818.384 558.446 816.6 561.403 814.569C568.251 809.892 574.537 804.444 580.143 798.338C585.501 792.462 590.301 786.114 594.494 779.36C599.036 771.768 602.717 763.692 605.474 755.289C607.967 747.506 609.802 739.537 610.961 731.449C611.823 726.525 612.374 721.544 612.605 716.552C612.672 712.044 612.464 707.541 611.98 703.062C611.429 697.811 610.646 692.475 609.864 687.224C609.391 684.636 609.076 681.968 608.451 679.385C607.365 674.984 605.452 670.83 602.807 667.15C601.152 664.842 599.227 662.737 597.083 660.88C594.702 658.854 592.125 657.07 589.395 655.545C583.103 652.23 576.372 649.832 569.399 648.408C567.44 647.941 565.482 647.547 563.445 647.232C561.403 646.923 558.345 646.765 555.914 648.172C553.717 649.5 552.095 651.594 551.366 654.053C550.707 656.603 551.073 659.304 552.386 661.583C553.719 663.621 555.758 665.658 558.267 666.131Z" fill="#CE9C5C"/>
<path d="M402.273 643.861C405.574 641.266 406.144 636.483 403.546 633.179C400.949 629.881 396.167 629.307 392.865 631.907C389.565 634.507 388.994 639.285 391.592 642.589C394.19 645.887 398.972 646.461 402.273 643.861Z" fill="#452D34"/>
<path d="M405.362 570.861C406.841 571.159 408.376 571.013 409.771 570.439C411.167 569.865 412.36 568.891 413.199 567.636C414.038 566.381 414.485 564.906 414.484 563.397C414.482 561.887 414.031 560.413 413.189 559.161C412.347 557.909 411.151 556.935 409.754 556.365C408.357 555.794 406.822 555.652 405.344 555.956C403.866 556.261 402.512 556.997 401.454 558.073C400.396 559.149 399.682 560.516 399.403 561.999C399.033 563.961 399.451 565.993 400.566 567.653C401.681 569.307 403.404 570.461 405.362 570.861Z" fill="#452D34"/>
<path d="M431.238 720.942C427.71 727.999 421.986 735.451 413.988 737.567C413.281 737.618 412.571 737.59 411.871 737.488C410.694 736.937 409.126 735.603 409.832 734.196C411.165 729.255 403.794 727.217 402.304 732.153C399.795 739.289 407.323 746.425 414.379 745.407C425.2 743.679 433.277 734.196 437.982 724.865C440.491 720.39 433.826 716.552 431.238 720.942ZM411.478 737.331L411.871 737.488L411.478 737.331Z" fill="#452D34"/>
<path d="M414.85 600.34C415.596 601.066 416.594 601.471 417.633 601.471C418.673 601.471 419.671 601.066 420.417 600.34C426.925 594.228 433.12 587.795 439.785 581.835C443.157 579.173 445.666 578.621 449.508 580.192C453.351 581.756 453.664 585.054 453.899 586.073C454.135 587.092 453.899 587.637 453.977 588.425C453.272 591.245 450.763 594.931 454.292 596.89C455.203 597.391 456.271 597.52 457.277 597.261C458.282 596.997 459.15 596.361 459.702 595.483C464.563 587.328 460.643 575.802 451.625 572.583C442.608 569.369 433.669 576.111 427.474 582.702L414.85 594.774C414.482 595.14 414.191 595.573 413.991 596.051C413.793 596.53 413.69 597.042 413.69 597.56C413.69 598.077 413.793 598.589 413.991 599.068C414.191 599.546 414.482 599.98 414.85 600.34ZM452.331 582.387C452.41 582.544 452.723 582.859 452.331 582.387V582.387Z" fill="#452D34"/>
<path d="M460.878 648.021C472.64 645.195 482.128 636.179 486.519 625.041C487.774 620.967 491.695 612.024 484.872 611.242C478.051 610.459 484.872 628.728 463.231 638.999L462.917 639.156H463.152C463.132 639.156 463.111 639.168 463.097 639.179C463.082 639.196 463.074 639.213 463.074 639.235H462.917C461.599 639.798 460.234 640.243 458.84 640.569C453.899 641.903 455.938 649.27 460.878 648.021Z" fill="#452D34"/>
<path d="M385.367 657.976C386.465 648.251 395.639 613.988 376.114 623.162C375.142 623.635 374.346 624.4 373.84 625.357C370.233 632.651 374.859 652.956 377.604 659.153C378.78 663.464 385.602 662.524 385.367 657.976Z" fill="#452D34"/>
<path d="M394.305 582.386C395.952 575.723 396.031 568.744 396.266 561.92C395.796 557.607 398.853 549.138 392.502 548.511C386.15 547.884 375.722 580.737 380.191 585.054C384.661 589.365 392.58 589.365 394.305 582.386Z" fill="#452D34"/>
<path d="M923.669 685.733C874.272 656.096 815.15 648.881 759.788 636.179C683.495 482.018 564.851 404.624 398.54 485.938C387.64 491.035 376.976 496.446 366.312 501.935C365.842 502.137 365.415 502.431 365.058 502.797C360.846 501.375 356.402 500.763 351.962 500.994C350.119 501.189 348.259 500.849 346.605 500.015C344.949 499.18 343.57 497.887 342.631 496.289C340.537 492.653 337.103 489.979 333.065 488.84L331.732 488.604C321.225 487.428 307.973 490.565 300.132 498.171C298.315 499.834 295.928 500.733 293.466 500.68C282.794 500.302 272.161 502.173 262.259 506.172C252.357 510.17 243.407 516.207 235.99 523.89C211.29 546.473 214.74 591.875 206.663 602.304C138.993 689.814 210.113 733.644 242.812 771.442C243.988 779.439 245.086 787.515 246.34 795.591C278.882 1018.67 411.791 1079.68 611.665 985.35C656.441 1003.23 704.116 1012.87 751.396 1021.42C783.78 1026.75 816.478 1031.53 849.413 1031.93C854.433 1031.85 854.591 1024.17 849.413 1024.09C828.556 1024.01 807.777 1021.66 787.156 1018.99C730.539 1010.75 673.77 1000.01 619.977 980.33C620.248 979.57 620.276 978.748 620.068 977.971C619.865 977.195 619.426 976.497 618.818 975.974C618.205 975.45 617.45 975.118 616.651 975.028C615.852 974.938 615.042 975.096 614.333 975.473L609.943 977.51C571.521 995.385 531.293 1010.21 489.342 1017.03C404.342 1031.38 333.378 1001.74 293.153 923.718C270.413 880.669 259.749 832.68 252.613 784.769C253.24 785.945 253.868 787.121 254.417 788.298C267.512 816.685 324.439 836.681 356.824 817.152C357.861 816.527 359.012 816.117 360.21 815.942C361.409 815.768 362.63 815.83 363.803 816.133C366.802 816.848 369.839 817.4 372.899 817.782C376.107 830.625 380.491 843.148 385.994 855.186C392.737 868.907 400.579 883.962 414.301 891.959C418.849 894.39 422.691 887.806 418.299 885.138C413.908 882.47 410.537 879.257 407.4 875.571C428.101 875.103 448.175 868.513 468.092 863.577C483.853 859.418 499.614 855.344 515.61 852.518C520.628 851.185 526.431 851.972 530.979 849.147C538.663 844.679 537.722 817.861 532.234 811.98C523.059 803.195 508.318 807.039 498.046 800.375L497.732 800.06H497.81C496.345 798.906 495.164 797.432 494.36 795.749C490.832 786.26 498.124 776.377 503.535 768.853C517.335 750.427 533.567 732.547 543.525 711.217C548.465 700.63 551.915 689.42 552.778 677.815C553.719 670.6 551.288 661.899 556.542 656.018L557.326 655.387C564.384 651.622 572.539 656.175 579.676 657.661C585.478 659.074 591.123 660.953 595.907 664.64L596.768 665.27C609.312 675.147 612.059 692.245 612.216 707.3C612.453 719.141 612.138 731.607 606.414 742.193C605.08 745.801 599.199 749.329 602.728 753.168C611.586 759.989 619.432 730.194 619.505 724.155C620.996 703.062 620.917 678.366 605.159 662.287C608.136 653.586 615.351 643.315 613.472 634.063C605.001 616.025 578.342 600.498 563.287 586.855C553.562 578.858 543.917 570.624 535.292 561.372C529.411 555.804 522.667 550.55 519.06 543.101C517.414 538.397 510.2 540.592 511.611 545.375C513.498 549.734 516.154 553.719 519.452 557.137C507.455 559.49 496.399 564.901 485.343 570C465.348 559.49 444.019 551.884 422.456 545.297C408.794 541.035 394.923 537.476 380.896 534.633C381.225 534.159 381.621 533.737 382.073 533.378C392.502 524.596 385.288 513.461 373.918 506.718C389.287 498.877 404.734 491.27 420.652 484.605C573.952 418.346 680.67 497.543 749.911 634.063C736.341 631.159 722.62 628.491 709.367 624.259C704.51 622.925 702.388 630.298 707.329 631.789C769.04 648.96 837.887 655.939 895.754 679.773C904.145 683.195 912.176 687.427 919.752 692.397C924.141 695.064 928.064 688.401 923.669 685.733ZM344.67 987.23C344.2 986.841 344.592 987.078 344.67 987.23V987.23ZM527.372 841.775C527.451 841.538 527.607 841.386 527.372 841.775V841.775ZM527.058 818.098C529.097 825.875 529.178 834.036 527.294 841.853L526.666 842.641C526.51 842.872 525.255 843.187 525.333 843.187C484.166 847.267 445.274 866.948 403.872 867.573H403.95L403.166 867.337H403.401L403.009 867.106C402.931 866.948 402.539 866.791 402.539 866.712C401.726 865.98 400.991 865.164 400.343 864.281L400.108 864.044C390.855 850.245 385.601 834.092 381.132 818.176C413.203 818.565 447.391 800.218 454.683 768.538C465.818 772.066 476.953 775.753 487.773 780.064C485.029 787.358 484.245 795.355 488.95 801.94C498.124 815.43 519.609 809.943 527.058 818.098ZM487.46 780.064L487.773 780.221L487.46 780.064ZM606.178 637.513C606.256 637.592 606.178 637.665 606.178 637.744V637.513ZM500.79 571.643C508.396 568.587 516.159 565.058 524.392 564.585C528.156 564.118 530.195 567.878 532.626 570.073C539.448 576.899 546.662 583.327 554.111 589.444C570.654 603.869 589.789 615.868 603.983 632.808C606.099 635.312 606.645 638.216 605.238 641.193C603.431 646.686 601.158 651.937 598.884 657.194C592.845 653.035 585.636 651.234 578.578 649.275C566.973 645.116 550.66 643.315 546.505 658.212C545.041 657.824 543.601 657.351 542.192 656.8C549.171 621.512 522.432 591.245 493.733 574.778L500.79 571.643ZM441.196 559.725C463.387 567.568 485.421 576.978 504.162 591.403C504.083 591.324 504.005 591.324 504.005 591.245C510.766 596.451 516.874 602.456 522.197 609.125C522.118 609.046 522.04 608.968 522.04 608.889C544.466 636.488 535.606 670.6 514.983 696.241C512.944 700.4 502.515 706.984 506.906 711.374C514.434 719.766 540.232 671.697 540.467 664.482L545.25 666.052C545.015 671.072 545.329 676.014 544.623 681.028C539.918 717.886 510.592 743.679 491.145 773.243C479.305 768.38 467.151 764.384 454.918 760.54H454.37C452.017 753.325 449.273 749.329 446.293 747.365C452.331 742.114 457.036 735.372 458.839 727.448C460.094 722.512 452.645 720.469 451.233 725.411C448.881 738.034 437.903 741.878 437.589 746.268C426.298 749.014 412.184 763.675 396.422 754.659C376.663 742.503 407.087 709.731 363.881 713.806C362.513 713.935 361.133 713.766 359.839 713.305C358.544 712.843 357.366 712.106 356.387 711.144C355.407 710.181 354.652 709.011 354.172 707.727C353.692 706.439 353.5 705.06 353.609 703.692C354.393 694.597 357.059 684.011 335.26 675.383L334.163 675.068C276.843 659.777 395.874 607.634 334.633 551.335C333.144 549.992 332.126 548.205 331.732 546.238C328.83 531.104 354.628 544.513 371.174 540.906C393.521 544.748 419.162 551.962 441.196 559.725Z" fill="#452D34"/>
<path d="M497.811 800.139L498.046 800.375L497.811 800.139Z" fill="#452D34"/>
<path d="M400.108 864.202C400.16 864.202 400.239 864.281 400.343 864.438C400.265 864.36 400.186 864.202 400.108 864.202Z" fill="#452D34"/>
<path d="M403.715 867.573H403.871L403.401 867.416L403.715 867.573Z" fill="#452D34"/>
<path d="M402.539 866.87C402.617 866.948 402.852 867.027 402.93 867.184H403.009C402.696 866.87 402.461 866.791 402.539 866.87Z" fill="#452D34"/>
<path d="M545.643 787.121C541.802 787.436 537.94 787.357 534.115 786.885L533.018 786.733C528.641 786.023 524.355 784.842 520.237 783.204C518.355 782.416 515.845 783.986 515.454 785.945C513.65 794.257 539.997 795.67 545.643 794.961C551.288 794.257 550.739 787.121 545.643 787.121Z" fill="#452D34"/>
<path d="M551.602 737.567C559.384 739.239 567.035 741.462 574.498 744.231C579.439 745.643 581.477 738.192 576.535 736.7C569.089 733.892 561.434 731.663 553.641 730.037C553.128 729.84 552.58 729.75 552.032 729.778C551.483 729.806 550.947 729.947 550.456 730.2C549.966 730.448 549.534 730.797 549.187 731.219C548.841 731.647 548.587 732.142 548.444 732.671C548.3 733.2 548.269 733.757 548.354 734.297C548.438 734.838 548.636 735.361 548.933 735.823C549.231 736.284 549.622 736.678 550.082 736.976C550.542 737.28 551.06 737.477 551.602 737.567Z" fill="#452D34"/>
<path d="M586.497 682.125C581.871 681.186 563.051 676.013 563.129 683.617C563.129 684.658 563.54 685.654 564.278 686.391C565.015 687.123 566.011 687.54 567.046 687.54C572.9 687.343 578.747 688.057 584.381 689.656C589.316 690.99 591.359 683.538 586.497 682.125Z" fill="#452D34"/>
<path d="M188.864 178.167L181.806 177.305C167.3 175.266 152.872 172.757 138.523 169.934C133.347 170.012 122.369 163.661 119.86 169.934C119.596 170.932 119.735 171.995 120.249 172.89C120.763 173.785 121.609 174.442 122.604 174.717C139.62 178.246 156.714 181.461 173.886 184.049C178.827 184.754 183.845 185.46 188.864 186.009C193.882 186.558 193.96 178.246 188.864 178.167Z" fill="#CE9C5C"/>
<path d="M557.09 224.666C567.44 232.587 573.085 241.369 577.869 254.542C582.686 267.761 583.474 282.111 580.131 295.777C576.788 309.443 569.472 321.811 559.098 331.317C548.727 340.823 535.769 347.038 521.864 349.179C507.959 351.318 493.732 349.287 480.982 343.34C468.232 337.393 457.532 327.798 450.237 315.769C442.94 303.74 439.376 289.817 439.994 275.762C440.612 261.707 445.384 248.151 453.708 236.809C462.031 225.466 473.531 216.847 486.754 212.042C491.82 210.19 497.082 208.927 502.437 208.278" fill="#D13535"/>
<path d="M534.037 183.421L541.8 185.695C548.822 187.77 554.74 192.535 558.265 198.954C561.79 205.372 562.636 212.923 560.619 219.962C559.286 224.353 554.581 224.353 550.19 225.686C533.881 230.312 515.532 222.942 505.495 212.591C502.28 209.298 498.516 206.632 499.771 202.162C501.862 195.154 506.634 189.255 513.05 185.746C519.467 182.237 527.008 181.401 534.037 183.421Z" fill="#CE9C5C"/>
<path d="M508.631 281.203C508.788 279.87 508.553 281.673 508.396 281.908C508.24 282.144 508.161 281.83 508.474 281.673C507.534 283.399 506.985 283.947 506.358 284.34L504.946 285.124C504.476 285.359 505.652 284.888 505.182 285.045C504.591 285.238 503.988 285.395 503.378 285.515C502.672 285.672 503.613 285.437 503.613 285.515H501.966C501.025 285.515 502.751 285.751 501.81 285.515L500.398 285.124C499.536 284.888 501.182 285.515 500.398 285.124L499.536 284.653C498.808 284.198 498.17 283.614 497.654 282.928C497.418 282.693 497.34 282.771 497.732 283.085C496.242 281.046 496.399 280.732 495.772 278.38C495.772 278.458 495.85 279.321 495.772 278.615V278.066C495.733 277.518 495.733 276.967 495.772 276.419C495.85 275.714 495.772 276.576 495.772 276.655C496.321 274.146 496.556 273.362 498.124 271.244L498.516 270.774L500.084 269.362C500.634 268.814 500.006 269.441 499.928 269.441C503.927 266.618 507.22 265.834 512.238 266.304C512.16 266.226 511.376 266.148 512.16 266.304L514.042 266.696L515.14 267.089C516.584 267.746 517.952 268.562 519.217 269.519L519.061 269.362C519.923 270.225 521.334 271.323 521.962 272.342C524.079 274.851 525.177 280.34 524.706 283.006C524.429 284.668 523.982 286.297 523.373 287.868C522.118 290.534 517.963 296.493 513.728 299.473C511.847 301.276 505.495 304.021 503.378 304.099C501.665 304.361 499.923 304.387 498.203 304.178C497.418 304.099 498.281 304.178 498.359 304.178C496.319 303.887 494.32 303.36 492.4 302.61C492.086 302.531 491.459 302.453 492.322 302.61C488.033 300.787 484.301 297.866 481.501 294.141C477.658 289.357 475.228 281.595 476.404 273.989C476.404 273.989 476.247 274.93 476.404 274.146C476.838 271.347 477.601 268.61 478.678 265.991C481.265 259.718 487.695 252.66 495.772 249.446C498.84 248.287 502.02 247.447 505.26 246.937C505.966 246.858 505.26 246.937 505.103 246.937C511.611 245.839 519.531 247.25 523.295 248.975C526.096 250.175 528.731 251.73 531.136 253.601C533.802 255.17 539.448 262.384 540.31 265.285C541.403 267.926 542.167 270.691 542.584 273.518C542.584 273.518 542.506 272.577 542.584 273.205C542.951 276.463 542.924 279.754 542.506 283.006C541.957 289.672 536.076 302.61 531.685 308.099C529.588 310.743 527.194 313.137 524.55 315.234C523.922 315.704 524.628 315.156 524.628 315.156C521.895 317.149 518.981 318.882 515.924 320.331C512.83 321.611 509.591 322.506 506.279 322.997C505.573 323.153 506.436 322.997 506.514 322.997C501.463 323.719 496.311 323.153 491.538 321.35C466.367 328.407 537.958 351.853 550.347 283.006C556.071 224.903 465.348 224.667 468.484 281.752C470.131 304.178 497.575 321.037 516.865 306.844C535.998 295.239 539.604 265.677 514.904 258.855C499.222 254.386 480.403 271.637 490.832 286.849C497.262 297.748 515.375 293.984 516.473 281.203C516.551 276.185 508.71 276.185 508.631 281.203Z" fill="#EFDCC4"/>
<path d="M499.065 353.186C415.477 352.558 394.854 235.879 473.346 206.867C478.442 205.69 490.989 198.869 493.106 206.788C493.811 213.61 481.03 211.885 476.326 214.943C421.201 233.449 417.594 314.92 470.837 338.208C541.643 370.358 600.69 276.654 542.506 226.94C541.603 226.243 541.014 225.216 540.866 224.084C540.719 222.952 541.027 221.808 541.722 220.903C550.426 212.983 567.361 242.545 570.029 251.954C588.77 299.159 549.72 354.596 499.065 353.186Z" fill="#452D34"/>
<path d="M532.077 190.792C513.886 191.498 505.809 165.387 521.805 155.899C550.505 140.216 564.7 188.44 532.077 190.792ZM532.077 161.466C514.278 162.642 522.119 189.224 537.723 180.52C546.427 175.345 541.957 161.074 532.077 161.466Z" fill="#CE9C5C"/>
<path d="M527.686 230.313C512.082 231.018 480.873 215.806 483.775 199.888C488.166 183.343 507.064 172.993 523.374 178.168C543.447 181.148 559.052 199.496 552.857 220.04C549.799 229.372 535.449 229.45 527.686 230.313ZM514.434 185.46C504.398 185.382 494.674 192.517 492.008 202.241C498.987 215.492 520.158 225.059 537.096 220.354C539.213 219.727 544.78 218.864 544.545 217.61C546.27 211.672 545.571 205.293 542.602 199.87C539.633 194.447 534.636 190.421 528.705 188.675C524.785 187.656 518.512 185.225 514.434 185.46Z" fill="#452D34"/>
<path d="M719.643 255.248C697.373 255.012 695.961 222.157 718.152 219.884C742.38 218.315 743.95 254.777 719.643 255.248ZM719.716 228.509C711.561 228.195 707.25 239.408 713.835 244.505C727.325 254.15 736.105 229.764 719.716 228.509Z" fill="#CE9C5C"/>
<path d="M745.842 273.377L715.732 273.903C714.297 273.928 712.912 273.382 711.882 272.386C710.847 271.388 710.256 270.022 710.228 268.588C710.149 263.847 711.95 259.267 715.242 255.857C718.54 252.446 723.054 250.483 727.793 250.4L732.965 250.31C737.709 250.227 742.29 252.031 745.701 255.325C749.111 258.619 751.07 263.133 751.154 267.874C751.183 269.308 750.637 270.694 749.635 271.726C748.639 272.759 747.277 273.352 745.842 273.377Z" fill="#CE9C5C"/>
<path d="M705.135 278.615C702.585 278.615 700.131 277.612 698.314 275.823C696.496 274.033 695.455 271.6 695.41 269.049C695.359 266.135 695.882 263.238 696.952 260.526C698.015 257.814 699.608 255.338 701.634 253.241C703.655 251.145 706.075 249.467 708.748 248.304C711.421 247.141 714.297 246.517 717.212 246.466H722.463C725.379 246.414 728.271 246.936 730.984 248.004C733.697 249.071 736.173 250.663 738.272 252.687C740.366 254.712 742.043 257.129 743.208 259.802C744.373 262.475 744.998 265.35 745.048 268.265C745.065 270.851 744.063 273.34 742.257 275.191C740.45 277.042 737.985 278.103 735.402 278.145L705.292 278.693L705.135 278.615ZM717.364 255.091C713.774 255.174 710.363 256.669 707.864 259.253C705.371 261.836 703.992 265.3 704.037 268.892C704.054 269.19 704.189 269.469 704.409 269.673C704.628 269.877 704.915 269.99 705.213 269.99L735.323 269.44C735.621 269.421 735.903 269.288 736.105 269.07C736.308 268.851 736.421 268.563 736.421 268.265C736.393 266.486 736.01 264.732 735.295 263.102C734.586 261.472 733.562 260 732.278 258.768C730.995 257.536 729.481 256.57 727.827 255.926C726.166 255.282 724.399 254.971 722.621 255.013L717.364 255.091Z" fill="#452D34"/>
<path d="M796.719 331.544C796.719 299.159 768.258 272.812 733.128 272.812C697.998 272.812 669.459 299.159 669.459 331.544C669.481 343.306 673.246 354.756 680.197 364.242C685.425 371.361 690.113 378.856 694.233 386.668L721.917 439.989C726.464 448.692 739.009 448.771 743.557 440.067L772.023 386.276C775.94 378.793 780.448 371.634 785.508 364.869C792.756 355.269 796.69 343.574 796.719 331.544Z" fill="#D13535"/>
<path d="M739.325 402.351C739.319 402.393 739.325 402.436 739.336 402.476C739.353 402.517 739.375 402.554 739.404 402.586V402.429L739.325 402.351Z" fill="white"/>
<path d="M739.555 394.039C733.049 391.608 727.247 398.038 721.129 396.783C712.896 387.216 695.021 386.825 691.414 402.664C690.159 407.604 697.683 409.643 699.017 404.781C699.164 403.316 699.738 401.925 700.666 400.782C700.903 400.39 700.824 400.469 700.509 400.86C702 398.508 705.529 397.41 708.191 397.881H707.724C709.603 397.881 711.562 399.057 713.053 400.312C720.662 409.172 728.108 402.821 736.893 401.566H736.736C737.653 401.638 738.542 401.934 739.325 402.429H739.403C739.477 402.586 739.477 402.742 739.403 402.586C738.852 404.781 741.126 407.055 743.242 406.977C751.397 405.33 745.673 394.43 739.555 394.039ZM703.565 398.43C703.565 398.351 703.722 398.351 703.88 398.273L703.565 398.43ZM739.403 402.272C739.403 402.194 739.404 402.194 739.325 402.194C739.325 402.115 739.246 401.958 739.325 402.115C739.404 402.272 739.403 401.958 739.403 402.272Z" fill="white"/>
<path d="M688.195 350.206C688.122 350.206 688.352 350.284 688.509 350.127L688.195 350.206Z" fill="white"/>
<path d="M727.562 349.421L728.028 349.656L727.562 349.421Z" fill="white"/>
<path d="M757.987 349.579L758.218 349.814L757.987 349.579Z" fill="white"/>
<path d="M762.613 355.303C762.613 355.382 762.692 355.46 762.692 355.538C762.692 355.496 762.687 355.453 762.675 355.412C762.664 355.372 762.642 355.335 762.613 355.303Z" fill="white"/>
<path d="M760.885 342.051C752.809 337.189 741.986 338.836 735.323 345.266C727.326 337.973 712.738 339.542 705.45 347.148C692.275 336.876 671.496 343.855 666.634 359.616C665.221 364.477 672.751 366.594 674.164 361.654C675.306 358.611 677.248 355.933 679.786 353.904C682.33 351.875 685.369 350.57 688.588 350.127H688.509C691.504 349.819 694.526 350.278 697.295 351.461H697.058C696.901 351.304 697.374 351.617 697.452 351.617H697.374C699.653 352.632 701.707 354.1 703.407 355.93C705.838 366.124 718.934 362.125 711.173 352.95V352.793C711.173 352.872 711.173 352.872 711.095 352.872C711.173 352.872 711.252 352.715 711.252 352.636C714.387 348.873 720.268 348.403 724.894 348.794H724.658C725.66 348.899 726.639 349.163 727.562 349.579C727.641 349.657 728.029 349.735 728.029 349.892C728.845 350.174 729.554 350.693 730.072 351.382L729.836 351.068L730.072 351.461V351.617C730.224 351.947 730.404 352.262 730.618 352.558L730.303 352.088C730.618 352.245 730.854 354.44 730.697 352.872C731.4 358.439 737.597 357.42 739.167 352.872C741.474 349.949 744.812 348.014 748.498 347.462H748.419C750.299 346.991 754.379 347.775 755.004 348.167C756.034 348.636 757.002 349.215 757.908 349.892C757.908 349.97 758.218 350.127 758.139 350.206C759.045 350.859 759.861 351.623 760.57 352.48C761.347 353.474 762 354.553 762.534 355.695C762.613 355.852 762.692 356.243 762.613 356.008C763.069 357.12 763.412 358.277 763.632 359.459C763.553 358.988 763.632 359.537 763.632 359.694V359.066C762.692 364.948 770.999 366.516 771.55 360.4C771.432 356.697 770.396 353.082 768.534 349.879C766.671 346.676 764.042 343.986 760.885 342.051ZM711.252 354.362C711.224 354.33 711.201 354.293 711.185 354.252C711.173 354.212 711.168 354.169 711.173 354.127C711.173 354.205 711.252 354.283 711.252 354.362ZM711.016 353.342C711.089 353.226 711.117 353.086 711.095 352.95C711.095 353.186 711.095 353.342 711.016 353.342ZM739.246 352.558L739.403 352.401C739.792 351.852 739.403 352.401 739.246 352.558Z" fill="white"/>
<path d="M711.173 352.636C711.218 352.596 711.246 352.54 711.252 352.479C711.252 352.558 711.252 352.558 711.173 352.636Z" fill="white"/>
<path d="M748.577 347.147C749.043 347.226 749.122 347.147 748.964 347.069L748.577 347.147Z" fill="white"/>
<path d="M706.311 306.372L706.547 306.215L706.311 306.372Z" fill="white"/>
<path d="M771.314 304.805C771.078 304.648 770.69 304.492 771.314 304.883V304.805Z" fill="white"/>
<path d="M778.608 301.276C773.43 293.905 761.825 294.376 756.101 300.806C748.886 292.494 734.698 289.044 727.404 299.002C719.407 291.239 705.759 293.121 699.726 302.217C688.588 290.769 667.888 295.474 662.559 310.372C661.067 315.233 668.671 317.351 670.083 312.411C670.398 311.626 672.515 308.177 674.709 306.687C674.394 306.922 675.261 306.295 674.788 306.608C681.531 301.198 691.492 303.629 695.724 309.431C697.373 313.508 702.388 315.939 704.352 310.843C704.69 309.234 705.359 307.713 706.311 306.373C706.389 306.216 706.626 305.981 706.547 306.216C707.802 304.568 709.479 303.294 711.409 302.531C711.331 302.531 711.331 302.531 711.331 302.609C715.642 300.492 721.602 303.393 723.56 306.373C725.519 309.353 725.834 315.704 730.854 313.587C735.874 311.47 731.873 307.941 732.813 305.04C734.54 300.963 740.185 299.629 743.635 301.433C747.085 303.236 751.239 306.922 754.143 310.45C755.944 312.646 760.182 311.47 760.727 308.725C760.806 308.078 761.014 307.453 761.335 306.888C761.656 306.322 762.095 305.827 762.613 305.432C762.455 305.589 762.376 305.746 762.844 305.275H762.692L762.922 305.118C762.844 305.197 762.844 305.197 762.844 305.275L764.571 304.256H764.493L766.372 303.707H766.609C767.909 303.547 769.231 303.708 770.453 304.177H770.295C770.728 304.335 771.128 304.575 771.471 304.883H771.314C771.708 305.197 772.569 306.295 771.786 305.275C774.296 309.666 781.275 305.589 778.608 301.276ZM738.615 300.649H738.773C739.245 300.492 738.852 300.649 738.615 300.649Z" fill="white"/>
<path d="M769.98 304.099C769.823 304.099 769.823 304.099 770.294 304.256L769.98 304.099Z" fill="white"/>
<path d="M711.016 302.688C710.937 302.767 711.016 302.767 711.33 302.61L711.016 302.688Z" fill="white"/>
<path d="M764.178 304.49L764.492 304.333C764.431 304.333 764.374 304.348 764.318 304.375C764.262 304.402 764.217 304.442 764.178 304.49Z" fill="white"/>
<path d="M720.893 450.26H720.819C717.792 450.238 714.831 449.394 712.248 447.82C709.665 446.245 707.56 444 706.153 441.321L678.475 388.001C674.479 380.376 669.92 373.063 664.832 366.124C657.302 355.927 653.233 343.59 653.227 330.916C653.227 296.179 683.725 267.872 721.208 267.872C758.69 267.872 789.115 296.179 789.115 330.916C789.109 343.883 784.871 356.493 777.037 366.829C772.163 373.438 767.762 380.382 763.868 387.608L735.48 441.399C734.09 444.068 731.997 446.305 729.425 447.867C726.853 449.429 723.904 450.257 720.893 450.26ZM721.208 276.498C688.509 276.498 661.85 300.962 661.85 330.916C661.872 341.783 665.361 352.358 671.811 361.105C677.146 368.374 681.947 376.027 686.157 384.001L713.835 437.322C714.505 438.604 715.501 439.682 716.734 440.442C717.96 441.201 719.373 441.613 720.819 441.635C722.271 441.653 723.701 441.266 724.945 440.518C726.194 439.77 727.207 438.691 727.871 437.401L756.259 383.609C760.317 375.947 764.96 368.607 770.137 361.654C776.823 352.798 780.453 342.012 780.487 330.916C780.487 300.962 753.906 276.498 721.208 276.498Z" fill="#452D34"/>
<path d="M192.392 198.478C174.044 198.634 170.75 171.503 188.629 167.269C211.447 162.486 215.759 197.693 192.392 198.478ZM192.392 175.424C181.885 175.424 183.924 192.126 194.118 189.617C202.194 187.891 200.626 175.267 192.392 175.424Z" fill="#D13535"/>
<path d="M219.256 210.119L193.757 214.524C192.528 214.736 191.264 214.451 190.245 213.732C189.225 213.013 188.533 211.918 188.321 210.688C187.627 206.672 188.557 202.544 190.907 199.213C193.257 195.882 196.833 193.621 200.849 192.927L205.331 192.154C209.348 191.46 213.476 192.39 216.806 194.74C220.137 197.089 222.398 200.665 223.092 204.682C223.304 205.912 223.02 207.175 222.3 208.195C221.58 209.215 220.486 209.906 219.256 210.119Z" fill="#D13535"/>
<path d="M268.61 257.757C264.297 230.234 236.696 211.65 206.899 216.276C177.102 220.902 156.401 246.936 160.635 274.459C162.195 284.441 166.891 293.669 174.044 300.805C179.417 306.14 184.372 311.881 188.864 317.978L219.366 359.536C220.496 361.09 222.03 362.303 223.801 363.046C225.571 363.789 227.512 364.031 229.412 363.749C231.311 363.466 233.096 362.668 234.574 361.441C236.052 360.215 237.165 358.607 237.794 356.792L254.809 307.392C257.18 300.546 260.063 293.888 263.435 287.475C268.33 278.39 270.147 267.962 268.61 257.757Z" fill="#EFDCC4"/>
<path d="M184.159 220.119C167.065 218.237 174.985 189.381 195.764 189.146C209.957 184.677 229.717 208.984 211.211 215.571L185.727 219.962L184.159 220.119ZM192.863 198.399C191.431 198.645 190.062 199.171 188.834 199.948C187.606 200.724 186.543 201.734 185.705 202.921C184.868 204.108 184.273 205.448 183.953 206.865C183.634 208.283 183.598 209.749 183.845 211.18C183.924 212.121 209.329 206.789 209.722 207.024C210.192 201.222 202.978 196.438 197.254 197.615L192.863 198.399Z" fill="#452D34"/>
<path d="M167.614 235.252C193.177 246.073 226.894 285.515 236.069 312.019C236.069 311.94 235.99 310.764 235.99 311.47C235.519 316.724 243.831 317.272 243.831 311.862C239.362 292.494 224.777 276.576 212.545 261.364C201.253 248.661 188.55 236.429 173.025 229.058C167.3 224.667 160.792 231.488 167.614 235.252Z" fill="white"/>
<path d="M206.899 223.256C211.515 225.378 215.881 228.007 219.915 231.097C225.182 235.349 229.944 240.189 234.108 245.525C241.479 255.013 248.301 268.657 251.908 281.046C253.241 285.908 260.925 283.869 259.514 279.007C253.398 259.169 242.89 240.036 226.816 226.627C222.346 223.804 209.878 211.807 205.487 217.845C204.546 219.571 204.939 222.315 206.899 223.256Z" fill="white"/>
<path d="M152.402 270.695H152.794C150.912 270.381 153.421 270.852 153.892 271.165L153.343 270.93C176.788 284.417 196.94 305.354 215.054 327.074C218.347 330.759 226.424 343.933 226.11 347.226C226.267 349.265 227.757 351.225 230.031 351.147C239.676 349.03 228.933 333.818 226.11 329.034C210.193 306.608 189.805 287.319 168.006 270.695C163.223 267.558 158.283 263.324 152.402 262.854C146.521 262.383 147.305 270.617 152.402 270.695Z" fill="white"/>
<path d="M219.131 369.182C216.809 369.186 214.52 368.641 212.449 367.591C210.378 366.542 208.583 365.018 207.212 363.144L176.71 321.586C172.325 315.665 167.502 310.083 162.282 304.884C143.463 286.378 142.051 255.719 158.91 235.175C187.453 196.988 257.083 208.985 264.141 258.15C268.218 276.89 256.142 292.965 250.183 309.902L233.167 359.224C232.165 362.145 230.272 364.677 227.753 366.464C225.235 368.25 222.219 369.202 219.131 369.182ZM207.369 220.903C178.749 220.119 151.226 245.996 156.244 274.851C157.812 292.102 174.907 303.708 183.689 316.489L214.191 358.048C216.857 362.047 223.601 361.028 225.012 356.401L242.028 307.079C247.046 291.397 259.278 276.733 255.672 259.483C252.614 236.9 229.952 220.433 207.369 220.903Z" fill="#452D34"/>
<path d="M1007.18 396.469C1019.73 406.114 1026.47 416.7 1032.27 432.539C1038.08 448.486 1039.03 465.796 1035 482.282C1030.97 498.767 1022.13 513.685 1009.62 525.15C997.108 536.615 981.474 544.11 964.697 546.687C947.925 549.265 930.76 546.809 915.384 539.63C900.003 532.452 887.104 520.873 878.307 506.359C869.511 491.845 865.216 475.048 865.971 458.093C866.725 441.139 872.488 424.789 882.534 411.111C892.585 397.434 906.464 387.045 922.414 381.257C927.811 379.158 933.45 377.761 939.196 377.101" fill="#CE9C5C"/>
<path d="M979.425 346.755L988.83 349.499C997.294 352.01 1004.42 357.76 1008.66 365.499C1012.91 373.237 1013.92 382.339 1011.49 390.823C1009.92 396.155 1004.28 396.155 998.87 397.723C979.268 403.369 957.155 394.43 944.999 381.962C941.155 377.964 936.608 374.748 938.099 369.416C940.609 360.955 946.361 353.827 954.099 349.584C961.838 345.34 970.938 344.323 979.425 346.755Z" fill="#D13535"/>
<path d="M908.535 372.24C889.952 383.297 905.716 410.584 924.615 399.92L919.279 394.588C910.263 412.466 934.649 425.875 947.036 411.447L940.846 410.663C948.37 427.913 975.66 428.697 974.405 407.056L967.269 410.036C972.677 420.935 987.186 428.306 998.088 420.621C1003.65 417.014 1008.67 408.154 999.028 406.35C991.891 405.801 992.674 413.878 999.731 414.975L996.985 410.114L996.675 410.898C996.675 410.898 997.064 410.192 996.833 410.584C996.309 411.736 995.527 412.755 994.559 413.564L994.244 413.799C993.929 414.191 994.869 413.407 994.48 413.643C993.715 414.187 992.899 414.66 992.049 415.054C991.576 415.289 992.049 415.054 992.285 414.975C991.239 415.372 990.164 415.686 989.066 415.916H989.46C988.318 416.061 987.158 416.087 986.01 415.995C986.01 415.995 986.871 416.073 986.404 415.995C985.222 415.812 984.063 415.496 982.954 415.054C982.954 415.054 983.579 415.368 983.185 415.132C981.834 414.498 980.551 413.736 979.347 412.858C978.17 411.839 975.266 408.859 974.011 406.193C970.483 401.41 965.699 406.585 966.796 408.938C966.836 409.459 966.836 409.984 966.796 410.506C967.111 408.938 966.644 411.525 966.408 411.682C967.427 409.879 964.838 414.348 965.856 412.702C965.699 413.015 963.504 414.975 964.523 414.113C964.365 414.427 961.309 415.838 962.643 415.289C962.485 415.681 959.114 416.073 960.763 415.916C960.11 415.986 959.452 415.986 958.799 415.916C958.028 415.835 957.268 415.677 956.525 415.446C956.368 415.368 955.113 415.054 956.137 415.289C955.18 414.87 954.263 414.372 953.39 413.799C953.233 413.643 952.135 413.093 953.075 413.486C951.741 412.702 950.802 411.29 949.783 410.192H949.862C946.806 404.233 943.429 403.056 939.979 407.369C939.669 407.761 936.608 409.33 937.784 408.781C936.737 409.177 935.662 409.491 934.57 409.722C934.098 409.8 934.177 409.722 934.728 409.643C935.274 409.565 930.727 409.565 932.218 409.722C931.515 409.879 930.181 409.173 929.55 409.016C930.884 409.565 928.295 408.389 928.143 408.154C929.241 409.016 927.434 407.448 927.277 407.213C927.119 406.977 926.416 406.193 927.046 406.977C927.671 407.761 926.022 405.252 925.791 404.782C926.258 406.193 925.161 402.978 925.161 402.586C925.239 404.86 925.239 398.822 925.161 401.096C925.082 400.783 926.1 397.96 925.554 399.449C928.926 394.51 922.887 390.668 919.594 393.804H919.831C919.037 394.086 918.227 394.296 917.4 394.431C917.478 394.274 918.261 394.353 917.715 394.431C916.826 394.51 915.931 394.51 915.047 394.431C914.574 394.353 915.435 394.431 915.435 394.431C914.563 394.287 913.696 394.078 912.852 393.804C911.985 393.491 913.319 394.039 912.773 393.726C912.132 393.491 911.524 393.174 910.967 392.785L910.809 392.628C909.869 391.901 909.121 390.96 908.614 389.883C908.305 389.334 908.851 390.04 908.693 390.118C908.535 390.197 908.147 388.158 908.068 387.687C907.99 387.217 907.99 388.315 908.068 387.609C908.147 386.904 908.226 384.395 908.068 385.727C908.203 384.84 908.44 383.972 908.772 383.14C909.008 382.356 908.457 383.767 908.851 382.983C909.222 382.25 909.644 381.543 910.106 380.866C910.106 380.944 909.56 381.572 909.948 381.101C910.342 380.631 911.361 379.611 911.361 379.69C911.361 379.768 910.736 380.16 911.124 379.925C916.848 377.965 914.259 369.731 908.535 372.319V372.24Z" fill="white"/>
<path d="M935.274 547.963C916.763 547.956 898.703 542.257 883.541 531.639C868.38 521.021 856.848 505.997 850.511 488.605C846.476 477.494 844.669 465.697 845.187 453.887C845.71 442.077 848.558 430.486 853.556 419.776C858.559 409.064 865.622 399.444 874.345 391.463C883.063 383.481 893.272 377.296 904.382 373.259C910.1 371.024 916.082 369.548 922.183 368.868C923.275 368.809 924.35 369.168 925.188 369.873C926.027 370.578 926.567 371.576 926.697 372.664C926.826 373.752 926.539 374.849 925.886 375.731C925.239 376.613 924.277 377.216 923.202 377.415C917.771 378.023 912.447 379.341 907.359 381.336C887.07 388.727 870.541 403.871 861.412 423.441C852.284 443.011 851.293 465.405 858.666 485.703C864.395 501.422 874.818 514.999 888.522 524.593C902.226 534.188 918.547 539.335 935.274 539.338C944.746 539.338 954.144 537.666 963.037 534.398C983.325 527.008 999.855 511.863 1008.98 492.293C1018.11 472.723 1019.1 450.328 1011.73 430.03C1005.93 414.113 999.264 404.546 988.047 395.921C987.147 395.223 986.556 394.196 986.41 393.064C986.263 391.932 986.567 390.788 987.265 389.883C987.963 388.98 988.987 388.391 990.118 388.244C991.255 388.096 992.398 388.404 993.304 389.099C1005.85 398.665 1013.53 409.721 1019.81 427.129C1036.82 473.785 1012.59 525.537 965.935 542.553C956.108 546.136 945.736 547.967 935.274 547.963Z" fill="#452D34"/>
<path d="M974.951 352.166C953.626 352.714 944.532 323.074 962.958 311.704C987.501 296.414 1010.87 332.562 986.871 348.715C983.308 350.979 979.172 352.176 974.951 352.166ZM974.872 316.801C951.899 318.291 962.018 352.636 982.166 341.423C993.304 334.679 987.811 316.331 974.872 316.801Z" fill="#D13535"/>
<path d="M969.621 399.841C951.899 399.841 935.195 391.059 925.397 381.023L923.748 379.297C920.219 375.925 915.435 371.221 917.478 364.242C920.281 354.666 926.764 346.591 935.51 341.785C944.25 336.979 954.544 335.834 964.134 338.601L973.465 341.345C983.016 344.185 991.064 350.674 995.864 359.408C1000.67 368.142 1001.83 378.415 999.106 388.001C997.142 394.745 991.03 396.077 986.635 397.097L983.579 397.881C979.042 399.185 974.343 399.845 969.621 399.841ZM953.627 345.737C947.346 345.743 941.234 347.787 936.214 351.562C931.193 355.338 927.535 360.64 925.791 366.673C925.239 368.398 926.179 369.731 929.708 373.103L931.593 374.984C942.489 386.197 963.037 394.823 981.226 389.569L984.676 388.707C989.066 387.687 990.321 387.217 990.794 385.649C992.932 378.266 992.066 370.337 988.374 363.593C984.687 356.85 978.48 351.84 971.113 349.657L961.781 346.912C959.131 346.144 956.384 345.748 953.627 345.737Z" fill="#452D34"/>
<path d="M988.284 329.583C979.971 321.271 983.578 307.784 978.795 297.512C939.979 193.458 840.712 269.597 773.12 226.94C770.436 225.097 767.914 223.024 765.59 220.746C774.533 214.497 782.108 206.493 787.86 197.222C795.075 183.422 794.602 162.328 777.747 156.29C757.987 149.076 744.89 170.562 744.89 187.813C744.108 199.417 747.71 210.003 753.985 218.864C743.872 224.588 733.128 227.568 725.052 225.215C697.762 214.238 693.214 180.206 671.417 163.034C635.032 133.551 579.124 133.551 539.84 157.781C539.056 138.805 520.08 124.22 502.672 119.672C453.272 107.91 416.496 153.546 371.879 164.916C355.177 170.64 334.869 166.249 322.009 155.977C331.521 148.202 339.613 138.837 345.925 128.297C350.002 120.691 352.904 109.948 347.336 102.342C320.205 77.4856 286.566 125.788 309.698 155.428C276.059 178.717 229.795 183.422 189.961 178.324C184.943 177.776 184.943 185.617 189.961 186.166C231.834 191.419 280.136 185.852 315.108 161.152L317.147 162.877C385.445 213.218 448.175 94.4224 516.395 134.413C523.844 139.51 532.077 148.449 531.92 158.016C530.587 169.778 536.938 170.64 544.937 163.74C583.593 140.843 640.368 141.627 672.751 175.11C680.276 183.265 684.671 193.38 690.395 202.789C700.351 217.923 715.169 235.723 735.165 233.919C743.562 232.315 751.622 229.292 759.005 224.98C764.639 230.865 771.274 235.697 778.608 239.251C844.708 270.46 940.609 206.71 972.289 302.923C975.424 313.901 973.386 326.995 982.796 335.15C986.556 338.444 992.127 332.876 988.284 329.583ZM317.853 110.419C335.182 94.109 351.257 107.753 337.299 127.356C331.519 136.096 324.432 143.898 316.285 150.488C307.659 140.059 305.777 125.867 317.853 110.419ZM754.61 203.809C749.674 189.537 753.361 159.897 773.824 163.269C784.804 165.778 785.508 177.933 783.47 187.107C781.427 196.281 771.708 206.945 760.418 214.786C757.919 211.452 755.961 207.748 754.61 203.809Z" fill="#CE9C5C"/>
<path d="M343.18 516.284C344.307 515.896 345.514 515.793 346.69 515.984C347.867 516.176 348.978 516.656 349.924 517.382C351.727 519.343 353.766 522.714 356.902 520.754C357.783 520.202 358.42 519.334 358.682 518.329C358.944 517.323 358.812 516.255 358.314 515.343C355.021 509.541 347.415 506.483 341.063 508.678C336.202 510.09 338.241 517.617 343.18 516.284Z" fill="white"/>
<path d="M233.716 556.745V556.51C233.746 556.586 233.746 556.67 233.716 556.745Z" fill="white"/>
<path d="M263.278 526.086C268.767 526.477 269.629 518.401 263.983 518.166C246.811 519.969 232.069 533.221 227.286 549.61C226.423 554.549 222.503 566.392 229.717 567.647C235.519 567.174 232.932 560.509 233.716 556.745C234.703 550.491 237.254 544.587 241.134 539.583C245.014 534.579 250.095 530.638 255.907 528.124L255.436 528.359C257.951 527.294 260.583 526.53 263.278 526.086Z" fill="white"/>
<path d="M210.663 704.16C203.605 698.672 199.45 690.124 198.352 681.423C197.524 675.012 198.389 668.495 200.861 662.524C200.626 663.075 200.547 663.154 200.704 662.918C201.656 660.644 202.867 658.483 204.311 656.485C204.468 656.254 205.174 655.309 204.468 656.176C204.833 655.815 205.123 655.388 205.321 654.915C205.519 654.448 205.621 653.941 205.621 653.429C205.621 652.917 205.519 652.411 205.321 651.938C205.123 651.471 204.833 651.043 204.468 650.683C195.999 644.571 190.118 668.957 190.197 674.759C189.648 687.771 194.902 701.419 205.095 709.731C208.702 713.26 214.27 707.767 210.663 704.16ZM200.861 691.069L201.018 691.457C200.939 691.379 200.939 691.221 200.861 691.069Z" fill="white"/>
<path d="M328.204 574.075C329.772 574.075 331.105 575.251 332.124 576.427C333.143 577.603 333.693 579.41 333.065 578.076C333.705 579.613 334 581.273 333.928 582.933V583.327C333.676 584.785 333.255 586.203 332.673 587.565C331.575 592.343 322.166 598.382 326.322 602.699C327.733 604.027 330.477 604.421 331.811 602.699C342.789 592.112 347.963 569.449 328.204 566.235C323.107 566.156 323.107 573.996 328.204 574.075ZM332.046 576.27C331.967 576.191 331.889 576.191 331.889 576.112C331.889 576.033 331.967 576.191 332.046 576.27Z" fill="white"/>
<path d="M228.227 602.147C227.208 599.17 222.738 598.933 221.249 601.674C219.759 604.42 220.778 608.343 222.346 610.696C228.541 615.007 230.109 606.537 228.227 602.147Z" fill="white"/>
<path d="M320.205 678.44C315.109 678.518 315.109 686.364 320.205 686.285C322.548 685.891 324.954 686.223 327.106 687.225L326.714 686.989C328.086 687.551 329.377 688.289 330.556 689.183C332.438 690.202 336.202 696.241 336.045 698.205C334.947 705.415 342.553 707.609 343.965 700.946C344.67 688.559 332.595 676.875 320.205 678.44Z" fill="white"/>
<path d="M304.366 795.828C300.328 797.359 295.968 797.849 291.69 797.241C287.414 796.639 283.358 794.967 279.901 792.378C278.019 791.438 272.687 784.302 272.216 782.259C269.394 778.106 272.373 768.381 266.336 768.302C256.691 770.345 266.571 790.262 270.962 794.573C279.587 804.371 294.329 807.9 306.483 803.353C311.344 802.019 309.306 794.416 304.366 795.828Z" fill="white"/>
<path d="M433.12 775.752C427.709 773.321 426.141 781.003 423.083 783.828C416.496 792.377 404.97 799.514 394.07 795.039C392.188 794.336 389.679 795.906 389.287 797.786C388.973 806.881 406.224 804.449 411.713 802.176C417.672 801.157 441.275 781.003 433.12 775.752Z" fill="white"/>
<path d="M351.963 790.65C344.905 791.511 342.161 803.431 351.257 800.842C352.669 800.217 352.59 798.022 354.394 798.259C363.803 804.219 364.431 788.218 351.963 790.65Z" fill="white"/>
<path d="M266.179 695.695C260.925 700.242 260.847 717.886 270.413 715.218C275.04 712.314 269.629 708.397 270.413 704.553C270.492 702.201 272.766 700.788 272.844 698.436C272.922 696.083 268.374 693.185 266.179 695.695Z" fill="white"/>
</svg>
