<svg width="1126" height="1127" viewBox="0 0 1126 1127" fill="none" xmlns="http://www.w3.org/2000/svg">
<path d="M305.407 270.326C300.221 263.261 322.018 267.996 316.531 260.255C303.754 242.216 292.254 225.831 292.254 225.831C287.608 219.386 281.284 214.338 273.969 211.237C266.654 208.136 258.629 207.101 250.766 208.244C240.003 209.946 229.638 213.587 220.176 218.991C201.912 229.514 187.406 245.448 175.456 262.81C167.113 274.986 159.597 289.717 163.28 303.997C165.008 310.762 169.067 316.549 173.05 322.261L281.807 477.994C281.807 477.994 296.013 494.905 321.191 485.66C344.717 477.091 366.588 463.863 384.326 446.276C400.26 430.492 413.713 407.869 406.949 386.448C404.393 378.105 398.982 371.041 393.721 364.051C384.776 352.325 368.166 327.898 359.298 316.174L324.273 304.749L305.407 270.326Z" fill="#CE9C5C"/>
<path d="M190.112 338.497C193.194 333.687 196.426 329.101 199.808 324.667C219.199 299.488 247.384 277.466 278.125 264.614C287.77 260.589 297.723 257.346 307.888 254.919C308.837 254.622 309.638 253.975 310.126 253.109C310.615 252.244 310.755 251.224 310.519 250.259C309.316 242.818 282.935 255.294 277.749 256.647C258.995 264.267 241.489 274.654 225.813 287.463C209.328 300.843 195.093 316.779 183.649 334.664C181.168 338.797 187.632 342.705 190.112 338.497Z" fill="white"/>
<path d="M248.587 417.49C250.668 413.269 253.002 409.178 255.576 405.239C256.854 403.285 258.207 401.406 259.635 399.527L260.537 398.324C260.011 399 260.612 398.174 260.687 398.099L261.289 397.347L263.393 394.716C269.482 387.587 276.226 381.044 283.536 375.175L284.889 374.122L285.641 373.521C285.039 373.972 285.49 373.672 285.566 373.596L288.572 371.342L294.359 367.283C298.643 364.426 303.078 361.721 307.587 359.241C312.097 356.761 316.682 354.355 321.417 352.176L328.557 348.868L330.135 348.192L331.038 347.816L331.413 347.666L335.021 346.163C340.432 343.983 345.919 341.954 351.406 340.075C354.036 339.173 356.742 338.121 359.448 337.369L361.327 336.918C361.478 336.918 362.529 336.692 361.552 336.918C361.965 336.79 362.399 336.739 362.83 336.768H363.882L364.785 336.993C365.16 337.144 365.16 337.144 364.709 336.993L365.235 337.294C366.964 338.271 369.444 337.745 370.346 335.941C370.843 335.071 370.98 334.042 370.727 333.072C370.474 332.103 369.852 331.271 368.993 330.755C363.808 327.748 358.02 329.853 352.759 331.582C347.498 333.311 342.687 335.114 337.651 337.068C327.546 340.875 317.682 345.292 308.114 350.297C290.451 359.616 273.84 371.567 260.537 386.599C253.196 394.755 246.978 403.854 242.048 413.657C241.221 415.386 241.522 417.79 243.401 418.767C245.28 419.744 247.609 419.294 248.587 417.414V417.49Z" fill="white"/>
<path d="M215.892 375.024C217.89 371.118 220.229 367.395 222.882 363.9C222.431 364.577 222.882 363.975 222.957 363.825L223.483 363.224C223.786 362.805 224.112 362.403 224.46 362.021C225.137 361.119 225.888 360.292 226.715 359.391C227.542 358.488 229.646 356.158 231.225 354.655C237.388 348.567 244.077 343.081 250.766 337.519C257.455 331.957 263.693 326.621 270.383 321.36L271.586 320.383C271.736 320.307 272.187 320.007 271.586 320.457L272.337 319.856L274.893 317.902L280.079 314.219C283.536 311.739 287.219 309.484 290.902 307.304L297.215 303.997L300.372 302.569L301.199 302.193H301.424L303.077 301.517C307.434 299.806 311.936 298.498 316.531 297.609C317.485 297.345 318.297 296.715 318.789 295.857C319.282 294.999 319.415 293.981 319.162 293.024C318.866 292.075 318.218 291.275 317.353 290.786C316.487 290.298 315.467 290.157 314.502 290.393C297.366 293.55 282.108 303.096 268.429 313.543C261.439 318.879 254.675 324.591 247.91 330.228C241.146 335.865 234.306 341.352 227.918 347.44C221.529 353.528 213.938 362.247 209.428 371.266C208.931 372.136 208.795 373.165 209.047 374.135C209.3 375.104 209.923 375.936 210.781 376.452C212.51 377.354 214.99 376.978 215.892 375.099V375.024Z" fill="#D13535"/>
<path d="M414.466 372.695C408.754 353.604 393.12 339.925 382.673 323.464C378.915 319.932 371.925 304.073 366.514 307.155C364.935 308.057 363.883 310.687 365.161 312.265C375.984 326.621 386.055 341.277 397.028 355.483C344.792 362.548 302.326 404.637 283.161 453.191C251.067 409.974 217.17 358.264 184.626 312.942C177.561 302.645 168.015 291.972 169.519 278.594C178.839 233.122 252.27 165.102 293.157 214.181C306.31 232.972 319.539 251.762 332.992 270.326C335.397 274.535 342.012 270.702 339.456 266.568C303.379 221.397 289.098 162.697 219.876 202.156C193.87 218.315 148.774 265.29 165.911 297.985C203.566 354.13 243.251 410.8 282.785 465.442C283.988 469.351 286.468 470.929 288.497 470.704C329.084 498.888 429.498 421.023 414.466 372.695ZM290.902 463.488C284.288 453.867 305.032 427.711 310.669 418.993C332.391 392.086 365.161 362.548 401.463 363.525L401.914 363.75C433.782 409.147 331.113 489.719 290.902 463.488Z" fill="#ffffff"/>
<path d="M220.703 187.124C220.703 186.973 220.477 185.996 220.703 186.898C220.365 184.253 220.365 181.576 220.703 178.931C220.552 179.908 220.703 178.856 220.778 178.706C221.199 176.317 221.853 173.976 222.732 171.716C223.784 167.507 229.948 163.824 226.565 159.84C217.095 153.527 211.007 182.915 213.487 189.078C214.69 193.813 221.981 191.784 220.703 187.124Z" fill="#CE9C5C"/>
<path d="M174.103 215.385C161.91 211.744 148.805 212.707 137.275 218.09C133.667 220.42 124.948 222.825 127.278 228.462C128.255 229.965 130.736 231.093 132.389 229.815C135.333 227.621 138.509 225.756 141.859 224.253C145.642 222.687 149.607 221.602 153.659 221.022C154.937 220.646 163.881 220.646 165.384 221.096C167.652 221.41 169.89 221.912 172.074 222.6C176.734 223.953 178.763 216.662 174.103 215.385Z" fill="#CE9C5C"/>
<path d="M167.489 195.993L171.397 196.293C171.848 196.368 171.773 196.368 171.247 196.293C174.647 196.814 177.975 197.722 181.168 198.999C182.296 199.375 188.534 202.982 189.361 203.809C190.926 205.063 192.407 206.419 193.795 207.868C197.178 211.4 202.589 206.064 199.132 202.607C190.834 193.945 179.477 188.873 167.489 188.477C162.604 188.477 162.604 195.993 167.489 195.993Z" fill="#CE9C5C"/>
<path d="M344.567 272.43C321.868 244.922 286.467 264.915 312.097 295.655C324.423 312.115 359.147 332.859 371.473 306.403C377.636 291.446 369.068 279.495 359.598 271.679C358.847 270.326 357.945 269.048 357.118 267.695L357.644 269.574C355.539 241.464 331.338 211.024 306.61 198.473C283.762 188.702 280.906 209.07 292.706 203.884C292.781 203.809 291.653 204.26 292.18 204.11C292.957 203.805 293.763 203.579 294.584 203.433H294.134C295.13 203.297 296.138 203.271 297.14 203.358C297.516 203.433 298.794 203.659 297.29 203.358C311.12 205.838 324.273 219.968 332.766 230.566C341.259 241.164 346.295 250.559 349.151 261.983C349.474 263.321 349.725 264.676 349.902 266.042C349.978 266.417 349.828 265.365 349.828 265.44C348.925 273.859 357.945 279.721 361.778 284.682C363.732 287.312 365.461 290.018 365.912 292.348C365.987 292.649 365.836 292.799 365.912 292.122C366.05 293.926 365.999 295.74 365.761 297.534C365.686 298.21 365.836 297.534 365.836 297.383C365.517 299.787 364.963 302.153 364.183 304.449C364.408 303.923 364.408 304.223 364.183 304.449C363.724 305.443 363.143 306.378 362.454 307.23C359.974 310.461 355.314 312.04 349.301 311.213C344.792 311.063 332.691 304.974 328.933 301.517C319.313 293.776 310.218 283.629 310.594 273.633C311.12 271.679 313.901 268.071 316.456 267.019C319.012 265.966 318.937 266.493 321.267 266.718C321.717 266.718 320.966 266.643 320.966 266.643C323.113 266.979 325.209 267.585 327.204 268.447C329.384 269.273 334.344 272.28 336.524 274.61C341.334 282.051 348.099 277.992 344.567 272.355V272.43Z" fill="#ffffff"/>
<path d="M491.806 93.1736C476.94 88.8902 461.156 88.9684 446.334 93.3993C445.434 93.8394 444.505 94.2159 443.553 94.5266C442.501 94.9025 441.567 95.5509 440.847 96.4058L440.697 96.556C439.786 97.6619 439.258 99.0335 439.194 100.465C438.918 104.607 437.78 108.645 435.852 112.322C433.923 115.998 431.247 119.229 427.994 121.81C426.341 122.862 425.214 124.741 426.04 126.77C428.971 131.806 438.291 126.62 443.102 126.921C461.14 123.914 485.868 126.094 495.563 144.208C498.345 152.626 502.178 159.24 510.821 151.874L528.108 140.224C557.045 125.793 506.762 96.1801 491.806 93.1736ZM529.612 129.627V129.777C523.223 135.414 513.076 141.126 504.658 146.989C497.292 121.133 465.951 116.023 440.245 119.555C443.89 114.107 446.088 107.823 446.634 101.291C476.924 91.3698 512.024 101.968 529.686 128.875C529.725 129.023 529.749 129.174 529.762 129.326C529.762 129.401 529.762 129.476 529.686 129.476C529.611 129.476 529.762 129.401 529.612 129.627Z" fill="#EFDCC4"/>
<path d="M529.761 129.175V128.95C529.761 129.025 529.836 129.175 529.761 129.175Z" fill="#CE9C5C"/>
<path d="M505.258 148.041C505.333 148.115 505.333 148.115 505.333 148.189C505.328 148.132 505.301 148.079 505.258 148.041Z" fill="#CE9C5C"/>
<path d="M529.761 129.25C529.761 129.1 529.761 129.025 529.836 129.025L529.761 129.25Z" fill="#CE9C5C"/>
<path d="M529.611 129.701C529.611 129.626 529.686 129.55 529.686 129.4C529.686 129.25 529.536 129.626 529.611 129.701Z" fill="#CE9C5C"/>
<path d="M113.899 435.453C113.974 435.528 113.974 435.453 113.824 435.078C113.885 435.193 113.911 435.323 113.899 435.453Z" fill="#D13535"/>
<path d="M130.36 395.919L130.585 395.769L130.36 395.919Z" fill="#D13535"/>
<path d="M138.627 454.018C136.523 452.289 134.193 454.094 131.938 454.394C121.115 455.597 114.802 444.398 113.824 435.078C113.436 431.605 113.462 428.098 113.899 424.631C113.824 425.157 113.824 425.007 113.899 424.555C114.45 420.813 115.459 417.153 116.906 413.657C116.906 413.677 116.898 413.696 116.884 413.711C116.87 413.725 116.851 413.733 116.83 413.733C116.981 413.357 117.056 413.131 116.906 413.657C119.821 406.703 124.449 400.601 130.36 395.92H130.284C130.585 395.694 130.735 395.694 130.585 395.769C132.832 394.01 135.279 392.522 137.876 391.334C141.633 388.93 139.003 384.345 135.32 383.819H135.47C133.162 382.804 130.97 381.544 128.931 380.06L129.307 380.361C124.497 377.956 119.987 366.306 115.177 368.411C84.8877 379.159 67.9014 415.386 79.4758 445.525C87.2925 468.148 108.638 481.302 128.706 492.049C129.377 492.443 130.155 492.619 130.931 492.553C131.707 492.486 132.443 492.179 133.037 491.676C133.631 491.172 134.054 490.497 134.248 489.742C134.441 488.988 134.396 488.192 134.117 487.465C134.268 480.851 142.686 457.25 138.627 454.018ZM125.023 453.417C125.023 453.397 125.015 453.378 125.001 453.364C124.987 453.35 124.968 453.342 124.948 453.342C124.968 453.342 124.987 453.35 125.001 453.364C125.015 453.378 125.023 453.397 125.023 453.417ZM104.354 382.842L104.053 383.067L104.354 382.842ZM119.086 477.919C114.965 475.448 110.976 472.763 107.135 469.877C91.652 459.054 80.5283 437.558 83.9107 417.415C85.2141 408.364 88.8684 399.811 94.5082 392.613C98.7168 386.9 107.436 379.61 115.403 376.378C118.785 381.038 122.919 385.472 127.954 388.329C113.523 398.324 104.655 416.363 106.233 433.951C106.835 447.555 116.455 463.038 131.562 461.91C130.209 468.825 128.706 475.74 127.353 482.729L119.086 477.919Z" fill="#D13535"/>
<path d="M353.06 144.659C348.54 137.092 346.15 128.444 346.145 119.63C346.131 119.052 345.985 118.485 345.72 117.97C345.454 117.456 345.076 117.009 344.613 116.662C344.151 116.315 343.615 116.077 343.048 115.966C342.48 115.856 341.895 115.875 341.335 116.022C328.332 119.48 314.578 129.476 310.82 142.629C310.948 143.492 311.383 144.28 312.046 144.847C312.71 145.413 313.555 145.72 314.428 145.711C326.095 144.658 337.85 146.197 348.851 150.22C351.933 151.197 354.789 147.364 353.06 144.659ZM346.521 126.019C346.521 126.244 346.596 126.319 346.521 126.019V126.019ZM321.493 137.894C323.702 134.923 326.306 132.268 329.234 130.002H329.159C332.133 127.79 335.395 125.995 338.855 124.666C339.373 130.083 340.664 135.398 342.688 140.449C335.754 138.736 328.636 137.877 321.493 137.894Z" fill="#D13535"/>
<path d="M219.801 499.114C210.893 496.194 201.266 496.326 192.442 499.489C184.926 503.623 194.02 514.446 196.651 519.557C199.883 523.089 205.144 534.739 210.255 533.762C210.875 533.571 211.438 533.232 211.896 532.773C212.355 532.315 212.694 531.751 212.885 531.132C216.042 522.038 219.199 512.868 222.431 503.698C223.108 501.744 221.604 499.715 219.801 499.114ZM207.925 522.488C204.017 517.227 200.108 511.815 197.703 505.652C203.015 504.29 208.569 504.161 213.938 505.277C211.908 511.064 209.954 516.776 207.925 522.488Z" fill="#D13535"/>
<path d="M518.187 235.001C509.619 225.606 502.178 212.452 492.632 204.335C491.28 201.254 486.469 201.78 485.643 205.012L472.339 246.125C471.438 248.905 474.294 251.536 476.999 250.785L515.556 239.661C517.436 239.059 518.863 236.955 518.187 235.001ZM490.979 212.828L507.74 234.023L481.735 241.539L490.979 212.828Z" fill="#CE9C5C"/>
<path d="M336.975 875.367C336.148 871.76 327.354 871.608 323.596 867.696C320.289 865.895 318.861 860.706 314.802 860.858C310.744 861.01 311.42 867.1 309.691 870.105C308.611 872.525 307.302 874.844 305.783 877.016C294.96 887.54 281.431 895.583 266.174 897.311C260.706 897.952 255.182 897.952 249.713 897.311H249.864C246.933 897.237 243.25 894.981 241.07 897.84C240.243 898.892 239.868 900.845 240.769 901.971C241.912 903.485 242.918 905.094 243.776 906.783C245.94 911.426 246.723 916.592 246.031 921.663C246.058 921.635 246.079 921.595 246.092 921.562C246.104 921.522 246.109 921.477 246.106 921.438C245.79 923.357 245.312 925.242 244.678 927.077C244.603 927.302 244.076 928.501 244.452 927.527C239.041 941.428 287.444 925.422 292.856 923.019C312.097 914.521 342.161 900.845 336.975 875.367ZM330.285 882.43C325.174 908.133 276.095 923.092 252.946 925.27C254.524 918.584 257.982 904.83 251.142 904.976C280.83 904.227 301.424 897.913 316.982 871.833C314.427 876.268 325.25 877.843 330.21 879.346C330.348 880.37 330.373 881.406 330.285 882.43ZM330.285 879.577C330.361 880.252 330.285 879.65 330.21 879.498C330.22 879.498 330.23 879.504 330.239 879.504C330.248 879.509 330.257 879.515 330.263 879.521C330.271 879.526 330.276 879.538 330.28 879.543C330.284 879.554 330.285 879.566 330.285 879.577Z" fill="#CE9C5C"/>
<path d="M315.78 742.03C313.826 736.425 310.585 731.36 306.316 727.234C302.048 723.109 296.871 720.042 291.203 718.28V718.134H291.053C288.798 717.757 287.144 716.254 284.739 716.102H284.138C282.484 718.73 282.108 723.165 280.53 725.574C276.966 733.954 272.665 742.002 267.677 749.622C266.174 751.879 268.129 755.487 270.91 755.262C277.674 754.507 318.035 750.602 315.78 742.03ZM280.756 746.769L278.05 747.067C282.121 740.1 285.663 732.84 288.647 725.349C289.474 725.647 290.376 725.872 291.203 726.249C292.03 726.626 292.556 726.7 291.578 726.401C294.05 727.414 296.376 728.754 298.493 730.38H298.568C300.684 732.007 302.578 733.903 304.205 736.019C305.312 737.488 306.293 739.047 307.137 740.679C298.522 743.415 289.699 745.452 280.756 746.769Z" fill="#CE9C5C"/>
<path d="M533.219 401.481C522.396 401.556 521.043 390.433 519.765 382.09L513.527 389.831C504.508 401.18 486.62 388.704 494.06 376.302C477.3 379.008 471.061 352.852 497.518 351.499C489.175 347.366 479.78 341.428 485.417 330.755C492.181 320.233 502.027 326.171 510.069 331.357C507.815 322.187 505.56 310.612 517.661 307.831C529.762 305.051 532.092 317.752 533.369 327.072C536.977 322.939 541.336 315.047 547.575 314.897C557.721 313.468 564.784 326.246 558.172 334.138L552.61 340.977C573.732 333.461 581.021 357.062 564.559 362.849C576.287 371.567 564.26 390.057 551.558 382.691L543.065 377.806C545.771 387.952 547.274 400.354 533.219 401.481ZM521.494 372.169C522.181 372.186 522.842 372.431 523.373 372.867C523.904 373.303 524.274 373.903 524.425 374.574L527.506 390.733C528.258 395.769 535.399 397.272 538.104 392.913C540.885 390.207 536.075 375.701 536 372.469C535.915 371.913 535.987 371.344 536.209 370.828C536.431 370.311 536.794 369.866 537.256 369.546C537.718 369.225 538.261 369.04 538.823 369.011C539.384 368.984 539.943 369.114 540.434 369.388L554.565 377.505C561.103 381.413 567.041 371.041 560.427 367.283L554.715 364.051C552.309 362.773 552.986 358.94 555.692 358.489L562.757 357.136C567.716 356.385 569.297 349.169 564.936 346.539C561.404 342.105 538.781 354.581 542.915 343.608C544.418 340.752 555.917 329.778 554.715 326.095C554.339 320.985 547.349 318.955 544.268 323.014L534.046 335.866C533.671 336.298 533.185 336.616 532.64 336.787C532.095 336.958 531.514 336.974 530.961 336.834C530.407 336.694 529.904 336.402 529.506 335.993C529.109 335.583 528.833 335.071 528.709 334.514C526.83 329.553 527.882 311.74 518.788 313.694C509.694 315.648 517.135 331.357 517.135 336.618C516.082 349.169 496.315 322.412 490.603 333.762C490.211 334.428 489.954 335.164 489.848 335.929C489.742 336.694 489.788 337.473 489.984 338.22C490.179 338.968 490.52 339.669 490.988 340.284C491.455 340.899 492.039 341.416 492.707 341.804L507.514 350.372C508.059 350.664 508.498 351.121 508.767 351.677C509.037 352.234 509.124 352.861 509.016 353.47C508.907 354.079 508.609 354.638 508.164 355.066C507.719 355.496 507.149 355.773 506.537 355.859C503.531 356.986 488.198 357.813 486.695 361.421C483.688 365.555 487.597 371.643 492.632 370.515L500.75 368.937C503.38 368.336 505.41 371.718 503.681 373.747L499.697 378.707C494.812 384.645 504.132 392.161 508.867 386.073C510.37 384.871 519.164 371.417 521.494 372.169Z" fill="#D13535"/>
<path d="M193.569 706.18C182.671 706.253 181.394 695.132 180.041 686.792L173.878 694.53C164.784 705.955 146.896 693.404 154.411 681C137.65 683.707 131.337 657.475 157.868 656.198C149.526 652.067 140.056 646.129 145.693 635.453C152.533 624.935 162.378 630.872 170.42 636.055C168.165 626.887 165.911 615.311 178.012 612.53C190.112 609.75 192.442 622.453 193.72 631.773L199.958 623.955C209.729 611.928 228.068 626.662 218.448 638.836L212.961 645.679C221.229 643.119 231.526 643.574 233.63 653.868C234.179 656.839 233.576 659.907 231.942 662.451C230.308 664.989 227.767 666.812 224.836 667.55C236.636 676.267 224.611 694.755 211.834 687.388L203.416 682.503C205.971 692.875 207.775 704.829 193.569 706.18ZM181.77 676.869C182.46 676.869 183.128 677.111 183.662 677.55C184.196 677.989 184.563 678.597 184.701 679.273L187.782 695.431C189.135 702.95 200.861 700.693 199.357 693.179L196.275 677.168C197.328 664.617 217.17 691.373 222.882 680.027C226.34 674.388 219.049 670.853 215.066 668.748C212.661 667.471 213.337 663.565 215.968 663.188C220.552 662.439 229.196 661.758 227.768 654.92C225.288 643.648 207.324 657.025 202.965 651.69C202.668 651.166 202.531 650.564 202.571 649.962C202.611 649.366 202.826 648.786 203.191 648.308L213.788 635.076C218.598 629.217 209.353 621.698 204.618 627.715L194.321 640.563C193.957 641.002 193.477 641.329 192.935 641.503C192.394 641.678 191.814 641.695 191.263 641.554C190.712 641.413 190.212 641.115 189.823 640.704C189.433 640.288 189.168 639.77 189.06 639.213C187.181 634.254 188.234 616.442 179.139 618.395C170.045 620.348 177.41 636.055 177.485 641.318C177.588 641.88 177.528 642.46 177.313 642.989C177.098 643.518 176.736 643.974 176.271 644.306C175.806 644.638 175.256 644.829 174.686 644.858C174.115 644.886 173.549 644.756 173.051 644.475L158.921 636.28C152.382 632.448 146.369 642.747 153.058 646.501L167.865 655.072C168.393 655.371 168.815 655.832 169.071 656.384C169.326 656.935 169.404 657.554 169.293 658.151C169.172 658.747 168.88 659.288 168.452 659.715C168.025 660.143 167.48 660.436 166.888 660.56L150.728 663.638C143.287 664.994 145.467 676.791 152.908 675.215L161.101 673.633C163.731 673.037 165.761 676.419 163.957 678.445L159.973 683.409C155.163 689.347 164.483 696.86 169.218 690.771C170.721 689.572 179.44 676.115 181.77 676.869Z" fill="#D13535"/>
<path d="M720.065 149.017C719.676 149.018 719.288 148.939 718.928 148.787C718.568 148.635 718.241 148.413 717.966 148.132C717.695 147.852 717.482 147.52 717.335 147.156C717.195 146.791 717.127 146.402 717.133 146.011V74.8341C717.127 74.443 717.195 74.0535 717.335 73.6894C717.482 73.3247 717.695 72.9926 717.966 72.7124C718.241 72.4326 718.568 72.2098 718.928 72.0578C719.288 71.9059 719.676 71.8276 720.065 71.8276C720.864 71.8276 721.629 72.1445 722.192 72.7084C722.755 73.2718 723.07 74.0366 723.07 74.8341V146.011C723.07 146.808 722.755 147.573 722.192 148.137C721.629 148.7 720.864 149.017 720.065 149.017Z" fill="#CE9C5C"/>
<path d="M694.66 144.057C693.94 144.07 693.237 143.801 692.708 143.305C692.105 142.794 691.728 142.065 691.655 141.278C691.588 140.49 691.83 139.706 692.33 139.096L743.292 78.4417C743.804 77.8378 744.53 77.4602 745.318 77.3898C746.106 77.3195 746.888 77.5626 747.502 78.0658C748.087 78.5875 748.453 79.3135 748.526 80.0958C748.593 80.8781 748.363 81.6575 747.879 82.2749L696.917 143.004C696.636 143.327 696.287 143.587 695.899 143.768C695.51 143.95 695.094 144.048 694.66 144.057Z" fill="#CE9C5C"/>
<path d="M748.103 141.727C747.709 141.726 747.321 141.645 746.955 141.49C746.595 141.335 746.268 141.109 745.998 140.825L690 84.8309C689.718 84.5512 689.493 84.2175 689.336 83.8499C689.184 83.4819 689.105 83.0874 689.105 82.6889C689.105 82.2899 689.184 81.8954 689.336 81.5273C689.493 81.1598 689.718 80.8266 690 80.5463C690.563 79.9959 691.317 79.6875 692.105 79.6875C692.893 79.6875 693.647 79.9959 694.21 80.5463L750.208 136.616C750.489 136.889 750.709 137.217 750.866 137.578C751.018 137.939 751.097 138.328 751.097 138.72C751.097 139.113 751.018 139.502 750.866 139.864C750.709 140.225 750.489 140.552 750.208 140.825C749.932 141.109 749.606 141.335 749.246 141.49C748.885 141.645 748.491 141.726 748.103 141.727Z" fill="#CE9C5C"/>
<path d="M755.69 113.392H684.513C684.125 113.402 683.737 113.334 683.371 113.191C683.005 113.048 682.673 112.834 682.397 112.56C682.116 112.287 681.891 111.961 681.739 111.6C681.587 111.239 681.508 110.852 681.508 110.46C681.508 109.664 681.829 108.899 682.391 108.335C682.954 107.771 683.72 107.455 684.513 107.455H755.69C756.489 107.455 757.255 107.771 757.818 108.335C758.38 108.899 758.701 109.664 758.701 110.46C758.701 110.852 758.622 111.239 758.47 111.6C758.318 111.961 758.093 112.287 757.812 112.56C757.536 112.834 757.204 113.048 756.838 113.191C756.473 113.334 756.084 113.402 755.69 113.392Z" fill="#CE9C5C"/>
<path d="M1012.29 617.415C1011.49 617.415 1010.73 617.1 1010.17 616.537C1009.6 615.974 1009.28 615.209 1009.28 614.41V543.157C1009.28 542.36 1009.6 541.595 1010.17 541.032C1010.73 540.468 1011.49 540.151 1012.29 540.151C1013.09 540.151 1013.85 540.468 1014.41 541.032C1014.98 541.595 1015.3 542.36 1015.3 543.157V614.41C1015.3 615.209 1014.98 615.974 1014.41 616.537C1013.85 617.1 1013.09 617.415 1012.29 617.415Z" fill="#CE9C5C"/>
<path d="M986.809 612.378C986.105 612.372 985.419 612.136 984.856 611.703C984.265 611.179 983.899 610.448 983.843 609.66C983.787 608.872 984.046 608.095 984.558 607.493L1035.44 546.765C1035.69 546.464 1036.01 546.217 1036.36 546.037C1036.71 545.857 1037.1 545.748 1037.49 545.716C1037.89 545.685 1038.28 545.732 1038.66 545.854C1039.04 545.976 1039.39 546.171 1039.68 546.427C1039.99 546.684 1040.24 546.997 1040.42 547.35C1040.6 547.702 1040.7 548.086 1040.74 548.48C1040.76 548.875 1040.72 549.271 1040.6 549.647C1040.48 550.024 1040.28 550.372 1040.02 550.673L989.139 611.326C988.846 611.652 988.486 611.911 988.086 612.097C987.681 612.277 987.248 612.372 986.809 612.378Z" fill="#CE9C5C"/>
<path d="M1040.25 610.048C1039.86 610.048 1039.47 609.97 1039.1 609.812C1038.74 609.66 1038.42 609.435 1038.15 609.148L982.15 553.154C981.716 552.576 981.508 551.859 981.559 551.138C981.609 550.416 981.919 549.736 982.431 549.225C982.943 548.713 983.624 548.403 984.345 548.352C985.065 548.301 985.78 548.511 986.359 548.946L1042.43 604.938C1042.98 605.501 1043.29 606.255 1043.29 607.043C1043.29 607.831 1042.98 608.585 1042.43 609.148C1042.14 609.441 1041.81 609.666 1041.43 609.823C1041.06 609.975 1040.66 610.054 1040.25 610.048Z" fill="#CE9C5C"/>
<path d="M1047.84 581.79H976.661C975.868 581.79 975.102 581.475 974.539 580.912C973.971 580.344 973.656 579.578 973.656 578.785C973.656 577.985 973.971 577.22 974.539 576.657C975.102 576.094 975.868 575.779 976.661 575.779H1047.84C1048.64 575.779 1049.4 576.094 1049.97 576.657C1050.53 577.22 1050.84 577.985 1050.84 578.785C1050.84 579.578 1050.53 580.344 1049.97 580.912C1049.4 581.475 1048.64 581.79 1047.84 581.79Z" fill="#CE9C5C"/>
<path d="M884.818 753.455C881.588 790.887 863.246 825.082 853.999 861.163C837.768 923.246 852.423 988.783 837.391 1051.02C836.266 1055.75 843.554 1057.78 844.679 1053.04C859.413 992.616 846.188 929.329 859.864 868.829C868.435 831.999 886.771 797.877 891.656 760.147C891.96 757.89 892.185 755.712 892.331 753.455C892.41 748.722 884.891 748.57 884.818 753.455Z" fill="#ffffff"/>
<path d="M1008.16 682.807C992.617 685.17 976.729 682.925 962.456 676.34C939.382 665.444 922.925 644.098 901.353 630.422C872.116 611.782 836.266 608.546 801.766 605.844H801.541C800.112 605.765 799.662 598.55 799.887 595.697C800.112 592.838 800.337 589.534 798.834 586.974C797.332 584.418 795.677 583.518 793.797 582.167C785.079 576.151 776.289 570.067 766.214 566.831C760.952 565.103 755.465 564.276 750.355 562.324C737.427 557.288 728.259 545.863 718.039 536.619C707.813 527.374 696.242 518.43 683.765 521.436C682.555 521.736 681.288 521.736 680.084 521.436L677.754 520.835C671.963 519.783 665.648 524.067 664.523 529.929C664.072 532.485 664.449 535.266 663.172 537.596C661.894 539.926 660.538 540.226 658.962 541.354C654.15 544.586 649.715 548.72 647.312 553.981C644.903 559.242 645.584 564.805 647.988 569.465C648.342 570.118 648.826 570.697 649.406 571.159C649.986 571.626 650.655 571.969 651.37 572.172C652.524 572.515 653.525 573.247 654.201 574.249C654.871 575.25 655.174 576.455 655.051 577.654C654.454 583.743 659.339 590.356 663.999 595.168C680.455 612.378 698.42 630.343 721.72 635.155C727.359 636.28 733.218 636.657 738.407 639.06C743.59 641.469 746.826 644.925 751.255 647.407C755.516 649.624 760.271 650.699 765.066 650.525C769.861 650.356 774.533 648.943 778.619 646.427L781.545 644.475C782.361 643.985 783.25 643.63 784.179 643.422C804.248 640.265 825.291 647.03 841.072 659.884C856.859 672.733 867.98 692.048 873.394 712.117C877.378 726.851 878.729 742.711 886.923 755.638C900.374 776.98 928.711 784.048 953.817 782.09C969.373 780.812 984.929 776.681 998.233 768.487C1018.9 755.638 1032.21 732.412 1034.61 708.358C1034.99 704.835 1034.56 701.266 1033.35 697.929C1032.14 694.592 1030.18 691.581 1027.63 689.116C1025.08 686.651 1022 684.799 1018.62 683.707C1015.25 682.61 1011.67 682.306 1008.16 682.807Z" fill="#D13535"/>
<path d="M668.435 535.416C675.296 548.705 684.728 560.498 696.187 570.112C707.64 579.725 720.893 586.962 735.177 591.408C739.984 592.613 741.863 585.623 737.203 584.193C733.9 583.141 730.664 582.015 727.506 580.664C719.211 577.074 711.388 572.476 704.207 566.983C699.023 563.226 689.028 553.229 685.342 548.118C681.385 542.95 677.89 537.442 674.896 531.658C672.341 527.449 666.105 531.057 668.435 535.416Z" fill="white"/>
<path d="M922.847 748.271C928.649 752.56 935.245 755.661 942.246 757.388C949.253 759.116 956.53 759.443 963.661 758.34C965.613 758.114 966.818 755.486 966.289 753.758C965.979 752.835 965.343 752.059 964.499 751.569C963.655 751.085 962.659 750.928 961.708 751.125C957.487 751.665 953.215 751.637 949.005 751.051C940.901 749.915 933.219 746.729 926.679 741.805C922.396 739.328 918.716 745.564 922.847 748.271Z" fill="white"/>
<path d="M944.948 722.49C950.379 727.73 956.992 731.579 964.224 733.723C971.456 735.873 979.099 736.245 986.511 734.815C991.244 733.464 989.291 726.474 984.479 727.6L982.599 727.904C982.149 727.977 982.903 727.904 982.903 727.904C975.913 728.956 967.494 727.375 962.383 725.118C957.859 723.3 953.745 720.593 950.283 717.155C946.676 713.772 941.566 718.882 944.948 722.49Z" fill="white"/>
<path d="M968.771 701.142C974.365 704.266 980.55 706.19 986.927 706.798C993.309 707.406 999.742 706.686 1005.83 704.676C1009.51 703.022 1019.96 700.242 1017.1 694.754C1016.59 693.899 1015.75 693.274 1014.79 693.021C1013.81 692.768 1012.78 692.908 1011.92 693.404C1006.88 696.707 1002.44 698.216 996.129 699.189C994.705 699.414 988.767 699.718 985.61 699.116C986.207 699.414 986.06 699.189 985.756 699.116C984.107 698.908 982.475 698.581 980.871 698.137L976.436 696.634C975.761 696.336 976.363 696.634 976.515 696.634C973.656 695.43 969.672 692.199 967.42 696.032C967.167 696.454 966.998 696.927 966.931 697.411C966.858 697.9 966.886 698.396 967.015 698.874C967.139 699.352 967.358 699.797 967.662 700.185C967.966 700.579 968.343 700.9 968.771 701.142Z" fill="white"/>
<path d="M830.025 430.643C828.972 421.548 826.642 412.679 824.69 403.735C824.239 401.556 823.789 399.301 823.412 397.046L823.187 395.768C823.204 395.565 823.181 395.36 823.114 395.167C823.114 395.014 823.086 394.861 823.035 394.716C823.029 394.539 823.001 394.362 822.962 394.19C822.973 393.962 822.945 393.733 822.889 393.513C822.872 392.984 822.821 392.457 822.737 391.935C822.337 387.912 822.309 383.861 822.658 379.834C822.72 379.614 822.748 379.386 822.737 379.158C822.799 379.016 822.821 378.861 822.81 378.707C822.877 378.174 822.973 377.647 823.114 377.128C823.26 376.001 823.564 374.949 823.789 373.821C824.014 372.694 824.391 371.792 824.763 370.74C825.14 369.688 825.14 369.913 825.292 369.462L825.444 369.086L825.894 368.109C826.187 367.6 826.361 367.031 826.4 366.444C826.44 365.858 826.344 365.27 826.119 364.727C825.928 364.195 825.607 363.718 825.185 363.338C824.768 362.957 824.262 362.686 823.71 362.548C806.866 360.127 789.745 360.381 772.98 363.299C769.299 363.975 765.691 364.727 762.157 365.629C762.455 362.172 762.832 358.789 763.131 355.332C763.435 351.875 763.885 348.267 764.037 344.734C764.262 337.97 763.361 330.98 758.927 325.644C758.488 325.107 758.009 324.604 757.497 324.14C756.293 323.088 755.094 323.013 753.664 322.713L748.329 321.585C744.722 320.758 741.187 319.781 737.58 318.729C733.972 317.677 730.59 316.399 727.134 314.971L724.725 313.994H724.5L724.05 313.844L722.547 313.167L717.51 310.837C710.053 307.203 702.917 302.955 696.163 298.135C695.533 297.743 694.79 297.561 694.053 297.615C693.31 297.669 692.601 297.956 692.033 298.436C691.442 298.877 690.997 299.485 690.755 300.182C690.513 300.879 690.485 301.632 690.682 302.344C690.907 303.396 691.132 304.373 691.278 305.426C691.306 305.456 691.329 305.492 691.34 305.53C691.352 305.569 691.357 305.61 691.357 305.651V306.102C691.442 306.624 691.492 307.151 691.503 307.68C691.503 308.657 691.503 309.71 691.43 310.762C691.357 311.814 691.357 311.288 691.357 311.514V311.363C691.205 311.964 691.132 312.566 690.98 313.092L690.53 314.595L690.305 315.422C690.175 315.633 690.074 315.86 690.001 316.098H689.928C689.832 316.387 689.708 316.664 689.551 316.925L688.65 318.578C688.273 319.105 687.975 319.631 687.598 320.082C687.446 320.349 687.271 320.601 687.069 320.834L686.843 321.134C685.949 322.209 684.964 323.214 683.917 324.14L681.885 325.869L681.733 326.02L681.362 326.245L680.157 327.147C678.43 328.35 676.623 329.402 674.822 330.454C674.169 330.816 673.646 331.373 673.319 332.046C672.999 332.719 672.892 333.476 673.016 334.212C673.168 335.49 674.22 337.068 675.723 337.294C679.482 337.895 683.388 338.045 687.221 338.346L691.729 338.647L684.142 341.653C680.76 342.931 677.225 344.058 673.995 345.711C670.764 347.365 668.434 350.071 668.508 353.678C668.524 354.669 668.93 355.614 669.627 356.315C670.331 357.015 671.277 357.417 672.267 357.437L673.995 357.587H674.597L675.571 357.737L679.854 358.714C682.561 359.466 685.195 360.368 687.896 361.345C693.237 363.374 698.572 365.479 704.059 367.057C715.484 370.214 727.281 371.642 739.009 372.469C744.119 372.844 749.303 373.07 754.492 373.22C754.396 381.237 755.64 389.213 758.173 396.82C760.728 404.336 764.56 411.477 766.665 419.143C766.969 420.195 767.194 421.247 767.419 422.3L767.644 423.878H767.718C767.706 424.131 767.729 424.384 767.791 424.63C767.869 425.682 767.943 426.734 767.943 427.786C767.943 428.839 767.869 428.989 767.869 429.515C767.869 430.041 767.791 429.966 767.791 430.192C767.791 430.417 767.644 431.544 767.791 430.643C767.492 432.296 767.943 434.025 769.524 434.851C780.898 441.316 791.997 448.23 802.819 455.596C803.388 455.926 804.035 456.099 804.699 456.099C805.357 456.099 806.005 455.926 806.579 455.596C807.136 455.257 807.597 454.784 807.929 454.219C808.256 453.654 808.436 453.017 808.453 452.364C809.359 443.796 810.186 435.303 811.087 426.734C815.375 429.305 819.821 431.615 824.391 433.649C824.965 433.965 825.613 434.13 826.265 434.13C826.924 434.13 827.571 433.965 828.145 433.649C828.691 433.352 829.153 432.919 829.479 432.392C829.811 431.866 829.997 431.263 830.025 430.643ZM687.221 320.758C687.204 320.758 687.181 320.766 687.17 320.78C687.153 320.794 687.147 320.813 687.147 320.834C687.299 320.608 687.524 320.307 687.221 320.758ZM732.318 364.577L728.108 364.126L726.003 363.825H724.275C718.597 363.107 712.969 362.002 707.442 360.518C701.876 359.015 696.541 356.985 691.132 354.956C687.547 353.578 683.883 352.423 680.157 351.499L680.681 351.274L683.011 350.447L687.896 348.492L707.065 340.977C707.768 340.789 708.404 340.396 708.888 339.847C709.367 339.298 709.676 338.619 709.772 337.895C709.896 337.159 709.789 336.402 709.468 335.729C709.142 335.056 708.618 334.499 707.965 334.137C704.358 332.408 700.002 332.258 696.017 331.807L687.671 331.13C690.322 328.934 692.646 326.379 694.588 323.539C697.396 319.272 698.938 314.293 699.022 309.184C711.517 317.169 725.114 323.273 739.381 327.297C743.838 328.555 748.352 329.583 752.91 330.379L753.287 330.83L753.439 330.98C753.513 331.055 753.664 331.205 753.664 331.281L753.963 331.657C754.267 332.141 754.542 332.643 754.79 333.16L755.094 333.686C755.094 333.761 755.094 333.761 755.167 333.836V334.062C755.184 334.062 755.207 334.069 755.218 334.083C755.235 334.098 755.24 334.117 755.24 334.137C755.691 335.245 755.994 336.407 756.146 337.594C756.231 337.836 756.281 338.089 756.293 338.346C756.293 338.421 756.293 338.496 756.372 338.496C756.383 339.15 756.433 339.802 756.518 340.45C756.822 345.862 755.994 351.348 755.465 356.76L754.565 366.005L741.114 365.404L732.318 364.577ZM766.215 397.272C764.746 393.321 763.637 389.246 762.906 385.095C762.759 384.419 762.681 383.818 762.534 383.141V382.69C762.472 382.495 762.45 382.292 762.455 382.089C762.309 380.811 762.157 379.609 762.084 378.406C762.005 377.203 761.932 375.099 762.005 373.446C765.613 372.469 769.299 371.642 772.98 370.89L778.99 369.913L780.42 369.688H781.32L784.331 369.312C792.413 368.411 800.557 368.185 808.678 368.635L815.443 369.162L817.401 369.387C812.291 384.494 816.349 400.804 819.804 416.062L821.38 423.502C821.403 423.758 821.453 424.01 821.532 424.254C817.531 422.181 813.642 419.898 809.882 417.414C809.291 417.098 808.633 416.933 807.969 416.933C807.299 416.933 806.641 417.098 806.05 417.414C805.498 417.757 805.048 418.233 804.733 418.798C804.418 419.363 804.249 419.999 804.249 420.646C803.343 429.139 802.515 437.557 801.615 446.05C793.049 440.338 784.253 434.927 775.31 429.816C775.518 426.486 775.242 423.143 774.482 419.894C773.588 415.988 772.355 412.165 770.802 408.47C769.299 404.712 767.644 401.029 766.215 397.272Z" fill="#D13535"/>
<path d="M691.356 311.288C691.356 310.913 691.43 310.388 691.356 311.288V311.288Z" fill="#D13535"/>
<path d="M755.167 333.836C755.167 333.686 755.094 333.61 755.094 333.46C755.083 333.59 755.105 333.721 755.167 333.836Z" fill="#D13535"/>
<path d="M799.96 485.961C810.862 491.072 832.805 494.304 835.512 478.37C835.591 463.864 819.653 469.2 827.622 476.115H827.695L827.318 475.814C827.318 475.889 827.622 476.115 827.774 476.265C827.92 476.416 827.397 475.589 827.695 476.115C827.999 476.641 827.847 477.092 827.774 476.19C827.836 476.525 827.937 476.853 828.072 477.167C828.145 477.468 827.999 476.716 827.999 476.716C827.999 476.716 827.999 479.046 828.072 477.768C828.072 477.919 827.622 479.648 827.774 479.046C827.92 478.445 827.622 479.197 827.549 479.422C827.47 479.648 827.245 479.723 827.318 479.798C824.391 483.405 812.139 483.18 804.474 479.723C800.866 477.092 795.075 482.052 799.96 485.961Z" fill="#ffffff"/>
<path d="M811.013 500.316C806.247 500.61 801.48 499.866 797.034 498.137C794.833 497.227 792.762 496.04 790.865 494.605C786.734 492.049 782.902 498.513 787.111 501.068C791.321 505.052 813.49 512.943 814.767 504.075C814.694 502.121 813.113 500.166 811.013 500.316Z" fill="#ffffff"/>
<path d="M743.443 302.119C746.899 298.736 741.564 293.324 738.102 296.857C687.67 350.747 621.007 465.592 691.807 507.832C690.681 511.214 688.722 515.423 693.011 516.851C695.864 517.603 697.817 514.822 698.797 511.515C709.242 516.475 722.17 520.083 737.877 522.112C742.689 522.188 742.762 514.672 737.877 514.596C729.688 513.695 714.729 510.012 706.912 506.479C623.635 469.35 692.032 368.936 728.411 320.007C733.144 313.919 738.102 307.831 743.443 302.119Z" fill="#ffffff"/>
<path d="M809.961 523.165C806.95 529.027 777.865 570.213 785.834 572.172C787.562 573.072 790.044 572.695 791.017 570.815C796.955 559.016 803.494 547.517 810.484 536.243L816.422 526.923C818.977 522.789 812.437 518.956 809.961 523.165Z" fill="#ffffff"/>
<path d="M737.354 376.378C721.421 375.701 691.655 367.959 695.64 394.19C696.354 396.548 697.615 398.706 699.309 400.493C701.003 402.28 703.091 403.648 705.41 404.487C711.572 405.464 710.897 397.873 707.588 397.347C706.822 397.04 706.113 396.608 705.483 396.069C706.31 396.821 704.886 395.543 704.661 395.243C704.436 394.942 703.682 394.341 704.357 395.017C702.63 392.386 702.556 391.936 702.556 389.079C702.63 388.629 702.556 388.704 702.556 389.305C702.556 389.906 703.53 386.148 703.007 387.351C703.98 385.246 704.205 385.171 705.787 383.668C705.787 383.743 705.033 384.194 705.714 383.743L706.389 383.367L707.29 382.841C707.892 382.465 707.216 382.916 707.138 382.841C708.01 382.507 708.916 382.28 709.845 382.165C719.013 382.24 728.186 383.367 737.354 383.893C742.239 383.969 742.239 376.378 737.354 376.378Z" fill="#ffffff"/>
<path d="M733.144 437.181L731.866 437.707H732.165C730.437 438.381 728.653 438.91 726.829 439.286L725.102 439.587C724.651 439.661 725.4 439.587 725.4 439.587C720.177 440.231 714.876 439.533 709.996 437.557C707.756 436.58 705.634 435.344 703.682 433.874C698.87 427.711 692.482 431.92 696.089 437.106C706.535 447.554 723.672 450.334 736.903 443.72C741.113 441.316 737.354 434.776 733.144 437.257V437.181Z" fill="#ffffff"/>
<path d="M773.582 394.867C767.492 402.083 778.99 411.477 784.854 404.037C790.719 396.596 779.367 387.502 773.582 394.867Z" fill="#ffffff"/>
<path d="M725.778 349.77C719.689 356.985 731.192 366.305 736.978 358.94C742.764 351.574 731.57 342.329 725.778 349.77Z" fill="#ffffff"/>
<path d="M804.023 404.788C804.451 404.338 804.755 403.776 804.885 403.165C805.02 402.555 804.98 401.92 804.772 401.331C802.29 393.814 790.117 366.682 779.896 374.724C769.67 382.766 785.682 392.687 791.096 398.55C793.572 400.053 796.206 403.961 799.06 405.389C799.47 405.786 799.988 406.054 800.551 406.161C801.108 406.268 801.688 406.209 802.217 405.99C802.701 405.799 803.151 405.546 803.568 405.239L803.872 405.013C803.872 404.938 803.945 404.863 804.023 404.788Z" fill="#ffffff"/>
<path d="M729.836 328.124C729.115 327.779 728.305 327.658 727.517 327.779C726.723 327.9 725.992 328.255 725.401 328.801C725.058 329.161 724.799 329.599 724.652 330.078C724.579 330.229 724.5 330.304 724.5 330.454C724.315 331.153 724.326 331.891 724.54 332.582C724.754 333.274 725.153 333.891 725.705 334.362C729.087 340.15 738.407 347.967 740.658 350.823C744.12 354.355 749.753 358.715 754.34 354.506C756.67 352.025 758.55 347.441 755.916 344.509C753.287 341.578 738.255 329.477 729.836 328.124Z" fill="#ffffff"/>
<path d="M725.929 311.288C745.847 316.475 760.052 273.558 768.922 289.492C769.861 291.158 770.227 293.084 769.974 294.979C759.45 374.122 879.033 339.248 846.334 385.772L845.732 386.674C834.988 406.441 843.481 412.604 849.57 418.768C850.505 419.697 851.225 420.823 851.675 422.064C852.125 423.306 852.3 424.631 852.176 425.947C852.052 427.261 851.641 428.533 850.972 429.67C850.296 430.807 849.385 431.781 848.287 432.522C814.018 456.047 856.56 461.459 849.492 482.579C839.648 508.81 795.379 487.464 811.159 524.142C811.717 525.487 812.595 526.674 813.715 527.6C843.104 551.576 890.002 536.844 911.275 507.758C911.951 506.817 912.818 506.024 913.808 505.43C914.804 504.835 915.913 504.451 917.061 504.3C952.838 498.738 982.453 449.057 974.635 420.046C962.907 376.903 1014.7 280.247 895.416 253.942C883.091 251.16 857.759 215.685 825.668 214.257C815.504 213.17 805.228 214.234 795.502 217.381C785.777 220.528 776.823 225.686 769.22 232.521C768.336 233.309 767.301 233.909 766.175 234.284C765.055 234.659 763.862 234.8 762.68 234.7C752.235 234.024 740.585 239.886 733.595 247.177L732.767 248.154C730.494 251.469 729.604 255.542 730.291 259.503C730.595 261.253 730.376 263.055 729.672 264.684C728.963 266.314 727.792 267.7 726.306 268.673C711.651 279.045 703.305 310.988 724.123 311.063C724.736 311.064 725.338 311.14 725.929 311.288Z" fill="#ffffff"/>
<path d="M735.548 286.936C735.548 286.71 735.475 286.485 735.475 286.26L735.627 287.312C735.475 286.467 735.475 285.602 735.627 284.756L735.475 285.733C735.621 284.781 735.874 283.848 736.229 282.953L735.852 283.854C736.24 282.981 736.719 282.15 737.281 281.374L736.679 282.126L738.48 280.322L737.732 280.923C738.413 280.426 739.144 279.998 739.91 279.646L739.082 280.022C747.198 275.662 736.978 266.643 729.836 279.119C722.699 291.596 735.475 296.181 735.548 286.936Z" fill="white"/>
<path d="M802.668 237.481C804.519 236.23 806.483 235.148 808.532 234.249L808.082 234.399C813.715 231.844 821.611 231.468 825.815 232.069C829.125 232.529 832.355 233.414 835.439 234.7C835.816 234.85 835.738 234.775 835.214 234.549C838.028 235.763 840.679 237.329 843.105 239.209L842.806 238.834C844.607 240.562 846.785 242.366 848.294 244.471C847.99 244.02 847.917 244.02 848.215 244.321C849.34 246.124 851.597 247.327 853.629 246.049C855.655 244.771 856.184 242.592 854.98 240.938C845.136 227.485 827.324 221.622 811.239 225.531C806.725 227.109 795.002 229.589 797.557 236.128C798.61 237.781 800.94 238.683 802.668 237.481Z" fill="white"/>
<path d="M927.36 293.776C929.392 294.183 931.379 294.787 933.298 295.58C933.523 295.655 933.9 295.73 933.146 295.504C935.802 296.608 938.301 298.048 940.586 299.789C940.811 300.014 940.659 299.939 940.288 299.639C942.68 301.537 944.869 303.678 946.827 306.027C948.628 308.131 951.184 313.092 951.561 314.069C952.821 316.997 953.682 320.081 954.116 323.239C953.891 322.187 954.116 323.164 954.116 323.389C954.414 325.911 954.414 328.459 954.116 330.98C954.043 331.431 954.189 331.131 954.116 330.755C953.587 332.934 953.964 335.791 956.598 336.392C959.226 336.993 960.807 335.865 961.179 333.761C964.038 317.376 955.843 300.465 941.937 291.672C937.654 289.567 927.732 282.803 924.726 289.191C924.349 291.07 925.329 293.4 927.36 293.776Z" fill="white"/>
<path d="M781.85 306.704C770.048 320.759 787.562 334.438 801.615 335.114C806.275 336.392 808.307 329.101 803.568 327.824C798.835 326.546 791.772 325.118 789.442 323.089C788.665 322.491 787.962 321.81 787.337 321.06C788.311 322.187 786.059 319.331 786.285 318.955C786.735 320.233 785.609 317.001 785.609 316.475C785.756 318.053 785.609 315.197 785.682 314.821C785.756 314.445 785.457 315.573 785.682 314.896C785.907 314.22 786.436 312.416 785.907 313.769C785.981 313.543 787.258 311.514 786.51 312.717C790.866 309.485 786.059 303.021 781.85 306.704Z" fill="white"/>
<path d="M877.227 270.401C878.657 272.205 879.484 274.836 881.814 275.587C882.371 275.723 882.957 275.73 883.519 275.609C884.082 275.488 884.611 275.241 885.067 274.887C885.523 274.533 885.894 274.081 886.148 273.565C886.406 273.048 886.542 272.481 886.547 271.905C886.024 269.273 883.992 266.042 881.51 264.915C879.034 263.787 875.499 267.695 877.227 270.401Z" fill="white"/>
<path d="M858.885 382.315C848.591 389.079 846.638 405.239 855.429 414.107C861.445 418.091 863.545 410.049 859.937 407.944C859.487 407.117 858.738 405.915 858.288 405.013C858.513 405.539 858.513 405.614 858.361 405.239C857.911 404.078 857.607 402.866 857.461 401.63C857.196 398.972 857.585 396.29 858.586 393.814C857.984 395.167 858.964 393.062 859.116 392.837C859.262 392.612 860.916 390.056 860.089 391.334C860.686 390.537 861.367 389.806 862.121 389.154C862.492 388.929 862.419 388.929 861.969 389.305C866.927 387.125 863.849 379.759 858.885 382.315Z" fill="white"/>
<path d="M953.593 419.444C956.294 422 959.075 428.99 959.227 431.996C959.514 434.139 959.542 436.31 959.3 438.46C959.227 439.211 959.3 438.31 959.3 438.31C958.996 440.365 958.467 442.381 957.724 444.322C957.499 444.848 957.651 444.172 957.724 444.172C956.975 445.919 956.041 447.582 954.944 449.132L954.645 449.583C953.312 451.251 951.803 452.764 950.132 454.093C949.755 454.394 950.211 454.243 950.284 454.018C948.624 455.28 946.834 456.363 944.948 457.25C939.686 458.151 940.812 465.968 946.147 464.765C953.554 462.034 959.705 456.687 963.436 449.734C969.526 438.384 967.494 423.653 958.85 414.108C955.467 410.65 950.132 415.911 953.593 419.444Z" fill="white"/>
<path d="M840.324 528.952C855.429 534.213 876.101 533.161 884.515 517.528C886.924 513.394 880.457 509.561 878.054 513.77C877.53 514.705 876.956 515.609 876.326 516.476C875.195 518.205 870.535 521.662 868.582 522.263C863.551 524.593 856.859 524.518 852.351 523.992C848.957 523.51 845.609 522.73 842.35 521.662C837.69 520.309 835.664 527.599 840.324 528.952Z" fill="white"/>
<path d="M913.983 483.857C908.119 479.948 897.898 487.464 902.333 493.778C904.809 496.333 909.092 494.078 908.794 490.621L908.642 491.673C908.676 491.338 908.749 491.01 908.867 490.696L908.496 491.598C908.648 491.223 908.85 490.87 909.092 490.545L908.496 491.297C908.76 490.94 909.092 490.634 909.469 490.395L908.721 490.921C909.104 490.624 909.537 490.395 909.998 490.245L909.092 490.621C909.492 490.417 909.925 490.29 910.375 490.245L909.396 490.395C909.79 490.32 910.201 490.32 910.601 490.395L909.548 490.245L910.601 490.545L909.695 490.169C913.904 493.176 918.491 486.562 913.983 483.857Z" fill="white"/>
<path d="M906.992 368.636C907.797 368.747 908.579 368.975 909.322 369.312L908.416 368.861C909.26 369.264 910.065 369.742 910.825 370.289L910.071 369.688C910.78 370.308 911.433 370.987 912.023 371.718L911.421 370.966C911.962 371.662 912.417 372.418 912.778 373.22L912.401 372.319C912.738 373.136 912.969 373.996 913.076 374.874L912.93 373.897C912.474 379.083 920.516 379.609 920.516 374.423C920.218 367.659 913.228 359.692 906.086 361.796C903.306 363.299 903.908 367.959 906.992 368.636Z" fill="white"/>
<path d="M802.594 601.933L802.442 602.158C802.667 601.933 802.667 601.933 802.594 601.933Z" fill="#ffffff"/>
<path d="M1001.84 671.534C925.555 672.508 927.434 593.739 803.118 593.964C810.412 566.083 769.823 556.236 750.806 550.223C727.281 540.302 712.102 503.699 681.509 509.636C670.163 505.127 659.261 516.025 660.392 525.646C660.274 526.423 659.993 527.166 659.565 527.825C651.669 533.613 642.653 540.377 642.203 551.125C608.452 523.466 563.811 513.92 528.484 488.516C521.043 483.18 508.567 493.552 505.786 497.235C471.438 476.341 436.714 446.727 421.005 408.997C418.374 404.939 416.571 390.959 410.708 392.387C408.904 392.988 407.251 395.092 408.077 397.047C425.364 448.907 468.807 486.487 516.007 511.516C509.844 520.91 502.479 529.028 493.835 534.064C489.626 536.469 493.385 543.083 497.593 540.603C513.302 531.207 524.726 515.349 529.837 497.987C565.612 523.391 612.437 533.162 644.679 562.624C646.069 565.222 648.371 567.203 651.146 568.188C650.318 582.618 667.005 595.016 677.226 605.389C687.446 615.761 700.374 624.406 714.579 628.914C721.422 631.17 728.71 631.244 735.475 633.652C751.858 643.946 764.488 653.119 783.279 639.14C821.612 632.071 856.032 661.837 867.232 696.708C874.149 716.4 874.07 739.25 888.427 755.712C911.423 780.891 950.886 782.017 981.474 772.095C1024.84 765.555 1073.77 666.047 1001.84 671.534ZM650.994 567.884L651.146 568.036C651.073 568.109 651.073 567.963 650.994 567.884ZM651.146 568.261H651.219C651.523 568.79 651.298 568.413 651.146 568.261ZM760.953 638.385C757.149 637.89 753.53 636.444 750.435 634.176C733.522 619.971 712.102 626.285 692.185 608.321C679.933 597.2 663.246 585.246 658.738 571.345C659.565 564.203 655.13 560.745 651.748 559.994C646.413 552.102 651.821 542.481 658.89 537.671C673.393 530.682 662.644 519.407 674.896 516.176C674.896 516.25 674.896 516.25 674.823 516.25C708.27 514.071 713.003 532.11 737.051 550.824C746.146 558.566 759.529 559.844 769.671 563.826C777.19 566.91 787.185 573.821 793.275 578.183C801.463 582.916 790.72 611.63 787.337 618.316C787.185 618.316 781.023 641.768 760.953 638.385ZM1030.56 702.347C1024.39 766.084 935.026 793.667 892.558 748.947C881.735 734.894 881.212 716.704 876.248 700.316C866.106 662.287 831.753 628.317 790.568 630.72C795.605 621.473 796.73 611.18 802.443 602.158L803.045 601.483C939.686 604.792 912.104 684.383 1019.36 679.802C1028.15 683.933 1032.28 692.504 1030.56 702.347Z" fill="#ffffff"/>
<path d="M468.731 599.08C470.009 603.661 477.299 601.708 475.946 597.048C469.407 580.665 474.217 559.693 482.335 544.06C483.387 542.782 484.966 540.979 486.694 540.227L487.596 540.001C488.945 539.851 490.306 539.851 491.655 540.001C490.377 540.001 491.655 540.001 492.031 540.076L493.834 540.603L494.06 540.753L493.91 540.603L495.713 541.655C495.638 541.655 496.766 542.481 497.141 542.933C497.185 542.971 497.212 543.025 497.217 543.083H497.292C497.335 543.121 497.362 543.175 497.367 543.233C497.84 543.97 498.243 544.75 498.57 545.563C499.053 546.743 499.382 547.982 499.547 549.246C499.856 551.419 499.805 553.628 499.396 555.785C497.603 556.381 495.887 557.188 494.286 558.19C485.492 565.779 487.897 582.314 492.256 593.367C494.511 601.331 502.929 599.98 500.674 593.215C495.263 584.498 494.135 568.711 498.87 564.051L500.298 563.301C502.854 562.399 503.004 562.55 506.161 562.7H506.537C507.356 562.855 508.161 563.081 508.941 563.376C518.713 569.989 522.921 598.854 527.281 611.928C527.545 612.885 528.174 613.695 529.032 614.185C529.891 614.68 530.909 614.815 531.865 614.562C538.254 612.232 530.738 599.901 530.438 594.87C526.98 581.34 521.494 557.138 507.213 554.883C509.468 539.25 493.759 524.518 479.178 536.319C466.852 550.373 461.666 581.717 468.731 599.08ZM509.017 563.451H509.092C509.618 563.677 509.317 563.601 509.017 563.451ZM499.547 549.246C499.574 549.277 499.595 549.312 499.607 549.351C499.62 549.39 499.625 549.431 499.622 549.471C499.622 549.772 499.622 550.073 499.547 549.246Z" fill="#ffffff"/>
<path d="M459.487 603.283C461.441 602.085 461.666 600.132 460.84 598.173C457.983 592.089 456.705 580.586 457.758 574.8C458.483 570.219 459.718 565.728 461.441 561.421C463.846 555.183 469.858 546.765 472.038 545.037C477.224 540.978 470.46 532.034 462.493 544.51C454.451 555.259 449.641 568.638 449.941 582.088C450.392 587.052 451.745 606.97 459.487 603.283Z" fill="#ffffff"/>
<path d="M848.665 804.263C845.057 803.059 843.402 808.175 843.104 809.222C840.881 814.264 838.084 819.031 834.764 823.432C823.412 838.313 803.72 852.439 788.991 864.168C764.335 882.807 737.203 905.432 707.442 908.888C698.189 910.126 688.825 910.204 679.555 909.113C700.002 887.918 692.184 795.473 677.676 770.214C674.068 763.224 668.659 756.313 660.915 753.831C689.173 737.521 712.175 713.242 737.957 693.325C743.894 688.817 752.91 681.906 761.031 678.444C763.446 677.437 765.967 676.705 768.545 676.266C768.545 676.193 768.618 676.193 768.697 676.193H768.77C770.841 675.929 772.94 675.929 775.011 676.193C778.765 676.869 780.645 677.471 783.504 679.576C784.179 680.251 787.41 683.932 790.342 681C791.034 680.285 791.423 679.328 791.423 678.332C791.423 677.336 791.034 676.379 790.342 675.664C781.776 666.873 767.796 666.946 757.199 671.905C728.558 686.791 705.033 713.096 680.309 731.584C669.031 740.302 657.083 748.344 644.003 754.129L643.553 754.433C641.763 755.463 640.323 757.005 639.422 758.868C638.921 759.983 638.871 761.243 639.27 762.397C638.049 762.065 636.901 761.508 635.888 760.748C608.935 731.927 584.285 701.041 562.156 668.376C562.754 665.652 563.585 662.99 564.638 660.407C566.152 657.064 568.014 653.89 570.198 650.935C570.198 650.918 570.204 650.895 570.209 650.879C570.215 650.862 570.226 650.845 570.243 650.828C570.254 650.817 570.271 650.805 570.288 650.8C570.311 650.789 570.328 650.789 570.35 650.789V650.637C573.541 646.753 577.143 643.225 581.094 640.112C588.388 636.505 585.529 629.515 579.895 631.772C570.721 638.311 562.531 646.354 558.021 656.872C557.721 657.852 557.195 658.977 556.669 660.255C551.859 652.59 546.297 642.594 544.042 637.034C543.026 634.721 542.196 632.334 541.561 629.892C540.284 625.305 532.993 627.185 534.271 631.924C542.839 657.475 560.277 678.973 575.758 700.54C593.346 723.243 610.933 746.087 631.076 766.534C631.639 766.995 632.241 767.395 632.882 767.738C633.04 768.042 633.243 768.318 633.485 768.565C637.841 773.225 642.276 777.654 646.333 782.545C646.682 782.894 647.099 783.175 647.56 783.367C648.016 783.558 648.506 783.654 649.001 783.654C649.502 783.654 649.991 783.558 650.447 783.367C650.909 783.175 651.32 782.894 651.669 782.545C654.302 779.461 650.318 774.874 646.035 770.664C650.262 770.445 654.46 769.865 658.585 768.937C660.763 768.261 664.225 767.963 666.178 766.46C675.948 777.204 679.628 799.603 681.812 813.358C684.891 836.658 685.566 872.058 680.084 892.127H679.932C668.901 894.339 657.584 894.795 646.412 893.478C634.61 892.201 619.578 888.368 610.106 884.31C597.629 878.975 585.979 871.608 575.235 863.34C505.936 806.667 451.971 709.713 437.239 621.776C435.661 609.676 434.984 597.345 436.563 585.172C436.713 582.465 439.419 571.569 440.922 568.485C442.411 564.979 444.331 561.673 446.634 558.64C448.438 556.235 453.023 551.8 456.781 549.922C460.539 548.043 457.157 541.053 452.948 543.458C437.991 553.454 430.926 568.71 428.596 586.072C423.184 582.392 417.397 578.255 413.263 575.025C387.107 554.807 364.635 530.38 344.566 504.299C337.201 494.904 327.881 481.977 320.29 471.078C317.81 466.87 311.271 470.703 313.826 474.837C345.243 520.308 381.019 564.275 427.844 594.644C426.416 627.038 438.968 664.768 447.611 689.796C463.32 728.353 482.861 768.036 508.04 803.138C505.785 839.061 502.779 874.917 498.645 910.689C495.639 944.811 494.511 979.31 499.246 1013.36C500.449 1017.95 507.739 1016.07 506.537 1011.33C497.593 945.565 511.648 878.671 515.03 812.531C539.683 844.774 569.444 872.356 605.671 890.473C620.703 896.635 636.867 900.693 653.177 901.594C652.575 902.5 652.496 903.777 653.25 905.28C654.134 906.845 655.344 908.201 656.796 909.265C658.248 910.328 659.908 911.071 661.67 911.443C661.889 911.887 662.21 912.281 662.598 912.591C662.986 912.9 663.437 913.125 663.921 913.244C708.866 927.601 749.68 905.28 783.729 877.472C807.029 858.455 835.214 842.067 848.969 814.259C850.471 811.18 853.55 805.839 848.665 804.263Z" fill="#ffffff"/>
<path d="M502.328 696.786C518.682 696.786 531.941 683.527 531.941 667.172C531.941 650.817 518.682 637.558 502.328 637.558C485.973 637.558 472.715 650.817 472.715 667.172C472.715 683.527 485.973 696.786 502.328 696.786Z" fill="#EFDCC4"/>
<path d="M552.234 662.062C551.708 660.255 549.603 658.752 547.649 659.428C545.695 660.109 540.508 661.983 535.924 663.941C535.292 657.092 532.563 650.609 528.107 645.375C534.797 643.197 543.665 640.563 542.237 636.28C541.711 634.552 539.607 632.824 537.652 633.652L522.094 639.735C517.824 636.663 512.892 634.625 507.694 633.792C502.496 632.965 497.176 633.359 492.158 634.952C487.141 636.544 482.565 639.285 478.797 642.966C475.03 646.641 472.174 651.149 470.459 656.124C462.116 657.025 448.663 665.219 444.98 667.847C441.297 670.481 444.604 676.869 448.813 674.387C454.751 670.177 460.388 666.795 466.701 664.994C467.344 664.696 468.028 664.493 468.73 664.392C468.656 665.292 468.58 666.193 468.58 667.172C468.577 673.965 470.649 680.6 474.518 686.189L454.676 695.959C450.466 698.362 454.225 704.902 458.509 702.499C465.499 698.891 472.564 695.509 479.554 692.048C484.027 696.15 489.523 698.964 495.463 700.202C501.402 701.441 507.566 701.058 513.305 699.088C519.044 697.118 524.146 693.64 528.073 689.014C532.001 684.388 534.609 678.788 535.623 672.811C538.028 671.534 540.283 669.879 541.26 669.879C544.792 667.622 553.211 667.847 552.234 662.062ZM502.327 692.65C497.266 692.667 492.316 691.175 488.102 688.378C483.888 685.575 480.601 681.585 478.657 676.908C476.714 672.237 476.202 667.093 477.185 662.129C478.168 657.165 480.604 652.607 484.183 649.027C487.761 645.448 492.321 643.011 497.285 642.032C502.249 641.047 507.393 641.559 512.066 643.501C516.739 645.448 520.729 648.735 523.531 652.944C526.333 657.16 527.821 662.112 527.807 667.172C527.83 668.129 527.779 669.08 527.656 670.025C527.564 670.369 527.513 670.723 527.506 671.078C526.559 677.083 523.504 682.548 518.89 686.504C514.275 690.455 508.403 692.638 502.327 692.65Z" fill="#ffffff"/>
<path d="M511.422 658.004C508.132 658.004 504.906 658.91 502.102 660.633C499.998 655.072 496.916 648.381 492.181 650.412C490.602 651.465 489.701 653.795 490.828 655.522C492.692 658.303 494.302 661.246 495.638 664.319C497.141 671.157 501.351 672.356 504.808 667.848C505.502 667.195 506.319 666.683 507.213 666.345H507.288C508.128 665.979 509.012 665.732 509.919 665.597C510.445 665.518 510.219 665.597 509.993 665.597C515.631 666.418 517.435 658.68 511.422 658.004Z" fill="#D13535"/>
<path d="M350.655 422.977C353.891 422.801 357.137 422.927 360.35 423.353C363.657 423.653 372 426.133 376.585 430.117C375.458 429.29 376.134 429.741 376.435 429.967C378.803 431.871 380.946 434.04 382.823 436.43C382.973 436.656 383.425 437.332 382.598 436.205C399.734 460.256 398.456 493.326 408.077 521.963C412.812 538.347 424.763 554.733 443.252 555.409C446.334 555.71 451.444 556.086 451.444 551.726C451.144 545.563 442.05 549.546 434.984 545.939C402.139 529.93 413.94 462.661 388.235 431.319C379.591 419.744 364.785 414.559 350.655 415.46C345.844 415.536 345.769 422.977 350.655 422.977Z" fill="#D13535"/>
<path d="M525.552 566.983C526.905 555.409 519.089 543.759 506.912 543.533C504.282 543.083 500.674 543.984 500.749 547.216C500.825 550.448 504.658 551.124 507.589 551.124C508.341 551.2 506.386 550.899 507.213 551.05C508.606 551.265 509.968 551.643 511.272 552.177C512.884 552.88 514.302 553.963 515.406 555.334C514.955 554.582 516.007 556.01 515.406 555.334C515.98 556.073 516.459 556.881 516.834 557.738C517.059 558.19 516.683 557.964 516.683 557.438C517.242 558.765 517.645 560.152 517.886 561.572C517.886 561.873 517.886 562.398 517.811 561.346C518.073 563.213 518.149 565.103 518.036 566.983C517.961 571.868 525.477 571.868 525.552 566.983Z" fill="#D13535"/>
<path d="M374.706 769.691L372.301 769.466C372.076 769.466 370.873 769.314 371.775 769.466C368.693 769.162 362.906 767.288 361.403 766.607C357.318 764.812 353.458 762.544 349.903 759.842C339.08 751.429 327.806 735.569 326.077 720.762C325.3 714.52 325.351 708.2 326.228 701.97C334.195 643.574 388.084 602.608 440.847 578.858C452.121 573.821 475.195 566.758 483.689 570.213C487.897 572.695 491.806 566.083 487.522 563.753C483.237 561.421 476.773 561.572 471.287 562.248C422.583 571.418 377.111 602.383 345.544 639.967C321.568 669.879 305.333 717.379 331.113 750.826C339.38 762.099 350.73 771.796 364.484 775.556C367.828 776.445 371.252 776.997 374.706 777.205C379.591 777.205 379.591 769.765 374.706 769.691Z" fill="#D13535"/>
</svg>
