<svg width="1126" height="1126" viewBox="0 0 1126 1126" fill="none" xmlns="http://www.w3.org/2000/svg">
<path d="M443.981 513.586C431.895 513.755 430.205 500.994 428.768 491.782L421.838 500.487C411.612 513.333 391.498 499.219 399.949 485.359C381.102 488.317 374.003 458.906 403.837 457.385C394.455 452.736 383.807 446.06 390.145 434.144C397.836 422.227 408.907 428.988 417.95 434.735C415.415 424.424 412.88 411.409 426.486 408.367C440.093 405.325 442.713 419.438 444.15 429.918L451.164 421.213C462.151 407.606 482.772 424.255 471.955 437.862L465.785 445.637C489.787 437.101 497.563 463.808 479.138 470.231C492.407 479.95 478.885 500.741 464.517 492.458L455.052 486.965C458.094 498.459 459.785 512.319 443.981 513.586ZM430.712 480.626C437.388 480.711 434.431 503.191 440.262 505.726C446.094 508.262 451.756 504.628 450.488 499.05C450.657 496.43 444.826 479.105 448.375 477.668C448.902 477.296 449.524 477.083 450.168 477.053C450.812 477.023 451.45 477.178 452.009 477.499L467.898 486.627C468.647 487.067 469.475 487.356 470.335 487.475C471.196 487.595 472.071 487.543 472.912 487.324C473.752 487.104 474.54 486.72 475.232 486.194C475.924 485.668 476.504 485.011 476.941 484.26C480.828 477.837 472.631 473.865 468.151 471.499C465.447 470.062 466.208 465.752 469.166 465.244C474.321 464.4 484.04 463.639 482.435 456.033C479.645 443.356 459.447 458.315 454.545 452.314C454.211 451.725 454.057 451.05 454.102 450.374C454.147 449.698 454.389 449.051 454.798 448.511L466.715 433.637C472.124 427.045 461.729 418.593 456.404 425.354L444.826 439.806C444.422 440.297 443.888 440.664 443.285 440.865C442.682 441.067 442.035 441.094 441.417 440.943C440.799 440.794 440.237 440.472 439.793 440.017C439.35 439.562 439.044 438.991 438.91 438.369C436.797 432.791 437.98 412.677 427.754 414.959C417.528 417.241 425.81 434.735 425.895 440.651C426.01 441.283 425.942 441.934 425.7 442.529C425.459 443.124 425.052 443.638 424.529 444.01C424.006 444.382 423.388 444.598 422.747 444.632C422.106 444.666 421.468 444.516 420.909 444.201L405.02 435.073C397.667 430.679 390.906 442.341 398.428 446.482L415.077 456.117C415.663 456.465 416.129 456.983 416.416 457.601C416.703 458.22 416.796 458.91 416.682 459.582C416.542 460.255 416.213 460.875 415.735 461.368C415.256 461.862 414.647 462.21 413.978 462.371L395.808 465.836C387.441 467.273 389.892 480.542 398.259 478.767L407.471 477.077C408.141 476.968 408.827 477.064 409.443 477.351C410.057 477.638 410.571 478.104 410.918 478.687C411.264 479.271 411.427 479.945 411.385 480.623C411.343 481.3 411.098 481.949 410.682 482.485L406.203 488.063C400.794 494.655 411.274 503.107 416.598 496.346C418.289 494.993 428.092 479.865 430.712 480.626Z" fill="#D13535"/>
<path d="M536.354 175.532C524.184 175.701 522.578 162.855 521.142 153.727L514.127 162.432C503.985 175.194 483.871 161.164 492.322 147.22C473.476 150.178 466.377 120.766 496.21 119.33C486.829 114.597 476.18 108.005 482.519 96.004C490.125 84.0878 501.197 90.8487 510.24 96.5955C507.704 86.285 505.169 73.3542 518.776 70.2273C532.382 67.1004 535.087 81.2986 536.523 91.7785C540.58 87.2148 545.397 78.3406 552.412 78.1717C563.822 76.4816 571.847 91.0176 564.328 99.7229L558.159 107.498C567.373 104.624 579.034 105.131 581.314 116.625C581.961 119.967 581.302 123.429 579.485 126.303C577.661 129.178 574.808 131.249 571.51 132.092C584.78 141.895 571.172 162.685 556.891 154.403L547.425 148.91C550.383 160.319 552.074 174.264 536.354 175.532ZM523.086 142.487C529.762 142.571 526.804 165.052 532.636 167.587C538.467 170.123 544.13 166.489 542.862 160.911C543.031 158.291 537.199 141.05 540.749 139.528C541.276 139.157 541.898 138.944 542.541 138.914C543.185 138.884 543.824 139.038 544.383 139.36L560.272 148.572C561.804 149.41 563.602 149.623 565.285 149.166C566.974 148.709 568.414 147.618 569.315 146.121C573.119 139.698 565.004 135.726 560.441 133.359C557.821 131.922 558.497 127.612 561.539 127.19C566.608 126.26 576.327 125.5 574.723 117.893C572.016 105.216 551.82 120.259 546.918 114.259C546.566 113.66 546.402 112.969 546.447 112.276C546.492 111.583 546.745 110.919 547.172 110.372L559.088 95.5813C564.497 88.9893 554.017 80.5383 548.778 87.2992L537.199 101.751C536.79 102.243 536.249 102.608 535.64 102.804C535.032 103.001 534.38 103.02 533.761 102.861C533.141 102.702 532.579 102.37 532.141 101.904C531.703 101.438 531.405 100.858 531.283 100.23C529.086 94.6521 530.269 74.6222 520.043 76.8193C518.323 77.1671 516.809 78.1774 515.829 79.6327C514.848 81.0876 514.48 82.87 514.803 84.5949L518.269 102.596C518.383 103.228 518.316 103.879 518.074 104.474C517.832 105.069 517.426 105.583 516.903 105.955C516.38 106.327 515.761 106.543 515.12 106.577C514.479 106.61 513.842 106.461 513.282 106.146L497.393 96.9337C490.041 92.5388 483.279 104.202 490.801 108.428L507.366 117.978C507.959 118.323 508.436 118.837 508.738 119.453C509.039 120.07 509.15 120.763 509.056 121.443C508.947 122.129 508.628 122.766 508.145 123.264C507.661 123.763 507.035 124.101 506.352 124.232L488.181 127.697C479.73 129.134 482.181 142.402 490.632 140.712L499.76 138.937C500.436 138.807 501.136 138.887 501.767 139.165C502.397 139.445 502.926 139.909 503.285 140.498C503.643 141.086 503.814 141.77 503.773 142.458C503.731 143.146 503.482 143.804 503.056 144.346L498.577 149.924C493.168 156.516 503.648 164.967 508.887 158.206C510.662 156.854 520.466 141.726 523.086 142.487Z" fill="#D13535"/>
<path d="M174.72 333.234C173.824 333.234 172.964 332.878 172.33 332.244C171.696 331.61 171.34 330.75 171.34 329.854V249.819C171.34 248.922 171.696 248.063 172.33 247.429C172.964 246.795 173.824 246.439 174.72 246.439C175.617 246.439 176.477 246.795 177.111 247.429C177.745 248.063 178.101 248.922 178.101 249.819V329.854C178.101 330.75 177.745 331.61 177.111 332.244C176.477 332.878 175.617 333.234 174.72 333.234Z" fill="#CE9C5C"/>
<path d="M146.07 327.656C145.679 327.662 145.291 327.59 144.929 327.445C144.566 327.3 144.236 327.084 143.957 326.811C143.278 326.236 142.853 325.417 142.774 324.531C142.695 323.646 142.968 322.764 143.534 322.078L200.75 253.876C201.351 253.3 202.143 252.967 202.975 252.938C203.806 252.91 204.619 253.19 205.257 253.724C205.895 254.257 206.314 255.007 206.434 255.831C206.554 256.654 206.366 257.493 205.906 258.186L148.69 326.473C148.363 326.846 147.96 327.145 147.508 327.349C147.056 327.553 146.566 327.658 146.07 327.656Z" fill="#CE9C5C"/>
<path d="M206.243 325.036C205.798 325.05 205.356 324.967 204.947 324.791C204.538 324.616 204.173 324.353 203.877 324.022L140.83 261.059C140.21 260.427 139.863 259.578 139.863 258.692C139.863 257.808 140.21 256.958 140.83 256.326C141.144 256.007 141.519 255.753 141.933 255.58C142.346 255.407 142.79 255.318 143.238 255.318C143.686 255.318 144.13 255.407 144.544 255.58C144.957 255.753 145.332 256.007 145.647 256.326L208.61 319.289C209.229 319.921 209.576 320.771 209.576 321.655C209.576 322.54 209.229 323.39 208.61 324.022C208.303 324.341 207.936 324.595 207.53 324.769C207.123 324.944 206.685 325.034 206.243 325.036Z" fill="#CE9C5C"/>
<path d="M214.779 293.259H134.659C133.763 293.259 132.904 292.903 132.269 292.269C131.636 291.635 131.279 290.775 131.279 289.878C131.279 288.982 131.636 288.122 132.269 287.488C132.904 286.854 133.763 286.498 134.659 286.498H214.779C215.675 286.498 216.535 286.854 217.169 287.488C217.803 288.122 218.159 288.982 218.159 289.878C218.159 290.775 217.803 291.635 217.169 292.269C216.535 292.903 215.675 293.259 214.779 293.259Z" fill="#CE9C5C"/>
<path d="M841.957 765.607C821.167 777.86 787.022 832.203 783.218 856.122C783.133 861.531 791.671 861.531 791.671 856.122C791.66 855.723 791.688 855.329 791.755 854.94C791.755 854.259 791.586 856.038 791.586 855.7C792.284 852.149 793.393 848.688 794.884 845.39C795.138 844.714 794.884 845.474 794.716 845.727C802.91 826.964 816.265 806.005 827.335 791.468C831.14 786.228 839.165 777.606 842.126 775.411C843.392 774.415 844.788 773.594 846.268 772.958C851.001 770.341 846.69 762.985 841.957 765.607Z" fill="#452D34"/>
<path d="M569.653 968.609C572.973 993.422 573.767 1018.51 572.022 1043.49C572.005 1044.05 572.107 1044.6 572.315 1045.12C572.523 1045.64 572.838 1046.11 573.232 1046.5C573.626 1046.9 574.099 1047.21 574.617 1047.42C575.135 1047.63 575.686 1047.73 576.243 1047.72C585.794 1047.97 579.879 993.963 579.879 985.087C578.444 979.848 580.723 964.635 573.879 964.382C571.848 964.466 569.315 966.245 569.653 968.609Z" fill="#452D34"/>
<path d="M660.167 381.745C671.069 379.886 677.659 384.703 680.028 393.577C682.392 402.451 674.957 413.269 663.212 416.395C660.843 417.046 658.394 417.331 655.941 417.241C654.928 405.325 656.785 393.492 660.167 381.745Z" fill="#D13535"/>
<path d="M796.921 426.543C800.529 417.43 794.27 406.406 782.941 401.921C771.618 397.437 759.512 401.19 755.899 410.303C752.291 419.417 758.549 430.44 769.879 434.925C781.202 439.409 793.314 435.657 796.921 426.543Z" fill="#D13535"/>
<path d="M384.23 668.925C389.131 669.347 391.92 658.783 386.85 657.517C381.779 656.245 394.54 652.356 394.54 645.85C394.54 639.344 389.047 633.26 382.624 632.585C379.582 632.241 374.51 633.26 374.003 636.215C376.961 632.5 367.242 660.303 359.045 661.653C355.579 662.244 362.087 663.685 362.087 663.685L384.23 668.925Z" fill="#D13535"/>
<path d="M564.581 948.579C564.688 949.051 564.683 949.535 564.565 950.008C564.452 950.475 564.233 950.909 563.917 951.274C563.608 951.646 563.214 951.939 562.774 952.13C562.333 952.321 561.852 952.406 561.371 952.383L548.609 951.708C542.693 951.37 535.256 945.708 534.073 939.872C533.396 936.495 535.594 932.944 538.552 931.002C539.761 930.215 541.068 929.59 542.439 929.14C542.741 929.044 543.006 928.858 543.197 928.611C543.388 928.357 543.495 928.048 543.504 927.733C543.514 927.417 543.424 927.108 543.249 926.843C543.073 926.579 542.82 926.382 542.524 926.269H542.439C540.633 925.678 538.989 924.682 537.639 923.343C536.289 922.009 535.27 920.377 534.664 918.576C531.875 909.869 542.609 907.252 545.736 909.954L560.61 912.492C560.694 924.491 561.54 935.736 563.906 945.365C564.159 946.299 564.413 947.481 564.581 948.579Z" fill="#D13535"/>
<path d="M669.803 561.083C667.433 554.238 666.674 545.955 672.847 542.237C679.016 538.518 688.313 541.814 690.846 548.575C692.872 542.49 699.552 538.349 705.974 539.11C709.154 539.583 712.086 541.102 714.309 543.429C716.526 545.756 717.905 548.756 718.231 551.956C719.25 548.84 721.254 546.138 723.938 544.252C726.623 542.367 729.842 541.401 733.123 541.496C736.399 541.59 739.562 542.742 742.133 544.78C744.7 546.818 746.546 549.631 747.384 552.801C748.285 549.911 750.075 547.379 752.5 545.566C754.92 543.753 757.858 542.752 760.88 542.705C763.908 542.658 766.874 543.568 769.35 545.305C771.827 547.042 773.695 549.518 774.686 552.379C776.543 547.138 781.192 542.406 786.769 542.068C792.346 541.73 797.924 547.561 796.151 552.801C797.67 543.758 808.825 540.209 817.785 542.153C830.802 545.111 831.14 570.885 830.802 573.254C829.705 580.014 826.913 582.805 820.661 585.591C814.408 588.382 807.559 588.973 800.799 589.395C763.525 591.759 725.835 588.804 689.748 579.507C684.593 578.241 674.62 575.196 669.803 561.083Z" fill="#D13535"/>
<path d="M852.098 424.847C866.298 422.058 890.808 403.211 873.563 389.605C864.097 384.027 858.689 396.619 868.83 396.704C867.142 396.958 869.083 396.704 869.083 396.789C869.083 396.873 868.915 396.704 869.252 396.873C867.648 396.028 870.778 397.887 869.337 396.873C869.59 397.042 870.862 398.563 870.018 397.549C870.44 397.803 870.693 398.563 870.946 399.07C870.355 397.633 871.2 399.831 871.115 400C870.946 398.479 871.115 400.676 871.031 400.93C871.2 399.577 870.693 402.451 870.44 402.704C870.946 401.69 869.421 404.564 869.083 404.902C867.53 406.753 865.774 408.426 863.844 409.888C861.176 411.878 858.283 413.551 855.227 414.874C853.494 415.596 851.716 416.189 849.903 416.649C844.574 418.086 846.859 426.284 852.098 424.847Z" fill="#452D34"/>
<path d="M708.512 413.1C706.48 413.607 706.395 413.776 704.2 413.607L701.831 412.931C700.464 412.385 699.265 411.48 698.37 410.311C696.676 407.775 696.591 406.761 696.676 403.55C696.76 403.127 697.605 400.254 697.182 401.521L698.285 399.577L698.623 399.24C699.445 398.37 700.317 397.551 701.24 396.789L701.662 396.451L723.977 380.731C725.75 379.463 726.763 377.013 725.497 374.984C724.23 372.956 721.608 372.111 719.666 373.463C705.298 384.449 673.1 398.563 695.494 419.016C700.143 422.65 714.342 424.763 713.667 416.058C712.986 413.945 710.706 412.339 708.512 413.1Z" fill="#452D34"/>
<path d="M754.486 444.117C751.273 448.596 745.273 452.568 741.975 453.92C739.122 455.071 736.145 455.893 733.1 456.371C730.438 456.709 727.742 456.709 725.075 456.371H724.653C722.717 456.102 720.82 455.62 718.991 454.934C713.751 453.413 711.466 461.611 716.706 463.132C732.256 468.372 754.402 462.541 761.668 447.159C761.837 443.61 756.766 441.328 754.486 444.117Z" fill="#452D34"/>
<path d="M770.51 379.583C774.697 377.85 776.678 373.054 774.95 368.872C773.217 364.689 768.422 362.702 764.235 364.435C760.053 366.167 758.066 370.963 759.8 375.146C761.533 379.329 766.328 381.315 770.51 379.583Z" fill="#452D34"/>
<path d="M698.286 367.04C702.811 367.04 706.48 363.369 706.48 358.842C706.48 354.315 702.811 350.644 698.286 350.644C693.755 350.644 690.086 354.315 690.086 358.842C690.086 363.369 693.755 367.04 698.286 367.04Z" fill="#452D34"/>
<path d="M796.403 355.969C791.079 351.236 763.018 333.995 758.797 343.545C758.369 345.658 759.473 348.278 761.752 348.701C771.072 350.487 779.891 354.263 787.612 359.772C788.586 360.421 789.515 361.126 790.404 361.885C794.293 365.772 800.377 359.772 796.403 355.969Z" fill="#452D34"/>
<path d="M705.551 333.234C705.236 332.174 704.527 331.275 703.564 330.724C702.602 330.173 701.471 330.013 700.396 330.276C692.871 332.631 685.684 335.955 679.015 340.164C674.366 342.953 678.593 350.221 683.326 347.432C687.159 345.017 691.166 342.898 695.325 341.093C698.96 338.981 706.817 339.065 705.551 333.234Z" fill="#452D34"/>
<path d="M409.161 876.321C402.992 874.886 399.02 873.783 392.85 872.179C201.848 821.977 58.9356 736.027 73.6415 680.248C81.8392 649.063 137.449 633.091 218.16 634.526L244.613 636.046C248.078 636.215 242.5 661.738 257.966 662.497C273.432 663.263 271.911 641.032 275.545 641.37L285.686 641.201C290.588 641.708 285.771 658.699 297.18 660.303C312.393 662.329 310.787 645.597 315.773 646.272L324.309 645.766C327.605 646.356 311.971 661.991 331.831 666.893C353.72 672.217 349.325 651.174 353.804 652.018C356.002 652.44 368.341 662.16 370.538 662.588C378.06 664.107 394.794 667.399 402.146 669.009C404.513 669.516 406.119 670.782 408.485 671.373C416.007 673.067 437.304 675.684 445.164 677.625C450.996 679.066 439.84 668.418 446.009 670.107C636.924 720.308 779.841 806.258 765.219 862.037C752.961 908.688 632.872 919.083 483.026 892.209C483.026 892.209 458.602 862.037 446.855 862.206C440.178 862.291 426.571 880.126 426.571 880.126L409.161 876.321Z" fill="#EFDCC4"/>
<path d="M429.36 886.969L412.964 882.742C319.999 858.317 235.401 824.853 174.72 788.676C116.49 753.862 86.8255 719.886 93.2487 695.46C100.263 668.755 161.958 652.018 246.726 653.712C247.952 653.712 249.131 653.234 250.014 652.384C250.897 651.534 251.415 650.375 251.458 649.148C251.47 648.534 251.361 647.932 251.137 647.364C250.914 646.795 250.581 646.272 250.157 645.833C249.733 645.394 249.227 645.045 248.668 644.797C248.108 644.555 247.505 644.426 246.895 644.414C204.891 643.57 167.621 647.2 139.055 654.894C107.531 663.347 88.6006 676.528 84.2901 693.096C80.2335 708.309 86.3184 725.379 102.376 743.889C117.166 760.874 139.9 778.619 169.987 796.623C231.345 833.301 316.788 867.108 410.598 891.702C416.852 893.391 420.909 894.404 427.163 895.929C427.512 896.064 427.887 896.12 428.261 896.098C429.308 896.092 430.323 895.743 431.148 895.101C431.974 894.454 432.564 893.559 432.825 892.546C433.104 891.348 432.896 890.087 432.246 889.04C431.596 887.993 430.559 887.25 429.36 886.969Z" fill="#452D34"/>
<path d="M774.432 828.483C759.642 811.498 736.905 793.747 706.817 775.749C645.377 739.072 559.933 705.264 466.123 680.586C428.261 670.697 384.821 661.147 352.79 655.654C352.186 655.547 351.565 655.564 350.967 655.699C350.367 655.834 349.801 656.081 349.298 656.436C348.796 656.791 348.368 657.235 348.04 657.759C347.71 658.276 347.487 658.85 347.382 659.458C347.276 660.06 347.29 660.68 347.425 661.282C347.559 661.878 347.809 662.447 348.163 662.948C348.516 663.454 348.965 663.882 349.483 664.208C350.001 664.54 350.579 664.76 351.184 664.867C383.046 670.191 426.149 679.741 463.757 689.63C556.722 714.055 641.403 747.519 702 783.69C760.233 818.51 789.982 852.487 783.555 876.912C778.146 897.195 747.89 911.141 698.201 916.128C648.506 921.114 579.372 916.634 505.676 903.364C505.076 903.245 504.457 903.245 503.857 903.364C503.256 903.487 502.687 903.729 502.182 904.078C501.678 904.422 501.248 904.866 500.919 905.384C500.59 905.902 500.368 906.481 500.267 907.084C500.044 908.294 500.311 909.543 501.008 910.556C501.705 911.569 502.776 912.267 503.986 912.492C558.582 922.38 610.303 927.451 654.252 927.451C669.234 927.519 684.215 926.815 699.13 925.341C753.727 919.927 786.009 903.954 792.515 879.276C796.488 864.063 790.404 846.994 774.432 828.483Z" fill="#452D34"/>
<path d="M135.082 689.039C128.49 714.139 175.311 743.467 215.708 763.666C270.98 791.299 346.874 818.426 429.444 840.15C512.014 861.868 591.455 875.561 653.07 878.685C661.18 879.107 669.549 879.36 677.996 879.36C716.452 879.36 754.57 873.951 760.063 853.331C766.654 828.314 719.835 798.902 679.353 778.704C624.165 751.155 548.27 723.943 465.7 702.219C383.13 680.501 303.687 666.808 241.992 663.685C196.862 661.4 141.674 663.938 135.082 689.039ZM675.21 787.072C701.578 800.259 721.692 812.764 734.878 824.262C748.059 835.754 752.792 844.286 751.019 850.967C749.246 857.642 739.865 863.05 723.808 866.348C707.746 869.646 682.983 870.912 653.577 869.387C592.558 866.264 513.789 852.74 431.81 831.19C349.832 809.641 274.53 782.677 219.85 755.381C193.481 742.195 173.452 729.69 160.267 718.197C147.083 706.699 142.266 698.167 144.041 691.402C145.815 684.643 155.281 679.319 171.339 676.021C183.339 673.573 198.637 672.301 216.807 672.301C224.498 672.301 232.78 672.554 241.57 672.982C302.588 676.106 381.355 689.714 463.334 711.264C545.312 732.813 620.529 759.692 675.21 787.072Z" fill="#452D34"/>
<path d="M346.874 680.163C338.338 679.488 330.647 683.546 329.718 689.207L326.929 707.121C326.76 708.309 324.985 708.984 323.379 708.562L322.28 708.309C321.266 708.056 320.506 707.29 320.59 706.53C320.844 699.265 316.195 692.162 307.152 687.682C294.222 681.345 275.798 682.786 264.558 690.98C251.711 700.362 252.134 715.237 265.825 723.69C274.445 728.93 285.517 730.027 295.997 727.827C296.527 727.703 297.082 727.703 297.611 727.838C298.141 727.967 298.631 728.226 299.039 728.592C299.884 729.689 299.293 731.04 297.772 731.462L273.009 738.734C264.473 741.266 259.909 748.453 263.036 754.959C266.163 761.549 275.967 764.847 284.841 762.225L302.927 756.816C311.886 754.115 322.196 756.141 328.619 761.887L385.581 812.511C392.427 817.666 404.766 815.387 412.626 807.609C420.401 799.921 420.993 789.779 414.063 784.962L381.524 762.647L385.835 758.42L422.514 776.002C430.289 779.722 442.036 776.34 448.375 768.736C454.629 761.212 453.277 752.336 445.671 748.96L372.397 722.418C364.199 719.463 359.213 713.548 359.889 707.543L361.495 691.74C362.086 685.909 355.494 680.754 346.874 680.163Z" fill="#D13535"/>
<path d="M387.441 819.101C377.215 823.243 325.915 769.074 318.224 764.51C313.069 759.946 304.279 758.252 297.011 760.452L278.841 765.861C248.669 773.464 237.598 737.631 269.713 731.884C245.88 728.508 232.527 702.219 254.585 686.416C271.826 673.489 306.815 675.43 316.365 697.064L317.802 687.682C319.576 673.235 347.128 670.359 355.748 681.936C361.495 687.345 357.27 700.615 357.185 707.206C356.762 710.926 360.65 715.068 366.651 717.263L439.924 743.805C442.228 744.694 444.283 746.129 445.916 747.981C447.549 749.832 448.711 752.055 449.305 754.453C453.277 772.282 427.5 786.904 413.218 779.385L395.892 771.1C402.4 776.255 416.26 782.002 416.176 791.974C417.782 806.089 400.794 819.698 387.441 819.101ZM381.187 808.115C388.793 814.12 407.978 803.973 406.879 792.819C406.71 784.962 370.876 769.581 369.608 762.309C369.017 759.27 373.581 756.225 375.186 754.368C375.866 753.676 376.745 753.215 377.7 753.046C378.654 752.882 379.637 753.018 380.511 753.434L417.274 771.016C424.881 775.158 441.868 767.042 440.262 756.563C443.136 751.83 365.214 727.827 363.439 725.97C353.128 722.249 347.043 714.477 347.888 706.193C347.635 704.504 350.846 689.039 348.565 687.941C345.353 682.443 327.774 682.87 327.014 689.123C325.831 692.922 325.577 709.322 321.351 711.264C317.126 713.211 308.167 711.432 308.59 705.517C307.153 685.234 273.009 683.546 259.994 693.941C249.852 701.122 250.191 712.445 261.008 718.873C268.108 723.268 277.827 724.534 287.714 722.418C292.616 721.152 298.026 725.463 296.504 730.534C293.377 740.844 255.6 737.546 259.909 752.083C261.769 756.141 268.953 759.101 276.221 756.901C291.349 751.83 311.378 745.071 324.394 757.576L381.187 808.115Z" fill="#452D34"/>
<path d="M269.883 708.731C270.719 708.731 271.535 708.484 272.23 708.017C272.925 707.555 273.467 706.891 273.786 706.12C274.107 705.349 274.19 704.499 274.027 703.677C273.864 702.861 273.462 702.107 272.871 701.516C272.28 700.925 271.527 700.52 270.707 700.357C269.887 700.194 269.037 700.278 268.265 700.599C267.493 700.92 266.834 701.46 266.369 702.158C265.905 702.85 265.657 703.666 265.657 704.505C265.679 705.619 266.131 706.683 266.919 707.465C267.706 708.253 268.768 708.709 269.883 708.731Z" fill="white"/>
<path d="M283.321 698.674C284.156 698.674 284.973 698.426 285.668 697.959C286.363 697.498 286.905 696.833 287.224 696.062C287.544 695.291 287.628 694.441 287.465 693.62C287.302 692.804 286.899 692.05 286.309 691.459C285.718 690.868 284.965 690.463 284.145 690.299C283.325 690.136 282.475 690.221 281.703 690.541C280.931 690.862 280.271 691.402 279.807 692.1C279.343 692.793 279.095 693.609 279.095 694.447C279.117 695.561 279.568 696.62 280.356 697.407C281.144 698.195 282.206 698.651 283.321 698.674Z" fill="white"/>
<path d="M277.995 720.646C276.968 720.657 275.966 720.319 275.153 719.694C274.341 719.064 273.764 718.181 273.517 717.179C273.207 715.991 273.38 714.731 273.997 713.672C274.615 712.609 275.627 711.838 276.812 711.517C286.447 708.984 292.532 702.22 292.532 698.758C292.532 697.526 293.021 696.344 293.893 695.472C294.765 694.599 295.947 694.11 297.18 694.11C297.794 694.098 298.403 694.211 298.972 694.436C299.541 694.667 300.059 695.01 300.493 695.443C300.927 695.877 301.269 696.395 301.498 696.963C301.727 697.532 301.84 698.145 301.829 698.758C301.829 707.544 291.94 717.179 279.179 720.561L277.995 720.646Z" fill="white"/>
<path d="M417.021 692.753C408.486 692.078 400.795 696.136 399.95 701.798L397.076 719.717C396.907 720.899 395.217 721.574 393.611 721.152L392.513 720.899C392.061 720.843 391.64 720.64 391.318 720.319C390.996 719.998 390.791 719.576 390.737 719.126C391.076 711.855 386.428 704.758 377.385 700.278C364.369 693.941 346.03 695.376 334.79 703.576C321.943 712.952 322.282 727.742 336.057 736.28C344.593 741.52 355.749 742.617 366.144 740.422C366.689 740.293 367.255 740.293 367.799 740.428C368.342 740.557 368.847 740.816 369.271 741.182C370.117 742.28 369.525 743.636 367.919 744.058L343.156 751.324C334.705 753.862 330.141 761.043 333.184 767.549C336.311 774.145 346.199 777.437 355.073 774.82L373.159 769.412C382.033 766.705 392.428 768.737 398.851 774.483L455.729 825.106C462.659 830.262 474.913 827.977 482.858 820.204C490.633 812.511 491.14 802.285 484.295 797.552L451.757 775.243L455.983 771.016L492.746 788.592C500.521 792.312 512.184 788.935 518.607 781.326C524.861 773.807 523.509 764.932 515.818 761.55L442.545 735.014C434.347 732.053 429.445 726.054 430.037 720.139L431.727 704.336C432.319 698.505 425.642 693.35 417.021 692.753Z" fill="#CE9C5C"/>
<path d="M471.363 829.333C461.053 833.47 409.837 779.3 402.147 774.736C396.991 770.087 388.202 768.393 380.849 770.594L362.763 776.002C332.591 783.69 321.52 747.857 353.636 742.111C329.803 738.734 316.449 712.361 338.423 696.642C355.748 683.715 390.737 685.572 400.287 707.29L401.724 697.908C403.499 683.461 430.966 680.501 439.671 692.162C445.333 697.571 441.192 710.842 441.107 717.432C440.685 721.152 444.572 725.294 450.573 727.405L523.846 753.946C526.144 754.852 528.189 756.304 529.808 758.173C531.426 760.041 532.57 762.27 533.143 764.679C537.199 782.508 511.423 797.13 497.14 789.611L479.815 781.326C486.322 786.397 500.183 792.228 500.098 802.2C501.704 816.315 484.632 829.924 471.363 829.333ZM465.11 818.257C470.096 821.893 479.815 819.782 485.984 813.693C490.548 809.05 493.252 802.2 488.013 798.227L455.475 775.918C454.92 775.524 454.458 775.017 454.12 774.426C453.783 773.841 453.579 773.183 453.523 772.507C453.466 771.832 453.559 771.151 453.794 770.509C454.029 769.873 454.401 769.294 454.883 768.821C457.249 766.705 460.63 761.55 464.433 763.666L501.112 781.157C506.944 783.949 516.409 781.157 521.395 775.158C525.114 770.763 525.79 765.185 520.466 762.647L447.362 736.196C437.051 732.475 430.966 724.703 431.811 716.419L433.501 700.615C432.825 696.558 428.937 694.954 423.106 694.194C417.275 693.434 411.19 696.727 410.936 699.349C409.415 703.66 409.753 719.632 405.105 721.574C400.456 723.521 391.92 721.405 392.512 715.49C390.653 695.291 356.763 693.687 343.663 704.336C333.606 711.601 334.367 723.009 345.1 729.268C352.199 733.494 362.003 734.76 371.806 732.56C381.609 730.365 384.145 743.039 375.609 745.324L350.593 752.674C335.296 757.998 347.212 771.438 360.143 767.127L378.567 761.634C388.709 758.336 402.315 761.887 408.316 767.802L465.11 818.257Z" fill="#452D34"/>
<path d="M353.805 718.957C354.64 718.957 355.458 718.71 356.152 718.243C356.847 717.781 357.388 717.117 357.709 716.346C358.028 715.575 358.112 714.725 357.949 713.904C357.786 713.087 357.383 712.333 356.792 711.742C356.202 711.151 355.449 710.746 354.629 710.583C353.809 710.42 352.959 710.504 352.187 710.825C351.416 711.146 350.755 711.686 350.291 712.384C349.827 713.076 349.579 713.892 349.579 714.731C349.6 715.845 350.052 716.909 350.84 717.691C351.628 718.479 352.691 718.935 353.805 718.957Z" fill="white"/>
<path d="M367.242 708.9C368.078 708.9 368.895 708.652 369.59 708.185C370.285 707.724 370.826 707.059 371.146 706.288C371.466 705.517 371.55 704.668 371.387 703.846C371.223 703.03 370.821 702.276 370.23 701.685C369.639 701.094 368.886 700.689 368.067 700.525C367.247 700.362 366.397 700.447 365.625 700.767C364.853 701.088 364.193 701.629 363.729 702.326C363.264 703.019 363.016 703.835 363.016 704.673C363.038 705.788 363.49 706.851 364.278 707.633C365.066 708.421 366.128 708.877 367.242 708.9Z" fill="white"/>
<path d="M361.918 730.871C360.799 730.86 359.722 730.438 358.886 729.695C358.049 728.952 357.51 727.934 357.366 726.819C357.222 725.711 357.484 724.585 358.102 723.656C358.721 722.722 359.656 722.041 360.735 721.743C370.369 719.21 376.454 712.445 376.454 708.984C376.454 707.752 376.944 706.57 377.816 705.697C378.688 704.825 379.87 704.335 381.103 704.335C381.716 704.324 382.326 704.437 382.895 704.662C383.464 704.893 383.981 705.236 384.415 705.669C384.849 706.103 385.191 706.62 385.42 707.189C385.65 707.757 385.762 708.371 385.751 708.984C385.751 717.769 375.778 727.405 363.101 730.703C362.723 730.843 362.32 730.9 361.918 730.871Z" fill="white"/>
<path d="M490.463 704.758C481.927 704.082 474.236 708.14 473.307 713.886L470.518 731.716C470.349 732.897 468.574 733.578 466.968 733.241L465.87 732.897C464.771 732.644 464.095 731.884 464.18 731.125C464.433 723.859 459.785 716.756 450.742 712.361C437.811 705.939 419.387 707.374 408.147 715.574C395.301 724.956 395.723 739.831 409.414 748.279C418.035 753.524 429.106 754.621 439.586 752.421C440.123 752.291 440.685 752.297 441.218 752.443C441.751 752.595 442.237 752.877 442.628 753.265C443.474 754.284 442.882 755.634 441.36 756.057L416.598 763.322C408.062 765.86 403.498 773.126 406.626 779.553C409.753 786.144 419.556 789.442 428.43 786.819L446.516 781.411C455.474 778.709 465.785 780.735 472.208 786.481L529.17 837.105C536.016 842.26 548.355 840.065 556.215 832.203C563.991 824.515 564.582 814.374 557.652 809.64L525.114 787.326L529.424 783.099L566.101 800.596C573.879 804.316 585.625 801.018 591.962 793.325C598.22 785.806 596.864 776.931 589.26 773.548L515.986 747.012C507.704 744.058 502.802 738.137 503.394 732.138L505.084 716.334C505.676 710.504 499.084 705.348 490.463 704.758Z" fill="#D13535"/>
<path d="M545.904 848.935C535.678 853.162 484.378 798.992 476.688 794.428C471.532 789.779 462.828 788.085 455.475 790.286L437.304 795.694C407.133 803.382 396.146 767.464 428.177 761.803C404.344 758.336 390.99 732.053 413.049 716.25C430.29 703.322 465.363 705.264 474.829 726.982L476.35 717.601C478.04 703.154 505.591 700.193 514.212 711.854C519.959 717.263 515.733 730.449 515.648 737.04C515.226 740.844 519.114 744.902 525.114 747.097L598.389 773.638C600.686 774.539 602.734 775.974 604.366 777.826C605.993 779.677 607.163 781.895 607.771 784.286C611.739 802.2 585.963 816.822 571.679 809.218L554.356 800.934C560.948 806.089 574.724 811.92 574.639 821.893C576.243 836.008 559.258 849.616 545.904 848.935ZM539.651 837.949C547.257 844.033 566.439 833.807 565.342 822.652C565.257 814.796 529.34 799.414 528.072 792.143C527.481 789.188 532.044 786.144 533.735 784.202C534.408 783.527 535.271 783.076 536.209 782.913C537.146 782.744 538.111 782.868 538.974 783.268L575.737 800.85C583.43 804.992 600.331 796.876 598.727 786.481C601.597 781.664 523.677 757.66 521.987 755.803C511.592 752.083 505.507 744.395 506.352 736.111C506.183 734.338 509.31 718.872 507.113 717.769C503.901 712.361 486.238 712.699 485.477 719.041C484.294 722.84 484.125 739.156 479.9 741.097C475.674 743.039 466.715 741.351 467.053 735.351C465.616 715.068 431.473 713.38 418.542 723.774C408.316 731.04 408.654 742.364 419.472 748.791C426.571 753.096 436.29 754.368 446.178 752.252C451.165 751.07 456.573 755.381 454.968 760.452C451.841 770.762 414.063 767.38 418.373 782.001C420.232 785.975 427.416 788.935 434.684 786.819C449.812 781.664 469.842 774.905 482.857 787.41L539.651 837.949Z" fill="#452D34"/>
<path d="M428.345 738.565C429.181 738.565 429.998 738.312 430.693 737.85C431.388 737.383 431.93 736.725 432.25 735.954C432.569 735.183 432.653 734.333 432.49 733.511C432.327 732.695 431.924 731.941 431.333 731.35C430.742 730.759 429.989 730.354 429.17 730.191C428.35 730.028 427.501 730.112 426.729 730.433C425.956 730.753 425.296 731.294 424.832 731.992C424.368 732.684 424.12 733.5 424.12 734.339C424.141 735.453 424.594 736.511 425.381 737.299C426.169 738.087 427.232 738.543 428.345 738.565Z" fill="white"/>
<path d="M441.783 728.592C442.904 728.592 443.979 728.142 444.771 727.354C445.564 726.561 446.009 725.486 446.009 724.366C446.009 723.246 445.564 722.171 444.771 721.377C443.979 720.584 442.904 720.139 441.783 720.139C440.663 720.139 439.588 720.584 438.795 721.377C438.003 722.171 437.558 723.246 437.558 724.366C437.579 725.48 438.032 726.538 438.819 727.326C439.607 728.114 440.67 728.57 441.783 728.592Z" fill="white"/>
<path d="M436.459 750.564C435.435 750.558 434.441 750.221 433.631 749.59C432.821 748.966 432.24 748.088 431.98 747.097C431.67 745.91 431.843 744.649 432.46 743.585C433.078 742.527 434.09 741.756 435.276 741.435C444.911 738.903 451.08 732.138 451.08 728.592C451.08 727.36 451.57 726.172 452.441 725.306C453.313 724.433 454.496 723.944 455.728 723.944C456.961 723.944 458.143 724.433 459.015 725.306C459.887 726.172 460.376 727.36 460.376 728.592C460.376 737.462 450.404 747.013 437.642 750.395L436.459 750.564Z" fill="white"/>
<path d="M838.574 431.862C864.182 450.624 893.931 422.396 894.269 395.183C894.353 389.774 885.821 389.69 885.821 395.183C885.821 398.479 883.789 406.254 882.608 408.705C881.212 412.032 879.422 415.181 877.284 418.086C875.618 420.18 873.749 422.105 871.706 423.833C868.239 426.791 862.324 428.65 859.792 428.904C857.411 429.326 854.98 429.326 852.605 428.904C853.533 429.157 852.943 428.989 852.774 428.989C850.871 428.689 849.003 428.208 847.196 427.552C846.859 427.382 846.183 427.129 846.859 427.382L845.17 426.453C844.405 426.03 845.339 426.622 845.255 426.622C841.703 421.636 834.432 427.129 838.574 431.862Z" fill="#452D34"/>
<path d="M283.319 657.089H282.897L279.263 656.667L275.798 656.498C275.187 656.459 274.59 656.301 274.042 656.031C273.492 655.761 273.002 655.389 272.597 654.928C272.193 654.472 271.883 653.937 271.686 653.358C271.488 652.778 271.407 652.164 271.445 651.557C271.484 650.943 271.643 650.346 271.912 649.801C272.182 649.249 272.557 648.759 273.016 648.354C273.475 647.949 274.009 647.639 274.588 647.442C275.167 647.246 275.779 647.167 276.389 647.2L279.601 647.369H280.277L283.742 647.713C284.353 647.763 284.948 647.938 285.492 648.219C286.036 648.506 286.518 648.894 286.911 649.367C287.304 649.834 287.599 650.38 287.781 650.966C287.962 651.557 288.025 652.17 287.967 652.783C287.863 653.948 287.33 655.035 286.472 655.828C285.613 656.627 284.49 657.078 283.319 657.089Z" fill="#452D34"/>
<path d="M323.042 661.4H322.45C318.478 660.893 316.957 660.64 316.111 660.302L311.97 659.796C310.738 659.661 309.609 659.042 308.832 658.074C308.056 657.111 307.695 655.873 307.829 654.641C307.964 653.408 308.582 652.277 309.549 651.5C310.516 650.724 311.752 650.363 312.985 650.499C317.548 651.005 318.647 651.174 319.492 651.512C320.882 651.844 322.294 652.069 323.718 652.187C324.937 652.395 326.029 653.065 326.769 654.055C327.508 655.046 327.838 656.284 327.69 657.517C327.492 658.603 326.919 659.588 326.07 660.297C325.22 661.012 324.149 661.4 323.042 661.4Z" fill="#452D34"/>
<path d="M678.762 561.59C650.279 585.675 605.148 579.254 573.035 597.342C546.074 611.789 524.185 634.441 507.367 659.711C504.324 665.457 485.646 690.642 495.281 693.518C499.76 694.531 500.69 689.967 501.873 686.838C522.072 644.836 559.512 604.354 606.33 594.128C633.631 589.986 662.621 585.506 684.762 567.592C688.65 563.872 682.73 557.787 678.762 561.59Z" fill="#452D34"/>
<path d="M611.401 670.106C604.642 677.625 562.894 711.348 576.412 720.139C580.47 721.321 582.08 716.081 582.333 714.984C583.43 712.108 587.066 707.037 587.91 705.94C596.611 694.954 607.349 685.91 617.322 676.106C621.205 672.301 615.29 666.217 611.401 670.106Z" fill="#452D34"/>
<path d="M1052.23 344.475C1062.96 256.073 955.287 192.35 884.549 238.241C836.801 202.491 697.689 166.826 668.367 307.035C663.127 336.53 659.323 366.363 656.109 396.112C649.35 438.285 657.629 495.416 694.396 518.658C694.312 519.133 694.312 519.619 694.396 520.094C695.106 524.139 695.415 528.243 695.325 532.349C680.366 522.968 665.153 538.095 673.016 555.506C676.393 565.899 684.677 574.268 695.494 576.631C718.141 581.792 810.265 599.79 835.788 577.819C850.494 600.803 874.661 615.763 895.709 632.5C939.399 662.925 960.78 714.815 958.5 767.38C958.332 772.113 956.052 795.104 955.709 798.734C936.782 995.91 755.584 1037.15 590.273 969.537C581.398 965.226 571.256 962.272 564.075 955.169C563.991 955 563.991 954.916 563.906 954.831C563.231 953.312 562.3 951.792 561.624 950.442C561.708 950.526 561.624 950.441 561.539 950.183C560.272 947.143 559.426 940.638 559.173 938.859C557.145 932.86 560.272 913.505 554.694 912.408C528.41 901.506 514.465 921.874 529.17 931.678C525.114 934.633 522.832 938.775 522.917 943.17C497.309 936.158 473.645 924.153 451.333 907.506C438.994 898.546 423.19 880.97 429.36 873.192C430.143 872.314 430.991 871.498 431.895 870.744C444.995 860.94 457.756 872.179 466.631 882.996C468.821 885.838 470.718 888.9 472.293 892.124C472.969 898.63 482.096 898.546 481.082 891.702C473.56 867.783 435.782 841.585 420.317 872.77C418.796 882.743 423.697 892.715 432.064 902.013C421.247 899.643 406.119 893.222 398.343 886.969C395.764 884.982 393.411 882.714 391.328 880.21C389.976 877.925 387.357 875.646 384.567 877.334C381.778 879.022 381.778 881.223 383.046 883.165C394.202 898.377 413.133 906.155 430.965 910.382C433.839 910.719 438.656 912.07 442.121 911.563C467.306 932.353 507.366 948.747 526.55 952.89H527.311C528.784 954.375 530.429 955.681 532.213 956.779C539.735 961.681 549.285 959.818 557.905 960.752C557.905 960.836 557.905 960.836 557.989 960.921C563.062 966.751 571.003 969.959 577.937 973.173C682.476 1022.36 835.619 1026.17 912.019 935.482C911.09 974.692 906.526 1014.08 910.156 1053.21C911.85 1058.95 920.298 1055.74 918.187 1050.16C915.57 1016.02 919.031 981.626 919.96 947.481C919.454 943.677 921.485 931.847 920.726 924.322C931.036 909.796 939.258 893.897 945.145 877.081C948.19 873.53 958.754 842.429 963.149 811.751C964.247 803.551 966.447 776.847 966.785 771.523C970.837 708.056 942.866 650.921 887.762 615.847C874.323 605.537 859.617 594.551 848.04 580.436C845.446 577.262 843.127 573.868 841.112 570.294C842.187 567.323 842.559 564.143 842.21 560.999C842.21 549.421 838.152 539.279 831.224 533.954V533.786C830.971 528.028 831.224 522.258 831.984 516.545C833.379 507.348 835.873 498.353 839.418 489.754C840.015 488.317 841.365 485.443 842.716 482.655C847.449 483.077 853.702 481.302 858.097 480.795C917.427 473.442 934.582 385.295 923.933 316.754C931.711 310.077 942.444 299.851 958.585 285.568C959.024 285.141 959.564 284.831 960.155 284.669C960.746 284.506 961.371 284.496 961.967 284.639C967.123 286.16 940.755 294.781 943.541 327.318C950.728 410.733 908.805 451.046 895.203 523.137C875.257 628.442 1011.15 691.487 1043.44 606.381C1051.81 584.325 1048 559.478 1034.22 540.293C990.361 479.528 979.206 463.723 1031.61 394.591C1042.76 379.989 1049.88 362.702 1052.23 344.475ZM472.377 892.293C472.546 892.631 472.715 893.475 472.293 892.209L472.377 892.293ZM466.461 882.827C466.484 882.827 466.505 882.838 466.521 882.855C466.537 882.866 466.546 882.889 466.546 882.911C466.038 882.236 466.292 882.574 466.461 882.827ZM531.537 941.144C531.532 941.206 531.501 941.268 531.452 941.313C531.501 941.268 531.532 941.206 531.537 941.144ZM541.51 951.623C541.763 951.623 541.425 951.455 541.171 951.539L538.383 950.695C535.847 949.592 532.467 946.468 531.621 944.436C531.621 944.436 531.368 943.845 531.452 943.93C531.537 944.014 530.945 942.495 531.199 943.17C531.452 943.846 531.199 942.748 531.199 942.326L531.452 941.397H531.537C531.984 940.441 532.65 939.596 533.481 938.944C536.016 937.171 539.059 936.749 542.524 935.904C545.989 935.055 546.58 928.633 542.524 927.789C540.165 927.406 537.845 926.815 535.594 926.016L534.748 925.594L533.227 924.66C532.939 924.333 532.628 924.018 532.298 923.731L531.96 923.225C531.985 923.078 531.955 922.926 531.875 922.803C531.875 922.465 531.96 922.043 531.96 921.621C532.033 921.215 532.146 920.821 532.298 920.439C532.391 920.231 532.505 920.034 532.635 919.842L533.227 919.251L534.157 918.745C534.911 918.43 535.709 918.233 536.523 918.154L538.213 917.985L542.524 918.238C544.868 918.576 547.184 919.082 549.454 919.758C549.792 930.58 549.876 941.904 553.426 952.13C549.454 951.877 545.397 952.045 541.51 951.623ZM531.875 922.887C531.96 922.971 531.96 922.971 531.96 923.056C531.96 923.033 531.951 923.011 531.935 922.994C531.919 922.983 531.898 922.971 531.875 922.971V922.887ZM918.103 1049.83C918.018 1049.15 918.103 1049.49 918.103 1049.83V1049.83ZM833.841 565.899C833.841 564.548 833.925 565.392 833.841 565.899V565.899ZM832.912 569.197V569.366L832.659 569.957C831.224 572.495 826.744 574.69 825.815 575.027C781.951 584.072 735.892 578.156 693.468 567.086C684.424 563.366 679.268 552.716 679.606 543.589C679.606 543.505 679.69 543.167 679.69 542.997C679.797 542.028 680.163 541.104 680.737 540.318C681.317 539.532 682.094 538.911 682.983 538.518C682.645 538.434 685.943 537.842 686.956 537.927H687.294C688.735 538.111 690.102 538.646 691.279 539.487C692.46 540.328 693.412 541.446 694.059 542.744C694.239 543.276 694.526 543.766 694.903 544.181C694.83 544.571 694.802 544.968 694.819 545.364C694.734 550.857 703.272 550.857 703.272 545.364C703.215 543.7 703.272 542.034 703.441 540.378C703.525 540.209 703.694 540.039 703.694 539.955C704.791 538.742 706.136 537.775 707.633 537.12C709.136 536.464 710.757 536.134 712.395 536.152C716.03 536.405 719.244 539.279 720.679 542.575C720.961 543.404 721.186 544.251 721.354 545.11C721.439 549.843 728.795 550.435 729.723 545.617C732.594 538.18 742.397 537.166 746.455 540.885C747.992 542.024 749.213 543.536 750.006 545.28C751.188 551.872 758.37 550.435 758.797 546.463C759.979 544.012 760.486 543.674 762.174 541.983C763.868 540.293 765.472 540.209 764.29 540.716C765.253 540.356 766.238 540.074 767.245 539.871C768.145 539.814 769.052 539.842 769.952 539.955C768.849 539.955 769.783 539.955 770.205 540.039C772.704 540.558 774.927 541.97 776.458 544.012C776.903 544.628 777.297 545.278 777.64 545.955C777.876 546.911 778.422 547.759 779.199 548.366C779.97 548.973 780.927 549.302 781.911 549.302C782.891 549.302 783.848 548.973 784.619 548.366C785.395 547.759 785.941 546.911 786.177 545.955C787.781 542.237 791.924 537.927 796.403 539.617L795.897 539.448C796.15 539.363 797.501 540.293 797.67 540.462C798.058 540.806 798.424 541.173 798.767 541.561C799.094 541.99 799.313 542.487 799.415 543.014C799.516 543.541 799.499 544.084 799.364 544.603C797.839 550.097 806.545 552.125 807.558 546.463C807.727 545.617 808.487 543.927 807.896 545.11C808.419 543.936 809.168 542.874 810.096 541.983L810.856 541.476C811.554 540.976 812.291 540.524 813.051 540.124C831.055 532.603 835.957 555.252 832.912 569.197ZM748.65 543.251L748.909 543.42L748.65 543.251ZM761.921 542.406C761.921 542.293 762.005 542.209 762.174 542.153C762.343 542.096 762.259 542.181 761.921 542.406ZM797.332 540.293L797.585 540.546C797.501 540.462 797.417 540.462 797.332 540.293ZM858.097 437.44C842.547 443.187 840.184 458.737 836.97 472.428C836.638 473.754 836.497 475.12 836.548 476.485C827.757 493.05 822.602 511.643 822.686 530.405C817.447 529.729 811.447 531.166 804.857 535.561C799.617 529.222 788.372 529.644 781.782 537.251C774.685 530.067 761.921 530.152 754.824 537.335C747.806 529.053 734.372 528.461 726.51 535.729C721.523 528.715 711.635 526.348 703.947 529.644C703.947 527.56 703.863 525.532 703.694 523.56C710.943 526.621 718.653 528.449 726.51 528.968C734.288 530.743 784.405 527.869 781.529 517.559C781.23 516.486 780.527 515.574 779.559 515.02C778.597 514.466 777.448 514.316 776.374 514.601C753.721 521.362 729.892 524.827 706.48 515.361C638.111 482.824 668.367 370.336 676.646 309.401C706.649 310.331 744.936 268.243 747.637 264.947C751.864 260.468 759.81 263.172 760.908 269.257C770.459 322.586 843.982 395.014 865.622 383.774C883.029 372.871 887.425 391.211 886.665 395.521C888.1 399.324 889.198 398.479 892.918 397.465C887.762 420.368 880.497 427.89 858.097 437.44Z" fill="#452D34"/>
<path d="M819.985 373.632C809.759 359.011 799.617 344.221 789.644 329.431L781.191 316.754C779.671 314.472 776.542 313.881 774.601 315.909L742.819 347.348L736.145 354.024L735.047 353.771C732.458 353.587 729.858 353.616 727.269 353.856C727.162 353.439 726.988 353.04 726.763 352.672C719.435 338.505 711.224 324.814 702.169 311.683C701.837 311.14 701.392 310.677 700.857 310.328C700.328 309.978 699.726 309.751 699.096 309.662C698.465 309.573 697.824 309.625 697.216 309.813C696.608 310.002 696.045 310.323 695.578 310.753C687.913 316.951 680.225 323.036 672.504 329.009L651.545 345.488L647.318 348.7C646.666 349.371 646.249 350.242 646.142 351.176C646.035 352.11 646.238 353.052 646.727 353.856L676.392 396.197C676.488 396.619 676.663 397.02 676.899 397.38C677.434 398.217 678.227 398.854 679.161 399.19C680.096 399.527 681.114 399.544 682.054 399.24L682.898 398.817C683.247 398.581 683.563 398.296 683.833 397.972C694.745 390.121 705.163 381.597 715.017 372.449C717.888 369.744 720.763 367.04 723.47 364.25C723.853 363.857 724.168 363.399 724.399 362.899L727.016 362.392C728.952 362.138 730.899 362.054 732.847 362.138C732.875 362.356 732.959 362.562 733.1 362.729C739.994 376.093 748.386 388.626 758.116 400.084C760.823 403.296 763.694 406.423 766.57 409.466C768.258 411.156 770.796 410.902 772.569 409.466L776.711 406.085L777.809 405.24L778.4 404.733L780.431 403.212C783.301 401.014 786.262 398.901 789.307 396.789C795.222 392.732 801.39 388.844 807.643 385.295C811.194 383.266 814.829 381.322 818.459 379.463C819.427 378.883 820.125 377.947 820.412 376.858C820.694 375.768 820.542 374.61 819.985 373.632ZM687.125 385.041H687.041L686.534 385.379L685.352 386.393L683.157 387.999L681.717 389.013L656.109 352.503L665.238 345.32L689.326 326.388L697.604 319.796C705.467 331.57 712.687 343.757 719.244 356.307C718.94 356.618 718.709 356.994 718.569 357.405L717.55 358.165C707.96 367.725 697.796 376.7 687.125 385.041ZM776.88 395.352L769.952 400.676C768.342 398.986 766.738 397.211 765.219 395.436L761.583 391.126C761.077 390.45 760.486 389.774 759.979 389.013L759.135 387.999L758.707 387.407C754.272 381.579 750.153 375.513 746.371 369.237C744.682 366.364 743.073 363.49 741.469 360.532L771.556 330.783L776.88 325.459C785.84 338.896 794.799 352.165 804.007 365.434C806.039 368.392 808.065 371.35 810.181 374.223C798.576 380.435 787.444 387.498 776.88 395.352Z" fill="#CE9C5C"/>
<path d="M480.407 685.065C460.039 676.528 441.192 665.035 422.515 653.459C418.881 652.102 413.049 646.525 408.401 645.259C408.401 636.214 399.189 627.767 390.822 628.189C390.512 625.775 389.598 623.478 388.165 621.514C386.731 619.55 384.826 617.98 382.624 616.944C382.35 616.736 382.032 616.595 381.694 616.522C379.92 608.581 375.525 601.563 367.75 598.862C342.902 592.356 320.929 617.541 319.07 641.792C317.887 635.877 309.858 635.286 310.618 643.233C310.534 643.148 310.449 642.129 310.534 642.81C310.618 643.565 310.618 644.33 310.534 645.09C309.942 648.05 309.52 648.979 307.66 651.765H307.576V651.933C306.938 652.727 306.231 653.464 305.463 654.134H305.294C304.707 654.579 304.085 654.973 303.435 655.316H303.266C303.097 655.485 302.928 655.485 302.928 655.4L301.745 655.822H301.406C301.237 655.822 301.153 655.822 301.237 655.738H300.308C284.166 651.765 289.321 621.931 299.462 609.679C304.364 602.919 312.224 598.524 317.548 597.933C322.873 597.342 323.549 597.764 327.267 598.693C332.508 600.128 334.789 591.934 329.55 590.493C300.899 582.636 279.433 615.171 281.546 640.948C283.658 666.724 314.083 673.573 318.985 645.343C318.966 651.022 320.329 656.622 322.958 661.653C332.169 677.203 351.608 670.95 355.579 654.978C359.129 644.837 349.241 640.948 347.72 648.979C347.889 649.316 347.636 651.427 347.72 651.68C347.545 652.575 347.291 653.453 346.959 654.303H347.044V654.472L346.875 654.809C346.384 655.85 345.79 656.841 345.1 657.77C344.343 658.721 343.493 659.599 342.565 660.387H342.227L340.198 661.568H340.283C340.198 661.568 340.114 661.569 340.114 661.653H339.944C339.776 661.737 339.691 661.653 339.691 661.653L338.423 661.991H337.156L336.564 661.822L335.719 661.568C333.835 660.702 332.183 659.396 330.902 657.77C330.817 657.685 330.733 657.685 330.733 657.601C325.239 650.329 327.774 636.637 330.902 629.286C332.643 625.217 334.886 621.385 337.578 617.879V618.047L337.747 617.794C339.718 615.273 341.988 612.999 344.509 611.029L344.086 611.367C351.438 604.945 361.834 604.692 367.158 606.718H367.242C368.088 607.568 368.933 608.497 369.693 609.425C370.842 610.939 371.807 612.583 372.567 614.327C373.403 616.336 373.998 618.436 374.342 620.58C374.638 623.219 374.638 625.887 374.342 628.527V628.78C374.081 630.727 373.657 632.646 373.074 634.526C371.637 639.681 379.666 641.961 381.187 636.89C381.948 639.766 386.005 641.454 388.371 638.922C388.938 638.145 389.447 637.323 389.892 636.468C390.062 636.299 390.315 636.299 391.076 636.13H392.85C395.639 636.89 396.4 637.402 398.512 639.766C398.957 640.441 399.352 641.145 399.696 641.876C399.696 641.961 399.78 641.961 399.78 642.045C400.038 642.726 400.208 643.435 400.288 644.161C400.372 644.499 400.288 644.921 400.372 645.343L400.119 645.934C398.259 649.57 387.779 653.374 392.766 659.458C393.474 660.161 394.396 660.606 395.386 660.724V661.568C395.301 662.075 395.048 662.497 394.963 663.009C394.804 663.218 394.662 663.448 394.541 663.685L394.371 663.938C393.243 663.938 392.159 664.377 391.353 665.17C390.547 665.958 390.083 667.033 390.062 668.164C392.935 678.644 405.274 667.996 403.837 660.724C403.82 659.053 403.353 657.421 402.485 655.991C403.783 654.989 404.948 653.824 405.95 652.53C430.205 665.795 453.193 684.052 479.73 691.993C482.773 691.993 483.703 686.585 480.407 685.065ZM307.407 652.187C307.412 652.125 307.442 652.063 307.491 652.018C307.442 652.063 307.412 652.125 307.407 652.187ZM330.986 658.867L330.648 658.361L330.986 658.867ZM366.82 607.315C365.721 606.634 366.313 606.887 366.82 607.315V607.315ZM382.624 630.553V631.481C382.455 632.157 382.202 632.753 382.033 633.344C382.037 633.389 382.031 633.434 382.016 633.479C382.002 633.524 381.979 633.564 381.948 633.597V633.766C382.201 632.241 382.455 630.637 382.624 629.033C382.648 629.32 382.704 629.602 382.793 629.877C382.286 628.105 382.709 630.131 382.624 630.553ZM395.724 661.653H395.555L396.4 661.822L395.724 661.653ZM399.865 646.609C399.949 646.525 399.949 646.356 400.034 646.272C399.949 646.356 399.949 646.525 399.865 646.609Z" fill="#452D34"/>
<path d="M301.658 655.991C301.494 655.935 301.316 655.935 301.152 655.991H301.658Z" fill="#452D34"/>
<path d="M340.028 662.075L339.522 662.244H339.943C339.921 662.233 339.904 662.216 339.896 662.193C339.888 662.171 339.89 662.143 339.901 662.12C339.913 662.098 339.932 662.081 339.956 662.075C339.979 662.064 340.006 662.064 340.028 662.075Z" fill="#452D34"/>
<path d="M342.395 660.64C342.319 660.64 342.244 660.662 342.182 660.707C342.121 660.752 342.077 660.819 342.058 660.892L342.227 660.724L342.395 660.64Z" fill="#452D34"/>
<path d="M346.874 654.641C346.79 654.641 346.705 654.978 346.705 655.062L346.874 654.725V654.641Z" fill="#452D34"/>
<path d="M270.813 645.681C270.621 646.745 270.338 647.791 269.968 648.81H270.052L269.883 648.979C269.798 649.232 269.798 649.148 269.798 649.063C267.94 652.868 266.503 654.387 263.122 656.245L261.347 656.751H260.671C258.474 656.835 255.178 654.303 254.079 652.868C244.36 638.837 254.924 614.159 268.024 604.861C274.109 600.888 277.912 599.621 285.349 600.212C287.076 600.477 288.773 600.899 290.42 601.479C295.575 603.004 297.942 594.804 292.617 593.284C264.39 583.903 241.149 615.34 241.909 641.117C242.67 666.893 271.827 675.261 278.926 648.135C281.715 636.299 269.038 636.552 270.813 645.681Z" fill="#452D34"/>
<path d="M269.967 648.81L269.798 649.147C269.847 649.102 269.877 649.04 269.882 648.979L269.967 648.81Z" fill="#452D34"/>
<path d="M929.005 343.883C934.075 347.01 939.231 350.221 945.061 351.404C950.898 352.587 957.657 351.151 961.292 346.502C964.922 341.854 964.754 334.755 962.981 328.923C961.208 323.092 958.248 317.514 957.319 311.429C956.39 305.344 957.91 297.738 957.572 290.892C956.728 272.553 942.191 257.51 926.134 248.551C921.486 246.015 916.499 243.565 913.708 239.086C910.922 234.606 911.26 231.987 910.331 228.437C908.778 222.473 905.998 216.897 902.171 212.066C898.344 207.236 893.554 203.255 888.101 200.378C883.283 197.843 877.452 196.237 872.466 198.266C863.844 201.731 862.156 213.14 863.253 222.352C865.538 243.142 875.764 264.524 885.821 282.864C903.904 315.993 929.005 343.883 929.005 343.883Z" fill="#EFDCC4"/>
<path d="M875.088 206.548L874.751 206.801C874.751 206.97 874.751 206.885 875.088 206.548Z" fill="#452D34"/>
<path d="M964.247 313.711C967.799 277.286 955.203 261.313 923.259 243.65C914.637 236.973 920.726 221.169 900.527 205.027C878.972 186.687 857.423 200.294 862.071 227.677C865.369 251.679 876.608 273.906 888.523 294.781C900.094 314.217 913.387 332.574 928.245 349.63C928.481 349.979 928.769 350.292 929.089 350.559L929.849 351.067C941.347 359.603 961.799 364.927 969.487 349.123C974.98 337.038 966.448 325.459 964.247 313.711ZM962.812 342.446C962.745 342.546 962.716 342.665 962.728 342.784C962.559 343.376 962.474 343.967 962.306 344.559C962.204 344.75 962.12 344.947 962.052 345.151C961.293 347.264 960.702 347.348 959.261 348.869C957.826 350.391 952.417 351.32 949.964 350.898C944.049 349.968 939.822 347.264 934.582 344.052C906.611 311.007 878.297 270.187 870.44 227.254C869.506 218.802 869.849 211.45 874.746 206.802L875.089 206.548C875.128 206.496 875.179 206.453 875.235 206.424C875.292 206.394 875.359 206.379 875.427 206.379L876.524 205.788C876.822 205.641 877.132 205.528 877.453 205.449L878.803 205.111C879.845 204.985 880.891 204.985 881.933 205.111C890.217 206.548 897.398 212.802 901.878 218.211C903.735 220.409 906.78 226.24 907.202 227.169C912.948 252.439 918.272 249.397 936.445 261.82C940.666 265.086 944.471 268.862 947.769 273.061C948.782 274.075 952.417 279.991 953.599 282.864C955.631 287.259 956.813 294.781 956.053 301.204C953.261 313.543 960.19 327.572 962.728 337.545C962.88 339.174 962.908 340.812 962.812 342.446Z" fill="#452D34"/>
<path d="M886.496 227.001C886.412 226.747 886.496 226.071 886.412 225.902C886.328 225.733 886.328 227.001 886.496 226.071C886.665 225.141 885.99 226.831 886.412 226.155L886.918 225.395C887.087 225.141 887.003 225.225 886.581 225.733L887.003 225.31L887.594 224.803L887.341 224.972H887.594L888.016 224.718C888.438 224.465 888.354 224.55 887.763 224.803L888.522 224.55H888.438C888.607 224.634 889.113 224.465 889.367 224.465C889.626 224.465 888.607 224.211 889.451 224.465L890.216 224.718C889.535 224.296 891.061 224.972 890.216 224.718L891.229 225.31C890.554 224.718 891.905 225.648 891.229 225.31C891.691 225.689 892.119 226.114 892.496 226.578C892.749 226.831 892.665 226.747 892.327 226.324C892.389 226.499 892.507 226.647 892.665 226.747C892.772 227.017 892.918 227.273 893.087 227.508C893.233 227.745 893.351 228 893.424 228.268V228.015L893.678 228.522C893.948 229.135 894.094 229.796 894.1 230.466C894.015 229.959 894.015 229.874 894.1 230.381C894.089 230.582 894.117 230.784 894.184 230.973V232.24C894.173 232.976 894.117 233.709 894.015 234.437C894.032 234.694 894.004 234.951 893.931 235.198L893.678 236.297C893.509 237.142 893.34 237.987 893.087 238.832C892.89 239.379 892.805 239.96 892.845 240.54C892.878 241.121 893.036 241.687 893.301 242.204C893.565 242.721 893.937 243.178 894.387 243.546C894.837 243.914 895.355 244.186 895.918 244.343C896.475 244.5 897.06 244.541 897.64 244.461C898.214 244.381 898.765 244.184 899.261 243.881C899.756 243.578 900.189 243.176 900.521 242.7C900.853 242.224 901.084 241.684 901.202 241.114C902.975 234.86 903.65 227.423 899.593 221.845C897.78 219.215 895.13 217.279 892.074 216.352C890.554 215.927 888.956 215.835 887.397 216.083C885.832 216.331 884.346 216.913 883.03 217.789C880.075 219.817 877.706 223.197 878.128 227.001C878.296 229.198 879.906 231.31 882.354 231.226C884.808 231.142 886.75 229.367 886.581 227.001H886.496Z" fill="#D13535"/>
<path d="M917.512 272.3C917.934 271.624 917.343 272.553 917.259 272.469C917.174 272.385 917.596 272.215 917.596 272.131L918.018 271.793C917.934 271.962 917.174 272.385 917.765 272.046L918.103 271.877C918.525 271.624 918.356 271.962 917.765 271.962L918.694 271.708C919.369 271.539 918.356 271.793 918.272 271.708H920.303C920.219 271.793 919.2 271.539 919.966 271.708L920.979 271.962L921.992 272.3H921.739L922.161 272.469C922.813 272.804 923.438 273.201 924.018 273.652C924.018 273.736 923.343 273.06 923.849 273.483L924.271 273.821L924.952 274.582L925.29 275.004C925.29 275.004 924.693 274.159 925.205 274.751L925.881 275.765L926.809 277.54C927.147 278.216 926.64 277.37 926.64 277.286L926.894 277.793C926.978 278.131 927.147 278.554 927.231 278.977C927.451 279.61 927.62 280.26 927.738 280.92C927.738 280.92 927.738 281.343 927.822 281.428C927.907 281.512 927.653 280.328 927.738 281.089C927.805 281.48 927.834 281.876 927.822 282.272C927.907 282.946 927.907 283.628 927.822 284.301C927.839 284.669 927.811 285.038 927.738 285.399C927.738 285.906 927.569 285.653 927.822 285.062C927.755 285.279 927.727 285.509 927.738 285.738L927.231 287.766C927.158 288.115 927.046 288.456 926.894 288.78C926.877 288.96 926.821 289.133 926.725 289.287C926.64 289.456 926.303 290.132 926.64 289.541C926.978 288.949 926.64 289.456 926.64 289.625L926.303 290.217C926.156 290.609 925.954 290.978 925.712 291.315L925.121 292.33L924.778 292.752C924.356 293.428 925.205 292.245 924.862 292.668L923.258 294.442L922.329 295.203C922.329 295.203 923.174 294.612 922.498 295.034L921.823 295.541C920.05 296.724 919.031 299.26 920.388 301.288C921.739 303.316 924.187 304.077 926.134 302.809C929.376 300.573 932.01 297.562 933.799 294.049C935.583 290.537 936.461 286.634 936.36 282.695C936.107 274.497 931.542 266.384 923.342 263.933C921.069 263.216 918.649 263.128 916.33 263.679C913.798 264.332 911.603 265.897 910.162 268.074C908.89 269.934 909.824 272.892 911.681 273.906C912.666 274.443 913.814 274.585 914.901 274.302C915.981 274.02 916.915 273.333 917.512 272.385V272.3Z" fill="#D13535"/>
<path d="M934.666 316.247L935.6 315.824L934.581 316.247L936.782 315.655L935.685 315.824C936.495 315.74 937.317 315.74 938.133 315.824L937.035 315.655C937.93 315.818 938.808 316.073 939.652 316.415L938.639 315.993L939.99 316.669C940.333 316.923 940.84 317.515 939.906 316.585L940.502 317.092L941.009 317.683C941.431 318.191 940.333 316.754 940.924 317.599L941.684 318.951L941.262 317.937C941.549 318.73 941.746 319.552 941.853 320.388V319.289C941.937 320.132 941.937 320.981 941.853 321.825V320.726C941.735 321.532 941.538 322.325 941.262 323.092L941.684 322.078L941.093 323.261L940.755 323.768L941.093 323.261L940.924 323.6C940.136 324.385 939.68 325.444 939.652 326.558C939.647 327.111 939.759 327.661 939.973 328.171C940.193 328.68 940.519 329.138 940.924 329.515C942.444 331.036 945.32 331.375 946.839 329.515C948.483 327.79 949.574 325.612 949.963 323.261C950.475 320.839 950.3 318.321 949.456 315.993C948.606 313.599 947.07 311.507 945.044 309.976C943.018 308.444 940.587 307.539 938.048 307.373C935.409 307.132 932.758 307.691 930.445 308.979C929.477 309.559 928.779 310.494 928.492 311.584C928.211 312.674 928.363 313.832 928.92 314.81C929.499 315.755 930.428 316.435 931.503 316.704C932.578 316.973 933.715 316.808 934.666 316.247Z" fill="#D13535"/>
<path d="M890.385 252.862C885.399 260.89 890.301 272.976 899.593 275.089C901.793 275.596 904.326 274.412 904.832 272.131C905.119 271.055 904.967 269.91 904.416 268.945C903.859 267.98 902.947 267.272 901.878 266.975L900.78 266.637C900.015 266.384 901.709 267.06 901.033 266.806L900.527 266.553L899.593 265.876C898.917 265.539 900.358 266.553 899.846 266.13L899.339 265.707L898.58 264.862C898.422 264.762 898.304 264.614 898.242 264.44C899.086 265.454 898.58 264.947 898.411 264.693C898.186 264.374 897.983 264.035 897.82 263.679L897.567 263.172C897.482 263.003 897.06 262.242 897.398 263.003C897.736 263.764 897.482 263.003 897.398 262.834C897.302 262.68 897.246 262.507 897.229 262.327C897.077 261.945 896.964 261.548 896.891 261.144C896.891 260.975 896.807 260.214 896.891 261.059C896.976 261.905 896.891 261.144 896.891 260.975V259.2C896.976 258.355 896.722 260.045 896.807 259.622L897.06 258.439C897.156 258.285 897.212 258.112 897.229 257.932C897.482 257.087 896.891 258.608 897.145 258.27L897.735 257.087C898.298 256.112 898.445 254.955 898.152 253.869C897.859 252.783 897.145 251.858 896.171 251.298C895.197 250.738 894.038 250.587 892.952 250.881C891.866 251.174 890.942 251.886 890.385 252.862Z" fill="#D13535"/>
<path d="M763.44 253.791C765.14 255.306 766.699 256.976 768.089 258.778L767.498 257.932C769.192 260.222 770.638 262.687 771.809 265.285L771.387 264.356C771.494 264.707 771.635 265.047 771.809 265.37C772.119 266.405 772.771 267.301 773.666 267.905C774.685 268.418 775.85 268.568 776.964 268.327C778.99 267.651 780.769 265.285 779.925 263.088C777.724 257.236 774.128 252.012 769.445 247.875C768.618 247.095 767.537 246.644 766.401 246.607C765.849 246.6 765.297 246.71 764.785 246.929C764.279 247.146 763.817 247.469 763.44 247.875C762.005 249.396 761.667 252.27 763.44 253.791Z" fill="white"/>
<path d="M785.502 293.09C795.126 313.446 808.92 331.556 825.984 346.249C830.942 350.507 836.131 354.485 841.534 358.166C842.514 358.724 843.667 358.878 844.759 358.594C845.851 358.31 846.785 357.61 847.365 356.645C847.883 355.658 848.012 354.513 847.731 353.435C847.449 352.356 846.78 351.422 845.845 350.813L839.081 346.081L838.321 345.489C838.152 345.32 837.308 344.644 838.067 345.235L836.463 343.967L833.25 341.347C829.029 337.845 825.022 334.091 821.251 330.107C817.525 326.23 814.002 322.168 810.687 317.937C810.603 317.853 809.843 316.923 810.434 317.768C810.282 317.455 810.085 317.169 809.843 316.923L808.571 315.233L806.207 311.937C804.575 309.683 803.05 307.401 801.643 305.091C798.356 299.839 795.39 294.393 792.768 288.78C791.839 286.836 788.794 286.16 787.022 287.259C785.249 288.357 784.489 290.893 785.502 293.09Z" fill="white"/>
<path d="M693.04 295.879C696.608 295.608 700.058 294.523 703.137 292.706C706.215 290.889 708.832 288.389 710.791 285.399C711.083 284.922 711.28 284.39 711.37 283.836C711.455 283.281 711.432 282.716 711.297 282.171C711.162 281.626 710.92 281.113 710.588 280.663C710.25 280.212 709.834 279.833 709.35 279.547C708.866 279.26 708.331 279.073 707.774 278.996C707.223 278.919 706.654 278.953 706.114 279.096C705.568 279.24 705.061 279.49 704.617 279.832C704.172 280.174 703.801 280.601 703.525 281.089L702.76 282.188C703.525 281.004 702.76 282.188 702.506 282.526L700.565 284.385C700.396 284.469 699.72 284.977 700.396 284.469C701.071 283.962 700.311 284.469 700.227 284.639L699.129 285.315L696.676 286.582L697.689 286.076C696.18 286.731 694.588 287.185 692.956 287.427L694.059 287.259L693.04 287.427C691.92 287.456 690.845 287.874 690.001 288.611C689.23 289.436 688.808 290.525 688.819 291.654C688.903 293.766 690.676 296.048 693.04 295.879Z" fill="white"/>
<path d="M987.828 256.749L991.632 257.848L993.489 258.524L994.418 258.862C994.84 259.031 994.756 259.031 994.249 258.862L994.84 259.115C997.243 260.14 999.562 261.355 1001.77 262.749L1004.98 264.947L1005.57 265.37C1005.66 265.454 1006.59 266.13 1005.74 265.539L1007.52 266.975C1009.53 268.676 1011.42 270.511 1013.18 272.469C1014.11 273.398 1014.95 274.412 1015.8 275.426L1016.39 276.187C1016.48 276.356 1017.16 277.201 1016.56 276.356L1017.91 278.216C1019.54 280.528 1021.03 282.926 1022.39 285.399L1024.25 289.033C1024.6 289.693 1024.9 290.37 1025.18 291.061L1025.69 292.076L1025.94 292.837C1027.04 295.541 1028.06 298.33 1028.9 301.203C1029.74 304.077 1030.76 307.711 1031.43 310.923C1031.78 312.697 1032.11 314.388 1032.37 316.078C1032.55 316.943 1032.69 317.817 1032.79 318.698C1032.87 319.036 1032.87 319.374 1032.96 319.796C1032.96 319.966 1033.04 320.219 1033.04 320.473C1033.3 322.67 1034.82 324.867 1037.27 324.698C1039.72 324.529 1041.83 322.839 1041.49 320.473C1039.8 307.542 1036.68 294.78 1030.76 283.118C1025.41 272.485 1017.47 263.362 1007.69 256.58C1002.34 252.909 996.388 250.192 990.107 248.551C989.572 248.401 989.01 248.359 988.452 248.427C987.901 248.494 987.361 248.67 986.877 248.945C986.387 249.22 985.959 249.588 985.616 250.027C985.273 250.467 985.019 250.971 984.867 251.509C984.721 252.048 984.676 252.61 984.744 253.165C984.811 253.719 984.986 254.255 985.261 254.742C985.537 255.228 985.903 255.656 986.348 256C986.787 256.345 987.287 256.599 987.828 256.749Z" fill="white"/>
<path d="M1024.51 364.335C1024.51 365.096 1024.51 365.941 1024.42 366.786V365.687C1024.27 367.09 1023.9 368.46 1023.32 369.744L1023.75 368.73C1023.21 370.057 1022.5 371.307 1021.64 372.448L1022.31 371.603C1021.79 372.262 1021.22 372.884 1020.62 373.462C1020.22 373.848 1019.91 374.308 1019.7 374.816C1019.49 375.324 1019.37 375.869 1019.37 376.42C1019.37 376.971 1019.49 377.517 1019.7 378.025C1019.91 378.533 1020.22 378.993 1020.62 379.378C1021.42 380.158 1022.5 380.594 1023.62 380.594C1024.74 380.594 1025.82 380.158 1026.62 379.378C1028.65 377.442 1030.25 375.105 1031.33 372.515C1032.41 369.925 1032.93 367.139 1032.87 364.335C1032.79 362.053 1031.01 359.94 1028.65 360.109C1027.53 360.109 1026.45 360.554 1025.66 361.347C1024.87 362.139 1024.42 363.214 1024.42 364.335H1024.51Z" fill="white"/>
<path d="M975.232 632.669C988.672 637.143 1004.31 632.922 1014.36 623.118C1017.2 620.349 1019.54 617.119 1021.29 613.567C1022.31 611.62 1021.89 608.919 1019.77 607.821C1017.66 606.718 1015.04 607.23 1014.03 609.341C1013.35 610.731 1012.56 612.059 1011.66 613.314L1010.98 614.243C1010.81 614.496 1010.9 614.665 1011.15 614.074L1010.81 614.496L1009.29 616.184L1005.91 619.314L1006.08 619.145L1005.57 619.482L1004.81 620.073L1002.7 621.424C1001.4 622.229 1000.05 622.938 998.645 623.54C998.307 623.709 998.307 623.878 998.814 623.456L998.307 623.709L997.379 624.047L995.009 624.807C993.54 625.206 992.043 625.516 990.529 625.735C989.77 625.904 991.379 625.651 990.36 625.82H983.095C983.095 625.82 982.504 625.82 982.504 625.735H982.673C980.928 625.414 979.211 624.992 977.517 624.469C976.983 624.311 976.426 624.266 975.874 624.322C975.322 624.384 974.788 624.553 974.304 624.818C973.814 625.088 973.386 625.448 973.038 625.881C972.689 626.315 972.43 626.81 972.278 627.345C972.013 628.425 972.171 629.573 972.717 630.547C973.268 631.521 974.169 632.247 975.232 632.584V632.669Z" fill="white"/>
</svg>
