<svg width="1127" height="1126" viewBox="0 0 1127 1126" fill="none" xmlns="http://www.w3.org/2000/svg">
<path d="M979.925 223.683C967.363 223.683 965.889 210.946 964.33 201.241L957.137 210.253C946.742 223.337 926.116 208.953 934.783 194.656C915.462 197.688 908.179 167.535 938.767 166.062C929.149 161.209 918.231 154.451 924.731 142.146C932.532 129.929 943.878 136.861 953.153 142.753C950.553 132.269 947.952 118.925 961.904 115.718C975.856 112.512 978.625 127.07 980.099 137.814C986.51 128.976 994.828 118.145 1006.53 126.81C1016.84 135.734 1009.47 146.046 1002.28 153.931C1026.81 145.266 1034.86 172.647 1015.97 179.146C1029.57 189.11 1015.71 210.426 1000.98 202.021L991.277 196.389C994.226 208.346 996.302 222.124 979.925 223.683ZM966.322 189.803C967.132 189.811 967.909 190.101 968.528 190.623C969.147 191.146 969.558 191.867 969.704 192.663L973.256 211.206C974.815 219.871 988.333 217.358 986.6 208.693L983.048 190.237C982.93 189.589 982.998 188.921 983.245 188.311C983.493 187.701 983.909 187.175 984.444 186.793C984.984 186.411 985.615 186.19 986.273 186.155C986.932 186.12 987.585 186.274 988.159 186.597L1004.45 196.042C1011.99 200.548 1018.92 188.591 1011.21 184.258L1004.71 180.445C1001.94 178.972 1002.71 174.553 1005.75 174.12L1013.9 172.56C1022.56 171 1019.96 157.483 1011.38 159.217L994.394 162.422C991.367 163.116 989.025 159.303 991.018 156.877L1003.24 141.713C1008.78 134.868 998.036 126.203 992.667 133.221L980.792 147.952C980.381 148.455 979.829 148.832 979.216 149.038C978.597 149.244 977.933 149.272 977.297 149.118C976.666 148.965 976.087 148.635 975.631 148.168C975.18 147.702 974.865 147.116 974.725 146.479C973.43 143.013 972.473 125.337 968.314 123.517C963.547 120.051 956.529 124.73 957.829 130.449C957.655 133.221 963.637 150.811 959.996 152.371C959.45 152.733 958.814 152.941 958.156 152.971C957.503 153.002 956.85 152.854 956.27 152.545L939.983 143.1C938.413 142.217 936.567 141.986 934.828 142.456C933.094 142.927 931.614 144.06 930.708 145.613C930.264 146.385 929.971 147.239 929.853 148.124C929.74 149.01 929.796 149.91 930.033 150.772C930.264 151.635 930.669 152.442 931.215 153.147C931.761 153.853 932.447 154.443 933.224 154.884L950.204 164.675C952.978 166.149 952.201 170.568 949.168 171.087L930.534 174.64C921.957 176.113 924.382 189.717 933.049 187.984L942.493 186.164C945.527 185.471 947.778 189.37 945.786 191.71L941.193 197.429C935.65 204.187 946.393 212.939 951.768 205.92C953.586 204.534 963.637 189.023 966.322 189.803Z" fill="#D13535"/>
<path d="M162.306 466.82C149.742 466.907 148.27 454.083 146.709 444.465L139.518 453.39C129.12 466.56 108.497 452.176 117.163 437.88C97.8395 440.912 90.5608 410.758 121.148 409.199C111.53 404.433 100.612 397.588 107.111 385.37C114.909 373.153 126.26 380.085 135.532 385.977C132.932 375.406 130.333 362.148 144.283 358.942C158.234 355.737 161.007 370.293 162.48 381.038C168.892 372.199 177.21 361.368 188.821 369.947C200.432 378.525 191.854 389.183 184.662 397.154C209.183 388.403 217.242 415.784 198.352 422.283C211.956 432.334 198.092 453.65 183.362 445.158L173.657 439.526C176.69 451.31 178.423 465.52 162.306 466.82ZM148.702 433.027C149.499 433.031 150.269 433.309 150.884 433.813C151.5 434.319 151.923 435.02 152.082 435.8L155.634 454.429C157.194 463.095 170.712 460.495 168.978 451.917C169.152 449.231 163.173 431.468 166.812 429.994C167.352 429.613 167.99 429.394 168.65 429.364C169.31 429.333 169.965 429.492 170.538 429.821L186.828 439.179C187.596 439.631 188.445 439.927 189.327 440.049C190.209 440.172 191.107 440.119 191.968 439.894C192.83 439.668 193.638 439.275 194.347 438.736C195.057 438.197 195.652 437.523 196.099 436.753C199.998 430.081 191.68 426.095 187.001 423.669C184.315 422.196 185.095 417.777 188.128 417.257C193.327 416.39 203.291 415.611 201.645 407.812C198.872 394.815 178.163 410.152 173.137 404C172.795 403.395 172.637 402.704 172.683 402.011C172.729 401.318 172.977 400.654 173.397 400.101L185.615 384.851C191.16 378.092 180.416 369.427 175.044 376.359L163.173 391.176C162.759 391.679 162.212 392.056 161.593 392.262C160.975 392.468 160.311 392.496 159.678 392.342C159.045 392.188 158.467 391.859 158.013 391.393C157.558 390.925 157.244 390.34 157.108 389.702C154.941 383.984 156.068 363.361 145.583 365.701C143.827 366.037 142.275 367.055 141.268 368.533C140.261 370.011 139.881 371.829 140.211 373.586L143.764 392.042C143.881 392.69 143.812 393.358 143.565 393.968C143.316 394.577 142.9 395.104 142.364 395.486C141.827 395.868 141.193 396.089 140.536 396.123C139.878 396.158 139.225 396.005 138.651 395.682L122.361 386.323C114.823 381.818 107.891 393.775 115.602 398.021L132.586 407.899C133.213 408.23 133.72 408.749 134.035 409.384C134.351 410.019 134.458 410.736 134.344 411.436C134.229 412.136 133.897 412.781 133.395 413.281C132.893 413.782 132.246 414.112 131.546 414.224L112.916 417.864C104.251 419.337 106.764 432.941 115.429 431.121L124.787 429.388C125.481 429.255 126.199 429.336 126.845 429.622C127.491 429.908 128.034 430.385 128.402 430.988C128.769 431.591 128.944 432.292 128.901 432.997C128.86 433.703 128.603 434.378 128.167 434.933L123.575 440.653C118.029 447.411 128.773 456.076 134.146 449.144C135.965 447.757 146.017 432.16 148.702 433.027Z" fill="#D13535"/>
<path d="M803.162 353.31C802.244 353.31 801.361 352.945 800.714 352.295C800.061 351.645 799.695 350.763 799.695 349.844V267.701C799.695 266.782 800.061 265.9 800.714 265.25C801.361 264.6 802.244 264.234 803.162 264.234C804.085 264.234 804.963 264.6 805.615 265.25C806.263 265.9 806.628 266.782 806.628 267.701V349.844C806.628 350.763 806.263 351.645 805.615 352.295C804.963 352.945 804.085 353.31 803.162 353.31Z" fill="#CE9C5C"/>
<path d="M773.789 347.505C772.996 347.514 772.225 347.237 771.622 346.725C770.925 346.136 770.491 345.296 770.407 344.388C770.328 343.479 770.609 342.576 771.189 341.873L829.849 271.86C830.446 271.159 831.302 270.724 832.219 270.651C833.136 270.578 834.042 270.873 834.746 271.47C835.449 272.068 835.883 272.919 835.956 273.837C836.029 274.755 835.731 275.665 835.134 276.366L776.474 346.292C776.142 346.674 775.725 346.981 775.264 347.19C774.802 347.399 774.296 347.506 773.789 347.505Z" fill="#CE9C5C"/>
<path d="M835.483 344.818C835.027 344.833 834.571 344.747 834.155 344.568C833.733 344.388 833.361 344.119 833.058 343.779L768.415 279.225C767.779 278.577 767.424 277.706 767.424 276.799C767.424 275.892 767.779 275.021 768.415 274.373C768.741 274.045 769.124 273.785 769.546 273.608C769.974 273.43 770.424 273.339 770.885 273.339C771.347 273.339 771.803 273.43 772.225 273.608C772.647 273.785 773.035 274.045 773.356 274.373L837.909 338.926C838.545 339.574 838.899 340.445 838.899 341.352C838.899 342.26 838.545 343.131 837.909 343.779C837.594 344.106 837.217 344.367 836.8 344.545C836.384 344.724 835.933 344.817 835.483 344.818Z" fill="#CE9C5C"/>
<path d="M844.235 312.238H762.089C761.172 312.238 760.288 311.873 759.641 311.223C758.988 310.573 758.628 309.692 758.628 308.773C758.628 307.853 758.988 306.972 759.641 306.322C760.288 305.672 761.172 305.306 762.089 305.306H844.235C845.152 305.306 846.036 305.672 846.683 306.322C847.336 306.972 847.702 307.853 847.702 308.773C847.702 309.692 847.336 310.573 846.683 311.223C846.036 311.873 845.152 312.238 844.235 312.238Z" fill="#CE9C5C"/>
<path d="M449.982 329.481C448.076 328.961 446.256 328.355 444.436 327.662C441.323 326.265 438.361 324.552 435.598 322.55C433.621 321.021 431.819 319.277 430.226 317.351H430.313C429.966 316.918 428.407 313.971 428.926 315.098C428.666 314.751 428.06 311.892 428.32 313.278C428.233 312.932 428.406 310.766 428.233 312.239C428.06 312.065 429.013 309.899 428.407 311.285C428.643 310.738 428.933 310.216 429.273 309.726C428.406 310.852 429.793 309.292 430.053 309.119C428.493 310.159 431.786 308.253 430.053 309.119C430.486 308.946 431.526 308.772 430.313 308.946C429.099 309.119 432.219 309.206 430.573 308.859C435.945 310.332 438.284 301.928 432.912 300.541C424.16 298.721 417.488 308.599 420.261 316.398C423.034 324.196 429.359 329.221 435.685 332.861C440.45 334.854 449.895 341.786 453.015 334.681C453.307 333.578 453.152 332.404 452.584 331.415C452.017 330.425 451.082 329.699 449.982 329.395V329.481Z" fill="#452D34"/>
<path d="M463.066 347.418C462.57 348.391 461.991 349.319 461.332 350.191L462.026 349.324C461.213 350.353 460.282 351.284 459.253 352.097L460.119 351.403C459.092 352.154 457.989 352.792 456.827 353.31L457.78 352.877C456.54 353.433 455.227 353.813 453.881 354.003L455.094 353.83C448.595 352.877 446.776 362.062 453.534 362.581C460.293 363.101 471.037 356.776 470.951 348.458C470.171 344.905 464.712 344.125 463.066 347.418Z" fill="#452D34"/>
<path d="M688.785 340.486C682.397 334.887 677.304 327.964 673.865 320.198C670.421 312.432 668.715 304.009 668.856 295.516C669.031 274.026 663.656 150.378 577.531 117.105C476.063 77.853 455.268 128.456 425.46 140.24C385.082 156.27 370.005 176.373 354.755 210.946C338.898 246.905 350.162 262.935 319.055 349.584C290.028 430.254 352.155 460.409 316.716 509.018C242.977 610.14 295.66 734.305 334.739 761.859C401.372 808.909 588.534 746.174 523.547 619.41C482.215 538.999 528.746 530.421 528.399 482.591C527.792 406.859 478.923 363.881 433.952 345.512C429.012 343.519 423.467 343.345 418.961 340.399C410.816 335.114 388.894 295.688 407.61 285.464C422.601 277.233 440.71 295.342 447.642 294.215C475.976 289.623 478.836 254.444 502.924 205.4C513.236 184.258 533.944 175.766 549.975 180.705C579.608 189.717 625.706 225.936 629.516 224.636C630.299 224.376 682.808 372.72 607.078 434.327C604.388 451.744 605.17 463.008 605.17 463.008C605.17 463.008 605.429 512.918 621.463 508.325C625.447 509.278 642.776 511.358 643.468 511.791C644.16 512.225 727.083 525.742 727.083 525.742C767.289 446.631 733.583 379.652 688.785 340.486Z" fill="#452D34"/>
<path d="M335.692 348.458C333.199 356.59 331.345 364.905 330.146 373.326C329.891 374.44 330.045 375.609 330.579 376.618C330.847 377.116 331.217 377.551 331.665 377.894C332.113 378.238 332.629 378.482 333.179 378.611C335.258 379.131 338.205 378.005 338.551 375.579C339.763 367.167 341.587 358.856 344.01 350.711C344.302 349.608 344.148 348.434 343.58 347.445C343.012 346.455 342.077 345.729 340.977 345.425C339.875 345.133 338.701 345.287 337.711 345.855C336.722 346.423 335.996 347.358 335.692 348.458Z" fill="white"/>
<path d="M335.085 431.034C336.991 438.14 338.984 445.332 340.717 452.523C341.15 454.257 341.583 456.076 341.93 457.896C342.277 459.715 342.277 459.715 342.363 460.582C342.434 460.776 342.464 460.982 342.45 461.188C342.45 461.275 342.623 461.968 342.537 461.448C342.45 460.929 342.537 461.535 342.537 461.621C342.537 461.708 342.623 462.141 342.623 462.315C342.955 465.451 343.071 468.607 342.97 471.76C342.883 473.319 342.71 474.879 342.537 476.439C342.551 476.787 342.521 477.137 342.45 477.478C342.71 476.525 342.45 477.652 342.363 477.912C342.277 478.172 342.103 479.471 342.017 480.251C341.421 483.328 340.64 486.366 339.677 489.349C339.248 490.881 338.728 492.386 338.117 493.855C337.866 494.62 337.577 495.372 337.251 496.108C337.164 496.281 337.164 496.455 337.077 496.628C336.991 496.801 337.337 495.935 337.164 496.368L336.645 497.581C335.345 500.527 333.872 503.387 332.312 506.159C330.541 509.322 328.603 512.387 326.506 515.344C325.467 516.817 324.427 518.29 323.3 519.676L322.954 520.11L322.174 521.063L320.354 523.316C318.881 525.049 318.535 527.822 320.354 529.468C322.174 531.114 324.86 531.374 326.42 529.468C335.258 519.07 342.537 507.372 347.129 494.462C349.402 488.06 350.83 481.39 351.375 474.619C351.928 467.624 351.431 460.585 349.902 453.737C348.082 445.332 345.656 437.013 343.403 428.695C343.099 427.595 342.373 426.66 341.383 426.092C340.394 425.525 339.22 425.37 338.117 425.662C337.023 426.004 336.101 426.75 335.538 427.748C334.974 428.746 334.812 429.921 335.085 431.034Z" fill="white"/>
<path d="M310.736 545.411L306.75 558.582C306.458 559.684 306.612 560.858 307.18 561.848C307.748 562.837 308.683 563.563 309.783 563.867C310.886 564.16 312.059 564.008 313.049 563.439C314.039 562.871 314.765 561.934 315.068 560.835L319.054 547.751C319.349 546.636 319.197 545.451 318.63 544.448C318.064 543.444 317.128 542.701 316.022 542.378C314.92 542.109 313.757 542.274 312.772 542.838C311.788 543.402 311.06 544.324 310.736 545.411Z" fill="white"/>
<path d="M686.1 362.928C688.526 365.268 690.867 367.694 693.034 370.206L694.677 372.199L695.111 372.719C694.767 372.286 694.767 372.286 695.026 372.719L695.719 373.586C696.76 374.972 697.711 376.359 698.662 377.832C700.497 380.64 702.146 383.563 703.603 386.583C704.037 387.363 704.386 388.056 704.729 388.836L705.252 389.962C705.421 390.482 705.421 390.396 705.162 389.962L705.421 390.482L707.245 395.335C707.937 397.414 710.278 399.061 712.529 398.368C714.781 397.674 716.339 395.335 715.563 392.995C710.892 379.213 702.883 366.8 692.252 356.863C690.518 355.303 687.749 355.043 686.1 356.863C684.451 358.682 684.283 361.368 686.1 362.928Z" fill="white"/>
<path d="M718.765 420.897L720.065 422.37L719.372 421.503C720.363 422.836 721.179 424.293 721.798 425.835L721.365 424.796C722.051 426.372 722.519 428.033 722.755 429.735L722.58 428.608C722.682 429.384 722.738 430.166 722.755 430.948C722.755 432.097 723.211 433.199 724.021 434.011C724.832 434.824 725.935 435.28 727.083 435.28C728.237 435.28 729.334 434.824 730.15 434.011C730.96 433.199 731.416 432.097 731.416 430.948C731.315 424.933 729.002 419.166 724.916 414.744C724.106 413.929 722.997 413.47 721.843 413.47C720.689 413.47 719.581 413.929 718.765 414.744C717.949 415.56 717.493 416.667 717.493 417.821C717.493 418.974 717.949 420.081 718.765 420.897Z" fill="white"/>
<path d="M549.888 166.062L552.227 166.928L551.187 166.495C553.43 167.444 555.577 168.604 557.599 169.961C558.11 170.278 558.602 170.626 559.073 171.001L559.679 171.434C558.553 170.654 559.506 171.347 559.766 171.521C560.026 171.694 561.672 173.08 562.538 173.947C562.934 174.35 563.406 174.671 563.928 174.889C564.446 175.108 565.009 175.221 565.571 175.221C566.134 175.221 566.697 175.108 567.215 174.889C567.738 174.671 568.211 174.35 568.605 173.947C569.01 173.544 569.331 173.065 569.55 172.537C569.77 172.009 569.888 171.443 569.888 170.871C569.888 170.299 569.77 169.733 569.55 169.205C569.331 168.677 569.01 168.197 568.605 167.795C563.967 163.258 558.371 159.823 552.227 157.743C551.681 157.584 551.109 157.534 550.544 157.596C549.978 157.658 549.43 157.83 548.931 158.104C548.432 158.378 547.992 158.747 547.636 159.19C547.28 159.634 547.014 160.143 546.855 160.689C546.583 161.803 546.745 162.978 547.308 163.976C547.871 164.974 548.794 165.72 549.888 166.062Z" fill="white"/>
<path d="M504.916 171.867C494.952 176.373 487.76 185.211 482.648 194.656C477.535 204.1 474.069 215.624 469.737 226.109C469.65 226.282 469.217 227.409 469.564 226.455C469.415 226.939 469.211 227.404 468.957 227.842C468.721 228.528 468.431 229.195 468.09 229.835C467.398 231.308 466.704 232.781 465.924 234.167C464.379 237.1 462.612 239.909 460.639 242.572C459.252 244.392 460.292 247.511 462.198 248.464C464.105 249.418 466.617 248.898 468.09 246.991C475.109 237.633 479.009 226.369 482.994 215.538C483.947 212.938 484.987 210.253 486.027 207.653L486.46 206.7V206.526C486.633 206.006 486.893 205.487 487.067 205.053C487.24 204.62 488.193 202.541 488.8 201.414C489.934 199.087 491.207 196.83 492.613 194.656C493.219 193.616 493.912 192.662 494.605 191.623L495.212 190.843C495.298 190.669 495.905 189.717 495.298 190.669C495.645 190.15 496.165 189.63 496.598 189.11C498.415 186.975 500.416 185.004 502.577 183.218C503.444 182.525 501.884 183.737 502.75 183.131L503.53 182.525C504.132 182.07 504.77 181.665 505.436 181.312C506.631 180.563 507.876 179.897 509.162 179.318C511.242 178.366 511.935 175.246 510.722 173.426C510.143 172.443 509.2 171.727 508.096 171.435C506.993 171.143 505.819 171.298 504.83 171.867H504.916Z" fill="white"/>
<path d="M452.148 259.729C451.554 260.351 450.917 260.93 450.241 261.462L451.108 260.769C449.568 261.965 447.879 262.955 446.082 263.715L447.122 263.282C445.271 264.074 443.316 264.599 441.316 264.841L442.53 264.668H442.096C440.926 264.671 439.804 265.138 438.977 265.968C438.581 266.365 438.269 266.839 438.061 267.36C437.852 267.881 437.751 268.439 437.764 269C437.757 270.131 438.192 271.219 438.977 272.033C439.804 272.863 440.926 273.33 442.096 273.333C445.274 272.947 448.373 272.07 451.281 270.734C453.875 269.482 456.246 267.813 458.3 265.795C458.706 265.392 459.028 264.913 459.248 264.385C459.468 263.856 459.581 263.29 459.581 262.718C459.581 262.146 459.468 261.58 459.248 261.052C459.028 260.524 458.706 260.045 458.3 259.642C457.465 258.863 456.366 258.429 455.224 258.429C454.082 258.429 452.982 258.863 452.148 259.642V259.729Z" fill="white"/>
<path d="M463.412 744.531C476.888 740.04 488.916 732.02 498.245 721.31C507.694 710.605 514.308 697.706 517.481 683.788C519.18 675.999 519.677 667.99 518.954 660.049C518.694 657.792 517.134 655.631 514.622 655.716C512.109 655.8 510.029 657.623 510.289 660.049C510.635 663.33 510.722 666.634 510.549 669.926C510.52 671.575 510.404 673.224 510.203 674.862C510.187 675.273 510.129 675.678 510.029 676.078C509.942 676.86 510.116 675.903 510.116 675.819C510.116 675.729 510.029 676.252 510.029 676.427C510.029 676.595 509.769 678.07 509.596 678.852C509.012 682.139 508.202 685.381 507.17 688.555C506.65 690.114 506.13 691.673 505.523 693.232L505.09 694.273L504.83 694.796V694.622L503.791 697.047C502.373 700.025 500.781 702.917 499.025 705.709L496.252 709.868L494.866 711.691C494.432 712.299 494.866 711.691 494.952 711.601L494.606 712.035L493.739 713.166C491.645 715.704 489.388 718.107 486.98 720.353C485.83 721.546 484.615 722.677 483.341 723.735L481.435 725.294L481.088 725.553H481.175L480.135 726.335C477.124 728.508 473.968 730.478 470.691 732.228L468.178 733.438L466.964 734.046L466.358 734.22L466.012 734.395H465.838L465.145 734.654L463.845 735.171L461.073 736.128C458.906 736.82 457.26 739.156 458.04 741.497C458.363 742.583 459.092 743.506 460.076 744.069C461.06 744.638 462.223 744.801 463.325 744.531H463.412Z" fill="white"/>
<path d="M499.457 610.917C500.09 617.361 502.291 623.546 505.869 628.943C507.169 630.761 509.769 631.802 511.848 630.502C513.928 629.202 514.708 626.512 513.408 624.52C512.605 623.417 511.881 622.263 511.241 621.053L510.288 619.061L509.855 618.025C509.4 616.747 509.024 615.447 508.729 614.125C508.555 613.433 508.469 612.825 508.295 612.217C508.303 612.014 508.273 611.806 508.209 611.609C508.209 611.176 508.209 611.266 508.295 611.958C508.28 611.603 508.222 611.255 508.122 610.917C508.147 610.343 508.052 609.769 507.842 609.228C507.633 608.694 507.315 608.204 506.908 607.799C506.5 607.394 506.013 607.073 505.476 606.865C504.939 606.656 504.365 606.561 503.789 606.583C501.71 606.673 499.284 608.491 499.457 610.917Z" fill="white"/>
<path d="M648.235 293.349C637.058 291.443 626.573 296.728 624.148 305.826C621.722 314.925 629.258 326.016 641.302 329.222C643.739 329.841 646.243 330.133 648.753 330.088C649.794 317.871 651.702 305.393 648.235 293.349Z" fill="#D13535"/>
<path d="M579.089 292.656C587.841 299.241 598.067 304.96 605.428 311.979C607.769 315.098 607.51 319.864 605.603 322.723C604.995 323.156 604.303 324.283 603.61 324.63L604.044 324.37C603.261 324.716 602.395 325.496 601.618 325.756C603.003 325.322 599.795 326.276 599.361 326.276C598.933 326.276 598.933 326.189 599.626 326.276C598.585 326.363 597.543 326.363 596.502 326.276C591.651 323.416 585.499 330.522 592.692 334.161C608.895 339.966 623.021 319.257 611.754 306.173C603.436 297.941 592.776 292.309 583.423 285.117C578.656 282.258 574.238 289.71 579.089 292.656Z" fill="#452D34"/>
<path d="M542.955 283.644C543.128 294.562 526.059 294.562 526.231 283.644C526.405 272.727 543.128 272.813 542.955 283.644Z" fill="#452D34"/>
<path d="M613.747 270.214C613.921 281.045 596.852 281.045 597.026 270.214C597.201 259.383 613.921 259.383 613.747 270.214Z" fill="#452D34"/>
<path d="M510.895 273.334C514.621 270.127 523.373 265.015 527.965 263.369C531.947 261.804 536.066 260.615 540.269 259.816C545.728 258.429 543.389 250.025 538.016 251.411C531.344 252.364 497.464 264.322 504.83 273.334C505.64 274.127 506.728 274.572 507.862 274.572C508.996 274.572 510.085 274.127 510.895 273.334Z" fill="#452D34"/>
<path d="M601.01 249.245C603.526 250.025 605.951 250.977 608.461 251.931C612.722 253.814 616.836 256.015 620.764 258.516C625.531 261.376 629.949 253.837 625.098 251.064C620.246 248.292 600.661 235.294 597.977 243.959C597.684 245.062 597.842 246.235 598.41 247.225C598.973 248.215 599.913 248.941 601.01 249.245Z" fill="#452D34"/>
<path d="M531.992 348.388C543.606 343.79 550.02 332.488 546.321 323.144C542.622 313.8 530.208 309.953 518.596 314.551C506.982 319.149 500.567 330.451 504.267 339.794C507.966 349.138 520.38 352.986 531.992 348.388Z" fill="#D13535"/>
<path d="M564.879 371.853C570.822 374.806 577.378 376.32 584.014 376.275C590.655 376.23 597.183 374.626 603.087 371.593C607.077 369.08 616.695 364.748 612.103 358.942C609.244 355.736 604.995 359.635 603.61 361.108C602.226 362.582 597.2 365.007 596.677 365.007C591.218 367.52 583.248 368.04 579.348 367.434C576.63 366.996 573.962 366.299 571.379 365.354C570.856 365.094 571.379 365.267 571.548 365.441C566.004 361.022 559.159 366.914 564.879 371.853Z" fill="#452D34"/>
<path d="M895.184 697.74C860.696 567.25 740.775 507.979 618.513 505.899C612.361 502.52 610.11 490.216 608.546 480.078C607.938 475.364 607.595 470.62 607.51 465.867C607.617 465.442 607.673 465.006 607.685 464.568C607.307 457.138 607.538 449.691 608.377 442.299C608.636 439.873 608.895 438.227 609.328 435.54C609.508 434.982 609.57 434.391 609.502 433.807C646.501 410.152 656.468 353.657 649.185 295.169C649.36 288.237 635.065 193.876 625.621 223.597C631.941 242.399 636.708 265.015 639.134 283.211C642.516 308.773 643.816 334.941 640.524 360.589C639.483 369.081 636.19 383.724 631.941 393.602C630.298 397.415 625.621 406.773 621.546 411.539C618.158 415.833 614.292 419.729 610.02 423.149C587.84 440.479 553.526 438.919 525.365 429.822C519.993 428.262 517.653 436.753 523.026 438.227C555.606 448.191 580.997 447.325 600.318 438.747C599.361 445.678 597.802 456.51 598.933 463.095C599.361 478.865 599.794 496.801 609.677 509.539C609.643 509.574 609.621 509.615 609.604 509.66C609.592 509.704 609.587 509.751 609.587 509.799C607.769 522.449 603.953 531.807 596.333 542.032C588.707 552.257 576.573 560.921 563.663 566.118C550.754 571.319 528.658 575.393 515.92 573.136C512.219 572.641 508.567 571.825 505.003 570.711C499.63 569.152 497.291 577.56 502.663 579.029C519.733 584.404 538.276 582.929 555.259 578.162C574.671 572.619 592.866 561.528 604.735 545.065C608.112 541.079 616.864 524.529 617.821 514.391C622.672 515.431 628.047 514.651 632.898 515.257C671.804 517.683 710.795 525.395 746.926 540.559C783.058 555.722 821.272 583.453 844.667 614.468C857.229 630.812 867.658 648.692 875.689 667.675C880.112 678.211 883.816 689.039 886.776 700.081C888.166 705.45 896.743 703.199 895.184 697.74Z" fill="#452D34"/>
<path d="M845.445 568.892C855.846 589.345 858.187 607.54 855.761 632.145C849.086 700.857 787.91 751.115 719.198 744.446C686.19 741.227 655.805 725.029 634.739 699.411C613.668 673.792 603.645 640.852 606.858 607.844C610.077 574.83 626.275 544.448 651.893 523.38C677.512 502.312 710.452 492.283 743.46 495.501C752.893 496.425 762.196 498.402 771.189 501.393" fill="#EFDCC4"/>
<path d="M731.506 749.815C551.62 743.405 564.271 479.904 743.893 490.822C750.219 492.122 778.815 493.682 775.697 502.953C775.28 504.15 774.413 505.138 773.282 505.705C772.145 506.271 770.834 506.372 769.63 505.985C699.184 480.251 616.87 533.367 611.579 608.317C598.843 712.299 728.472 781.445 807.669 712.901C848.309 681.188 864.681 615.599 841.201 571.06C838.257 565.6 847.009 561.181 849.693 566.726C891.11 645.838 821.705 753.716 731.506 749.815Z" fill="#452D34"/>
<path d="M863.814 507.545C825.949 506.852 822.482 452.004 860.004 446.631C899.951 442.299 907.487 501.48 867.714 507.285C866.425 507.458 865.12 507.545 863.814 507.545ZM863.904 455.903C834.442 456.596 837.216 500.873 866.504 497.841C892.235 494.634 889.551 455.816 863.904 455.903Z" fill="#EFDCC4"/>
<path d="M840.16 485.97L850.735 495.501C860.308 504.11 866.094 516.155 866.82 529.011C867.551 541.866 863.173 554.489 854.63 564.126C849.17 570.109 841.719 566.552 833.75 565.252C804.377 560.315 780.892 534.753 772.748 510.665C770.148 502.953 766.163 495.848 771.622 489.869C780.216 480.3 792.249 474.518 805.086 473.787C817.929 473.057 830.536 477.437 840.16 485.97Z" fill="#D13535"/>
<path d="M846.66 572.27C809.921 571.144 776.733 540.906 768.246 512.224C765.555 504.166 760.62 495.241 768.071 486.663C777.498 476.126 790.724 469.761 804.839 468.965C818.959 468.169 832.815 473.007 843.368 482.417L853.937 491.948C877.766 510.231 879.325 564.559 846.66 572.27ZM807.844 478.432C801.676 478.42 795.581 479.711 789.953 482.22C784.325 484.729 779.288 488.398 775.174 492.988C772.664 495.761 773.44 498.794 775.956 505.639C783.492 531.374 808.446 557.975 839.642 561.614C846.142 563.085 848.827 563.434 851.078 560.921C867.022 543.765 865.379 514.304 847.611 499.054L837.042 489.523C829.011 482.352 818.61 478.402 807.844 478.432Z" fill="#452D34"/>
<path d="M825.69 586.311C825.78 586.396 826.816 587.78 826.906 587.696C826.99 587.611 826.472 587.262 826.647 587.521C826.799 587.594 826.923 587.713 826.99 587.87L827.508 588.647C828.11 589.632 828.662 590.645 829.157 591.68L829.416 592.288L829.241 591.855C829.157 591.855 829.506 592.637 829.59 592.721L830.108 594.539C830.294 595.08 830.44 595.631 830.541 596.188C830.631 596.532 830.631 596.796 830.716 597.139C830.806 597.488 830.806 597.398 830.806 597.573C830.806 597.747 830.716 596.881 830.716 597.229C830.902 598.428 830.964 599.65 830.89 600.865C830.902 601.501 830.873 602.137 830.806 602.773C830.817 603.038 830.789 603.296 830.716 603.55C830.716 603.899 830.716 603.724 830.806 603.206C830.767 603.347 830.738 603.493 830.716 603.64C830.508 604.844 830.221 606.032 829.849 607.191L829.506 608.058C829.416 608.317 829.241 609.183 829.506 608.142C829.269 608.75 828.977 609.33 828.639 609.876C827.598 611.873 828.116 614.732 830.198 615.768C831.189 616.348 832.371 616.522 833.485 616.246C834.599 615.971 835.567 615.273 836.175 614.299C839 608.834 840.086 602.638 839.299 596.537C838.511 590.436 835.877 584.724 831.757 580.16C830.947 579.361 829.86 578.916 828.724 578.916C827.592 578.916 826.5 579.361 825.69 580.16C824.891 580.981 824.446 582.085 824.446 583.233C824.446 584.381 824.891 585.484 825.69 586.311Z" fill="white"/>
<path d="M674.573 536.833C676.341 534.733 678.316 532.818 680.466 531.114C681.248 530.42 679.948 531.46 680.64 530.94L681.507 530.334L683.156 529.207L686.882 527.041L688.7 526.174L689.307 525.915L689.91 525.655L693.81 524.355L697.794 523.489L698.836 523.315C699.185 523.229 699.01 523.315 698.492 523.315H699.01L701.261 523.055C702.409 523.055 703.513 522.599 704.329 521.786C705.139 520.974 705.595 519.872 705.595 518.723C705.51 516.557 703.687 514.304 701.261 514.391C694.986 514.799 688.846 516.449 683.212 519.245C677.573 522.041 672.547 525.928 668.422 530.68C666.948 532.414 666.604 535.186 668.422 536.833C670.24 538.479 673.015 538.652 674.573 536.833Z" fill="white"/>
<path d="M796.059 487.183C785.141 494.201 783.233 511.531 793.026 520.37C794.759 521.842 797.528 522.102 799.177 520.37C800.82 518.637 800.995 515.864 799.177 514.218L797.877 512.918C797.359 512.311 797.793 512.571 797.877 513.004C797.725 512.683 797.522 512.39 797.269 512.138L796.492 510.665L796.318 510.318C796.144 509.885 796.144 509.971 796.402 510.578C796.357 510.334 796.267 510.1 796.143 509.885L795.626 508.152C795.536 507.892 795.536 507.632 795.451 507.372C795.463 507.195 795.434 507.016 795.361 506.852C795.451 507.546 795.451 507.632 795.451 507.286C795.333 506.105 795.305 504.917 795.361 503.733C795.361 503.559 795.451 503.213 795.451 502.953C795.451 502.693 795.361 503.819 795.361 503.299C795.434 503.136 795.463 502.957 795.451 502.78L795.885 501.307C796.003 500.714 796.177 500.135 796.402 499.574C796.577 499.314 796.661 498.967 796.836 498.707C797.072 498.215 797.365 497.75 797.702 497.321L797.961 496.887C798.226 496.541 798.226 496.627 797.793 497.147L798.31 496.541L799.61 495.241L799.869 494.981C800.128 494.808 800.044 494.895 799.52 495.328C799.002 495.761 800.128 494.808 800.387 494.721C801.378 494.126 802.098 493.167 802.391 492.05C802.678 490.933 802.52 489.746 801.952 488.743C800.736 486.836 798.051 485.883 796.059 487.183Z" fill="white"/>
<path d="M831.325 626.253H829.94C829.366 626.191 828.787 626.315 828.291 626.602C827.768 626.782 827.295 627.081 826.907 627.469C826.513 627.857 826.22 628.33 826.04 628.853C825.764 629.394 825.618 629.985 825.607 630.587L825.781 631.712C826.017 632.422 826.4 633.069 826.907 633.62L827.773 634.313C828.438 634.684 829.18 634.892 829.94 634.92H831.325C831.904 634.943 832.478 634.791 832.968 634.487C833.497 634.318 833.97 634.02 834.358 633.62C834.769 633.249 835.073 632.771 835.225 632.236C835.501 631.729 835.647 631.161 835.658 630.587L835.484 629.377C835.225 628.673 834.842 628.032 834.358 627.469L833.491 626.861C832.844 626.45 832.09 626.242 831.325 626.253Z" fill="white"/>
<path d="M612.103 583.621C556.733 578.511 585.933 497.927 631.773 529.554C653.694 546.971 640.091 584.319 612.103 583.621ZM612.187 531.98C583.423 532.587 585.151 576.001 614.095 574.003C640.434 571.318 638.616 532.24 612.187 531.98Z" fill="#D13535"/>
<path d="M711.92 672.178C696.933 652.598 682.891 640.813 661.319 632.928L560.978 634.138C552.328 638.038 544.158 642.924 536.63 648.698C523.576 658.665 512.613 671.103 504.367 685.308C496.122 699.513 490.756 715.198 488.576 731.48C486.395 747.756 487.443 764.302 491.659 780.179C495.875 796.049 503.177 810.935 513.148 823.987C515.227 826.671 517.393 829.271 519.56 831.697C528.744 830.746 537.323 830.662 541.655 832.913C553.353 839.239 551.707 844.264 551.707 844.264C551.778 846.251 551.33 848.221 550.407 849.982L557.512 854.749L559.419 855.7C564.963 858.216 567.737 861.593 568.514 865.06C573.298 866.889 578.188 868.425 583.158 869.652C571.806 863.934 566.871 851.024 581.773 844.18L583.681 843.223L590.784 838.546C589.861 836.757 589.411 834.753 589.484 832.738C589.484 832.738 587.84 827.712 599.535 821.477C606.295 817.835 623.539 820.087 636.967 822.602C636.534 820.351 636.19 818.094 635.757 815.759C634.963 810.986 635.825 806.084 638.211 801.874C640.591 797.665 644.34 794.4 648.842 792.622C668.945 784.647 704.902 770.611 737.049 759.175C739.886 728.052 730.921 696.997 711.92 672.178Z" fill="#D13535"/>
<path d="M583.159 874.419C555.52 868.436 570.946 867.918 557.426 860.034C555 859.082 549.368 855.008 547.201 853.533C545.035 852.064 547.375 846.172 546.941 843.482C541.83 836.554 538.537 834.82 520.08 836.464C463.152 787.162 473.896 689.072 533.771 644.882C541.56 638.893 550.022 633.834 558.986 629.804C560.979 628.51 659.153 628.594 661.23 628.161C683.759 635.179 698.836 647.572 715.731 669.318C735.469 695.066 744.783 727.303 741.817 759.608C741.727 760.508 741.389 761.369 740.838 762.09C740.286 762.81 739.543 763.362 738.693 763.683C706.113 775.203 669.464 789.504 650.576 797.04C640.26 800.94 638.876 812.376 641.65 821.82C643.209 836.464 604.044 813.327 594.251 831.961C594.426 833.52 593.908 833.953 595.034 836.379C597.893 841.838 588.967 845.041 585.759 847.556C582.556 850.066 577.356 851.366 577.266 855.616C577.182 859.859 580.474 862.977 585.325 865.318C590.177 867.659 588.015 874.593 583.159 874.419ZM559.853 850.59C562.625 851.89 565.92 853.623 567.738 855.357C567.22 851.456 571.379 842.789 581.341 839.154L585.066 836.554C584.374 829.445 582.99 825.979 597.285 817.227C599.452 816.101 605.862 812.635 631.075 816.794C630.073 810.924 631.103 804.885 634.002 799.685C636.906 794.484 641.498 790.432 647.019 788.204C665.479 780.837 700.569 767.144 732.542 755.708C734.427 726.746 725.749 698.083 708.111 675.036C693.118 655.457 679.69 644.882 660.453 637.695L562.019 638.905C490.36 670.877 469.217 768.01 521.554 826.761C540.703 823.21 560.025 834.128 556.126 848.074L559.853 850.59Z" fill="#452D34"/>
<path d="M601.01 575.826L615.221 575.567C628.086 575.353 640.513 580.238 649.793 589.148C659.08 598.057 664.466 610.269 664.786 623.135C664.871 631.279 657.07 633.704 650.227 638.212C625.447 654.674 590.784 651.905 568.43 639.856C561.325 635.961 553.526 633.445 553.354 625.302C553.167 612.436 558.07 600.021 566.995 590.752C575.921 581.488 588.15 576.119 601.01 575.826Z" fill="white"/>
<path d="M609.503 654.5C591.91 654.849 549.195 644.713 548.588 625.386C547.462 596.88 572.415 570.975 600.926 571.059C634.891 565.949 668.856 586.48 669.548 623.051C669.464 634.487 660.02 637.52 652.912 642.197C639.568 650.948 624.322 654.5 609.503 654.5ZM616.173 580.244C600.06 579.811 581.859 580.936 570.423 594.021C562.351 602.379 557.926 613.596 558.12 625.217C557.34 629.376 565.397 632.838 570.682 635.612C592.693 647.83 628.307 649.305 652.135 631.538C657.853 628.161 660.02 626.602 660.02 623.219C659.75 611.761 655.017 600.854 646.828 592.828C638.639 584.803 627.642 580.284 616.173 580.244Z" fill="#452D34"/>
<path d="M530.998 651.9C516.008 632.236 501.971 620.535 480.395 612.65L380.056 613.866C371.406 617.761 363.236 622.646 355.708 628.42C335.053 644.201 319.825 666.021 312.139 690.846C304.452 715.676 304.689 742.285 312.816 766.975C323.474 770.177 376.936 786.206 422.081 799.983C430.139 798.165 444.523 800.158 456.047 802.324C455.614 800.073 455.267 797.732 454.834 795.481C454.04 790.708 454.905 785.812 457.286 781.597C459.667 777.387 463.42 774.123 467.918 772.344C488.021 764.375 523.894 750.249 556.127 738.897C558.974 707.774 550.003 676.714 530.998 651.9Z" fill="#D13535"/>
<path d="M456.047 807.091C441.489 804.491 428.752 803.191 423.033 804.666C378.495 792.881 321.481 773.993 311.429 771.568C286.561 722.351 309.696 657.449 352.848 624.61C360.637 618.616 369.099 613.557 378.063 609.533C379.969 608.233 478.229 608.317 480.308 607.884C502.837 614.817 517.914 627.294 534.811 649.041C554.477 674.823 563.781 707.032 560.892 739.331C560.804 740.237 560.466 741.092 559.914 741.812C559.363 742.533 558.621 743.084 557.772 743.405C525.192 754.926 488.54 769.226 469.651 776.762C449.375 785.604 468.35 805.617 456.047 807.091ZM429.965 794.53C436.735 794.631 443.485 795.267 450.154 796.432C449.152 790.573 450.188 784.551 453.09 779.362C455.99 774.173 460.582 770.138 466.098 767.926C484.554 760.559 519.647 746.782 551.62 735.43C555.866 687.514 523.719 633.103 479.528 617.417L381.095 618.543C327.112 642.98 298.605 706.75 316.628 763.159C331.185 765.242 388.72 789.414 429.965 794.53Z" fill="#452D34"/>
<path d="M434.644 577.47C396.346 577.126 393.573 520.369 431.959 516.47C458.213 513.264 475.803 546.624 458.213 566.551C455.323 569.984 451.714 572.742 447.642 574.627C443.569 576.518 439.133 577.486 434.644 577.47ZM434.731 525.914C415.582 525.222 406.137 551.303 421.214 563.084C425.502 566.658 431.031 568.38 436.587 567.874C442.143 567.373 447.272 564.683 450.848 560.401C462.372 547.404 452.061 525.395 434.731 525.914Z" fill="#CE9C5C"/>
<path d="M423.554 569.675L437.764 569.41C450.636 569.202 463.066 574.099 472.338 583.03C481.609 591.962 486.968 604.197 487.241 617.068C487.414 625.127 479.616 627.643 472.771 632.061C447.902 648.523 413.329 645.748 390.974 633.704C383.868 629.804 376.07 627.294 375.897 619.235C375.687 606.358 380.581 593.915 389.509 584.628C398.437 575.348 410.675 569.968 423.554 569.675Z" fill="#CE9C5C"/>
<path d="M432.045 648.439C414.369 648.698 371.737 638.646 371.131 619.325C370.898 605.176 376.271 591.517 386.078 581.325C395.883 571.127 409.324 565.223 423.467 564.908C441.923 563.434 462.025 565.426 475.629 579.552C480.699 584.398 484.757 590.2 487.567 596.627C490.379 603.055 491.887 609.971 492.006 616.984C492.006 628.336 482.475 631.369 475.456 636.046C462.112 644.882 446.862 648.439 432.045 648.439ZM423.64 574.436C412.019 574.69 400.97 579.535 392.914 587.915C384.859 596.295 380.453 607.529 380.662 619.151C379.882 623.22 387.854 626.777 393.226 629.461C415.148 641.679 450.848 643.154 474.59 625.386C480.395 622.094 482.561 620.451 482.475 617.158C482.399 611.395 481.172 605.7 478.866 600.421C476.56 595.136 473.22 590.369 469.044 586.396C457.346 574.093 439.497 573.311 423.64 574.436Z" fill="#452D34"/>
<path d="M361.686 648.005C353.541 658.749 346.002 670.01 340.63 682.319C335.258 694.621 331.445 709.007 331.965 723.127C332.206 730.939 333.789 738.643 336.644 745.915C337.511 747.997 339.59 749.731 342.016 748.948C344.443 748.172 345.915 745.915 345.049 743.664C343.781 740.613 342.794 737.45 342.103 734.22C341.702 732.622 341.384 731.001 341.15 729.369C341.063 728.502 341.236 729.886 341.15 729.02C341.063 728.153 341.063 728.237 340.976 727.894C340.876 727.061 340.818 726.223 340.803 725.378C340.544 722.092 340.544 718.788 340.803 715.501C340.89 713.858 341.063 712.209 341.236 710.566C341.41 708.917 341.236 710.65 341.236 710.734C341.223 710.532 341.252 710.324 341.323 710.132C341.339 709.749 341.397 709.372 341.496 709.007C341.583 708.14 341.756 707.273 341.93 706.406C343.206 699.951 345.151 693.648 347.735 687.603C347.389 688.296 347.735 687.429 347.908 687.17C348.015 686.81 348.16 686.461 348.342 686.129L349.468 683.703C350.161 682.229 350.855 680.754 351.635 679.285C353.107 676.426 354.754 673.567 356.4 670.793C360.299 664.467 364.632 658.315 369.138 652.423C370.524 650.605 369.484 647.482 367.578 646.446C365.671 645.405 363.158 646.097 361.686 648.005Z" fill="#CE9C5C"/>
<path d="M397.386 672.701C391.097 694.965 390.59 718.462 395.913 740.979C397.316 747.153 399.199 753.209 401.545 759.09C402.411 761.167 404.491 762.9 406.917 762.118C409.343 761.341 410.816 759.09 409.95 756.833C407.869 751.678 406.161 746.377 404.838 740.979C404.144 738.289 403.538 735.695 403.018 733.005C402.498 730.32 402.585 730.32 402.325 729.02L402.065 726.853C401.891 725.987 401.978 726.679 402.065 726.853C401.965 726.426 401.907 725.992 401.891 725.553C400.519 714.562 400.577 703.435 402.065 692.455C401.891 693.322 401.978 692.63 402.065 692.455C402.151 692.281 402.151 691.414 402.238 690.896C402.325 690.373 402.498 689.337 402.671 688.639C402.845 687.947 403.191 685.521 403.538 684.047C404.144 681.019 404.924 677.986 405.704 674.952C405.861 674.406 405.906 673.832 405.838 673.269C405.77 672.707 405.588 672.161 405.306 671.665C405.023 671.176 404.644 670.742 404.192 670.399C403.739 670.056 403.222 669.808 402.671 669.667C401.569 669.397 400.406 669.56 399.422 670.123C398.438 670.692 397.709 671.609 397.386 672.701Z" fill="#CE9C5C"/>
<path d="M433.778 673.477C437.846 683.962 441.232 694.7 443.916 705.624C445.215 710.999 446.428 716.458 447.381 721.917C447.901 724.686 448.335 727.461 448.768 730.32C448.854 731.012 449.028 731.62 449.114 732.312C449.101 732.577 449.13 732.841 449.201 733.094C449.374 734.394 449.114 732.571 449.201 733.353C449.288 734.13 449.634 736.212 449.721 737.597C450.501 743.923 451.02 750.248 451.28 756.659C451.28 757.812 451.737 758.91 452.55 759.726C453.362 760.536 454.464 760.992 455.613 760.992C456.762 760.992 457.864 760.536 458.677 759.726C459.489 758.91 459.945 757.812 459.945 756.659C458.942 733.798 455.07 711.145 448.421 689.247C446.515 683.095 444.435 677.118 442.182 671.136C441.316 669.059 439.237 667.326 436.81 668.108C434.384 668.885 432.911 671.226 433.778 673.477Z" fill="#CE9C5C"/>
<path d="M499.197 649.215C501.924 651.624 504.527 654.168 506.996 656.841C510.462 660.482 513.754 664.208 516.96 667.934C518.693 669.926 520.339 671.834 521.9 673.911C523.459 675.993 523.372 675.728 524.152 676.685C524.932 677.636 523.719 676.077 524.152 676.595L524.672 677.293L525.712 678.678C526.838 680.236 527.878 681.795 528.918 683.444L530.131 685.347C530.222 685.662 530.368 685.954 530.564 686.213C530.998 687.17 530.131 685.088 530.478 686.129C530.985 687.682 531.362 689.275 531.604 690.896C531.604 691.07 531.691 691.239 531.691 691.414C531.691 691.588 531.864 692.539 531.777 691.847C531.691 691.155 531.777 691.847 531.777 692.021C531.777 692.196 531.864 692.539 531.864 692.888C531.864 693.231 532.124 694.706 532.211 695.663C532.731 699.822 533.51 703.981 535.85 707.617C537.15 709.524 539.749 710.476 541.829 709.175C543.908 707.875 544.688 705.281 543.388 703.283C542.914 702.653 542.534 701.949 542.262 701.206C542.262 701.291 542.522 702.073 542.262 701.291C542.002 700.514 542.175 700.947 542.089 700.773C542.002 700.598 541.829 699.991 541.655 699.557L541.135 697.222C541.036 696.822 540.978 696.417 540.962 696.006C540.892 695.843 540.863 695.663 540.875 695.488C540.269 691.847 540.096 688.206 539.142 684.654C538.189 681.103 536.023 678.329 534.03 675.47C527.977 667.286 521.437 659.475 514.448 652.074C511.568 648.922 508.531 645.911 505.349 643.064C503.616 641.589 500.844 641.246 499.197 643.064C497.551 644.881 497.378 647.572 499.197 649.215Z" fill="#CE9C5C"/>
<path d="M397.385 610.917C397.314 610.692 397.284 610.461 397.298 610.225C397.125 609.707 397.385 611.266 397.298 610.484C397.211 609.707 397.211 609.617 397.211 609.184C397.197 608.722 397.226 608.255 397.298 607.799V607.107C397.298 607.45 397.211 608.058 397.298 607.366C397.449 606.516 397.652 605.677 397.905 604.85L398.165 604.158C398.251 603.899 398.598 603.207 398.078 604.248C398.246 603.854 398.449 603.477 398.685 603.122C399.066 602.34 399.5 601.586 399.984 600.866C400.418 600.258 399.551 601.389 399.898 601.04L400.331 600.522L401.198 599.565L402.15 598.699L402.497 598.44L402.15 598.699C402.324 598.699 402.497 598.44 402.67 598.356L405.097 596.965C407.09 596.099 407.783 592.896 406.656 591.073C405.53 589.255 402.93 588.478 400.678 589.514C391.839 593.504 387.16 603.899 389.067 613.168C389.371 614.271 390.096 615.206 391.086 615.774C392.076 616.342 393.249 616.494 394.352 616.202C395.428 615.864 396.336 615.132 396.897 614.153C397.459 613.174 397.633 612.02 397.385 610.917Z" fill="white"/>
<path d="M407.263 628.077L416.361 629.635C416.924 629.799 417.515 629.844 418.096 629.771C418.678 629.697 419.238 629.5 419.741 629.202C420.702 628.611 421.411 627.683 421.733 626.602C422.023 625.488 421.867 624.306 421.3 623.31C420.715 622.342 419.787 621.633 418.701 621.317L409.516 619.668C408.393 619.404 407.211 619.595 406.223 620.192C405.729 620.439 405.294 620.794 404.95 621.227C404.606 621.661 404.36 622.162 404.23 622.702C404.06 623.265 404.01 623.856 404.085 624.435C404.16 625.021 404.357 625.578 404.664 626.079C404.936 626.574 405.306 627.007 405.754 627.35C406.202 627.694 406.716 627.941 407.263 628.077Z" fill="white"/>
<path d="M741.986 562.134C718.68 563 708.37 529.641 728.642 517.423C765.471 497.234 783.751 559.015 741.986 562.134ZM741.901 523.055C716.513 524.962 727.606 562.481 749.96 550.177C762.353 542.725 756.027 522.449 741.901 523.055Z" fill="white"/>
<path d="M748.222 595.108L705.989 582.996C703.98 582.422 702.281 581.066 701.268 579.237C700.255 577.408 700.007 575.252 700.587 573.243C702.495 566.597 706.963 560.975 713.013 557.621C719.063 554.268 726.2 553.455 732.846 555.361L740.095 557.439C746.742 559.346 752.364 563.816 755.713 569.866C759.067 575.917 759.883 583.053 757.975 589.699C757.395 591.709 756.045 593.408 754.216 594.421C752.386 595.434 750.231 595.682 748.222 595.108Z" fill="#D13535"/>
<path d="M750.478 600.089C750.743 601.124 705.944 587.522 704.819 587.437C703.203 586.993 701.695 586.227 700.384 585.186C699.073 584.139 697.986 582.845 697.193 581.37C689.826 561.788 716.688 544.371 734.275 550.61C744.586 552.863 754.986 557.542 760.012 567.418C765.038 577.296 766.423 599.391 750.478 600.089ZM725.783 558.929C716.598 558.842 707.678 565.426 705.252 574.352C705.128 574.752 705.094 575.168 705.139 575.579C705.184 575.995 705.308 576.395 705.511 576.755C705.714 577.121 705.984 577.442 706.316 577.695C706.642 577.954 707.014 578.14 707.413 578.252L749.612 590.381C750.011 590.499 750.428 590.538 750.844 590.493C751.255 590.448 751.655 590.319 752.021 590.122C752.381 589.919 752.701 589.643 752.96 589.317C753.214 588.99 753.405 588.619 753.512 588.214C758.453 570.019 741.901 559.708 725.783 558.929Z" fill="#452D34"/>
<path d="M648.842 792.622C671.889 783.437 715.731 766.367 750.911 754.323C771.796 733.438 788.433 714.291 791.635 703.807C798.912 680.068 796.458 654.41 784.814 632.483C773.17 610.551 753.292 594.145 729.553 586.874C705.814 579.597 680.156 582.056 658.23 593.695C636.303 605.339 619.892 625.217 612.62 648.956C606.21 669.842 625.013 750.423 638.267 801.806C640.648 797.631 644.373 794.394 648.842 792.622Z" fill="#D13535"/>
<path d="M638.268 806.574H637.666C636.715 806.456 635.826 806.056 635.116 805.42C634.402 804.784 633.901 803.946 633.676 803.017C618.339 743.839 601.529 668.885 608.029 647.572C615.722 622.646 632.983 601.789 656.036 589.57C679.088 577.358 706.04 574.78 730.983 582.412C755.921 590.066 776.801 607.304 789.03 630.345C801.266 653.38 803.854 680.333 796.228 705.282C793.111 715.418 779.423 732.572 754.294 757.791C753.777 758.32 753.158 758.73 752.471 759.001C717.381 770.87 673.539 788.03 650.577 797.125C647.149 798.526 644.284 801.025 642.427 804.233C641.994 804.947 641.386 805.538 640.654 805.949C639.928 806.36 639.107 806.574 638.268 806.574ZM702.219 587.522C683.185 587.544 664.663 593.651 649.35 604.952C634.041 616.258 622.752 632.163 617.129 650.341C612.796 664.467 621.373 715.851 640.694 791.84C642.619 790.332 644.752 789.105 647.02 788.204C669.897 779.104 713.221 762.209 748.312 750.249C777.167 721.22 785.316 708.225 787.134 702.417C790.561 691.262 791.754 679.539 790.646 667.923C789.537 656.301 786.149 645.017 780.678 634.707C775.202 624.402 767.757 615.273 758.752 607.844C749.753 600.415 739.375 594.838 728.214 591.422C719.795 588.822 711.027 587.511 702.219 587.522Z" fill="#452D34"/>
<path d="M753.601 693.496L753.336 693.232L753.601 693.496Z" fill="white"/>
<path d="M694.418 674.085L694.159 674.344L694.418 674.085Z" fill="white"/>
<path d="M752.037 689.072C752.211 688.729 752.211 688.639 752.127 688.639C752.144 688.718 752.144 688.791 752.132 688.869C752.116 688.943 752.087 689.016 752.037 689.072Z" fill="white"/>
<path d="M668.771 674.603C668.715 674.49 668.619 674.4 668.512 674.344L668.771 674.603Z" fill="white"/>
<path d="M641.041 663.516C641.216 663.516 641.126 663.426 640.609 663.426H641.041V663.516Z" fill="white"/>
<path d="M647.975 662.559C648.059 662.475 647.885 662.475 647.542 662.733H647.626L647.975 662.559Z" fill="white"/>
<path d="M788.084 690.637C782.456 685.955 779.941 696.181 769.715 696.614C764.43 696.873 757.761 697.222 753.602 693.496C753.771 693.84 753.427 693.496 753.337 693.232L752.645 692.196V692.022C752.386 691.588 752.561 691.673 752.645 691.937C752.229 691.043 752.02 690.063 752.037 689.073V689.337C752.127 689.163 752.037 688.729 752.127 688.639C757.153 685.263 754.812 677.203 748.486 679.978C744.152 684.047 740.427 688.555 734.101 689.596C730.803 690.474 727.342 690.547 724.01 689.804C720.678 689.067 717.571 687.536 714.954 685.347C710.418 681.678 707.396 676.466 706.462 670.703C706.203 669.06 704.385 667.844 702.911 667.585C698.752 667.152 697.626 672.268 694.418 674.001C694.677 673.911 694.243 674.17 694.159 674.26C689.623 677.614 683.995 679.128 678.389 678.503C678.299 678.419 677.782 678.419 677.866 678.329C674.557 677.822 671.422 676.477 668.771 674.429C668.771 674.344 668.422 674.17 668.512 674.085C664.764 671.215 662.051 667.197 660.796 662.649C660.104 660.134 660.279 656.667 657.071 655.975C655.427 655.541 653.002 656.149 652.219 657.967C651.803 659.014 651.167 659.965 650.362 660.758C649.557 661.546 648.595 662.16 647.543 662.559C645.303 663.392 642.883 663.634 640.524 663.252H640.609C632.724 662.042 628.216 654.933 625.357 648.174C622.588 643.323 615.047 647.656 617.906 652.508C622.673 666.718 639.917 677.896 653.953 668.975C660.886 687.171 685.751 693.063 700.395 680.237C707.503 696.963 728.906 703.891 744.501 694.706C751.868 710.133 777.689 707.707 788.084 696.614C789.559 695.14 789.818 692.281 788.084 690.637ZM632.899 659.79H632.808C633.073 659.875 633.332 660.134 632.899 659.79Z" fill="white"/>
<path d="M674.315 612.999L674.056 612.735L674.315 612.999Z" fill="white"/>
<path d="M679.424 617.157C679.083 616.984 679.34 616.984 679.424 617.157V617.157Z" fill="white"/>
<path d="M686.183 617.85C685.925 617.76 685.666 617.85 685.75 617.935L686.183 617.85Z" fill="white"/>
<path d="M668.338 619.494C671.247 622.747 675.074 625.032 679.318 626.056C683.556 627.075 688.007 626.782 692.076 625.218C700.051 640.897 722.406 644.797 735.232 632.579C745.368 645.49 762.871 637.087 772.838 628.335C774.566 626.861 774.397 623.653 772.838 622.184C767.638 618.109 763.22 626.253 758.363 627.728C753.511 629.202 747.878 631.538 745.885 630.153C743.961 629.489 742.357 628.133 741.383 626.343C740.95 623.653 741.467 620.451 738.001 619.584C734.534 618.717 732.806 622.702 730.639 624.953L728.816 626.687L728.472 627.035C722.147 632.838 710.013 631.971 705.161 627.469C702.708 625.612 700.721 623.208 699.359 620.451C708.544 611.874 693.551 607.191 690.174 616.635C688.902 617.209 687.563 617.62 686.184 617.851H685.751C683.612 618.115 681.44 617.845 679.425 617.068C677.387 616.162 675.62 614.727 674.314 612.909C674.314 613.084 674.056 612.735 673.971 612.65H674.056C672.907 611.148 672.136 609.397 671.804 607.54C671.804 607.625 671.714 607.366 671.714 607.191C671.63 606.932 671.63 607.017 671.714 607.191C671.568 605.908 671.681 604.608 672.052 603.37C672.423 602.132 673.048 600.989 673.881 599.999C675.266 598.181 674.23 595.063 672.322 594.106C670.414 593.155 667.904 593.763 666.43 595.665C660.796 602.773 662.62 613.084 668.338 619.494ZM709.321 629.894H709.236C709.411 629.894 709.928 630.153 709.321 629.894ZM672.238 602.773C672.238 602.689 672.322 602.599 672.322 602.514C672.322 602.424 672.238 602.689 672.238 602.773Z" fill="white"/>
<path d="M688.351 745.223C688.368 745.369 688.396 745.515 688.441 745.655C688.463 745.504 688.435 745.352 688.351 745.223Z" fill="white"/>
<path d="M686.965 749.556C686.96 749.624 686.926 749.685 686.882 749.73C686.966 749.73 686.965 749.64 686.965 749.556Z" fill="white"/>
<path d="M652.826 742.882C652.826 742.971 652.737 743.056 652.737 743.146C652.737 743.23 652.826 742.971 652.826 742.882Z" fill="white"/>
<path d="M750.045 737.856C745.976 739.33 741.986 741.323 737.658 741.413C737.658 741.582 736.966 741.323 736.791 741.413H737.05C729.599 737.254 725.006 740.023 719.981 746.005H720.065C719.221 746.607 718.32 747.131 717.38 747.564H717.465C714.572 748.673 711.449 749.061 708.37 748.69H708.545C705.247 748.273 702.117 747.024 699.444 745.048H699.528C697.699 743.619 696.264 741.739 695.369 739.589C692.336 734.564 684.884 739.42 688.092 744.272L688.267 744.615H688.177C688.312 744.79 688.374 745.009 688.351 745.223C688.526 745.223 688.441 745.741 688.526 745.831C688.61 745.915 688.441 745.746 688.441 745.656C688.526 747.215 687.918 748.256 686.967 749.556C687.4 749.123 687.051 749.556 686.882 749.731C685.278 751.734 682.999 753.091 680.467 753.541C679.69 753.8 679.949 753.541 680.382 753.541C680.815 753.541 678.564 753.715 678.131 753.631H677.956C666.515 753.282 658.371 732.053 652.828 742.972H652.912C652.653 743.489 652.653 743.58 652.737 743.231C652.045 744.79 650.312 745.313 648.753 745.572H649.012C649.186 745.656 648.578 745.656 648.494 745.656C646.243 745.746 645.027 745.572 642.427 743.838C642.168 743.664 642.258 743.664 642.602 744.013C638.532 741.582 635.409 731.969 629.691 736.73C625.791 741.582 633.158 746.264 636.017 749.731C641.735 755.016 651.443 756.057 657.42 750.857C666.779 762.383 686.792 768.185 695.285 752.764C706.029 760.3 722.147 758.826 730.117 748.082C731.85 748.515 733.409 749.641 735.232 749.905C740.258 750.682 756.894 747.997 755.33 740.979C754.638 738.813 752.302 736.989 750.045 737.856ZM682.459 753.023L682.892 752.849L682.459 753.023Z" fill="white"/>
<path d="M708.37 748.605C707.328 748.431 708.021 748.605 708.37 748.605V748.605Z" fill="white"/>
<path d="M699.961 745.313L699.528 745.049L699.961 745.313Z" fill="white"/>
<path d="M688.092 744.272C688.081 744.39 688.109 744.513 688.182 744.614C688.182 744.53 688.092 744.446 688.092 744.272Z" fill="white"/>
<path d="M721.28 573.918C721.28 573.834 721.364 573.744 721.364 573.66L720.931 574.701C721.139 574.211 721.403 573.744 721.713 573.311L721.021 574.267L722.231 573.052L721.364 573.744L722.754 572.877L721.713 573.311L723.272 572.967H722.231C722.833 573.029 723.435 572.911 723.964 572.618C724.476 572.416 724.944 572.118 725.349 571.752C725.748 571.369 726.047 570.891 726.215 570.367C726.508 569.838 726.626 569.23 726.564 568.634C726.57 567.503 726.137 566.416 725.349 565.6L724.482 564.908C723.79 564.531 723.019 564.328 722.231 564.3C721.291 564.413 720.362 564.615 719.462 564.908L717.638 565.685L716.079 566.9C715.359 567.508 714.717 568.206 714.172 568.977C713.603 569.771 713.164 570.649 712.871 571.577C712.714 572.14 712.68 572.737 712.787 573.311C712.871 573.857 713.046 574.386 713.305 574.87C713.592 575.354 713.975 575.77 714.436 576.085C714.83 576.49 715.348 576.761 715.905 576.862C716.468 577.031 717.059 577.076 717.644 577.003C718.224 576.929 718.781 576.732 719.287 576.429L720.154 575.736C720.678 575.202 721.06 574.549 721.28 573.834V573.918Z" fill="white"/>
<path d="M466.705 670.444C430.225 668.8 437.591 614.468 473.117 622.702C500.065 630.238 494.606 670.359 466.705 670.444ZM466.618 631.369C449.895 630.935 446.429 656.323 462.719 660.392C484.034 665.767 488.627 631.802 466.618 631.369Z" fill="white"/>
<path d="M509.196 684.762L469.511 703.604C467.622 704.499 465.454 704.611 463.483 703.908C461.514 703.21 459.903 701.752 459.006 699.861C457.537 696.772 456.692 693.417 456.518 689.996C456.345 686.574 456.847 683.152 457.996 679.927C459.145 676.702 460.918 673.731 463.214 671.193C465.511 668.649 468.285 666.583 471.379 665.114L478.267 661.844C484.516 658.879 491.687 658.513 498.203 660.837C504.72 663.156 510.047 667.968 513.014 674.22C513.911 676.106 514.021 678.278 513.32 680.248C512.618 682.218 511.163 683.827 509.274 684.722L509.196 684.762Z" fill="white"/>
<path d="M466.185 709.091C451.628 708.573 449.549 689.247 453.534 678.329C457.52 667.41 466.445 661.433 476.236 657.533C492.526 648.438 521.814 661.259 517.828 681.885C516.647 685.015 514.326 687.587 511.329 689.072C508.123 690.114 468.698 710.566 466.185 709.091ZM489.407 664.034C472.51 665.334 455.007 679.629 463.326 697.74C463.7 698.494 464.349 699.073 465.138 699.366C465.928 699.653 466.798 699.631 467.572 699.298L507.17 680.411C514.449 674.17 495.646 662.649 489.407 664.034Z" fill="#452D34"/>
<path d="M605.169 903.617L595.377 905.44C579.523 906.132 566.004 892.788 580.907 880.654L587.233 873.636L589.574 871.818C574.063 868.611 564.271 852.233 581.774 844.179L583.682 843.223L590.784 838.546C589.861 836.756 589.411 834.753 589.484 832.738C589.484 832.738 587.841 827.712 599.536 821.476C602.828 819.653 608.721 819.309 615.395 819.743C618.339 783.262 621.631 760.733 613.746 737.687C597.026 688.814 536.89 669.752 489.84 691.07C468.917 700.52 452.201 717.336 442.87 738.317C433.54 759.293 432.246 782.97 439.236 804.84C454.833 809.776 469.65 814.627 480.568 818.184C485.378 819.788 489.451 823.069 492.044 827.425C494.636 831.787 495.576 836.931 494.692 841.923C493.652 848.339 492.613 854.749 491.659 861.249L492.872 862.2L496.425 835.687C510.029 832.738 533.511 828.579 541.656 832.912C553.353 839.238 551.707 844.264 551.707 844.264C551.778 846.251 551.33 848.22 550.407 849.982L557.513 854.749L559.419 855.7C576.922 863.675 567.13 880.052 551.62 883.345L553.96 885.162L560.285 892.096C569.122 899.283 567.912 906.909 562.278 911.76L566.353 914.535C580.299 923.979 598.669 917.917 605.169 903.617Z" fill="#CE9C5C"/>
<path d="M581.082 923.894C573.107 923.635 560.719 919.994 557.513 912.025C557.167 908.125 562.106 907.258 561.932 903.099C562.019 900.673 559.679 897.724 556.733 895.298C555.434 893.824 550.235 887.937 548.675 887.07C540.183 876.495 562.106 880.137 563.922 867.744C564.356 863.151 559.073 860.726 555.434 858.992C555.347 859.082 548.155 854.225 547.895 854.057C543.649 851.8 547.288 846.341 546.942 843.482C538.017 832.395 530.132 834.82 500.758 839.672C499.545 842.615 499.372 865.926 494.693 866.534C490.014 867.136 486.287 864.367 486.894 860.467C488.021 853.1 489.06 846.948 490.014 841.146C490.712 837.257 489.984 833.25 487.962 829.856C485.939 826.468 482.76 823.919 479.009 822.686C469.131 819.394 453.881 814.458 437.851 809.432C414.629 765.067 442.963 706.491 487.847 686.737C534.984 664.118 601.793 684.829 618.255 736.212C626.747 759.349 622.588 790.022 620.163 820.086C619.206 829.536 602.485 818.443 594.251 831.961C593.908 834.995 597.634 840.279 593.21 842.615L585.759 847.556C582.123 849.29 576.839 851.715 577.266 856.308C579.433 867.226 592.344 864.71 594.251 870.777C595.034 873.636 592.608 875.719 590.526 877.188L584.459 883.862C581.69 886.204 578.133 889.665 579.607 893.481C582.9 901.281 595.377 901.54 604.303 898.94C621.288 900.673 595.985 926.32 581.082 923.894ZM569.297 910.809C572.967 913.201 577.272 914.422 581.65 914.31C586.029 914.203 590.272 912.773 593.818 910.201C571.548 909.166 559.939 890.796 580.733 873.726C578.043 872.325 575.584 870.513 573.456 868.352C572.848 875.195 567.738 881.437 560.459 885.162C569.123 893.396 575.015 901.624 569.297 910.809ZM559.853 850.59C562.625 851.89 565.92 853.623 567.738 855.357C567.305 851.108 571.548 842.789 581.341 839.154L585.067 836.554C581.166 827.104 595.467 813.417 611.062 814.802C648.843 638.471 413.329 654.849 443.05 801.114C465.319 810.299 491.313 809.432 498.592 830.402C521.727 825.545 536.977 825.028 543.909 828.753C558.206 837.505 556.82 840.882 556.126 848.074L559.853 850.59Z" fill="#452D34"/>
<path d="M455.96 775.462C455.44 774.427 456.133 776.16 455.873 775.462L455.613 774.596C455.526 774.162 455.613 773.295 455.613 774.686C455.613 774.337 455.526 774.078 455.526 773.729C455.512 773.442 455.542 773.149 455.613 772.868C455.613 771.652 455.353 773.644 455.526 772.868C455.7 772.085 455.786 771.827 455.96 771.303C455.613 772.001 456.133 770.785 455.96 771.303C456.071 771.027 456.216 770.769 456.393 770.527C456.504 770.251 456.65 769.986 456.827 769.744C457.173 769.311 457.606 769.052 457.953 768.619L457.606 768.968L458.039 768.703L458.819 768.275C457.779 768.619 459.512 767.926 458.819 768.275L459.686 768.011H461.246C462.372 768.101 460.466 767.842 461.159 768.011L462.978 768.534C461.938 768.011 463.672 768.793 462.978 768.534L463.585 768.878L464.278 769.311C464.885 769.744 463.498 768.619 464.278 769.401L464.971 770.003L465.231 770.352L464.971 770.003C465.293 770.504 465.583 771.027 465.838 771.568C466.791 773.644 469.997 774.252 471.817 773.127C473.636 772.001 474.33 769.401 473.376 767.144C471.123 762.208 465.145 759 459.772 759.349C456.676 759.546 453.741 760.801 451.454 762.901C449.439 764.792 448.023 767.234 447.382 769.919C446.505 773.228 446.875 776.745 448.421 779.796C449.017 780.786 449.976 781.501 451.093 781.794C452.21 782.086 453.397 781.929 454.4 781.355C455.367 780.764 456.068 779.818 456.358 778.721C456.649 777.623 456.506 776.458 455.96 775.462Z" fill="white"/>
<path d="M469.218 735.695C470.872 737.473 473.017 738.728 475.382 739.291C477.748 739.859 480.227 739.707 482.508 738.863C484.788 738.019 486.768 736.522 488.197 734.552C489.625 732.582 490.438 730.235 490.534 727.81C490.6 726.228 490.304 724.658 489.667 723.217C489.294 722.385 488.731 721.653 488.023 721.084C487.316 720.51 486.484 720.111 485.595 719.919C484.48 719.666 483.312 719.818 482.302 720.353C481.319 720.932 480.603 721.878 480.311 722.981C480.019 724.084 480.174 725.26 480.742 726.245C481 726.752 481.368 727.191 481.817 727.54C482.267 727.883 482.788 728.125 483.342 728.243H483.602L482.562 727.81L482.995 728.069L482.129 727.377L482.475 727.72L481.782 726.853L482.129 727.545L481.696 726.51C481.834 726.78 481.922 727.073 481.955 727.377L481.782 726.245C481.869 726.881 481.869 727.523 481.782 728.153L481.955 727.028C481.846 727.742 481.642 728.446 481.349 729.104L481.782 728.069C481.511 728.761 481.131 729.403 480.656 729.971L481.349 729.104C480.954 729.633 480.487 730.1 479.962 730.494L480.829 729.887L479.096 730.838L480.136 730.404C479.499 730.669 478.828 730.849 478.143 730.928L479.356 730.753H477.103L478.316 730.928L476.15 730.32L477.19 730.753C476.565 730.489 475.982 730.14 475.457 729.712L476.323 730.404L475.283 729.453C474.473 728.66 473.385 728.215 472.251 728.215C471.117 728.215 470.028 728.66 469.218 729.453C468.419 730.281 467.972 731.384 467.972 732.532C467.972 733.68 468.419 734.783 469.218 735.605V735.695Z" fill="white"/>
<path d="M512.455 747.474C511.935 746.782 512.888 748.172 512.455 747.474C512.022 746.782 512.022 746.782 512.109 746.697C512.195 746.607 512.369 747.39 512.195 746.956V746.697L511.935 745.915C511.762 744.964 512.022 746.782 512.022 745.915V745.048C512.022 744.097 511.762 746.005 512.022 745.139C512.282 744.272 512.109 744.531 512.195 744.272C512.282 744.013 511.762 745.139 512.195 744.356L512.629 743.664C513.062 742.882 511.935 744.356 512.629 743.748L513.148 743.146C513.495 742.882 513.928 742.713 513.062 743.146L513.755 742.713L514.448 742.364C515.228 741.931 513.495 742.623 514.362 742.364L515.921 741.931C516.701 741.756 514.882 741.931 515.834 741.931H517.481C516.528 741.672 518.347 741.931 517.481 741.931L519.214 742.364L520.08 742.623L519.56 742.448L520.08 742.713C520.6 742.949 521.094 743.236 521.554 743.58L522.333 744.097L522.68 744.356C522.276 744.013 522.189 743.923 522.42 744.097L523.807 745.482C525.453 747.041 528.398 747.215 529.958 745.482C530.758 744.66 531.205 743.557 531.205 742.409C531.205 741.261 530.758 740.158 529.958 739.331C527.461 736.764 524.364 734.856 520.947 733.787C517.393 732.836 513.618 733.173 510.289 734.738C508.697 735.492 507.286 736.578 506.15 737.924C505.014 739.269 504.18 740.844 503.704 742.538C503.219 744.474 503.218 746.495 503.702 748.431C504.185 750.367 505.139 752.151 506.476 753.631C506.872 754.031 507.344 754.352 507.864 754.571C508.385 754.791 508.944 754.903 509.509 754.903C510.074 754.903 510.633 754.791 511.154 754.571C511.675 754.352 512.146 754.031 512.542 753.631C512.948 753.226 513.27 752.748 513.49 752.218C513.71 751.689 513.824 751.127 513.824 750.553C513.824 749.979 513.71 749.416 513.49 748.887C513.27 748.358 512.948 747.879 512.542 747.474H512.455Z" fill="white"/>
<path d="M526.579 709.44C528.338 712.029 530.941 713.925 533.944 714.809C537.016 715.715 540.312 715.467 543.216 714.117C548.761 711.517 551.534 704.757 549.974 699.039C549.67 697.942 548.944 697.002 547.955 696.439C546.965 695.871 545.791 695.713 544.688 696.006C543.589 696.31 542.654 697.036 542.086 698.026C541.518 699.017 541.363 700.187 541.656 701.291C541.756 701.628 541.814 701.977 541.829 702.332V701.206C541.916 701.898 541.916 702.596 541.829 703.283V702.157C541.814 702.596 541.756 703.03 541.656 703.457L541.396 704.065C541.396 704.15 541.309 704.324 541.309 704.414L541.569 703.806C541.435 704.212 541.23 704.594 540.963 704.932L540.616 705.45C541.136 704.414 540.963 704.932 540.703 705.281L539.75 706.142C539.403 706.491 540.703 705.45 539.923 705.973L539.403 706.316H539.056L537.756 706.575L538.883 706.406H536.544L537.67 706.575L536.024 706.232C535.59 706.148 534.984 705.624 536.11 706.316L535.331 705.883L534.637 705.45C534.031 705.106 535.503 706.232 534.637 705.45L534.031 704.847C533.337 704.065 534.551 705.54 534.117 704.932C533.503 703.992 532.586 703.289 531.518 702.94C530.377 702.647 529.168 702.799 528.139 703.373C526.319 704.583 525.192 707.273 526.579 709.265V709.44Z" fill="white"/>
<path d="M566.089 731.102C566.004 730.928 565.92 730.146 566.004 730.838C566.05 730.613 566.05 730.376 566.004 730.146C566.089 730.32 565.83 731.187 566.004 730.579C566.021 730.343 566.078 730.106 566.179 729.887C566.263 729.453 565.656 730.838 566.089 730.061L566.353 729.538C566.438 729.453 566.956 728.761 566.522 729.369C566.089 729.971 566.612 729.194 566.697 729.104L567.13 728.761C567.653 728.238 566.522 729.104 566.956 728.846L567.479 728.502L568.171 728.153C567.912 728.238 567.479 728.412 567.997 728.328C568.515 728.238 569.297 728.153 569.556 727.894C569.815 727.635 568.689 727.979 569.297 727.979H571.464C572.156 728.069 571.379 728.069 571.289 727.979L572.071 728.153L573.54 728.502L575.105 729.104C575.623 729.279 575.364 729.104 575.015 729.02L575.797 729.369L578.656 730.753C580.733 731.795 583.507 731.361 584.633 729.194C585.759 727.028 585.241 724.428 583.074 723.302C577.874 720.702 572.246 718.276 566.263 719.751C560.285 721.22 555.953 727.377 557.686 733.438C558.292 735.605 560.805 737.254 563.058 736.471C564.147 736.151 565.065 735.419 565.633 734.434C566.196 733.449 566.359 732.29 566.089 731.187V731.102Z" fill="white"/>
<path d="M487.067 796.522C489.58 797.647 492.093 799.122 494.692 799.899C497.36 800.726 500.228 800.636 502.837 799.64C505.608 798.649 507.92 796.674 509.336 794.096C510.758 791.412 511.217 788.322 510.636 785.345C510.485 784.788 510.227 784.27 509.875 783.814C509.522 783.364 509.083 782.987 508.584 782.7C508.084 782.418 507.533 782.238 506.963 782.171C506.393 782.103 505.815 782.154 505.263 782.311C502.924 783.088 501.884 785.255 502.318 787.68C502.404 788.463 502.231 786.904 502.231 787.421V788.637C502.231 789.504 502.404 787.939 502.231 788.373L501.971 789.588C501.711 790.455 502.317 788.98 502.057 789.414L501.711 790.022L501.364 790.539C501.104 790.973 501.971 789.937 501.537 790.28L501.104 790.798C501.017 790.888 500.324 791.406 500.931 790.973L500.671 791.147L500.237 791.406C500.065 791.496 499.371 791.755 500.064 791.496H499.805L499.285 791.665C499.198 791.665 498.331 791.755 499.111 791.755H498.331C498.158 791.755 497.378 791.58 498.071 791.755C498.765 791.929 497.985 791.665 497.812 791.665L496.425 791.232L495.992 791.063L496.425 791.322L495.732 790.973L494.432 790.37L491.486 788.896C489.406 787.939 486.72 788.288 485.507 790.455C484.295 792.622 484.901 795.306 487.067 796.432V796.522Z" fill="white"/>
<path d="M544.776 771.911C546.639 774.685 549.297 776.83 552.401 778.062C553.97 778.653 555.646 778.906 557.318 778.799C558.991 778.692 560.622 778.237 562.105 777.454C568.082 774.595 570.164 767.842 571.549 761.949C571.982 759.692 570.856 757.092 568.515 756.575C566.179 756.057 563.664 757.267 563.145 759.608C562.625 761.949 562.625 762.034 562.279 763.249L561.759 764.977C561.68 765.253 561.563 765.517 561.413 765.759C561.066 766.801 561.846 764.977 561.326 765.934C561.119 766.452 560.857 766.941 560.546 767.408C560.454 767.667 560.306 767.904 560.112 768.101C559.679 768.793 560.546 767.667 560.199 768.011L559.073 769.136C558.9 769.311 558.293 769.569 558.813 769.401L558.466 769.569L557.86 769.918C557.08 770.436 558.726 769.66 557.86 769.918L557.167 770.177C556.473 770.352 556.993 770.093 557.34 770.177H556.04L555.174 769.918C554.481 769.744 555.78 770.267 555.347 770.003L554.654 769.66L553.961 769.226L553.614 768.967L553.874 769.226C553.614 769.226 553.007 768.444 552.834 768.275L552.228 767.577C551.708 766.975 552.748 768.269 552.228 767.577C551.708 766.885 548.415 764.634 546.248 766.018C544.082 767.408 543.303 770.003 544.776 771.911Z" fill="white"/>
<path d="M497.638 819.22L498.245 818.617L497.379 819.31C497.818 818.938 498.315 818.646 498.851 818.443L497.811 818.876C498.419 818.612 499.061 818.437 499.718 818.353L498.591 818.527C499.224 818.443 499.865 818.443 500.498 818.527L499.285 818.353C499.859 818.437 500.415 818.612 500.931 818.876L499.891 818.443C500.423 818.617 500.922 818.876 501.364 819.22L500.498 818.617L501.798 819.918L501.104 818.961C501.472 819.479 501.791 820.03 502.057 820.61L501.538 819.569C501.788 820.058 501.963 820.587 502.057 821.128L501.884 820.002V820.176C501.896 821.021 502.157 821.848 502.633 822.551C503.11 823.249 503.782 823.795 504.567 824.122C505.351 824.442 506.212 824.527 507.045 824.369C507.877 824.206 508.644 823.801 509.249 823.21C509.679 822.833 510.019 822.366 510.244 821.837C510.469 821.313 510.573 820.745 510.549 820.176C510.435 818.983 510.143 817.813 509.682 816.71C509.245 815.635 508.63 814.639 507.863 813.761C506.593 812.207 504.912 811.037 503.011 810.384C501.03 809.692 498.89 809.601 496.859 810.125C494.811 810.541 492.937 811.566 491.486 813.068C491.08 813.473 490.758 813.952 490.538 814.481C490.318 815.01 490.205 815.573 490.205 816.147C490.205 816.715 490.318 817.284 490.538 817.813C490.758 818.342 491.08 818.82 491.486 819.22C492.321 820.002 493.42 820.435 494.562 820.435C495.704 820.435 496.804 820.002 497.638 819.22Z" fill="white"/>
<path d="M538.623 809.601V807.874C538.45 808.825 538.623 806.917 538.623 807.874C538.797 806.917 538.71 807.266 538.797 807.007L539.057 806.14V805.876C539.23 805.442 539.23 805.532 538.97 806.14C538.71 806.742 539.663 804.84 539.749 804.666L540.009 804.317L540.356 803.973C540.529 803.715 541.223 802.848 541.483 802.848C541.742 802.848 540.963 803.281 541.309 802.932H541.569L542.349 802.414L543.129 802.066C542.349 802.583 542.782 802.24 543.216 802.066L543.995 801.891C544.082 802.066 545.382 801.891 545.555 801.891H546.162C546.725 802.015 547.277 802.189 547.808 802.414L548.328 802.583L547.895 802.324C547.981 802.499 548.414 802.673 548.588 802.758L549.368 803.191L549.714 803.45L549.368 803.191C549.628 803.107 550.494 804.148 550.58 804.317C550.667 804.491 551.274 805.009 550.84 804.491C550.408 803.973 551.014 804.84 551.1 805.009C552.314 806.917 555.086 807.874 557.08 806.574C559.072 805.274 559.939 802.673 558.639 800.681C555 794.873 547.548 791.755 540.876 793.832C534.204 795.914 529.265 802.758 529.872 809.776C530.132 812.033 531.778 814.284 534.204 814.109C536.63 813.935 538.797 812.202 538.537 809.776L538.623 809.601Z" fill="white"/>
<path d="M585.674 790.888C585.325 790.022 585.584 791.496 585.584 791.063C585.584 790.63 585.24 792.014 585.499 791.322C585.758 790.63 585.15 791.84 585.499 791.406C585.848 790.973 585.674 790.888 585.848 790.804L585.584 791.237L585.848 790.888L586.45 790.371C586.017 790.63 586.974 789.763 586.45 790.371L587.058 789.847L590.007 788.204L590.784 787.771C591.392 787.506 589.833 788.114 590.874 787.771L592.517 787.247L593.21 787.073C594.251 786.814 592.259 787.073 593.384 787.073C594.51 787.073 594.6 787.163 595.033 787.073H594.684L595.467 787.337C596.069 787.506 595.467 787.337 595.292 787.163L595.9 787.506L596.502 787.855C597.284 788.288 596.069 787.422 596.418 787.771L596.851 788.288C597.543 788.896 596.592 787.771 596.851 788.114C596.913 788.345 597.031 788.553 597.2 788.722C597.543 789.33 597.025 788.114 597.11 788.547C597.2 788.981 597.2 789.155 597.284 789.155C597.369 789.155 597.2 788.114 597.2 789.155C597.2 790.303 597.656 791.406 598.466 792.217C599.277 793.033 600.38 793.489 601.528 793.489C602.665 793.444 603.74 792.976 604.544 792.172C605.349 791.367 605.822 790.292 605.861 789.155C605.839 787.343 605.349 785.57 604.438 784.005C603.526 782.447 602.226 781.141 600.661 780.229C599.153 779.334 597.47 778.76 595.731 778.535C593.986 778.31 592.214 778.445 590.525 778.929C587.43 779.711 584.514 781.096 581.948 783.004C578.74 785.345 575.881 789.071 577.266 793.314C577.964 795.396 580.299 797.04 582.64 796.258C584.982 795.481 586.366 793.23 585.674 790.973V790.888Z" fill="white"/>
<path d="M567.13 828.838C569.066 829.479 571.114 829.699 573.14 829.474C575.166 829.254 577.125 828.596 578.875 827.555C580.626 826.514 582.128 825.101 583.288 823.424C584.447 821.747 585.229 819.844 585.584 817.835C585.831 816.693 585.679 815.5 585.156 814.458C584.56 813.496 583.637 812.787 582.556 812.466C582.004 812.314 581.43 812.28 580.862 812.354C580.299 812.427 579.753 812.612 579.264 812.899C578.751 813.147 578.307 813.513 577.963 813.963C577.62 814.413 577.378 814.942 577.266 815.494C577.091 816.349 576.855 817.188 576.573 818.01L577.007 816.968C576.658 817.768 576.224 818.522 575.707 819.22L576.314 818.353C575.797 819.045 575.183 819.659 574.497 820.176L575.363 819.484C574.699 819.985 573.973 820.396 573.197 820.694L574.238 820.261C573.45 820.57 572.639 820.807 571.812 820.953L572.938 820.784H570.163L571.289 820.953C570.636 820.863 569.994 820.689 569.381 820.435C568.283 820.165 567.118 820.328 566.133 820.897C565.149 821.46 564.423 822.383 564.096 823.469C563.826 824.583 563.989 825.754 564.552 826.755C565.115 827.752 566.038 828.5 567.13 828.838Z" fill="white"/>
<path d="M423.12 815.584C416.156 833.379 411.468 851.98 409.17 870.952C406.802 889.124 406.772 907.528 409.083 925.712C410.405 936.771 412.519 947.712 415.408 958.467C415.769 959.84 416.401 961.129 417.266 962.254C418.132 963.386 419.214 964.325 420.449 965.029C421.685 965.732 423.048 966.177 424.459 966.346C425.87 966.515 427.3 966.397 428.666 966.003C430.026 965.665 431.303 965.051 432.42 964.202C433.537 963.352 434.47 962.283 435.164 961.067C436.606 958.546 437.01 955.563 436.291 952.749C433.788 943.609 431.878 934.317 430.572 924.935L431.005 927.879C428.942 912.779 428.477 897.499 429.619 882.303C429.966 878.054 430.399 873.726 431.005 869.393L430.659 872.252C432.493 858.677 435.597 845.299 439.93 832.304C441.23 828.579 442.53 824.943 444.003 821.386C445.476 817.835 444.176 815.15 442.876 812.984C441.437 810.586 439.147 808.825 436.464 808.042C433.692 807.44 430.572 807.524 428.059 809.083L425.893 810.817C424.567 812.134 423.611 813.777 423.12 815.584Z" fill="#D13535"/>
<path d="M674.663 799.724L677.173 805.707L676.132 803.106C682.891 819.338 689.015 835.715 694.502 852.233C699.961 868.785 704.818 885.596 708.977 902.491C711.313 912.109 713.395 921.727 715.297 931.43C715.821 933.946 718.072 936.63 720.323 937.93C722.856 939.354 725.844 939.726 728.647 938.971C731.354 938.195 733.673 936.433 735.142 934.03C736.481 931.441 736.847 928.464 736.183 925.627C732.631 907.601 728.382 889.755 723.272 872.077C718.162 854.4 712.438 836.987 705.944 819.743C701.959 809.342 697.794 799.032 693.292 788.806C692.341 786.47 689.133 784.478 686.882 783.78C684.039 783.065 681.028 783.47 678.473 784.911C676.053 786.363 674.286 788.688 673.538 791.406L673.104 794.265C673.138 796.19 673.678 798.069 674.663 799.724Z" fill="#D13535"/>
<path d="M384.042 796.781C372.256 815.832 363.898 836.801 359.347 858.734C351.935 893.424 353.879 929.455 364.979 963.144C365.821 965.845 367.604 968.153 370.004 969.644C372.538 971.057 375.52 971.428 378.323 970.685C380.923 969.819 383.522 968.26 384.822 965.744C386.121 963.234 386.815 960.116 385.861 957.341C382.056 946.164 379.357 934.644 377.803 922.943L378.236 925.887C376.475 912.79 376.098 899.548 377.11 886.373C377.37 882.647 377.803 878.921 378.236 875.195L377.89 878.054C379.617 865.183 382.666 852.526 386.988 840.279C388.201 836.723 389.588 833.346 391.06 829.879L389.934 832.479C393.548 823.919 397.836 815.663 402.758 807.784C404.176 805.223 404.548 802.212 403.798 799.381C403.042 796.685 401.272 794.383 398.859 792.965C396.377 791.558 393.444 791.164 390.679 791.879C387.915 792.588 385.535 794.344 384.042 796.781Z" fill="#D13535"/>
<path d="M721.28 778.928C725.091 786.38 728.647 793.921 731.85 801.632L730.809 799.032C739.341 819.225 745.757 840.251 749.961 861.767C751.171 867.834 752.212 873.985 752.994 880.052L752.645 877.187C754.57 891.753 755.493 906.43 755.42 921.119C755.414 923.973 756.534 926.714 758.538 928.745C760.046 930.276 761.982 931.323 764.087 931.756C766.192 932.184 768.381 931.976 770.368 931.16C772.36 930.338 774.06 928.948 775.253 927.164C776.451 925.374 777.087 923.269 777.082 921.119C777.172 900.161 775.258 879.242 771.364 858.649C767.694 839.024 762.185 819.788 754.902 801.198C750.478 789.937 745.543 778.844 739.994 768.01C739.29 766.772 738.339 765.691 737.208 764.825C736.076 763.952 734.782 763.322 733.403 762.956C732.024 762.596 730.589 762.512 729.176 762.709C727.764 762.906 726.402 763.384 725.181 764.116C723.971 764.819 722.913 765.753 722.063 766.873C721.213 767.988 720.594 769.26 720.239 770.61C719.536 773.419 719.907 776.385 721.28 778.928Z" fill="#D13535"/>
<path d="M497.465 840.364C522.593 834.905 535.59 835.079 539.403 837.156C545.642 840.538 546.768 842.964 547.028 843.482C546.956 843.881 546.927 844.292 546.942 844.697C546.942 844.782 547.375 850.066 539.836 853.19C533.148 855.818 526.209 857.765 519.128 858.992C517.863 859.088 516.688 859.673 515.859 860.636C515.03 861.592 514.616 862.842 514.708 864.108C514.8 865.369 515.391 866.545 516.349 867.372C517.308 868.205 518.556 868.616 519.82 868.526H520.514C528.339 867.181 536.005 865.031 543.389 862.11C555.52 857.174 556.473 847.641 556.473 844.697C556.473 841.748 556.126 835.422 543.909 828.838C536.631 824.943 520.34 825.72 495.472 831.094C494.231 831.359 493.146 832.102 492.455 833.166C491.765 834.235 491.525 835.529 491.79 836.767C492.054 838.011 492.8 839.092 493.865 839.784C494.929 840.476 496.224 840.713 497.465 840.448V840.364Z" fill="#452D34"/>
<path d="M563.318 888.37C562.326 887.577 561.061 887.205 559.797 887.335C558.534 887.464 557.371 888.083 556.56 889.063C555.768 890.053 555.396 891.319 555.526 892.58C555.656 893.846 556.275 895.006 557.253 895.822C559.939 897.983 562.972 901.365 561.585 904.917C560.199 908.468 553.873 912.543 545.989 912.109C538.103 911.676 520.167 907.083 505.61 897.983C505.083 897.656 504.495 897.431 503.881 897.33C503.266 897.234 502.638 897.257 502.033 897.398C501.428 897.544 500.858 897.808 500.356 898.18C499.854 898.546 499.431 899.013 499.112 899.547C498.765 900.065 498.528 900.645 498.415 901.258C498.301 901.872 498.314 902.502 498.451 903.11C498.589 903.718 498.849 904.292 499.216 904.798C499.583 905.299 500.049 905.727 500.584 906.042C516.701 916.094 534.811 921.119 545.555 921.643H547.028C557.773 921.643 567.479 916.184 570.513 908.299C571.723 905.091 573.456 896.773 563.318 888.37Z" fill="#452D34"/>
<path d="M555.087 853.707C554.825 854.276 554.677 854.889 554.653 855.52C554.629 856.144 554.728 856.769 554.945 857.354C555.163 857.945 555.493 858.48 555.919 858.941C556.345 859.403 556.857 859.774 557.427 860.033C560.632 861.508 564.356 864.018 563.922 867.744C563.492 871.469 558.379 877.019 550.668 878.662C541.57 880.57 524.413 880.221 508.037 875.111C507.445 874.908 506.819 874.829 506.196 874.869C505.573 874.914 504.964 875.083 504.407 875.364C503.85 875.645 503.355 876.039 502.951 876.518C502.548 876.996 502.244 877.548 502.057 878.144C501.674 879.337 501.777 880.637 502.345 881.757C502.913 882.877 503.9 883.727 505.09 884.121C515.838 887.464 527.023 889.186 538.277 889.231C543.075 889.316 547.869 888.877 552.574 887.937C563.664 885.68 572.415 877.621 573.372 868.785C573.355 868.661 573.389 868.537 573.456 868.436C577.593 872.595 582.872 875.426 588.618 876.585C593.334 877.486 598.118 877.919 602.919 877.885C614.169 877.835 625.357 876.112 636.101 872.769C637.294 872.375 638.279 871.526 638.848 870.406C639.416 869.286 639.517 867.986 639.135 866.793C638.949 866.196 638.645 865.639 638.246 865.16C637.84 864.676 637.351 864.282 636.794 863.995C636.236 863.703 635.634 863.528 635.009 863.472C634.385 863.416 633.754 863.483 633.158 863.675C616.78 868.869 599.626 869.134 590.526 867.226C582.816 865.667 577.7 860.467 577.266 856.392C576.833 852.323 580.564 850.066 583.767 848.597C584.346 848.344 584.864 847.978 585.298 847.522C585.731 847.061 586.063 846.521 586.282 845.93C586.502 845.339 586.598 844.714 586.569 844.084C586.536 843.453 586.384 842.84 586.108 842.271C585.843 841.703 585.478 841.191 585.016 840.763C584.555 840.335 584.014 840.009 583.429 839.79C582.844 839.57 582.219 839.474 581.594 839.497C580.964 839.519 580.351 839.666 579.782 839.93C569.815 844.523 567.913 851.282 567.738 855.356C565.836 853.724 563.703 852.379 561.412 851.366C560.846 851.096 560.229 850.939 559.6 850.905C558.971 850.877 558.342 850.972 557.752 851.192C557.161 851.411 556.621 851.743 556.163 852.177C555.705 852.61 555.339 853.133 555.087 853.707Z" fill="#452D34"/>
<path d="M546.682 924.237C546.177 923.877 545.605 923.618 544.999 923.478C544.394 923.337 543.766 923.314 543.152 923.421C542.539 923.528 541.953 923.753 541.428 924.085C540.904 924.418 540.451 924.857 540.096 925.369C539.73 925.875 539.468 926.455 539.326 927.068C539.185 927.682 539.165 928.318 539.27 928.937C539.375 929.556 539.601 930.152 539.936 930.682C540.271 931.216 540.709 931.678 541.223 932.038C542.609 932.995 544.775 934.987 543.476 937.413C542.176 939.838 536.544 942.438 528.919 939.23C514.498 933.242 500.564 926.145 487.241 918.002C486.706 917.67 486.112 917.444 485.491 917.343C484.87 917.242 484.235 917.264 483.623 917.411C483.011 917.557 482.433 917.822 481.924 918.187C481.414 918.559 480.983 919.026 480.655 919.561C480.325 920.09 480.103 920.675 480.002 921.288C479.902 921.907 479.925 922.532 480.07 923.14C480.215 923.742 480.48 924.316 480.848 924.817C481.216 925.318 481.681 925.74 482.215 926.061C495.952 934.469 510.321 941.797 525.193 947.982C528.604 949.496 532.291 950.295 536.024 950.323C543.389 950.323 549.194 946.766 551.881 942.005C554.567 937.238 554.134 929.438 546.682 924.237Z" fill="#452D34"/>
<path d="M597.802 850.59C605.152 853.544 612.79 855.722 620.596 857.09H621.372C622.503 857.101 623.601 856.702 624.456 855.97C625.317 855.238 625.886 854.22 626.049 853.1C626.15 852.481 626.128 851.845 625.976 851.237C625.83 850.623 625.565 850.049 625.194 849.543C624.822 849.036 624.355 848.609 623.82 848.282C623.286 847.956 622.689 847.736 622.064 847.641C614.973 846.408 608.034 844.433 601.359 841.748C594.341 838.889 594.251 834.038 594.251 833.261C594.296 832.856 594.296 832.451 594.251 832.045C594.425 831.438 595.635 829.012 601.792 825.72C604.303 824.42 611.844 822.776 634.632 827.104C635.262 827.262 635.915 827.284 636.551 827.172C637.192 827.065 637.8 826.828 638.346 826.474C638.887 826.125 639.354 825.663 639.714 825.123C640.074 824.588 640.322 823.981 640.44 823.345C640.558 822.709 640.541 822.05 640.4 821.42C640.254 820.79 639.984 820.193 639.607 819.67C639.224 819.146 638.74 818.707 638.183 818.375C637.626 818.043 637.007 817.829 636.365 817.75C616.262 813.935 603.869 813.85 597.284 817.317C585.066 823.902 584.374 830.486 584.723 833.261C585.066 836.03 585.674 845.648 597.802 850.59Z" fill="#452D34"/>
<path d="M595.635 910.291C606.385 909.768 624.49 904.742 640.609 894.691C641.149 894.364 641.616 893.937 641.982 893.424C642.348 892.912 642.612 892.327 642.747 891.714C642.888 891.1 642.899 890.464 642.781 889.845C642.668 889.226 642.432 888.635 642.083 888.106C641.762 887.571 641.34 887.104 640.834 886.738C640.333 886.373 639.759 886.114 639.151 885.973C638.543 885.838 637.913 885.827 637.299 885.939C636.686 886.052 636.101 886.288 635.583 886.637C621.023 895.732 604.387 900.324 595.202 900.758C587.317 901.107 581.081 897.381 579.607 893.565C578.132 889.755 581.256 886.637 583.94 884.38C584.43 883.998 584.841 883.514 585.139 882.968C585.443 882.416 585.629 881.814 585.696 881.195C585.758 880.57 585.702 879.94 585.516 879.343C585.336 878.747 585.032 878.19 584.633 877.711C584.239 877.216 583.749 876.805 583.192 876.501C582.64 876.203 582.027 876.012 581.397 875.95C580.772 875.882 580.136 875.944 579.528 876.13C578.926 876.31 578.363 876.614 577.874 877.019C567.738 885.337 569.471 893.74 570.681 896.948C573.714 904.832 583.423 910.291 594.167 910.291H595.635Z" fill="#452D34"/>
<path d="M664.522 905.525C664.19 904.995 663.751 904.534 663.238 904.174C662.726 903.814 662.147 903.56 661.539 903.42C660.925 903.285 660.289 903.268 659.676 903.38C659.057 903.487 658.466 903.712 657.937 904.05C643.445 913.291 628.165 921.238 612.277 927.794C604.651 930.997 599.192 928.661 597.718 925.971C596.243 923.286 598.584 921.643 599.969 920.686C601.016 919.966 601.73 918.852 601.961 917.602C602.186 916.353 601.905 915.064 601.184 914.017C600.458 912.97 599.35 912.256 598.1 912.025C596.845 911.8 595.556 912.081 594.51 912.802C587.058 918.002 586.54 925.453 589.315 930.563C592.084 935.679 597.718 938.972 605.169 938.972C608.895 938.893 612.575 938.099 616.003 936.63C632.38 929.815 648.15 921.609 663.137 912.109C664.195 911.417 664.932 910.336 665.191 909.104C665.45 907.871 665.214 906.583 664.522 905.525Z" fill="#452D34"/>
<path d="M334.564 967.567C329.106 984.288 324.687 1001.36 319.141 1018.08C317.581 1023.45 325.986 1025.79 327.546 1020.42C333.005 1003.7 337.424 986.539 342.969 969.818C344.529 964.443 336.124 962.108 334.564 967.567Z" fill="#452D34"/>
<path d="M765.646 928.835C768.33 955.957 772.14 983.421 782.108 1008.98C783.582 1014.36 791.985 1012.1 790.426 1006.73C782.8 987.496 779.159 966.959 776.215 946.507C775.782 943.305 774.741 934.03 774.307 928.835C773.874 923.635 765.556 923.202 765.646 928.835Z" fill="#452D34"/>
<path d="M886.777 700.081C889.821 711.269 892.134 722.643 893.71 734.13C899.952 788.114 894.751 855.874 852.12 889.147C842.417 896.773 827.683 904.483 818.239 908.468C792.767 919.302 760.445 926.235 735.665 929.438C720.414 931.43 701.869 933.253 688.092 933.253C686.499 932.989 684.935 932.584 683.415 932.038C684.282 932.387 683.156 931.863 683.066 931.863C682.036 931.374 681.052 930.794 680.123 930.13C679.948 930.046 679.082 929.353 679.774 929.961C678.62 928.948 677.545 927.851 676.566 926.669C670.831 917.917 665.901 908.665 661.838 899.024C651.094 873.895 644.419 841.056 640.001 814.717C639.613 811.785 639.979 808.808 641.07 806.061C642.162 803.315 643.946 800.895 646.242 799.032C647.503 798.075 648.871 797.259 650.311 796.606C688.874 781.703 731.332 764.634 772.23 751.982L784.533 748.431C789.908 747.041 787.651 738.554 782.192 740.113C739.65 751.982 698.577 768.793 657.42 784.562C635.667 790.714 626.916 804.142 633.242 826.328C639.827 857.433 651.786 927.879 683.241 941.048C733.324 942.523 785.484 932.561 831.324 911.935C873.174 894.173 895.444 854.4 901.336 810.732C906.277 780.921 905.58 750.339 900.295 720.617C898.218 715.068 897.695 692.455 889.81 694.706C888.718 695.049 887.795 695.792 887.232 696.794C886.67 697.79 886.506 698.966 886.777 700.081Z" fill="#452D34"/>
<path d="M664.263 824.769C673.33 822.771 682.138 819.748 690.518 815.758C692.51 814.801 693.202 811.684 692.077 809.866C689.392 805.707 684.974 808.909 681.682 810.299C675.305 812.888 668.726 814.942 662.012 816.45C656.553 817.835 658.894 826.243 664.263 824.769Z" fill="#452D34"/>
<path d="M682.807 872.685C688.008 870.519 704.385 872.511 702.82 864.277C700.226 857.434 686.274 864.452 680.466 864.277C675.097 865.667 677.348 874.07 682.807 872.685Z" fill="#452D34"/>
<path d="M698.577 917.31C703.862 915.058 725.006 915.835 722.58 907.95C720.155 900.066 702.303 909.076 696.236 908.992C690.867 910.376 693.118 918.784 698.577 917.31Z" fill="#452D34"/>
<path d="M300.251 534.58C247.222 599.132 186.135 664.292 172.618 749.989C165.339 790.37 170.105 832.828 187.435 870.169C231.019 977.703 361.859 989.921 460.119 959.767C482.734 955.349 487.414 942.697 488.366 921.468C491.053 897.381 493.826 873.377 497.811 849.548C500.064 839.846 500.237 829.102 493.045 821.386C480.915 810.124 462.632 809.258 447.728 803.281C402.613 789.413 357.382 775.726 312.036 762.208C306.75 760.649 304.411 768.967 309.783 770.61C347.966 782.046 386.121 793.573 424.246 805.183C499.284 831.004 494.778 810.209 484.121 884.037C482.648 895.647 481.261 907.342 479.962 918.953C478.575 928.053 480.048 939.23 472.25 945.73C417.314 967.044 345.396 972.503 288.641 954.566C217.329 930.394 174.957 853.1 178.076 780.054C180.589 694.531 235.352 623.917 288.987 561.874C292.106 556.415 312.122 538.912 306.404 534.58C304.844 533.106 301.725 532.76 300.251 534.58Z" fill="#452D34"/>
<path d="M445.215 841.315L470.257 846.172C475.715 847.556 478.055 839.238 472.596 837.763C466.617 837.853 443.222 828.753 442.182 836.03C441.749 838.112 442.876 840.881 445.215 841.315Z" fill="#452D34"/>
<path d="M438.631 889.496L463.586 891.055C464.734 891.055 465.837 890.599 466.649 889.783C467.462 888.972 467.918 887.869 467.918 886.721C468.698 879.444 444.436 882.303 438.631 880.829C432.999 880.744 432.999 889.406 438.631 889.496Z" fill="#452D34"/>
<path d="M431.958 933.687C441.135 932.663 450.386 932.46 459.599 933.079C465.231 933.164 465.231 924.412 459.599 924.412C453.967 924.412 427.453 921.294 427.626 929.353C427.713 931.43 429.532 933.946 431.958 933.687Z" fill="#452D34"/>
</svg>
