<svg width="1126" height="1126" viewBox="0 0 1126 1126" fill="none" xmlns="http://www.w3.org/2000/svg">
<path d="M557.713 945.117L541.943 950.92C541.179 951.201 540.335 951.167 539.596 950.824C538.858 950.487 538.285 949.862 538.004 949.102C537.55 947.87 537.343 946.558 537.396 945.241C537.449 943.93 537.76 942.641 538.311 941.448C538.862 940.255 539.644 939.18 540.609 938.291C541.576 937.396 542.707 936.704 543.941 936.253L546.684 935.24C547.917 934.79 549.228 934.582 550.542 934.632C551.855 934.689 553.145 934.998 554.338 935.55C555.531 936.101 556.604 936.884 557.495 937.846C558.387 938.814 559.079 939.945 559.533 941.178C559.814 941.943 559.78 942.787 559.439 943.525C559.097 944.268 558.476 944.836 557.713 945.117Z" fill="#D13535"/>
<path d="M597.668 968.107C591.748 950.942 571.875 942.32 553.394 948.747C534.911 955.18 524.682 974.247 530.6 991.339C532.75 997.536 536.819 1002.89 542.216 1006.61C546.301 1009.39 550.161 1012.5 553.759 1015.89L578.089 1038.9C578.989 1039.76 580.109 1040.35 581.33 1040.61C582.546 1040.88 583.807 1040.8 584.983 1040.39C586.159 1039.98 587.2 1039.26 587.994 1038.31C588.787 1037.35 589.305 1036.19 589.485 1034.96L594.674 1001.42C595.372 996.765 596.447 992.172 597.888 987.687C599.931 981.31 599.858 974.439 597.668 968.107Z" fill="#EFDCC4"/>
<path d="M540.828 954.376C539.393 954.37 537.993 953.931 536.817 953.104C535.641 952.282 534.746 951.117 534.253 949.772C533.612 948.044 533.32 946.21 533.393 944.369C533.465 942.529 533.901 940.722 534.675 939.051C535.449 937.379 536.547 935.882 537.904 934.633C539.261 933.389 540.85 932.427 542.582 931.802L545.285 930.778C548.775 929.545 552.608 929.725 555.967 931.279C559.325 932.837 561.942 935.646 563.259 939.107C563.585 939.974 563.732 940.902 563.698 941.831C563.658 942.76 563.433 943.671 563.039 944.51C562.652 945.36 562.096 946.125 561.405 946.75C560.714 947.38 559.902 947.859 559.019 948.162L543.312 953.937C542.515 954.224 541.675 954.37 540.828 954.376ZM550.106 938.01C549.406 937.981 548.708 938.105 548.061 938.375L545.285 939.327C543.977 939.839 542.887 940.79 542.196 942.011C541.504 943.238 541.253 944.662 541.486 946.046L555.294 941.004C554.674 939.912 553.729 939.045 552.59 938.522C551.808 938.178 550.961 938.004 550.106 938.01Z" fill="#452D34"/>
<path d="M532.353 965.698C534.716 966.199 537.036 966.886 539.294 967.741L540.098 968.107L540.535 968.254L540.243 968.107C540.88 968.445 541.54 968.738 542.216 968.985L545.796 970.814C550.701 973.476 555.369 976.555 559.75 980.016L559.969 980.162L560.846 980.821L562.599 982.211L565.668 984.839C567.711 986.59 569.686 988.419 571.656 990.248C574.931 993.388 578.004 996.731 580.863 1000.25C581.218 1000.61 581.539 1001 581.814 1001.42C581.01 1000.4 581.595 1001.13 581.814 1001.35L582.253 1001.94L583.638 1003.98C584.004 1004.57 584.296 1005.15 584.589 1005.74C584.882 1006.32 584.223 1004.71 584.589 1005.66C584.955 1006.61 584.662 1006.02 584.735 1006.24C585.062 1007.09 585.686 1007.78 586.491 1008.19C587.296 1008.59 588.225 1008.69 589.097 1008.45C589.969 1008.22 590.723 1007.67 591.213 1006.91C591.703 1006.15 591.894 1005.24 591.748 1004.35C591.236 1001.5 589.046 998.937 587.364 996.748C584.6 993.146 581.572 989.752 578.308 986.59C570.215 978.367 561.079 971.242 551.129 965.406C545.869 962.485 540.243 959.851 534.253 958.686C532.426 958.247 530.235 959.198 529.796 961.168C529.358 963.143 530.308 965.259 532.353 965.698Z" fill="white"/>
<path d="M556.682 953.57C558.371 953.998 560.031 954.533 561.65 955.18L562.307 955.399C562.527 955.467 562.892 955.54 562.161 955.399C562.52 955.501 562.864 955.647 563.186 955.833L565.668 957.076C567.131 957.819 568.543 958.647 569.905 959.558C570.615 960.009 571.301 960.493 571.948 961.022C572.275 961.191 572.573 961.416 572.826 961.68L573.485 962.192C576.046 964.263 578.437 966.537 580.644 968.985C581.741 970.156 582.765 971.394 583.711 972.638L583.93 972.931L584.15 973.223C584.364 973.476 584.561 973.747 584.735 974.028C585.264 974.675 585.754 975.362 586.198 976.071C588.157 978.891 589.919 981.845 591.455 984.913C591.962 985.745 592.766 986.353 593.712 986.595C594.652 986.843 595.653 986.708 596.498 986.229C597.308 985.7 597.888 984.896 598.13 983.961C598.372 983.027 598.259 982.037 597.815 981.187C591.528 969.132 582.326 957.954 570.344 951.235C566.664 949.175 562.736 947.605 558.655 946.558C558.182 946.383 557.679 946.31 557.178 946.344C556.676 946.378 556.187 946.513 555.74 946.738C555.292 946.969 554.898 947.289 554.579 947.678C554.261 948.066 554.027 948.516 553.891 949C553.755 949.484 553.72 949.991 553.789 950.492C553.857 950.987 554.028 951.465 554.29 951.893C554.552 952.321 554.9 952.692 555.311 952.979C555.723 953.272 556.19 953.469 556.682 953.57Z" fill="white"/>
<path d="M527.97 990.175C526.947 990.321 527.02 990.248 527.604 990.248H527.458L529.285 990.754L531.623 991.559L532.207 991.852C532.792 992.071 531.257 991.413 531.842 991.632L532.207 991.779L533.595 992.437C538.294 994.643 542.856 997.131 547.257 999.889C552.59 1003.1 557.704 1006.54 562.672 1010.19L564.351 1011.43L565.302 1012.16C565.521 1012.31 566.692 1013.19 565.741 1012.46L569.247 1015.3C571.369 1017.06 573.485 1018.81 575.455 1020.79C577.43 1022.76 577.357 1022.68 578.308 1023.63C579.253 1024.58 579.113 1024.58 579.546 1025.1L580.131 1025.82C580.717 1026.63 581.302 1027.51 581.814 1028.38L582.473 1029.62C581.741 1028.31 582.4 1029.55 582.546 1030.06C582.799 1030.99 583.413 1031.78 584.245 1032.26C585.078 1032.73 586.069 1032.86 587.003 1032.62C587.921 1032.33 588.703 1031.7 589.176 1030.86C589.648 1030.02 589.789 1029.03 589.558 1028.09C588.388 1023.78 585.101 1020.13 582.034 1016.99C577.768 1012.78 573.203 1008.9 568.369 1005.37C558.946 998.279 548.937 991.706 538.271 986.59C536.089 985.532 533.845 984.603 531.55 983.815C529.809 983.134 527.923 982.909 526.07 983.157C524.171 983.522 522.929 985.937 523.513 987.687C524.098 989.443 525.924 990.535 527.97 990.248V990.175Z" fill="white"/>
<path d="M579.912 1045.7C577.154 1045.69 574.492 1044.65 572.461 1042.77C564.643 1035.54 545.869 1016.62 537.102 1010.85C511.605 993.754 521.029 954.522 549.23 945.9C576.918 935.162 608.699 960.51 598.833 989.809C595.766 998.718 592.26 1026.92 590.656 1036.49C590.268 1039.06 588.967 1041.4 586.998 1043.09C585.028 1044.78 582.512 1045.71 579.912 1045.7ZM563.039 951.601C543.093 950.942 524.39 971.468 531.55 990.974C534.545 1001.57 546.746 1006.83 553.686 1013.92L578.015 1036.93C580.058 1038.46 582.034 1037.73 582.692 1035.32L587.876 1001.79C589.119 991.34 595.254 980.748 591.022 970.376C587.29 958.906 575.095 951.381 563.039 951.601Z" fill="#452D34"/>
<path d="M921.457 564.902C921.317 564.83 921.389 564.902 921.457 564.902V564.902Z" fill="#CE9C5C"/>
<path d="M783.527 774.651H783.746C776.002 771.877 767.234 763.108 763.728 758.285L761.685 755.511C756.276 747.986 752.038 739.73 747.874 731.547C747.637 731.13 747.322 730.765 746.945 730.472C746.568 730.174 746.135 729.96 745.668 729.842C745.206 729.718 744.722 729.69 744.249 729.757C743.771 729.825 743.315 729.988 742.904 730.23C723.471 745.138 695.854 752.956 676.207 738.632C673.427 736.443 670.799 733.376 671.311 729.577C671.238 729.504 671.311 729.065 671.311 728.919V729.065C673.134 724.388 665.756 721.687 664.371 726.577C662.981 731.474 665.024 738.12 669.116 742.139C690.378 760.919 722.159 754.047 743.343 738.706C753.721 759.383 769.063 783.127 794.558 784.517C797.293 784.647 800.028 784.523 802.741 784.151C802.065 781.838 801.649 779.463 801.497 777.06C795.402 777.764 789.222 776.936 783.527 774.651Z" fill="#CE9C5C"/>
<path d="M783.526 774.651C782.796 774.286 783.307 774.578 783.526 774.651V774.651Z" fill="#CE9C5C"/>
<path d="M1008.47 931.07C999.776 947.509 974.208 927.856 958.354 960.51C944.622 980.968 920.365 996.163 895.377 995.944C886.468 995.212 872.73 990.535 873.681 979.504C874.194 975.925 870.541 973.516 867.614 975.998C837.882 999.23 798.21 1023.27 759.27 1012.75C740.788 1006.97 726.471 981.919 739.105 964.894C742.032 961.9 738.16 956.931 734.654 959.125C727.731 964.078 719.796 967.438 711.421 968.969C703.047 970.494 694.442 970.151 686.214 967.961C659.841 961.095 638.213 930.485 647.127 903.527C653.628 891.325 673.354 890.594 685.116 885.118C701.043 879.782 714.123 878.539 707.983 857.94C706.452 843.324 707.11 823.818 720.989 815.201C740.642 804.75 776.222 837.043 813.333 820.97C815.77 819.974 818.055 818.646 820.131 817.025C818.792 814.993 817.3 813.063 815.674 811.256C798.576 823.525 767.6 816.439 748.166 808.915C709.519 793.646 694.543 831.269 701.482 863.489C702.507 866.996 703.019 871.599 698.635 872.77C683.366 879.929 651.658 884.093 642.45 896.953C635.365 908.057 637.121 922.594 641.212 934.43C652.536 969.498 695.055 987.395 728.148 971.321C720.477 1006.68 759.051 1029.4 790.539 1021.8C818.668 1016.91 844.675 1002.96 867.108 985.718C875.798 1007.93 906.554 1005.44 924.677 997.187C945.129 989.224 960.11 972.711 971.214 954.302C982.538 940.638 1008.76 952.546 1015.56 933.04C1016.95 928.509 1009.86 926.613 1008.47 931.07Z" fill="#CE9C5C"/>
<path d="M959.012 601.506H959.085C958.428 601.579 958.72 601.652 959.012 601.506Z" fill="#CE9C5C"/>
<path d="M1014.03 586.378C1007.89 585.506 1009.13 594.342 1006.57 597.995C1002.04 607.86 994.374 620.794 981.879 619.769H981.66C980.562 619.612 979.488 619.342 978.446 618.964C978.739 619.111 978.081 618.818 978.154 618.891C971.58 615.531 972.306 606.617 969.971 600.555C974.282 591.348 958.72 589.963 961.934 599.458C961.135 600.33 960.167 601.028 959.086 601.506H959.159C957.403 602.221 955.49 602.474 953.604 602.232C940.019 599.97 938.921 582.433 939.945 571.256C955.58 567.604 969.532 556.5 976.325 541.889C977.788 539.112 979.758 534.51 975.525 533.195C971.288 531.88 968.873 543.277 965.074 546.491C958.416 555.353 948.888 561.628 938.116 564.244C937.463 563.94 936.737 563.844 936.028 563.973C935.319 564.103 934.672 564.457 934.171 564.975C929.956 565.561 925.678 565.561 921.457 564.975H921.75C892.822 560.518 859.071 534.218 866.011 501.999C867.176 498.054 861.407 495.57 859.358 499.223C857.141 503.011 854.152 506.295 850.596 508.867C842.851 513.104 849.059 521.871 857.754 512.447C860.602 547.733 898.591 574.256 932.567 572.5C929.714 591.128 941.915 618.379 964.123 607.056C966.245 629.19 988.599 633.501 1002.48 618.013C1006.79 613.922 1022.42 589.671 1014.03 586.378ZM865.206 515.223C865.133 514.638 865.206 515.15 865.206 515.369V515.223ZM944.763 597.049L944.909 597.195L944.763 597.049Z" fill="#CE9C5C"/>
<path d="M661.371 576.299L661.664 576.08L661.371 576.299Z" fill="#CE9C5C"/>
<path d="M659.694 578.055C660.132 577.689 660.059 577.616 659.913 577.762L659.694 578.055Z" fill="#CE9C5C"/>
<path d="M663.639 574.982C664.077 574.909 664.077 574.763 663.858 574.836L663.639 574.982Z" fill="#CE9C5C"/>
<path d="M653.773 588.647C656.407 585.58 657.358 581.415 659.694 578.055H659.621C660.15 577.391 660.735 576.777 661.371 576.226L661.664 576.006C662.272 575.556 662.936 575.19 663.639 574.909H663.566C665.142 574.284 666.785 573.845 668.462 573.598C685.701 570.384 663.785 545.396 688.042 542.327C700.604 541.232 713.317 544.081 725.226 548.026C726.982 548.683 729.244 547.368 729.683 545.469C731.726 538.09 704.329 535.898 698.926 535.022C676.426 532.319 664.883 543.423 668.535 565.927C668.316 566.202 668.001 566.382 667.657 566.439C660.645 566.945 654.066 571.183 651.438 577.835C650.633 581.415 645.449 585.141 648.59 588.574C649.901 589.891 652.462 590.251 653.773 588.647ZM682.707 543.715L682.487 543.862L682.707 543.715ZM679.786 545.396L679.566 545.615C679.566 545.542 679.713 545.469 679.786 545.396ZM668.609 565.927C668.682 565.927 668.682 565.853 668.755 565.78L668.609 565.927Z" fill="#CE9C5C"/>
<path d="M688.043 542.401C688.475 542.401 688.548 542.401 688.475 542.328L688.043 542.401Z" fill="#CE9C5C"/>
<path d="M1020.6 389.125C1014.39 387.591 1016.44 399.937 1006.28 406.586C995.178 415.572 977.934 412.503 969.531 401.252C969.475 401.102 969.374 400.974 969.239 400.887C972.306 392.047 957.111 391.828 960.544 400.595C949.22 408.558 934.61 397.088 933.586 384.814C933.512 384.303 933.439 384.157 933.586 384.741C932.64 379.846 934.244 374.879 933.805 370.13C933.366 365.381 930.665 365.892 927.817 365.527C924.941 364.94 922.166 363.956 919.561 362.605C891.286 348.14 897.792 307.592 928.402 301.529C968.946 298.971 921.097 249.292 917.664 230.662C907.286 200.562 929.567 185.439 957.257 185.512C960.69 185.001 966.757 186.828 967.123 181.714C969.97 156.874 973.111 95.2127 1001.31 87.8338C1004.52 86.944 1007.91 86.9694 1011.1 87.907C1015.63 89.2948 1017.53 82.2087 1013.08 80.8934C997.514 76.4372 982.391 87.907 976.178 101.642C965.952 125.678 962.446 152.198 960.037 178.06C912.621 176.453 894.499 211.813 919.049 251.045C922.555 257.986 943.451 287.501 935.341 292.835C886.609 295.757 878.358 360.998 926.573 372.687C925.87 377.509 925.892 382.411 926.646 387.225C895.304 381.819 869.151 361.217 850.303 336.377C843.217 327.099 836.784 315.848 824.729 312.56C804.277 305.766 782.21 324.469 785.497 345.802C755.325 346.971 717.922 338.423 695.787 364.724C681.098 382.111 687.823 408.339 703.531 422.658C722.159 440.119 749.849 441.069 773.74 436.978C768.331 454.658 768.917 474.31 776.441 491.187C778.85 495.278 784.698 510.474 790.686 505.652C792.954 503.387 791.125 500.684 789.442 498.858C786.673 495.24 784.365 491.288 782.576 487.095C767.453 451.297 791.564 427.553 778.192 428.795C765.557 431.352 752.624 432.594 739.691 431.06C729.172 429.526 718.873 426.165 710.543 419.152C696.659 407.754 688.695 385.545 700.751 370.13C722.452 344.048 760.295 355.81 789.881 352.742C797.552 351.427 789.228 343.61 794.485 332.651C799.747 321.693 813.625 315.483 825.095 320.45C836.565 325.418 840.876 337.473 848.693 345.947C868.712 371.007 896.914 390.586 929.207 395.043C934.829 407.974 952.512 415.353 964.562 406.586C980.05 426.677 1013.73 421.051 1022.06 397.161C1023.23 394.604 1024.4 390.148 1020.6 389.125Z" fill="#CE9C5C"/>
<path d="M1006.5 406.367L1006.28 406.585L1006.5 406.367Z" fill="#CE9C5C"/>
<path d="M870.614 595.001C865.498 578.561 866.961 553.578 847.455 547.149C842.924 545.834 840.949 552.921 845.479 554.163C847.156 554.628 848.721 555.423 850.083 556.501C851.906 557.67 854.54 561.688 855.345 563.805C859.217 574.475 860.748 585.945 863.596 596.903C864.766 601.507 871.852 599.531 870.614 595.001Z" fill="#D13535"/>
<path d="M926.207 653.374C944.329 654.398 957.696 660.021 973.55 671.423C989.426 682.82 1001.57 698.674 1008.44 716.97C1015.31 735.272 1016.6 755.195 1012.15 774.229C1007.69 793.257 997.699 810.541 983.427 823.896C969.154 837.251 951.24 846.07 931.953 849.244C912.666 852.424 892.873 849.807 875.071 841.737C857.27 833.661 842.26 820.497 831.944 803.894C821.628 787.292 816.462 768.005 817.103 748.47C817.745 728.935 824.161 710.031 835.546 694.143C839.919 688.042 844.967 682.454 850.595 677.484" fill="#D13535"/>
<path d="M867.395 624.153L878.065 620.647C887.762 617.507 898.309 618.334 907.398 622.949C916.488 627.564 923.382 635.584 926.573 645.264C928.548 651.331 923.14 655.056 919.048 659.953C904.072 678.142 877.261 684.057 857.608 680.039C851.254 678.801 844.821 678.728 842.851 672.588C839.728 662.907 840.561 652.389 845.159 643.322C849.751 634.25 857.748 627.361 867.395 624.153Z" fill="#EFDCC4"/>
<path d="M900.347 700.131C839.491 718.686 847.742 812.201 915.981 802.341C919.302 801.53 922.515 800.331 925.549 798.761C929.64 796.42 925.988 790.066 921.896 792.475C918.322 794.203 914.507 795.362 910.573 795.913C903.662 796.673 896.666 795.643 890.267 792.914C885.663 791.383 877.773 785.17 875.285 781.298C868.138 771.927 864.986 760.108 866.523 748.425C867.907 739.437 870.907 732.79 876.383 725.485C892.31 704.076 923.213 698.381 943.085 713.942C946.282 716.396 949.136 719.272 951.561 722.485C957.184 728.918 962.665 744.553 963.47 753.754C965.367 765.59 964.128 778.742 959.964 788.023C958.005 792.43 955.58 796.623 952.726 800.512C950.092 803.871 947.076 806.911 943.744 809.573C940.711 811.869 937.429 813.805 933.951 815.347C931.914 816.202 929.815 816.911 927.67 817.463C923.14 818.634 925.115 825.792 929.64 824.475C955.287 817.975 972.092 791.237 971.653 765.517C972.672 725.339 943.305 687.491 900.347 700.131Z" fill="white"/>
<path d="M913.059 767.2C912.987 767.2 912.987 767.2 912.987 767.272H913.059V767.2Z" fill="white"/>
<path d="M897.645 742.285C899.064 740.478 900.679 738.835 902.463 737.394C904.101 736.212 905.834 735.188 907.652 734.321C911.743 732.717 914.957 732.571 919.634 733.01C926.427 733.449 934.902 740.169 937.238 746.669C938.082 748.735 938.668 750.896 938.994 753.102C939.067 755.511 939.872 758.505 942.793 758.432C945.714 758.358 946.592 756.828 946.445 754.779C943.963 715.693 887.34 716.351 886.029 755.218C885.298 772.822 909.92 784.804 920.951 769.316C924.75 764.279 925.768 757.047 922.628 751.492C920.365 747.328 913.933 751.053 916.347 755.145C916.735 755.927 917.006 756.766 917.152 757.627C917.298 759.968 917.152 760.553 916.274 763.035C915.486 764.617 914.389 766.035 913.06 767.2H912.987L910.865 768.444C910.061 768.731 909.228 768.95 908.383 769.097C906.194 769.299 903.994 768.973 901.956 768.151C900.819 767.56 899.716 766.902 898.664 766.176C897.786 765.405 896.953 764.577 896.182 763.694C895.963 763.401 896.328 763.913 896.402 763.913C894.646 762.011 893.554 757.993 893.407 756.828C892.822 753.608 893.993 748.937 894.719 747.181C895.484 745.437 896.469 743.788 897.645 742.285Z" fill="white"/>
<path d="M901.151 862.684C879.703 862.673 858.801 855.925 841.388 843.397C795.289 810.305 784.697 745.938 817.79 699.839C822.174 693.704 825.68 689.393 831.601 684.131C831.995 683.782 832.462 683.512 832.963 683.343C833.464 683.174 833.993 683.101 834.522 683.135C835.051 683.169 835.569 683.31 836.047 683.54C836.52 683.777 836.947 684.097 837.296 684.497C837.645 684.897 837.915 685.358 838.084 685.859C838.259 686.366 838.326 686.894 838.292 687.424C838.259 687.953 838.124 688.47 837.887 688.943C837.657 689.421 837.33 689.849 836.93 690.198C831.528 694.875 828.455 698.747 824.296 704.516C793.826 746.962 803.545 806.36 846.065 836.824C866.511 851.485 891.938 857.422 916.763 853.342C941.583 849.256 963.774 835.484 978.446 815.055C1008.91 772.609 999.123 713.211 956.598 682.747C940.603 671.204 927.89 666.381 911.377 665.429C910.409 665.249 909.543 664.726 908.94 663.949C908.333 663.173 908.034 662.205 908.102 661.22C908.164 660.24 908.58 659.317 909.284 658.625C909.982 657.933 910.91 657.522 911.89 657.466C930.006 658.417 943.89 663.679 961.348 676.168C1007.37 709.266 1018.04 773.627 984.946 819.726C975.39 833.019 962.8 843.848 948.229 851.322C933.664 858.79 917.523 862.684 901.151 862.684Z" fill="#452D34"/>
<path d="M856.071 636.862C852.812 636.845 849.588 636.203 846.577 634.965C843.616 633.721 840.937 631.903 838.681 629.624C836.429 627.339 834.645 624.632 833.435 621.661C832.231 618.689 831.617 615.509 831.64 612.301C831.668 609.093 832.321 605.919 833.57 602.964C834.78 599.987 836.587 597.286 838.872 595.023C841.157 592.767 843.875 590.994 846.869 589.817C849.824 588.596 852.993 587.977 856.189 587.994C859.386 588.005 862.549 588.647 865.498 589.891C871.458 592.418 876.174 597.201 878.622 603.195C881.076 609.189 881.054 615.909 878.577 621.886C876.703 626.315 873.568 630.091 869.573 632.753C865.571 635.415 860.877 636.845 856.071 636.862ZM856.071 596.025C853.938 595.997 851.822 596.419 849.863 597.269C847.871 598.062 846.053 599.25 844.522 600.753C842.992 602.255 841.776 604.051 840.949 606.032C839.272 610.044 839.255 614.558 840.898 618.582C842.541 622.612 845.71 625.82 849.717 627.514C851.687 628.375 853.809 628.825 855.959 628.836C858.103 628.853 860.23 628.425 862.211 627.587C864.226 626.788 866.055 625.6 867.603 624.081C869.145 622.561 870.366 620.749 871.193 618.745C872.871 614.733 872.893 610.219 871.25 606.195C869.606 602.171 866.432 598.957 862.431 597.269C860.416 596.43 858.255 596.008 856.071 596.025Z" fill="#452D34"/>
<path d="M855.345 693.338C845.406 692.314 828.528 693.265 824.436 681.868C816.985 660.46 829.918 634.965 851.619 628.391C876.309 616.629 906.847 624.446 915.834 652.063C918.097 659.148 913.645 663.971 910.06 667.844C896.694 685.375 874.486 693.558 855.345 693.338ZM875.431 630.8C869.15 630.434 860.163 634.16 854.101 635.989C845.445 638.843 838.27 645.016 834.15 653.149C830.025 661.281 829.293 670.714 832.113 679.387C832.4 682.527 839.271 683.332 843.802 684.204C864.181 689.174 900.712 677.996 908.164 654.545C905.89 647.65 901.511 641.645 895.636 637.385C889.76 633.125 882.691 630.817 875.431 630.8Z" fill="#452D34"/>
<path d="M855.413 606.251H855.199C853.403 607.179 851.366 607.5 849.379 607.168C847.387 606.842 845.564 605.879 844.162 604.427C837.589 597.854 832.692 589.451 831.015 580.317C829.771 575.713 822.686 577.689 823.93 582.219C824.583 588.573 837.735 616.482 852.199 613.122C854.394 612.633 856.431 611.603 858.12 610.123C858.502 609.723 858.733 609.2 858.773 608.648C858.812 608.091 858.66 607.545 858.345 607.089C858.024 606.633 857.562 606.301 857.028 606.149C856.493 605.997 855.925 606.031 855.413 606.251Z" fill="#D13535"/>
<path d="M1011.76 299.702C1035.88 299.702 1055.45 280.142 1055.45 256.013C1055.45 231.885 1035.88 212.325 1011.76 212.325C987.631 212.325 968.068 231.885 968.068 256.013C968.068 280.142 987.631 299.702 1011.76 299.702Z" fill="#D13535"/>
<path d="M813.552 961.899C837.684 961.899 857.242 942.337 857.242 918.21C857.242 894.082 837.684 874.52 813.552 874.52C789.424 874.52 769.867 894.082 769.867 918.21C769.867 942.337 789.424 961.899 813.552 961.899Z" fill="#D13535"/>
<path d="M857.242 471.169C881.369 471.169 900.932 451.609 900.932 427.48C900.932 403.352 881.369 383.792 857.242 383.792C833.115 383.792 813.552 403.352 813.552 427.48C813.552 451.609 833.115 471.169 857.242 471.169Z" fill="#CE9C5C"/>
<path d="M998.465 294.15C989.027 294.15 979.803 291.352 971.957 286.11C964.112 280.868 958 273.417 954.387 264.7C950.779 255.982 949.834 246.39 951.674 237.136C953.514 227.882 958.056 219.381 964.731 212.709C971.4 206.037 979.904 201.494 989.156 199.653C998.409 197.812 1008 198.757 1016.72 202.368C1025.43 205.978 1032.89 212.093 1038.13 219.939C1043.37 227.784 1046.17 237.008 1046.17 246.443C1046.17 259.096 1041.14 271.23 1032.2 280.177C1023.25 289.124 1011.12 294.15 998.465 294.15ZM998.465 206.772C990.619 206.772 982.949 209.099 976.426 213.458C969.897 217.817 964.815 224.013 961.81 231.262C958.81 238.511 958.022 246.487 959.553 254.183C961.084 261.878 964.866 268.946 970.409 274.494C975.959 280.042 983.027 283.821 990.721 285.351C998.42 286.882 1006.39 286.097 1013.64 283.094C1020.89 280.091 1027.09 275.007 1031.45 268.483C1035.81 261.959 1038.13 254.289 1038.13 246.443C1038.13 235.922 1033.95 225.832 1026.51 218.392C1019.07 210.952 1008.98 206.772 998.465 206.772Z" fill="#452D34"/>
<path d="M800.259 956.345C790.821 956.345 781.596 953.548 773.751 948.308C765.906 943.063 759.794 935.612 756.18 926.894C752.573 918.182 751.627 908.586 753.468 899.334C755.308 890.081 759.85 881.577 766.525 874.908C773.194 868.233 781.698 863.692 790.95 861.851C800.202 860.011 809.798 860.957 818.516 864.564C827.228 868.177 834.679 874.289 839.925 882.135C845.164 889.98 847.961 899.204 847.961 908.642C847.945 921.288 842.913 933.411 833.97 942.354C825.027 951.297 812.905 956.328 800.259 956.345ZM800.259 868.971C792.413 868.971 784.742 871.295 778.22 875.657C771.691 880.013 766.609 886.209 763.604 893.458C760.604 900.707 759.816 908.682 761.347 916.381C762.878 924.074 766.66 931.143 772.203 936.692C777.752 942.241 784.821 946.018 792.52 947.549C800.214 949.079 808.189 948.291 815.437 945.292C822.686 942.286 828.883 937.204 833.244 930.682C837.6 924.159 839.925 916.488 839.925 908.642C839.908 898.124 835.721 888.044 828.286 880.609C820.851 873.175 810.772 868.988 800.259 868.971Z" fill="#452D34"/>
<path d="M843.943 465.617C834.511 465.617 825.286 462.819 817.441 457.577C809.596 452.335 803.484 444.884 799.871 436.167C796.257 427.449 795.312 417.857 797.158 408.603C798.998 399.348 803.54 390.848 810.209 384.176C816.884 377.504 825.382 372.961 834.64 371.12C843.893 369.279 853.483 370.224 862.2 373.835C870.918 377.445 878.37 383.56 883.615 391.406C888.854 399.251 891.651 408.474 891.651 417.91C891.635 430.557 886.598 442.68 877.66 451.622C868.718 460.565 856.595 465.598 843.943 465.617ZM843.943 378.24C836.098 378.24 828.427 380.566 821.904 384.925C815.381 389.284 810.299 395.48 807.294 402.729C804.294 409.977 803.506 417.954 805.037 425.649C806.568 433.345 810.344 440.413 815.893 445.961C821.443 451.509 828.511 455.288 836.205 456.818C843.904 458.349 851.879 457.563 859.127 454.561C866.376 451.558 872.573 446.474 876.929 439.95C881.29 433.426 883.615 425.756 883.615 417.91C883.598 407.395 879.411 397.316 871.976 389.88C864.542 382.445 854.462 378.259 843.943 378.24Z" fill="#452D34"/>
<path d="M566.472 488.995C555.878 489.069 554.636 478.256 553.321 470.147L547.257 477.671C538.49 488.703 521.102 476.649 528.408 464.594C512.116 467.151 505.98 441.727 531.769 440.412C523.66 436.393 514.454 430.622 519.934 420.321C526.509 410.02 536.08 415.864 543.897 420.832C541.705 411.992 539.513 400.668 551.276 398.038C563.039 395.408 565.375 407.609 566.619 416.668L572.607 409.143C582.107 397.381 600.004 411.773 590.656 423.535L585.321 430.257C605.851 422.878 612.937 445.818 596.864 451.516C608.333 459.918 596.571 477.891 584.223 470.731L576.04 465.982C578.601 475.918 580.058 487.9 566.472 488.995ZM555.001 460.503C555.673 460.506 556.322 460.74 556.841 461.166C557.36 461.592 557.716 462.183 557.851 462.84L560.846 478.548C561.65 483.443 568.515 484.904 571.149 480.667C573.851 478.037 569.174 464.009 569.101 460.868C569.005 460.322 569.061 459.759 569.27 459.245C569.478 458.73 569.832 458.286 570.283 457.964C570.733 457.642 571.267 457.456 571.825 457.427C572.376 457.398 572.928 457.527 573.412 457.799L587.15 465.69C593.504 469.489 599.345 459.407 592.845 455.827L587.29 452.613C585.028 451.371 585.686 447.644 588.241 447.206L595.108 445.891C602.418 444.649 600.223 433.179 592.991 434.714L578.674 437.417C578.077 437.53 577.469 437.457 576.918 437.209C576.366 436.96 575.911 436.548 575.601 436.028C575.297 435.525 575.151 434.939 575.19 434.35C575.23 433.761 575.449 433.198 575.821 432.741L586.125 419.883C587.06 418.695 587.493 417.188 587.33 415.685C587.166 414.183 586.418 412.804 585.247 411.846C576.04 403.591 567.497 434.932 562.088 423.974L559.092 408.267C557.778 400.961 546.381 403.152 547.842 410.385L550.837 425.946C550.936 426.493 550.878 427.056 550.669 427.57C550.46 428.084 550.109 428.528 549.657 428.85C549.205 429.172 548.67 429.359 548.116 429.388C547.561 429.416 547.01 429.288 546.527 429.015L532.792 421.125C526.436 417.325 520.591 427.407 527.093 430.987L541.413 439.316C541.932 439.607 542.351 440.049 542.612 440.585C542.873 441.12 542.964 441.723 542.874 442.311C542.761 442.897 542.479 443.437 542.064 443.865C541.649 444.293 541.118 444.591 540.536 444.722L524.829 447.718C517.523 448.96 519.641 460.43 526.947 458.895L534.838 457.434C535.422 457.322 536.028 457.391 536.572 457.632C537.117 457.873 537.575 458.275 537.885 458.783C538.195 459.292 538.342 459.883 538.306 460.478C538.271 461.072 538.055 461.642 537.687 462.11L533.814 466.932C529.139 472.63 538.198 479.936 542.727 474.091C544.189 472.922 552.737 459.845 555.001 460.503Z" fill="#D13535"/>
<path d="M778.191 244.397C767.6 244.397 766.356 233.657 765.045 225.548L759.051 233.073C750.215 244.105 732.824 231.977 740.129 219.922C723.836 222.552 717.702 197.055 743.489 195.813C735.379 191.795 726.251 186.023 731.654 175.649C738.306 165.421 747.874 171.192 755.691 176.233C753.502 167.32 751.307 156.07 763.069 153.366C774.832 150.663 777.1 163.011 778.338 172.069C781.844 168.051 786.009 160.38 792.149 160.234C802.009 158.773 808.875 171.339 802.375 178.937L797.04 185.585C817.57 178.279 824.656 201.219 808.588 206.845C820.058 215.32 808.296 233.292 796.021 226.132L787.765 221.383C790.393 231.246 791.856 243.301 778.191 244.397ZM766.722 215.904C767.397 215.893 768.056 216.122 768.579 216.551C769.097 216.978 769.451 217.578 769.575 218.242L772.569 233.949C773.374 238.844 780.313 240.233 782.942 236.068C787.253 232.488 774.905 210.206 785.136 213.128L798.869 221.091C805.223 224.89 811.07 214.808 804.643 211.156L799.088 208.014C796.753 206.772 797.405 203.046 799.966 202.608C802.521 202.169 809.022 201.877 810.485 198.882C813.406 194.864 809.534 188.946 804.716 190.042L790.393 192.818C787.838 193.402 785.862 190.115 787.545 188.142L797.844 175.284C798.796 174.088 799.246 172.567 799.088 171.047C798.722 166.151 791.856 164.179 788.935 168.124L778.923 180.617C777.539 182.517 774.173 181.713 773.807 179.302C771.984 174.48 773.008 157.166 764.167 159.065C755.325 160.965 762.484 176.233 762.557 181.348C762.658 181.894 762.602 182.457 762.394 182.971C762.18 183.486 761.831 183.929 761.381 184.251C760.925 184.573 760.39 184.76 759.839 184.789C759.281 184.818 758.73 184.689 758.246 184.416L744.514 176.453C743.861 176.079 743.14 175.837 742.398 175.74C741.649 175.645 740.895 175.697 740.169 175.893C739.443 176.09 738.762 176.428 738.165 176.887C737.569 177.347 737.068 177.919 736.696 178.571C736.325 179.224 736.083 179.943 735.982 180.69C735.886 181.435 735.942 182.193 736.139 182.919C736.336 183.645 736.674 184.325 737.13 184.92C737.591 185.516 738.165 186.014 738.813 186.389L753.209 194.717C755.471 195.886 754.813 199.685 752.258 200.05L736.55 203.046C729.318 204.361 731.434 215.831 738.739 214.297C741.081 214.297 748.166 211.082 749.629 214.151C752.038 219.411 739.178 223.283 746.489 230.296C755.032 236.872 760.368 217.219 766.722 215.904Z" fill="#D13535"/>
<path d="M430.292 264.123C429.911 264.123 429.535 264.047 429.184 263.899C428.833 263.752 428.516 263.535 428.25 263.263C427.985 262.99 427.776 262.668 427.638 262.313C427.499 261.959 427.432 261.581 427.442 261.201V192.015C427.432 191.634 427.499 191.256 427.638 190.902C427.776 190.548 427.985 190.225 428.25 189.953C428.516 189.68 428.833 189.464 429.184 189.316C429.535 189.169 429.911 189.092 430.292 189.093C431.066 189.093 431.81 189.401 432.358 189.948C432.906 190.496 433.214 191.24 433.214 192.015V261.201C433.214 261.976 432.906 262.719 432.358 263.267C431.81 263.815 431.066 264.123 430.292 264.123Z" fill="#CE9C5C"/>
<path d="M405.599 259.301C404.897 259.3 404.22 259.04 403.699 258.571C403.112 258.074 402.745 257.366 402.676 256.6C402.608 255.834 402.844 255.072 403.333 254.48L452.867 195.521C453.386 195.024 454.071 194.736 454.789 194.712C455.509 194.687 456.211 194.929 456.763 195.39C457.315 195.851 457.677 196.5 457.78 197.212C457.884 197.923 457.721 198.648 457.324 199.248L407.79 258.205C407.533 258.544 407.201 258.818 406.822 259.008C406.442 259.198 406.024 259.298 405.599 259.301Z" fill="#CE9C5C"/>
<path d="M457.543 257.036C457.16 257.035 456.782 256.956 456.431 256.806C456.079 256.655 455.761 256.435 455.497 256.159L401.069 201.731C400.792 201.46 400.573 201.135 400.424 200.778C400.274 200.421 400.197 200.037 400.197 199.649C400.197 199.262 400.274 198.878 400.424 198.521C400.573 198.163 400.792 197.839 401.069 197.567C401.615 197.031 402.349 196.731 403.114 196.731C403.879 196.731 404.614 197.031 405.16 197.567L459.588 252.069C459.862 252.334 460.08 252.652 460.228 253.003C460.377 253.355 460.454 253.732 460.454 254.114C460.454 254.495 460.377 254.873 460.228 255.225C460.08 255.576 459.862 255.894 459.588 256.159C459.323 256.435 459.006 256.655 458.654 256.806C458.303 256.956 457.925 257.035 457.543 257.036Z" fill="#CE9C5C"/>
<path d="M464.921 229.493H395.735C395.355 229.503 394.976 229.437 394.622 229.298C394.268 229.159 393.945 228.951 393.673 228.685C393.401 228.42 393.184 228.102 393.036 227.752C392.888 227.401 392.812 227.025 392.813 226.644C392.813 225.869 393.121 225.126 393.668 224.578C394.217 224.03 394.96 223.722 395.735 223.722H464.921C465.696 223.722 466.439 224.03 466.987 224.578C467.535 225.126 467.843 225.869 467.843 226.644C467.843 227.025 467.768 227.401 467.62 227.752C467.472 228.102 467.255 228.42 466.983 228.685C466.711 228.951 466.388 229.159 466.034 229.298C465.68 229.437 465.301 229.503 464.921 229.493Z" fill="#CE9C5C"/>
<path d="M355.114 607.495C358.11 620.282 362.421 632.77 364.393 645.776L364.028 643.368C364.283 644.589 364.357 645.844 364.247 647.093L364.539 644.679C364.275 646.452 363.758 648.174 363.005 649.795L363.955 647.605C362.946 649.868 361.67 652.001 360.156 653.959L361.544 652.136C359.35 654.984 356.796 657.539 353.945 659.734L355.772 658.27C352.775 660.46 349.509 662.249 346.056 663.606L348.247 662.655C338.165 666.893 327.353 669.448 316.54 670.911L318.951 670.618C308.465 672.104 297.829 672.2 287.317 670.911L289.728 671.204C283.13 670.371 276.67 668.671 270.513 666.161L272.705 667.112C261.454 659.002 249.254 673.32 260.724 681.649C286.513 693.704 316.686 691.363 343.426 683.765C361.471 678.948 381.196 666.088 382.511 645.776C381.269 631.02 375.936 617.068 372.721 602.672C369.507 591.275 352.192 595.879 355.114 607.495Z" fill="#CE9C5C"/>
<path d="M443.296 871.16C445.049 884.166 447.752 896.953 449.506 909.954L449.14 907.545C450.528 918.43 451.624 929.607 450.309 940.637L450.602 938.156C450.272 940.812 449.61 943.412 448.629 945.9L449.579 943.71C448.939 945.247 448.104 946.693 447.095 948.016L448.483 946.192C438.547 954.375 450.675 969.278 460.318 960.364C479.313 936.107 463.313 894.539 460.903 866.337C457.761 854.867 440.154 859.617 443.296 871.16Z" fill="#D13535"/>
<path d="M724.861 574.69H725.153L722.745 575.056C723.538 574.909 724.354 574.909 725.153 575.056L722.671 574.69C723.577 574.836 724.467 575.106 725.3 575.495L723.11 574.543C724.467 575.168 725.739 575.95 726.909 576.885L725.007 575.421C727.748 577.588 730.202 580.093 732.312 582.873L730.854 581.049C737.428 589.598 741.519 599.824 745.684 609.611L744.733 607.422C747.873 614.947 750.721 622.618 751.819 630.654L751.453 628.246C751.83 630.39 751.954 632.574 751.819 634.746L752.111 632.337C752.033 632.956 751.886 633.57 751.672 634.161L752.55 631.971C752.427 632.309 752.252 632.63 752.038 632.917L753.501 631.093C739.983 650.234 779.289 657.978 768.331 619.843C761.465 599.385 747.288 553.506 719.964 557.159C708.495 560.3 713.318 577.763 724.861 574.69Z" fill="#D13535"/>
<path d="M849.132 519.169C830.064 517.707 808.368 520.849 793.826 534.145C790.466 537.506 795.582 542.693 799.015 539.333C810.85 527.936 836.784 523.406 850.961 527.351C852.711 528.154 853.15 528.447 854.028 529.397V529.251C854.028 529.323 854.101 529.397 854.175 529.47C854.248 529.543 854.175 529.616 854.248 529.616L854.833 530.858C855.362 532.101 855.756 533.4 855.998 534.73L855.852 534.364C855.93 534.552 855.975 534.749 855.998 534.949C855.998 537.214 856.071 536.702 855.486 538.675C855.199 539.113 854.467 540.721 854.175 540.867C855.272 539.479 853.297 541.816 852.492 542.474L852.345 542.62H852.272C851.023 543.581 849.644 544.367 848.181 544.958C847.669 545.25 848.254 544.958 848.473 544.885C848.693 544.812 845.479 545.835 844.309 546.127C843.132 544.459 841.579 543.089 839.778 542.126C837.977 541.162 835.979 540.631 833.936 540.574C828.258 541.122 822.748 542.824 817.75 545.575C812.747 548.327 808.363 552.069 804.857 556.574C802.375 560.592 808.729 564.318 811.143 560.3C815.088 553.871 829.333 547.588 834.229 547.807C834.775 547.919 835.31 548.066 835.839 548.246C838.028 549.487 838.321 549.853 839.637 552.337L839.784 552.556V552.922C840.161 553.937 840.431 554.99 840.583 556.063C840.656 556.171 840.679 556.302 840.656 556.428V555.99C840.729 556.428 840.656 557.816 840.656 558.547C839.125 563.879 829.698 571.623 824.29 575.934C822.028 577.69 817.936 579.806 819.911 583.239C820.857 584.775 823.271 585.8 824.875 584.556C833.644 577.324 846.065 570.092 847.961 558.036C848.046 556.387 847.871 554.736 847.455 553.14C849.745 552.507 851.935 551.547 853.955 550.291C868.346 543.132 865.205 521.214 849.132 519.169Z" fill="#452D34"/>
<path d="M855.852 534.364C855.779 534.074 855.852 534.219 855.852 534.364V534.364Z" fill="#452D34"/>
<path d="M854.028 529.396C854.174 529.761 854.247 529.761 854.247 529.615C854.247 529.469 854.174 529.542 854.174 529.47L854.028 529.396Z" fill="#452D34"/>
<path d="M839.638 552.336C839.564 552.336 839.638 552.556 839.857 552.848C840.071 553.14 839.857 552.775 839.784 552.775C839.699 552.642 839.649 552.492 839.638 552.336Z" fill="#452D34"/>
<path d="M791.929 526.766C793.297 525.424 794.737 524.156 796.24 522.967C797.045 522.091 804.131 518 805.369 517.634C808.442 516.173 815.966 514.42 817.424 514.347C827.216 513.324 834.522 513.908 843.51 517.196C850.522 521.36 854.687 511.132 841.607 508.867C802.448 497.178 771.984 531.661 791.929 526.766Z" fill="#452D34"/>
<path d="M838.467 499.588C795.216 471.972 750.434 522.455 723.183 551.752C627.255 608.153 488.884 631.02 376.521 627.806C371.991 627.66 371.699 635.111 376.521 635.111C491.733 637.886 621.925 616.409 723.544 560.372L726.324 558.254C726.74 558.645 727.241 558.944 727.781 559.131C751.453 569.14 756.276 597.049 765.99 618.16C773.227 641.685 747.8 657.685 733.922 672.807C668.755 734.321 578.162 773.7 487.13 762.523C478.875 761.572 470.619 760.26 462.437 758.651C453.159 756.315 451.332 763.84 453.889 771.291C457.615 793.865 455.204 816.878 452.574 839.452C451.843 845.884 451.113 852.312 450.456 858.812C450.309 860.714 452.282 862.464 454.108 862.464C455.071 862.448 455.99 862.059 456.671 861.378C457.352 860.697 457.743 859.774 457.761 858.812C460.83 827.909 466.528 796.42 460.245 765.59C546.892 784.438 638.505 757.773 707.909 704.149C724.146 691.903 739.392 678.396 753.501 663.752C764.386 653.52 775.051 639.788 774.758 624.958C785.496 616.043 796.46 607.275 807.271 598.434L814.576 592.445C818.009 589.232 812.82 583.97 809.46 587.256L794.63 599.385L773.374 616.629C772.901 614.963 772.259 613.348 771.471 611.806C762.996 594.049 758.465 573.085 743.05 559.861C739.668 557.097 735.931 554.789 731.946 552.993C738.306 546.491 743.782 538.966 750.867 533.121C772.203 513.834 806.1 485.196 834.741 505.871C838.613 508.355 842.632 501.926 838.467 499.588Z" fill="#452D34"/>
<path d="M704.696 588.939C702.214 592.957 708.568 596.683 710.982 592.664C712.659 590.323 714.46 588.083 716.385 585.945C718.58 582.286 726.69 578.853 722.891 574.109C717.482 569.359 708.129 585.359 704.696 588.939Z" fill="#452D34"/>
<path d="M744.367 593.909C740.275 589.232 728.074 604.866 723.617 607.421C719.165 609.977 725.373 615.897 728.732 612.537C732.092 609.177 749.849 598.36 744.367 593.909Z" fill="#452D34"/>
<path d="M743.489 644.679L759.416 629.118C759.76 628.78 760.03 628.375 760.216 627.931C760.401 627.486 760.497 627.008 760.497 626.529C760.497 626.045 760.401 625.567 760.216 625.122C760.03 624.678 759.76 624.272 759.416 623.935C758.724 623.282 757.812 622.916 756.861 622.916C755.91 622.916 754.993 623.282 754.301 623.935L738.306 639.496C734.94 642.856 740.129 648.045 743.489 644.679Z" fill="#452D34"/>
<path d="M381.27 458.676C371.845 457.069 363.005 461.452 360.96 469.123C358.914 476.794 365.343 486.146 375.498 488.849C377.55 489.376 379.664 489.621 381.782 489.579C382.658 479.278 384.192 468.831 381.27 458.676Z" fill="#D13535"/>
<path d="M216.671 493.598C216.919 492.658 216.791 491.659 216.313 490.813C215.835 489.966 215.046 489.341 214.113 489.068C212.579 488.63 210.972 488.118 209.438 487.534C209.072 487.388 209.072 487.388 209.511 487.534C206.868 486.39 204.368 484.943 202.059 483.224C200.418 481.985 198.922 480.563 197.602 478.986H197.529C197.31 478.694 196.287 476.867 196.287 476.94C196.287 477.014 195.922 475.553 195.849 475.333V474.311C195.911 474.088 195.984 473.868 196.068 473.653C196.226 473.276 196.449 472.93 196.726 472.63C196.141 473.287 196.652 472.63 197.091 472.265L197.602 471.973H198.26C202.497 472.63 204.104 465.982 199.721 464.813C192.415 463.279 186.717 471.607 189.055 478.256C191.393 484.904 196.726 488.995 202.059 492.063C206.077 493.671 214.04 499.515 216.671 493.598ZM197.602 471.826H197.529C197.541 471.82 197.553 471.817 197.566 471.817C197.579 471.817 197.591 471.82 197.602 471.826ZM195.849 474.311C195.853 474.436 195.829 474.562 195.776 474.676C195.771 474.55 195.796 474.425 195.849 474.311ZM196.287 476.867C196.287 476.94 196.36 476.94 196.36 477.014C196.356 476.957 196.329 476.905 196.287 476.867Z" fill="#452D34"/>
<path d="M347.006 601.361C346.822 595.626 347.042 589.891 347.664 584.19C347.883 582.147 348.102 580.83 348.54 578.488C348.672 578.016 348.697 577.515 348.613 577.031C379.882 557.085 388.211 509.451 382.147 460.137C382.293 454.366 370.166 374.806 362.202 399.792C367.529 416.162 371.344 432.988 373.599 450.055C376.449 471.608 377.544 493.671 374.841 515.296C373.891 522.529 371.188 534.876 367.535 543.131C366.22 546.419 362.202 554.309 358.768 558.327C355.927 561.94 352.665 565.201 349.052 568.043C330.349 582.653 301.491 581.415 277.674 573.744C273.217 572.427 271.172 579.513 275.775 580.757C303.171 589.159 324.577 588.427 340.869 581.195C339.992 587.769 338.458 598.507 340.139 603.696C331.53 606.336 322.74 608.339 313.838 609.684C303.189 610.979 292.426 611.029 281.765 609.831C277.016 609.757 277.016 617.068 281.765 617.141C311.135 621.087 339.773 612.538 366.732 601.434C369.874 618.745 375.645 637.593 375.572 653.008C375.284 654.843 374.769 656.639 374.038 658.344C373.15 660.325 372.021 662.188 370.677 663.899C369.654 665.429 365.855 669.082 363.517 670.984C354.312 677.631 337.436 683.039 323.189 684.936C317.637 685.887 303.829 686.18 298.057 685.155C292.286 684.131 283.811 682.161 278.624 679.527C273.437 676.899 270.806 683.546 274.898 685.887C304.194 699.985 358.768 693.339 378.348 665.722C387.188 652.789 380.905 637.081 378.567 623.056C370.896 582.507 375.352 590.909 347.006 601.361Z" fill="#452D34"/>
<path d="M295.865 666.308C301.783 664.918 294.915 647.167 295.061 642.051C293.892 637.448 286.806 639.423 288.048 643.954L291.335 663.753C291.701 665.649 294.112 666.82 295.865 666.308Z" fill="#452D34"/>
<path d="M327.791 664.039C328.713 663.752 329.491 663.127 329.966 662.283C330.441 661.445 330.578 660.448 330.348 659.514L323.773 636.721C322.531 632.19 315.444 634.087 316.686 638.617L323.261 661.484C323.55 662.407 324.178 663.184 325.02 663.662C325.861 664.135 326.853 664.27 327.791 664.039Z" fill="#452D34"/>
<path d="M360.74 651.916C359.888 649.051 359.182 646.153 358.622 643.221C356.649 638.764 357.087 623.129 350.366 624.592C348.54 625.172 347.152 627.147 347.809 629.044C350.147 637.227 351.389 645.703 353.727 653.886C354.969 658.416 362.056 656.441 360.74 651.916Z" fill="#452D34"/>
<path d="M340.21 486.365C339.846 486.365 339.773 486.365 339.846 486.438H340.21V486.365Z" fill="#452D34"/>
<path d="M322.969 458.019C330.348 463.644 338.969 468.393 345.179 474.384C347.152 476.941 346.933 481.032 345.325 483.37C344.887 483.735 344.449 484.466 343.937 484.832C343.33 485.24 342.695 485.605 342.037 485.927L340.211 486.366H339.846C339.115 486.414 338.38 486.389 337.654 486.293C333.563 483.882 328.376 489.872 334.44 492.941C348.102 497.835 360.01 480.375 350.512 469.343C343.499 462.402 334.513 457.654 326.696 451.663C322.677 449.252 318.878 455.608 322.969 458.019Z" fill="#452D34"/>
<path d="M300.541 521.506C309.454 527.569 321.581 528.811 331.736 525.086C335.316 523.332 343.572 521.067 341.234 515.661C340.284 514.2 337.874 513.177 336.266 514.346C332.613 517.415 326.769 519.241 323.627 519.679C320.981 519.971 318.31 519.971 315.664 519.679C313.275 519.324 310.942 518.661 308.723 517.707C307.138 517.024 305.622 516.192 304.194 515.223C300.176 512.739 296.45 519.095 300.541 521.506Z" fill="#452D34"/>
<path d="M285.491 443.407C276.359 443.261 276.359 457.653 285.491 457.507C294.623 457.361 294.623 443.261 285.491 443.407Z" fill="#452D34"/>
<path d="M345.178 446.183C354.311 446.33 354.311 431.937 345.178 432.084C336.046 432.229 335.973 446.33 345.178 446.183Z" fill="#452D34"/>
<path d="M290.312 430.33C294.842 429.161 292.942 422.074 288.34 423.316C283.737 424.558 254.149 434.129 260.359 441.727C261.966 443.188 263.938 443.042 265.545 441.727C268.687 439.024 275.993 434.714 279.865 433.398C283.242 432.046 286.74 431.018 290.312 430.33Z" fill="#452D34"/>
<path d="M341.453 421.416C343.586 422.087 345.683 422.867 347.736 423.754C351.343 425.285 354.813 427.118 358.11 429.234C362.201 431.717 365.928 425.362 361.836 422.951C357.745 420.54 341.161 409.654 338.896 416.96C338.649 417.89 338.78 418.879 339.259 419.713C339.737 420.548 340.526 421.16 341.453 421.416Z" fill="#452D34"/>
<path d="M225.145 504.191C224.852 504.849 224.414 505.507 224.049 506.164L222.223 507.917C221.607 508.353 220.945 508.72 220.25 509.013C219.614 509.275 218.953 509.47 218.277 509.598C212.944 508.94 211.483 516.538 217.108 517.05C222.734 517.561 231.866 512.082 231.866 505.068C231.136 502.146 226.533 501.415 225.145 504.191Z" fill="#452D34"/>
<path d="M283.17 505.019C292.962 501.142 298.371 491.614 295.252 483.735C292.132 475.857 281.666 472.613 271.875 476.49C262.083 480.367 256.674 489.896 259.793 497.774C262.913 505.652 273.379 508.896 283.17 505.019Z" fill="#D13535"/>
<path d="M544.189 876.861C539.659 875.544 537.687 882.629 542.216 883.873C552.956 887.233 566.18 890.447 571.729 897.679C575.095 905.496 581.888 902.648 579.912 897.026C573.046 883.873 556.974 881.099 544.189 876.861Z" fill="#452D34"/>
<path d="M533.669 897.972C528.92 897.972 528.92 905.277 533.669 905.277C537.794 905.198 541.921 905.418 546.015 905.936C555.14 907.41 564.097 909.785 572.753 913.021C575.387 914.119 581.009 917.04 583.638 920.4C583.565 920.259 583.565 920.332 583.638 920.4L583.93 920.765L583.711 920.473H583.784C584.246 921.114 584.639 921.801 584.955 922.521C585.168 923.011 585.315 923.529 585.394 924.058C585.467 924.491 585.467 924.936 585.394 925.369C585.32 925.769 585.225 926.157 585.101 926.54C584.814 927.069 584.493 927.581 584.15 928.076C581.887 931.143 573.119 933.772 564.497 932.308C563.039 932.747 554.928 928.363 553.54 933.479C552.298 941.735 574.509 940.418 579.619 938.741C584.735 937.058 590.583 933.772 592.26 928.003C596.351 904.771 550.253 897.972 533.669 897.972Z" fill="#452D34"/>
<path d="M584.443 884.239C544.409 837.482 474.492 856.038 420.867 859.032C384.485 862.105 348.102 865.684 311.573 866.922C299.811 867.361 287.902 867.068 276.14 867.946C274.459 858.885 264.085 843.836 262.04 839.671C260.944 837.994 259.775 836.312 258.679 834.561C285.564 811.548 298.422 777.06 276.14 733.595C241.291 665.795 280.523 658.49 280.231 618.233C279.719 554.309 238.515 518.072 200.598 502.584C196.506 500.903 191.758 500.758 188.032 498.346C181.091 493.817 162.68 460.575 178.388 452.028C191.1 445.087 206.296 460.357 212.141 459.407C236.031 455.461 238.442 425.8 258.752 384.449C267.519 366.623 284.98 359.463 298.495 363.628C323.408 371.226 362.275 401.764 365.49 400.741C366.147 400.522 410.785 524.867 346.933 576.811C345.568 585.484 345.151 594.275 345.691 603.038C353.152 599.379 360.928 596.397 368.923 594.123C372.284 594.928 378.202 629.337 378.713 629.703C379.224 630.069 449.725 630.215 449.725 630.215C478.072 583.897 453.305 531.369 415.534 498.42C410.15 493.693 405.853 487.856 402.94 481.311C400.027 474.765 398.566 467.666 398.658 460.502C398.877 442.311 394.348 338.057 321.655 310.003C236.104 276.908 218.57 319.574 193.511 329.509C159.393 343.098 146.754 360.048 133.896 389.125C120.453 419.517 130.024 432.96 103.723 506.017C79.3217 574.037 131.631 599.531 101.75 640.52C44.1077 719.492 78.1527 815.274 109.641 847.342C109.933 865.538 121.695 905.203 124.325 911.563C130.317 929.1 139.59 945.342 151.649 959.412C153.112 964.28 154.139 969.267 154.717 974.321C156.471 987.248 157.274 1007.56 156.398 1023.05C156.252 1026.63 155.594 1033.21 155.375 1034.96C155.156 1036.71 154.279 1041.09 157.494 1041.97C159.32 1042.33 161.658 1041.38 162.023 1039.41C164.873 1016.47 165.238 992.583 161.219 969.644C181.749 989.663 208.05 1003.69 236.98 1008.66C300.395 1020.49 365.782 1004.71 424.812 981.26C431.388 977.754 440.301 974.833 448.556 971.028C446.803 987.76 442.712 1035.4 450.675 1034.59C452.501 1034.52 454.474 1032.99 454.328 1030.94C453.146 1014.12 453.318 997.243 454.839 980.455C455.205 975.998 455.716 971.54 456.3 967.089C462.145 963.65 466.967 959.412 469.524 953.863C471.423 952.552 473.456 951.454 475.588 950.576C487.277 945.899 506.272 943.491 520.811 941.369L546.454 937.79C550.984 936.692 549.084 929.533 544.481 930.777C521.395 934.576 497.505 935.747 475.15 942.905L472.008 944.217C475.515 924.564 473.981 904.039 470.985 884.386C469.858 877.458 468.321 870.603 466.382 863.855C466.191 863.14 465.782 862.504 465.213 862.031C505.688 857.94 546.746 857.135 576.845 885.99L577.138 886.355H577.211C578.82 891.837 586.784 889.862 584.443 884.239ZM465.14 941.515C464.702 954.083 456.592 959.632 445.78 963.943C406.767 982.718 361.983 996.821 319.39 1002.74C261.455 1010.99 196.945 1002.22 158.297 956.418C158.059 955.929 157.709 955.506 157.274 955.18C156.178 953.79 155.009 952.4 153.987 950.942C134.334 925.588 123.522 892.13 118.773 859.91C118.281 858.097 118.011 856.235 117.97 854.36C150.115 875.983 213.602 868.605 253.127 839.013C260.359 850.415 266.204 861.519 268.615 868.678C264.482 869.185 260.383 869.939 256.341 870.94C251.811 872.184 253.784 879.27 258.313 878.026C274.021 873.794 290.898 874.739 307.189 874.373C341.381 873.428 375.498 870.136 409.543 867.288C425.543 866.776 442.638 864.513 459.954 862.611C459.597 863.056 459.356 863.585 459.255 864.147C459.152 864.71 459.191 865.284 459.369 865.83C466.09 890.301 468.501 916.313 465.14 941.515Z" fill="#452D34"/>
<path d="M117.75 505.068C115.683 511.934 114.12 518.942 113.074 526.036C112.866 526.999 112.995 528.004 113.439 528.885C113.938 529.695 114.719 530.293 115.631 530.565C117.384 530.93 119.869 529.98 120.161 528.008C121.189 520.893 122.728 513.862 124.763 506.968C125.013 506.047 124.892 505.066 124.428 504.234C123.964 503.401 123.193 502.783 122.279 502.511C121.341 502.281 120.35 502.417 119.508 502.892C118.666 503.367 118.038 504.146 117.75 505.068Z" fill="white"/>
<path d="M117.238 574.689C120.526 588.134 125.494 600.336 123.448 613.849C122.611 619.398 121.09 624.823 118.919 629.995C115.876 636.918 112 643.446 107.375 649.429C106.426 650.673 101.604 655.057 104.819 657.758C106.133 659.002 108.691 659.295 110.005 657.758C121.037 644.679 129.585 628.757 131.046 611.44C132.215 598.214 127.539 585.433 124.325 572.719C123.083 568.189 115.996 570.091 117.238 574.689Z" fill="white"/>
<path d="M96.7095 671.203C96.3443 675.728 89.8423 684.204 95.9058 686.765C102.335 687.491 101.532 677.192 103.796 673.1C106.061 669.008 97.9516 666.6 96.7095 671.203Z" fill="white"/>
<path d="M413.196 517.342C415.272 519.235 417.225 521.26 419.04 523.405L420.428 525.086L420.793 525.524L421.305 526.255C422.182 527.424 423.059 528.666 423.789 529.835C425.369 532.194 426.784 534.66 428.027 537.214L428.903 539.113L429.341 540.136C429.488 540.501 429.488 540.501 429.341 540.063C429.195 539.625 429.414 540.355 429.488 540.501C430.075 541.835 430.587 543.201 431.022 544.592C431.679 546.419 433.579 547.807 435.552 547.149C437.524 546.492 438.766 544.592 438.109 542.693C434.133 531.051 427.36 520.565 418.383 512.154C418.043 511.814 417.638 511.544 417.193 511.36C416.748 511.175 416.271 511.081 415.789 511.081C415.307 511.081 414.831 511.175 414.385 511.36C413.941 511.544 413.536 511.814 413.196 512.154C412.855 512.495 412.585 512.9 412.4 513.345C412.216 513.789 412.121 514.267 412.121 514.748C412.121 515.23 412.216 515.707 412.4 516.152C412.585 516.597 412.855 517.001 413.196 517.342Z" fill="white"/>
<path d="M440.812 566.147L441.835 567.458L441.25 566.659C442.095 567.79 442.806 569.011 443.369 570.311L443.004 569.433C443.547 570.767 443.916 572.169 444.1 573.598V572.647C444.16 573.305 444.185 573.964 444.173 574.617C444.245 576.592 445.853 578.421 447.825 578.275C448.794 578.275 449.723 577.887 450.409 577.2C451.093 576.519 451.478 575.59 451.478 574.617C451.435 569.563 449.477 564.706 445.999 561.031C445.663 560.695 445.265 560.429 444.826 560.247C444.387 560.065 443.917 559.972 443.442 559.972C442.967 559.972 442.497 560.065 442.058 560.247C441.619 560.429 441.221 560.695 440.885 561.031C440.549 561.367 440.283 561.765 440.101 562.204C439.919 562.643 439.826 563.113 439.826 563.586C439.826 564.064 439.919 564.531 440.101 564.97C440.283 565.409 440.549 565.809 440.885 566.147H440.812Z" fill="white"/>
<path d="M297.326 351.28L299.226 352.011L298.35 351.646C300.9 352.731 303.305 354.13 305.509 355.81C310.842 362.312 316.468 357.345 313.107 352.815C309.163 348.981 304.424 346.063 299.226 344.267C294.696 342.952 292.724 350.038 297.326 351.28Z" fill="white"/>
<path d="M259.336 356.176C241.51 364.212 235.738 386.933 229.528 402.275C227.616 407.087 225.086 411.63 222.003 415.791C219.519 419.809 225.875 423.535 228.286 419.517C235.884 409.435 239.026 397.015 243.774 385.618C244.578 383.134 249.546 374.002 251.372 372.029C255.025 367.499 257.947 364.869 262.989 362.458C268.03 360.048 263.427 353.838 259.336 356.176Z" fill="white"/>
<path d="M214.916 430.33L213.236 431.718L213.967 431.134C212.683 432.125 211.285 432.959 209.802 433.617L210.606 433.252C209.067 433.911 207.445 434.354 205.784 434.567H206.734C201.766 434.202 201.401 441.873 206.368 441.873C211.517 441.387 216.342 439.143 220.03 435.517C223.391 432.229 218.204 427.042 214.916 430.403V430.33Z" fill="white"/>
<path d="M225.51 839.013C254.733 829.592 275.263 798.469 272.267 767.785C272.267 763.109 264.889 763.109 264.962 767.785C265.035 772.462 265.181 779.109 264.815 781.079C264.062 786.605 262.589 792.008 260.432 797.152C259.701 799.42 254.003 809.281 252.177 811.256C248.745 815.634 244.796 819.585 240.414 823.018C238.734 824.549 229.967 829.811 227.556 830.47C225.145 831.123 219.885 832.366 220.981 836.458C221.565 838.287 223.538 839.672 225.51 839.013Z" fill="white"/>
<path d="M255.902 726.358C256.56 731.108 259.336 745.645 266.277 742.87C270.368 740.169 266.204 736.37 264.962 733.23C264.447 731.868 264.008 730.478 263.646 729.065C263.501 728.699 263.062 725.778 263.281 727.309C263.866 721.979 256.122 720.955 255.902 726.358Z" fill="white"/>
<path d="M428.1 920.765L450.528 915.216C451 915.098 451.444 914.884 451.832 914.592C452.219 914.293 452.542 913.927 452.782 913.5C453.021 913.078 453.172 912.611 453.224 912.127C453.276 911.643 453.228 911.153 453.085 910.686C452.812 909.768 452.197 908.992 451.368 908.513C450.538 908.041 449.558 907.9 448.629 908.131L426.127 913.753C421.597 914.924 423.496 922.009 428.1 920.765Z" fill="#452D34"/>
<path d="M433.799 956.125L450.529 951.668C451.451 951.381 452.229 950.756 452.704 949.912C453.179 949.068 453.316 948.077 453.086 947.143C451.186 940.857 436.867 948.82 431.826 949.113C426.785 949.406 429.269 957.369 433.799 956.125Z" fill="#452D34"/>
<path d="M424.739 888.258L443.88 884.459C444.807 884.201 445.596 883.587 446.075 882.754C446.553 881.921 446.684 880.931 446.437 880.002C445.122 873.935 427.807 881.246 422.766 881.246C418.236 882.411 420.136 889.497 424.739 888.258Z" fill="#452D34"/>
</svg>
