<svg width="564" height="128" viewBox="0 0 564 128" fill="none" xmlns="http://www.w3.org/2000/svg">
<g clip-path="url(#clip0_52_2427)">
<path d="M277.797 63.1426C277.797 63.1426 262.701 58.6909 269.524 42C287.054 48.926 277.797 63.1426 277.797 63.1426Z" fill="#BB2E26"/>
<path d="M276.446 62.2919C276.446 62.2919 265.043 73.1393 254 58.8859C268.762 47.1658 276.446 62.2919 276.446 62.2919Z" fill="#BB2E26"/>
<path d="M275.032 63.0358C275.032 63.0358 278.725 78.3386 260.86 80.7725C258.091 62.1263 275.032 63.0358 275.032 63.0358Z" fill="#BB2E26"/>
<path d="M274.973 64.6338C274.973 64.6338 290.07 69.0854 283.247 85.7764C265.716 78.8503 274.973 64.6338 274.973 64.6338Z" fill="#BB2E26"/>
<path d="M276.325 65.4843C276.325 65.4843 287.728 54.6368 298.771 68.8902C284.009 80.6103 276.325 65.4843 276.325 65.4843Z" fill="#BB2E26"/>
<path d="M277.735 64.737C277.735 64.737 274.042 49.4342 291.907 47.0003C294.676 65.6464 277.735 64.737 277.735 64.737Z" fill="#BB2E26"/>
<path d="M276.796 52.7481C276.881 53.5214 276.943 54.2946 276.962 55.0642C276.987 55.8337 276.991 56.6033 276.943 57.3581C276.917 57.7374 276.869 58.1129 276.803 58.4812C276.77 58.6653 276.744 58.8494 276.726 59.0335C276.696 59.2139 276.678 59.398 276.663 59.5821C276.601 60.3222 276.527 61.0328 276.435 61.854L276.531 61.9092C277.175 61.3569 277.536 60.5615 277.753 59.7736C277.985 58.9746 277.871 58.1461 277.827 57.3544C277.783 56.5554 277.665 55.7711 277.51 54.9979C277.341 54.2283 277.16 53.4625 276.903 52.7187L276.796 52.7445V52.7481Z" fill="#DCCDAA"/>
<path d="M274.344 53.2967C274.708 53.9779 275.051 54.6702 275.334 55.3771C275.629 56.0804 275.879 56.7984 276.074 57.5164C276.262 58.2418 276.288 58.9782 276.398 59.6668C276.501 60.37 276.527 61.0439 276.435 61.8576L276.531 61.9128C277.186 61.3642 277.477 60.4547 277.499 59.6226C277.51 59.1991 277.451 58.7794 277.333 58.3854C277.208 57.9914 277.065 57.6122 276.91 57.2403C276.608 56.4965 276.24 55.7932 275.82 55.1267C275.393 54.464 274.944 53.8233 274.428 53.2341L274.34 53.3004L274.344 53.2967Z" fill="#DCCDAA"/>
<path d="M272.086 54.2762C272.661 54.7586 273.195 55.2888 273.67 55.8558C274.148 56.4192 274.576 57.0157 274.944 57.638C275.028 57.7963 275.113 57.9583 275.19 58.1166C275.264 58.2823 275.323 58.448 275.389 58.6137C275.463 58.7757 275.514 58.9414 275.581 59.1034C275.64 59.2654 275.735 59.4201 275.787 59.5858C276.085 60.2265 276.28 60.8893 276.604 61.6367H276.715C276.788 61.4489 276.836 61.2538 276.884 61.0549C276.906 60.9555 276.925 60.8561 276.943 60.753C276.95 60.6536 276.95 60.5542 276.954 60.4511C276.962 60.2486 276.965 60.0424 276.943 59.8399C276.914 59.641 276.877 59.4385 276.836 59.2397C276.649 58.4407 276.163 57.7632 275.684 57.1446C275.205 56.5186 274.657 55.9552 274.064 55.4582C273.46 54.9721 272.838 54.5229 272.153 54.1768L272.094 54.2688L272.086 54.2762Z" fill="#DCCDAA"/>
<path d="M271.306 56.7541C271.781 57.126 272.245 57.5089 272.672 57.9213C273.106 58.33 273.519 58.7535 273.909 59.188C274.307 59.6261 274.587 60.1453 275.01 60.543C275.437 60.9406 275.842 61.353 276.413 61.7139L276.509 61.6586C276.483 61.3272 276.42 60.9959 276.299 60.7013C276.244 60.5503 276.177 60.403 276.111 60.2594C276.037 60.1195 275.953 59.9833 275.872 59.8507C275.706 59.5819 275.485 59.35 275.253 59.1401L274.52 58.5509C274.038 58.157 273.534 57.7998 273.003 57.4831C272.469 57.1738 271.932 56.883 271.357 56.6583L271.306 56.7541Z" fill="#DCCDAA"/>
<path d="M271.438 54.8469C271.983 55.3293 272.503 55.8447 273.003 56.375C273.504 56.9015 273.986 57.4501 274.439 58.0172C274.885 58.5916 275.282 59.1918 275.695 59.7846C276.096 60.3848 276.464 60.9997 276.818 61.644L276.851 61.633C276.685 60.9113 276.372 60.2301 276.004 59.5894C275.625 58.9524 275.146 58.3854 274.664 57.8294C273.692 56.7248 272.62 55.7159 271.464 54.8211L271.442 54.8506L271.438 54.8469Z" fill="#DCCDAA"/>
<path d="M266.943 57.9619C267.653 58.2748 268.356 58.6062 269.034 58.9744C269.711 59.339 270.382 59.7182 271.011 60.138C271.324 60.3515 271.63 60.5798 271.913 60.8228C272.057 60.9444 272.204 61.0585 272.355 61.1653C272.499 61.2831 272.646 61.3862 272.801 61.493C273.408 61.9164 273.99 62.3362 274.653 62.8296L274.749 62.7744C274.594 61.9385 274.082 61.2279 273.508 60.6461C272.93 60.0459 272.156 59.733 271.449 59.3721C270.735 59.0113 269.999 58.7204 269.251 58.47C268.5 58.2307 267.749 58.0024 266.972 57.8588L266.943 57.9655V57.9619Z" fill="#DCCDAA"/>
<path d="M266.191 60.3589C266.965 60.381 267.734 60.4326 268.489 60.5394C269.248 60.6388 269.991 60.775 270.713 60.9665C271.435 61.1653 272.083 61.5114 272.735 61.7618C273.397 62.0232 273.99 62.3399 274.649 62.8223L274.745 62.767C274.598 61.9275 273.957 61.2206 273.246 60.7824C272.885 60.5615 272.495 60.4031 272.094 60.3074C271.689 60.219 271.291 60.1527 270.89 60.1012C270.094 59.9907 269.299 59.9576 268.515 59.987C267.727 60.0276 266.95 60.0938 266.18 60.2485L266.191 60.3589Z" fill="#DCCDAA"/>
<path d="M265.912 62.8037C266.619 62.5496 267.34 62.3508 268.073 62.2219C268.802 62.0894 269.531 62.0157 270.253 62.0121C270.433 62.0194 270.614 62.0268 270.79 62.0378C270.967 62.0563 271.144 62.0894 271.321 62.1152C271.497 62.1299 271.667 62.1704 271.84 62.1962C272.009 62.2256 272.19 62.2219 272.359 62.2588C273.066 62.3214 273.736 62.4834 274.546 62.5754L274.601 62.4797C274.476 62.3214 274.329 62.1814 274.182 62.0415C274.104 61.9752 274.031 61.9053 273.95 61.8427C273.869 61.7838 273.78 61.7359 273.696 61.6807C273.522 61.5739 273.346 61.4671 273.162 61.3861C272.974 61.3125 272.782 61.2425 272.587 61.1799C271.803 60.9443 270.974 61.0253 270.194 61.132C269.41 61.2351 268.651 61.4266 267.926 61.6917C267.204 61.9716 266.504 62.2882 265.86 62.708L265.912 62.8037Z" fill="#DCCDAA"/>
<path d="M267.668 64.7185C268.228 64.4902 268.791 64.284 269.362 64.1183C269.932 63.9453 270.507 63.8017 271.081 63.6802C271.656 63.555 272.248 63.5734 272.804 63.404C273.364 63.2309 273.92 63.0873 274.52 62.7744V62.6639C274.218 62.5203 273.902 62.4098 273.589 62.3693C273.43 62.3399 273.272 62.3251 273.11 62.3104C272.952 62.3067 272.793 62.3104 272.635 62.3104C272.318 62.3215 272.009 62.3951 271.711 62.4908L270.835 62.8296C270.253 63.0505 269.689 63.3083 269.152 63.6065C268.618 63.9158 268.095 64.2362 267.613 64.6191L267.672 64.7148L267.668 64.7185Z" fill="#DCCDAA"/>
<path d="M266.081 63.6506C266.773 63.4187 267.476 63.2272 268.187 63.0615C268.894 62.8921 269.608 62.7485 270.326 62.6417C271.044 62.5423 271.766 62.4981 272.484 62.4392C273.206 62.3914 273.92 62.3803 274.657 62.3987L274.664 62.3619C273.957 62.1447 273.209 62.0747 272.469 62.071C271.729 62.0821 270.997 62.2109 270.275 62.3509C268.831 62.6417 267.425 63.0652 266.07 63.6175L266.085 63.6506H266.081Z" fill="#DCCDAA"/>
<path d="M266.53 69.1003C267.156 68.6401 267.797 68.1982 268.452 67.7969C269.108 67.3918 269.77 67.0015 270.448 66.6628C270.79 66.4971 271.136 66.3498 271.49 66.2209C271.667 66.1583 271.84 66.0884 272.005 66.0111C272.178 65.9448 272.344 65.8675 272.51 65.7901C273.18 65.4735 273.835 65.1826 274.594 64.8549V64.7444C273.791 64.4609 272.922 64.5493 272.131 64.7555C271.321 64.9543 270.665 65.4661 269.999 65.9006C269.332 66.3388 268.71 66.8322 268.117 67.355C267.532 67.8853 266.961 68.4228 266.449 69.0193L266.526 69.1003H266.53Z" fill="#DCCDAA"/>
<path d="M268.231 70.9487C268.636 70.2933 269.067 69.6526 269.538 69.0488C270.002 68.4412 270.496 67.8668 271.022 67.3366C271.556 66.8101 272.182 66.4234 272.723 65.9816C273.279 65.5397 273.85 65.1826 274.601 64.8549V64.7444C273.799 64.4535 272.863 64.6524 272.131 65.05C271.759 65.2525 271.424 65.5103 271.144 65.8122C270.868 66.1178 270.606 66.4308 270.363 66.7511C269.87 67.3845 269.443 68.0546 269.078 68.7505C268.721 69.4501 268.386 70.1608 268.136 70.9009L268.235 70.9451L268.231 70.9487Z" fill="#DCCDAA"/>
<path d="M270.209 72.4143C270.341 71.6742 270.529 70.9488 270.787 70.2529C271.033 69.557 271.339 68.8869 271.692 68.2609C271.788 68.1099 271.884 67.9553 271.983 67.808C272.09 67.6644 272.204 67.5282 272.315 67.3882C272.418 67.2446 272.536 67.1158 272.646 66.9795C272.757 66.847 272.841 66.6887 272.959 66.5598C273.364 65.978 273.839 65.4809 274.325 64.8255L274.27 64.7298C274.071 64.7592 273.876 64.8145 273.681 64.8734C273.585 64.9065 273.486 64.936 273.39 64.9728C273.298 65.017 273.213 65.0649 273.121 65.1127C272.944 65.2085 272.76 65.3079 272.598 65.4294C272.44 65.5546 272.285 65.6871 272.131 65.8234C271.534 66.383 271.188 67.1452 270.893 67.8706C270.592 68.5997 270.378 69.3545 270.245 70.1167C270.128 70.8826 270.05 71.6447 270.094 72.4143H270.205H270.209Z" fill="#DCCDAA"/>
<path d="M272.746 71.8508C272.83 71.2543 272.93 70.6615 273.073 70.0834C273.209 69.5016 273.372 68.9346 273.552 68.3749C273.732 67.8152 274.045 67.3108 274.174 66.7474C274.307 66.1767 274.458 65.6244 274.487 64.9469L274.391 64.8916C274.115 65.0794 273.861 65.3004 273.67 65.5507C273.567 65.6723 273.471 65.8048 273.383 65.9337C273.298 66.0699 273.224 66.2062 273.147 66.3461C272.996 66.6259 272.908 66.9278 272.841 67.2371L272.698 68.1687C272.598 68.7836 272.539 69.3985 272.528 70.0171C272.528 70.6357 272.543 71.2469 272.639 71.8545H272.749L272.746 71.8508Z" fill="#DCCDAA"/>
<path d="M271.03 72.6904C271.173 71.9761 271.361 71.2691 271.571 70.5732C271.777 69.8736 272.009 69.185 272.274 68.5112C272.547 67.8374 272.871 67.193 273.18 66.5413C273.5 65.8932 273.846 65.2673 274.229 64.6377L274.2 64.6156C273.659 65.12 273.224 65.7312 272.852 66.3719C272.491 67.02 272.237 67.7159 271.998 68.4118C271.53 69.8073 271.192 71.2396 270.993 72.6904L271.03 72.6978V72.6904Z" fill="#DCCDAA"/>
<path d="M275.971 75.0284C275.886 74.2552 275.824 73.4819 275.805 72.7124C275.78 71.9428 275.776 71.1733 275.824 70.4184C275.85 70.0392 275.897 69.6636 275.964 69.2954C275.997 69.1113 276.023 68.9272 276.041 68.7431C276.07 68.5626 276.089 68.3785 276.104 68.1944C276.166 67.4543 276.24 66.7437 276.332 65.9226L276.236 65.8674C275.592 66.4197 275.231 67.215 275.014 68.003C274.782 68.802 274.896 69.6305 274.94 70.4221C274.984 71.2211 275.102 72.0054 275.257 72.7786C275.426 73.5482 275.607 74.3141 275.864 75.0579L275.971 75.0321V75.0284Z" fill="#DCCDAA"/>
<path d="M278.423 74.476C278.059 73.7948 277.716 73.1026 277.433 72.3956C277.138 71.6923 276.888 70.9743 276.693 70.2563C276.505 69.5309 276.479 68.7945 276.369 68.106C276.266 67.4027 276.24 66.7289 276.332 65.9151L276.236 65.8599C275.581 66.4085 275.29 67.318 275.268 68.1501C275.257 68.5736 275.316 68.9933 275.433 69.3873C275.559 69.7813 275.702 70.1606 275.857 70.5325C276.159 71.2762 276.527 71.9795 276.947 72.646C277.374 73.3088 277.823 73.9494 278.339 74.5386L278.427 74.4723L278.423 74.476Z" fill="#DCCDAA"/>
<path d="M280.684 73.5004C280.11 73.0181 279.576 72.4879 279.101 71.9208C278.622 71.3575 278.195 70.761 277.827 70.1387C277.742 69.9804 277.657 69.8183 277.58 69.66C277.506 69.4943 277.448 69.3286 277.381 69.1629C277.308 69.0009 277.256 68.8352 277.19 68.6732C277.131 68.5112 277.035 68.3565 276.984 68.1909C276.685 67.5502 276.49 66.8874 276.166 66.1399H276.056C275.982 66.3277 275.934 66.5229 275.886 66.7217C275.864 66.8211 275.846 66.9205 275.827 67.0236C275.82 67.1231 275.82 67.2225 275.816 67.3256C275.809 67.5281 275.805 67.7343 275.827 67.9368C275.857 68.1356 275.894 68.3381 275.934 68.537C276.122 69.336 276.608 70.0135 277.087 70.6321C277.565 71.258 278.114 71.8214 278.707 72.3185C279.311 72.8045 279.933 73.2537 280.618 73.5999L280.677 73.5078L280.684 73.5004Z" fill="#DCCDAA"/>
<path d="M281.461 71.0185C280.986 70.6466 280.522 70.2637 280.095 69.8513C279.661 69.4426 279.248 69.0191 278.858 68.5847C278.46 68.1465 278.18 67.6273 277.757 67.2297C277.33 66.832 276.925 66.4196 276.354 66.0587L276.258 66.114C276.284 66.4454 276.347 66.7767 276.468 67.0713C276.523 67.2223 276.59 67.3696 276.656 67.5132C276.73 67.6531 276.814 67.7893 276.895 67.9219C277.061 68.1907 277.282 68.4226 277.514 68.6325L278.247 69.2217C278.729 69.6157 279.233 69.9728 279.764 70.2895C280.298 70.5988 280.835 70.8897 281.409 71.1143L281.461 71.0185Z" fill="#DCCDAA"/>
<path d="M281.332 72.9259C280.787 72.4435 280.268 71.928 279.767 71.3978C279.267 70.8713 278.784 70.3226 278.331 69.7556C277.886 69.1812 277.488 68.581 277.076 67.9882C276.674 67.388 276.306 66.7731 275.953 66.1287L275.919 66.1398C276.085 66.8615 276.398 67.5427 276.766 68.1834C277.146 68.8204 277.624 69.3874 278.107 69.9434C279.079 71.048 280.15 72.0569 281.306 72.9517L281.328 72.9222L281.332 72.9259Z" fill="#DCCDAA"/>
<path d="M285.828 69.8146C285.117 69.5016 284.414 69.1703 283.737 68.8021C283.059 68.4375 282.389 68.0583 281.759 67.6385C281.446 67.4249 281.141 67.1967 280.857 66.9536C280.714 66.8321 280.566 66.718 280.415 66.6112C280.272 66.4934 280.124 66.3903 279.97 66.2835C279.362 65.8601 278.781 65.4403 278.118 64.9469L278.022 65.0021C278.177 65.838 278.688 66.5486 279.263 67.1304C279.841 67.7306 280.614 68.0435 281.321 68.4044C282.035 68.7652 282.772 69.0561 283.519 69.3065C284.27 69.5458 285.022 69.7741 285.799 69.9177L285.828 69.8109V69.8146Z" fill="#DCCDAA"/>
<path d="M286.575 67.4138C285.802 67.3917 285.033 67.3402 284.278 67.2334C283.519 67.134 282.776 66.9977 282.054 66.8062C281.332 66.6074 280.684 66.2613 280.032 66.0109C279.37 65.7495 278.777 65.4328 278.118 64.9505L278.022 65.0057C278.169 65.8452 278.81 66.5522 279.521 66.9904C279.881 67.2113 280.272 67.3696 280.673 67.4653C281.078 67.5537 281.476 67.62 281.877 67.6715C282.672 67.782 283.468 67.8151 284.252 67.7857C285.04 67.7452 285.817 67.6789 286.587 67.5243L286.575 67.4138Z" fill="#DCCDAA"/>
<path d="M286.855 64.9689C286.148 65.223 285.427 65.4218 284.694 65.5507C283.965 65.6832 283.236 65.7569 282.514 65.7606C282.334 65.7532 282.153 65.7458 281.977 65.7348C281.8 65.7164 281.623 65.6832 281.446 65.6575C281.27 65.6427 281.1 65.6022 280.927 65.5765C280.758 65.547 280.577 65.5507 280.408 65.5139C279.701 65.4513 279.031 65.2893 278.221 65.1972L278.166 65.2929C278.291 65.4513 278.438 65.5912 278.585 65.7311C278.663 65.7974 278.736 65.8673 278.817 65.9299C278.898 65.9889 278.987 66.0367 279.071 66.092C279.244 66.1987 279.421 66.3055 279.605 66.3865C279.793 66.4602 279.985 66.5301 280.18 66.5927C280.964 66.8284 281.792 66.7474 282.573 66.6406C283.357 66.5375 284.116 66.346 284.841 66.0809C285.563 65.8011 286.263 65.4844 286.907 65.0647L286.855 64.9689Z" fill="#DCCDAA"/>
<path d="M285.099 63.058C284.539 63.2863 283.976 63.4925 283.405 63.6582C282.834 63.8313 282.26 63.9749 281.686 64.0964C281.111 64.2216 280.518 64.2032 279.962 64.3726C279.403 64.5456 278.847 64.6892 278.247 65.0022V65.1127C278.549 65.2563 278.865 65.3667 279.178 65.4072C279.336 65.4367 279.495 65.4514 279.657 65.4661C279.815 65.4698 279.973 65.4661 280.132 65.4661C280.448 65.4551 280.758 65.3815 281.056 65.2857L281.932 64.947C282.514 64.726 283.077 64.4683 283.615 64.17C284.149 63.8607 284.672 63.5404 285.154 63.1575L285.095 63.0617L285.099 63.058Z" fill="#DCCDAA"/>
<path d="M286.686 64.122C285.994 64.354 285.29 64.5455 284.58 64.7112C283.873 64.8806 283.159 65.0242 282.441 65.1309C281.722 65.2304 281.001 65.2745 280.283 65.3335C279.561 65.3813 278.847 65.3924 278.11 65.374L278.103 65.4108C278.81 65.628 279.557 65.698 280.297 65.7017C281.038 65.6906 281.77 65.5617 282.492 65.4218C283.935 65.1309 285.342 64.7075 286.697 64.1552L286.682 64.122H286.686Z" fill="#DCCDAA"/>
<path d="M286.237 58.6726C285.611 59.1329 284.97 59.5747 284.315 59.9761C283.659 60.3811 282.996 60.7714 282.319 61.1101C281.976 61.2758 281.63 61.4231 281.277 61.552C281.1 61.6146 280.927 61.6845 280.761 61.7619C280.588 61.8282 280.423 61.9055 280.257 61.9828C279.587 62.2995 278.931 62.5903 278.173 62.918V63.0285C278.976 63.312 279.845 63.2237 280.636 63.0175C281.446 62.8186 282.102 62.3068 282.768 61.8723C283.435 61.4342 284.057 60.9408 284.65 60.4179C285.235 59.8877 285.806 59.3501 286.318 58.7536L286.24 58.6726H286.237Z" fill="#DCCDAA"/>
<path d="M284.536 56.8242C284.131 57.4796 283.7 58.1203 283.228 58.7242C282.765 59.3317 282.271 59.9061 281.745 60.4364C281.211 60.9629 280.585 61.3495 280.043 61.7914C279.487 62.2332 278.917 62.5904 278.166 62.9181V63.0286C278.968 63.3194 279.904 63.1206 280.636 62.7229C281.008 62.5204 281.343 62.2627 281.623 61.9607C281.899 61.6551 282.161 61.3421 282.404 61.0218C282.897 60.3885 283.324 59.7183 283.689 59.0224C284.046 58.3228 284.381 57.6122 284.631 56.8721L284.532 56.8279L284.536 56.8242Z" fill="#DCCDAA"/>
<path d="M282.558 55.3587C282.426 56.0988 282.238 56.8242 281.98 57.5201C281.734 58.216 281.428 58.8861 281.074 59.5121C280.979 59.6631 280.883 59.8177 280.784 59.965C280.677 60.1086 280.563 60.2448 280.452 60.3848C280.349 60.5284 280.231 60.6572 280.121 60.7935C280.01 60.926 279.926 61.0843 279.808 61.2132C279.403 61.795 278.928 62.2921 278.442 62.9475L278.497 63.0432C278.696 63.0138 278.891 62.9585 279.086 62.8996C279.182 62.8665 279.281 62.837 279.377 62.8002C279.469 62.756 279.554 62.7082 279.646 62.6603C279.822 62.5645 280.007 62.4651 280.169 62.3436C280.327 62.2184 280.482 62.0859 280.636 61.9496C281.233 61.39 281.579 60.6278 281.873 59.9024C282.175 59.1733 282.389 58.4185 282.521 57.6563C282.639 56.8904 282.717 56.1282 282.672 55.3587H282.562H282.558Z" fill="#DCCDAA"/>
<path d="M280.021 55.9259C279.937 56.5224 279.837 57.1152 279.694 57.6933C279.557 58.275 279.395 58.8421 279.215 59.4018C279.035 59.9614 278.722 60.4659 278.593 61.0292C278.46 61.6 278.309 62.1523 278.28 62.8298L278.375 62.885C278.652 62.6972 278.906 62.4763 279.097 62.2259C279.2 62.1044 279.296 61.9719 279.384 61.843C279.469 61.7067 279.543 61.5705 279.62 61.4306C279.771 61.1507 279.859 60.8488 279.926 60.5395L280.069 59.6079C280.169 58.993 280.228 58.3781 280.239 57.7595C280.239 57.1409 280.224 56.5297 280.128 55.9222H280.018L280.021 55.9259Z" fill="#DCCDAA"/>
<path d="M281.741 55.0826C281.597 55.797 281.41 56.5039 281.2 57.1998C280.993 57.8994 280.761 58.588 280.496 59.2618C280.224 59.9356 279.9 60.58 279.591 61.2317C279.27 61.8798 278.924 62.5057 278.541 63.1354L278.571 63.1575C279.112 62.653 279.546 62.0418 279.918 61.4011C280.279 60.7531 280.533 60.0571 280.773 59.3612C281.24 57.9657 281.579 56.5334 281.778 55.0826L281.741 55.0753V55.0826Z" fill="#DCCDAA"/>
<path d="M276.383 59.2174C278.962 59.2174 281.052 61.3077 281.052 63.8863C281.052 66.4648 278.962 68.5552 276.383 68.5552C273.805 68.5552 271.715 66.4648 271.715 63.8863C271.715 61.3077 273.805 59.2174 276.383 59.2174Z" fill="#F6F4EE"/>
<path d="M275.714 65.4248C275.917 65.4248 276.082 65.5898 276.082 65.7933C276.082 65.9969 275.917 66.1619 275.714 66.1619C275.51 66.1619 275.345 65.9969 275.345 65.7933C275.345 65.5898 275.51 65.4248 275.714 65.4248Z" fill="#BB2E26"/>
<path d="M274.241 61.7427C274.444 61.7427 274.609 61.9077 274.609 62.1112C274.609 62.3147 274.444 62.4797 274.241 62.4797C274.037 62.4797 273.872 62.3147 273.872 62.1112C273.872 61.9077 274.037 61.7427 274.241 61.7427Z" fill="#BB2E26"/>
<path d="M274.241 64.1364C274.342 64.1364 274.425 64.2189 274.425 64.3206C274.425 64.4224 274.342 64.5049 274.241 64.5049C274.139 64.5049 274.056 64.4224 274.056 64.3206C274.056 64.2189 274.139 64.1364 274.241 64.1364Z" fill="#BB2E26"/>
<path d="M276.266 62.8475C276.368 62.8475 276.45 62.93 276.45 63.0318C276.45 63.1336 276.368 63.2161 276.266 63.2161C276.164 63.2161 276.081 63.1336 276.081 63.0318C276.081 62.93 276.164 62.8475 276.266 62.8475Z" fill="#BB2E26"/>
<path d="M277.739 62.4794C277.84 62.4794 277.923 62.5619 277.923 62.6636C277.923 62.7654 277.84 62.8479 277.739 62.8479C277.637 62.8479 277.554 62.7654 277.554 62.6636C277.554 62.5619 277.637 62.4794 277.739 62.4794Z" fill="#BB2E26"/>
<path d="M277.002 60.6383C277.104 60.6383 277.186 60.7208 277.186 60.8226C277.186 60.9243 277.104 61.0068 277.002 61.0068C276.9 61.0068 276.818 60.9243 276.818 60.8226C276.818 60.7208 276.9 60.6383 277.002 60.6383Z" fill="#BB2E26"/>
<path d="M276.634 64.4127C276.685 64.4127 276.726 64.4539 276.726 64.5048C276.726 64.5557 276.685 64.5969 276.634 64.5969C276.583 64.5969 276.542 64.5557 276.542 64.5048C276.542 64.4539 276.583 64.4127 276.634 64.4127Z" fill="#BB2E26"/>
<path d="M275.529 61.0987C275.58 61.0987 275.621 61.1399 275.621 61.1908C275.621 61.2417 275.58 61.283 275.529 61.283C275.478 61.283 275.437 61.2417 275.437 61.1908C275.437 61.1399 275.478 61.0987 275.529 61.0987Z" fill="#BB2E26"/>
<path d="M273.32 63.3082C273.371 63.3082 273.412 63.3494 273.412 63.4003C273.412 63.4512 273.371 63.4924 273.32 63.4924C273.269 63.4924 273.228 63.4512 273.228 63.4003C273.228 63.3494 273.269 63.3082 273.32 63.3082Z" fill="#BB2E26"/>
<path d="M274.056 66.2537C274.107 66.2537 274.149 66.295 274.149 66.3459C274.149 66.3967 274.107 66.438 274.056 66.438C274.006 66.438 273.964 66.3967 273.964 66.3459C273.964 66.295 274.006 66.2537 274.056 66.2537Z" fill="#BB2E26"/>
<path d="M193.353 54.2478C193.353 54.2478 164.608 45.7704 177.604 14C210.978 27.1829 193.353 54.2478 193.353 54.2478Z" fill="#7CAAA3"/>
<path d="M191.561 52.7607C191.561 52.7607 165.242 67.0883 151.965 35.4353C184.889 21.1592 191.561 52.7607 191.561 52.7607Z" fill="#7CAAA3"/>
<path d="M189.248 52.9764C189.248 52.9764 180.77 81.7208 149 68.7256C162.183 35.3507 189.248 52.9764 189.248 52.9764Z" fill="#7CAAA3"/>
<path d="M187.761 54.7686C187.761 54.7686 202.088 81.0875 170.435 94.3643C156.159 61.4398 187.761 54.7686 187.761 54.7686Z" fill="#7CAAA3"/>
<path d="M187.976 57.0862C187.976 57.0862 216.721 65.5636 203.726 97.334C170.351 84.1511 187.976 57.0862 187.976 57.0862Z" fill="#7CAAA3"/>
<path d="M189.769 58.5686C189.769 58.5686 216.087 44.241 229.364 75.8941C196.44 90.1701 189.769 58.5686 189.769 58.5686Z" fill="#7CAAA3"/>
<path d="M192.086 58.353C192.086 58.353 200.564 29.6086 232.334 42.6038C219.151 75.9787 192.086 58.353 192.086 58.353Z" fill="#7CAAA3"/>
<path d="M193.569 56.5654C193.569 56.5654 179.241 30.2465 210.894 16.9698C225.17 49.8942 193.569 56.5654 193.569 56.5654Z" fill="#7CAAA3"/>
<path d="M191.481 34.4501C191.898 37.3541 192.128 40.3144 192.011 43.2372C191.767 46.1553 191.457 48.9185 190.796 51.8178L190.918 51.8882C193.029 49.5659 193.39 46.2256 193.137 43.2325C192.977 40.2394 192.471 37.2838 191.617 34.4173L191.481 34.4501Z" fill="#F6F4EE"/>
<path d="M186.808 35.4823C189.632 40.3802 191.959 46.0849 190.796 51.8132L190.918 51.8835C194.183 48.0929 191.509 42.7775 189.445 39.0619C188.675 37.7905 187.859 36.552 186.921 35.4025L186.808 35.487V35.4823Z" fill="#F6F4EE"/>
<path d="M182.502 37.3354C184.988 39.3012 187.179 41.7219 188.652 44.5227C189.079 45.4563 189.478 46.4134 189.844 47.3657C190.383 48.6324 190.683 49.9554 191.106 51.3816H191.246C192.044 48.4354 190.946 45.2874 189.084 42.9886C187.32 40.6429 185.115 38.6584 182.572 37.2182L182.497 37.3354H182.502Z" fill="#F6F4EE"/>
<path d="M181.014 42.0597C183.834 43.9831 186.194 46.4649 188.324 49.0874C189.112 49.885 189.83 50.7294 190.758 51.5176L190.88 51.4472C190.397 49.0827 188.802 47.1499 186.93 45.7143C185.162 44.1943 183.201 42.9041 181.085 41.9377L181.019 42.0597H181.014Z" fill="#F6F4EE"/>
<path d="M181.254 38.4472C185.41 42.1018 189.027 46.4179 191.49 51.3955L191.533 51.3814C190.777 48.6698 189.149 46.2865 187.31 44.1942C185.476 42.144 183.426 39.9953 181.249 38.4518L181.254 38.4472Z" fill="#F6F4EE"/>
<path d="M176.238 40.0845C178.589 41.8438 180.841 43.7719 182.825 45.9253C184.721 48.1631 186.452 50.3352 188.033 52.8499L188.169 52.8123C188.019 49.6738 185.912 47.0606 183.618 45.1231C181.39 43.1198 178.936 41.3887 176.309 39.9625L176.234 40.0845H176.238Z" fill="#F6F4EE"/>
<path d="M173.668 44.1191C179.128 45.5875 184.81 47.9708 188.037 52.8499L188.173 52.8123C187.798 47.8253 182.154 45.9581 178.063 44.7853C176.618 44.4287 175.164 44.1332 173.691 43.9831L173.668 44.1238V44.1191Z" fill="#F6F4EE"/>
<path d="M171.932 48.4775C175.08 48.1116 178.34 48.2711 181.361 49.2094C182.323 49.5659 183.28 49.9647 184.214 50.3775C185.495 50.8936 186.635 51.6161 187.944 52.3245L188.047 52.2259C186.527 49.5753 183.524 48.1256 180.578 47.816C177.674 47.4032 174.709 47.5627 171.894 48.3414L171.927 48.4775H171.932Z" fill="#F6F4EE"/>
<path d="M174.221 52.864C177.576 52.2259 181 52.3151 184.359 52.6669C185.485 52.6716 186.588 52.7654 187.798 52.6669L187.836 52.5309C185.823 51.1985 183.327 50.9592 180.986 51.2689C178.659 51.4471 176.36 51.921 174.184 52.7326L174.226 52.8687L174.221 52.864Z" fill="#F6F4EE"/>
<path d="M171.833 50.143C177.355 49.7864 182.966 50.279 188.225 52.0618L188.244 52.0195C185.795 50.6356 182.957 50.1054 180.175 49.9225C177.425 49.7677 174.456 49.702 171.829 50.1477L171.833 50.143Z" fill="#F6F4EE"/>
<path d="M169.445 54.8485C172.349 54.431 175.31 54.2011 178.232 54.3184C181.15 54.5623 183.914 54.872 186.813 55.5334L186.883 55.4115C184.561 53.3003 181.221 52.9391 178.228 53.1924C175.234 53.3519 172.279 53.8586 169.412 54.7124L169.445 54.8485Z" fill="#F6F4EE"/>
<path d="M170.482 59.5212C175.38 56.697 181.085 54.37 186.813 55.5335L186.883 55.4116C183.093 52.1463 177.777 54.8204 174.062 56.8847C172.79 57.6541 171.552 58.4704 170.402 59.4087L170.487 59.5212H170.482Z" fill="#F6F4EE"/>
<path d="M172.335 63.8327C174.301 61.3462 176.722 59.1554 179.522 57.6822C180.456 57.2553 181.413 56.8566 182.365 56.4906C183.632 55.9511 184.955 55.6509 186.381 55.2286V55.0879C183.435 54.2903 180.287 55.3881 177.988 57.2506C175.643 59.0146 173.658 61.2196 172.218 63.7623L172.335 63.8374V63.8327Z" fill="#F6F4EE"/>
<path d="M177.055 65.3152C178.978 62.4956 181.46 60.1358 184.083 58.0059C184.88 57.2178 185.725 56.5 186.513 55.5711L186.442 55.4491C184.078 55.9323 182.145 57.5274 180.709 59.3993C179.189 61.168 177.899 63.129 176.933 65.2448L177.055 65.3105V65.3152Z" fill="#F6F4EE"/>
<path d="M173.447 65.0759C177.102 60.9193 181.418 57.3022 186.395 54.8392L186.381 54.797C183.67 55.5523 181.286 57.1802 179.194 59.0192C177.144 60.8536 174.995 62.9037 173.452 65.0806L173.447 65.0759Z" fill="#F6F4EE"/>
<path d="M175.084 70.091C176.844 67.7406 178.772 65.4887 180.925 63.5042C183.163 61.6089 185.335 59.8778 187.85 58.2968L187.812 58.1607C184.674 58.3108 182.061 60.4173 180.123 62.7114C178.12 64.9398 176.389 67.3934 174.962 70.0206L175.084 70.0957V70.091Z" fill="#F6F4EE"/>
<path d="M179.119 72.6619C180.587 67.201 182.971 61.5197 187.85 58.292L187.812 58.156C182.825 58.5313 180.958 64.1751 179.785 68.266C179.429 69.711 179.133 71.1653 178.983 72.6384L179.124 72.6619H179.119Z" fill="#F6F4EE"/>
<path d="M183.477 74.3978C183.111 71.2498 183.271 67.9893 184.209 64.968C184.566 64.0063 184.965 63.0492 185.377 62.1156C185.893 60.8348 186.616 59.6948 187.324 58.3859L187.226 58.2827C184.575 59.8027 183.125 62.8052 182.816 65.7515C182.403 68.6555 182.563 71.6204 183.341 74.4353L183.477 74.4025V74.3978Z" fill="#F6F4EE"/>
<path d="M187.864 72.1131C187.226 68.7587 187.315 65.334 187.667 61.9749C187.671 60.849 187.765 59.7465 187.667 58.5361L187.531 58.4986C186.198 60.5112 185.959 63.007 186.269 65.3481C186.447 67.675 186.921 69.9738 187.732 72.1506L187.869 72.1084L187.864 72.1131Z" fill="#F6F4EE"/>
<path d="M185.143 74.4963C184.786 68.9745 185.279 63.3635 187.062 58.1044L187.019 58.0857C185.635 60.5346 185.105 63.3729 184.922 66.1549C184.767 68.9041 184.702 71.8738 185.147 74.501L185.143 74.4963Z" fill="#F6F4EE"/>
<path d="M189.848 76.8842C189.431 73.9802 189.201 71.0199 189.318 68.0971C189.562 65.179 189.872 62.4158 190.533 59.5165L190.411 59.4461C188.3 61.7684 187.939 65.1087 188.192 68.1018C188.352 71.0949 188.858 74.0505 189.712 76.917L189.848 76.8842Z" fill="#F6F4EE"/>
<path d="M194.521 75.8472C191.697 70.9494 189.37 65.2446 190.533 59.5164L190.411 59.446C187.146 63.2367 189.82 68.5521 191.884 72.2677C192.654 73.5391 193.47 74.7776 194.408 75.927L194.521 75.8426V75.8472Z" fill="#F6F4EE"/>
<path d="M198.832 73.9943C196.346 72.0286 194.155 69.6078 192.682 66.807C192.255 65.8734 191.856 64.9164 191.49 63.964C190.951 62.6973 190.651 61.3743 190.228 59.9481H190.088C189.29 62.8944 190.388 66.0423 192.25 68.3411C194.014 70.6868 196.219 72.6713 198.762 74.1116L198.837 73.9943H198.832Z" fill="#F6F4EE"/>
<path d="M200.315 69.2748C197.495 67.3513 195.136 64.8695 193.006 62.247C192.217 61.4494 191.5 60.605 190.571 59.8168L190.449 59.8872C190.932 62.2517 192.527 64.1845 194.399 65.6201C196.168 67.1401 198.129 68.4303 200.245 69.3967L200.31 69.2748H200.315Z" fill="#F6F4EE"/>
<path d="M200.076 72.887C195.919 69.2323 192.302 64.9162 189.839 59.9386L189.797 59.9527C190.552 62.6643 192.18 65.0476 194.019 67.14C195.853 69.1901 197.903 71.3388 200.08 72.8823L200.076 72.887Z" fill="#F6F4EE"/>
<path d="M205.091 71.245C202.74 69.4857 200.489 67.5575 198.504 65.4041C196.609 63.1663 194.878 60.9942 193.297 58.4796L193.16 58.5171C193.311 61.6557 195.417 64.2688 197.711 66.2064C199.94 68.2096 202.393 69.9407 205.02 71.3669L205.095 71.245H205.091Z" fill="#F6F4EE"/>
<path d="M207.662 67.2104C202.201 65.742 196.519 63.3587 193.292 58.4796L193.156 58.5172C193.531 63.5042 199.175 65.3713 203.266 66.5442C204.711 66.9007 206.165 67.1963 207.638 67.3464L207.662 67.2057V67.2104Z" fill="#F6F4EE"/>
<path d="M209.397 62.8519C206.25 63.2179 202.989 63.0584 199.968 62.1201C199.006 61.7635 198.049 61.3648 197.115 60.9519C195.835 60.4358 194.695 59.7134 193.386 59.005L193.282 59.1035C194.802 61.7541 197.805 63.2038 200.751 63.5134C203.655 63.9263 206.62 63.7668 209.435 62.988L209.402 62.8519H209.397Z" fill="#F6F4EE"/>
<path d="M207.113 58.4655C203.758 59.1035 200.334 59.0144 196.975 58.6625C195.849 58.6578 194.746 58.564 193.536 58.6625L193.498 58.7986C195.511 60.131 198.007 60.3702 200.348 60.0606C202.675 59.8823 204.973 59.4085 207.15 58.5969L207.108 58.4608L207.113 58.4655Z" fill="#F6F4EE"/>
<path d="M209.496 61.1865C203.974 61.543 198.363 61.0504 193.104 59.2677L193.085 59.3099C195.534 60.6939 198.373 61.224 201.155 61.407C203.904 61.5618 206.873 61.6275 209.501 61.1818L209.496 61.1865Z" fill="#F6F4EE"/>
<path d="M211.884 56.4812C208.98 56.8988 206.02 57.1286 203.097 57.0114C200.179 56.7674 197.416 56.4578 194.516 55.7963L194.446 55.9183C196.768 58.0294 200.108 58.3906 203.102 58.1373C206.095 57.9778 209.05 57.4711 211.917 56.6173L211.884 56.4812Z" fill="#F6F4EE"/>
<path d="M210.847 51.8086C205.949 54.6328 200.244 56.9598 194.516 55.7963L194.446 55.9183C198.237 59.1835 203.552 56.5094 207.268 54.4452C208.539 53.6758 209.777 52.8595 210.927 51.9212L210.842 51.8086H210.847Z" fill="#F6F4EE"/>
<path d="M208.994 47.5018C207.028 49.9883 204.608 52.1792 201.807 53.6523C200.873 54.0792 199.916 54.478 198.964 54.8439C197.697 55.3834 196.374 55.6837 194.948 56.1059V56.2466C197.894 57.0442 201.042 55.9464 203.341 54.0839C205.687 52.3199 207.671 50.1149 209.111 47.5722L208.994 47.4971V47.5018Z" fill="#F6F4EE"/>
<path d="M204.274 46.0194C202.351 48.839 199.869 51.1988 197.247 53.3287C196.449 54.1168 195.605 54.8346 194.817 55.7635L194.887 55.8855C197.251 55.4023 199.184 53.8072 200.62 51.9353C202.14 50.1666 203.43 48.2056 204.396 46.0898L204.274 46.0241V46.0194Z" fill="#F6F4EE"/>
<path d="M207.887 46.2538C204.232 50.4104 199.916 54.0275 194.938 56.4905L194.953 56.5327C197.664 55.7774 200.047 54.1495 202.14 52.3104C204.19 50.4761 206.339 48.4259 207.882 46.2491L207.887 46.2538Z" fill="#F6F4EE"/>
<path d="M206.245 41.2386C204.486 43.589 202.557 45.8409 200.404 47.8254C198.166 49.7207 195.994 51.4519 193.479 53.0329L193.517 53.1689C196.656 53.0188 199.269 50.9124 201.206 48.6183C203.209 46.3898 204.941 43.9362 206.367 41.309L206.245 41.234V41.2386Z" fill="#F6F4EE"/>
<path d="M202.21 38.6677C200.742 44.1285 198.359 49.8098 193.479 53.0375L193.517 53.1736C198.504 52.7983 200.371 47.1545 201.544 43.0636C201.901 41.6186 202.196 40.1643 202.346 38.6911L202.206 38.6677H202.21Z" fill="#F6F4EE"/>
<path d="M197.852 36.9321C198.218 40.08 198.058 43.3406 197.12 46.3618C196.763 47.3236 196.365 48.2806 195.952 49.2142C195.436 50.495 194.713 51.635 194.005 52.9439L194.103 53.0471C196.754 51.5271 198.204 48.5246 198.513 45.5784C198.926 42.6744 198.767 39.7094 197.988 36.8945L197.852 36.9274V36.9321Z" fill="#F6F4EE"/>
<path d="M193.465 39.2214C194.103 42.5758 194.014 46.0005 193.662 49.3596C193.658 50.4855 193.564 51.588 193.662 52.7984L193.798 52.8359C195.131 50.8233 195.37 48.3275 195.06 45.9864C194.882 43.6595 194.408 41.3607 193.597 39.1839L193.461 39.2261L193.465 39.2214Z" fill="#F6F4EE"/>
<path d="M196.186 36.8335C196.543 42.3553 196.05 47.9663 194.268 53.2254L194.31 53.2441C195.694 50.7952 196.224 47.9569 196.407 45.1749C196.562 42.4257 196.627 39.456 196.182 36.8288L196.186 36.8335Z" fill="#F6F4EE"/>
<path d="M190.665 46.7744C195.575 46.7744 199.555 50.7547 199.555 55.6647C199.555 60.5746 195.575 64.5549 190.665 64.5549C185.755 64.5549 181.774 60.5746 181.774 55.6647C181.774 50.7547 185.755 46.7744 190.665 46.7744Z" fill="#50716D"/>
<path d="M189.393 58.5968C189.779 58.5968 190.092 58.9098 190.092 59.2958C190.092 59.6819 189.779 59.9949 189.393 59.9949C189.007 59.9949 188.694 59.6819 188.694 59.2958C188.694 58.9098 189.007 58.5968 189.393 58.5968Z" fill="#F6F4EE"/>
<path d="M186.588 51.5878C186.974 51.5878 187.287 51.9008 187.287 52.2868C187.287 52.6729 186.974 52.9858 186.588 52.9858C186.202 52.9858 185.889 52.6729 185.889 52.2868C185.889 51.9008 186.202 51.5878 186.588 51.5878Z" fill="#F6F4EE"/>
<path d="M186.588 56.1426C186.783 56.1426 186.94 56.3003 186.94 56.4948C186.94 56.6893 186.783 56.8469 186.588 56.8469C186.394 56.8469 186.236 56.6893 186.236 56.4948C186.236 56.3003 186.394 56.1426 186.588 56.1426Z" fill="#F6F4EE"/>
<path d="M190.444 53.689C190.639 53.689 190.797 53.8467 190.797 54.0411C190.797 54.2356 190.639 54.3933 190.444 54.3933C190.25 54.3933 190.092 54.2356 190.092 54.0411C190.092 53.8467 190.25 53.689 190.444 53.689Z" fill="#F6F4EE"/>
<path d="M193.245 52.9854C193.44 52.9854 193.597 53.143 193.597 53.3375C193.597 53.532 193.44 53.6897 193.245 53.6897C193.051 53.6897 192.893 53.532 192.893 53.3375C192.893 53.143 193.051 52.9854 193.245 52.9854Z" fill="#F6F4EE"/>
<path d="M191.847 49.4807C192.042 49.4807 192.199 49.6384 192.199 49.8329C192.199 50.0274 192.042 50.1851 191.847 50.1851C191.653 50.1851 191.495 50.0274 191.495 49.8329C191.495 49.6384 191.653 49.4807 191.847 49.4807Z" fill="#F6F4EE"/>
<path d="M191.143 56.6684C191.239 56.6684 191.317 56.7462 191.317 56.8421C191.317 56.9381 191.239 57.0159 191.143 57.0159C191.047 57.0159 190.97 56.9381 190.97 56.8421C190.97 56.7462 191.047 56.6684 191.143 56.6684Z" fill="#F6F4EE"/>
<path d="M189.042 50.363C189.137 50.363 189.215 50.4408 189.215 50.5367C189.215 50.6327 189.137 50.7104 189.042 50.7104C188.946 50.7104 188.868 50.6327 188.868 50.5367C188.868 50.4408 188.946 50.363 189.042 50.363Z" fill="#F6F4EE"/>
<path d="M184.833 54.5666C184.929 54.5666 185.007 54.6444 185.007 54.7403C185.007 54.8363 184.929 54.9141 184.833 54.9141C184.737 54.9141 184.66 54.8363 184.66 54.7403C184.66 54.6444 184.737 54.5666 184.833 54.5666Z" fill="#F6F4EE"/>
<path d="M186.236 60.1774C186.332 60.1774 186.41 60.2552 186.41 60.3512C186.41 60.4471 186.332 60.5249 186.236 60.5249C186.14 60.5249 186.062 60.4471 186.062 60.3512C186.062 60.2552 186.14 60.1774 186.236 60.1774Z" fill="#F6F4EE"/>
<path d="M458.888 108.071C458.888 108.071 471.016 92.4168 478.847 92.6462" stroke="#50716D" stroke-width="2.03345" stroke-miterlimit="10"/>
<path d="M467.708 98.6924C467.708 98.6924 476.088 98.6721 479.665 105.912" stroke="#50716D" stroke-width="2.03345" stroke-miterlimit="10"/>
<path d="M467.17 99.0524C467.17 99.0524 471.466 92.196 467.695 85.3813" stroke="#50716D" stroke-width="2.03345" stroke-miterlimit="10"/>
<path d="M483.771 101.674C486.02 102.8 486.848 105.618 485.622 107.967C484.395 110.317 481.578 111.309 479.329 110.183C477.08 109.057 476.251 106.24 477.477 103.89C478.704 101.54 481.522 100.548 483.771 101.674Z" fill="#BB2E26"/>
<path d="M481.704 88.7419C483.953 89.8678 484.781 92.6854 483.555 95.0351C482.328 97.3848 479.511 98.3768 477.262 97.2509C475.013 96.1249 474.184 93.3074 475.41 90.9577C476.637 88.608 479.455 87.6159 481.704 88.7419Z" fill="#BB2E26"/>
<path d="M471.227 80.6452C473.476 81.7711 474.305 84.5887 473.078 86.9384C471.851 89.2881 469.034 90.2801 466.785 89.1542C464.536 88.0282 463.707 85.2107 464.934 82.861C466.16 80.5113 468.978 79.5192 471.227 80.6452Z" fill="#BB2E26"/>
<path d="M458.28 118.417C458.28 118.417 437.612 112.787 435.063 105.014" stroke="#50716D" stroke-width="2.03345" stroke-miterlimit="10"/>
<path d="M444.456 113.056C444.456 113.056 441.663 105.429 446.77 99.1124" stroke="#50716D" stroke-width="2.03345" stroke-miterlimit="10"/>
<path d="M445.129 113.019C445.129 113.019 437.392 111.98 432.477 118.562" stroke="#50716D" stroke-width="2.03345" stroke-miterlimit="10"/>
<path d="M448.141 93.1835C450.39 94.3095 451.219 97.127 449.992 99.4767C448.765 101.826 445.948 102.818 443.699 101.693C441.45 100.567 440.621 97.749 441.848 95.3993C443.074 93.0496 445.892 92.0576 448.141 93.1835Z" fill="#BB2E26"/>
<path d="M437.04 100.138C439.289 101.264 440.118 104.081 438.891 106.431C437.665 108.781 434.847 109.773 432.598 108.647C430.349 107.521 429.52 104.703 430.747 102.354C431.973 100.004 434.791 99.0119 437.04 100.138Z" fill="#BB2E26"/>
<path d="M433.681 112.945C435.93 114.071 436.758 116.889 435.532 119.238C434.305 121.588 431.488 122.58 429.239 121.454C426.99 120.328 426.161 117.51 427.387 115.161C428.614 112.811 431.432 111.819 433.681 112.945Z" fill="#BB2E26"/>
<path d="M455.305 87.4731C455.305 87.4731 448.103 80.0285 440.008 80.5222" stroke="#50716D" stroke-width="2.03345" stroke-miterlimit="10"/>
<path d="M442.063 76.2048C444.312 77.3307 445.141 80.1483 443.914 82.498C442.688 84.8477 439.87 85.8397 437.621 84.7138C435.372 83.5878 434.543 80.7702 435.77 78.4205C436.996 76.0709 439.814 75.0788 442.063 76.2048Z" fill="#BB2E26"/>
<path d="M455.07 88.0154C455.07 88.0154 458.152 78.0572 465.166 74.3074" stroke="#50716D" stroke-width="2.03345" stroke-miterlimit="10"/>
<path d="M448.82 68.8674C448.82 68.8674 468.271 106.905 452.304 134.127" stroke="#50716D" stroke-width="2.44014" stroke-miterlimit="10"/>
<path d="M448.78 61.3505C451.029 62.4765 451.858 65.294 450.631 67.6437C449.405 69.9934 446.587 70.9855 444.338 69.8595C442.089 68.7336 441.26 65.916 442.487 63.5663C443.714 61.2166 446.531 60.2246 448.78 61.3505Z" fill="#BB2E26"/>
<path d="M450.932 75.313L458.722 60.0752" stroke="#50716D" stroke-width="2.03345" stroke-miterlimit="10"/>
<path d="M462.313 52.7392C464.562 53.8651 465.391 56.6827 464.164 59.0324C462.937 61.3821 460.12 62.3741 457.871 61.2482C455.622 60.1222 454.793 57.3047 456.02 54.955C457.246 52.6053 460.064 51.6132 462.313 52.7392Z" fill="#BB2E26"/>
<path d="M466.892 69.6916C469.141 70.8175 469.97 73.6351 468.743 75.9848C467.517 78.3345 464.699 79.3265 462.45 78.2006C460.201 77.0746 459.372 74.2571 460.599 71.9074C461.826 69.5577 464.643 68.5656 466.892 69.6916Z" fill="#BB2E26"/>
<path d="M456.356 127.501C456.356 127.501 459.437 117.543 466.451 113.793" stroke="#50716D" stroke-width="2.03345" stroke-miterlimit="10"/>
<path d="M468.178 109.178C470.427 110.304 471.256 113.121 470.029 115.471C468.802 117.821 465.985 118.813 463.736 117.687C461.487 116.561 460.658 113.743 461.885 111.393C463.111 109.044 465.929 108.052 468.178 109.178Z" fill="#BB2E26"/>
<path d="M56.7073 124.091C56.7073 124.091 60.8718 105.078 55.4221 99.2052" stroke="#50716D" stroke-width="2.03345" stroke-miterlimit="10"/>
<path d="M58.151 111.455C58.151 111.455 52.6892 105.188 44.8523 106.843" stroke="#50716D" stroke-width="2.03345" stroke-miterlimit="10"/>
<path d="M58.0412 111.979C58.0412 111.979 60.5464 104.435 68.4484 103.11" stroke="#50716D" stroke-width="2.03345" stroke-miterlimit="10"/>
<path d="M43.6769 100.775C46.2599 100.775 48.3539 102.869 48.3539 105.452C48.3539 108.035 46.2599 110.129 43.6769 110.129C41.0939 110.129 39 108.035 39 105.452C39 102.869 41.0939 100.775 43.6769 100.775Z" fill="#BB2E26"/>
<path d="M54.9422 94.1012C57.5252 94.1012 59.6192 96.1951 59.6192 98.7781C59.6192 101.361 57.5252 103.455 54.9422 103.455C52.3592 103.455 50.2653 101.361 50.2653 98.7781C50.2653 96.1951 52.3592 94.1012 54.9422 94.1012Z" fill="#BB2E26"/>
<path d="M67.8668 96.9806C70.4498 96.9806 72.5438 99.0745 72.5438 101.658C72.5438 104.241 70.4498 106.334 67.8668 106.334C65.2838 106.334 63.1899 104.241 63.1899 101.658C63.1899 99.0745 65.2838 96.9806 67.8668 96.9806Z" fill="#BB2E26"/>
<path d="M61.8031 138.41C61.8031 138.41 69.7091 135.828 71.2424 127.966" stroke="#50716D" stroke-width="2.03345" stroke-miterlimit="10"/>
<path d="M72.9789 122.753C75.5619 122.753 77.6558 124.847 77.6558 127.43C77.6558 130.013 75.5619 132.106 72.9789 132.106C70.3959 132.106 68.302 130.013 68.302 127.43C68.302 124.847 70.3959 122.753 72.9789 122.753Z" fill="#BB2E26"/>
<path d="M74.5975 113.834C74.5975 113.834 84.9315 114.773 89.8403 121.102" stroke="#50716D" stroke-width="2.03345" stroke-miterlimit="10"/>
<path d="M89.9216 116.575C92.5046 116.575 94.5985 118.669 94.5985 121.252C94.5985 123.835 92.5046 125.929 89.9216 125.929C87.3386 125.929 85.2447 123.835 85.2447 121.252C85.2447 118.669 87.3386 116.575 89.9216 116.575Z" fill="#BB2E26"/>
<path d="M74.4267 114.31C74.4267 114.31 80.218 105.7 78.4042 97.8958" stroke="#50716D" stroke-width="2.03345" stroke-miterlimit="10"/>
<path d="M93.6753 107.628C93.6753 107.628 50.7777 116.242 40.1103 145.275" stroke="#50716D" stroke-width="2.44014" stroke-miterlimit="10"/>
<path d="M97.0549 101.914C99.6379 101.914 101.732 104.008 101.732 106.591C101.732 109.174 99.6379 111.268 97.0549 111.268C94.4719 111.268 92.378 109.174 92.378 106.591C92.378 104.008 94.4719 101.914 97.0549 101.914Z" fill="#BB2E26"/>
<path d="M86.7942 109.429L93.533 93.7028" stroke="#50716D" stroke-width="2.03345" stroke-miterlimit="10"/>
<path d="M95.0256 86.0001C97.6086 86.0001 99.7025 88.0941 99.7025 90.6771C99.7025 93.2601 97.6086 95.354 95.0256 95.354C92.4426 95.354 90.3486 93.2601 90.3486 90.6771C90.3486 88.0941 92.4426 86.0001 95.0256 86.0001Z" fill="#BB2E26"/>
<path d="M79.0589 93.3165C81.6419 93.3165 83.7359 95.4105 83.7359 97.9935C83.7359 100.576 81.6419 102.67 79.0589 102.67C76.4759 102.67 74.382 100.576 74.382 97.9935C74.382 95.4105 76.4759 93.3165 79.0589 93.3165Z" fill="#BB2E26"/>
<path d="M43.2377 138.557C43.2377 138.557 49.029 129.947 47.2151 122.143" stroke="#50716D" stroke-width="2.03345" stroke-miterlimit="10"/>
<path d="M47.874 117.563C50.457 117.563 52.5509 119.657 52.5509 122.24C52.5509 124.823 50.457 126.917 47.874 126.917C45.291 126.917 43.197 124.823 43.197 122.24C43.197 119.657 45.291 117.563 47.874 117.563Z" fill="#BB2E26"/>
<path d="M332.378 111.134C332.378 111.134 345.644 89.6591 370.942 104.154C352.599 128.643 332.378 111.134 332.378 111.134Z" fill="#50716D"/>
<path d="M292.54 144.964C292.54 144.964 317.78 127.754 338.264 157.615C305.962 175.526 292.54 144.964 292.54 144.964Z" fill="#50716D"/>
<path d="M296.805 82.0313C296.805 82.0313 326.225 82.4571 325.345 119.711C290.017 115.701 296.805 82.0313 296.805 82.0313Z" fill="#50716D"/>
<path d="M289.118 107.029C289.118 107.029 306.058 130.014 278.081 154.312C260.315 124.369 289.118 107.029 289.118 107.029Z" fill="#50716D"/>
<path d="M319.775 62.7221C319.775 62.7221 340.859 62.527 340.834 89.167C315.459 86.9042 319.775 62.7221 319.775 62.7221Z" fill="#50716D"/>
<path d="M360.728 61.2223C360.728 61.2223 364.201 81.8756 339.196 88.8136C337.363 63.3032 360.728 61.2223 360.728 61.2223Z" fill="#50716D"/>
<path d="M275.702 156.758C275.702 156.758 325.158 124.852 332.824 108.386C340.49 91.9194 340.385 86.9774 340.385 86.9774" stroke="#50716D" stroke-width="1.87657" stroke-miterlimit="10"/>
<path d="M327.042 132.331C325.537 132.301 325.037 130.326 326.321 129.448C330.289 126.741 335.822 124.707 339.263 126.39C344.887 129.144 346.338 133.63 343.146 135.862C339.95 138.091 335.811 136.902 333.037 134.072C331.759 132.764 329.309 132.373 327.042 132.331Z" fill="#7CAAA3"/>
<path d="M326.647 98.3846C327.315 99.5357 328.906 99.265 328.967 97.9862C329.145 94.0306 328.183 89.0971 325.525 87.01C321.184 83.592 317.427 83.9633 317.25 87.1599C317.073 90.3565 319.682 93.1545 322.853 94.3494C324.317 94.9035 325.646 96.6559 326.651 98.3865L326.647 98.3846Z" fill="#7CAAA3"/>
<path d="M306.79 130.197C306.252 131.347 304.925 131.884 303.826 131.397C302.727 130.91 302.273 129.583 302.811 128.433C303.349 127.283 304.676 126.746 305.775 127.233C306.874 127.72 307.328 129.047 306.79 130.197Z" fill="#7CAAA3"/>
<path d="M310.33 123.82C309.926 124.683 308.93 125.086 308.106 124.721C307.281 124.355 306.94 123.359 307.344 122.496C307.748 121.633 308.744 121.23 309.569 121.595C310.393 121.961 310.734 122.957 310.33 123.82Z" fill="#7CAAA3"/>
<path d="M352.538 93.2096C351.865 94.6488 350.204 95.3212 348.828 94.7115C347.453 94.1018 346.884 92.4408 347.558 91.0016C348.232 89.5624 349.893 88.89 351.268 89.4997C352.643 90.1095 353.212 91.7704 352.538 93.2096Z" fill="#7CAAA3"/>
<path d="M353.636 90.0654C353.636 90.0654 368.895 84.1887 364.5 80.395C360.105 76.6014 353.636 90.0654 353.636 90.0654Z" fill="#7CAAA3"/>
<path d="M355.222 92.6773C355.222 92.6773 367.128 99.8491 366.682 94.3574C366.237 88.8657 355.222 92.6773 355.222 92.6773Z" fill="#7CAAA3"/>
<path d="M301.583 125.108C301.583 125.108 303.033 106.284 297.116 110.527C291.201 114.765 301.583 125.108 301.583 125.108Z" fill="#7CAAA3"/>
<path d="M547.062 86.8403C547.062 86.8403 530.098 75.4448 515.621 95.8525C537.398 107.656 547.062 86.8403 547.062 86.8403Z" fill="#50716D"/>
<path d="M589.398 98.7564C589.398 98.7564 564.881 95.0971 559.007 125.188C589.065 126.769 589.398 98.7564 589.398 98.7564Z" fill="#50716D"/>
<path d="M564.627 52.4521C564.627 52.4521 542.526 63.6787 555.179 91.6021C580.592 75.4682 564.627 52.4521 564.627 52.4521Z" fill="#50716D"/>
<path d="M540.26 45.8184C540.26 45.8184 524.267 53.4795 532.852 73.6667C551.294 62.5481 540.26 45.8184 540.26 45.8184Z" fill="#50716D"/>
<path d="M508.429 59.3156C508.429 59.3156 512.515 76.5707 534.063 72.4751C527.119 52.0908 508.429 59.3156 508.429 59.3156Z" fill="#50716D"/>
<path d="M606.057 101.656C606.057 101.656 557.276 95.7493 545.932 85.916C534.588 76.0828 533.044 72.217 533.044 72.217" stroke="#50716D" stroke-width="1.87657" stroke-miterlimit="10"/>
<path d="M558.589 101.379C559.715 100.802 559.462 99.1223 558.209 98.9347C554.344 98.3529 549.516 98.8643 547.461 101.412C544.102 105.573 544.445 109.509 547.574 110.011C550.703 110.513 553.443 108.088 554.625 104.916C555.169 103.453 556.891 102.252 558.589 101.379Z" fill="#7CAAA3"/>
<path d="M546.997 75.6136C546.861 76.7348 545.571 77.1195 545.116 76.1719C543.708 73.235 542.85 69.13 544.182 66.5591C546.363 62.3556 549.324 61.2437 550.492 63.6035C551.66 65.9633 550.581 69.055 548.568 71.1379C547.64 72.0997 547.199 73.9247 546.997 75.6136Z" fill="#7CAAA3"/>
<path d="M527.143 76.5989C528.438 76.5989 529.488 77.6491 529.488 78.9446C529.488 80.2401 528.438 81.2903 527.143 81.2903C525.847 81.2903 524.797 80.2401 524.797 78.9446C524.797 77.6491 525.847 76.5989 527.143 76.5989Z" fill="#7CAAA3"/>
<path d="M523.633 78.5083C523.633 78.5083 509.986 79.7328 512.125 75.1539C514.265 70.5751 523.633 78.5083 523.633 78.5083Z" fill="#7CAAA3"/>
<path d="M523.347 81.0604C523.347 81.0604 516.681 90.8561 515.259 86.5541C513.838 82.2567 523.347 81.0604 523.347 81.0604Z" fill="#7CAAA3"/>
<path d="M26.8324 75.4906C26.8324 75.4906 44.5264 66.5207 57.0376 88.9591C34.5626 97.6501 26.8324 75.4906 26.8324 75.4906Z" fill="#50716D"/>
<path d="M-16.7146 82.572C-16.7146 82.572 7.49467 82.4082 10.6605 113.048C-18.7785 110.372 -16.7146 82.572 -16.7146 82.572Z" fill="#50716D"/>
<path d="M12.8265 39.693C12.8265 39.693 33.4283 53.9415 18.7114 79.8345C-4.70472 60.2546 12.8265 39.693 12.8265 39.693Z" fill="#50716D"/>
<path d="M-3.48263 54.6263C-3.48263 54.6263 -0.0651795 79.8432 -30.1839 83.8601C-31.4678 53.1306 -3.48263 54.6263 -3.48263 54.6263Z" fill="#50716D"/>
<path d="M37.9441 35.9105C37.9441 35.9105 52.8858 45.76 42.798 64.5556C25.7577 50.938 37.9441 35.9105 37.9441 35.9105Z" fill="#50716D"/>
<path d="M68.2388 53.2862C68.2388 53.2862 62.6591 70.1888 41.5308 62.9268C50.2274 43.2627 68.2388 53.2862 68.2388 53.2862Z" fill="#50716D"/>
<path d="M-33.4725 83.1111C-33.4725 83.1111 15.9465 84.1749 28.1793 75.7542C40.4121 67.3334 42.2933 63.5998 42.2933 63.5998" stroke="#50716D" stroke-width="1.87657" stroke-miterlimit="10"/>
<path d="M13.7454 88.8764C12.6938 88.1418 13.0853 86.5096 14.3267 86.4992C18.1621 86.4698 22.8443 87.6584 24.6377 90.4802C27.5721 95.0906 26.8959 98.9537 23.7926 99.0111C20.6893 99.0685 18.2072 96.2672 17.3218 92.9507C16.9114 91.4172 15.328 89.9838 13.7413 88.8783L13.7454 88.8764Z" fill="#7CAAA3"/>
<path d="M28.3743 64.7834C28.4102 65.9119 29.6385 66.4781 30.1643 65.6015C31.7866 62.8883 32.976 58.9395 31.8918 56.2011C30.1186 51.7248 27.3239 50.2012 25.9858 52.3798C24.6477 54.5584 25.4352 57.7742 27.2191 60.1236C28.0461 61.2099 28.3183 63.081 28.3722 64.7791L28.3743 64.7834Z" fill="#7CAAA3"/>
<path d="M-1.8973 75.6982C-0.980445 75.279 0.137006 75.7167 0.598597 76.6759C1.06019 77.6351 0.691121 78.7525 -0.225735 79.1718C-1.14259 79.591 -2.26004 79.1533 -2.72163 78.1941C-3.18322 77.2349 -2.81416 76.1175 -1.8973 75.6982Z" fill="#7CAAA3"/>
<path d="M3.87496 73.4659C4.5626 73.1514 5.40069 73.4797 5.74688 74.1991C6.09307 74.9185 5.81627 75.7566 5.12863 76.071C4.44099 76.3855 3.6029 76.0572 3.25671 75.3378C2.91051 74.6184 3.18731 73.7803 3.87496 73.4659Z" fill="#7CAAA3"/>
<path d="M46.4817 68.2092C47.6278 67.6851 49.0246 68.2322 49.6016 69.4312C50.1786 70.6302 49.7172 72.027 48.5712 72.5511C47.4251 73.0752 46.0283 72.528 45.4513 71.329C44.8743 70.13 45.3356 68.7332 46.4817 68.2092Z" fill="#7CAAA3"/>
<path d="M51.0697 70.1906C51.0697 70.1906 64.5736 73.3997 62.8384 68.4495C61.1033 63.4994 51.0697 70.1906 51.0697 70.1906Z" fill="#7CAAA3"/>
<path d="M51.0496 72.8037C51.0496 72.8037 56.7197 83.4569 58.4762 79.3952C60.2285 75.3353 51.0496 72.8037 51.0496 72.8037Z" fill="#7CAAA3"/>
<path d="M-1.15771 73.1313C-1.15771 73.1313 7.14304 60.3043 1.25694 60.5059C-4.63125 60.7031 -1.15771 73.1313 -1.15771 73.1313Z" fill="#7CAAA3"/>
<path d="M433.53 11.2238L441.548 28.5352" stroke="#DCCDAA" stroke-width="0.534823" stroke-miterlimit="10"/>
<path d="M433.291 10.0039C433.734 10.0039 434.093 10.3631 434.093 10.8062C434.093 11.2492 433.734 11.6084 433.291 11.6084C432.848 11.6084 432.488 11.2492 432.488 10.8062C432.488 10.3631 432.848 10.0039 433.291 10.0039Z" fill="#DCCDAA"/>
<path d="M441.515 27.761C441.958 27.761 442.317 28.1202 442.317 28.5632C442.317 29.0063 441.958 29.3655 441.515 29.3655C441.072 29.3655 440.712 29.0063 440.712 28.5632C440.712 28.1202 441.072 27.761 441.515 27.761Z" fill="#DCCDAA"/>
<path d="M428.641 16.4874L446.549 23.0601" stroke="#DCCDAA" stroke-width="0.534823" stroke-miterlimit="10"/>
<path d="M428.172 15.5584C428.615 15.5584 428.975 15.9175 428.975 16.3606C428.975 16.8037 428.615 17.1628 428.172 17.1628C427.729 17.1628 427.37 16.8037 427.37 16.3606C427.37 15.9175 427.729 15.5584 428.172 15.5584Z" fill="#DCCDAA"/>
<path d="M446.544 22.3001C446.987 22.3001 447.346 22.6592 447.346 23.1023C447.346 23.5454 446.987 23.9045 446.544 23.9045C446.101 23.9045 445.742 23.5454 445.742 23.1023C445.742 22.6592 446.101 22.3001 446.544 22.3001Z" fill="#DCCDAA"/>
<path d="M428.904 23.6653L446.216 15.6476" stroke="#DCCDAA" stroke-width="0.534823" stroke-miterlimit="10"/>
<path d="M428.482 23.107C428.925 23.107 429.284 23.4661 429.284 23.9092C429.284 24.3522 428.925 24.7114 428.482 24.7114C428.039 24.7114 427.68 24.3522 427.68 23.9092C427.68 23.4661 428.039 23.107 428.482 23.107Z" fill="#DCCDAA"/>
<path d="M446.239 14.8782C446.682 14.8782 447.041 15.2374 447.041 15.6804C447.041 16.1235 446.682 16.4827 446.239 16.4827C445.796 16.4827 445.437 16.1235 445.437 15.6804C445.437 15.2374 445.796 14.8782 446.239 14.8782Z" fill="#DCCDAA"/>
<path d="M434.168 28.5537L440.736 10.6465" stroke="#DCCDAA" stroke-width="0.534823" stroke-miterlimit="10"/>
<path d="M434.037 28.2207C434.48 28.2207 434.839 28.5799 434.839 29.023C434.839 29.466 434.48 29.8252 434.037 29.8252C433.594 29.8252 433.234 29.466 433.234 29.023C433.234 28.5799 433.594 28.2207 434.037 28.2207Z" fill="#DCCDAA"/>
<path d="M440.778 9.84914C441.221 9.84914 441.58 10.2083 441.58 10.6514C441.58 11.0944 441.221 11.4536 440.778 11.4536C440.335 11.4536 439.976 11.0944 439.976 10.6514C439.976 10.2083 440.335 9.84914 440.778 9.84914Z" fill="#DCCDAA"/>
<path d="M96.1599 38.3747L104.178 55.686" stroke="#DCCDAA" stroke-width="0.534823" stroke-miterlimit="10"/>
<path d="M95.9206 37.1548C96.3637 37.1548 96.7228 37.514 96.7228 37.957C96.7228 38.4001 96.3637 38.7593 95.9206 38.7593C95.4775 38.7593 95.1184 38.4001 95.1184 37.957C95.1184 37.514 95.4775 37.1548 95.9206 37.1548Z" fill="#DCCDAA"/>
<path d="M104.145 54.9119C104.588 54.9119 104.947 55.2711 104.947 55.7141C104.947 56.1572 104.588 56.5164 104.145 56.5164C103.702 56.5164 103.342 56.1572 103.342 55.7141C103.342 55.2711 103.702 54.9119 104.145 54.9119Z" fill="#DCCDAA"/>
<path d="M91.2714 43.6382L109.179 50.2109" stroke="#DCCDAA" stroke-width="0.534823" stroke-miterlimit="10"/>
<path d="M90.8022 42.7093C91.2453 42.7093 91.6045 43.0684 91.6045 43.5115C91.6045 43.9546 91.2453 44.3137 90.8022 44.3137C90.3592 44.3137 90 43.9546 90 43.5115C90 43.0684 90.3592 42.7093 90.8022 42.7093Z" fill="#DCCDAA"/>
<path d="M109.174 49.4509C109.617 49.4509 109.976 49.8101 109.976 50.2532C109.976 50.6962 109.617 51.0554 109.174 51.0554C108.731 51.0554 108.372 50.6962 108.372 50.2532C108.372 49.8101 108.731 49.4509 109.174 49.4509Z" fill="#DCCDAA"/>
<path d="M91.5341 50.8162L108.845 42.7985" stroke="#DCCDAA" stroke-width="0.534823" stroke-miterlimit="10"/>
<path d="M91.1119 50.2578C91.5549 50.2578 91.9141 50.617 91.9141 51.0601C91.9141 51.5031 91.5549 51.8623 91.1119 51.8623C90.6688 51.8623 90.3096 51.5031 90.3096 51.0601C90.3096 50.617 90.6688 50.2578 91.1119 50.2578Z" fill="#DCCDAA"/>
<path d="M108.869 42.0291C109.312 42.0291 109.671 42.3883 109.671 42.8313C109.671 43.2744 109.312 43.6335 108.869 43.6335C108.426 43.6335 108.067 43.2744 108.067 42.8313C108.067 42.3883 108.426 42.0291 108.869 42.0291Z" fill="#DCCDAA"/>
<path d="M96.7979 55.7046L103.366 37.7974" stroke="#DCCDAA" stroke-width="0.534823" stroke-miterlimit="10"/>
<path d="M96.6665 55.3716C97.1096 55.3716 97.4688 55.7308 97.4688 56.1738C97.4688 56.6169 97.1096 56.9761 96.6665 56.9761C96.2235 56.9761 95.8643 56.6169 95.8643 56.1738C95.8643 55.7308 96.2235 55.3716 96.6665 55.3716Z" fill="#DCCDAA"/>
<path d="M103.408 37C103.851 37 104.21 37.3592 104.21 37.8023C104.21 38.2453 103.851 38.6045 103.408 38.6045C102.965 38.6045 102.606 38.2453 102.606 37.8023C102.606 37.3592 102.965 37 103.408 37Z" fill="#DCCDAA"/>
<path d="M236.288 106.08L230.414 124.231" stroke="#DCCDAA" stroke-width="0.534823" stroke-miterlimit="10"/>
<path d="M236.401 104.803C236.844 104.803 237.203 105.163 237.203 105.606C237.203 106.049 236.844 106.408 236.401 106.408C235.958 106.408 235.598 106.049 235.598 105.606C235.598 105.163 235.958 104.803 236.401 104.803Z" fill="#DCCDAA"/>
<path d="M230.372 123.424C230.815 123.424 231.174 123.783 231.174 124.226C231.174 124.669 230.815 125.028 230.372 125.028C229.929 125.028 229.57 124.669 229.57 124.226C229.57 123.783 229.929 123.424 230.372 123.424Z" fill="#DCCDAA"/>
<path d="M229.124 106.619L237.803 123.607" stroke="#DCCDAA" stroke-width="0.534823" stroke-miterlimit="10"/>
<path d="M228.871 105.404C229.314 105.404 229.673 105.763 229.673 106.206C229.673 106.649 229.314 107.009 228.871 107.009C228.428 107.009 228.069 106.649 228.069 106.206C228.069 105.763 228.428 105.404 228.871 105.404Z" fill="#DCCDAA"/>
<path d="M237.775 122.833C238.218 122.833 238.578 123.192 238.578 123.635C238.578 124.078 238.218 124.437 237.775 124.437C237.332 124.437 236.973 124.078 236.973 123.635C236.973 123.192 237.332 122.833 237.775 122.833Z" fill="#DCCDAA"/>
<path d="M224.442 112.066L242.593 117.939" stroke="#DCCDAA" stroke-width="0.534823" stroke-miterlimit="10"/>
<path d="M223.968 111.151C224.412 111.151 224.771 111.51 224.771 111.953C224.771 112.396 224.412 112.755 223.968 112.755C223.525 112.755 223.166 112.396 223.166 111.953C223.166 111.51 223.525 111.151 223.968 111.151Z" fill="#DCCDAA"/>
<path d="M242.589 117.179C243.032 117.179 243.391 117.539 243.391 117.982C243.391 118.425 243.032 118.784 242.589 118.784C242.146 118.784 241.786 118.425 241.786 117.982C241.786 117.539 242.146 117.179 242.589 117.179Z" fill="#DCCDAA"/>
<path d="M224.982 119.23L241.974 110.551" stroke="#DCCDAA" stroke-width="0.534823" stroke-miterlimit="10"/>
<path d="M224.574 118.681C225.017 118.681 225.376 119.04 225.376 119.483C225.376 119.926 225.017 120.285 224.574 120.285C224.131 120.285 223.771 119.926 223.771 119.483C223.771 119.04 224.131 118.681 224.574 118.681Z" fill="#DCCDAA"/>
<path d="M241.998 109.777C242.441 109.777 242.8 110.136 242.8 110.579C242.8 111.022 242.441 111.381 241.998 111.381C241.555 111.381 241.195 111.022 241.195 110.579C241.195 110.136 241.555 109.777 241.998 109.777Z" fill="#DCCDAA"/>
<path d="M396.266 69.4866L390.392 87.6377" stroke="#DCCDAA" stroke-width="0.534823" stroke-miterlimit="10"/>
<path d="M396.378 68.2105C396.822 68.2105 397.181 68.5696 397.181 69.0127C397.181 69.4558 396.822 69.8149 396.378 69.8149C395.935 69.8149 395.576 69.4558 395.576 69.0127C395.576 68.5696 395.935 68.2105 396.378 68.2105Z" fill="#DCCDAA"/>
<path d="M390.35 86.8308C390.793 86.8308 391.152 87.19 391.152 87.6331C391.152 88.0761 390.793 88.4353 390.35 88.4353C389.907 88.4353 389.548 88.0761 389.548 87.6331C389.548 87.19 389.907 86.8308 390.35 86.8308Z" fill="#DCCDAA"/>
<path d="M389.102 70.0262L397.781 87.0139" stroke="#DCCDAA" stroke-width="0.534823" stroke-miterlimit="10"/>
<path d="M388.849 68.8111C389.292 68.8111 389.651 69.1702 389.651 69.6133C389.651 70.0564 389.292 70.4155 388.849 70.4155C388.406 70.4155 388.047 70.0564 388.047 69.6133C388.047 69.1702 388.406 68.8111 388.849 68.8111Z" fill="#DCCDAA"/>
<path d="M397.753 86.2398C398.196 86.2398 398.555 86.5989 398.555 87.042C398.555 87.4851 398.196 87.8442 397.753 87.8442C397.31 87.8442 396.951 87.4851 396.951 87.042C396.951 86.5989 397.31 86.2398 397.753 86.2398Z" fill="#DCCDAA"/>
<path d="M384.42 75.4728L402.571 81.3464" stroke="#DCCDAA" stroke-width="0.534823" stroke-miterlimit="10"/>
<path d="M383.946 74.5628C384.389 74.5628 384.748 74.9219 384.748 75.365C384.748 75.8081 384.389 76.1672 383.946 76.1672C383.503 76.1672 383.144 75.8081 383.144 75.365C383.144 74.9219 383.503 74.5628 383.946 74.5628Z" fill="#DCCDAA"/>
<path d="M402.566 80.5864C403.01 80.5864 403.369 80.9456 403.369 81.3887C403.369 81.8317 403.01 82.1909 402.566 82.1909C402.123 82.1909 401.764 81.8317 401.764 81.3887C401.764 80.9456 402.123 80.5864 402.566 80.5864Z" fill="#DCCDAA"/>
<path d="M384.96 82.6367L401.952 73.9576" stroke="#DCCDAA" stroke-width="0.534823" stroke-miterlimit="10"/>
<path d="M384.551 82.0879C384.994 82.0879 385.354 82.4471 385.354 82.8901C385.354 83.3332 384.994 83.6924 384.551 83.6924C384.108 83.6924 383.749 83.3332 383.749 82.8901C383.749 82.4471 384.108 82.0879 384.551 82.0879Z" fill="#DCCDAA"/>
<path d="M401.975 73.1836C402.418 73.1836 402.778 73.5428 402.778 73.9858C402.778 74.4289 402.418 74.7881 401.975 74.7881C401.532 74.7881 401.173 74.4289 401.173 73.9858C401.173 73.5428 401.532 73.1836 401.975 73.1836Z" fill="#DCCDAA"/>
<path d="M519.191 112.174L510.976 129.391" stroke="#BB2E26" stroke-width="0.534823" stroke-miterlimit="10"/>
<path d="M519.364 110.917C519.807 110.917 520.167 111.276 520.167 111.719C520.167 112.162 519.807 112.521 519.364 112.521C518.921 112.521 518.562 112.162 518.562 111.719C518.562 111.276 518.921 110.917 519.364 110.917Z" fill="#BB2E26"/>
<path d="M512.022 111.766L518.389 129.748" stroke="#BB2E26" stroke-width="0.534823" stroke-miterlimit="10"/>
<path d="M511.82 110.518C512.264 110.518 512.623 110.877 512.623 111.32C512.623 111.763 512.264 112.122 511.82 112.122C511.377 112.122 511.018 111.763 511.018 111.32C511.018 110.877 511.377 110.518 511.82 110.518Z" fill="#BB2E26"/>
<path d="M506.66 116.546L523.877 124.761" stroke="#BB2E26" stroke-width="0.534823" stroke-miterlimit="10"/>
<path d="M506.21 115.575C506.653 115.575 507.012 115.934 507.012 116.377C507.012 116.821 506.653 117.18 506.21 117.18C505.766 117.18 505.407 116.821 505.407 116.377C505.407 115.934 505.766 115.575 506.21 115.575Z" fill="#BB2E26"/>
<path d="M523.873 124.001C524.316 124.001 524.675 124.36 524.675 124.803C524.675 125.246 524.316 125.605 523.873 125.605C523.43 125.605 523.07 125.246 523.07 124.803C523.07 124.36 523.43 124.001 523.873 124.001Z" fill="#BB2E26"/>
<path d="M506.252 123.719L524.239 117.353" stroke="#BB2E26" stroke-width="0.534823" stroke-miterlimit="10"/>
<path d="M505.811 123.114C506.254 123.114 506.613 123.473 506.613 123.917C506.613 124.36 506.254 124.719 505.811 124.719C505.368 124.719 505.009 124.36 505.009 123.917C505.009 123.473 505.368 123.114 505.811 123.114Z" fill="#BB2E26"/>
<path d="M524.262 116.584C524.705 116.584 525.064 116.943 525.064 117.386C525.064 117.829 524.705 118.188 524.262 118.188C523.819 118.188 523.46 117.829 523.46 117.386C523.46 116.943 523.819 116.584 524.262 116.584Z" fill="#BB2E26"/>
<path d="M389.182 27.6001L380.968 44.8176" stroke="#BB2E26" stroke-width="0.534823" stroke-miterlimit="10"/>
<path d="M389.356 26.3428C389.799 26.3428 390.158 26.702 390.158 27.145C390.158 27.5881 389.799 27.9473 389.356 27.9473C388.913 27.9473 388.554 27.5881 388.554 27.145C388.554 26.702 388.913 26.3428 389.356 26.3428Z" fill="#BB2E26"/>
<path d="M380.93 44.0061C381.373 44.0061 381.732 44.3653 381.732 44.8084C381.732 45.2514 381.373 45.6106 380.93 45.6106C380.487 45.6106 380.128 45.2514 380.128 44.8084C380.128 44.3653 380.487 44.0061 380.93 44.0061Z" fill="#BB2E26"/>
<path d="M382.014 27.1921L388.38 45.1743" stroke="#BB2E26" stroke-width="0.534823" stroke-miterlimit="10"/>
<path d="M381.812 25.9441C382.255 25.9441 382.614 26.3033 382.614 26.7463C382.614 27.1894 382.255 27.5486 381.812 27.5486C381.369 27.5486 381.01 27.1894 381.01 26.7463C381.01 26.3033 381.369 25.9441 381.812 25.9441Z" fill="#BB2E26"/>
<path d="M388.342 44.3955C388.786 44.3955 389.145 44.7547 389.145 45.1978C389.145 45.6408 388.786 46 388.342 46C387.899 46 387.54 45.6408 387.54 45.1978C387.54 44.7547 387.899 44.3955 388.342 44.3955Z" fill="#BB2E26"/>
<path d="M376.651 31.9726L393.869 40.1873" stroke="#BB2E26" stroke-width="0.534823" stroke-miterlimit="10"/>
<path d="M376.201 31.0015C376.644 31.0015 377.003 31.3607 377.003 31.8037C377.003 32.2468 376.644 32.606 376.201 32.606C375.758 32.606 375.399 32.2468 375.399 31.8037C375.399 31.3607 375.758 31.0015 376.201 31.0015Z" fill="#BB2E26"/>
<path d="M393.864 39.4273C394.307 39.4273 394.666 39.7864 394.666 40.2295C394.666 40.6726 394.307 41.0317 393.864 41.0317C393.421 41.0317 393.062 40.6726 393.062 40.2295C393.062 39.7864 393.421 39.4273 393.864 39.4273Z" fill="#BB2E26"/>
<path d="M376.243 39.1458L394.23 32.7795" stroke="#BB2E26" stroke-width="0.534823" stroke-miterlimit="10"/>
<path d="M375.802 38.5406C376.245 38.5406 376.604 38.8997 376.604 39.3428C376.604 39.7858 376.245 40.145 375.802 40.145C375.359 40.145 375 39.7858 375 39.3428C375 38.8997 375.359 38.5406 375.802 38.5406Z" fill="#BB2E26"/>
<path d="M394.254 32.01C394.697 32.01 395.056 32.3692 395.056 32.8123C395.056 33.2553 394.697 33.6145 394.254 33.6145C393.811 33.6145 393.451 33.2553 393.451 32.8123C393.451 32.3692 393.811 32.01 394.254 32.01Z" fill="#BB2E26"/>
<path d="M552.852 5.96906L537.22 16.9048" stroke="#BB2E26" stroke-width="0.534823" stroke-miterlimit="10"/>
<path d="M553.227 4.85721C553.67 4.85721 554.029 5.21638 554.029 5.65944C554.029 6.1025 553.67 6.46167 553.227 6.46167C552.784 6.46167 552.425 6.1025 552.425 5.65944C552.425 5.21638 552.784 4.85721 553.227 4.85721Z" fill="#BB2E26"/>
<path d="M537.192 16.0745C537.635 16.0745 537.994 16.4337 537.994 16.8767C537.994 17.3198 537.635 17.679 537.192 17.679C536.749 17.679 536.389 17.3198 536.389 16.8767C536.389 16.4337 536.749 16.0745 537.192 16.0745Z" fill="#BB2E26"/>
<path d="M546.814 2.08001L543.492 20.8645" stroke="#BB2E26" stroke-width="0.534823" stroke-miterlimit="10"/>
<path d="M546.856 0.794465C547.299 0.794465 547.658 1.15363 547.658 1.5967C547.658 2.03976 547.299 2.39893 546.856 2.39893C546.413 2.39893 546.054 2.03976 546.054 1.5967C546.054 1.15363 546.413 0.794465 546.856 0.794465Z" fill="#BB2E26"/>
<path d="M543.45 20.0669C543.893 20.0669 544.252 20.4261 544.252 20.8692C544.252 21.3122 543.893 21.6714 543.45 21.6714C543.007 21.6714 542.648 21.3122 542.648 20.8692C542.648 20.4261 543.007 20.0669 543.45 20.0669Z" fill="#BB2E26"/>
<path d="M539.795 3.6001L550.731 19.2319" stroke="#BB2E26" stroke-width="0.534823" stroke-miterlimit="10"/>
<path d="M539.481 2.42703C539.924 2.42703 540.283 2.7862 540.283 3.22926C540.283 3.67233 539.924 4.03149 539.481 4.03149C539.038 4.03149 538.679 3.67233 538.679 3.22926C538.679 2.7862 539.038 2.42703 539.481 2.42703Z" fill="#BB2E26"/>
<path d="M550.703 18.4624C551.146 18.4624 551.505 18.8216 551.505 19.2647C551.505 19.7077 551.146 20.0669 550.703 20.0669C550.26 20.0669 549.901 19.7077 549.901 19.2647C549.901 18.8216 550.26 18.4624 550.703 18.4624Z" fill="#BB2E26"/>
<path d="M535.906 9.64263L554.691 12.9595" stroke="#BB2E26" stroke-width="0.534823" stroke-miterlimit="10"/>
<path d="M535.423 8.79347C535.866 8.79347 536.225 9.15266 536.225 9.59572C536.225 10.0388 535.866 10.3979 535.423 10.3979C534.98 10.3979 534.621 10.0388 534.621 9.59572C534.621 9.15266 534.98 8.79347 535.423 8.79347Z" fill="#BB2E26"/>
<path d="M554.691 12.1995C555.134 12.1995 555.493 12.5586 555.493 13.0017C555.493 13.4448 555.134 13.804 554.691 13.804C554.248 13.804 553.889 13.4448 553.889 13.0017C553.889 12.5586 554.248 12.1995 554.691 12.1995Z" fill="#BB2E26"/>
<path d="M21.2425 6.34582L11.428 22.7048" stroke="#BB2E26" stroke-width="0.534823" stroke-miterlimit="10"/>
<path d="M21.4583 5.11208C21.9013 5.11208 22.2605 5.47125 22.2605 5.91431C22.2605 6.35737 21.9013 6.71655 21.4583 6.71655C21.0152 6.71655 20.656 6.35737 20.656 5.91431C20.656 5.47125 21.0152 5.11208 21.4583 5.11208Z" fill="#BB2E26"/>
<path d="M11.3858 21.8933C11.8288 21.8933 12.188 22.2525 12.188 22.6956C12.188 23.1386 11.8288 23.4978 11.3858 23.4978C10.9427 23.4978 10.5835 23.1386 10.5835 22.6956C10.5835 22.2525 10.9427 21.8933 11.3858 21.8933Z" fill="#BB2E26"/>
<path d="M14.1396 5.26209L18.7701 23.7698" stroke="#BB2E26" stroke-width="0.534823" stroke-miterlimit="10"/>
<path d="M13.9848 4.00026C14.4279 4.00026 14.787 4.35943 14.787 4.80249C14.787 5.24555 14.4279 5.60474 13.9848 5.60474C13.5417 5.60474 13.1826 5.24555 13.1826 4.80249C13.1826 4.35943 13.5417 4.00026 13.9848 4.00026Z" fill="#BB2E26"/>
<path d="M18.7325 22.9864C19.1756 22.9864 19.5348 23.3455 19.5348 23.7886C19.5348 24.2317 19.1756 24.5908 18.7325 24.5908C18.2895 24.5908 17.9303 24.2317 17.9303 23.7886C17.9303 23.3455 18.2895 22.9864 18.7325 22.9864Z" fill="#BB2E26"/>
<path d="M8.35042 9.51243L24.7094 19.3269" stroke="#BB2E26" stroke-width="0.534823" stroke-miterlimit="10"/>
<path d="M7.91411 8.4944C8.35717 8.4944 8.71635 8.85358 8.71635 9.29665C8.71635 9.73971 8.35717 10.0989 7.91411 10.0989C7.47105 10.0989 7.11188 9.73971 7.11188 9.29665C7.11188 8.85358 7.47105 8.4944 7.91411 8.4944Z" fill="#BB2E26"/>
<path d="M24.6953 18.5623C25.1384 18.5623 25.4976 18.9215 25.4976 19.3645C25.4976 19.8076 25.1384 20.1667 24.6953 20.1667C24.2523 20.1667 23.8931 19.8076 23.8931 19.3645C23.8931 18.9215 24.2523 18.5623 24.6953 18.5623Z" fill="#BB2E26"/>
<path d="M7.26199 16.6108L25.7697 11.9851" stroke="#BB2E26" stroke-width="0.534823" stroke-miterlimit="10"/>
<path d="M6.80223 15.968C7.2453 15.968 7.60447 16.3272 7.60447 16.7703C7.60447 17.2133 7.2453 17.5725 6.80223 17.5725C6.35917 17.5725 6 17.2133 6 16.7703C6 16.3272 6.35917 15.968 6.80223 15.968Z" fill="#BB2E26"/>
<path d="M25.7884 11.2202C26.2315 11.2202 26.5907 11.5794 26.5907 12.0225C26.5907 12.4655 26.2315 12.8247 25.7884 12.8247C25.3454 12.8247 24.9862 12.4655 24.9862 12.0225C24.9862 11.5794 25.3454 11.2202 25.7884 11.2202Z" fill="#BB2E26"/>
<path d="M405.362 111.219L386.821 115.719" stroke="#7CAAA3" stroke-width="0.534823" stroke-miterlimit="10"/>
<path d="M405.821 110.262C406.264 110.262 406.624 110.621 406.624 111.064C406.624 111.508 406.264 111.867 405.821 111.867C405.378 111.867 405.019 111.508 405.019 111.064C405.019 110.621 405.378 110.262 405.821 110.262Z" fill="#7CAAA3"/>
<path d="M386.802 114.879C387.245 114.879 387.604 115.238 387.604 115.681C387.604 116.124 387.245 116.483 386.802 116.483C386.359 116.483 386 116.124 386 115.681C386 115.238 386.359 114.879 386.802 114.879Z" fill="#7CAAA3"/>
<path d="M401.153 105.402L391.222 121.691" stroke="#7CAAA3" stroke-width="0.534823" stroke-miterlimit="10"/>
<path d="M401.369 104.163C401.812 104.163 402.171 104.523 402.171 104.966C402.171 105.409 401.812 105.768 401.369 105.768C400.926 105.768 400.567 105.409 400.567 104.966C400.567 104.523 400.926 104.163 401.369 104.163Z" fill="#7CAAA3"/>
<path d="M391.184 120.874C391.627 120.874 391.986 121.233 391.986 121.677C391.986 122.12 391.627 122.479 391.184 122.479C390.741 122.479 390.382 122.12 390.382 121.677C390.382 121.233 390.741 120.874 391.184 120.874Z" fill="#7CAAA3"/>
<path d="M394.06 104.262L398.559 122.802" stroke="#7CAAA3" stroke-width="0.534823" stroke-miterlimit="10"/>
<path d="M393.905 103C394.348 103 394.707 103.359 394.707 103.802C394.707 104.245 394.348 104.604 393.905 104.604C393.462 104.604 393.103 104.245 393.103 103.802C393.103 103.359 393.462 103 393.905 103Z" fill="#7CAAA3"/>
<path d="M398.521 122.019C398.964 122.019 399.324 122.378 399.324 122.821C399.324 123.264 398.964 123.624 398.521 123.624C398.078 123.624 397.719 123.264 397.719 122.821C397.719 122.378 398.078 122.019 398.521 122.019Z" fill="#7CAAA3"/>
<path d="M388.238 108.475L404.531 118.402" stroke="#7CAAA3" stroke-width="0.534823" stroke-miterlimit="10"/>
<path d="M387.806 107.457C388.249 107.457 388.608 107.816 388.608 108.259C388.608 108.702 388.249 109.061 387.806 109.061C387.363 109.061 387.004 108.702 387.004 108.259C387.004 107.816 387.363 107.457 387.806 107.457Z" fill="#7CAAA3"/>
<path d="M404.517 117.642C404.96 117.642 405.319 118.001 405.319 118.444C405.319 118.887 404.96 119.246 404.517 119.246C404.074 119.246 403.715 118.887 403.715 118.444C403.715 118.001 404.074 117.642 404.517 117.642Z" fill="#7CAAA3"/>
<path d="M140.517 107.576L122.685 100.802" stroke="#7CAAA3" stroke-width="0.534823" stroke-miterlimit="10"/>
<path d="M140.982 106.91C141.425 106.91 141.784 107.269 141.784 107.712C141.784 108.155 141.425 108.514 140.982 108.514C140.539 108.514 140.179 108.155 140.179 107.712C140.179 107.269 140.539 106.91 140.982 106.91Z" fill="#7CAAA3"/>
<path d="M122.69 99.9573C123.133 99.9573 123.492 100.316 123.492 100.76C123.492 101.203 123.133 101.562 122.69 101.562C122.247 101.562 121.888 101.203 121.888 100.76C121.888 100.316 122.247 99.9573 122.69 99.9573Z" fill="#7CAAA3"/>
<path d="M140.334 100.398L122.934 108.214" stroke="#7CAAA3" stroke-width="0.534823" stroke-miterlimit="10"/>
<path d="M140.761 99.3567C141.204 99.3567 141.563 99.7159 141.563 100.159C141.563 100.602 141.204 100.961 140.761 100.961C140.318 100.961 139.959 100.602 139.959 100.159C139.959 99.7159 140.318 99.3567 140.761 99.3567Z" fill="#7CAAA3"/>
<path d="M122.91 107.379C123.353 107.379 123.713 107.738 123.713 108.181C123.713 108.624 123.353 108.984 122.91 108.984C122.467 108.984 122.108 108.624 122.108 108.181C122.108 107.738 122.467 107.379 122.91 107.379Z" fill="#7CAAA3"/>
<path d="M135.132 95.4439L128.352 113.281" stroke="#7CAAA3" stroke-width="0.534823" stroke-miterlimit="10"/>
<path d="M135.263 94.1773C135.706 94.1773 136.065 94.5364 136.065 94.9795C136.065 95.4226 135.706 95.7817 135.263 95.7817C134.82 95.7817 134.461 95.4226 134.461 94.9795C134.461 94.5364 134.82 94.1773 135.263 94.1773Z" fill="#7CAAA3"/>
<path d="M128.31 112.469C128.753 112.469 129.112 112.828 129.112 113.271C129.112 113.715 128.753 114.074 128.31 114.074C127.867 114.074 127.508 113.715 127.508 113.271C127.508 112.828 127.867 112.469 128.31 112.469Z" fill="#7CAAA3"/>
<path d="M127.949 95.6271L135.77 113.028" stroke="#7CAAA3" stroke-width="0.534823" stroke-miterlimit="10"/>
<path d="M127.714 94.4026C128.157 94.4026 128.517 94.7618 128.517 95.2048C128.517 95.6479 128.157 96.0071 127.714 96.0071C127.271 96.0071 126.912 95.6479 126.912 95.2048C126.912 94.7618 127.271 94.4026 127.714 94.4026Z" fill="#7CAAA3"/>
<path d="M135.732 112.253C136.175 112.253 136.534 112.613 136.534 113.056C136.534 113.499 136.175 113.858 135.732 113.858C135.289 113.858 134.93 113.499 134.93 113.056C134.93 112.613 135.289 112.253 135.732 112.253Z" fill="#7CAAA3"/>
<path d="M508.63 32.3989L490.798 25.6245" stroke="#7CAAA3" stroke-width="0.534823" stroke-miterlimit="10"/>
<path d="M509.094 31.7327C509.537 31.7327 509.896 32.0919 509.896 32.5349C509.896 32.978 509.537 33.3372 509.094 33.3372C508.651 33.3372 508.292 32.978 508.292 32.5349C508.292 32.0919 508.651 31.7327 509.094 31.7327Z" fill="#7CAAA3"/>
<path d="M490.802 24.7801C491.245 24.7801 491.604 25.1392 491.604 25.5823C491.604 26.0254 491.245 26.3845 490.802 26.3845C490.359 26.3845 490 26.0254 490 25.5823C490 25.1392 490.359 24.7801 490.802 24.7801Z" fill="#7CAAA3"/>
<path d="M508.447 25.2209L491.046 33.0369" stroke="#7CAAA3" stroke-width="0.534823" stroke-miterlimit="10"/>
<path d="M508.874 24.1792C509.317 24.1792 509.676 24.5384 509.676 24.9815C509.676 25.4245 509.317 25.7837 508.874 25.7837C508.431 25.7837 508.071 25.4245 508.071 24.9815C508.071 24.5384 508.431 24.1792 508.874 24.1792Z" fill="#7CAAA3"/>
<path d="M491.023 32.2017C491.466 32.2017 491.825 32.5609 491.825 33.0039C491.825 33.447 491.466 33.8062 491.023 33.8062C490.58 33.8062 490.22 33.447 490.22 33.0039C490.22 32.5609 490.58 32.2017 491.023 32.2017Z" fill="#7CAAA3"/>
<path d="M503.244 20.2714L496.465 38.1035" stroke="#7CAAA3" stroke-width="0.534823" stroke-miterlimit="10"/>
<path d="M503.375 19C503.818 19 504.177 19.3592 504.177 19.8023C504.177 20.2453 503.818 20.6045 503.375 20.6045C502.932 20.6045 502.573 20.2453 502.573 19.8023C502.573 19.3592 502.932 19 503.375 19Z" fill="#7CAAA3"/>
<path d="M496.423 37.2967C496.866 37.2967 497.225 37.6558 497.225 38.0989C497.225 38.5419 496.866 38.9011 496.423 38.9011C495.98 38.9011 495.62 38.5419 495.62 38.0989C495.62 37.6558 495.98 37.2967 496.423 37.2967Z" fill="#7CAAA3"/>
<path d="M496.061 20.4498L503.882 37.8503" stroke="#7CAAA3" stroke-width="0.534823" stroke-miterlimit="10"/>
<path d="M495.827 19.2254C496.27 19.2254 496.629 19.5845 496.629 20.0276C496.629 20.4707 496.27 20.8298 495.827 20.8298C495.384 20.8298 495.025 20.4707 495.025 20.0276C495.025 19.5845 495.384 19.2254 495.827 19.2254Z" fill="#7CAAA3"/>
<path d="M503.844 37.0762C504.287 37.0762 504.647 37.4354 504.647 37.8784C504.647 38.3215 504.287 38.6807 503.844 38.6807C503.401 38.6807 503.042 38.3215 503.042 37.8784C503.042 37.4354 503.401 37.0762 503.844 37.0762Z" fill="#7CAAA3"/>
<path d="M489.142 113.469C490.179 113.469 491.019 114.309 491.019 115.345C491.019 116.382 490.179 117.222 489.142 117.222C488.106 117.222 487.266 116.382 487.266 115.345C487.266 114.309 488.106 113.469 489.142 113.469Z" fill="#DCCDAA"/>
<path d="M547.316 34.1834C548.352 34.1834 549.192 35.0235 549.192 36.06C549.192 37.0964 548.352 37.9365 547.316 37.9365C546.279 37.9365 545.439 37.0964 545.439 36.06C545.439 35.0235 546.279 34.1834 547.316 34.1834Z" fill="#DCCDAA"/>
<path d="M101.877 71C102.913 71 103.753 71.8402 103.753 72.8766C103.753 73.913 102.913 74.7532 101.877 74.7532C100.84 74.7532 100 73.913 100 72.8766C100 71.8402 100.84 71 101.877 71Z" fill="#DCCDAA"/>
<path d="M178.1 119.098C179.137 119.098 179.977 119.939 179.977 120.975C179.977 122.011 179.137 122.852 178.1 122.852C177.064 122.852 176.224 122.011 176.224 120.975C176.224 119.939 177.064 119.098 178.1 119.098Z" fill="#DCCDAA"/>
<path d="M317.877 45.2469C318.913 45.2469 319.753 46.087 319.753 47.1234C319.753 48.1598 318.913 49 317.877 49C316.84 49 316 48.1598 316 47.1234C316 46.087 316.84 45.2469 317.877 45.2469Z" fill="#DCCDAA"/>
<path d="M128.877 54C129.913 54 130.753 54.8402 130.753 55.8766C130.753 56.913 129.913 57.7532 128.877 57.7532C127.84 57.7532 127 56.913 127 55.8766C127 54.8402 127.84 54 128.877 54Z" fill="#7CAAA3"/>
<path d="M255.509 119.098C256.545 119.098 257.385 119.939 257.385 120.975C257.385 122.011 256.545 122.852 255.509 122.852C254.473 122.852 253.632 122.011 253.632 120.975C253.632 119.939 254.473 119.098 255.509 119.098Z" fill="#7CAAA3"/>
<path d="M340.893 58.1099C341.929 58.1099 342.77 58.9501 342.77 59.9865C342.77 61.0229 341.929 61.863 340.893 61.863C339.857 61.863 339.016 61.0229 339.016 59.9865C339.016 58.9501 339.857 58.1099 340.893 58.1099Z" fill="#7CAAA3"/>
<path d="M418.877 37.2469C419.913 37.2469 420.753 38.087 420.753 39.1234C420.753 40.1598 419.913 41 418.877 41C417.84 41 417 40.1598 417 39.1234C417 38.087 417.84 37.2469 418.877 37.2469Z" fill="#7CAAA3"/>
<path d="M63.8766 19C64.913 19 65.7531 19.8402 65.7531 20.8766C65.7531 21.913 64.913 22.7532 63.8766 22.7532C62.8402 22.7532 62 21.913 62 20.8766C62 19.8402 62.8402 19 63.8766 19Z" fill="#7CAAA3"/>
<path d="M123.68 122.382C124.716 122.382 125.556 123.223 125.556 124.259C125.556 125.295 124.716 126.135 123.68 126.135C122.643 126.135 121.803 125.295 121.803 124.259C121.803 123.223 122.643 122.382 123.68 122.382Z" fill="#BB2E26"/>
<path d="M204.841 117.691C205.878 117.691 206.718 118.531 206.718 119.568C206.718 120.604 205.878 121.444 204.841 121.444C203.805 121.444 202.965 120.604 202.965 119.568C202.965 118.531 203.805 117.691 204.841 117.691Z" fill="#BB2E26"/>
<path d="M541.217 120.975C542.253 120.975 543.094 121.815 543.094 122.851C543.094 123.888 542.253 124.728 541.217 124.728C540.181 124.728 539.34 123.888 539.34 122.851C539.34 121.815 540.181 120.975 541.217 120.975Z" fill="#BB2E26"/>
<path d="M26.8766 107C27.913 107 28.7531 107.84 28.7531 108.877C28.7531 109.913 27.913 110.753 26.8766 110.753C25.8402 110.753 25 109.913 25 108.877C25 107.84 25.8402 107 26.8766 107Z" fill="#BB2E26"/>
<path d="M488.673 50.6035C489.709 50.6035 490.55 51.4437 490.55 52.4801C490.55 53.5165 489.709 54.3567 488.673 54.3567C487.637 54.3567 486.796 53.5165 486.796 52.4801C486.796 51.4437 487.637 50.6035 488.673 50.6035Z" fill="#BB2E26"/>
</g>
<defs>
<clipPath id="clip0_52_2427">
<rect width="564" height="128" fill="white" transform="matrix(1 0 0 -1 0 128)"/>
</clipPath>
</defs>
</svg>
