<svg width="150" height="76" viewBox="0 0 150 76" fill="none" xmlns="http://www.w3.org/2000/svg">
<path d="M20.3252 10.872H18.4532C17.7492 10.872 17.3972 10.456 17.3972 9.624C17.3972 8.792 17.7492 8.376 18.4532 8.376H21.9572C22.3732 8.376 22.6452 8.456 22.7732 8.616C22.9332 8.744 23.0132 9.016 23.0132 9.432V20.184C23.5892 19.032 24.5172 17.992 25.7972 17.064C27.0772 16.136 28.6292 15.672 30.4532 15.672C32.3092 15.672 33.7332 16.392 34.7252 17.832C35.7172 19.24 36.2132 20.888 36.2132 22.776V36.504H37.6052C37.9572 36.504 38.2292 36.632 38.4212 36.888C38.6132 37.144 38.7092 37.432 38.7092 37.752C38.7092 38.072 38.6132 38.36 38.4212 38.616C38.2292 38.872 37.9572 39 37.6052 39H32.3252C31.4932 39 31.0772 38.584 31.0772 37.752C31.0772 36.92 31.4932 36.504 32.3252 36.504H33.5252V22.632C33.5252 21.48 33.2532 20.408 32.7092 19.416C32.1652 18.424 31.2372 17.928 29.9252 17.928C28.1652 17.928 26.5652 18.84 25.1252 20.664C23.7172 22.488 23.0132 24.408 23.0132 26.424V36.504H24.4052C24.7572 36.504 25.0452 36.632 25.2692 36.888C25.4932 37.144 25.6052 37.432 25.6052 37.752C25.6052 38.072 25.4932 38.36 25.2692 38.616C25.0452 38.872 24.7572 39 24.4052 39H18.8372C18.0692 39 17.6852 38.584 17.6852 37.752C17.6852 36.92 18.0692 36.504 18.8372 36.504H20.3252V10.872ZM49.6656 15.384C52.4176 15.384 54.5456 16.28 56.0496 18.072C57.5856 19.864 58.3536 22.152 58.3536 24.936C58.3536 29.352 58.5136 32.344 58.8336 33.912C59.1536 35.448 59.7616 36.536 60.6576 37.176C61.2016 37.432 61.4736 37.784 61.4736 38.232C61.4736 39.064 61.0896 39.48 60.3216 39.48C59.5536 39.48 58.8176 39.128 58.1136 38.424C57.4416 37.688 56.8976 36.792 56.4816 35.736C55.9376 36.792 55.0576 37.688 53.8416 38.424C52.6576 39.128 51.2336 39.48 49.5696 39.48C47.1376 39.48 45.1536 38.728 43.6176 37.224C42.1136 35.688 41.3616 33.752 41.3616 31.416C41.3616 29.048 42.1616 27.032 43.7616 25.368C45.3616 23.704 47.3456 22.872 49.7136 22.872C52.1136 22.872 54.1136 23.656 55.7136 25.224C55.7136 22.984 55.2336 21.112 54.2736 19.608C53.3136 18.072 51.8416 17.304 49.8576 17.304C47.8736 17.304 46.6256 17.848 46.1136 18.936C46.4016 19.608 46.5456 20.168 46.5456 20.616C46.5456 21.064 46.3536 21.544 45.9696 22.056C45.5856 22.568 45.1056 22.824 44.5296 22.824C43.9856 22.824 43.5536 22.584 43.2336 22.104C42.9136 21.624 42.7536 21.064 42.7536 20.424C42.7536 19.08 43.4096 17.912 44.7216 16.92C46.0656 15.896 47.7136 15.384 49.6656 15.384ZM44.0016 31.176C44.0016 32.936 44.5936 34.408 45.7776 35.592C46.9616 36.776 48.3696 37.368 50.0016 37.368C51.6656 37.368 53.0576 36.808 54.1776 35.688C55.2976 34.536 55.8576 33.144 55.8576 31.512V31.08C55.8576 29.352 55.2816 27.928 54.1296 26.808C52.9776 25.688 51.5536 25.128 49.8576 25.128C48.1936 25.128 46.8016 25.704 45.6816 26.856C44.5616 27.976 44.0016 29.416 44.0016 31.176ZM66.3981 42.6V18.456H64.6221C64.3341 18.456 64.0941 18.328 63.9021 18.072C63.7101 17.816 63.6141 17.528 63.6141 17.208C63.6141 16.888 63.7101 16.6 63.9021 16.344C64.0941 16.088 64.3341 15.96 64.6221 15.96H68.1741C68.5581 15.96 68.7981 16.024 68.8941 16.152C68.9901 16.248 69.0381 16.472 69.0381 16.824V19.752C69.7101 18.6 70.6541 17.672 71.8701 16.968C73.0861 16.232 74.3821 15.864 75.7581 15.864C78.4461 15.864 80.5581 16.936 82.0941 19.08C83.6301 21.192 84.3981 23.96 84.3981 27.384C84.3981 30.776 83.6141 33.576 82.0461 35.784C80.5101 37.992 78.3821 39.096 75.6621 39.096C74.2861 39.096 72.9901 38.76 71.7741 38.088C70.5581 37.384 69.6621 36.52 69.0861 35.496V42.6H70.5261C70.8781 42.6 71.1661 42.712 71.3901 42.936C71.6141 43.16 71.7261 43.448 71.7261 43.8C71.7261 44.664 71.3261 45.096 70.5261 45.096H64.9101C64.1421 45.096 63.7581 44.664 63.7581 43.8C63.7581 43.448 63.8701 43.16 64.0941 42.936C64.3181 42.712 64.5901 42.6 64.9101 42.6H66.3981ZM81.7101 26.664C81.7101 24.68 81.2141 22.744 80.2221 20.856C79.2301 18.968 77.6781 18.024 75.5661 18.024C73.4541 18.024 71.8061 18.856 70.6221 20.52C69.4701 22.184 68.8941 24.472 68.8941 27.384C68.8941 30.264 69.4701 32.584 70.6221 34.344C71.8061 36.072 73.4541 36.936 75.5661 36.936C77.1021 36.936 78.3501 36.392 79.3101 35.304C80.2701 34.216 80.9101 33 81.2301 31.656C81.5501 30.312 81.7101 28.648 81.7101 26.664ZM90.2799 42.6V18.456H88.5039C88.2159 18.456 87.9759 18.328 87.7839 18.072C87.5919 17.816 87.4959 17.528 87.4959 17.208C87.4959 16.888 87.5919 16.6 87.7839 16.344C87.9759 16.088 88.2159 15.96 88.5039 15.96H92.0559C92.4399 15.96 92.6799 16.024 92.7759 16.152C92.8719 16.248 92.9199 16.472 92.9199 16.824V19.752C93.5919 18.6 94.5359 17.672 95.7519 16.968C96.9679 16.232 98.2639 15.864 99.6399 15.864C102.328 15.864 104.44 16.936 105.976 19.08C107.512 21.192 108.28 23.96 108.28 27.384C108.28 30.776 107.496 33.576 105.928 35.784C104.392 37.992 102.264 39.096 99.5439 39.096C98.1679 39.096 96.8719 38.76 95.6559 38.088C94.4399 37.384 93.5439 36.52 92.9679 35.496V42.6H94.4079C94.7599 42.6 95.0479 42.712 95.2719 42.936C95.4959 43.16 95.6079 43.448 95.6079 43.8C95.6079 44.664 95.2079 45.096 94.4079 45.096H88.7919C88.0239 45.096 87.6399 44.664 87.6399 43.8C87.6399 43.448 87.7519 43.16 87.9759 42.936C88.1999 42.712 88.4719 42.6 88.7919 42.6H90.2799ZM105.592 26.664C105.592 24.68 105.096 22.744 104.104 20.856C103.112 18.968 101.56 18.024 99.4479 18.024C97.3359 18.024 95.6879 18.856 94.5039 20.52C93.3519 22.184 92.7759 24.472 92.7759 27.384C92.7759 30.264 93.3519 32.584 94.5039 34.344C95.6879 36.072 97.3359 36.936 99.4479 36.936C100.984 36.936 102.232 36.392 103.192 35.304C104.152 34.216 104.792 33 105.112 31.656C105.432 30.312 105.592 28.648 105.592 26.664ZM111.426 18.456C111.17 18.456 110.93 18.328 110.706 18.072C110.514 17.784 110.418 17.496 110.418 17.208C110.418 16.888 110.514 16.6 110.706 16.344C110.93 16.088 111.17 15.96 111.426 15.96H117.138C117.394 15.96 117.618 16.088 117.81 16.344C118.034 16.6 118.146 16.888 118.146 17.208C118.146 17.496 118.034 17.784 117.81 18.072C117.618 18.328 117.394 18.456 117.138 18.456L115.794 18.504L122.226 33.384L128.802 18.456H127.65C127.362 18.456 127.106 18.328 126.882 18.072C126.658 17.784 126.546 17.496 126.546 17.208C126.546 16.888 126.642 16.6 126.834 16.344C127.058 16.088 127.33 15.96 127.65 15.96H132.45C132.77 15.96 133.026 16.088 133.218 16.344C133.442 16.6 133.554 16.888 133.554 17.208C133.554 17.496 133.442 17.784 133.218 18.072C132.994 18.328 132.738 18.456 132.45 18.456H131.298L122.178 38.904C120.834 42.008 119.458 43.896 118.05 44.568C117.346 44.92 116.466 45.096 115.41 45.096C114.354 45.096 113.474 44.76 112.77 44.088C112.098 43.448 111.762 42.824 111.762 42.216C111.762 41 112.29 40.392 113.346 40.392C114.146 40.392 114.77 40.696 115.218 41.304C115.698 41.944 115.97 42.6 116.034 43.272C117.378 43.176 118.674 41.688 119.922 38.808L120.834 36.552L113.106 18.456H111.426Z" fill="#BB2E26"/>
<path d="M11.478 70.752C11.862 70.752 12.054 70.96 12.054 71.376C12.054 71.792 11.862 72 11.478 72H8.91C8.75 72 8.614 71.944 8.502 71.832C8.39 71.704 8.334 71.552 8.334 71.376C8.334 70.96 8.526 70.752 8.91 70.752H9.486V61.68H3.726V70.752H4.302C4.686 70.752 4.878 70.96 4.878 71.376C4.878 71.792 4.686 72 4.302 72H1.734C1.35 72 1.158 71.792 1.158 71.376C1.158 70.96 1.35 70.752 1.734 70.752H2.358V57.96H1.758C1.358 57.96 1.158 57.752 1.158 57.336C1.158 56.904 1.358 56.688 1.758 56.688H4.326C4.71 56.688 4.902 56.904 4.902 57.336C4.902 57.752 4.71 57.96 4.326 57.96H3.726V60.528H9.486V57.96H8.886C8.502 57.96 8.31 57.752 8.31 57.336C8.31 56.904 8.502 56.688 8.886 56.688H11.454C11.854 56.688 12.054 56.904 12.054 57.336C12.054 57.752 11.854 57.96 11.454 57.96H10.854V70.752H11.478ZM12.7584 66.216C12.7584 64.488 13.2464 63.072 14.2224 61.968C15.2144 60.848 16.5424 60.288 18.2064 60.288C19.8864 60.288 21.2144 60.84 22.1904 61.944C23.1824 63.048 23.6784 64.464 23.6784 66.192C23.6784 67.904 23.1904 69.328 22.2144 70.464C21.2384 71.584 19.8944 72.144 18.1824 72.144C16.4864 72.144 15.1584 71.584 14.1984 70.464C13.2384 69.344 12.7584 67.928 12.7584 66.216ZM15.2784 69.624C16.0624 70.552 17.0384 71.016 18.2064 71.016C19.3744 71.016 20.3504 70.56 21.1344 69.648C21.9344 68.72 22.3344 67.576 22.3344 66.216C22.3344 64.856 21.9344 63.72 21.1344 62.808C20.3344 61.88 19.3584 61.416 18.2064 61.416C17.0544 61.416 16.0784 61.872 15.2784 62.784C14.4944 63.696 14.1024 64.832 14.1024 66.192C14.1024 67.552 14.4944 68.696 15.2784 69.624ZM29.1349 66.84H24.9829C24.5989 66.84 24.4069 66.632 24.4069 66.216C24.4069 65.784 24.5989 65.568 24.9829 65.568H29.1349C29.3269 65.568 29.4709 65.632 29.5669 65.76C29.6789 65.872 29.7349 66.016 29.7349 66.192C29.7349 66.624 29.5349 66.84 29.1349 66.84ZM40.8218 70.752C41.2058 70.752 41.3978 70.96 41.3978 71.376C41.3978 71.792 41.2058 72 40.8218 72H38.2538C38.0938 72 37.9578 71.944 37.8458 71.832C37.7338 71.704 37.6778 71.552 37.6778 71.376C37.6778 70.96 37.8698 70.752 38.2538 70.752H38.8298V61.68H33.0698V70.752H33.6458C34.0298 70.752 34.2218 70.96 34.2218 71.376C34.2218 71.792 34.0298 72 33.6458 72H31.0778C30.6938 72 30.5018 71.792 30.5018 71.376C30.5018 70.96 30.6938 70.752 31.0778 70.752H31.7018V57.96H31.1018C30.7018 57.96 30.5018 57.752 30.5018 57.336C30.5018 56.904 30.7018 56.688 31.1018 56.688H33.6698C34.0538 56.688 34.2458 56.904 34.2458 57.336C34.2458 57.752 34.0538 57.96 33.6698 57.96H33.0698V60.528H38.8298V57.96H38.2298C37.8458 57.96 37.6538 57.752 37.6538 57.336C37.6538 56.904 37.8458 56.688 38.2298 56.688H40.7978C41.1978 56.688 41.3978 56.904 41.3978 57.336C41.3978 57.752 41.1978 57.96 40.7978 57.96H40.1978V70.752H40.8218ZM42.1022 66.216C42.1022 64.488 42.5902 63.072 43.5662 61.968C44.5582 60.848 45.8862 60.288 47.5502 60.288C49.2302 60.288 50.5582 60.84 51.5342 61.944C52.5262 63.048 53.0222 64.464 53.0222 66.192C53.0222 67.904 52.5342 69.328 51.5582 70.464C50.5822 71.584 49.2382 72.144 47.5262 72.144C45.8302 72.144 44.5022 71.584 43.5422 70.464C42.5822 69.344 42.1022 67.928 42.1022 66.216ZM44.6222 69.624C45.4062 70.552 46.3822 71.016 47.5502 71.016C48.7182 71.016 49.6942 70.56 50.4782 69.648C51.2782 68.72 51.6782 67.576 51.6782 66.216C51.6782 64.856 51.2782 63.72 50.4782 62.808C49.6782 61.88 48.7022 61.416 47.5502 61.416C46.3982 61.416 45.4222 61.872 44.6222 62.784C43.8382 63.696 43.4462 64.832 43.4462 66.192C43.4462 67.552 43.8382 68.696 44.6222 69.624ZM58.4786 66.84H54.3266C53.9426 66.84 53.7506 66.632 53.7506 66.216C53.7506 65.784 53.9426 65.568 54.3266 65.568H58.4786C58.6706 65.568 58.8146 65.632 58.9106 65.76C59.0226 65.872 59.0786 66.016 59.0786 66.192C59.0786 66.624 58.8786 66.84 58.4786 66.84ZM70.1655 70.752C70.5495 70.752 70.7415 70.96 70.7415 71.376C70.7415 71.792 70.5495 72 70.1655 72H67.5975C67.4375 72 67.3015 71.944 67.1895 71.832C67.0775 71.704 67.0215 71.552 67.0215 71.376C67.0215 70.96 67.2135 70.752 67.5975 70.752H68.1735V61.68H62.4135V70.752H62.9895C63.3735 70.752 63.5655 70.96 63.5655 71.376C63.5655 71.792 63.3735 72 62.9895 72H60.4215C60.0375 72 59.8455 71.792 59.8455 71.376C59.8455 70.96 60.0375 70.752 60.4215 70.752H61.0455V57.96H60.4455C60.0455 57.96 59.8455 57.752 59.8455 57.336C59.8455 56.904 60.0455 56.688 60.4455 56.688H63.0135C63.3975 56.688 63.5895 56.904 63.5895 57.336C63.5895 57.752 63.3975 57.96 63.0135 57.96H62.4135V60.528H68.1735V57.96H67.5735C67.1895 57.96 66.9975 57.752 66.9975 57.336C66.9975 56.904 67.1895 56.688 67.5735 56.688H70.1415C70.5415 56.688 70.7415 56.904 70.7415 57.336C70.7415 57.752 70.5415 57.96 70.1415 57.96H69.5415V70.752H70.1655ZM71.4459 66.216C71.4459 64.488 71.9339 63.072 72.9099 61.968C73.9019 60.848 75.2299 60.288 76.8939 60.288C78.5739 60.288 79.9019 60.84 80.8779 61.944C81.8699 63.048 82.3659 64.464 82.3659 66.192C82.3659 67.904 81.8779 69.328 80.9019 70.464C79.9259 71.584 78.5819 72.144 76.8699 72.144C75.1739 72.144 73.8459 71.584 72.8859 70.464C71.9259 69.344 71.4459 67.928 71.4459 66.216ZM73.9659 69.624C74.7499 70.552 75.7259 71.016 76.8939 71.016C78.0619 71.016 79.0379 70.56 79.8219 69.648C80.6219 68.72 81.0219 67.576 81.0219 66.216C81.0219 64.856 80.6219 63.72 79.8219 62.808C79.0219 61.88 78.0459 61.416 76.8939 61.416C75.7419 61.416 74.7659 61.872 73.9659 62.784C73.1819 63.696 72.7899 64.832 72.7899 66.192C72.7899 67.552 73.1819 68.696 73.9659 69.624ZM88.9744 68.568C88.9744 68.024 89.1184 67.584 89.4064 67.248C89.6944 66.896 89.9824 66.72 90.2704 66.72C90.5744 66.72 90.8064 66.824 90.9664 67.032C91.1424 67.24 91.2304 67.488 91.2304 67.776C91.2304 68.368 91.0144 68.84 90.5824 69.192C90.7584 69.88 91.1184 70.392 91.6624 70.728C92.2224 71.048 92.8384 71.208 93.5104 71.208C94.5024 71.208 95.2864 70.872 95.8624 70.2C96.4544 69.528 96.7504 68.776 96.7504 67.944C96.7504 67.096 96.4304 66.368 95.7904 65.76C95.3104 65.328 94.6944 64.864 93.9424 64.368L92.7184 63.576C91.8384 63.016 91.1664 62.44 90.7024 61.848C90.2384 61.24 90.0064 60.496 90.0064 59.616C90.0064 58.72 90.3424 57.968 91.0144 57.36C91.6864 56.736 92.4784 56.424 93.3904 56.424C94.3184 56.424 95.0944 56.632 95.7184 57.048C96.3424 57.464 96.6544 57.968 96.6544 58.56C96.6544 58.848 96.5664 59.08 96.3904 59.256C96.2304 59.416 95.9904 59.496 95.6704 59.496C95.3504 59.496 95.0384 59.36 94.7344 59.088C94.4464 58.816 94.3024 58.568 94.3024 58.344C94.3024 58.12 94.3264 57.936 94.3744 57.792C94.2304 57.52 93.8944 57.384 93.3664 57.384C92.8384 57.384 92.3664 57.592 91.9504 58.008C91.5504 58.424 91.3504 58.888 91.3504 59.4C91.3504 60.232 92.1024 61.144 93.6064 62.136L94.8304 62.952C95.3584 63.32 95.7504 63.608 96.0064 63.816C96.2784 64.008 96.6144 64.312 97.0144 64.728C97.7824 65.528 98.1664 66.584 98.1664 67.896C98.1664 69.208 97.7104 70.264 96.7984 71.064C95.8864 71.864 94.8064 72.264 93.5584 72.264C92.3104 72.264 91.2304 71.888 90.3184 71.136C89.4224 70.368 88.9744 69.512 88.9744 68.568ZM106.238 64.032C106.174 63.392 105.886 62.776 105.374 62.184C104.862 61.592 104.222 61.296 103.454 61.296C102.702 61.296 102.078 61.576 101.582 62.136C101.086 62.696 100.742 63.328 100.55 64.032H106.238ZM103.718 72.24C102.262 72.24 101.094 71.672 100.214 70.536C99.3341 69.4 98.8941 67.952 98.8941 66.192C98.8941 64.432 99.3101 63 100.142 61.896C100.99 60.792 102.102 60.24 103.478 60.24C104.182 60.24 104.814 60.4 105.374 60.72C105.934 61.024 106.366 61.408 106.67 61.872C107.31 62.816 107.63 63.712 107.63 64.56C107.63 65.008 107.422 65.232 107.006 65.232H100.286C100.254 65.44 100.238 65.736 100.238 66.12C100.238 67.592 100.566 68.8 101.222 69.744C101.894 70.688 102.726 71.16 103.718 71.16C104.15 71.16 104.542 71.048 104.894 70.824C105.246 70.584 105.494 70.36 105.638 70.152C105.782 69.928 105.942 69.632 106.118 69.264C106.31 68.896 106.566 68.712 106.886 68.712C107.366 68.712 107.606 68.928 107.606 69.36C107.606 69.92 107.246 70.544 106.526 71.232C105.822 71.904 104.886 72.24 103.718 72.24ZM112.137 60.192C113.513 60.192 114.577 60.64 115.329 61.536C116.097 62.432 116.481 63.576 116.481 64.968C116.481 67.176 116.561 68.672 116.721 69.456C116.881 70.224 117.185 70.768 117.633 71.088C117.905 71.216 118.041 71.392 118.041 71.616C118.041 72.032 117.849 72.24 117.465 72.24C117.081 72.24 116.713 72.064 116.361 71.712C116.025 71.344 115.753 70.896 115.545 70.368C115.273 70.896 114.833 71.344 114.225 71.712C113.633 72.064 112.921 72.24 112.089 72.24C110.873 72.24 109.881 71.864 109.113 71.112C108.361 70.344 107.985 69.376 107.985 68.208C107.985 67.024 108.385 66.016 109.185 65.184C109.985 64.352 110.977 63.936 112.161 63.936C113.361 63.936 114.361 64.328 115.161 65.112C115.161 63.992 114.921 63.056 114.441 62.304C113.961 61.536 113.225 61.152 112.233 61.152C111.241 61.152 110.617 61.424 110.361 61.968C110.505 62.304 110.577 62.584 110.577 62.808C110.577 63.032 110.481 63.272 110.289 63.528C110.097 63.784 109.857 63.912 109.569 63.912C109.297 63.912 109.081 63.792 108.921 63.552C108.761 63.312 108.681 63.032 108.681 62.712C108.681 62.04 109.009 61.456 109.665 60.96C110.337 60.448 111.161 60.192 112.137 60.192ZM109.305 68.088C109.305 68.968 109.601 69.704 110.193 70.296C110.785 70.888 111.489 71.184 112.305 71.184C113.137 71.184 113.833 70.904 114.393 70.344C114.953 69.768 115.233 69.072 115.233 68.256V68.04C115.233 67.176 114.945 66.464 114.369 65.904C113.793 65.344 113.081 65.064 112.233 65.064C111.401 65.064 110.705 65.352 110.145 65.928C109.585 66.488 109.305 67.208 109.305 68.088ZM120.431 62.376C120.431 62.952 121.007 63.664 122.159 64.512L122.951 65.112C123.399 65.432 123.751 65.712 124.007 65.952C124.279 66.176 124.559 66.552 124.847 67.08C125.151 67.592 125.303 68.136 125.303 68.712C125.303 69.608 125.007 70.424 124.415 71.16C123.839 71.88 123.023 72.24 121.967 72.24C120.911 72.24 120.047 71.992 119.375 71.496C118.719 70.984 118.391 70.336 118.391 69.552C118.391 69.072 118.519 68.664 118.775 68.328C119.031 67.976 119.303 67.8 119.591 67.8C119.879 67.8 120.095 67.896 120.239 68.088C120.399 68.264 120.479 68.496 120.479 68.784C120.479 69.36 120.287 69.792 119.903 70.08C119.935 70.4 120.135 70.672 120.503 70.896C120.887 71.12 121.383 71.232 121.991 71.232C122.615 71.232 123.119 71.008 123.503 70.56C123.887 70.112 124.079 69.64 124.079 69.144C124.079 68.632 123.959 68.192 123.719 67.824C123.479 67.456 123.239 67.176 122.999 66.984C122.759 66.792 122.375 66.504 121.847 66.12L121.415 65.808C120.647 65.264 120.071 64.768 119.687 64.32C119.303 63.856 119.111 63.296 119.111 62.64C119.111 61.968 119.351 61.408 119.831 60.96C120.311 60.512 120.903 60.288 121.607 60.288C122.311 60.288 122.943 60.488 123.503 60.888C124.063 61.288 124.343 61.784 124.343 62.376C124.343 62.648 124.271 62.88 124.127 63.072C123.999 63.248 123.807 63.336 123.551 63.336C123.295 63.336 123.039 63.192 122.783 62.904C122.543 62.6 122.423 62.32 122.423 62.064C122.423 61.792 122.463 61.56 122.543 61.368C122.399 61.256 122.111 61.2 121.679 61.2C121.263 61.2 120.951 61.328 120.743 61.584C120.535 61.824 120.431 62.088 120.431 62.376ZM126.032 66.216C126.032 64.488 126.52 63.072 127.496 61.968C128.488 60.848 129.816 60.288 131.48 60.288C133.16 60.288 134.488 60.84 135.464 61.944C136.456 63.048 136.952 64.464 136.952 66.192C136.952 67.904 136.464 69.328 135.488 70.464C134.512 71.584 133.168 72.144 131.456 72.144C129.76 72.144 128.432 71.584 127.472 70.464C126.512 69.344 126.032 67.928 126.032 66.216ZM128.552 69.624C129.336 70.552 130.312 71.016 131.48 71.016C132.648 71.016 133.624 70.56 134.408 69.648C135.208 68.72 135.608 67.576 135.608 66.216C135.608 64.856 135.208 63.72 134.408 62.808C133.608 61.88 132.632 61.416 131.48 61.416C130.328 61.416 129.352 61.872 128.552 62.784C127.768 63.696 127.376 64.832 127.376 66.192C127.376 67.552 127.768 68.696 128.552 69.624ZM140.285 70.752H140.981C141.157 70.752 141.301 70.816 141.413 70.944C141.525 71.072 141.581 71.216 141.581 71.376C141.581 71.536 141.525 71.68 141.413 71.808C141.301 71.936 141.157 72 140.981 72H138.173C137.997 72 137.853 71.944 137.741 71.832C137.645 71.704 137.597 71.56 137.597 71.4C137.597 71.224 137.645 71.072 137.741 70.944C137.853 70.816 137.997 70.752 138.173 70.752H138.941V61.728H137.957C137.781 61.728 137.645 61.672 137.549 61.56C137.453 61.432 137.405 61.272 137.405 61.08C137.405 60.888 137.461 60.744 137.573 60.648C137.701 60.536 137.829 60.48 137.957 60.48H139.805C139.981 60.48 140.101 60.512 140.165 60.576C140.229 60.64 140.261 60.76 140.261 60.936V62.736C140.693 62.016 141.245 61.432 141.917 60.984C142.589 60.536 143.293 60.312 144.029 60.312C145.245 60.312 146.109 60.68 146.621 61.416C147.133 62.136 147.389 63.032 147.389 64.104V70.752H148.061C148.237 70.752 148.381 70.816 148.493 70.944C148.605 71.072 148.661 71.216 148.661 71.376C148.661 71.536 148.605 71.68 148.493 71.808C148.381 71.936 148.237 72 148.061 72H145.469C145.085 72 144.893 71.792 144.893 71.376C144.893 70.96 145.085 70.752 145.469 70.752H146.045V63.984C146.045 62.288 145.365 61.44 144.005 61.44C143.093 61.44 142.245 61.864 141.461 62.712C140.677 63.56 140.285 64.616 140.285 65.88V70.752Z" fill="#1B1A18"/>
</svg>
