<svg width="564" height="211" viewBox="0 0 564 211" fill="none" xmlns="http://www.w3.org/2000/svg">
<g clip-path="url(#clip0_52_1939)">
<path d="M492.736 116.898C492.736 116.898 473.501 122.57 482.194 143.837C504.53 135.012 492.736 116.898 492.736 116.898Z" fill="#7CAAA3"/>
<path d="M491.014 117.982C491.014 117.982 476.485 104.161 462.415 122.322C481.223 137.254 491.014 117.982 491.014 117.982Z" fill="#7CAAA3"/>
<path d="M489.213 117.034C489.213 117.034 493.918 97.5368 471.155 94.4358C467.627 118.193 489.213 117.034 489.213 117.034Z" fill="#7CAAA3"/>
<path d="M489.137 114.998C489.137 114.998 508.372 109.326 499.679 88.0601C477.343 96.8847 489.137 114.998 489.137 114.998Z" fill="#7CAAA3"/>
<path d="M490.859 113.915C490.859 113.915 505.389 127.736 519.458 109.575C500.65 94.6422 490.859 113.915 490.859 113.915Z" fill="#7CAAA3"/>
<path d="M492.656 114.867C492.656 114.867 487.951 134.365 510.713 137.466C514.241 113.708 492.656 114.867 492.656 114.867Z" fill="#7CAAA3"/>
<path d="M491.46 130.142C491.568 129.157 491.647 128.172 491.671 127.191C491.704 126.211 491.708 125.23 491.647 124.269C491.615 123.785 491.554 123.307 491.469 122.838C491.427 122.603 491.394 122.369 491.371 122.134C491.333 121.904 491.31 121.67 491.291 121.435C491.211 120.492 491.117 119.587 491 118.54L491.122 118.47C491.943 119.174 492.403 120.187 492.68 121.191C492.975 122.209 492.83 123.265 492.773 124.273C492.717 125.291 492.567 126.291 492.37 127.276C492.154 128.256 491.924 129.232 491.596 130.18L491.46 130.147V130.142Z" fill="#F6F4EE"/>
<path d="M488.335 129.443C488.8 128.575 489.236 127.693 489.597 126.793C489.973 125.897 490.292 124.982 490.54 124.067C490.779 123.143 490.812 122.204 490.953 121.327C491.084 120.431 491.117 119.572 491 118.536L491.122 118.465C491.957 119.164 492.328 120.323 492.356 121.383C492.37 121.923 492.295 122.458 492.145 122.96C491.985 123.462 491.802 123.945 491.605 124.419C491.22 125.366 490.751 126.262 490.216 127.112C489.672 127.956 489.1 128.772 488.443 129.523L488.331 129.439L488.335 129.443Z" fill="#F6F4EE"/>
<path d="M485.459 128.195C486.191 127.581 486.871 126.905 487.477 126.183C488.087 125.465 488.631 124.705 489.1 123.912C489.208 123.71 489.316 123.504 489.414 123.302C489.508 123.091 489.583 122.88 489.668 122.669C489.761 122.462 489.827 122.251 489.912 122.045C489.987 121.838 490.109 121.641 490.174 121.43C490.554 120.614 490.803 119.769 491.216 118.817H491.356C491.45 119.056 491.511 119.305 491.572 119.558C491.6 119.685 491.624 119.812 491.647 119.943C491.657 120.07 491.657 120.196 491.661 120.328C491.671 120.586 491.675 120.849 491.647 121.107C491.61 121.36 491.563 121.618 491.511 121.871C491.272 122.889 490.653 123.753 490.043 124.541C489.433 125.338 488.734 126.056 487.979 126.689C487.209 127.309 486.416 127.881 485.544 128.322L485.469 128.205L485.459 128.195Z" fill="#F6F4EE"/>
<path d="M484.465 125.038C485.07 124.564 485.661 124.076 486.205 123.551C486.759 123.03 487.284 122.491 487.782 121.937C488.288 121.379 488.645 120.717 489.184 120.211C489.729 119.704 490.245 119.179 490.972 118.719L491.094 118.789C491.061 119.211 490.981 119.634 490.826 120.009C490.756 120.201 490.672 120.389 490.587 120.572C490.493 120.75 490.385 120.924 490.282 121.093C490.071 121.435 489.79 121.731 489.494 121.998L488.56 122.749C487.946 123.251 487.303 123.706 486.628 124.109C485.947 124.503 485.262 124.874 484.531 125.16L484.465 125.038V125.038Z" fill="#F6F4EE"/>
<path d="M484.634 127.468C485.328 126.854 485.989 126.197 486.628 125.521C487.266 124.85 487.88 124.151 488.457 123.429C489.025 122.697 489.531 121.932 490.057 121.177C490.568 120.412 491.037 119.629 491.488 118.808L491.53 118.822C491.319 119.741 490.92 120.609 490.451 121.426C489.968 122.237 489.358 122.96 488.743 123.668C487.505 125.076 486.14 126.361 484.666 127.501L484.638 127.463L484.634 127.468Z" fill="#F6F4EE"/>
<path d="M478.905 123.499C479.811 123.1 480.707 122.678 481.57 122.209C482.433 121.745 483.287 121.261 484.089 120.727C484.488 120.454 484.878 120.164 485.239 119.854C485.422 119.699 485.61 119.554 485.802 119.418C485.985 119.268 486.172 119.136 486.37 119C487.144 118.461 487.885 117.926 488.729 117.297L488.851 117.367C488.654 118.432 488.002 119.338 487.27 120.079C486.534 120.844 485.549 121.243 484.648 121.702C483.738 122.162 482.799 122.533 481.847 122.852C480.89 123.157 479.933 123.448 478.943 123.631L478.905 123.494V123.499Z" fill="#F6F4EE"/>
<path d="M477.948 120.445C478.934 120.417 479.914 120.351 480.876 120.215C481.842 120.089 482.79 119.915 483.71 119.671C484.629 119.418 485.455 118.977 486.285 118.658C487.13 118.325 487.885 117.921 488.725 117.307L488.847 117.377C488.659 118.447 487.843 119.347 486.937 119.906C486.477 120.187 485.98 120.389 485.469 120.511C484.953 120.623 484.446 120.708 483.935 120.773C482.921 120.914 481.908 120.956 480.909 120.919C479.905 120.867 478.915 120.783 477.934 120.586L477.948 120.445V120.445Z" fill="#F6F4EE"/>
<path d="M477.592 117.33C478.493 117.654 479.412 117.907 480.346 118.071C481.275 118.24 482.204 118.334 483.123 118.339C483.353 118.329 483.583 118.32 483.808 118.306C484.033 118.282 484.258 118.24 484.484 118.207C484.709 118.188 484.925 118.137 485.145 118.104C485.361 118.067 485.591 118.071 485.807 118.024C486.707 117.945 487.561 117.738 488.593 117.621L488.664 117.743C488.504 117.945 488.316 118.123 488.129 118.301C488.03 118.386 487.936 118.475 487.833 118.554C487.73 118.629 487.617 118.69 487.51 118.761C487.289 118.897 487.064 119.033 486.829 119.136C486.59 119.23 486.346 119.319 486.097 119.399C485.098 119.699 484.043 119.596 483.048 119.46C482.049 119.329 481.082 119.085 480.158 118.747C479.239 118.39 478.347 117.987 477.526 117.452L477.592 117.33V117.33Z" fill="#F6F4EE"/>
<path d="M479.83 114.89C480.543 115.181 481.261 115.444 481.988 115.655C482.715 115.876 483.447 116.059 484.179 116.213C484.911 116.373 485.666 116.349 486.374 116.565C487.087 116.786 487.796 116.969 488.56 117.367V117.508C488.176 117.691 487.772 117.832 487.373 117.884C487.172 117.921 486.97 117.94 486.764 117.959C486.562 117.963 486.36 117.959 486.158 117.959C485.755 117.945 485.361 117.851 484.981 117.729L483.864 117.297C483.123 117.016 482.405 116.687 481.72 116.307C481.04 115.913 480.374 115.505 479.759 115.017L479.834 114.895L479.83 114.89Z" fill="#F6F4EE"/>
<path d="M477.808 116.251C478.69 116.546 479.586 116.79 480.491 117.002C481.392 117.217 482.302 117.4 483.217 117.536C484.132 117.663 485.051 117.719 485.966 117.794C486.886 117.855 487.796 117.869 488.734 117.846L488.743 117.893C487.843 118.17 486.89 118.259 485.947 118.264C485.004 118.249 484.071 118.085 483.151 117.907C481.312 117.536 479.52 116.997 477.794 116.293L477.812 116.251H477.808Z" fill="#F6F4EE"/>
<path d="M478.38 109.308C479.178 109.894 479.994 110.457 480.829 110.968C481.664 111.484 482.508 111.982 483.372 112.413C483.808 112.624 484.249 112.812 484.699 112.976C484.925 113.056 485.145 113.145 485.356 113.244C485.577 113.328 485.788 113.427 485.999 113.525C486.853 113.929 487.688 114.299 488.654 114.717V114.858C487.631 115.219 486.524 115.106 485.516 114.843C484.484 114.59 483.648 113.938 482.799 113.384C481.95 112.826 481.157 112.198 480.402 111.531C479.656 110.856 478.929 110.171 478.277 109.411L478.375 109.308H478.38Z" fill="#F6F4EE"/>
<path d="M480.547 106.953C481.063 107.788 481.612 108.604 482.213 109.373C482.804 110.147 483.433 110.879 484.104 111.555C484.784 112.226 485.581 112.718 486.271 113.281C486.979 113.844 487.707 114.299 488.664 114.717V114.858C487.641 115.228 486.449 114.975 485.516 114.468C485.042 114.21 484.615 113.882 484.258 113.497C483.906 113.108 483.573 112.709 483.264 112.301C482.635 111.494 482.091 110.64 481.626 109.753C481.171 108.862 480.744 107.956 480.425 107.014L480.552 106.957L480.547 106.953Z" fill="#F6F4EE"/>
<path d="M483.067 105.085C483.236 106.028 483.475 106.953 483.803 107.839C484.118 108.726 484.507 109.58 484.957 110.377C485.079 110.57 485.201 110.767 485.328 110.954C485.464 111.137 485.61 111.311 485.75 111.489C485.882 111.672 486.032 111.836 486.172 112.01C486.313 112.179 486.421 112.381 486.571 112.545C487.087 113.286 487.692 113.919 488.312 114.754L488.241 114.876C487.988 114.839 487.739 114.768 487.491 114.693C487.369 114.651 487.242 114.614 487.12 114.567C487.003 114.51 486.895 114.449 486.778 114.388C486.552 114.266 486.318 114.14 486.112 113.985C485.91 113.825 485.713 113.657 485.516 113.483C484.756 112.77 484.315 111.799 483.939 110.875C483.555 109.946 483.283 108.984 483.114 108.013C482.964 107.037 482.865 106.066 482.921 105.085H483.062H483.067Z" fill="#F6F4EE"/>
<path d="M486.299 105.803C486.407 106.563 486.534 107.318 486.717 108.055C486.89 108.796 487.097 109.519 487.327 110.232C487.556 110.945 487.955 111.588 488.119 112.305C488.288 113.033 488.481 113.736 488.518 114.6L488.396 114.67C488.044 114.431 487.721 114.149 487.477 113.83C487.345 113.675 487.223 113.506 487.111 113.342C487.003 113.169 486.909 112.995 486.811 112.817C486.618 112.46 486.506 112.076 486.421 111.681L486.238 110.495C486.111 109.711 486.036 108.928 486.022 108.139C486.022 107.351 486.041 106.573 486.163 105.798H486.304L486.299 105.803Z" fill="#F6F4EE"/>
<path d="M484.113 104.733C484.296 105.644 484.535 106.544 484.803 107.431C485.065 108.322 485.361 109.2 485.699 110.058C486.046 110.917 486.459 111.738 486.853 112.568C487.261 113.394 487.702 114.191 488.19 114.994L488.152 115.022C487.463 114.379 486.909 113.6 486.435 112.784C485.975 111.958 485.652 111.072 485.347 110.185C484.751 108.407 484.319 106.582 484.066 104.733L484.113 104.724V104.733Z" fill="#F6F4EE"/>
<path d="M490.409 101.754C490.301 102.74 490.221 103.725 490.198 104.705C490.165 105.686 490.16 106.666 490.221 107.628C490.254 108.111 490.315 108.59 490.399 109.059C490.442 109.294 490.475 109.528 490.498 109.763C490.536 109.993 490.559 110.227 490.578 110.462C490.657 111.405 490.751 112.31 490.869 113.356L490.747 113.427C489.926 112.723 489.466 111.71 489.189 110.706C488.893 109.688 489.039 108.632 489.095 107.623C489.152 106.605 489.302 105.606 489.499 104.621C489.715 103.64 489.944 102.665 490.273 101.717L490.409 101.75V101.754Z" fill="#F6F4EE"/>
<path d="M493.533 102.458C493.069 103.326 492.633 104.208 492.271 105.109C491.896 106.005 491.577 106.92 491.328 107.834C491.089 108.759 491.056 109.697 490.916 110.574C490.784 111.47 490.751 112.329 490.869 113.366L490.747 113.436C489.912 112.737 489.541 111.578 489.513 110.518C489.499 109.978 489.574 109.444 489.724 108.942C489.883 108.44 490.066 107.956 490.263 107.483C490.648 106.535 491.117 105.639 491.652 104.79C492.196 103.945 492.769 103.129 493.425 102.378L493.538 102.463L493.533 102.458Z" fill="#F6F4EE"/>
<path d="M496.414 103.701C495.682 104.316 495.002 104.991 494.397 105.714C493.787 106.432 493.242 107.192 492.773 107.985C492.665 108.186 492.557 108.393 492.459 108.595C492.365 108.806 492.29 109.017 492.206 109.228C492.112 109.434 492.046 109.645 491.962 109.852C491.887 110.058 491.765 110.255 491.699 110.466C491.319 111.283 491.07 112.127 490.657 113.08H490.517C490.423 112.84 490.362 112.592 490.301 112.338C490.273 112.212 490.249 112.085 490.226 111.954C490.216 111.827 490.217 111.7 490.212 111.569C490.202 111.311 490.198 111.048 490.226 110.79C490.263 110.537 490.31 110.279 490.362 110.025C490.601 109.007 491.22 108.144 491.83 107.356C492.44 106.558 493.139 105.841 493.895 105.207C494.664 104.588 495.457 104.016 496.329 103.575L496.404 103.692L496.414 103.701Z" fill="#F6F4EE"/>
<path d="M497.404 106.863C496.799 107.337 496.207 107.825 495.663 108.351C495.11 108.871 494.584 109.411 494.087 109.964C493.58 110.523 493.224 111.184 492.684 111.691C492.14 112.198 491.624 112.723 490.897 113.183L490.775 113.112C490.808 112.69 490.887 112.268 491.042 111.893C491.113 111.7 491.197 111.513 491.281 111.33C491.375 111.151 491.483 110.978 491.586 110.809C491.798 110.466 492.079 110.171 492.375 109.903L493.308 109.153C493.923 108.651 494.565 108.196 495.241 107.792C495.921 107.398 496.606 107.028 497.338 106.741L497.404 106.863V106.863Z" fill="#F6F4EE"/>
<path d="M497.24 104.433C496.545 105.048 495.884 105.705 495.246 106.38C494.608 107.051 493.993 107.75 493.416 108.473C492.848 109.204 492.342 109.969 491.816 110.724C491.305 111.489 490.836 112.273 490.385 113.094L490.343 113.08C490.554 112.16 490.953 111.292 491.422 110.476C491.905 109.664 492.515 108.942 493.13 108.233C494.368 106.826 495.734 105.54 497.207 104.4L497.235 104.438L497.24 104.433Z" fill="#F6F4EE"/>
<path d="M502.968 108.397C502.062 108.796 501.166 109.218 500.303 109.688C499.44 110.152 498.586 110.635 497.784 111.17C497.385 111.442 496.996 111.733 496.634 112.043C496.451 112.198 496.264 112.343 496.071 112.479C495.888 112.629 495.701 112.761 495.504 112.897C494.73 113.436 493.988 113.971 493.144 114.6L493.022 114.529C493.219 113.464 493.871 112.559 494.603 111.818C495.34 111.053 496.325 110.654 497.225 110.194C498.136 109.735 499.074 109.364 500.026 109.045C500.983 108.74 501.94 108.449 502.93 108.266L502.968 108.402V108.397Z" fill="#F6F4EE"/>
<path d="M503.92 111.456C502.935 111.484 501.954 111.55 500.993 111.686C500.026 111.813 499.079 111.986 498.159 112.23C497.24 112.484 496.414 112.925 495.583 113.244C494.739 113.577 493.984 113.98 493.144 114.595L493.022 114.524C493.21 113.455 494.026 112.554 494.931 111.996C495.391 111.714 495.888 111.513 496.4 111.391C496.916 111.278 497.422 111.194 497.934 111.128C498.947 110.987 499.961 110.945 500.96 110.982C501.964 111.034 502.954 111.119 503.934 111.316L503.92 111.456V111.456Z" fill="#F6F4EE"/>
<path d="M504.277 114.571C503.376 114.248 502.456 113.994 501.523 113.83C500.594 113.661 499.665 113.567 498.745 113.563C498.516 113.572 498.286 113.582 498.061 113.596C497.835 113.619 497.61 113.661 497.385 113.694C497.16 113.713 496.944 113.764 496.723 113.797C496.508 113.835 496.278 113.83 496.062 113.877C495.161 113.957 494.307 114.163 493.275 114.281L493.205 114.159C493.364 113.957 493.552 113.779 493.74 113.6C493.838 113.516 493.932 113.427 494.035 113.347C494.138 113.272 494.251 113.211 494.359 113.141C494.579 113.004 494.805 112.868 495.039 112.765C495.278 112.671 495.522 112.582 495.771 112.502C496.77 112.202 497.826 112.305 498.821 112.441C499.82 112.573 500.786 112.817 501.71 113.155C502.63 113.511 503.521 113.915 504.342 114.449L504.277 114.571V114.571Z" fill="#F6F4EE"/>
<path d="M502.039 117.006C501.326 116.715 500.608 116.453 499.881 116.242C499.154 116.021 498.422 115.838 497.69 115.683C496.958 115.524 496.203 115.547 495.494 115.331C494.781 115.111 494.073 114.928 493.308 114.529V114.388C493.693 114.205 494.096 114.065 494.495 114.013C494.697 113.976 494.898 113.957 495.105 113.938C495.307 113.933 495.508 113.938 495.71 113.938C496.114 113.952 496.508 114.046 496.888 114.168L498.004 114.6C498.745 114.881 499.463 115.209 500.148 115.589C500.828 115.984 501.495 116.392 502.109 116.88L502.034 117.002L502.039 117.006Z" fill="#F6F4EE"/>
<path d="M504.061 115.65C503.179 115.355 502.283 115.111 501.377 114.9C500.477 114.684 499.566 114.501 498.652 114.365C497.737 114.238 496.817 114.182 495.902 114.107C494.983 114.046 494.073 114.032 493.135 114.055L493.125 114.008C494.026 113.732 494.978 113.642 495.921 113.638C496.864 113.652 497.798 113.816 498.717 113.994C500.556 114.365 502.348 114.904 504.075 115.608L504.056 115.65H504.061Z" fill="#F6F4EE"/>
<path d="M503.488 122.594C502.691 122.007 501.875 121.444 501.04 120.933C500.204 120.417 499.36 119.92 498.497 119.488C498.06 119.277 497.619 119.089 497.169 118.925C496.944 118.845 496.723 118.756 496.512 118.658C496.292 118.573 496.081 118.475 495.87 118.376C495.016 117.973 494.181 117.602 493.214 117.185V117.044C494.237 116.683 495.344 116.795 496.353 117.058C497.385 117.311 498.22 117.963 499.069 118.517C499.918 119.075 500.711 119.704 501.466 120.37C502.212 121.046 502.94 121.731 503.592 122.491L503.493 122.594H503.488Z" fill="#F6F4EE"/>
<path d="M501.321 124.949C500.805 124.114 500.256 123.297 499.656 122.528C499.065 121.754 498.436 121.022 497.765 120.347C497.085 119.676 496.287 119.183 495.598 118.62C494.889 118.057 494.162 117.602 493.205 117.185V117.044C494.228 116.673 495.419 116.927 496.353 117.433C496.827 117.691 497.254 118.02 497.61 118.404C497.962 118.794 498.295 119.192 498.605 119.601C499.233 120.408 499.778 121.261 500.242 122.148C500.697 123.039 501.124 123.945 501.443 124.888L501.316 124.944L501.321 124.949Z" fill="#F6F4EE"/>
<path d="M498.802 126.816C498.633 125.873 498.394 124.949 498.065 124.062C497.751 123.175 497.361 122.322 496.911 121.524C496.789 121.332 496.667 121.135 496.541 120.947C496.404 120.764 496.259 120.59 496.118 120.412C495.987 120.229 495.837 120.065 495.696 119.891C495.555 119.723 495.447 119.521 495.297 119.357C494.781 118.615 494.176 117.982 493.557 117.147L493.627 117.025C493.88 117.063 494.129 117.133 494.378 117.208C494.5 117.25 494.626 117.288 494.748 117.335C494.866 117.391 494.974 117.452 495.091 117.513C495.316 117.635 495.551 117.762 495.757 117.916C495.959 118.076 496.156 118.245 496.353 118.418C497.113 119.131 497.554 120.103 497.929 121.027C498.314 121.956 498.586 122.917 498.755 123.889C498.905 124.864 499.004 125.836 498.947 126.816H498.806H498.802Z" fill="#F6F4EE"/>
<path d="M495.569 126.094C495.461 125.334 495.335 124.578 495.152 123.842C494.978 123.1 494.772 122.378 494.542 121.665C494.312 120.952 493.913 120.309 493.749 119.591C493.58 118.864 493.388 118.16 493.35 117.297L493.472 117.227C493.824 117.466 494.148 117.747 494.392 118.067C494.523 118.221 494.645 118.39 494.758 118.554C494.866 118.728 494.96 118.902 495.058 119.08C495.25 119.436 495.363 119.821 495.447 120.215L495.63 121.402C495.757 122.186 495.832 122.969 495.846 123.757C495.846 124.545 495.827 125.324 495.705 126.098H495.565L495.569 126.094Z" fill="#F6F4EE"/>
<path d="M497.76 127.168C497.577 126.258 497.338 125.357 497.071 124.47C496.808 123.579 496.512 122.702 496.175 121.843C495.827 120.985 495.415 120.164 495.021 119.333C494.612 118.508 494.171 117.71 493.683 116.908L493.721 116.88C494.411 117.522 494.964 118.301 495.438 119.117C495.898 119.943 496.222 120.83 496.526 121.716C497.122 123.494 497.554 125.319 497.807 127.168L497.76 127.177V127.168Z" fill="#F6F4EE"/>
<path d="M490.934 121.899C494.22 121.899 496.883 119.236 496.883 115.951C496.883 112.665 494.22 110.002 490.934 110.002C487.649 110.002 484.986 112.665 484.986 115.951C484.986 119.236 487.649 121.899 490.934 121.899Z" fill="#50716D"/>
<path d="M490.081 113.99C490.34 113.99 490.55 113.78 490.55 113.521C490.55 113.262 490.34 113.051 490.081 113.051C489.822 113.051 489.611 113.262 489.611 113.521C489.611 113.78 489.822 113.99 490.081 113.99Z" fill="#F6F4EE"/>
<path d="M488.204 118.682C488.464 118.682 488.674 118.472 488.674 118.212C488.674 117.953 488.464 117.743 488.204 117.743C487.945 117.743 487.735 117.953 487.735 118.212C487.735 118.472 487.945 118.682 488.204 118.682Z" fill="#F6F4EE"/>
<path d="M488.204 115.632C488.334 115.632 488.439 115.527 488.439 115.397C488.439 115.268 488.334 115.163 488.204 115.163C488.074 115.163 487.969 115.268 487.969 115.397C487.969 115.527 488.074 115.632 488.204 115.632Z" fill="#F6F4EE"/>
<path d="M490.784 117.274C490.914 117.274 491.019 117.169 491.019 117.039C491.019 116.91 490.914 116.805 490.784 116.805C490.655 116.805 490.55 116.91 490.55 117.039C490.55 117.169 490.655 117.274 490.784 117.274Z" fill="#F6F4EE"/>
<path d="M492.661 117.743C492.791 117.743 492.896 117.638 492.896 117.508C492.896 117.379 492.791 117.274 492.661 117.274C492.531 117.274 492.426 117.379 492.426 117.508C492.426 117.638 492.531 117.743 492.661 117.743Z" fill="#F6F4EE"/>
<path d="M491.723 120.089C491.852 120.089 491.957 119.984 491.957 119.854C491.957 119.724 491.852 119.619 491.723 119.619C491.593 119.619 491.488 119.724 491.488 119.854C491.488 119.984 491.593 120.089 491.723 120.089Z" fill="#F6F4EE"/>
<path d="M491.253 115.28C491.318 115.28 491.371 115.227 491.371 115.163C491.371 115.098 491.318 115.045 491.253 115.045C491.189 115.045 491.136 115.098 491.136 115.163C491.136 115.227 491.189 115.28 491.253 115.28Z" fill="#F6F4EE"/>
<path d="M489.846 119.502C489.911 119.502 489.963 119.45 489.963 119.385C489.963 119.32 489.911 119.268 489.846 119.268C489.781 119.268 489.729 119.32 489.729 119.385C489.729 119.45 489.781 119.502 489.846 119.502Z" fill="#F6F4EE"/>
<path d="M487.031 116.687C487.096 116.687 487.149 116.635 487.149 116.57C487.149 116.505 487.096 116.453 487.031 116.453C486.966 116.453 486.914 116.505 486.914 116.57C486.914 116.635 486.966 116.687 487.031 116.687Z" fill="#F6F4EE"/>
<path d="M487.969 112.934C488.034 112.934 488.087 112.882 488.087 112.817C488.087 112.752 488.034 112.7 487.969 112.7C487.905 112.7 487.852 112.752 487.852 112.817C487.852 112.882 487.905 112.934 487.969 112.934Z" fill="#F6F4EE"/>
<path d="M186.334 66.2309C186.334 66.2309 157.589 74.7083 170.585 106.479C203.959 93.2958 186.334 66.2309 186.334 66.2309Z" fill="#BB2E26"/>
<path d="M184.542 67.7181C184.542 67.7181 158.223 53.3905 144.946 85.0435C177.87 99.3196 184.542 67.7181 184.542 67.7181V67.7181Z" fill="#BB2E26"/>
<path d="M182.229 67.5023C182.229 67.5023 173.751 38.7579 141.981 51.7531C155.164 85.128 182.229 67.5023 182.229 67.5023Z" fill="#BB2E26"/>
<path d="M180.742 65.7101C180.742 65.7101 195.069 39.3912 163.416 26.1145C149.14 59.0389 180.742 65.7101 180.742 65.7101Z" fill="#BB2E26"/>
<path d="M180.957 63.3926C180.957 63.3926 209.702 54.9152 196.707 23.1448C163.332 36.3277 180.957 63.3926 180.957 63.3926Z" fill="#BB2E26"/>
<path d="M182.75 61.9101C182.75 61.9101 209.068 76.2377 222.345 44.5846C189.421 30.3086 182.75 61.9101 182.75 61.9101V61.9101Z" fill="#BB2E26"/>
<path d="M185.067 62.1259C185.067 62.1259 193.545 90.8703 225.315 77.875C212.132 44.5002 185.067 62.1259 185.067 62.1259V62.1259Z" fill="#BB2E26"/>
<path d="M186.55 63.9133C186.55 63.9133 172.222 90.2322 203.875 103.509C218.151 70.5845 186.55 63.9133 186.55 63.9133V63.9133Z" fill="#BB2E26"/>
<path d="M184.462 86.0287C184.879 83.1247 185.109 80.1644 184.992 77.2417C184.748 74.3236 184.438 71.5604 183.777 68.6611L183.899 68.5907C186.01 70.9129 186.371 74.2532 186.118 77.2464C185.958 80.2395 185.452 83.1951 184.598 86.0616L184.462 86.0287Z" fill="#DCCDAA"/>
<path d="M179.789 84.9966C182.613 80.0988 184.94 74.394 183.777 68.6657L183.899 68.5954C187.164 72.3861 184.49 77.7014 182.426 81.417C181.656 82.6884 180.84 83.927 179.902 85.0764L179.789 84.9919V84.9966Z" fill="#DCCDAA"/>
<path d="M175.483 83.1435C177.969 81.1778 180.16 78.757 181.633 75.9562C182.06 75.0226 182.459 74.0656 182.825 73.1132C183.364 71.8465 183.664 70.5235 184.087 69.0974H184.227C185.025 72.0436 183.927 75.1915 182.065 77.4903C180.301 79.836 178.096 81.8205 175.553 83.2608L175.478 83.1435H175.483Z" fill="#DCCDAA"/>
<path d="M173.995 78.4192C176.815 76.4957 179.175 74.014 181.305 71.3915C182.093 70.5939 182.811 69.7495 183.739 68.9613L183.861 69.0317C183.378 71.3962 181.783 73.329 179.911 74.7646C178.143 76.2846 176.182 77.5748 174.066 78.5412L174 78.4192H173.995Z" fill="#DCCDAA"/>
<path d="M174.235 82.0316C178.391 78.377 182.008 74.0609 184.471 69.0833L184.514 69.0974C183.758 71.809 182.13 74.1922 180.291 76.2846C178.457 78.3348 176.407 80.4835 174.23 82.0269L174.235 82.0316Z" fill="#DCCDAA"/>
<path d="M169.219 80.3943C171.57 78.635 173.822 76.7068 175.806 74.5535C177.702 72.3157 179.433 70.1435 181.014 67.6289L181.15 67.6665C181 70.805 178.893 73.4182 176.599 75.3557C174.371 77.359 171.917 79.0901 169.29 80.5163L169.215 80.3943H169.219Z" fill="#DCCDAA"/>
<path d="M166.649 76.3597C172.109 74.8913 177.791 72.508 181.018 67.6289L181.154 67.6665C180.779 72.6535 175.135 74.5206 171.044 75.6935C169.599 76.0501 168.145 76.3456 166.672 76.4957L166.649 76.355V76.3597Z" fill="#DCCDAA"/>
<path d="M164.913 72.0014C168.061 72.3673 171.321 72.2078 174.343 71.2695C175.304 70.9129 176.261 70.5142 177.195 70.1013C178.476 69.5853 179.616 68.8628 180.925 68.1544L181.028 68.2529C179.508 70.9035 176.505 72.3532 173.559 72.6628C170.655 73.0757 167.69 72.9162 164.875 72.1374L164.908 72.0014H164.913Z" fill="#DCCDAA"/>
<path d="M167.202 67.6149C170.557 68.2529 173.981 68.1638 177.34 67.8119C178.466 67.8072 179.569 67.7134 180.779 67.8119L180.817 67.948C178.804 69.2803 176.308 69.5196 173.967 69.2099C171.64 69.0317 169.341 68.5578 167.165 67.7462L167.207 67.6102L167.202 67.6149Z" fill="#DCCDAA"/>
<path d="M164.814 70.3359C170.336 70.6924 175.947 70.1998 181.206 68.4171L181.225 68.4593C178.776 69.8433 175.938 70.3734 173.156 70.5564C170.406 70.7112 167.437 70.7769 164.81 70.3312L164.814 70.3359Z" fill="#DCCDAA"/>
<path d="M162.426 65.6304C165.33 66.0479 168.291 66.2778 171.213 66.1605C174.131 65.9166 176.895 65.6069 179.794 64.9454L179.864 65.0674C177.542 67.1786 174.202 67.5398 171.209 67.2865C168.215 67.127 165.26 66.6203 162.393 65.7664L162.426 65.6304V65.6304Z" fill="#DCCDAA"/>
<path d="M163.463 60.9577C168.361 63.782 174.066 66.1089 179.794 64.9454L179.864 65.0674C176.074 68.3327 170.758 65.6585 167.043 63.5943C165.771 62.8249 164.533 62.0086 163.383 61.0703L163.468 60.9577H163.463Z" fill="#DCCDAA"/>
<path d="M165.316 56.6463C167.282 59.1328 169.703 61.3237 172.503 62.7968C173.437 63.2237 174.394 63.6225 175.346 63.9884C176.613 64.5279 177.936 64.8282 179.362 65.2504V65.3911C176.416 66.1887 173.268 65.0909 170.969 63.2284C168.624 61.4644 166.639 59.2594 165.199 56.7167L165.316 56.6416V56.6463Z" fill="#DCCDAA"/>
<path d="M170.036 55.1638C171.959 57.9834 174.441 60.3432 177.064 62.4731C177.861 63.2612 178.706 63.979 179.494 64.9079L179.423 65.0299C177.059 64.5467 175.126 62.9516 173.69 61.0797C172.17 59.311 170.88 57.35 169.914 55.2342L170.036 55.1685V55.1638Z" fill="#DCCDAA"/>
<path d="M166.428 55.4031C170.083 59.5597 174.399 63.1768 179.376 65.6398L179.362 65.682C176.651 64.9267 174.267 63.2988 172.175 61.4597C170.125 59.6254 167.976 57.5752 166.433 55.3984L166.428 55.4031Z" fill="#DCCDAA"/>
<path d="M168.065 50.3879C169.825 52.7383 171.753 54.9902 173.906 56.9747C176.144 58.87 178.316 60.6012 180.831 62.1822L180.793 62.3182C177.655 62.1681 175.042 60.0617 173.104 57.7676C171.101 55.5391 169.37 53.0855 167.943 50.4583L168.065 50.3832V50.3879Z" fill="#DCCDAA"/>
<path d="M172.1 47.817C173.568 53.2779 175.952 58.9592 180.831 62.1869L180.793 62.3229C175.806 61.9476 173.939 56.3038 172.766 52.2129C172.41 50.7679 172.114 49.3136 171.964 47.8405L172.105 47.817H172.1Z" fill="#DCCDAA"/>
<path d="M176.458 46.0812C176.092 49.2292 176.252 52.4897 177.19 55.511C177.547 56.4727 177.946 57.4298 178.358 58.3634C178.874 59.6441 179.597 60.7841 180.305 62.0931L180.207 62.1963C177.556 60.6762 176.106 57.6737 175.797 54.7275C175.384 51.8235 175.544 48.8585 176.322 46.0437L176.458 46.0765V46.0812Z" fill="#DCCDAA"/>
<path d="M180.845 48.3659C180.207 51.7203 180.296 55.145 180.648 58.5041C180.652 59.63 180.746 60.7325 180.648 61.9429L180.512 61.9805C179.179 59.9678 178.94 57.472 179.25 55.131C179.428 52.804 179.902 50.5052 180.713 48.3284L180.85 48.3706L180.845 48.3659Z" fill="#DCCDAA"/>
<path d="M178.124 45.9827C177.767 51.5045 178.26 57.1154 180.043 62.3745L180 62.3933C178.616 59.9444 178.086 57.1061 177.903 54.324C177.748 51.5749 177.683 48.6052 178.128 45.978L178.124 45.9827Z" fill="#DCCDAA"/>
<path d="M182.829 43.5947C182.412 46.4987 182.182 49.459 182.299 52.3818C182.543 55.2999 182.853 58.0631 183.514 60.9624L183.392 61.0328C181.281 58.7105 180.92 55.3702 181.173 52.3771C181.333 49.384 181.839 46.4284 182.693 43.5619L182.829 43.5947Z" fill="#DCCDAA"/>
<path d="M187.502 44.6315C184.678 49.5294 182.351 55.2342 183.514 60.9624L183.392 61.0328C180.127 57.2421 182.801 51.9267 184.865 48.2111C185.635 46.9397 186.451 45.7012 187.389 44.5518L187.502 44.6362V44.6315Z" fill="#DCCDAA"/>
<path d="M191.813 46.4847C189.327 48.4504 187.136 50.8711 185.663 53.6719C185.236 54.6055 184.837 55.5626 184.471 56.5149C183.932 57.7816 183.632 59.1046 183.209 60.5308H183.069C182.271 57.5846 183.369 54.4366 185.231 52.1378C186.995 49.7921 189.2 47.8076 191.743 46.3674L191.818 46.4847H191.813Z" fill="#DCCDAA"/>
<path d="M193.296 51.2042C190.476 53.1277 188.117 55.6095 185.987 58.232C185.198 59.0295 184.481 59.874 183.552 60.6622L183.43 60.5918C183.913 58.2273 185.508 56.2944 187.38 54.8589C189.149 53.3388 191.11 52.0487 193.226 51.0823L193.291 51.2042H193.296Z" fill="#DCCDAA"/>
<path d="M193.057 47.5918C188.9 51.2465 185.283 55.5626 182.82 60.5402L182.778 60.5261C183.533 57.8145 185.161 55.4312 187 53.3388C188.834 51.2887 190.884 49.14 193.061 47.5965L193.057 47.5918Z" fill="#DCCDAA"/>
<path d="M198.072 49.2338C195.721 50.9931 193.47 52.9213 191.485 55.0747C189.59 57.3125 187.859 59.4846 186.278 61.9992L186.142 61.9617C186.292 58.8231 188.398 56.21 190.692 54.2724C192.921 52.2692 195.374 50.5381 198.001 49.1119L198.077 49.2338H198.072Z" fill="#DCCDAA"/>
<path d="M200.643 53.2685C195.182 54.7369 189.501 57.1201 186.273 61.9992L186.137 61.9617C186.512 56.9747 192.156 55.1075 196.247 53.9347C197.692 53.5781 199.146 53.2825 200.619 53.1324L200.643 53.2732V53.2685Z" fill="#DCCDAA"/>
<path d="M202.378 57.6268C199.231 57.2609 195.97 57.4204 192.949 58.3587C191.987 58.7152 191.03 59.114 190.096 59.5269C188.816 60.0429 187.676 60.7654 186.367 61.4738L186.263 61.3753C187.783 58.7246 190.786 57.275 193.732 56.9653C196.636 56.5525 199.601 56.712 202.416 57.4908L202.383 57.6268H202.378Z" fill="#DCCDAA"/>
<path d="M200.094 62.0133C196.739 61.3753 193.315 61.4644 189.956 61.8163C188.83 61.821 187.727 61.9148 186.517 61.8163L186.479 61.6802C188.492 60.3478 190.988 60.1086 193.329 60.4182C195.656 60.5965 197.954 61.0703 200.131 61.8819L200.089 62.018L200.094 62.0133Z" fill="#DCCDAA"/>
<path d="M202.477 59.2923C196.955 58.9357 191.344 59.4283 186.085 61.2111L186.066 61.1688C188.515 59.7849 191.354 59.2547 194.136 59.0718C196.885 58.917 199.854 58.8513 202.482 59.297L202.477 59.2923Z" fill="#DCCDAA"/>
<path d="M204.865 63.9978C201.961 63.5802 199.001 63.3504 196.078 63.4676C193.16 63.7116 190.397 64.0212 187.497 64.6827L187.427 64.5607C189.749 62.4496 193.089 62.0884 196.083 62.3417C199.076 62.5012 202.031 63.0079 204.898 63.8617L204.865 63.9978V63.9978Z" fill="#DCCDAA"/>
<path d="M203.828 68.6704C198.93 65.8462 193.225 63.5192 187.497 64.6827L187.427 64.5607C191.218 61.2955 196.533 63.9696 200.249 66.0338C201.52 66.8032 202.758 67.6196 203.908 68.5578L203.823 68.6704H203.828Z" fill="#DCCDAA"/>
<path d="M201.975 72.9772C200.009 70.4907 197.589 68.2998 194.788 66.8267C193.854 66.3998 192.897 66.001 191.945 65.6351C190.678 65.0956 189.355 64.7953 187.929 64.3731V64.2323C190.875 63.4348 194.023 64.5326 196.322 66.3951C198.668 68.1591 200.652 70.364 202.092 72.9068L201.975 72.9819V72.9772Z" fill="#DCCDAA"/>
<path d="M197.255 74.4597C195.332 71.6401 192.85 69.2803 190.228 67.1504C189.43 66.3622 188.586 65.6445 187.798 64.7156L187.868 64.5936C190.232 65.0768 192.165 66.6719 193.601 68.5438C195.121 70.3124 196.411 72.2735 197.377 74.3893L197.255 74.455V74.4597Z" fill="#DCCDAA"/>
<path d="M200.868 74.2251C197.213 70.0685 192.897 66.4514 187.919 63.9884L187.934 63.9462C190.645 64.7015 193.028 66.3294 195.121 68.1684C197.171 70.0028 199.32 72.053 200.863 74.2298L200.868 74.2251Z" fill="#DCCDAA"/>
<path d="M199.226 79.2403C197.467 76.8899 195.538 74.638 193.385 72.6535C191.147 70.7582 188.975 69.0271 186.46 67.446L186.498 67.31C189.637 67.4601 192.25 69.5666 194.187 71.8607C196.19 74.0891 197.922 76.5427 199.348 79.1699L199.226 79.245V79.2403Z" fill="#DCCDAA"/>
<path d="M195.191 81.8112C193.723 76.3504 191.34 70.6691 186.46 67.4413L186.498 67.3053C191.485 67.6806 193.352 73.3244 194.525 77.4153C194.882 78.8603 195.177 80.3146 195.327 81.7877L195.187 81.8112H195.191Z" fill="#DCCDAA"/>
<path d="M190.833 83.547C191.199 80.399 191.039 77.1385 190.101 74.1172C189.744 73.1554 189.346 72.1984 188.933 71.2648C188.417 69.984 187.694 68.844 186.986 67.5351L187.084 67.4319C189.735 68.9519 191.185 71.9544 191.494 74.9007C191.907 77.8047 191.748 80.7696 190.969 83.5845L190.833 83.5517V83.547Z" fill="#DCCDAA"/>
<path d="M186.446 81.2575C187.084 77.9032 186.995 74.4784 186.643 71.1194C186.639 69.9934 186.545 68.8909 186.643 67.6806L186.779 67.643C188.112 69.6556 188.351 72.1515 188.041 74.4925C187.863 76.8195 187.389 79.1183 186.578 81.2951L186.442 81.2529L186.446 81.2575Z" fill="#DCCDAA"/>
<path d="M189.167 83.6455C189.524 78.1237 189.031 72.5127 187.249 67.2536L187.291 67.2349C188.675 69.6838 189.205 72.5221 189.388 75.3041C189.543 78.0533 189.608 81.023 189.163 83.6502L189.167 83.6455Z" fill="#DCCDAA"/>
<path d="M183.646 73.7043C188.556 73.7043 192.536 69.724 192.536 64.8141C192.536 59.9041 188.556 55.9238 183.646 55.9238C178.736 55.9238 174.755 59.9041 174.755 64.8141C174.755 69.724 178.736 73.7043 183.646 73.7043Z" fill="#F6F4EE"/>
<path d="M182.374 61.882C182.76 61.882 183.073 61.569 183.073 61.1829C183.073 60.7969 182.76 60.4839 182.374 60.4839C181.988 60.4839 181.675 60.7969 181.675 61.1829C181.675 61.569 181.988 61.882 182.374 61.882Z" fill="#BB2E26"/>
<path d="M179.569 68.8909C179.955 68.8909 180.268 68.578 180.268 68.1919C180.268 67.8059 179.955 67.4929 179.569 67.4929C179.183 67.4929 178.87 67.8059 178.87 68.1919C178.87 68.578 179.183 68.8909 179.569 68.8909Z" fill="#BB2E26"/>
<path d="M179.569 64.3362C179.764 64.3362 179.921 64.1785 179.921 63.984C179.921 63.7895 179.764 63.6318 179.569 63.6318C179.375 63.6318 179.217 63.7895 179.217 63.984C179.217 64.1785 179.375 64.3362 179.569 64.3362Z" fill="#BB2E26"/>
<path d="M183.425 66.7898C183.62 66.7898 183.778 66.6321 183.778 66.4376C183.778 66.2431 183.62 66.0855 183.425 66.0855C183.231 66.0855 183.073 66.2431 183.073 66.4376C183.073 66.6321 183.231 66.7898 183.425 66.7898Z" fill="#BB2E26"/>
<path d="M186.226 67.4935C186.421 67.4935 186.578 67.3358 186.578 67.1413C186.578 66.9468 186.421 66.7892 186.226 66.7892C186.032 66.7892 185.874 66.9468 185.874 67.1413C185.874 67.3358 186.032 67.4935 186.226 67.4935Z" fill="#BB2E26"/>
<path d="M184.828 70.998C185.023 70.998 185.18 70.8403 185.18 70.6458C185.18 70.4513 185.023 70.2937 184.828 70.2937C184.634 70.2937 184.476 70.4513 184.476 70.6458C184.476 70.8403 184.634 70.998 184.828 70.998Z" fill="#BB2E26"/>
<path d="M184.124 63.8104C184.22 63.8104 184.298 63.7326 184.298 63.6367C184.298 63.5407 184.22 63.463 184.124 63.463C184.028 63.463 183.951 63.5407 183.951 63.6367C183.951 63.7326 184.028 63.8104 184.124 63.8104Z" fill="#BB2E26"/>
<path d="M182.023 70.1157C182.118 70.1157 182.196 70.0379 182.196 69.942C182.196 69.846 182.118 69.7682 182.023 69.7682C181.927 69.7682 181.849 69.846 181.849 69.942C181.849 70.0379 181.927 70.1157 182.023 70.1157Z" fill="#BB2E26"/>
<path d="M177.814 65.9122C177.91 65.9122 177.988 65.8344 177.988 65.7385C177.988 65.6425 177.91 65.5647 177.814 65.5647C177.718 65.5647 177.641 65.6425 177.641 65.7385C177.641 65.8344 177.718 65.9122 177.814 65.9122Z" fill="#BB2E26"/>
<path d="M179.217 60.3012C179.313 60.3012 179.391 60.2234 179.391 60.1275C179.391 60.0315 179.313 59.9538 179.217 59.9538C179.121 59.9538 179.043 60.0315 179.043 60.1275C179.043 60.2234 179.121 60.3012 179.217 60.3012Z" fill="#BB2E26"/>
<path d="M463.339 23.4451C463.339 23.4451 467.562 45.4948 476.006 49.2479" stroke="#50716D" stroke-width="2.34572" stroke-miterlimit="10"/>
<path d="M467.547 37.4959C467.547 37.4959 476.189 41.6619 483.747 36.3465" stroke="#50716D" stroke-width="2.34572" stroke-miterlimit="10"/>
<path d="M467.426 36.8907C467.426 36.8907 468.195 46.0296 460.421 51.0213" stroke="#50716D" stroke-width="2.34572" stroke-miterlimit="10"/>
<path d="M485.624 42.6799C488.603 42.6799 491.019 40.2644 491.019 37.2848C491.019 34.3051 488.603 31.8896 485.624 31.8896C482.644 31.8896 480.228 34.3051 480.228 37.2848C480.228 40.2644 482.644 42.6799 485.624 42.6799Z" fill="#BB2E26"/>
<path d="M476.71 54.8776C479.69 54.8776 482.105 52.4622 482.105 49.4825C482.105 46.5028 479.69 44.0874 476.71 44.0874C473.73 44.0874 471.315 46.5028 471.315 49.4825C471.315 52.4622 473.73 54.8776 476.71 54.8776Z" fill="#BB2E26"/>
<path d="M461.697 57.6925C464.677 57.6925 467.092 55.277 467.092 52.2974C467.092 49.3177 464.677 46.9022 461.697 46.9022C458.718 46.9022 456.302 49.3177 456.302 52.2974C456.302 55.277 458.718 57.6925 461.697 57.6925Z" fill="#BB2E26"/>
<path d="M468.359 12.1856C468.359 12.1856 444.067 7.46136 437.311 13.7713" stroke="#50716D" stroke-width="2.34572" stroke-miterlimit="10"/>
<path d="M451.432 10.5718C451.432 10.5718 444.222 16.9005 446.169 25.9362" stroke="#50716D" stroke-width="2.34572" stroke-miterlimit="10"/>
<path d="M452.033 10.6938C452.033 10.6938 443.316 7.83668 441.759 -1.27408" stroke="#50716D" stroke-width="2.34572" stroke-miterlimit="10"/>
<path d="M444.569 32.6919C447.549 32.6919 449.964 30.2764 449.964 27.2967C449.964 24.3171 447.549 21.9016 444.569 21.9016C441.589 21.9016 439.174 24.3171 439.174 27.2967C439.174 30.2764 441.589 32.6919 444.569 32.6919Z" fill="#BB2E26"/>
<path d="M436.819 19.7201C439.798 19.7201 442.214 17.3046 442.214 14.3249C442.214 11.3453 439.798 8.92978 436.819 8.92978C433.839 8.92978 431.423 11.3453 431.423 14.3249C431.423 17.3046 433.839 19.7201 436.819 19.7201Z" fill="#BB2E26"/>
<path d="M440.093 4.80132C443.073 4.80132 445.488 2.38583 445.488 -0.593823C445.488 -3.57348 443.073 -5.98897 440.093 -5.98897C437.114 -5.98897 434.698 -3.57348 434.698 -0.593823C434.698 2.38583 437.114 4.80132 440.093 4.80132Z" fill="#BB2E26"/>
<path d="M449.03 42.4453C449.03 42.4453 437.649 46.1422 429.566 41.6619" stroke="#50716D" stroke-width="2.34572" stroke-miterlimit="10"/>
<path d="M429.411 46.9397C432.391 46.9397 434.806 44.5243 434.806 41.5446C434.806 38.5649 432.391 36.1495 429.411 36.1495C426.431 36.1495 424.016 38.5649 424.016 41.5446C424.016 44.5243 426.431 46.9397 429.411 46.9397Z" fill="#BB2E26"/>
<path d="M448.998 41.8636C448.998 41.8636 446.769 53.625 452.235 61.075" stroke="#50716D" stroke-width="2.34572" stroke-miterlimit="10"/>
<path d="M431.621 57.6925C431.621 57.6925 473.191 29.0748 471.315 -6.56133" stroke="#50716D" stroke-width="2.81486" stroke-miterlimit="10"/>
<path d="M428.51 65.7242C431.49 65.7242 433.905 63.3087 433.905 60.3291C433.905 57.3494 431.49 54.9339 428.51 54.9339C425.53 54.9339 423.115 57.3494 423.115 60.3291C423.115 63.3087 425.53 65.7242 428.51 65.7242Z" fill="#BB2E26"/>
<path d="M438.099 52.6539V72.3954" stroke="#50716D" stroke-width="2.34572" stroke-miterlimit="10"/>
<path d="M437.888 81.6751C440.868 81.6751 443.283 79.2596 443.283 76.2799C443.283 73.3003 440.868 70.8848 437.888 70.8848C434.909 70.8848 432.493 73.3003 432.493 76.2799C432.493 79.2596 434.909 81.6751 437.888 81.6751Z" fill="#BB2E26"/>
<path d="M451.493 66.6672C454.473 66.6672 456.889 64.2517 456.889 61.2721C456.889 58.2924 454.473 55.8769 451.493 55.8769C448.514 55.8769 446.098 58.2924 446.098 61.2721C446.098 64.2517 448.514 66.6672 451.493 66.6672Z" fill="#BB2E26"/>
<path d="M471.052 1.98178C471.052 1.98178 468.824 13.7432 474.289 21.1932" stroke="#50716D" stroke-width="2.34572" stroke-miterlimit="10"/>
<path d="M473.548 26.7854C476.528 26.7854 478.943 24.3699 478.943 21.3902C478.943 18.4106 476.528 15.9951 473.548 15.9951C470.568 15.9951 468.153 18.4106 468.153 21.3902C468.153 24.3699 470.568 26.7854 473.548 26.7854Z" fill="#BB2E26"/>
<path d="M45.4265 -6.35524C45.4265 -6.35524 50.2305 15.5772 43.944 22.3516" stroke="#50716D" stroke-width="2.34572" stroke-miterlimit="10"/>
<path d="M47.0919 8.22104C47.0919 8.22104 40.7914 15.4505 31.751 13.5411" stroke="#50716D" stroke-width="2.34572" stroke-miterlimit="10"/>
<path d="M46.9653 7.61583C46.9653 7.61583 49.8552 16.3184 58.9706 17.8478" stroke="#50716D" stroke-width="2.34572" stroke-miterlimit="10"/>
<path d="M30.3951 20.5407C33.3748 20.5407 35.7903 18.1252 35.7903 15.1456C35.7903 12.1659 33.3748 9.75043 30.3951 9.75043C27.4155 9.75043 25 12.1659 25 15.1456C25 18.1252 27.4155 20.5407 30.3951 20.5407Z" fill="#BB2E26"/>
<path d="M43.3904 28.2394C46.3701 28.2394 48.7856 25.8239 48.7856 22.8442C48.7856 19.8646 46.3701 17.4491 43.3904 17.4491C40.4108 17.4491 37.9953 19.8646 37.9953 22.8442C37.9953 25.8239 40.4108 28.2394 43.3904 28.2394Z" fill="#BB2E26"/>
<path d="M58.2998 24.9178C61.2794 24.9178 63.6949 22.5024 63.6949 19.5227C63.6949 16.543 61.2794 14.1275 58.2998 14.1275C55.3201 14.1275 52.9046 16.543 52.9046 19.5227C52.9046 22.5024 55.3201 24.9178 58.2998 24.9178Z" fill="#BB2E26"/>
<path d="M66.0641 5.47654C66.0641 5.47654 77.985 4.39282 83.6476 -2.90704" stroke="#50716D" stroke-width="2.34572" stroke-miterlimit="10"/>
<path d="M83.7414 2.31452C86.721 2.31452 89.1365 -0.100968 89.1365 -3.08062C89.1365 -6.06028 86.721 -8.47577 83.7414 -8.47577C80.7617 -8.47577 78.3462 -6.06028 78.3462 -3.08062C78.3462 -0.100968 80.7617 2.31452 83.7414 2.31452Z" fill="#BB2E26"/>
<path d="M65.8671 4.92764C65.8671 4.92764 72.5476 14.8594 70.4553 23.8623" stroke="#50716D" stroke-width="2.34572" stroke-miterlimit="10"/>
<path d="M88.0716 12.6357C88.0716 12.6357 38.5864 2.69921 26.2807 -30.7929" stroke="#50716D" stroke-width="2.81486" stroke-miterlimit="10"/>
<path d="M91.9702 19.2271C94.9498 19.2271 97.3653 16.8116 97.3653 13.832C97.3653 10.8523 94.9498 8.43684 91.9702 8.43684C88.9905 8.43684 86.575 10.8523 86.575 13.832C86.575 16.8116 88.9905 19.2271 91.9702 19.2271Z" fill="#BB2E26"/>
<path d="M80.1337 10.5574L87.9074 28.6991" stroke="#50716D" stroke-width="2.34572" stroke-miterlimit="10"/>
<path d="M89.6291 37.5847C92.6088 37.5847 95.0243 35.1692 95.0243 32.1895C95.0243 29.2099 92.6088 26.7944 89.6291 26.7944C86.6495 26.7944 84.234 29.2099 84.234 32.1895C84.234 35.1692 86.6495 37.5847 89.6291 37.5847Z" fill="#BB2E26"/>
<path d="M71.2106 29.1448C74.1902 29.1448 76.6057 26.7293 76.6057 23.7497C76.6057 20.77 74.1902 18.3545 71.2106 18.3545C68.2309 18.3545 65.8154 20.77 65.8154 23.7497C65.8154 26.7293 68.2309 29.1448 71.2106 29.1448Z" fill="#BB2E26"/>
<path d="M35.2367 1.17451C38.2164 1.17451 40.6318 -1.24098 40.6318 -4.22064C40.6318 -7.2003 38.2164 -9.61578 35.2367 -9.61578C32.257 -9.61578 29.8416 -7.2003 29.8416 -4.22064C29.8416 -1.24098 32.257 1.17451 35.2367 1.17451Z" fill="#BB2E26"/>
<path d="M319.674 24.0549C319.674 24.0549 295.47 27.0387 298.365 56.7542C327.227 50.3739 319.674 24.0549 319.674 24.0549V24.0549Z" fill="#50716D"/>
<path d="M367.156 1.70966C367.156 1.70966 342.192 17.5714 360.409 49.2901C388.746 27.2217 367.156 1.70966 367.156 1.70966V1.70966Z" fill="#50716D"/>
<path d="M308.635 -20.6778C308.635 -20.6778 297.483 6.71544 330.713 22.0095C341.015 -12.3974 308.635 -20.6778 308.635 -20.6778V-20.6778Z" fill="#50716D"/>
<path d="M334.724 -17.1593C334.724 -17.1593 348.61 8.95324 381.643 -6.75836C361.831 -36.7131 334.724 -17.1593 334.724 -17.1593Z" fill="#50716D"/>
<path d="M281.476 -7.61688C281.476 -7.61688 273.045 11.7916 296.559 23.2809C304.502 -1.15678 281.476 -7.61688 281.476 -7.61688Z" fill="#50716D"/>
<path d="M263.325 29.4313C263.325 29.4313 280.495 41.7979 296.723 21.2636C274.533 8.30582 263.325 29.4313 263.325 29.4313V29.4313Z" fill="#50716D"/>
<path d="M384.443 -8.69592C384.443 -8.69592 335.84 24.1019 317.928 24.1019C300.017 24.1019 295.607 21.8218 295.607 21.8218" stroke="#50716D" stroke-width="1.87657" stroke-miterlimit="10"/>
<path d="M341.423 28.1506C341.986 26.7478 340.443 25.4342 339.167 26.2412C335.23 28.737 331.276 32.9687 331.412 36.8719C331.637 43.2523 335.019 46.5269 338.233 44.5424C341.447 42.5533 342.019 38.2184 340.611 34.4371C339.959 32.6919 340.574 30.2617 341.423 28.1506V28.1506Z" fill="#7CAAA3"/>
<path d="M310.84 13.9825C311.595 15.099 310.732 16.4548 309.578 15.9576C306.012 14.4094 302.029 11.3834 301.227 8.01965C299.909 2.5213 301.71 -0.795544 304.605 0.424228C307.499 1.644 308.949 5.27048 308.761 8.72337C308.677 10.3185 309.704 12.3076 310.84 13.9871V13.9825Z" fill="#7CAAA3"/>
<path d="M348.155 8.98608C349.391 8.98608 350.393 7.98418 350.393 6.74827C350.393 5.51236 349.391 4.51045 348.155 4.51045C346.919 4.51045 345.917 5.51236 345.917 6.74827C345.917 7.98418 346.919 8.98608 348.155 8.98608Z" fill="#7CAAA3"/>
<path d="M340.879 9.54905C341.806 9.54905 342.558 8.7971 342.558 7.86952C342.558 6.94194 341.806 6.18999 340.879 6.18999C339.951 6.18999 339.199 6.94194 339.199 7.86952C339.199 8.7971 339.951 9.54905 340.879 9.54905Z" fill="#7CAAA3"/>
<path d="M295.536 35.3003C297.083 35.3003 298.337 34.0463 298.337 32.4995C298.337 30.9527 297.083 29.6987 295.536 29.6987C293.989 29.6987 292.735 30.9527 292.735 32.4995C292.735 34.0463 293.989 35.3003 295.536 35.3003Z" fill="#7CAAA3"/>
<path d="M292.032 34.8452C292.032 34.8452 280.683 46.6113 279.032 40.8127C277.38 35.0141 292.032 34.8452 292.032 34.8452Z" fill="#7CAAA3"/>
<path d="M293.772 37.3739C293.772 37.3739 295.414 51.4154 290.774 48.6474C286.135 45.8795 293.772 37.3739 293.772 37.3739Z" fill="#7CAAA3"/>
<path d="M345.556 2.30549C345.556 2.30549 328.198 -4.56277 334.32 -8.23146C340.438 -11.9002 345.556 2.30549 345.556 2.30549V2.30549Z" fill="#7CAAA3"/>
<path d="M547.062 41.1599C547.062 41.1599 530.098 52.5554 515.621 32.1476C537.398 20.344 547.062 41.1599 547.062 41.1599Z" fill="#50716D"/>
<path d="M589.398 29.2437C589.398 29.2437 564.881 32.903 559.007 2.81214C589.065 1.23113 589.398 29.2437 589.398 29.2437Z" fill="#50716D"/>
<path d="M564.627 75.5481C564.627 75.5481 542.526 64.3215 555.179 36.3981C580.592 52.5319 564.627 75.5481 564.627 75.5481Z" fill="#50716D"/>
<path d="M540.26 82.1817C540.26 82.1817 524.267 74.5206 532.852 54.3334C551.294 65.4521 540.26 82.1817 540.26 82.1817Z" fill="#50716D"/>
<path d="M508.429 68.6845C508.429 68.6845 512.515 51.4294 534.063 55.525C527.119 75.9093 508.429 68.6845 508.429 68.6845Z" fill="#50716D"/>
<path d="M606.057 26.3444C606.057 26.3444 557.276 32.2509 545.932 42.0841C534.588 51.9173 533.044 55.7831 533.044 55.7831" stroke="#50716D" stroke-width="1.87657" stroke-miterlimit="10"/>
<path d="M558.589 26.6212C559.715 27.1982 559.462 28.8777 558.209 29.0654C554.344 29.6471 549.516 29.1358 547.461 26.5883C544.102 22.427 544.445 18.4909 547.574 17.9889C550.703 17.4869 553.443 19.9124 554.625 23.0838C555.169 24.5475 556.891 25.7485 558.589 26.6212V26.6212Z" fill="#7CAAA3"/>
<path d="M546.997 52.3865C546.861 51.2652 545.571 50.8805 545.116 51.8282C543.708 54.765 542.85 58.87 544.182 61.4409C546.363 65.6445 549.324 66.7563 550.492 64.3965C551.66 62.0368 550.581 58.9451 548.568 56.8621C547.64 55.9004 547.199 54.0754 546.997 52.3865V52.3865Z" fill="#7CAAA3"/>
<path d="M527.143 51.4013C528.438 51.4013 529.488 50.3511 529.488 49.0556C529.488 47.7601 528.438 46.7099 527.143 46.7099C525.847 46.7099 524.797 47.7601 524.797 49.0556C524.797 50.3511 525.847 51.4013 527.143 51.4013Z" fill="#7CAAA3"/>
<path d="M523.633 49.4919C523.633 49.4919 509.986 48.2674 512.125 52.8462C514.265 57.4251 523.633 49.4919 523.633 49.4919Z" fill="#7CAAA3"/>
<path d="M523.347 46.9397C523.347 46.9397 516.681 37.144 515.259 41.4461C513.838 45.7434 523.347 46.9397 523.347 46.9397Z" fill="#7CAAA3"/>
<path d="M25.9767 64.3377C25.9767 64.3377 46.3985 65.1165 47.9889 40.144C23.2557 41.5514 25.9767 64.3377 25.9767 64.3377Z" fill="#50716D"/>
<path d="M-16.3025 76.4603C-16.3025 76.4603 6.4744 66.6834 -4.34404 38C-30.7474 52.459 -16.3025 76.4603 -16.3025 76.4603Z" fill="#50716D"/>
<path d="M29.1106 102.826C29.1106 102.826 42.0073 81.6585 16.5704 64.5535C3.43437 91.6371 29.1106 102.826 29.1106 102.826Z" fill="#50716D"/>
<path d="M7.99444 96.4177C7.99444 96.4177 0.00962485 72.9512 -29.4244 81.5224C-17.0484 108.963 7.99444 96.4177 7.99444 96.4177Z" fill="#50716D"/>
<path d="M53.3277 95.6624C53.3277 95.6624 62.9029 80.7389 44.9911 68.0768C35.1437 87.2272 53.3277 95.6624 53.3277 95.6624Z" fill="#50716D"/>
<path d="M73.3085 67.4481C73.3085 67.4481 60.759 54.9173 44.5829 69.7282C61.2046 83.4224 73.3085 67.4481 73.3085 67.4481Z" fill="#50716D"/>
<path d="M-32 82.7469C-32 82.7469 12.6061 62.128 27.4263 64.53C42.2466 66.932 45.5869 69.4091 45.5869 69.4091" stroke="#50716D" stroke-width="1.87657" stroke-miterlimit="10"/>
<path d="M8.52925 58.0324C7.87714 59.1161 8.97494 60.411 10.1384 59.9137C13.732 58.3749 17.5696 55.4052 17.9778 52.1587C18.6487 46.8527 16.2842 43.686 13.3614 44.9011C10.4387 46.1162 9.3784 49.6254 10.0399 52.9422C10.3448 54.4763 9.50976 56.3998 8.52456 58.0324H8.52925Z" fill="#7CAAA3"/>
<path d="M31.9301 73.8566C31.4563 72.8339 32.3523 71.8252 33.239 72.3929C35.9788 74.1522 38.8687 77.1922 39.0846 80.0821C39.4364 84.8064 37.5035 87.3116 35.2704 85.9136C33.0373 84.5155 32.3289 81.3207 32.9435 78.4917C33.2296 77.1828 32.6432 75.4001 31.9301 73.8613V73.8566Z" fill="#7CAAA3"/>
<path d="M0.089394 76.7137C1.1258 76.7137 1.96597 75.8735 1.96597 74.8371C1.96597 73.8007 1.1258 72.9605 0.089394 72.9605C-0.947008 72.9605 -1.78718 73.8007 -1.78718 74.8371C-1.78718 75.8735 -0.947008 76.7137 0.089394 76.7137Z" fill="#7CAAA3"/>
<path d="M6.25861 76.2962C7.03591 76.2962 7.66604 75.666 7.66604 74.8887C7.66604 74.1114 7.03591 73.4813 6.25861 73.4813C5.48131 73.4813 4.85118 74.1114 4.85118 74.8887C4.85118 75.666 5.48131 76.2962 6.25861 76.2962Z" fill="#7CAAA3"/>
<path d="M47.074 62.935C48.3695 62.935 49.4198 61.8847 49.4198 60.5892C49.4198 59.2937 48.3695 58.2435 47.074 58.2435C45.7785 58.2435 44.7283 59.2937 44.7283 60.5892C44.7283 61.8847 45.7785 62.935 47.074 62.935Z" fill="#7CAAA3"/>
<path d="M50.2877 59.1161C50.2877 59.1161 61.2563 50.9014 61.8427 55.9213C62.4291 60.9411 50.2877 59.1161 50.2877 59.1161Z" fill="#7CAAA3"/>
<path d="M49.1852 56.7939C49.1852 56.7939 49.7059 44.9574 53.1776 47.8661C56.6446 50.7748 49.1852 56.7939 49.1852 56.7939Z" fill="#7CAAA3"/>
<path d="M1.64226 78.8624C1.64226 78.8624 15.0785 86.8753 9.52386 89.085C3.9692 91.2993 1.64226 78.8624 1.64226 78.8624Z" fill="#7CAAA3"/>
<path d="M433.53 116.776L441.548 99.465" stroke="#DCCDAA" stroke-width="0.534823" stroke-miterlimit="10"/>
<path d="M433.291 117.996C433.734 117.996 434.093 117.637 434.093 117.194C434.093 116.751 433.734 116.392 433.291 116.392C432.848 116.392 432.488 116.751 432.488 117.194C432.488 117.637 432.848 117.996 433.291 117.996Z" fill="#DCCDAA"/>
<path d="M441.515 100.239C441.958 100.239 442.317 99.8799 442.317 99.4368C442.317 98.9938 441.958 98.6346 441.515 98.6346C441.072 98.6346 440.712 98.9938 440.712 99.4368C440.712 99.8799 441.072 100.239 441.515 100.239Z" fill="#DCCDAA"/>
<path d="M428.641 111.513L446.549 104.94" stroke="#DCCDAA" stroke-width="0.534823" stroke-miterlimit="10"/>
<path d="M428.172 112.441C428.615 112.441 428.975 112.082 428.975 111.639C428.975 111.196 428.615 110.837 428.172 110.837C427.729 110.837 427.37 111.196 427.37 111.639C427.37 112.082 427.729 112.441 428.172 112.441Z" fill="#DCCDAA"/>
<path d="M446.544 105.7C446.987 105.7 447.346 105.341 447.346 104.898C447.346 104.455 446.987 104.095 446.544 104.095C446.101 104.095 445.742 104.455 445.742 104.898C445.742 105.341 446.101 105.7 446.544 105.7Z" fill="#DCCDAA"/>
<path d="M428.904 104.335L446.216 112.352" stroke="#DCCDAA" stroke-width="0.534823" stroke-miterlimit="10"/>
<path d="M428.482 104.893C428.925 104.893 429.284 104.534 429.284 104.091C429.284 103.648 428.925 103.288 428.482 103.288C428.039 103.288 427.68 103.648 427.68 104.091C427.68 104.534 428.039 104.893 428.482 104.893Z" fill="#DCCDAA"/>
<path d="M446.239 113.122C446.682 113.122 447.041 112.763 447.041 112.319C447.041 111.876 446.682 111.517 446.239 111.517C445.796 111.517 445.437 111.876 445.437 112.319C445.437 112.763 445.796 113.122 446.239 113.122Z" fill="#DCCDAA"/>
<path d="M434.168 99.4462L440.736 117.353" stroke="#DCCDAA" stroke-width="0.534823" stroke-miterlimit="10"/>
<path d="M434.037 99.7793C434.48 99.7793 434.839 99.4201 434.839 98.9771C434.839 98.534 434.48 98.1748 434.037 98.1748C433.594 98.1748 433.234 98.534 433.234 98.9771C433.234 99.4201 433.594 99.7793 434.037 99.7793Z" fill="#DCCDAA"/>
<path d="M440.778 118.151C441.221 118.151 441.58 117.792 441.58 117.349C441.58 116.906 441.221 116.546 440.778 116.546C440.335 116.546 439.976 116.906 439.976 117.349C439.976 117.792 440.335 118.151 440.778 118.151Z" fill="#DCCDAA"/>
<path d="M96.6853 112.554L104.703 95.2427" stroke="#DCCDAA" stroke-width="0.534823" stroke-miterlimit="10"/>
<path d="M96.446 113.774C96.8891 113.774 97.2482 113.415 97.2482 112.972C97.2482 112.529 96.8891 112.169 96.446 112.169C96.0029 112.169 95.6438 112.529 95.6438 112.972C95.6438 113.415 96.0029 113.774 96.446 113.774Z" fill="#DCCDAA"/>
<path d="M104.67 96.0168C105.113 96.0168 105.472 95.6576 105.472 95.2146C105.472 94.7715 105.113 94.4123 104.67 94.4123C104.227 94.4123 103.868 94.7715 103.868 95.2146C103.868 95.6576 104.227 96.0168 104.67 96.0168Z" fill="#DCCDAA"/>
<path d="M91.7968 107.29L109.704 100.718" stroke="#DCCDAA" stroke-width="0.534823" stroke-miterlimit="10"/>
<path d="M91.3276 108.219C91.7707 108.219 92.1299 107.86 92.1299 107.417C92.1299 106.974 91.7707 106.615 91.3276 106.615C90.8846 106.615 90.5254 106.974 90.5254 107.417C90.5254 107.86 90.8846 108.219 91.3276 108.219Z" fill="#DCCDAA"/>
<path d="M109.699 101.478C110.142 101.478 110.502 101.118 110.502 100.675C110.502 100.232 110.142 99.8731 109.699 99.8731C109.256 99.8731 108.897 100.232 108.897 100.675C108.897 101.118 109.256 101.478 109.699 101.478Z" fill="#DCCDAA"/>
<path d="M92.0595 100.112L109.371 108.13" stroke="#DCCDAA" stroke-width="0.534823" stroke-miterlimit="10"/>
<path d="M91.6373 100.671C92.0803 100.671 92.4395 100.312 92.4395 99.8685C92.4395 99.4254 92.0803 99.0662 91.6373 99.0662C91.1942 99.0662 90.835 99.4254 90.835 99.8685C90.835 100.312 91.1942 100.671 91.6373 100.671Z" fill="#DCCDAA"/>
<path d="M109.394 108.899C109.837 108.899 110.197 108.54 110.197 108.097C110.197 107.654 109.837 107.295 109.394 107.295C108.951 107.295 108.592 107.654 108.592 108.097C108.592 108.54 108.951 108.899 109.394 108.899Z" fill="#DCCDAA"/>
<path d="M97.3233 95.2239L103.891 113.131" stroke="#DCCDAA" stroke-width="0.534823" stroke-miterlimit="10"/>
<path d="M97.1919 95.557C97.635 95.557 97.9942 95.1979 97.9942 94.7548C97.9942 94.3117 97.635 93.9526 97.1919 93.9526C96.7489 93.9526 96.3897 94.3117 96.3897 94.7548C96.3897 95.1979 96.7489 95.557 97.1919 95.557Z" fill="#DCCDAA"/>
<path d="M103.934 113.929C104.377 113.929 104.736 113.569 104.736 113.126C104.736 112.683 104.377 112.324 103.934 112.324C103.49 112.324 103.131 112.683 103.131 113.126C103.131 113.569 103.49 113.929 103.934 113.929Z" fill="#DCCDAA"/>
<path d="M236.288 21.9204L230.414 3.76921" stroke="#DCCDAA" stroke-width="0.534823" stroke-miterlimit="10"/>
<path d="M236.401 23.1964C236.844 23.1964 237.203 22.8372 237.203 22.3942C237.203 21.9511 236.844 21.592 236.401 21.592C235.958 21.592 235.598 21.9511 235.598 22.3942C235.598 22.8372 235.958 23.1964 236.401 23.1964Z" fill="#DCCDAA"/>
<path d="M230.372 4.57613C230.815 4.57613 231.174 4.21696 231.174 3.7739C231.174 3.33084 230.815 2.97166 230.372 2.97166C229.929 2.97166 229.57 3.33084 229.57 3.7739C229.57 4.21696 229.929 4.57613 230.372 4.57613Z" fill="#DCCDAA"/>
<path d="M229.124 21.3808L237.803 4.39317" stroke="#DCCDAA" stroke-width="0.534823" stroke-miterlimit="10"/>
<path d="M228.871 22.5959C229.314 22.5959 229.673 22.2367 229.673 21.7937C229.673 21.3506 229.314 20.9915 228.871 20.9915C228.428 20.9915 228.069 21.3506 228.069 21.7937C228.069 22.2367 228.428 22.5959 228.871 22.5959Z" fill="#DCCDAA"/>
<path d="M237.775 5.16726C238.218 5.16726 238.578 4.80809 238.578 4.36502C238.578 3.92196 238.218 3.56279 237.775 3.56279C237.332 3.56279 236.973 3.92196 236.973 4.36502C236.973 4.80809 237.332 5.16726 237.775 5.16726Z" fill="#DCCDAA"/>
<path d="M224.442 15.9341L242.593 10.0604" stroke="#DCCDAA" stroke-width="0.534823" stroke-miterlimit="10"/>
<path d="M223.968 16.8489C224.412 16.8489 224.771 16.4897 224.771 16.0467C224.771 15.6036 224.412 15.2445 223.968 15.2445C223.525 15.2445 223.166 15.6036 223.166 16.0467C223.166 16.4897 223.525 16.8489 223.968 16.8489Z" fill="#DCCDAA"/>
<path d="M242.589 10.8204C243.032 10.8204 243.391 10.4613 243.391 10.0182C243.391 9.57513 243.032 9.21596 242.589 9.21596C242.146 9.21596 241.786 9.57513 241.786 10.0182C241.786 10.4613 242.146 10.8204 242.589 10.8204Z" fill="#DCCDAA"/>
<path d="M224.982 8.77028L241.974 17.4494" stroke="#DCCDAA" stroke-width="0.534823" stroke-miterlimit="10"/>
<path d="M224.574 9.31917C225.017 9.31917 225.376 8.96 225.376 8.51694C225.376 8.07388 225.017 7.71471 224.574 7.71471C224.131 7.71471 223.771 8.07388 223.771 8.51694C223.771 8.96 224.131 9.31917 224.574 9.31917Z" fill="#DCCDAA"/>
<path d="M241.998 18.2235C242.441 18.2235 242.8 17.8643 242.8 17.4213C242.8 16.9782 242.441 16.619 241.998 16.619C241.555 16.619 241.195 16.9782 241.195 17.4213C241.195 17.8643 241.555 18.2235 241.998 18.2235Z" fill="#DCCDAA"/>
<path d="M396.266 58.5135L390.392 40.3624" stroke="#DCCDAA" stroke-width="0.534823" stroke-miterlimit="10"/>
<path d="M396.378 59.7896C396.822 59.7896 397.181 59.4304 397.181 58.9873C397.181 58.5443 396.822 58.1851 396.378 58.1851C395.935 58.1851 395.576 58.5443 395.576 58.9873C395.576 59.4304 395.935 59.7896 396.378 59.7896Z" fill="#DCCDAA"/>
<path d="M390.35 41.1693C390.793 41.1693 391.152 40.8101 391.152 40.367C391.152 39.924 390.793 39.5648 390.35 39.5648C389.907 39.5648 389.548 39.924 389.548 40.367C389.548 40.8101 389.907 41.1693 390.35 41.1693Z" fill="#DCCDAA"/>
<path d="M389.102 57.974L397.781 40.9863" stroke="#DCCDAA" stroke-width="0.534823" stroke-miterlimit="10"/>
<path d="M388.849 59.1891C389.292 59.1891 389.651 58.8299 389.651 58.3868C389.651 57.9438 389.292 57.5846 388.849 57.5846C388.406 57.5846 388.047 57.9438 388.047 58.3868C388.047 58.8299 388.406 59.1891 388.849 59.1891Z" fill="#DCCDAA"/>
<path d="M397.753 41.7604C398.196 41.7604 398.555 41.4012 398.555 40.9582C398.555 40.5151 398.196 40.1559 397.753 40.1559C397.31 40.1559 396.951 40.5151 396.951 40.9582C396.951 41.4012 397.31 41.7604 397.753 41.7604Z" fill="#DCCDAA"/>
<path d="M384.42 52.5272L402.571 46.6536" stroke="#DCCDAA" stroke-width="0.534823" stroke-miterlimit="10"/>
<path d="M383.946 53.4374C384.389 53.4374 384.748 53.0782 384.748 52.6351C384.748 52.1921 384.389 51.8329 383.946 51.8329C383.503 51.8329 383.144 52.1921 383.144 52.6351C383.144 53.0782 383.503 53.4374 383.946 53.4374Z" fill="#DCCDAA"/>
<path d="M402.566 47.4136C403.01 47.4136 403.369 47.0544 403.369 46.6113C403.369 46.1683 403.01 45.8091 402.566 45.8091C402.123 45.8091 401.764 46.1683 401.764 46.6113C401.764 47.0544 402.123 47.4136 402.566 47.4136Z" fill="#DCCDAA"/>
<path d="M384.96 45.3634L401.952 54.0426" stroke="#DCCDAA" stroke-width="0.534823" stroke-miterlimit="10"/>
<path d="M384.551 45.9123C384.994 45.9123 385.354 45.5531 385.354 45.1101C385.354 44.667 384.994 44.3078 384.551 44.3078C384.108 44.3078 383.749 44.667 383.749 45.1101C383.749 45.5531 384.108 45.9123 384.551 45.9123Z" fill="#DCCDAA"/>
<path d="M401.975 54.8166C402.418 54.8166 402.778 54.4575 402.778 54.0144C402.778 53.5714 402.418 53.2122 401.975 53.2122C401.532 53.2122 401.173 53.5714 401.173 54.0144C401.173 54.4575 401.532 54.8166 401.975 54.8166Z" fill="#DCCDAA"/>
<path d="M519.191 15.8262L510.976 -1.39136" stroke="#BB2E26" stroke-width="0.534823" stroke-miterlimit="10"/>
<path d="M519.364 17.0835C519.807 17.0835 520.167 16.7243 520.167 16.2812C520.167 15.8382 519.807 15.479 519.364 15.479C518.921 15.479 518.562 15.8382 518.562 16.2812C518.562 16.7243 518.921 17.0835 519.364 17.0835Z" fill="#BB2E26"/>
<path d="M512.022 16.2343L518.389 -1.74792" stroke="#BB2E26" stroke-width="0.534823" stroke-miterlimit="10"/>
<path d="M511.82 17.4823C512.264 17.4823 512.623 17.1231 512.623 16.68C512.623 16.237 512.264 15.8778 511.82 15.8778C511.377 15.8778 511.018 16.237 511.018 16.68C511.018 17.1231 511.377 17.4823 511.82 17.4823Z" fill="#BB2E26"/>
<path d="M506.66 11.4538L523.877 3.23907" stroke="#BB2E26" stroke-width="0.534823" stroke-miterlimit="10"/>
<path d="M506.21 12.4249C506.653 12.4249 507.012 12.0657 507.012 11.6227C507.012 11.1796 506.653 10.8204 506.21 10.8204C505.766 10.8204 505.407 11.1796 505.407 11.6227C505.407 12.0657 505.766 12.4249 506.21 12.4249Z" fill="#BB2E26"/>
<path d="M523.873 3.99909C524.316 3.99909 524.675 3.63992 524.675 3.19686C524.675 2.75379 524.316 2.39462 523.873 2.39462C523.43 2.39462 523.07 2.75379 523.07 3.19686C523.07 3.63992 523.43 3.99909 523.873 3.99909Z" fill="#BB2E26"/>
<path d="M506.252 4.28056L524.239 10.6468" stroke="#BB2E26" stroke-width="0.534823" stroke-miterlimit="10"/>
<path d="M505.811 4.88576C506.254 4.88576 506.613 4.52659 506.613 4.08353C506.613 3.64047 506.254 3.2813 505.811 3.2813C505.368 3.2813 505.009 3.64047 505.009 4.08353C505.009 4.52659 505.368 4.88576 505.811 4.88576Z" fill="#BB2E26"/>
<path d="M524.262 11.4162C524.705 11.4162 525.064 11.0571 525.064 10.614C525.064 10.1709 524.705 9.81177 524.262 9.81177C523.819 9.81177 523.46 10.1709 523.46 10.614C523.46 11.0571 523.819 11.4162 524.262 11.4162Z" fill="#BB2E26"/>
<path d="M389.182 100.4L380.968 83.1822" stroke="#BB2E26" stroke-width="0.534823" stroke-miterlimit="10"/>
<path d="M389.356 101.657C389.799 101.657 390.158 101.298 390.158 100.855C390.158 100.412 389.799 100.053 389.356 100.053C388.913 100.053 388.554 100.412 388.554 100.855C388.554 101.298 388.913 101.657 389.356 101.657Z" fill="#BB2E26"/>
<path d="M380.93 83.9939C381.373 83.9939 381.732 83.6347 381.732 83.1916C381.732 82.7486 381.373 82.3894 380.93 82.3894C380.487 82.3894 380.128 82.7486 380.128 83.1916C380.128 83.6347 380.487 83.9939 380.93 83.9939Z" fill="#BB2E26"/>
<path d="M382.014 100.808L388.38 82.8257" stroke="#BB2E26" stroke-width="0.534823" stroke-miterlimit="10"/>
<path d="M381.812 102.056C382.255 102.056 382.614 101.697 382.614 101.254C382.614 100.811 382.255 100.451 381.812 100.451C381.369 100.451 381.01 100.811 381.01 101.254C381.01 101.697 381.369 102.056 381.812 102.056Z" fill="#BB2E26"/>
<path d="M388.342 83.6045C388.786 83.6045 389.145 83.2453 389.145 82.8022C389.145 82.3592 388.786 82 388.342 82C387.899 82 387.54 82.3592 387.54 82.8022C387.54 83.2453 387.899 83.6045 388.342 83.6045Z" fill="#BB2E26"/>
<path d="M376.651 96.0274L393.869 87.8127" stroke="#BB2E26" stroke-width="0.534823" stroke-miterlimit="10"/>
<path d="M376.201 96.9985C376.644 96.9985 377.003 96.6393 377.003 96.1963C377.003 95.7532 376.644 95.394 376.201 95.394C375.758 95.394 375.399 95.7532 375.399 96.1963C375.399 96.6393 375.758 96.9985 376.201 96.9985Z" fill="#BB2E26"/>
<path d="M393.864 88.5727C394.307 88.5727 394.666 88.2135 394.666 87.7705C394.666 87.3274 394.307 86.9682 393.864 86.9682C393.421 86.9682 393.062 87.3274 393.062 87.7705C393.062 88.2135 393.421 88.5727 393.864 88.5727Z" fill="#BB2E26"/>
<path d="M376.243 88.8542L394.23 95.2204" stroke="#BB2E26" stroke-width="0.534823" stroke-miterlimit="10"/>
<path d="M375.802 89.4594C376.245 89.4594 376.604 89.1002 376.604 88.6571C376.604 88.2141 376.245 87.8549 375.802 87.8549C375.359 87.8549 375 88.2141 375 88.6571C375 89.1002 375.359 89.4594 375.802 89.4594Z" fill="#BB2E26"/>
<path d="M394.254 95.9898C394.697 95.9898 395.056 95.6307 395.056 95.1876C395.056 94.7445 394.697 94.3854 394.254 94.3854C393.811 94.3854 393.451 94.7445 393.451 95.1876C393.451 95.6307 393.811 95.9898 394.254 95.9898Z" fill="#BB2E26"/>
<path d="M552.852 122.031L537.22 111.095" stroke="#BB2E26" stroke-width="0.534823" stroke-miterlimit="10"/>
<path d="M553.227 123.143C553.67 123.143 554.029 122.783 554.029 122.34C554.029 121.897 553.67 121.538 553.227 121.538C552.784 121.538 552.425 121.897 552.425 122.34C552.425 122.783 552.784 123.143 553.227 123.143Z" fill="#BB2E26"/>
<path d="M537.192 111.925C537.635 111.925 537.994 111.566 537.994 111.123C537.994 110.68 537.635 110.321 537.192 110.321C536.749 110.321 536.389 110.68 536.389 111.123C536.389 111.566 536.749 111.925 537.192 111.925Z" fill="#BB2E26"/>
<path d="M546.814 125.92L543.492 107.135" stroke="#BB2E26" stroke-width="0.534823" stroke-miterlimit="10"/>
<path d="M546.856 127.205C547.299 127.205 547.658 126.846 547.658 126.403C547.658 125.96 547.299 125.601 546.856 125.601C546.413 125.601 546.054 125.96 546.054 126.403C546.054 126.846 546.413 127.205 546.856 127.205Z" fill="#BB2E26"/>
<path d="M543.45 107.933C543.893 107.933 544.252 107.574 544.252 107.131C544.252 106.688 543.893 106.329 543.45 106.329C543.007 106.329 542.648 106.688 542.648 107.131C542.648 107.574 543.007 107.933 543.45 107.933Z" fill="#BB2E26"/>
<path d="M539.795 124.4L550.731 108.768" stroke="#BB2E26" stroke-width="0.534823" stroke-miterlimit="10"/>
<path d="M539.481 125.573C539.924 125.573 540.283 125.214 540.283 124.771C540.283 124.327 539.924 123.968 539.481 123.968C539.038 123.968 538.679 124.327 538.679 124.771C538.679 125.214 539.038 125.573 539.481 125.573Z" fill="#BB2E26"/>
<path d="M550.703 109.537C551.146 109.537 551.505 109.178 551.505 108.735C551.505 108.292 551.146 107.933 550.703 107.933C550.26 107.933 549.901 108.292 549.901 108.735C549.901 109.178 550.26 109.537 550.703 109.537Z" fill="#BB2E26"/>
<path d="M535.906 118.357L554.691 115.041" stroke="#BB2E26" stroke-width="0.534823" stroke-miterlimit="10"/>
<path d="M535.423 119.207C535.866 119.207 536.225 118.847 536.225 118.404C536.225 117.961 535.866 117.602 535.423 117.602C534.98 117.602 534.621 117.961 534.621 118.404C534.621 118.847 534.98 119.207 535.423 119.207Z" fill="#BB2E26"/>
<path d="M554.691 115.801C555.134 115.801 555.493 115.441 555.493 114.998C555.493 114.555 555.134 114.196 554.691 114.196C554.248 114.196 553.889 114.555 553.889 114.998C553.889 115.441 554.248 115.801 554.691 115.801Z" fill="#BB2E26"/>
<path d="M25.2425 140.245L15.428 123.886" stroke="#BB2E26" stroke-width="0.534823" stroke-miterlimit="10"/>
<path d="M25.4583 141.479C25.9013 141.479 26.2605 141.12 26.2605 140.677C26.2605 140.234 25.9013 139.874 25.4583 139.874C25.0152 139.874 24.656 140.234 24.656 140.677C24.656 141.12 25.0152 141.479 25.4583 141.479Z" fill="#BB2E26"/>
<path d="M15.3858 124.698C15.8288 124.698 16.188 124.338 16.188 123.895C16.188 123.452 15.8288 123.093 15.3858 123.093C14.9427 123.093 14.5835 123.452 14.5835 123.895C14.5835 124.338 14.9427 124.698 15.3858 124.698Z" fill="#BB2E26"/>
<path d="M18.1396 141.329L22.7701 122.821" stroke="#BB2E26" stroke-width="0.534823" stroke-miterlimit="10"/>
<path d="M17.9848 142.591C18.4279 142.591 18.787 142.232 18.787 141.788C18.787 141.345 18.4279 140.986 17.9848 140.986C17.5417 140.986 17.1826 141.345 17.1826 141.788C17.1826 142.232 17.5417 142.591 17.9848 142.591Z" fill="#BB2E26"/>
<path d="M22.7325 123.604C23.1756 123.604 23.5348 123.245 23.5348 122.802C23.5348 122.359 23.1756 122 22.7325 122C22.2895 122 21.9303 122.359 21.9303 122.802C21.9303 123.245 22.2895 123.604 22.7325 123.604Z" fill="#BB2E26"/>
<path d="M12.3504 137.078L28.7094 127.264" stroke="#BB2E26" stroke-width="0.534823" stroke-miterlimit="10"/>
<path d="M11.9141 138.096C12.3572 138.096 12.7163 137.737 12.7163 137.294C12.7163 136.851 12.3572 136.492 11.9141 136.492C11.471 136.492 11.1119 136.851 11.1119 137.294C11.1119 137.737 11.471 138.096 11.9141 138.096Z" fill="#BB2E26"/>
<path d="M28.6953 128.028C29.1384 128.028 29.4976 127.669 29.4976 127.226C29.4976 126.783 29.1384 126.424 28.6953 126.424C28.2523 126.424 27.8931 126.783 27.8931 127.226C27.8931 127.669 28.2523 128.028 28.6953 128.028Z" fill="#BB2E26"/>
<path d="M11.262 129.98L29.7697 134.606" stroke="#BB2E26" stroke-width="0.534823" stroke-miterlimit="10"/>
<path d="M10.8022 130.623C11.2453 130.623 11.6045 130.264 11.6045 129.821C11.6045 129.378 11.2453 129.018 10.8022 129.018C10.3592 129.018 10 129.378 10 129.821C10 130.264 10.3592 130.623 10.8022 130.623Z" fill="#BB2E26"/>
<path d="M29.7884 135.371C30.2315 135.371 30.5907 135.011 30.5907 134.568C30.5907 134.125 30.2315 133.766 29.7884 133.766C29.3454 133.766 28.9862 134.125 28.9862 134.568C28.9862 135.011 29.3454 135.371 29.7884 135.371Z" fill="#BB2E26"/>
<path d="M420.028 16.5862L401.487 12.0871" stroke="#7CAAA3" stroke-width="0.534823" stroke-miterlimit="10"/>
<path d="M420.488 17.5432C420.931 17.5432 421.29 17.1841 421.29 16.741C421.29 16.2979 420.931 15.9388 420.488 15.9388C420.045 15.9388 419.686 16.2979 419.686 16.741C419.686 17.1841 420.045 17.5432 420.488 17.5432Z" fill="#7CAAA3"/>
<path d="M401.469 12.9269C401.912 12.9269 402.271 12.5677 402.271 12.1246C402.271 11.6816 401.912 11.3224 401.469 11.3224C401.026 11.3224 400.666 11.6816 400.666 12.1246C400.666 12.5677 401.026 12.9269 401.469 12.9269Z" fill="#7CAAA3"/>
<path d="M415.82 22.4036L405.888 6.11493" stroke="#7CAAA3" stroke-width="0.534823" stroke-miterlimit="10"/>
<path d="M416.036 23.6421C416.479 23.6421 416.838 23.2829 416.838 22.8399C416.838 22.3968 416.479 22.0376 416.036 22.0376C415.592 22.0376 415.233 22.3968 415.233 22.8399C415.233 23.2829 415.592 23.6421 416.036 23.6421Z" fill="#7CAAA3"/>
<path d="M405.85 6.93124C406.294 6.93124 406.653 6.57206 406.653 6.129C406.653 5.68594 406.294 5.32677 405.85 5.32677C405.407 5.32677 405.048 5.68594 405.048 6.129C405.048 6.57206 405.407 6.93124 405.85 6.93124Z" fill="#7CAAA3"/>
<path d="M408.726 23.5436L413.225 5.00305" stroke="#7CAAA3" stroke-width="0.534823" stroke-miterlimit="10"/>
<path d="M408.572 24.8056C409.015 24.8056 409.374 24.4464 409.374 24.0033C409.374 23.5603 409.015 23.2011 408.572 23.2011C408.128 23.2011 407.769 23.5603 407.769 24.0033C407.769 24.4464 408.128 24.8056 408.572 24.8056Z" fill="#7CAAA3"/>
<path d="M413.188 5.78652C413.631 5.78652 413.99 5.42735 413.99 4.98429C413.99 4.54122 413.631 4.18205 413.188 4.18205C412.745 4.18205 412.386 4.54122 412.386 4.98429C412.386 5.42735 412.745 5.78652 413.188 5.78652Z" fill="#7CAAA3"/>
<path d="M402.904 19.3307L419.198 9.40361" stroke="#7CAAA3" stroke-width="0.534823" stroke-miterlimit="10"/>
<path d="M402.473 20.3487C402.916 20.3487 403.275 19.9895 403.275 19.5465C403.275 19.1034 402.916 18.7442 402.473 18.7442C402.03 18.7442 401.67 19.1034 401.67 19.5465C401.67 19.9895 402.03 20.3487 402.473 20.3487Z" fill="#7CAAA3"/>
<path d="M419.184 10.1636C419.627 10.1636 419.986 9.80445 419.986 9.36139C419.986 8.91833 419.627 8.55916 419.184 8.55916C418.74 8.55916 418.381 8.91833 418.381 9.36139C418.381 9.80445 418.74 10.1636 419.184 10.1636Z" fill="#7CAAA3"/>
<path d="M140.517 20.4238L122.685 27.1982" stroke="#7CAAA3" stroke-width="0.534823" stroke-miterlimit="10"/>
<path d="M140.982 21.09C141.425 21.09 141.784 20.7308 141.784 20.2877C141.784 19.8447 141.425 19.4855 140.982 19.4855C140.539 19.4855 140.179 19.8447 140.179 20.2877C140.179 20.7308 140.539 21.09 140.982 21.09Z" fill="#7CAAA3"/>
<path d="M122.69 28.0427C123.133 28.0427 123.492 27.6835 123.492 27.2404C123.492 26.7974 123.133 26.4382 122.69 26.4382C122.247 26.4382 121.888 26.7974 121.888 27.2404C121.888 27.6835 122.247 28.0427 122.69 28.0427Z" fill="#7CAAA3"/>
<path d="M140.334 27.6017L122.934 19.7857" stroke="#7CAAA3" stroke-width="0.534823" stroke-miterlimit="10"/>
<path d="M140.761 28.6432C141.204 28.6432 141.563 28.284 141.563 27.8409C141.563 27.3979 141.204 27.0387 140.761 27.0387C140.318 27.0387 139.959 27.3979 139.959 27.8409C139.959 28.284 140.318 28.6432 140.761 28.6432Z" fill="#7CAAA3"/>
<path d="M122.91 20.6208C123.353 20.6208 123.713 20.2616 123.713 19.8186C123.713 19.3755 123.353 19.0163 122.91 19.0163C122.467 19.0163 122.108 19.3755 122.108 19.8186C122.108 20.2616 122.467 20.6208 122.91 20.6208Z" fill="#7CAAA3"/>
<path d="M135.132 32.5558L128.352 14.719" stroke="#7CAAA3" stroke-width="0.534823" stroke-miterlimit="10"/>
<path d="M135.263 33.8225C135.706 33.8225 136.065 33.4633 136.065 33.0203C136.065 32.5772 135.706 32.218 135.263 32.218C134.82 32.218 134.461 32.5772 134.461 33.0203C134.461 33.4633 134.82 33.8225 135.263 33.8225Z" fill="#7CAAA3"/>
<path d="M128.31 15.5306C128.753 15.5306 129.112 15.1714 129.112 14.7284C129.112 14.2853 128.753 13.9261 128.31 13.9261C127.867 13.9261 127.508 14.2853 127.508 14.7284C127.508 15.1714 127.867 15.5306 128.31 15.5306Z" fill="#7CAAA3"/>
<path d="M127.949 32.3728L135.77 14.9723" stroke="#7CAAA3" stroke-width="0.534823" stroke-miterlimit="10"/>
<path d="M127.714 33.5973C128.157 33.5973 128.517 33.2381 128.517 32.7951C128.517 32.352 128.157 31.9928 127.714 31.9928C127.271 31.9928 126.912 32.352 126.912 32.7951C126.912 33.2381 127.271 33.5973 127.714 33.5973Z" fill="#7CAAA3"/>
<path d="M135.732 15.7464C136.175 15.7464 136.534 15.3873 136.534 14.9442C136.534 14.5011 136.175 14.142 135.732 14.142C135.289 14.142 134.93 14.5011 134.93 14.9442C134.93 15.3873 135.289 15.7464 135.732 15.7464Z" fill="#7CAAA3"/>
<path d="M266.717 59.3626L248.885 66.1371" stroke="#7CAAA3" stroke-width="0.534823" stroke-miterlimit="10"/>
<path d="M267.181 60.0288C267.624 60.0288 267.983 59.6697 267.983 59.2266C267.983 58.7835 267.624 58.4244 267.181 58.4244C266.738 58.4244 266.379 58.7835 266.379 59.2266C266.379 59.6697 266.738 60.0288 267.181 60.0288Z" fill="#7CAAA3"/>
<path d="M248.889 66.9815C249.332 66.9815 249.692 66.6224 249.692 66.1793C249.692 65.7362 249.332 65.3771 248.889 65.3771C248.446 65.3771 248.087 65.7362 248.087 66.1793C248.087 66.6224 248.446 66.9815 248.889 66.9815Z" fill="#7CAAA3"/>
<path d="M266.534 66.5405L249.133 58.7246" stroke="#7CAAA3" stroke-width="0.534823" stroke-miterlimit="10"/>
<path d="M266.961 67.582C267.404 67.582 267.763 67.2229 267.763 66.7798C267.763 66.3367 267.404 65.9776 266.961 65.9776C266.518 65.9776 266.158 66.3367 266.158 66.7798C266.158 67.2229 266.518 67.582 266.961 67.582Z" fill="#7CAAA3"/>
<path d="M249.11 59.5597C249.553 59.5597 249.912 59.2005 249.912 58.7575C249.912 58.3144 249.553 57.9552 249.11 57.9552C248.667 57.9552 248.308 58.3144 248.308 58.7575C248.308 59.2005 248.667 59.5597 249.11 59.5597Z" fill="#7CAAA3"/>
<path d="M261.331 71.49L254.552 53.6579" stroke="#7CAAA3" stroke-width="0.534823" stroke-miterlimit="10"/>
<path d="M261.462 72.7614C261.905 72.7614 262.265 72.4022 262.265 71.9591C262.265 71.5161 261.905 71.1569 261.462 71.1569C261.019 71.1569 260.66 71.5161 260.66 71.9591C260.66 72.4022 261.019 72.7614 261.462 72.7614Z" fill="#7CAAA3"/>
<path d="M254.51 54.4648C254.953 54.4648 255.312 54.1056 255.312 53.6626C255.312 53.2195 254.953 52.8603 254.51 52.8603C254.067 52.8603 253.707 53.2195 253.707 53.6626C253.707 54.1056 254.067 54.4648 254.51 54.4648Z" fill="#7CAAA3"/>
<path d="M254.148 71.3117L261.969 53.9112" stroke="#7CAAA3" stroke-width="0.534823" stroke-miterlimit="10"/>
<path d="M253.914 72.5362C254.357 72.5362 254.716 72.177 254.716 71.734C254.716 71.2909 254.357 70.9317 253.914 70.9317C253.471 70.9317 253.112 71.2909 253.112 71.734C253.112 72.177 253.471 72.5362 253.914 72.5362Z" fill="#7CAAA3"/>
<path d="M261.931 54.6853C262.375 54.6853 262.734 54.3261 262.734 53.8831C262.734 53.44 262.375 53.0808 261.931 53.0808C261.488 53.0808 261.129 53.44 261.129 53.8831C261.129 54.3261 261.488 54.6853 261.931 54.6853Z" fill="#7CAAA3"/>
<path d="M489.142 14.5313C490.179 14.5313 491.019 13.6912 491.019 12.6548C491.019 11.6184 490.179 10.7782 489.142 10.7782C488.106 10.7782 487.266 11.6184 487.266 12.6548C487.266 13.6912 488.106 14.5313 489.142 14.5313Z" fill="#DCCDAA"/>
<path d="M547.316 93.8165C548.352 93.8165 549.192 92.9763 549.192 91.9399C549.192 90.9035 548.352 90.0634 547.316 90.0634C546.279 90.0634 545.439 90.9035 545.439 91.9399C545.439 92.9763 546.279 93.8165 547.316 93.8165Z" fill="#DCCDAA"/>
<path d="M102.099 62.3839C103.136 62.3839 103.976 61.5438 103.976 60.5074C103.976 59.471 103.136 58.6308 102.099 58.6308C101.063 58.6308 100.223 59.471 100.223 60.5074C100.223 61.5438 101.063 62.3839 102.099 62.3839Z" fill="#DCCDAA"/>
<path d="M178.1 8.90163C179.137 8.90163 179.977 8.06146 179.977 7.02506C179.977 5.98865 179.137 5.14848 178.1 5.14848C177.064 5.14848 176.224 5.98865 176.224 7.02506C176.224 8.06146 177.064 8.90163 178.1 8.90163Z" fill="#DCCDAA"/>
<path d="M317.877 82.7531C318.913 82.7531 319.753 81.913 319.753 80.8766C319.753 79.8402 318.913 79 317.877 79C316.84 79 316 79.8402 316 80.8766C316 81.913 316.84 82.7531 317.877 82.7531Z" fill="#DCCDAA"/>
<path d="M125.556 62.3839C126.593 62.3839 127.433 61.5438 127.433 60.5074C127.433 59.471 126.593 58.6308 125.556 58.6308C124.52 58.6308 123.68 59.471 123.68 60.5074C123.68 61.5438 124.52 62.3839 125.556 62.3839Z" fill="#7CAAA3"/>
<path d="M255.509 8.90163C256.545 8.90163 257.385 8.06146 257.385 7.02506C257.385 5.98865 256.545 5.14848 255.509 5.14848C254.473 5.14848 253.632 5.98865 253.632 7.02506C253.632 8.06146 254.473 8.90163 255.509 8.90163Z" fill="#7CAAA3"/>
<path d="M340.893 69.8902C341.929 69.8902 342.77 69.05 342.77 68.0136C342.77 66.9772 341.929 66.1371 340.893 66.1371C339.857 66.1371 339.016 66.9772 339.016 68.0136C339.016 69.05 339.857 69.8902 340.893 69.8902Z" fill="#7CAAA3"/>
<path d="M418.877 90.7531C419.913 90.7531 420.753 89.913 420.753 88.8766C420.753 87.8402 419.913 87 418.877 87C417.84 87 417 87.8402 417 88.8766C417 89.913 417.84 90.7531 418.877 90.7531Z" fill="#7CAAA3"/>
<path d="M63.6294 129.002C64.6658 129.002 65.506 128.162 65.506 127.126C65.506 126.089 64.6658 125.249 63.6294 125.249C62.593 125.249 61.7529 126.089 61.7529 127.126C61.7529 128.162 62.593 129.002 63.6294 129.002Z" fill="#7CAAA3"/>
<path d="M123.68 5.61763C124.716 5.61763 125.556 4.77746 125.556 3.74106C125.556 2.70466 124.716 1.86449 123.68 1.86449C122.643 1.86449 121.803 2.70466 121.803 3.74106C121.803 4.77746 122.643 5.61763 123.68 5.61763Z" fill="#BB2E26"/>
<path d="M204.841 10.3091C205.878 10.3091 206.718 9.46888 206.718 8.43248C206.718 7.39608 205.878 6.55591 204.841 6.55591C203.805 6.55591 202.965 7.39608 202.965 8.43248C202.965 9.46888 203.805 10.3091 204.841 10.3091Z" fill="#BB2E26"/>
<path d="M541.217 7.02506C542.253 7.02506 543.094 6.18489 543.094 5.14848C543.094 4.11208 542.253 3.27191 541.217 3.27191C540.181 3.27191 539.34 4.11208 539.34 5.14848C539.34 6.18489 540.181 7.02506 541.217 7.02506Z" fill="#BB2E26"/>
<path d="M30.3203 36.5811C31.3567 36.5811 32.1969 35.7409 32.1969 34.7045C32.1969 33.6681 31.3567 32.8279 30.3203 32.8279C29.2839 32.8279 28.4437 33.6681 28.4437 34.7045C28.4437 35.7409 29.2839 36.5811 30.3203 36.5811Z" fill="#BB2E26"/>
<path d="M488.673 77.3965C489.709 77.3965 490.55 76.5563 490.55 75.5199C490.55 74.4835 489.709 73.6434 488.673 73.6434C487.637 73.6434 486.796 74.4835 486.796 75.5199C486.796 76.5563 487.637 77.3965 488.673 77.3965Z" fill="#BB2E26"/>
</g>
<defs>
<clipPath id="clip0_52_1939">
<rect width="564" height="211" fill="white"/>
</clipPath>
</defs>
</svg>
