<svg width="1000" height="1000" viewBox="0 0 1000 1000" fill="none" xmlns="http://www.w3.org/2000/svg">
<path d="M362.961 871.864L340.463 872.375L334.087 693.668H372.153L362.961 871.864Z" fill="#754B4B"/>
<g opacity="0.2">
<path opacity="0.2" d="M362.961 871.864L357.962 871.495L356.712 694.267L372.153 693.668L362.961 871.864Z" fill="#212121"/>
</g>
<path d="M576.452 674.573C487.473 621.087 391.113 455.758 353.12 314.744C309.244 455.757 210.165 618.66 129.787 679.442C139.346 689.092 152.962 700.834 176.594 713.828C189.89 710.512 221.963 683.036 228.805 677.235C227.912 683.037 204.558 715.464 190.872 724.985C194.333 726.712 197.478 728.655 201.137 730.34C208.005 729.965 239.069 708.475 239.069 708.475C239.069 708.475 227.753 732.49 223.004 736.588C260.248 752.264 298.471 760.102 347.463 760.103C402.402 760.103 460.287 746.112 502.359 726.77C486.126 711.31 475.583 688.839 475.583 688.839C475.583 688.839 500.575 710.704 518.389 714.557C545.088 700.39 565.518 685.61 576.452 674.573Z" fill="#26A69A"/>
<path d="M525.331 501.782C456.72 460.542 382.417 333.062 353.12 224.323C319.29 333.062 242.89 458.67 180.907 505.539C196.947 521.728 242.79 551.148 300.516 562.797C311.808 558.979 328.319 521.048 328.319 521.048C328.319 521.048 325.195 555.857 319.431 566.104C323.235 566.551 328.862 566.911 332.74 567.179C340.369 562.997 347.508 544.253 347.508 544.253C347.508 544.253 347.955 558.087 348.758 567.736C381.023 567.736 412.482 560.61 439.978 550.626C441.223 539.79 429.173 515.694 429.173 515.694C429.173 515.694 453.271 541.13 466.035 539.846C493.727 526.942 515.012 512.2 525.331 501.782Z" fill="#26A69A"/>
<path d="M348.508 567.756C347.724 559.945 347.22 552.115 346.811 544.275L348.159 544.501C347.345 546.693 346.451 548.823 345.493 550.943C344.534 553.058 343.507 555.148 342.377 557.192C341.247 559.235 340.019 561.239 338.592 563.14C337.874 564.088 337.107 565.011 336.25 565.878C335.82 566.311 335.361 566.724 334.881 567.123L334.122 567.691L333.304 568.208L333.048 568.37L332.658 568.35C328.212 568.122 323.767 567.908 319.27 567.465L317.265 567.267L318.235 565.43C319.054 563.878 319.68 562.114 320.228 560.333C320.773 558.544 321.237 556.712 321.649 554.863C322.478 551.165 323.134 547.406 323.713 543.635C324.289 539.862 324.778 536.07 325.214 532.271C325.645 528.476 326.027 524.654 326.332 520.869L330.147 521.843C329.301 523.839 328.439 525.778 327.55 527.727C326.661 529.671 325.75 531.605 324.815 533.529C322.94 537.375 321.001 541.196 318.898 544.953C316.791 548.708 314.54 552.406 311.903 555.935C310.587 557.703 309.168 559.424 307.522 561.041C306.699 561.85 305.819 562.635 304.826 563.364C303.83 564.086 302.698 564.75 301.335 565.219L300.677 565.446L300.03 565.308C297.49 564.766 295.023 564.209 292.549 563.568C290.077 562.944 287.615 562.286 285.16 561.606C282.704 560.929 280.264 560.2 277.834 559.431C276.618 559.052 275.402 558.675 274.194 558.269C272.985 557.867 271.771 557.485 270.571 557.055L266.973 555.765C265.773 555.339 264.588 554.865 263.395 554.418C262.203 553.97 261.021 553.493 259.848 552.995L256.324 551.517L252.845 549.931C251.682 549.415 250.548 548.827 249.408 548.261C248.274 547.681 247.13 547.129 246.023 546.494L242.702 544.617C242.581 544.549 242.539 544.396 242.607 544.276C242.669 544.167 242.8 544.122 242.914 544.165L242.924 544.169L246.469 545.525C247.635 546.005 248.836 546.403 250.024 546.827C251.216 547.242 252.385 547.703 253.591 548.078L257.177 549.263L260.782 550.386C261.979 550.77 263.191 551.112 264.4 551.461C265.609 551.81 266.807 552.185 268.023 552.513L271.662 553.508C274.099 554.136 276.518 554.814 278.964 555.401C280.184 555.705 281.402 556.011 282.629 556.291L286.296 557.163C288.743 557.735 291.195 558.284 293.653 558.799C296.104 559.309 298.581 559.833 301.002 560.289L299.696 560.377C300.992 559.899 302.519 558.698 303.873 557.349C305.244 555.983 306.535 554.424 307.781 552.815C310.256 549.57 312.534 546.077 314.712 542.513C316.884 538.942 318.948 535.28 320.902 531.556C321.88 529.694 322.836 527.819 323.77 525.933C324.701 524.051 325.624 522.141 326.49 520.256L331.611 509.095L330.305 521.231C329.889 525.098 329.402 528.913 328.862 532.743C328.319 536.567 327.72 540.385 327.033 544.194C326.343 548.002 325.575 551.802 324.619 555.58C324.144 557.469 323.614 559.352 322.988 561.224C322.354 563.095 321.651 564.957 320.625 566.782L319.59 564.747C323.941 565.3 328.387 565.617 332.819 566.013L332.173 566.155L332.829 565.771L333.47 565.325C333.888 565.001 334.298 564.658 334.694 564.286C335.484 563.541 336.223 562.713 336.927 561.848C338.33 560.109 339.586 558.215 340.753 556.265C341.922 554.314 343 552.298 344.016 550.25C345.027 548.203 345.99 546.111 346.854 544.011L348.136 540.896L348.202 544.237C348.358 552.065 348.538 559.904 349.004 567.723C349.012 567.861 348.907 567.979 348.769 567.987C348.637 567.989 348.521 567.889 348.508 567.756Z" fill="white"/>
<path d="M480.139 350.363C429.538 319.945 374.727 225.92 353.121 145.721C328.168 225.92 271.82 318.572 226.102 353.134C231.415 358.499 241.165 365.833 254.153 373.064C262.721 372.446 286.075 350.73 286.075 350.73C286.075 350.73 273.877 372.746 265.517 378.936C272.883 382.459 280.984 385.815 289.668 388.739C296.189 385.538 310.023 369.993 310.023 369.993C310.023 369.993 306.304 386.728 300.222 391.983C315.546 396.255 332.347 399.015 349.902 399.014C391.679 399.014 431.624 382.817 457.139 367.443C453.717 363.967 442.56 349.242 442.56 349.242C442.56 349.242 462.195 360.398 467.632 360.617C472.914 356.892 477.151 353.381 480.139 350.363Z" fill="#26A69A"/>
<path d="M265.517 378.935C272.883 382.458 280.984 385.814 289.668 388.738C296.189 385.537 310.023 369.992 310.023 369.992C310.023 369.992 306.304 386.727 300.222 391.982C315.546 396.254 332.347 399.014 349.902 399.013C391.679 399.013 431.624 382.816 457.139 367.442L265.517 378.935Z" fill="#26A69A"/>
<path d="M265.624 378.709C273.531 382.307 281.641 385.424 289.893 388.07L289.357 388.105C289.828 387.815 290.309 387.566 290.771 387.25C291.228 386.919 291.693 386.612 292.142 386.265L293.475 385.205L294.773 384.086C296.485 382.567 298.148 380.982 299.77 379.35C303.009 376.087 306.15 372.691 309.166 369.23L312.078 365.889L311.141 370.24C310.702 372.279 310.187 374.25 309.617 376.233C309.047 378.21 308.392 380.166 307.658 382.104C307.301 383.076 306.888 384.032 306.48 384.991C306.032 385.938 305.612 386.895 305.084 387.819C304.829 388.284 304.59 388.754 304.288 389.204C303.991 389.655 303.731 390.12 303.4 390.559C303.063 390.996 302.735 391.436 302.385 391.867L301.184 393.094L300.617 390.564C313.686 394.017 327.086 396.196 340.54 396.77C343.885 396.912 347.309 396.947 350.588 396.874C353.977 396.714 357.434 396.704 360.725 396.336C362.389 396.18 364.047 396.065 365.711 395.879L370.709 395.223C372.377 395.028 374.035 394.755 375.69 394.465L380.658 393.626L385.6 392.63C387.254 392.336 388.891 391.95 390.528 391.566C392.162 391.172 393.809 390.832 395.442 390.428L400.328 389.16C401.963 388.762 403.576 388.276 405.196 387.816C406.81 387.336 408.446 386.926 410.044 386.389C413.253 385.359 416.474 384.356 419.654 383.222C421.254 382.681 422.846 382.121 424.419 381.506L429.167 379.727C432.307 378.474 435.449 377.215 438.556 375.868L440.895 374.872L443.207 373.816C444.75 373.115 446.317 372.453 447.836 371.698C449.358 370.95 450.914 370.257 452.435 369.499L457.01 367.227L457.016 367.224C457.14 367.162 457.29 367.213 457.351 367.337C457.408 367.451 457.37 367.587 457.267 367.656L453.02 370.531C451.588 371.466 450.133 372.364 448.676 373.263C447.229 374.18 445.731 375.006 444.253 375.873C442.771 376.733 441.272 377.564 439.753 378.355C436.749 380.012 433.655 381.49 430.566 382.989C427.448 384.417 424.329 385.864 421.132 387.122C419.537 387.759 417.959 388.443 416.348 389.043L411.501 390.806C409.892 391.414 408.239 391.897 406.609 392.448C404.97 392.973 403.346 393.55 401.682 393.993L396.709 395.395C395.048 395.852 393.364 396.224 391.689 396.624C388.349 397.48 384.941 398.041 381.557 398.696C379.858 398.988 378.145 399.207 376.439 399.456C374.732 399.705 373.027 399.957 371.305 400.092L366.155 400.587C364.43 400.72 362.687 400.782 360.956 400.882C357.462 401.132 354.102 401.059 350.686 401.117C347.158 401.099 343.771 400.952 340.318 400.722C326.571 399.793 312.991 397.23 299.824 393.399L297.388 392.69L299.257 390.868L300.209 389.941L301.086 388.864C301.377 388.501 301.623 388.081 301.895 387.692C302.172 387.307 302.403 386.875 302.647 386.456C303.149 385.629 303.568 384.733 304.01 383.857C304.419 382.957 304.834 382.06 305.2 381.134C305.952 379.294 306.63 377.411 307.239 375.503C307.852 373.602 308.425 371.658 308.902 369.742L310.877 370.752C307.701 374.171 304.445 377.474 301.059 380.675C299.366 382.273 297.627 383.829 295.828 385.325L294.461 386.43L293.043 387.486C292.565 387.832 292.055 388.148 291.563 388.48C291.06 388.802 290.504 389.073 289.978 389.369L289.732 389.507L289.442 389.404C281.217 386.496 273.19 383.058 265.409 379.159C265.285 379.098 265.234 378.948 265.296 378.824C265.355 378.705 265.501 378.654 265.624 378.709Z" fill="white"/>
<path d="M441.452 226.581C406.259 205.425 368.145 123.77 353.12 68C335.767 123.77 296.582 204.472 264.788 228.509C275.205 239.023 310.119 260.411 350.884 260.411C350.334 252.552 352.416 232.621 352.416 232.621C352.416 232.621 362.234 256.718 370.56 258.778C375.425 257.989 380.19 256.942 384.811 255.699C380.976 248.685 379.192 235.298 379.192 235.298C379.192 235.298 390.199 249.578 396.045 252.214C417.454 244.696 434.418 233.679 441.452 226.581Z" fill="#26A69A"/>
<path d="M264.788 228.509C275.205 239.023 310.119 260.411 350.884 260.411C350.334 252.552 352.416 232.621 352.416 232.621C352.416 232.621 362.234 256.718 370.56 258.778C375.425 257.989 380.19 256.942 384.811 255.699C380.976 248.685 379.192 235.298 379.192 235.298C379.192 235.298 390.199 249.578 396.045 252.214C417.453 244.696 434.418 233.679 441.452 226.581L264.788 228.509Z" fill="#26A69A"/>
<path d="M264.959 228.327L267.127 230.295L269.392 232.118C270.131 232.74 270.95 233.277 271.73 233.855C272.522 234.418 273.293 235.01 274.118 235.527C275.744 236.594 277.356 237.679 279.043 238.65L281.547 240.144L284.107 241.541C285.798 242.499 287.545 243.354 289.288 244.212C291.015 245.104 292.798 245.879 294.572 246.669C296.332 247.49 298.138 248.205 299.946 248.914L302.651 249.989L305.4 250.947C307.231 251.587 309.055 252.247 310.923 252.767L313.709 253.599C314.635 253.884 315.564 254.155 316.509 254.371L322.15 255.755L327.845 256.87C329.739 257.259 331.667 257.443 333.575 257.74C334.533 257.866 335.485 258.032 336.446 258.125L339.332 258.363C341.257 258.496 343.174 258.752 345.104 258.735L350.884 258.855L349.333 260.519C349.249 259.304 349.212 258.109 349.198 256.925C349.199 255.745 349.203 254.565 349.237 253.394C349.296 251.049 349.394 248.713 349.529 246.383C349.792 241.719 350.14 237.084 350.558 232.427L351.219 225.074L354.148 231.916C354.66 233.111 355.222 234.343 355.789 235.546C356.358 236.754 356.946 237.954 357.552 239.142C358.76 241.521 360.046 243.855 361.425 246.109C362.806 248.357 364.284 250.535 365.919 252.482C366.333 252.959 366.748 253.431 367.181 253.868C367.612 254.303 368.05 254.727 368.501 255.088C368.945 255.464 369.405 255.79 369.852 256.038C370.301 256.31 370.728 256.45 371.111 256.565L370.199 256.528C372.552 256.108 374.894 255.623 377.222 255.08C379.551 254.54 381.862 253.924 384.167 253.291L382.627 256.894L381.956 255.585C381.734 255.148 381.562 254.71 381.363 254.272C381.162 253.834 380.996 253.396 380.828 252.957C380.662 252.518 380.482 252.079 380.339 251.64C380.028 250.761 379.742 249.881 379.48 249C379.213 248.119 378.969 247.237 378.737 246.353C378.262 244.588 377.876 242.814 377.533 241.033C377.358 240.143 377.198 239.252 377.047 238.358C376.895 237.457 376.755 236.584 376.626 235.64L375.33 226.174L381.245 233.717L383.054 236.024L384.919 238.315C386.177 239.829 387.469 241.309 388.767 242.772C389.422 243.496 390.079 244.216 390.753 244.91C391.086 245.266 391.424 245.608 391.768 245.941C392.111 246.273 392.446 246.63 392.796 246.941L393.84 247.899L394.902 248.778C395.256 249.059 395.61 249.29 395.963 249.552C396.314 249.79 396.64 249.941 396.975 250.152L395.297 250.08L398.361 249.036C399.388 248.703 400.393 248.309 401.41 247.944C402.426 247.578 403.439 247.202 404.44 246.796C405.441 246.392 406.457 246.018 407.449 245.59L410.442 244.339L413.411 243.027C414.401 242.588 415.372 242.112 416.355 241.656C417.341 241.207 418.299 240.702 419.272 240.227C421.216 239.269 423.143 238.273 425.037 237.218C425.994 236.706 426.928 236.157 427.87 235.618C428.82 235.09 429.747 234.53 430.675 233.966C431.613 233.416 432.516 232.816 433.433 232.233C434.349 231.649 435.23 231.018 436.131 230.408C437 229.761 437.895 229.139 438.746 228.466C439.62 227.816 440.443 227.111 441.275 226.405L441.284 226.397C441.389 226.308 441.547 226.321 441.637 226.426C441.719 226.523 441.714 226.665 441.63 226.757C440.887 227.569 440.142 228.389 439.346 229.153C438.578 229.953 437.73 230.655 436.916 231.404C436.071 232.11 435.239 232.842 434.373 233.525C433.507 234.208 432.65 234.909 431.76 235.56C430 236.894 428.202 238.183 426.349 239.384C424.511 240.61 422.634 241.778 420.736 242.909C419.781 243.464 418.834 244.037 417.861 244.561C416.891 245.09 415.93 245.641 414.951 246.153L412.009 247.688L409.026 249.144C408.032 249.633 407.014 250.066 406.008 250.53C405.003 250.996 403.986 251.433 402.964 251.86C401.942 252.286 400.929 252.74 399.893 253.134L396.795 254.344L395.913 254.689L395.117 254.272C394.582 253.992 393.998 253.716 393.511 253.408C393.046 253.095 392.554 252.788 392.114 252.462L390.828 251.469L389.623 250.439C389.214 250.098 388.851 249.736 388.462 249.386C388.076 249.034 387.698 248.678 387.334 248.315C386.588 247.597 385.872 246.863 385.158 246.127C383.737 244.651 382.378 243.131 381.047 241.593L379.076 239.265C378.426 238.476 377.786 237.707 377.141 236.879L381.76 234.956C381.874 235.766 382.015 236.642 382.162 237.486C382.308 238.337 382.464 239.189 382.634 240.036C382.978 241.729 383.336 243.42 383.742 245.086C383.945 245.919 384.16 246.748 384.393 247.565C384.622 248.386 384.87 249.194 385.136 249.99C385.259 250.396 385.411 250.778 385.552 251.17C385.693 251.561 385.833 251.953 385.998 252.323C386.159 252.693 386.303 253.085 386.478 253.439L386.999 254.504L388.39 257.348L385.459 258.108C380.674 259.348 375.816 260.306 370.925 261.03L370.403 261.107L370.012 260.992C369.097 260.723 368.259 260.354 367.557 259.907C366.835 259.469 366.203 258.981 365.625 258.472C365.033 257.967 364.51 257.433 364.002 256.893C363.495 256.352 363.03 255.796 362.571 255.236C360.779 252.982 359.274 250.619 357.88 248.216C356.495 245.809 355.228 243.36 354.035 240.882C353.438 239.643 352.862 238.396 352.304 237.141C351.745 235.88 351.21 234.635 350.684 233.327L354.273 232.816C353.757 237.397 353.306 242.013 352.943 246.612C352.758 248.914 352.61 251.214 352.5 253.508C352.442 254.656 352.413 255.797 352.386 256.938C352.373 258.075 352.384 259.2 352.434 260.303L352.514 262.037L350.883 261.967L344.956 261.711C342.977 261.682 341.02 261.378 339.054 261.198L336.109 260.887C335.13 260.77 334.16 260.579 333.186 260.429C331.244 260.083 329.282 259.848 327.36 259.409L321.59 258.126L315.899 256.547C314.946 256.299 314.011 255.996 313.079 255.678L310.279 254.75C308.401 254.166 306.572 253.442 304.738 252.738L301.987 251.685L299.283 250.515C297.477 249.743 295.676 248.965 293.921 248.082C292.153 247.23 290.379 246.394 288.662 245.441C286.929 244.523 285.194 243.608 283.516 242.59L280.978 241.104L278.499 239.522C276.83 238.493 275.235 237.349 273.63 236.225C272.816 235.679 272.055 235.058 271.273 234.467C270.502 233.859 269.701 233.3 268.964 232.641L266.724 230.722L264.616 228.69C264.517 228.594 264.514 228.436 264.61 228.336C264.704 228.24 264.859 228.237 264.959 228.327Z" fill="white"/>
<path d="M501.683 483.502C501.683 483.502 500.704 484.06 498.825 485.04C496.945 486.009 494.186 487.431 490.597 489.076C487.025 490.761 482.617 492.648 477.518 494.719C472.39 496.709 466.574 498.902 460.101 500.919C458.484 501.426 456.832 501.944 455.149 502.471C453.449 502.943 451.717 503.423 449.956 503.912C446.448 504.953 442.742 505.723 438.963 506.649C437.073 507.113 435.124 507.425 433.167 507.823C431.201 508.173 429.228 508.632 427.201 508.904C423.149 509.453 419.029 510.197 414.783 510.501C412.665 510.694 410.53 510.916 408.376 511.088C406.215 511.173 404.039 511.259 401.849 511.345C397.47 511.596 393.023 511.492 388.548 511.299C387.429 511.233 386.309 511.167 385.186 511.101C384.608 511.058 384.099 511.031 383.465 510.965L381.8 510.797L378.464 510.46C377.354 510.359 376.236 510.235 375.102 510.05C372.852 509.695 370.562 509.436 368.329 508.996C366.098 508.544 363.844 508.173 361.624 507.65C352.714 505.681 343.984 502.898 335.65 499.512C327.305 496.141 319.423 492.024 312.128 487.516C304.868 482.948 298.225 477.941 292.354 472.718C290.864 471.438 289.457 470.105 288.075 468.789C286.67 467.497 285.362 466.146 284.064 464.832C281.491 462.18 279.118 459.509 276.921 456.878C272.529 451.616 268.94 446.432 266.115 441.632C263.294 436.826 261.264 432.383 259.972 428.59C259.806 428.118 259.646 427.659 259.49 427.212C259.36 426.755 259.235 426.312 259.113 425.882C258.878 425.02 258.617 424.229 258.485 423.456C258.329 422.694 258.184 421.989 258.051 421.343C257.979 420.685 257.914 420.088 257.857 419.553C257.702 418.493 257.788 417.655 257.762 417.106C257.761 416.554 257.761 416.269 257.761 416.269H258.261C258.261 416.269 258.294 416.546 258.358 417.082C258.447 417.616 258.453 418.414 258.725 419.427C259.09 421.47 260.02 424.403 261.607 427.941C263.222 431.47 265.528 435.603 268.585 440.07C271.631 444.543 275.442 449.335 279.936 454.251C282.185 456.707 284.607 459.193 287.221 461.653C288.522 462.889 289.83 464.16 291.235 465.371C292.616 466.606 294.021 467.856 295.506 469.052C301.379 473.914 307.859 478.69 314.899 483.108C321.9 487.587 329.495 491.65 337.478 495.202C345.466 498.744 353.908 501.621 362.539 503.758C364.692 504.314 366.88 504.718 369.048 505.206C371.22 505.682 373.399 505.97 375.57 506.363L377.202 506.633L378.869 506.836L382.198 507.242L383.858 507.445C384.332 507.507 384.933 507.555 385.464 507.605C386.561 507.693 387.656 507.78 388.749 507.867C393.124 508.147 397.482 508.342 401.788 508.182C403.942 508.142 406.083 508.103 408.208 508.064C410.33 507.938 412.436 507.762 414.526 507.616C418.715 507.405 422.794 506.754 426.806 506.296C428.813 506.069 430.771 505.655 432.722 505.35C434.665 505.001 436.604 504.754 438.485 504.344C442.248 503.531 445.943 502.871 449.448 501.936C451.209 501.5 452.939 501.071 454.638 500.651C456.323 500.174 457.975 499.705 459.595 499.247C466.078 497.422 471.918 495.403 477.077 493.565C482.205 491.646 486.649 489.888 490.252 488.309C493.873 486.77 496.66 485.429 498.559 484.517C500.451 483.596 501.444 483.066 501.444 483.066L501.683 483.502Z" fill="#FFE082"/>
<path d="M518.349 624.36C518.349 624.36 518.153 624.63 517.773 625.152C517.371 625.661 516.877 626.479 516.044 627.431C514.459 629.407 511.905 632.085 508.297 635.095C504.686 638.096 499.988 641.363 494.292 644.569C488.597 647.776 481.918 650.944 474.406 653.82C470.639 655.225 466.691 656.637 462.537 657.887C461.497 658.203 460.448 658.521 459.391 658.842C458.335 659.139 457.271 659.439 456.2 659.741C454.032 660.319 451.824 660.895 449.583 661.425C440.614 663.57 431.003 665.196 420.991 666.239C410.981 667.274 400.553 667.703 389.979 667.398C384.689 667.247 379.361 666.915 374.028 666.384C368.688 665.838 363.369 665.187 358.037 664.156C355.409 663.644 352.801 663.267 350.151 662.581L346.191 661.647L344.213 661.177L342.273 660.622C337.085 659.198 331.978 657.555 326.986 655.718C316.993 652.059 307.528 647.491 298.733 642.466C289.979 637.367 281.879 631.814 274.689 625.944C271.055 623.046 267.688 620.073 264.451 617.089C262.892 615.59 261.35 614.164 259.867 612.628C259.122 611.875 258.385 611.13 257.655 610.392C256.949 609.638 256.25 608.892 255.558 608.153C250.041 602.231 245.419 596.404 241.688 590.987C237.973 585.555 235.173 580.514 233.296 576.164C231.385 571.831 230.406 568.19 230.094 565.663C229.868 564.411 229.885 563.427 229.872 562.77C229.859 562.115 229.851 561.777 229.851 561.777H230.351C230.351 561.777 230.391 562.104 230.467 562.739C230.543 563.372 230.616 564.31 230.956 565.502C231.198 566.707 231.714 568.145 232.296 569.827C232.645 570.65 233.021 571.534 233.421 572.477C233.861 573.404 234.368 574.372 234.88 575.4C237.059 579.461 240.115 584.178 244.05 589.265C247.987 594.353 252.82 599.79 258.432 605.372C259.135 606.067 259.846 606.77 260.564 607.479C261.297 608.165 262.038 608.858 262.785 609.557C264.247 610.964 265.876 612.357 267.483 613.789C270.664 616.568 274.065 619.418 277.677 622.142C284.864 627.661 292.808 632.999 301.345 637.96C309.853 642.971 319.03 647.494 328.659 651.343C333.479 653.255 338.42 654.978 343.455 656.461L345.338 657.042L347.234 657.532L351.032 658.511C353.531 659.221 356.203 659.667 358.801 660.228C363.928 661.316 369.203 662.058 374.425 662.684C379.66 663.298 384.899 663.717 390.107 663.957C400.528 664.441 410.809 664.199 420.717 663.351C430.626 662.51 440.142 661.019 449.063 659.125C451.296 658.652 453.479 658.137 455.628 657.617C456.707 657.34 457.778 657.065 458.839 656.793C459.887 656.501 460.927 656.212 461.958 655.925C466.098 654.785 470.036 653.479 473.798 652.175C481.3 649.502 487.985 646.52 493.695 643.48C499.406 640.44 504.128 637.318 507.765 634.436C511.396 631.55 513.989 628.952 515.578 627.064C516.416 626.153 516.941 625.332 517.351 624.837C517.743 624.324 517.946 624.059 517.946 624.059L518.349 624.36Z" fill="#FFE082"/>
<path d="M451.584 326.379C451.584 326.379 448.886 327.639 444.001 329.384C441.556 330.254 438.563 331.248 435.086 332.243C431.608 333.234 427.656 334.274 423.294 335.185C418.942 336.154 414.169 336.928 409.102 337.63C406.56 337.903 403.952 338.27 401.268 338.421C399.927 338.517 398.571 338.615 397.202 338.713C395.829 338.762 394.445 338.811 393.048 338.86C387.449 339.063 381.688 338.937 375.776 338.421C374.321 338.266 372.888 338.181 371.4 337.967C369.916 337.75 368.415 337.56 366.93 337.315C365.458 337.036 363.982 336.758 362.505 336.478L358.109 335.447C352.268 333.968 346.557 331.975 341.096 329.625C335.634 327.277 330.454 324.492 325.708 321.389C320.976 318.264 316.655 314.859 312.867 311.303C311.932 310.401 311.011 309.511 310.103 308.635C309.227 307.728 308.364 306.834 307.515 305.956C306.707 305.039 305.912 304.139 305.133 303.255C304.384 302.343 303.637 301.461 302.932 300.575C300.117 297.024 297.843 293.527 296.06 290.302C294.284 287.071 293.034 284.087 292.252 281.549C291.477 279.009 291.109 276.942 291.06 275.513C290.977 274.81 291.063 274.252 291.052 273.89C291.062 273.525 291.068 273.337 291.068 273.337H291.568C291.568 273.337 291.595 273.518 291.648 273.868C291.723 274.216 291.729 274.734 291.929 275.392C292.212 276.717 292.865 278.611 293.925 280.903C295.003 283.19 296.525 285.874 298.548 288.767C300.556 291.67 303.058 294.779 305.983 297.988C306.728 298.777 307.489 299.582 308.265 300.403C309.068 301.196 309.887 302.004 310.72 302.825C311.572 303.626 312.438 304.441 313.317 305.268C314.225 306.064 315.146 306.872 316.08 307.691C319.881 310.891 324.051 314.068 328.576 317.044C333.083 320.042 337.926 322.872 343.047 325.37C348.167 327.87 353.596 329.951 359.161 331.591L363.364 332.719C364.78 333.033 366.194 333.347 367.606 333.661C369.018 333.94 370.428 334.163 371.835 334.418C373.24 334.668 374.724 334.806 376.156 335.005C381.819 335.681 387.53 335.993 393.01 335.965C394.384 335.96 395.746 335.955 397.095 335.95C398.444 335.896 399.78 335.842 401.102 335.789C403.749 335.721 406.326 335.442 408.846 335.285C413.867 334.795 418.615 334.222 422.957 333.439C427.31 332.712 431.265 331.841 434.754 330.999C438.24 330.146 441.253 329.289 443.723 328.547C448.662 327.041 451.387 325.922 451.387 325.922L451.584 326.379Z" fill="#FFE082"/>
<path d="M422.402 212.224C422.402 212.224 420.644 213.481 417.304 215.165C415.643 216.033 413.561 216.948 411.139 217.926C408.697 218.841 405.924 219.861 402.812 220.687C401.27 221.159 399.626 221.491 397.939 221.913C396.235 222.244 394.477 222.637 392.648 222.905C390.821 223.185 388.94 223.468 387.002 223.613C385.069 223.833 383.086 223.915 381.066 224.001C377.027 224.181 372.84 224.073 368.607 223.689C366.55 223.539 364.348 223.251 362.221 222.945C361.158 222.768 360.086 222.619 359.023 222.417L355.835 221.782C351.59 220.877 347.41 219.653 343.364 218.223C339.318 216.792 335.436 215.064 331.846 213.071C328.269 211.057 324.968 208.818 322.062 206.412C321.334 205.813 320.636 205.196 319.939 204.604C319.264 203.984 318.6 203.374 317.946 202.773C317.324 202.139 316.713 201.515 316.113 200.903C315.538 200.267 314.973 199.643 314.421 199.031C312.256 196.543 310.523 194.04 309.188 191.708C307.861 189.368 306.944 187.188 306.424 185.318C305.897 183.449 305.718 181.926 305.712 180.891C305.69 180.376 305.753 179.975 305.758 179.713C305.775 179.45 305.784 179.314 305.784 179.314H306.284C306.284 179.314 306.308 179.443 306.354 179.693C306.412 179.942 306.441 180.311 306.582 180.779C306.824 181.719 307.29 183.062 308.095 184.666C308.904 186.267 310.077 188.119 311.622 190.088C313.156 192.066 315.079 194.146 317.314 196.268C317.884 196.787 318.466 197.317 319.059 197.857C319.673 198.373 320.299 198.899 320.935 199.433C321.583 199.953 322.243 200.482 322.912 201.019C323.601 201.531 324.301 202.05 325.01 202.577C327.894 204.62 331.028 206.644 334.398 208.529C337.752 210.438 341.324 212.246 345.068 213.858C348.813 215.471 352.755 216.807 356.771 217.891L359.802 218.635C360.814 218.874 361.837 219.062 362.853 219.278C363.872 219.507 364.881 219.636 365.893 219.819C366.891 220.003 367.933 220.137 368.974 220.267C373.051 220.82 377.106 221.104 381.029 221.102C382.992 221.105 384.925 221.112 386.812 220.98C388.704 220.919 390.544 220.727 392.341 220.564C394.138 220.404 395.87 220.117 397.555 219.888C399.222 219.569 400.853 219.336 402.384 218.959C405.478 218.322 408.25 217.476 410.703 216.712C413.132 215.88 415.238 215.103 416.931 214.363C420.34 212.916 422.131 211.804 422.131 211.804L422.402 212.224Z" fill="#FFE082"/>
<path d="M409.314 445.16L408.632 458.222L421.555 465.447L407.941 466.658L406.808 481.581L398.576 469.037L385.508 471.335L394.083 460.622L389.744 451.119L399.548 454.451L409.314 445.16Z" fill="white"/>
<path d="M228.34 613.712L227.507 629.674L243.299 638.503L226.664 639.982L225.278 658.218L215.219 642.891L199.251 645.699L209.729 632.607L204.427 620.996L216.406 625.066L228.34 613.712Z" fill="white"/>
<path d="M452.642 591.775L449.918 606.632L461.391 611.147L449.496 611.786L450.454 628.022L443.775 613.238L433.893 617.086L441.029 608.097L432.331 599.275L444.368 604.327L452.642 591.775Z" fill="#FFD54F"/>
<path d="M391.553 355.079L392.423 368.528L403.896 373.045L392.001 373.682L392.022 382.264L386.28 375.136L376.398 378.983L383.535 369.994L374.836 361.172L386.874 366.224L391.553 355.079Z" fill="#FFD54F"/>
<path d="M380.14 285.637L370.085 283.359L366.68 291.056L366.581 282.924L355.479 283.119L365.751 278.981L363.406 272.132L369.336 277.254L375.6 271.57L371.812 279.637L380.14 285.637Z" fill="#FFD54F"/>
<path d="M256.401 456.87L246.346 454.593L242.941 462.291L242.841 454.16L231.74 454.354L242.013 450.216L239.667 443.366L245.598 448.489L251.86 442.805L248.074 450.873L256.401 456.87Z" fill="#FFD54F"/>
<path d="M311.397 687.691L301.342 685.413L297.937 693.11L297.837 684.979L286.735 685.174L297.008 681.036L294.663 674.186L300.593 679.308L306.856 673.625L303.07 681.691L311.397 687.691Z" fill="#FFD54F"/>
<path d="M305.277 324.639L311.224 336.289L326.028 336.08L314.845 343.938L317.862 354.614L307.928 350.685L297.762 359.215L299.827 345.646L291.316 339.59L301.47 337.57L305.277 324.639Z" fill="white"/>
<path d="M332.466 584.976L338.412 596.626L353.216 596.418L342.034 604.276L345.05 614.952L335.116 611.022L324.952 619.552L327.015 605.984L318.505 599.927L328.658 597.908L332.466 584.976Z" fill="white"/>
<path d="M467.455 662.836L473.399 674.486L488.204 674.277L477.021 682.136L480.038 692.812L470.104 688.882L459.939 697.411L462.002 683.843L453.492 677.787L463.646 675.768L467.455 662.836Z" fill="white"/>
<path d="M331.706 414.591L329.895 422.309L336.824 428.011L328.572 427.27L325.788 433.388L322.729 427.68L314.687 427.645L320.954 422.176L319.389 416.04L324.88 419.082L331.706 414.591Z" fill="white"/>
<path d="M371.702 687.066L369.89 694.784L376.82 700.486L368.569 699.744L365.784 705.863L362.725 700.156L354.683 700.12L360.95 694.651L359.386 688.516L364.875 691.559L371.702 687.066Z" fill="white"/>
<path d="M362.953 175.862L361.141 183.58L368.072 189.282L359.82 188.541L357.035 194.66L353.976 188.952L345.934 188.916L352.202 183.447L350.637 177.311L356.126 180.354L362.953 175.862Z" fill="white"/>
<path d="M284.41 213.375L292.088 221.689L304.372 218.052L296.896 227.216L301.905 235.402L292.71 234.456L286.237 243.936L284.783 232.152L276.276 229.097L284.263 225.038L284.41 213.375Z" fill="white"/>
<path d="M413.616 285.368L417.043 296.153L429.709 298.071L419.053 303.198L420.116 312.737L412.189 307.979L402.307 313.818L405.989 302.53L399.583 296.155L408.537 295.867L413.616 285.368Z" fill="white"/>
<path d="M272.152 527.978C260.791 522.105 256.342 508.133 262.215 496.772C264.673 492.016 268.555 488.476 273.067 486.394C263.88 486.184 253.583 491.254 249.079 499.966C242.782 512.147 245.683 526.32 256.957 534.125C266.268 540.572 283.458 538.166 289.083 529.688C283.624 531.231 277.591 530.791 272.152 527.978Z" fill="white"/>
<path d="M728.189 700.593C728.189 700.593 728.079 700.486 727.875 700.241C727.671 699.94 727.412 699.495 727.227 698.901C726.812 697.706 726.562 695.905 726.51 693.64C726.447 691.37 726.603 688.631 726.967 685.517C727.352 682.408 727.927 678.917 728.808 675.165C729.249 673.289 729.747 671.343 730.316 669.341C730.908 667.346 731.569 665.296 732.311 663.204C733.786 659.018 735.66 654.688 738.132 650.412C739.387 648.287 740.807 646.175 742.493 644.174C744.184 642.18 746.157 640.272 748.642 638.791C749.885 638.06 751.29 637.469 752.809 637.157C754.323 636.841 755.952 636.837 757.473 637.184C758.999 637.524 760.392 638.178 761.621 638.967L762.514 639.589C762.799 639.807 763.067 640.038 763.343 640.263C763.624 640.484 763.878 640.725 764.127 640.968C764.394 641.23 764.596 641.404 764.915 641.74C765.766 642.683 766.62 643.589 767.466 644.562C768.281 645.637 769.183 646.65 769.905 647.776L770.99 649.459C771.367 650.004 771.623 650.651 771.942 651.242C772.601 652.412 773.005 653.748 773.437 655.036C774.173 657.693 774.179 660.617 773.389 663.229C772.612 665.854 771.16 668.1 769.548 670.012C766.231 673.783 762.374 676.486 758.694 678.864C754.998 681.236 751.42 683.268 748.159 685.193C744.896 687.113 741.934 688.903 739.409 690.629C736.881 692.35 734.788 693.995 733.144 695.442C731.54 696.927 730.385 698.204 729.667 699.127L728.422 700.817L728.189 700.593ZM728.401 699.966C728.57 699.707 728.832 699.307 729.184 698.77C729.867 697.784 730.976 696.412 732.534 694.802C734.123 693.228 736.174 691.442 738.659 689.58C741.137 687.708 744.041 685.76 747.22 683.681C750.396 681.598 753.866 679.401 757.372 676.909C760.853 674.411 764.492 671.659 767.315 668.167C768.685 666.413 769.809 664.469 770.338 662.386C770.873 660.307 770.798 658.115 770.132 655.99C769.72 654.946 769.379 653.876 768.76 652.881C768.462 652.382 768.246 651.852 767.885 651.377L766.869 649.926C766.198 648.953 765.371 648.11 764.639 647.192C763.796 646.291 762.88 645.388 762.004 644.486C761.246 643.804 760.322 643.008 759.418 642.5C758.499 641.967 757.552 641.588 756.609 641.423C754.728 641.074 752.838 641.629 751.089 642.786C749.342 643.946 747.79 645.593 746.392 647.36C745.016 649.157 743.746 651.06 742.629 653.038C740.345 656.966 738.483 661.036 736.821 664.948C735.998 666.909 735.253 668.846 734.574 670.737C733.871 672.62 733.235 674.458 732.661 676.236C731.518 679.793 730.565 683.09 729.841 686.042C729.113 688.991 728.595 691.592 728.299 693.74C728.002 695.887 727.936 697.592 728.079 698.703C728.134 699.274 728.275 699.656 728.357 699.894C728.373 699.918 728.387 699.94 728.401 699.966Z" fill="#37474F"/>
<path d="M726.57 697.45C726.575 697.422 726.583 697.397 726.589 697.366C726.597 697.115 726.619 696.707 726.503 696.145C726.31 695.039 725.742 693.427 724.823 691.46C723.904 689.492 722.64 687.155 721.073 684.547C719.51 681.935 717.624 679.059 715.482 675.99C714.409 674.457 713.258 672.884 712.031 671.288C710.824 669.678 709.54 668.043 708.176 666.406C705.434 663.148 702.454 659.797 699.113 656.702C697.462 655.135 695.69 653.68 693.844 652.359C691.988 651.07 690.019 649.943 688.005 649.327C685.99 648.724 684.011 648.723 682.311 649.594C681.456 650.021 680.659 650.656 679.934 651.431C679.218 652.181 678.564 653.21 678.04 654.085C677.467 655.206 676.852 656.34 676.313 657.45L675.625 659.075C675.396 659.617 675.145 660.151 674.987 660.723L674.442 662.411C674.246 662.973 674.19 663.543 674.053 664.108C673.932 664.674 673.796 665.241 673.785 665.802C673.753 666.363 673.667 666.931 673.672 667.486C673.655 669.718 674.258 671.833 675.391 673.663C676.525 675.497 678.179 677.025 680.01 678.301C683.74 680.819 688.032 682.392 692.095 683.776C696.181 685.146 700.146 686.243 703.795 687.318C707.447 688.389 710.796 689.412 713.715 690.486C716.639 691.549 719.123 692.666 721.105 693.71C723.067 694.799 724.529 695.79 725.472 696.535C725.964 696.945 726.333 697.251 726.57 697.45ZM726.557 698.09C726.557 698.09 726.055 697.717 725.113 697.017C724.155 696.342 722.675 695.456 720.706 694.5C718.708 693.593 716.225 692.623 713.301 691.708C710.379 690.787 707.019 689.931 703.333 689.038C699.648 688.14 695.628 687.231 691.396 686.032C687.177 684.821 682.694 683.358 678.414 680.722C676.31 679.368 674.258 677.653 672.73 675.38C671.197 673.125 670.305 670.327 670.23 667.565C670.2 666.877 670.266 666.198 670.285 665.51C670.284 664.815 670.41 664.154 670.525 663.487C670.654 662.827 670.714 662.134 670.906 661.497L671.449 659.566C671.609 658.914 671.866 658.29 672.107 657.66L672.837 655.768C673.36 654.584 673.914 653.468 674.451 652.315C674.659 651.898 674.801 651.673 674.98 651.343C675.147 651.036 675.321 650.732 675.525 650.437C675.899 649.835 676.335 649.257 676.799 648.691C677.749 647.575 678.901 646.544 680.27 645.78C681.634 645.01 683.2 644.551 684.743 644.425C686.289 644.291 687.801 644.462 689.205 644.799C692.008 645.507 694.451 646.759 696.649 648.178C698.847 649.602 700.822 651.211 702.647 652.877C706.267 656.247 709.332 659.842 711.975 663.416C713.301 665.2 714.537 666.969 715.691 668.704C716.824 670.454 717.875 672.169 718.85 673.835C720.799 677.167 722.38 680.338 723.666 683.2C724.934 686.073 725.892 688.648 726.503 690.838C727.123 693.022 727.417 694.818 727.376 696.084C727.375 696.707 727.259 697.21 727.153 697.558L726.799 698.27L726.557 698.09Z" fill="#37474F"/>
<path d="M816.207 895.014C756.101 898.865 695.816 899.015 635.694 895.46C639.717 827.369 643.739 759.277 647.764 691.187C699.509 694.243 751.394 694.115 803.122 690.8C807.484 758.871 811.845 826.944 816.207 895.014Z" fill="#26A69A"/>
<path d="M728.047 689.49C728.047 689.49 728.243 692.812 728.428 698.622C728.526 701.527 728.612 705.053 728.689 709.098C728.752 713.142 728.825 717.705 728.833 722.68C728.838 725.168 728.843 727.759 728.849 730.441C728.828 733.122 728.807 735.894 728.785 738.744C728.757 744.444 728.626 750.452 728.45 756.665C728.248 762.878 727.96 769.296 727.631 775.816C727.329 782.337 727.022 788.962 726.714 795.586C726.141 808.836 725.568 822.086 725.031 834.509C724.758 840.72 724.493 846.724 724.242 852.417C723.973 858.11 723.72 863.492 723.485 868.46C722.523 888.333 721.881 901.581 721.881 901.581L721.381 901.566C721.381 901.566 721.51 888.303 721.704 868.408C721.759 863.434 721.818 858.046 721.881 852.347C721.961 846.649 722.046 840.64 722.133 834.423C722.319 821.991 722.517 808.729 722.715 795.468C722.793 788.837 722.871 782.206 722.948 775.678C722.999 769.15 723.084 762.726 723.243 756.512C723.429 750.299 723.647 744.293 723.95 738.602C724.094 735.756 724.233 732.987 724.368 730.309C724.529 727.632 724.685 725.045 724.834 722.562C725.131 717.596 725.469 713.045 725.767 709.011C726.078 704.978 726.369 701.462 726.636 698.568C727.159 692.779 727.547 689.474 727.547 689.474L728.047 689.49Z" fill="#37474F"/>
<path d="M227.594 714.6C227.622 714.634 227.068 714.181 226.728 713.156C226.361 712.14 226.121 710.61 226.052 708.686C225.977 706.759 226.078 704.432 226.368 701.789C226.671 699.149 227.139 696.186 227.874 693.003C228.241 691.411 228.658 689.76 229.134 688.06C229.634 686.368 230.195 684.629 230.824 682.853C232.074 679.3 233.676 675.626 235.81 671.999C236.904 670.202 238.116 668.403 239.592 666.712C241.063 665.023 242.779 663.4 244.969 662.163C246.061 661.552 247.29 661.051 248.624 660.807C249.953 660.555 251.377 660.577 252.699 660.896C255.384 661.542 257.433 663.141 259.08 664.847L260.185 666.022C260.56 666.45 260.951 666.872 261.309 667.306C262.025 668.171 262.726 669.053 263.361 669.998C264.645 671.866 265.746 673.941 266.363 676.238C266.995 678.523 266.983 681.066 266.267 683.313C265.57 685.576 264.282 687.477 262.875 689.075C260.011 692.257 256.715 694.507 253.581 696.49C250.431 698.461 247.392 700.153 244.622 701.753C241.85 703.349 239.338 704.841 237.191 706.274C235.04 707.702 233.255 709.067 231.868 710.284C230.486 711.507 229.514 712.586 228.898 713.356C228.586 713.738 228.365 714.045 228.22 714.255C228.072 714.463 227.995 714.57 227.995 714.57L227.594 714.6ZM227.799 713.942C227.934 713.717 228.134 713.397 228.419 712.997C229.001 712.164 229.928 710.988 231.263 709.642C232.597 708.296 234.342 706.791 236.449 705.223C238.549 703.644 241.004 701.993 243.693 700.238C246.378 698.479 249.31 696.623 252.274 694.528C255.21 692.423 258.294 690.12 260.664 687.208C261.834 685.758 262.791 684.147 263.23 682.432C263.681 680.723 263.618 678.93 263.058 677.182C262.505 675.433 261.534 673.739 260.337 672.158C259.751 671.361 259.088 670.599 258.411 669.849C258.074 669.475 257.721 669.129 257.379 668.767L256.239 667.657C254.88 666.372 253.304 665.374 251.792 665.121C250.285 664.84 248.788 665.256 247.355 666.192C245.922 667.111 244.631 668.475 243.461 669.935C242.304 671.417 241.242 673.011 240.293 674.657C238.353 677.931 236.765 681.342 235.332 684.618C234.624 686.261 233.979 687.885 233.393 689.472C232.784 691.051 232.229 692.593 231.73 694.086C230.734 697.072 229.887 699.84 229.247 702.32C228.593 704.797 228.13 706.982 227.845 708.787C227.564 710.592 227.487 712.022 227.583 712.957C227.625 713.407 227.714 713.732 227.799 713.942Z" fill="#37474F"/>
<path d="M226.207 711.829C226.225 711.603 226.214 711.266 226.12 710.822C225.932 709.897 225.429 708.551 224.62 706.906C223.807 705.262 222.711 703.307 221.347 701.128C219.994 698.942 218.359 696.542 216.518 693.975C215.596 692.693 214.607 691.379 213.554 690.046C212.521 688.699 211.422 687.333 210.256 685.967C207.911 683.25 205.38 680.446 202.555 677.873C201.159 676.572 199.672 675.351 198.126 674.261C196.574 673.196 194.936 672.254 193.287 671.771C191.634 671.276 190.064 671.286 188.702 671.975C187.325 672.635 186.106 674.048 185.184 675.675L184.419 677.075C184.198 677.523 183.962 677.957 183.75 678.416C183.323 679.334 182.914 680.26 182.593 681.197C181.921 683.065 181.501 684.976 181.511 686.812C181.499 688.653 182.008 690.38 182.964 691.881C183.917 693.386 185.314 694.65 186.872 695.692C190.012 697.785 193.642 699.102 197.074 700.271C200.529 701.425 203.883 702.36 206.97 703.275C210.06 704.185 212.895 705.061 215.368 705.972C217.846 706.87 219.956 707.81 221.629 708.714C223.301 709.619 224.534 710.476 225.336 711.105C225.726 711.405 226.011 711.654 226.207 711.829ZM226.204 712.49C226.204 712.49 226.099 712.41 225.896 712.254C225.695 712.096 225.394 711.866 224.981 711.59C224.164 711.032 222.916 710.279 221.234 709.506C219.548 708.74 217.438 707.946 214.959 707.195C212.482 706.438 209.638 705.73 206.514 704.996C203.39 704.257 199.983 703.51 196.387 702.53C192.802 701.535 188.988 700.329 185.308 698.131C183.488 697.022 181.698 695.586 180.339 693.648C178.973 691.729 178.158 689.306 178.074 686.925C177.957 684.537 178.389 682.213 179.061 680.038C179.387 678.94 179.797 677.887 180.228 676.845C180.442 676.323 180.694 675.802 180.927 675.28L181.64 673.826C182.191 672.737 182.818 671.707 183.64 670.726C184.45 669.752 185.452 668.847 186.647 668.174C187.835 667.494 189.205 667.079 190.553 666.954C191.903 666.822 193.223 666.954 194.441 667.235C196.888 667.806 198.997 668.866 200.896 670.058C202.8 671.25 204.487 672.62 206.062 674.021C209.172 676.871 211.79 679.917 214.041 682.952C215.169 684.467 216.221 685.967 217.203 687.44C218.164 688.927 219.054 690.385 219.879 691.801C221.529 694.632 222.86 697.33 223.938 699.768C225.004 702.212 225.796 704.41 226.301 706.277C226.812 708.14 227.041 709.675 226.996 710.758C226.98 711.84 226.582 712.442 226.6 712.4L226.204 712.49Z" fill="#37474F"/>
<path d="M296.163 866.107C249.246 869.113 202.19 869.231 155.261 866.456C158.402 813.307 161.541 760.157 164.683 707.008C205.073 709.393 245.572 709.293 285.95 706.706C289.354 759.84 292.758 812.975 296.163 866.107Z" fill="#FFB74D"/>
<path d="M292.227 761.801C292.227 761.801 290.136 762.005 286.483 762.203C284.656 762.308 282.439 762.402 279.897 762.488C277.355 762.56 274.488 762.644 271.364 762.663C269.801 762.674 268.174 762.685 266.489 762.696C264.806 762.682 263.066 762.667 261.276 762.651C257.697 762.636 253.927 762.519 250.029 762.358C246.132 762.17 242.108 761.897 238.021 761.584C233.933 761.297 229.78 761.005 225.627 760.713C217.319 760.171 209.012 759.63 201.224 759.122C197.33 758.863 193.566 758.612 189.996 758.375C186.427 758.12 183.053 757.878 179.938 757.656C167.481 756.74 159.176 756.13 159.176 756.13L159.197 755.63C159.197 755.63 167.523 755.729 180.013 755.876C183.135 755.919 186.517 755.966 190.095 756.015C193.672 756.082 197.444 756.153 201.346 756.225C209.149 756.382 217.473 756.549 225.797 756.716C229.959 756.779 234.122 756.841 238.22 756.903C242.319 756.939 246.351 757.008 250.25 757.153C254.147 757.324 257.914 757.528 261.481 757.818C263.265 757.955 265.001 758.088 266.679 758.217C268.357 758.372 269.977 758.521 271.533 758.665C274.645 758.95 277.495 759.277 280.021 759.566C282.546 759.868 284.747 760.15 286.559 760.41C290.182 760.919 292.248 761.299 292.248 761.299L292.227 761.801Z" fill="#37474F"/>
<path d="M227.532 705.221C227.532 705.221 227.799 707.824 228.108 712.377C228.268 714.654 228.43 717.418 228.592 720.589C228.741 723.759 228.911 727.337 229.025 731.238C229.083 733.189 229.143 735.221 229.206 737.324C229.243 739.427 229.28 741.601 229.319 743.836C229.412 748.306 229.409 753.019 229.366 757.894C229.297 762.769 229.145 767.805 228.955 772.923C228.791 778.04 228.625 783.239 228.459 788.438C228.169 798.836 227.878 809.234 227.606 818.982C227.464 823.856 227.328 828.568 227.198 833.036C227.051 837.504 226.912 841.727 226.783 845.627C226.244 861.223 225.886 871.62 225.886 871.62L225.386 871.615C225.386 871.615 225.233 861.213 225.003 845.609C224.952 841.708 224.896 837.482 224.837 833.013C224.796 828.543 224.753 823.83 224.708 818.954C224.629 809.202 224.544 798.801 224.459 788.399C224.396 783.198 224.333 777.997 224.27 772.877C224.182 767.757 224.13 762.719 224.157 757.843C224.211 752.968 224.301 748.256 224.482 743.789C224.565 741.555 224.646 739.382 224.724 737.28C224.828 735.178 224.929 733.148 225.025 731.199C225.216 727.301 225.457 723.728 225.668 720.561C225.894 717.394 226.109 714.634 226.314 712.361C226.713 707.815 227.031 705.217 227.031 705.217L227.532 705.221Z" fill="#37474F"/>
<path d="M307.687 761.274C307.713 761.307 307.223 760.903 306.916 760.014C306.584 759.13 306.355 757.803 306.268 756.132C306.175 754.459 306.231 752.439 306.445 750.142C306.673 747.849 307.036 745.273 307.634 742.504C307.932 741.119 308.272 739.682 308.662 738.202C309.077 736.73 309.541 735.215 310.065 733.667C311.102 730.568 312.449 727.363 314.258 724.182C315.187 722.607 316.215 721.023 317.48 719.527C318.735 718.028 320.208 716.582 322.106 715.433C323.059 714.869 324.134 714.39 325.323 714.132C326.506 713.869 327.797 713.85 328.999 714.117C330.206 714.376 331.292 714.895 332.233 715.509C333.184 716.138 333.956 716.829 334.717 717.626L335.655 718.648L336.626 719.781C337.241 720.542 337.841 721.317 338.39 722.145C339.496 723.783 340.444 725.6 340.995 727.608C341.537 729.613 341.578 731.834 340.99 733.829C340.416 735.834 339.317 737.524 338.119 738.951C335.662 741.78 332.818 743.76 330.115 745.502C327.397 747.23 324.776 748.708 322.389 750.104C319.999 751.496 317.837 752.796 315.989 754.043C314.138 755.286 312.605 756.473 311.414 757.529C310.227 758.59 309.394 759.527 308.866 760.193C308.598 760.525 308.409 760.79 308.284 760.972C308.157 761.152 308.091 761.245 308.091 761.245L307.687 761.274ZM307.908 760.584C308.021 760.394 308.172 760.142 308.382 759.839C308.875 759.11 309.661 758.078 310.8 756.893C311.938 755.708 313.429 754.381 315.234 752.998C317.033 751.605 319.138 750.146 321.442 748.596C323.743 747.042 326.254 745.401 328.781 743.553C331.28 741.695 333.906 739.666 335.864 737.129C336.822 735.863 337.596 734.477 337.927 733.02C338.267 731.565 338.164 730.057 337.689 728.573C337.199 727.09 336.372 725.647 335.348 724.291C334.846 723.608 334.281 722.953 333.703 722.307L332.825 721.38L331.839 720.41C330.711 719.347 329.372 718.526 328.174 718.367C326.978 718.179 325.795 718.57 324.62 719.392C323.451 720.211 322.385 721.4 321.416 722.673C320.458 723.963 319.571 725.347 318.778 726.773C317.151 729.609 315.811 732.559 314.584 735.387C313.979 736.806 313.429 738.208 312.927 739.578C312.4 740.94 311.924 742.271 311.491 743.558C310.629 746.133 309.888 748.52 309.321 750.657C308.743 752.792 308.324 754.674 308.058 756.228C307.795 757.782 307.708 759.013 307.77 759.818C307.794 760.161 307.853 760.407 307.908 760.584Z" fill="#FFE082"/>
<path d="M306.487 758.753C306.488 758.567 306.472 758.315 306.396 757.979C306.221 757.19 305.778 756.04 305.072 754.63C304.363 753.221 303.413 751.543 302.237 749.671C301.07 747.793 299.664 745.727 298.088 743.515C297.298 742.41 296.454 741.276 295.552 740.128C294.672 738.965 293.737 737.784 292.743 736.604C290.744 734.258 288.6 731.828 286.216 729.591C285.041 728.459 283.789 727.393 282.495 726.44C281.197 725.505 279.829 724.68 278.472 724.238C277.108 723.795 275.863 723.767 274.773 724.296C273.673 724.799 272.633 725.975 271.865 727.321L271.204 728.537L270.635 729.68C270.272 730.467 269.923 731.259 269.641 732.058C269.058 733.654 268.688 735.276 268.653 736.837C268.632 738.394 268.974 739.867 269.724 741.159C270.466 742.456 271.612 743.555 272.898 744.486C275.511 746.341 278.615 747.515 281.548 748.561C284.506 749.591 287.385 750.427 290.04 751.24C292.697 752.05 295.136 752.83 297.263 753.637C299.394 754.433 301.208 755.266 302.642 756.067C304.077 756.868 305.131 757.625 305.815 758.178C306.105 758.408 306.324 758.605 306.487 758.753ZM306.505 759.439C306.505 759.439 306.415 759.369 306.241 759.234C306.069 759.097 305.811 758.898 305.458 758.659C304.758 758.176 303.688 757.524 302.243 756.855C300.795 756.193 298.981 755.506 296.848 754.857C294.717 754.203 292.268 753.592 289.577 752.959C286.886 752.321 283.948 751.673 280.843 750.814C277.749 749.937 274.45 748.875 271.275 746.887C269.712 745.872 268.168 744.577 267.033 742.827C265.887 741.09 265.278 738.954 265.212 736.878C265.151 734.796 265.527 732.783 266.107 730.892C266.389 729.94 266.738 729.023 267.103 728.116L267.701 726.749L268.3 725.498C268.795 724.513 269.332 723.626 270.058 722.747C270.778 721.885 271.666 721.072 272.744 720.472C273.815 719.866 275.057 719.507 276.265 719.413C277.477 719.312 278.645 719.456 279.721 719.718C281.873 720.262 283.703 721.216 285.342 722.282C286.989 723.344 288.434 724.558 289.783 725.794C292.442 728.307 294.666 730.979 296.564 733.64C297.517 734.967 298.403 736.281 299.23 737.568C300.036 738.87 300.78 740.145 301.47 741.382C302.85 743.855 303.95 746.213 304.838 748.339C305.713 750.473 306.357 752.389 306.757 754.016C307.162 755.64 307.331 756.976 307.271 757.918C307.238 758.858 306.887 759.388 306.903 759.349L306.505 759.439Z" fill="#FFE082"/>
<path d="M360.726 888.257L252.597 889.094L249.215 754.447L361.693 753.09L360.726 888.257Z" fill="#5C6CAD"/>
<path d="M362.845 802.439C362.845 802.439 361.059 802.654 357.94 802.873C356.38 802.988 354.488 803.094 352.319 803.194C350.15 803.28 347.702 803.379 345.036 803.415C343.703 803.434 342.314 803.455 340.876 803.475C339.44 803.47 337.955 803.465 336.428 803.459C333.374 803.463 330.158 803.367 326.833 803.227C323.509 803.061 320.077 802.809 316.592 802.519C313.106 802.254 309.565 801.985 306.023 801.716C298.938 801.22 291.853 800.724 285.211 800.258C281.89 800.02 278.679 799.79 275.635 799.572C272.592 799.336 269.715 799.114 267.059 798.908C256.434 798.103 249.354 797.496 249.354 797.496L249.375 796.996C249.375 796.996 256.48 797.006 267.135 797.129C269.799 797.155 272.686 797.183 275.738 797.213C278.79 797.26 282.008 797.311 285.337 797.362C291.995 797.476 299.096 797.597 306.197 797.719C309.748 797.759 313.3 797.799 316.796 797.838C320.294 797.851 323.734 797.899 327.06 798.023C330.384 798.173 333.597 798.356 336.639 798.626C338.16 798.753 339.64 798.877 341.071 798.997C342.502 799.143 343.884 799.283 345.21 799.418C347.863 799.686 350.293 799.998 352.446 800.272C354.598 800.56 356.474 800.83 358.018 801.081C361.106 801.57 362.866 801.939 362.866 801.939L362.845 802.439Z" fill="#FFE082"/>
<path d="M307.7 753.079C307.7 753.079 307.971 755.349 308.286 759.319C308.45 761.304 308.615 763.715 308.782 766.479C308.936 769.244 309.111 772.362 309.23 775.764C309.291 777.465 309.355 779.237 309.42 781.07C309.46 782.903 309.501 784.799 309.542 786.747C309.642 790.644 309.646 794.754 309.61 799.004C309.547 803.254 309.403 807.645 309.221 812.106C309.065 816.568 308.907 821.1 308.748 825.633C308.473 834.698 308.198 843.764 307.939 852.263C307.805 856.513 307.675 860.62 307.552 864.515C307.411 868.41 307.278 872.093 307.155 875.492C306.639 889.089 306.296 898.154 306.296 898.154L305.796 898.149C305.796 898.149 305.628 889.079 305.375 875.475C305.318 872.074 305.256 868.389 305.191 864.492C305.143 860.595 305.093 856.486 305.041 852.234C304.948 843.732 304.848 834.663 304.748 825.594C304.677 821.059 304.607 816.524 304.537 812.061C304.441 807.597 304.382 803.204 304.402 798.954C304.448 794.704 304.531 790.596 304.706 786.701C304.786 784.753 304.863 782.859 304.938 781.027C305.04 779.195 305.137 777.425 305.23 775.725C305.415 772.326 305.651 769.211 305.858 766.451C306.079 763.69 306.291 761.284 306.492 759.302C306.885 755.339 307.199 753.074 307.199 753.074L307.7 753.079Z" fill="#FFE082"/>
<path d="M798.384 758.862C798.411 758.896 797.86 758.432 797.521 757.395C797.155 756.366 796.914 754.818 796.842 752.869C796.764 750.918 796.862 748.561 797.143 745.883C797.439 743.208 797.899 740.205 798.622 736.975C798.983 735.36 799.393 733.684 799.863 731.959C800.357 730.242 800.908 728.475 801.529 726.672C802.762 723.062 804.341 719.327 806.445 715.628C807.523 713.794 808.715 711.955 810.172 710.218C811.619 708.481 813.31 706.807 815.473 705.488C816.558 704.84 817.777 704.293 819.119 703.998C820.455 703.697 821.909 703.673 823.266 703.97C824.628 704.259 825.863 704.843 826.938 705.54C828.024 706.253 828.919 707.048 829.792 707.957L830.896 709.15L832.026 710.461C832.743 711.343 833.445 712.242 834.084 713.2C835.374 715.097 836.475 717.194 837.115 719.503C837.745 721.808 837.799 724.35 837.131 726.643C836.479 728.946 835.218 730.901 833.835 732.561C830.998 735.853 827.683 738.178 824.531 740.23C821.361 742.266 818.298 744.013 815.506 745.663C812.713 747.308 810.182 748.846 808.02 750.321C805.854 751.79 804.06 753.194 802.668 754.443C801.281 755.698 800.309 756.804 799.692 757.59C799.379 757.981 799.159 758.295 799.014 758.509C798.866 758.721 798.789 758.831 798.789 758.831L798.384 758.862ZM798.591 758.197C798.726 757.968 798.924 757.643 799.207 757.237C799.788 756.387 800.714 755.186 802.054 753.807C803.392 752.429 805.144 750.885 807.264 749.276C809.377 747.655 811.849 745.959 814.558 744.155C817.263 742.347 820.215 740.437 823.195 738.281C826.143 736.113 829.24 733.738 831.578 730.739C832.722 729.241 833.658 727.59 834.067 725.834C834.487 724.082 834.372 722.252 833.809 720.468C833.229 718.684 832.249 716.96 831.041 715.346C830.448 714.533 829.783 713.755 829.103 712.987L828.065 711.882L826.913 710.74C825.562 709.454 823.952 708.439 822.44 708.218C820.929 707.966 819.421 708.453 817.985 709.445C816.552 710.434 815.267 711.849 814.106 713.362C812.956 714.892 811.905 716.532 810.962 718.217C809.04 721.571 807.468 725.052 806.045 728.39C805.343 730.065 804.706 731.718 804.125 733.333C803.519 734.939 802.973 736.509 802.478 738.027C801.49 741.063 800.653 743.877 800.018 746.396C799.372 748.912 798.912 751.131 798.63 752.963C798.352 754.795 798.277 756.246 798.374 757.197C798.418 757.652 798.507 757.982 798.591 758.197Z" fill="#37474F"/>
<path d="M796.999 756.039C797.017 755.81 797.005 755.468 796.914 755.021C796.729 754.083 796.233 752.718 795.432 751.047C794.628 749.377 793.54 747.389 792.187 745.171C790.843 742.948 789.222 740.501 787.39 737.886C786.473 736.579 785.492 735.238 784.443 733.878C783.416 732.504 782.323 731.108 781.162 729.712C778.827 726.935 776.307 724.065 773.489 721.419C772.096 720.083 770.612 718.821 769.065 717.694C767.513 716.586 765.87 715.608 764.211 715.08C762.547 714.551 760.963 714.525 759.592 715.208C758.211 715.861 756.967 717.302 756.05 718.926L755.281 720.355L754.612 721.714C754.186 722.647 753.777 723.586 753.447 724.536C752.763 726.432 752.33 728.368 752.296 730.243C752.279 732.113 752.703 733.897 753.617 735.45C754.521 737.01 755.899 738.315 757.43 739.414C760.542 741.6 764.198 742.966 767.65 744.179C771.129 745.371 774.511 746.335 777.627 747.274C780.744 748.208 783.605 749.108 786.099 750.041C788.598 750.961 790.724 751.926 792.406 752.853C794.089 753.78 795.326 754.659 796.13 755.302C796.518 755.606 796.803 755.859 796.999 756.039ZM796.995 756.705C796.995 756.705 796.89 756.622 796.686 756.463C796.485 756.301 796.183 756.065 795.769 755.782C794.95 755.209 793.697 754.436 792.004 753.641C790.308 752.852 788.181 752.035 785.681 751.262C783.183 750.482 780.314 749.751 777.161 748.994C774.009 748.231 770.569 747.455 766.943 746.434C763.329 745.391 759.479 744.136 755.804 741.817C753.996 740.634 752.219 739.133 750.923 737.12C749.614 735.122 748.923 732.675 748.852 730.287C748.789 727.891 749.23 725.564 749.91 723.373C750.241 722.27 750.65 721.206 751.078 720.153L751.776 718.57L752.483 717.106C753.053 715.981 753.677 714.96 754.507 713.96C755.332 712.979 756.342 712.06 757.561 711.386C758.772 710.705 760.169 710.304 761.535 710.201C762.905 710.091 764.231 710.258 765.457 710.561C767.911 711.19 770.018 712.297 771.909 713.536C773.809 714.771 775.487 716.182 777.054 717.622C780.147 720.545 782.748 723.656 784.981 726.749C786.102 728.292 787.145 729.821 788.119 731.319C789.072 732.832 789.953 734.315 790.77 735.754C792.405 738.631 793.722 741.369 794.786 743.841C795.838 746.32 796.619 748.545 797.114 750.434C797.614 752.319 797.836 753.869 797.786 754.961C797.766 756.052 797.373 756.657 797.39 756.616L796.995 756.705Z" fill="#37474F"/>
<path d="M727.906 914.953C775.297 917.882 822.822 917.893 870.213 914.986C866.921 861.312 863.627 807.64 860.335 753.968C819.547 756.47 778.643 756.461 737.856 753.941C734.541 807.611 731.224 861.283 727.906 914.953Z" fill="#FFD54F"/>
<path d="M863.017 807.106C863.017 807.106 860.926 807.307 857.272 807.503C855.445 807.607 853.228 807.699 850.686 807.782C848.144 807.852 845.277 807.933 842.152 807.949C840.589 807.958 838.962 807.968 837.277 807.978C835.594 807.962 833.853 807.946 832.064 807.928C828.485 807.91 824.714 807.789 820.817 807.625C816.92 807.434 812.896 807.156 808.81 806.84C804.722 806.549 800.569 806.253 796.416 805.958C788.108 805.408 779.801 804.859 772.013 804.344C768.119 804.081 764.355 803.827 760.786 803.586C757.217 803.327 753.843 803.083 750.728 802.857C738.271 801.93 729.967 801.312 729.967 801.312L729.988 800.812C729.988 800.812 738.315 800.918 750.805 801.078C753.927 801.124 757.309 801.174 760.887 801.226C764.465 801.296 768.236 801.371 772.138 801.447C779.941 801.611 788.265 801.786 796.589 801.96C800.752 802.027 804.915 802.093 809.012 802.159C813.111 802.199 817.143 802.272 821.042 802.42C824.939 802.595 828.706 802.803 832.273 803.096C834.057 803.234 835.792 803.369 837.47 803.5C839.148 803.656 840.768 803.807 842.324 803.952C845.436 804.24 848.285 804.57 850.811 804.861C853.336 805.165 855.537 805.449 857.348 805.711C860.97 806.223 863.036 806.606 863.036 806.606L863.017 807.106Z" fill="#37474F"/>
<path d="M798.323 749.28C798.323 749.28 798.59 751.94 798.899 756.594C799.059 758.921 799.22 761.747 799.383 764.987C799.532 768.227 799.702 771.883 799.816 775.871C799.874 777.865 799.935 779.942 799.997 782.091C800.034 784.24 800.071 786.463 800.11 788.747C800.203 793.316 800.2 798.133 800.157 803.116C800.087 808.098 799.936 813.246 799.746 818.477C799.583 823.708 799.417 829.022 799.251 834.336C798.96 844.964 798.67 855.592 798.398 865.556C798.256 870.538 798.12 875.354 797.991 879.921C797.844 884.487 797.704 888.805 797.576 892.79C797.037 908.731 796.679 919.359 796.679 919.359L796.179 919.354C796.179 919.354 796.026 908.722 795.796 892.773C795.745 888.786 795.689 884.467 795.63 879.898C795.588 875.33 795.545 870.512 795.5 865.528C795.421 855.561 795.336 844.929 795.251 834.297C795.188 828.981 795.125 823.665 795.063 818.432C794.975 813.199 794.923 808.049 794.949 803.066C795.003 798.083 795.093 793.267 795.274 788.701C795.357 786.418 795.438 784.197 795.516 782.048C795.62 779.9 795.721 777.825 795.817 775.832C796.008 771.847 796.249 768.195 796.461 764.958C796.686 761.721 796.901 758.899 797.107 756.576C797.506 751.929 797.824 749.274 797.824 749.274L798.323 749.28Z" fill="#37474F"/>
<path d="M447.289 557.236C481.869 568.589 517.114 577.803 552.824 584.828C560.781 544.385 568.735 503.94 576.69 463.496C545.956 457.451 515.622 449.519 485.862 439.749C473.003 478.912 460.146 518.074 447.289 557.236Z" fill="#80CBC4"/>
<path d="M572.158 491.519C572.158 491.519 570.555 491.364 567.793 490.941C566.41 490.735 564.741 490.453 562.832 490.108C560.926 489.75 558.776 489.348 556.45 488.84C555.286 488.587 554.075 488.324 552.821 488.051C551.574 487.753 550.285 487.446 548.96 487.13C546.305 486.512 543.533 485.764 540.676 484.952C537.827 484.113 534.905 483.171 531.945 482.179C528.978 481.212 525.965 480.23 522.951 479.247C516.911 477.322 510.872 475.398 505.211 473.594C502.381 472.687 499.647 471.81 497.053 470.978C494.464 470.13 492.017 469.327 489.758 468.587C480.716 465.642 474.707 463.61 474.707 463.61L474.845 463.13C474.845 463.13 481.018 464.587 490.248 466.875C492.557 467.443 495.058 468.058 497.704 468.708C500.345 469.375 503.129 470.079 506.01 470.807C511.768 472.273 517.91 473.837 524.053 475.401C527.13 476.163 530.207 476.925 533.236 477.675C536.272 478.4 539.251 479.147 542.112 479.944C544.965 480.767 547.713 481.599 550.293 482.48C551.585 482.913 552.841 483.335 554.057 483.742C555.265 484.175 556.432 484.593 557.554 484.994C559.796 485.795 561.833 486.592 563.639 487.297C565.441 488.015 567.007 488.659 568.289 489.217C570.856 490.321 572.298 491.038 572.298 491.038L572.158 491.519Z" fill="#E8EAF6"/>
<path d="M531.437 451.17C531.437 451.17 531.261 452.98 530.8 456.108C530.575 457.673 530.27 459.566 529.899 461.73C529.514 463.892 529.082 466.331 528.541 468.973C528.271 470.295 527.991 471.671 527.701 473.096C527.385 474.514 527.059 475.98 526.723 477.487C526.067 480.505 525.277 483.662 524.423 486.918C523.542 490.167 522.554 493.504 521.517 496.885C520.505 500.273 519.476 503.715 518.448 507.157C516.431 514.052 514.415 520.946 512.525 527.41C511.575 530.64 510.656 533.763 509.785 536.725C508.897 539.682 508.057 542.477 507.283 545.058C504.2 555.385 502.076 562.251 502.076 562.251L501.593 562.123C501.593 562.123 503.139 555.104 505.562 544.603C506.163 541.977 506.814 539.131 507.503 536.122C508.209 533.117 508.954 529.948 509.724 526.67C511.274 520.116 512.928 513.126 514.582 506.135C515.389 502.634 516.195 499.134 516.99 495.688C517.759 492.235 518.55 488.846 519.389 485.587C520.254 482.334 521.128 479.199 522.049 476.251C522.502 474.775 522.943 473.339 523.369 471.95C523.821 470.568 524.257 469.232 524.676 467.95C525.511 465.385 526.341 463.051 527.074 460.982C527.821 458.916 528.49 457.12 529.069 455.648C530.214 452.701 530.955 451.04 530.955 451.04L531.437 451.17Z" fill="#E8EAF6"/>
<path d="M441.209 528.597L350.436 560.072L381.093 648.488L471.867 617.013L441.209 528.597Z" fill="#9FA8DA"/>
<path d="M478.638 530.744C478.638 530.744 478.57 530.697 478.433 530.575C478.28 530.405 478.093 530.158 477.936 529.836C477.596 529.181 477.309 528.185 477.102 526.918C476.887 525.649 476.769 524.109 476.748 522.347C476.745 520.588 476.819 518.603 477.075 516.458C477.202 515.385 477.358 514.27 477.547 513.117C477.762 511.97 478.012 510.787 478.305 509.573C478.88 507.143 479.71 504.615 480.906 502.065C481.526 500.802 482.231 499.522 483.131 498.291C484.022 497.057 485.1 495.845 486.546 494.819C487.277 494.315 488.119 493.867 489.072 493.589C490.02 493.307 491.077 493.214 492.071 493.362C493.069 493.503 493.978 493.855 494.767 494.291C495.566 494.741 496.194 495.243 496.856 495.828L497.621 496.548L498.436 497.368C498.952 497.919 499.457 498.481 499.929 499.09C500.877 500.293 501.721 501.651 502.272 503.2C502.816 504.745 502.989 506.514 502.626 508.128C502.28 509.748 501.507 511.128 500.654 512.296C498.9 514.614 496.832 516.257 494.871 517.72C492.897 519.17 490.991 520.42 489.259 521.595C485.779 523.915 483.04 526.015 481.364 527.738C480.523 528.594 479.944 529.338 479.579 529.864L478.917 530.936L478.638 530.744ZM478.847 529.975C478.909 529.853 478.976 529.709 479.068 529.548C479.392 528.962 479.919 528.126 480.702 527.15C481.483 526.174 482.524 525.069 483.799 523.903C485.068 522.729 486.561 521.487 488.197 520.163C489.831 518.838 491.614 517.434 493.388 515.878C495.142 514.32 496.967 512.618 498.23 510.628C498.846 509.637 499.307 508.587 499.442 507.542C499.578 506.498 499.425 505.461 498.997 504.434C498.559 503.409 497.873 502.411 497.039 501.48C496.629 501.011 496.172 500.562 495.706 500.12L495.005 499.494L494.2 498.824C493.784 498.52 493.288 498.181 492.846 497.987C492.393 497.788 491.965 497.678 491.578 497.662C490.818 497.622 490.116 497.931 489.357 498.57C487.853 499.9 486.618 502.128 485.612 504.298C484.57 506.49 483.727 508.762 482.943 510.937C482.559 512.028 482.214 513.106 481.904 514.157C481.569 515.202 481.269 516.223 481.001 517.209C480.466 519.182 480.002 521.007 479.654 522.636C479.3 524.264 479.045 525.696 478.893 526.873C478.742 528.05 478.707 528.977 478.771 529.57C478.784 529.74 478.822 529.869 478.847 529.975Z" fill="white"/>
<path d="M477.29 530.096C477.298 529.987 477.316 529.854 477.303 529.685C477.274 529.089 477.097 528.178 476.766 527.039C476.434 525.9 475.961 524.524 475.36 522.971C474.765 521.414 474.025 519.683 473.193 517.816C472.776 516.883 472.322 515.921 471.83 514.94C471.362 513.949 470.855 512.938 470.307 511.919C469.196 509.891 468.013 507.777 466.646 505.772C465.316 503.783 463.752 501.772 462.062 500.69C461.213 500.176 460.472 499.978 459.727 500.135C459.347 500.211 458.941 500.386 458.524 500.652C458.117 500.912 457.679 501.324 457.315 501.688L456.624 502.474L456.028 503.201C455.635 503.709 455.253 504.223 454.921 504.75C454.24 505.799 453.716 506.891 453.442 507.971C453.177 509.052 453.186 510.1 453.482 511.111C453.776 512.123 454.394 513.089 455.156 513.973C456.711 515.744 458.777 517.144 460.75 518.412C462.744 519.675 464.722 520.787 466.541 521.845C468.361 522.9 470.029 523.897 471.464 524.861C472.903 525.817 474.103 526.748 475.025 527.591C475.949 528.434 476.598 529.179 477.009 529.708C477.121 529.853 477.21 529.985 477.29 530.096ZM477.202 530.835C477.202 530.835 476.995 530.562 476.551 530.099C476.109 529.635 475.422 528.989 474.459 528.273C472.538 526.829 469.507 525.178 465.71 523.422C463.818 522.528 461.742 521.587 459.568 520.459C457.404 519.316 455.108 518.012 453.017 515.992C451.995 514.97 451.017 513.725 450.425 512.178C449.819 510.64 449.716 508.865 450.015 507.255C450.32 505.639 450.945 504.167 451.696 502.833C452.068 502.158 452.481 501.525 452.906 500.901L453.584 499.965L454.229 499.135C454.792 498.455 455.335 497.862 456.056 497.294C456.769 496.742 457.613 496.254 458.577 495.96C459.537 495.661 460.596 495.59 461.576 495.722C462.56 495.85 463.461 496.162 464.261 496.547C465.848 497.338 467.1 498.368 468.171 499.451C469.25 500.529 470.143 501.684 470.951 502.837C472.526 505.171 473.737 507.541 474.68 509.854C475.157 511.007 475.586 512.138 475.976 513.238C476.341 514.348 476.667 515.426 476.958 516.467C477.542 518.547 477.921 520.497 478.189 522.235C478.439 523.979 478.562 525.519 478.544 526.806C478.535 528.089 478.405 529.119 478.17 529.818C478.066 530.161 477.918 530.433 477.794 530.624L477.372 531.056L477.202 530.835Z" fill="white"/>
<path d="M521.064 648.994H437.932L429.087 524.037H529.908L521.064 648.994Z" fill="#E5B735"/>
<path d="M529.114 547.947C529.114 547.947 527.548 548.325 524.8 548.828C523.426 549.086 521.756 549.365 519.839 549.662C517.921 549.946 515.757 550.269 513.393 550.55C512.211 550.691 510.98 550.839 509.705 550.991C508.429 551.117 507.11 551.248 505.754 551.382C503.043 551.666 500.179 551.865 497.213 552.03C494.246 552.169 491.177 552.233 488.056 552.263C484.936 552.319 481.766 552.376 478.597 552.432C472.261 552.587 465.924 552.742 459.984 552.887C457.013 552.954 454.142 553.02 451.419 553.082C448.695 553.126 446.12 553.168 443.742 553.207C434.234 553.379 427.892 553.423 427.892 553.423L427.865 552.924C427.865 552.924 434.176 552.283 443.646 551.429C446.014 551.211 448.579 550.974 451.292 550.724C454.006 550.492 456.867 550.247 459.828 549.994C465.749 549.497 472.066 548.968 478.382 548.439C481.539 548.153 484.695 547.868 487.803 547.587C490.909 547.28 493.968 547.013 496.932 546.831C499.898 546.676 502.767 546.564 505.493 546.554C506.855 546.541 508.181 546.529 509.463 546.517C510.746 546.531 511.986 546.544 513.177 546.557C515.557 546.581 517.743 546.669 519.68 546.745C521.618 546.834 523.309 546.932 524.702 547.039C527.489 547.243 529.086 547.449 529.086 547.449L529.114 547.947Z" fill="white"/>
<path d="M477.442 523.124C477.442 523.124 477.867 524.893 478.454 527.999C478.754 529.552 479.084 531.44 479.44 533.608C479.783 535.776 480.171 538.223 480.524 540.897C480.701 542.234 480.886 543.626 481.077 545.068C481.242 546.511 481.413 548.004 481.588 549.538C481.955 552.605 482.241 555.846 482.497 559.203C482.726 562.561 482.884 566.038 483.009 569.573C483.16 573.106 483.313 576.695 483.466 580.284C483.814 587.459 484.162 594.634 484.488 601.361C484.646 604.725 484.798 607.976 484.943 611.059C485.07 614.144 485.19 617.06 485.301 619.752C485.762 630.519 486 637.703 486 637.703L485.501 637.74C485.501 637.74 484.668 630.601 483.525 619.885C483.235 617.206 482.921 614.304 482.588 611.235C482.273 608.164 481.941 604.926 481.597 601.576C480.92 594.876 480.199 587.728 479.476 580.581C479.095 577.009 478.713 573.437 478.337 569.921C477.935 566.407 477.575 562.945 477.303 559.59C477.057 556.233 476.858 552.985 476.765 549.897C476.711 548.354 476.658 546.853 476.607 545.401C476.582 543.947 476.557 542.542 476.534 541.194C476.486 538.497 476.507 536.02 476.524 533.825C476.554 531.629 476.6 529.713 476.666 528.132C476.785 524.973 476.943 523.161 476.943 523.161L477.442 523.124Z" fill="white"/>
<path d="M432.158 592.561C432.172 592.622 431.842 592.039 431.994 591.175C432.111 590.304 432.531 589.141 433.228 587.781C433.919 586.414 434.9 584.856 436.131 583.153C437.381 581.467 438.859 579.613 440.635 577.743C442.391 575.851 444.421 573.919 446.719 572.023C449.011 570.12 451.602 568.283 454.565 566.728C456.053 565.963 457.632 565.263 459.345 564.736C461.054 564.207 462.902 563.835 464.901 563.851C466.875 563.867 469.112 564.394 470.888 565.733C471.774 566.385 472.506 567.2 473.086 568.058C473.665 568.891 474.101 569.908 474.402 570.612C475.125 572.31 475.68 574.04 475.934 575.957C476.175 577.846 475.989 580.007 474.982 581.85C473.99 583.701 472.376 584.971 470.799 585.821C469.199 586.67 467.57 587.202 465.979 587.607C462.791 588.398 459.726 588.756 456.833 589.01C453.941 589.262 451.223 589.427 448.723 589.618C443.723 589.967 439.604 590.516 436.793 591.214C435.388 591.559 434.313 591.931 433.597 592.22C433.236 592.361 432.968 592.485 432.787 592.57C432.605 592.653 432.512 592.696 432.512 592.696L432.158 592.561ZM432.63 592.057C432.805 591.958 433.043 591.824 433.351 591.673C434.064 591.314 435.138 590.841 436.549 590.369C439.365 589.397 443.539 588.583 448.529 587.866C451.024 587.499 453.725 587.142 456.548 586.694C459.362 586.226 462.334 585.743 465.201 584.846C466.629 584.401 468.027 583.84 469.247 583.101C470.46 582.357 471.447 581.415 471.955 580.302C473.026 578.101 472.167 575.001 470.826 572.29C469.539 569.384 467.652 568.285 464.986 568.476C462.35 568.678 459.558 569.956 456.992 571.321C454.402 572.708 451.963 574.314 449.675 575.894C447.397 577.493 445.306 579.13 443.401 580.679C441.518 582.253 439.798 583.722 438.352 585.102C436.889 586.466 435.674 587.717 434.733 588.787C433.799 589.86 433.152 590.766 432.844 591.412C432.71 591.696 432.655 591.904 432.63 592.057Z" fill="#37474F"/>
<path d="M431.308 589.545C431.312 589.39 431.298 589.175 431.22 588.872C431.04 588.18 430.576 587.168 429.861 585.938C429.139 584.71 428.182 583.252 427.003 581.636C425.843 580.007 424.432 578.24 422.88 576.338C421.302 574.457 419.558 572.454 417.623 570.454C415.675 568.47 413.583 566.432 411.302 564.581C409.041 562.756 406.54 560.974 403.99 560.277C401.409 559.586 399.348 560.309 397.535 562.919C395.706 565.328 394.277 568.21 394.913 570.573C395.202 571.761 395.993 572.873 397.043 573.833C398.102 574.789 399.368 575.604 400.687 576.311C403.333 577.733 406.161 578.769 408.835 579.76C411.523 580.734 414.107 581.593 416.488 582.426C421.253 584.072 425.197 585.66 427.78 587.147C429.076 587.877 430.041 588.545 430.674 589.032C430.947 589.238 431.154 589.415 431.308 589.545ZM431.304 590.194C431.304 590.194 431.22 590.134 431.057 590.018C430.896 589.901 430.656 589.728 430.328 589.522C429.679 589.102 428.694 588.534 427.38 587.93C424.751 586.714 420.81 585.397 415.966 584.109C413.548 583.45 410.909 582.775 408.116 581.98C405.323 581.184 402.381 580.253 399.399 578.874C397.914 578.176 396.415 577.346 395.004 576.21C393.616 575.078 392.271 573.526 391.646 571.521C391.005 569.521 391.231 567.365 391.825 565.555C392.437 563.72 393.308 562.126 394.34 560.595C394.768 559.961 395.39 559.044 396.115 558.336C396.847 557.603 397.719 556.941 398.712 556.468C400.71 555.489 403.006 555.393 404.947 555.751C406.914 556.112 408.657 556.827 410.235 557.669C411.818 558.51 413.237 559.496 414.553 560.528C417.169 562.615 419.365 564.908 421.257 567.21C423.156 569.506 424.785 571.786 426.152 573.976C427.544 576.148 428.644 578.248 429.553 580.139C430.44 582.044 431.109 583.76 431.53 585.233C431.958 586.7 432.151 587.922 432.1 588.799C432.087 589.677 431.652 590.187 431.678 590.13L431.304 590.194Z" fill="#37474F"/>
<path d="M475.076 699.422C438.68 691.93 401.701 686.133 364.244 682.104C366.683 661.629 375.394 603.795 378.109 583.33C417.177 587.562 455.761 593.633 493.749 601.474C489.433 621.651 479.119 679.209 475.076 699.422Z" fill="#FFE082"/>
<path d="M432.484 589.005C432.484 589.005 432.543 590.128 432.522 592.074C432.516 593.047 432.482 594.225 432.425 595.574C432.358 596.921 432.283 598.44 432.146 600.089C432.078 600.914 432.007 601.773 431.933 602.662C431.839 603.548 431.742 604.464 431.642 605.405C431.454 607.29 431.177 609.265 430.858 611.303C430.518 613.338 430.104 615.431 429.655 617.553C429.227 619.679 428.792 621.838 428.357 623.997C427.52 628.321 426.683 632.645 425.898 636.698C425.128 640.754 424.351 644.531 423.691 647.768C422.388 654.247 421.463 658.557 421.463 658.557L421.068 658.495C421.068 658.495 421.521 654.111 422.283 647.548C422.657 644.265 423.085 640.434 423.607 636.34C424.114 632.243 424.654 627.873 425.195 623.502C425.449 621.314 425.703 619.127 425.953 616.973C426.182 614.816 426.435 612.698 426.741 610.658C427.068 608.621 427.415 606.657 427.819 604.806C428.015 603.879 428.206 602.978 428.39 602.107C428.595 601.238 428.793 600.399 428.983 599.594C429.362 597.983 429.761 596.514 430.114 595.212C430.477 593.911 430.809 592.78 431.104 591.852C431.685 589.994 432.088 588.943 432.088 588.943L432.484 589.005Z" fill="#37474F"/>
<path d="M567.727 554.094C567.727 554.094 567.65 554.038 567.499 553.897C567.333 553.707 567.129 553.43 566.96 553.063C566.593 552.321 566.29 551.19 566.08 549.753C565.862 548.314 565.757 546.567 565.76 544.569C565.784 542.574 565.897 540.324 566.211 537.893C566.367 536.677 566.556 535.413 566.784 534.107C567.037 532.807 567.33 531.467 567.672 530.094C568.345 527.344 569.295 524.483 570.651 521.605C571.35 520.178 572.146 518.736 573.152 517.35C574.151 515.962 575.353 514.604 576.953 513.463C577.762 512.903 578.688 512.409 579.734 512.102C580.773 511.791 581.929 511.689 583.019 511.849C584.112 512.003 585.115 512.388 585.99 512.869C586.875 513.365 587.581 513.926 588.317 514.574L589.188 515.395L590.105 516.319C590.687 516.941 591.257 517.576 591.786 518.261C592.852 519.616 593.796 521.14 594.408 522.867C595.013 524.59 595.194 526.546 594.804 528.339C594.428 530.139 593.573 531.687 592.621 533.005C590.662 535.621 588.331 537.507 586.108 539.175C583.871 540.832 581.707 542.264 579.739 543.611C577.769 544.953 575.991 546.203 574.48 547.387C572.967 548.568 571.723 549.679 570.764 550.657C569.809 551.639 569.152 552.492 568.738 553.096C568.528 553.397 568.382 553.636 568.286 553.799L567.99 554.288L567.727 554.094ZM567.92 553.362C567.999 553.204 568.095 553.007 568.227 552.778C568.6 552.115 569.205 551.169 570.102 550.068C570.998 548.966 572.189 547.718 573.646 546.401C575.097 545.076 576.806 543.673 578.678 542.178C580.547 540.681 582.589 539.095 584.627 537.332C586.64 535.564 588.749 533.645 590.232 531.358C590.957 530.219 591.511 529 591.686 527.764C591.869 526.53 591.682 525.289 591.183 524.08C590.671 522.873 589.876 521.711 588.914 520.632C588.441 520.088 587.915 519.57 587.38 519.06L586.571 518.334L585.656 517.569C585.165 517.203 584.592 516.804 584.063 516.564C583.524 516.32 583.003 516.178 582.52 516.149C581.566 516.083 580.67 516.466 579.758 517.219C577.949 518.785 576.519 521.351 575.352 523.845C574.152 526.366 573.19 528.97 572.307 531.465C571.874 532.716 571.487 533.95 571.14 535.154C570.766 536.352 570.433 537.521 570.137 538.65C569.545 540.909 569.041 542.998 568.667 544.863C568.288 546.726 568.021 548.365 567.872 549.712C567.723 551.058 567.705 552.12 567.795 552.8C567.821 553.048 567.88 553.227 567.92 553.362Z" fill="#37474F"/>
<path d="M566.203 553.493C566.223 553.353 566.254 553.168 566.242 552.919C566.228 552.232 566.049 551.186 565.698 549.878C565.345 548.57 564.833 546.991 564.175 545.207C563.522 543.42 562.707 541.432 561.778 539.289C561.313 538.218 560.806 537.113 560.256 535.986C559.729 534.849 559.159 533.688 558.541 532.517C557.29 530.186 555.943 527.758 554.374 525.448C552.841 523.16 551.039 520.841 549.013 519.568C547.997 518.962 547.054 518.72 546.12 518.93C545.647 519.032 545.153 519.252 544.658 519.575C544.171 519.892 543.665 520.373 543.236 520.81L542.448 521.705L541.759 522.545C541.307 523.13 540.866 523.722 540.482 524.332C539.695 525.545 539.086 526.814 538.763 528.085C538.454 529.355 538.457 530.61 538.826 531.803C539.187 532.998 539.921 534.119 540.809 535.135C542.623 537.17 544.998 538.747 547.256 540.188C549.538 541.62 551.797 542.878 553.872 544.074C555.95 545.267 557.851 546.394 559.487 547.483C561.128 548.564 562.495 549.616 563.548 550.569C564.602 551.522 565.343 552.364 565.813 552.963C565.976 553.168 566.101 553.348 566.203 553.493ZM566.093 554.199C566.093 554.199 566.03 554.124 565.908 553.979C565.788 553.833 565.608 553.618 565.354 553.353C564.854 552.819 564.074 552.076 562.982 551.25C561.885 550.429 560.487 549.52 558.812 548.583C557.139 547.642 555.191 546.677 553.041 545.65C550.892 544.618 548.535 543.531 546.072 542.234C543.621 540.922 541.031 539.412 538.697 537.124C537.556 535.966 536.475 534.566 535.831 532.844C535.174 531.132 535.055 529.171 535.392 527.376C535.735 525.577 536.436 523.927 537.284 522.426C537.703 521.668 538.171 520.954 538.651 520.251L539.417 519.199L540.152 518.256C540.781 517.504 541.393 516.842 542.193 516.217C542.985 515.609 543.917 515.076 544.974 514.758C546.028 514.434 547.185 514.36 548.26 514.509C549.34 514.653 550.331 515.002 551.215 515.432C552.969 516.317 554.365 517.476 555.562 518.696C556.767 519.913 557.773 521.217 558.681 522.522C560.458 525.161 561.831 527.844 562.914 530.46C563.461 531.765 563.954 533.045 564.401 534.292C564.825 535.548 565.203 536.769 565.542 537.947C566.222 540.302 566.675 542.509 567.002 544.477C567.309 546.452 567.47 548.194 567.473 549.65C567.484 551.102 567.357 552.266 567.107 553.055C566.996 553.443 566.836 553.748 566.701 553.961L566.275 554.42L566.093 554.199Z" fill="#37474F"/>
<path d="M646.983 655.84C609.802 666.581 571.997 675.023 533.779 681.12C526.874 637.837 519.968 594.554 513.062 551.271C545.954 546.023 578.492 538.757 610.493 529.513C622.657 571.622 634.819 613.731 646.983 655.84Z" fill="#FF8A80"/>
<path d="M625.176 573.75C625.176 573.75 623.39 574.137 620.255 574.658C618.688 574.924 616.783 575.213 614.598 575.523C612.411 575.82 609.945 576.156 607.25 576.451C605.903 576.599 604.499 576.754 603.046 576.914C601.592 577.048 600.089 577.187 598.544 577.33C595.454 577.631 592.191 577.847 588.813 578.031C585.434 578.188 581.937 578.271 578.382 578.32C574.829 578.395 571.219 578.471 567.609 578.547C560.392 578.741 553.175 578.935 546.409 579.116C543.026 579.202 539.755 579.284 536.654 579.363C533.552 579.424 530.618 579.482 527.911 579.535C517.082 579.765 509.859 579.848 509.859 579.848L509.833 579.349C509.833 579.349 517.024 578.67 527.817 577.757C530.515 577.524 533.438 577.272 536.529 577.005C539.621 576.756 542.883 576.494 546.256 576.222C553.004 575.689 560.201 575.121 567.399 574.552C570.997 574.247 574.594 573.942 578.136 573.642C581.676 573.316 585.161 573.029 588.539 572.829C591.918 572.656 595.185 572.526 598.29 572.5C599.842 572.479 601.351 572.458 602.811 572.438C604.272 572.444 605.684 572.45 607.04 572.456C609.751 572.465 612.239 572.539 614.445 572.604C616.651 572.681 618.576 572.768 620.162 572.868C623.334 573.055 625.151 573.252 625.151 573.252L625.176 573.75Z" fill="#37474F"/>
<path d="M566.313 545.438C566.313 545.438 566.754 547.456 567.37 551C567.683 552.771 568.031 554.925 568.407 557.396C568.77 559.869 569.18 562.658 569.557 565.706C569.746 567.23 569.944 568.818 570.148 570.461C570.326 572.106 570.511 573.807 570.7 575.555C571.095 579.051 571.41 582.744 571.696 586.568C571.955 590.394 572.144 594.353 572.3 598.379C572.483 602.403 572.668 606.491 572.853 610.578C573.266 618.75 573.678 626.922 574.064 634.584C574.252 638.415 574.434 642.118 574.606 645.63C574.761 649.143 574.907 652.465 575.043 655.531C575.559 667.797 575.903 675.974 575.903 675.974L575.404 676.011C575.404 676.011 574.55 667.871 573.267 655.662C572.953 652.609 572.612 649.302 572.251 645.804C571.908 642.304 571.547 638.614 571.173 634.797C570.436 627.161 569.65 619.016 568.863 610.872C568.449 606.801 568.035 602.73 567.627 598.723C567.193 594.718 566.801 590.773 566.499 586.951C566.224 583.126 565.996 579.426 565.874 575.911C565.806 574.154 565.74 572.444 565.676 570.791C565.638 569.136 565.601 567.536 565.566 566.001C565.493 562.93 565.492 560.111 565.489 557.612C565.5 555.112 565.529 552.931 565.58 551.133C565.671 547.538 565.813 545.477 565.813 545.477L566.313 545.438Z" fill="#37474F"/>
<path d="M634.464 565.607C613.191 573.524 603.543 604.201 492.215 618.548C419.528 627.916 362.088 615.085 359.614 617.558C357.14 620.032 359.119 624.485 363.077 627.454C367.035 630.422 374.954 634.629 367.53 638.092C358.905 642.114 358.624 647.74 362.582 654.666C366.54 661.593 330.212 689.046 327.541 719.872C326.473 732.206 319.53 785.947 350.461 849.801C362.958 875.601 332.896 889.879 337.844 897.795C345.85 910.604 370.004 893.837 378.944 899.712C409.872 920.035 570.133 932.696 626.723 909.393C635.135 905.929 667.609 912.139 678.988 903.232C683.223 899.919 671.153 884.899 674.977 880.242C688.922 863.26 695.897 813.671 691.593 791.069C689.613 780.678 669.347 745.211 669.347 745.211C669.347 745.211 683.201 712.308 683.696 700.434C685.293 662.109 641.064 590.455 635.126 586.497C631.58 584.133 638.04 579.473 637.799 574.023C637.637 570.349 637.053 568.199 634.464 565.607Z" fill="#FF5252"/>
<path d="M479.521 633.917C479.521 633.917 480.172 633.96 481.392 634.042C482.002 634.081 482.755 634.129 483.64 634.186C484.522 634.214 485.536 634.246 486.673 634.281C487.805 634.335 489.069 634.307 490.44 634.318C491.811 634.34 493.294 634.306 494.878 634.266C498.045 634.205 501.617 634.017 505.505 633.728C521.046 632.548 541.692 629.423 561.652 623.815C566.632 622.393 571.585 620.886 576.366 619.152C581.168 617.474 585.795 615.6 590.262 613.787C592.472 612.834 594.675 611.95 596.774 610.979C597.83 610.504 598.874 610.034 599.905 609.569C600.923 609.079 601.927 608.594 602.919 608.116C606.883 606.194 610.509 604.161 613.795 602.183C617.029 600.137 619.966 598.187 622.38 596.223C622.992 595.739 623.585 595.27 624.156 594.817C624.737 594.371 625.219 593.865 625.726 593.419C626.716 592.505 627.697 591.715 628.432 590.871C629.214 590.058 629.912 589.332 630.52 588.7C631.076 588.021 631.548 587.443 631.931 586.975C632.711 586.034 633.127 585.531 633.127 585.531L633.143 585.512C633.231 585.406 633.389 585.391 633.495 585.479C633.588 585.556 633.611 585.687 633.556 585.789C633.556 585.789 633.245 586.37 632.662 587.459C632.37 588.007 632.004 588.682 631.557 589.469C631.046 590.214 630.46 591.069 629.803 592.028C629.168 593.016 628.308 593.97 627.417 595.062C626.953 595.589 626.51 596.184 625.974 596.718C625.443 597.261 624.894 597.824 624.326 598.405C623.222 599.613 621.889 600.709 620.522 601.921C619.179 603.171 617.612 604.264 616.033 605.498C614.416 606.672 612.692 607.837 610.897 609.029C609.048 610.118 607.179 611.343 605.16 612.402C604.159 612.95 603.143 613.505 602.115 614.067C601.064 614.579 600 615.098 598.925 615.622C596.792 616.718 594.514 617.596 592.244 618.603C587.633 620.429 582.809 622.157 577.824 623.603C572.856 625.104 567.771 626.465 562.658 627.686C557.549 628.921 552.406 629.992 547.327 630.935C542.244 631.857 537.227 632.668 532.351 633.298C527.481 633.964 522.753 634.447 518.266 634.819C513.775 635.159 509.524 635.399 505.597 635.507C501.67 635.618 498.068 635.642 494.878 635.557C491.687 635.507 488.911 635.34 486.624 635.165C485.481 635.068 484.461 634.98 483.574 634.905C482.693 634.801 481.944 634.712 481.337 634.64C480.122 634.494 479.475 634.416 479.475 634.416C479.338 634.4 479.24 634.275 479.256 634.138C479.272 634.004 479.39 633.909 479.521 633.917Z" fill="white"/>
<path d="M409.113 665.332C409.113 665.332 408.347 665.594 407.012 665.904C406.342 666.059 405.54 666.234 404.601 666.373C403.662 666.503 402.599 666.637 401.436 666.737C400.276 666.829 399.028 666.862 397.704 666.868C396.38 666.878 394.991 666.774 393.558 666.634C392.13 666.443 390.664 666.158 389.186 665.817C387.71 665.47 386.211 665.117 384.712 664.764C383.212 664.428 381.72 664.051 380.258 663.653C378.792 663.281 377.369 662.806 375.995 662.37C374.628 661.89 373.303 661.457 372.078 660.928C370.842 660.453 369.707 659.88 368.657 659.4C367.632 658.831 366.675 658.381 365.887 657.829C365.49 657.567 365.113 657.337 364.778 657.099C364.458 656.835 364.165 656.593 363.9 656.374C363.354 655.969 363.025 655.509 362.77 655.252C362.526 654.981 362.395 654.836 362.395 654.836C362.304 654.734 362.312 654.578 362.413 654.486C362.503 654.405 362.636 654.402 362.728 654.473L362.767 654.502C362.767 654.502 362.914 654.614 363.19 654.824C363.478 655.021 363.828 655.371 364.419 655.658C364.699 655.814 365.009 655.987 365.347 656.175C365.695 656.347 366.089 656.508 366.497 656.692C367.297 657.086 368.294 657.372 369.328 657.75C370.408 658.048 371.548 658.416 372.805 658.681C374.043 658.988 375.369 659.255 376.736 659.527C378.114 659.767 379.532 660.018 380.986 660.234C382.436 660.459 383.912 660.661 385.397 660.823C386.874 661.016 388.374 661.083 389.838 661.178C391.31 661.237 392.753 661.314 394.14 661.457C395.529 661.595 396.863 661.808 398.129 662.031C399.397 662.237 400.597 662.49 401.7 662.73C402.802 662.961 403.815 663.215 404.716 663.452C405.617 663.699 406.423 663.901 407.074 664.112C408.384 664.516 409.129 664.832 409.129 664.832C409.265 664.89 409.329 665.047 409.271 665.183C409.242 665.256 409.182 665.308 409.113 665.332Z" fill="white"/>
<path d="M370.813 634.896C370.813 634.896 370.825 634.91 370.847 634.938C370.854 634.926 370.854 634.898 370.842 634.879C370.821 634.854 370.809 634.855 370.855 634.867C370.963 634.901 371.164 634.941 371.422 634.985C371.944 635.072 372.729 635.165 373.73 635.264C375.734 635.449 378.604 635.7 382.055 635.906C385.506 636.118 389.535 636.306 393.849 636.493C398.164 636.653 402.763 636.837 407.36 636.922C409.658 636.966 411.958 636.953 414.218 636.908C416.48 636.857 418.701 636.822 420.846 636.843C422.992 636.887 425.063 636.963 427.027 637.078C428.992 637.173 430.85 637.312 432.568 637.429C434.285 637.535 435.863 637.679 437.264 637.784C438.665 637.901 439.891 638.011 440.905 638.112C442.932 638.31 444.109 638.467 444.109 638.467C444.25 638.486 444.348 638.615 444.33 638.756C444.317 638.853 444.248 638.932 444.162 638.964C444.162 638.964 443.046 639.382 441.046 639.899C440.046 640.164 438.826 640.432 437.419 640.703C436.011 640.96 434.418 641.228 432.675 641.427C430.932 641.636 429.04 641.829 427.038 641.932C425.036 642.055 422.924 642.092 420.743 642.05C416.38 641.929 411.755 641.322 407.136 640.915C402.516 640.482 397.906 640 393.599 639.42C389.289 638.87 385.282 638.247 381.854 637.675C378.427 637.097 375.576 636.586 373.591 636.137C372.598 635.916 371.821 635.727 371.288 635.57C371.02 635.49 370.818 635.425 370.666 635.357C370.645 635.349 370.579 635.323 370.511 635.272C370.452 635.228 370.412 635.181 370.388 635.151C370.369 635.121 370.36 635.106 370.36 635.106C370.29 634.991 370.325 634.841 370.44 634.77C370.546 634.705 370.684 634.731 370.759 634.826L370.813 634.896Z" fill="white"/>
<path d="M327.29 903.766L237.59 904.003L239.316 820.447L325.101 820.209L327.29 903.766Z" fill="#FF8A80"/>
<path d="M574.999 835.431C575.026 835.487 574.576 834.991 574.535 834.114C574.457 833.239 574.611 832.012 574.992 830.532C575.366 829.047 575.98 827.31 576.807 825.378C577.656 823.459 578.689 821.325 580.011 819.11C581.308 816.878 582.863 814.547 584.688 812.192C586.505 809.831 588.628 807.47 591.177 805.301C592.46 804.228 593.846 803.197 595.402 802.306C596.952 801.415 598.673 800.645 600.627 800.222C602.556 799.803 604.854 799.826 606.882 800.741C607.89 801.182 608.782 801.817 609.537 802.526C610.284 803.211 610.934 804.108 611.382 804.728C612.461 806.225 613.382 807.791 614.053 809.605C614.704 811.395 614.997 813.543 614.421 815.563C613.86 817.587 612.566 819.181 611.213 820.356C609.839 821.536 608.367 822.413 606.904 823.158C603.967 824.63 601.056 825.655 598.29 826.538C595.524 827.42 592.908 828.179 590.512 828.914C585.711 830.355 581.814 831.796 579.225 833.095C577.93 833.741 576.964 834.34 576.329 834.78C576.008 834.997 575.773 835.177 575.616 835.299C575.457 835.42 575.375 835.483 575.375 835.483L574.999 835.431ZM575.349 834.835C575.498 834.7 575.7 834.516 575.967 834.302C576.584 833.795 577.528 833.097 578.8 832.326C581.333 830.758 585.226 829.046 589.936 827.25C592.289 826.343 594.845 825.401 597.501 824.343C600.143 823.268 602.935 822.143 605.536 820.637C606.831 819.888 608.072 819.034 609.099 818.045C610.118 817.052 610.873 815.916 611.124 814.719C611.685 812.337 610.165 809.502 608.261 807.152C606.366 804.6 604.283 803.944 601.725 804.715C599.199 805.492 596.755 807.353 594.553 809.248C592.331 811.171 590.305 813.274 588.421 815.319C586.55 817.38 584.871 819.437 583.353 821.367C581.863 823.317 580.508 825.128 579.401 826.793C578.274 828.445 577.363 829.933 576.681 831.183C576.006 832.435 575.574 833.461 575.416 834.159C575.347 834.466 575.34 834.681 575.349 834.835Z" fill="#E8EAF6"/>
<path d="M573.506 832.677C573.476 832.525 573.416 832.318 573.272 832.04C572.944 831.404 572.269 830.519 571.301 829.477C570.327 828.438 569.072 827.226 567.567 825.909C566.077 824.575 564.312 823.162 562.38 821.648C560.426 820.16 558.285 818.59 555.957 817.064C553.621 815.556 551.132 814.029 548.499 812.725C545.892 811.442 543.06 810.253 540.419 810.135C537.749 810.029 535.898 811.187 534.703 814.132C533.449 816.884 532.688 820.01 533.828 822.176C534.37 823.272 535.387 824.182 536.623 824.887C537.865 825.587 539.281 826.103 540.722 826.503C543.617 827.308 546.602 827.697 549.429 828.076C552.265 828.435 554.976 828.705 557.481 828.993C562.491 829.551 566.689 830.232 569.534 831.115C570.959 831.542 572.048 831.981 572.772 832.317C573.087 832.456 573.328 832.583 573.506 832.677ZM573.645 833.311C573.645 833.311 573.55 833.271 573.366 833.193C573.183 833.114 572.91 832.998 572.545 832.869C571.819 832.602 570.734 832.265 569.318 831.964C566.486 831.356 562.352 830.938 557.343 830.747C554.839 830.636 552.116 830.558 549.218 830.397C546.319 830.235 543.244 829.974 540.032 829.285C538.428 828.931 536.784 828.451 535.158 827.653C533.554 826.854 531.901 825.636 530.851 823.817C529.786 822.006 529.532 819.854 529.713 817.957C529.907 816.033 530.406 814.286 531.075 812.566C531.354 811.853 531.758 810.822 532.31 809.972C532.863 809.096 533.568 808.258 534.433 807.578C536.166 806.183 538.385 805.585 540.358 805.507C542.356 805.426 544.213 805.741 545.939 806.215C547.668 806.687 549.268 807.337 550.78 808.054C553.791 809.515 556.437 811.268 558.789 813.098C561.146 814.921 563.237 816.786 565.052 818.622C566.887 820.435 568.423 822.241 569.725 823.886C571.01 825.549 572.039 827.076 572.773 828.42C573.513 829.757 573.97 830.906 574.114 831.773C574.294 832.632 573.983 833.225 573.994 833.164L573.645 833.311Z" fill="#E8EAF6"/>
<path d="M635.256 930.035C598.992 928.944 562.453 929.583 525.75 932C524.656 911.898 523.316 854.811 522.488 834.671C560.775 832.177 598.904 831.533 636.758 832.692C635.997 852.824 635.747 909.916 635.256 930.035Z" fill="#FFAF99"/>
<path d="M637.465 877.457C637.465 877.457 635.613 877.82 632.363 878.328C630.738 878.587 628.764 878.875 626.498 879.186C624.231 879.488 621.674 879.829 618.88 880.144C617.483 880.302 616.028 880.467 614.523 880.638C613.016 880.788 611.458 880.943 609.855 881.103C606.652 881.434 603.269 881.703 599.767 881.949C596.263 882.174 592.639 882.343 588.954 882.486C585.27 882.65 581.528 882.817 577.786 882.983C570.304 883.35 562.822 883.716 555.807 884.06C548.794 884.419 542.244 884.694 536.63 884.937C525.401 885.405 517.916 885.717 517.916 885.717L517.889 885.318C517.889 885.318 525.347 884.597 536.534 883.516C542.128 882.984 548.654 882.356 555.65 881.747C562.645 881.123 570.107 880.457 577.568 879.791C581.298 879.441 585.027 879.092 588.698 878.748C592.368 878.383 595.982 878.052 599.483 877.792C602.986 877.554 606.374 877.355 609.591 877.243C611.2 877.18 612.764 877.12 614.278 877.061C615.793 877.023 617.257 876.986 618.662 876.951C621.472 876.879 624.052 876.866 626.338 876.852C628.625 876.85 630.62 876.862 632.265 876.896C635.553 876.953 637.437 877.057 637.437 877.057L637.465 877.457Z" fill="#E8EAF6"/>
<path d="M574.536 831.891C574.536 831.891 574.874 833.422 575.34 836.109C575.577 837.452 575.839 839.085 576.12 840.959C576.391 842.834 576.699 844.949 576.977 847.261C577.117 848.417 577.263 849.62 577.414 850.866C577.544 852.113 577.679 853.403 577.817 854.728C578.106 857.378 578.33 860.179 578.529 863.078C578.708 865.978 578.829 868.98 578.924 872.032C579.039 875.082 579.156 878.181 579.274 881.28C579.542 887.475 579.81 893.67 580.061 899.478C580.328 905.285 580.517 910.709 580.685 915.358C581.005 924.656 581.218 930.855 581.218 930.855L580.819 930.882C580.819 930.882 580.197 924.71 579.264 915.453C578.806 910.824 578.265 905.423 577.748 899.633C577.217 893.843 576.649 887.668 576.082 881.493C575.782 878.407 575.481 875.32 575.186 872.282C574.87 869.245 574.586 866.255 574.373 863.356C574.182 860.456 574.027 857.651 573.957 854.986C573.916 853.654 573.876 852.358 573.837 851.105C573.819 849.85 573.801 848.638 573.785 847.474C573.75 845.146 573.771 843.009 573.787 841.115C573.815 839.22 573.854 837.567 573.909 836.204C574.009 833.479 574.138 831.917 574.138 831.917L574.536 831.891Z" fill="#E8EAF6"/>
<path d="M672.504 738.006C672.504 738.006 672.296 738.207 671.906 738.583C671.711 738.771 671.47 739.003 671.188 739.276C670.881 739.534 670.528 739.83 670.134 740.161C669.334 740.817 668.339 741.567 667.123 742.325C665.924 743.111 664.511 743.894 662.939 744.695C661.363 745.483 659.619 746.267 657.737 746.997C655.862 747.753 653.834 748.397 651.73 749.045C649.618 749.655 647.423 750.264 645.164 750.737C642.91 751.238 640.604 751.671 638.289 752.043C635.976 752.432 633.653 752.758 631.361 753.078C629.067 753.371 626.798 753.609 624.596 753.679C620.19 753.806 616.069 753.449 612.577 752.89C611.702 752.775 610.868 752.608 610.077 752.447C609.286 752.291 608.535 752.142 607.837 751.959C606.438 751.617 605.229 751.275 604.246 750.938C603.261 750.619 602.5 750.323 601.985 750.106C601.473 749.889 601.199 749.773 601.199 749.773C601.069 749.718 601.008 749.568 601.064 749.438C601.103 749.345 601.191 749.287 601.286 749.282H601.294C601.294 749.282 601.589 749.267 602.141 749.24C602.687 749.222 603.488 749.197 604.507 749.164C606.514 749.1 609.381 749.008 612.821 748.897C614.526 748.832 616.372 748.76 618.325 748.685C620.275 748.595 622.326 748.538 624.45 748.472C628.695 748.394 633.257 748.495 637.791 748.073C642.326 747.694 646.828 747.012 651.013 746.194C653.098 745.758 655.106 745.286 656.985 744.756C658.87 744.242 660.624 743.663 662.22 743.063C663.809 742.452 665.251 741.838 666.48 741.203C667.102 740.896 667.679 740.598 668.19 740.287C668.709 739.988 669.201 739.728 669.605 739.448C670.021 739.178 670.393 738.937 670.716 738.727C671.029 738.49 671.297 738.289 671.513 738.125C671.945 737.799 672.176 737.625 672.176 737.625C672.286 737.542 672.443 737.563 672.527 737.673C672.607 737.776 672.594 737.919 672.504 738.006Z" fill="white"/>
<path d="M669.553 745.356C669.553 745.356 669.471 745.588 669.317 746.024C669.162 746.459 668.936 747.078 668.495 747.865C668.088 748.681 667.51 749.558 666.788 750.554C666.052 751.529 665.16 752.586 664.099 753.642C663.037 754.695 661.823 755.773 660.46 756.787C659.115 757.835 657.606 758.789 656.006 759.699C654.385 760.568 652.658 761.356 650.867 762.048C649.085 762.763 647.256 763.415 645.437 764.078C643.614 764.727 641.781 765.341 639.96 765.884C638.147 766.451 636.33 766.901 634.575 767.329C632.812 767.732 631.109 768.115 629.472 768.381C627.842 768.671 626.284 768.869 624.848 769.035C623.407 769.18 622.084 769.281 620.904 769.306C619.726 769.339 618.695 769.317 617.846 769.223C617.423 769.194 617.045 769.14 616.717 769.082C616.389 769.031 616.113 768.989 615.889 768.923C615.444 768.81 615.207 768.749 615.207 768.749C615.074 768.715 614.993 768.58 615.027 768.446C615.058 768.325 615.173 768.247 615.294 768.259L615.323 768.262C615.323 768.262 615.553 768.285 615.985 768.329C616.197 768.36 616.467 768.36 616.782 768.362C617.096 768.371 617.458 768.37 617.866 768.337C618.272 768.321 618.721 768.285 619.211 768.223C619.7 768.182 620.228 768.105 620.791 768.019C621.917 767.853 623.181 767.593 624.55 767.278C627.285 766.622 630.432 765.669 633.747 764.508C637.05 763.309 640.539 761.949 643.92 760.374C645.607 759.58 647.267 758.732 648.849 757.818C650.422 756.909 651.969 756.014 653.467 755.148C654.964 754.311 656.41 753.502 657.781 752.735C659.156 751.972 660.423 751.211 661.594 750.5C662.762 749.785 663.82 749.104 664.74 748.463C665.225 748.164 665.618 747.831 666.02 747.547C666.433 747.266 666.776 746.999 667.088 746.748C667.397 746.49 667.707 746.292 667.955 746.071C668.202 745.85 668.413 745.663 668.592 745.517C668.949 745.224 669.139 745.067 669.139 745.067C669.249 744.976 669.413 744.991 669.504 745.102C669.568 745.177 669.582 745.273 669.553 745.356Z" fill="white"/>
</svg>
