<svg width="499" height="202" viewBox="0 0 499 202" fill="none" xmlns="http://www.w3.org/2000/svg">
<g filter="url(#filter0_d_0_571)">
<path d="M1.7691 48.8197C1.66964 48.6263 1.62338 48.4037 1.63623 48.1804C1.64907 47.957 1.72039 47.7431 1.84112 47.566C1.96185 47.3889 2.12652 47.2567 2.31396 47.1863C2.5014 47.1158 2.70312 47.1104 2.89328 47.1707C3.0849 47.097 3.29141 47.0884 3.48727 47.1461C3.68313 47.2038 3.85977 47.3253 3.99542 47.4955C8.09536 48.5948 10.6082 44.8472 14.3114 43.473C15.8563 42.5875 17.4927 41.9244 19.1828 41.4993C18.5989 40.4395 18.1605 39.2854 17.8823 38.0764C17.5076 37.9515 17.1329 37.8016 16.7361 37.7016C15.6535 37.4398 14.5344 37.4398 13.4517 37.7016L13.2093 37.7016C9.70446 39.2756 3.5325 45.197 0.534695 39.2007C0.534695 39.0508 0.534695 38.776 0.666958 38.726C3.60022 38.2354 6.49624 37.4921 9.32977 36.5024C11.2028 35.4508 13.2251 34.7826 15.3033 34.5286C16.6683 34.5189 18.0175 34.8606 19.249 35.528L19.5796 35.528C20.32 35.069 21.0944 34.6844 21.8941 34.3787C22.4342 34.1162 22.9274 33.7436 23.3489 33.2794C23.6786 32.3672 24.2009 31.5608 24.8699 30.9309C25.8177 29.9815 27.2946 29.2569 27.7134 27.7828L27.7134 27.383C26.7674 24.4389 25.3472 21.7195 23.5252 19.3631C23.4418 19.2764 23.3811 19.1654 23.3496 19.0422C23.3181 18.919 23.3171 18.7884 23.3467 18.6646C23.3762 18.5409 23.4353 18.4287 23.5173 18.3403C23.5994 18.252 23.7012 18.191 23.8118 18.1638L23.8118 18.0139C23.647 17.8074 23.5362 17.553 23.4918 17.2792C23.4474 17.0054 23.4711 16.7229 23.5604 16.4635C23.6497 16.2041 23.8009 15.9781 23.9971 15.8106C24.1933 15.6432 24.4269 15.5409 24.6715 15.5154C25.8914 15.4572 27.0913 15.8812 28.0661 16.7147C28.4228 16.9255 28.7686 17.1591 29.102 17.4143C31.174 17.7391 33.2902 17.2394 34.9434 19.1132C36.4198 19.4503 37.8308 20.0849 39.1094 20.987C39.7248 20.5528 40.227 19.9405 40.5642 19.2132C40.5642 15.2406 35.5605 13.5167 36.1557 9.46921C36.1711 9.41329 36.2019 9.36442 36.2435 9.32971C36.2851 9.29501 36.3355 9.2763 36.3872 9.2763C36.4388 9.2763 36.4892 9.29501 36.5308 9.32971C36.5724 9.36442 36.6032 9.41329 36.6186 9.46921C37.6592 11.5452 38.9419 13.4529 40.432 15.1407L40.961 15.8402C40.6744 13.3418 39.5503 10.4936 39.1535 8.34492C39.1428 8.21194 39.1428 8.07813 39.1535 7.94515C38.0735 6.37114 35.781 3.77276 36.3321 1.6241C36.3564 1.51208 36.4085 1.41037 36.4825 1.33116C36.5565 1.25194 36.649 1.19862 36.7491 1.17752C36.8491 1.15642 36.9524 1.16845 37.0465 1.21221C37.1407 1.25597 37.2217 1.32958 37.2799 1.42422C37.5166 1.79774 37.6818 2.22326 37.7649 2.67344C37.9967 3.43226 38.2842 4.16772 38.6245 4.87208L39.0212 5.79649C39.0734 3.87077 39.6682 2.01458 40.7186 0.499804C40.7186 0.324913 41.0051 0.499798 40.961 0.649704C40.1581 3.60879 40.2277 6.78389 41.1594 9.6941C41.4195 9.27766 41.6991 8.8773 41.997 8.49482C42.8719 7.43137 43.5403 6.17167 43.9588 4.79713C43.9898 4.69383 44.0529 4.60682 44.1364 4.55234C44.2198 4.49787 44.3178 4.47963 44.4122 4.50103C44.5066 4.52243 44.591 4.582 44.6495 4.66866C44.708 4.75531 44.7368 4.86312 44.7303 4.972C44.6682 6.25751 44.269 7.4928 43.5841 8.51982C43.0793 9.52019 42.3778 10.3752 41.5341 11.0183C41.9775 12.5239 42.3382 14.0592 42.6142 15.6154C42.8703 16.8152 42.831 18.0716 42.5006 19.2479C42.1703 20.4241 41.5615 21.475 40.7406 22.2862C41.5881 22.8333 42.5015 23.2373 43.4518 23.4855C44.4505 22.5962 45.2133 21.4118 45.6561 20.0626C46.0748 18.3734 46.1872 16.6056 45.9867 14.8659C45.997 14.8391 46.0139 14.8163 46.0355 14.8004C46.057 14.7844 46.0822 14.7758 46.108 14.7758C46.1338 14.7758 46.1589 14.7844 46.1804 14.8004C46.202 14.8163 46.219 14.8391 46.2292 14.8659C46.7984 16.0794 47.1125 17.4257 47.1469 18.7996C47.1813 20.1734 46.9351 21.5377 46.4276 22.7859C46.6819 22.5692 46.9115 22.3174 47.1109 22.0364C47.5738 21.3618 48.0588 20.7622 48.5437 20.1376L48.7201 20.1376C48.6636 21.2038 48.3341 22.2283 47.7722 23.0857L47.7722 23.2106C48.9292 22.761 50.127 22.4593 51.3432 22.3112C51.7399 22.3112 51.8942 22.9858 51.4974 23.1107C49.2539 24.002 46.9551 24.7035 44.6201 25.2094C44.1399 25.5585 43.6107 25.8121 43.0551 25.9589C42.9455 25.9883 42.8316 25.9902 42.7214 25.9644C42.6111 25.9385 42.5072 25.8857 42.4168 25.8095C42.3265 25.7333 42.252 25.6357 42.1985 25.5234C42.145 25.4111 42.1139 25.2868 42.1073 25.1594C40.6398 24.848 39.2211 24.2924 37.8971 23.5105C37.4626 23.2661 37.0133 23.0574 36.5525 22.8859L36.5525 23.2606C36.7288 24.1101 37.4342 25.1095 37.368 25.9839C37.368 26.2837 37.1697 26.6085 36.8831 26.5836C36.2468 26.4844 35.6695 26.108 35.274 25.5342C35.0288 27.5567 35.1035 29.6126 35.4944 31.6054C36.7659 33.1998 37.7672 35.0462 38.4482 37.052C40.6294 39.7093 43.1842 41.9381 46.0088 43.6479C49.0654 45.0872 51.9411 46.9774 54.5614 49.2694C55.1229 49.8222 55.6529 50.4147 56.1484 51.0433C56.5433 51.4876 56.871 52.0025 57.1183 52.5674C57.2506 52.8422 57.3828 53.0921 57.493 53.3669C58.2001 54.6154 58.5467 56.0823 58.4849 57.5643C59.4769 57.3394 60.8656 56.8397 61.2403 55.8653C61.2403 55.7154 61.5048 55.7404 61.5048 55.8653C61.615 56.7398 62.0559 57.5893 61.7252 58.3638C61.593 58.6886 61.4387 59.0384 61.2624 59.3881C66.7583 62.7194 72.3278 65.7508 77.9707 68.4825C77.9687 68.269 78.0398 68.063 78.1691 67.9078L77.9927 67.9078C77.7552 67.7759 77.5517 67.5769 77.4015 67.3301C77.2514 67.0833 77.1597 66.7969 77.1354 66.4984C77.111 66.1998 77.1548 65.8992 77.2625 65.6254C77.3701 65.3516 77.5381 65.1137 77.7503 64.9346C78.9599 64.1316 80.3759 63.823 81.762 64.0602L83.1287 64.0602C85.3329 63.1108 87.3168 61.3119 89.8737 62.1864C91.5467 61.6316 93.2922 61.4118 95.0318 61.5368C95.4332 60.71 95.6454 59.7823 95.649 58.8385C93.7312 54.816 87.8459 56.1152 86.4571 51.6929C86.4355 51.6246 86.4346 51.5501 86.4546 51.4812C86.4747 51.4123 86.5145 51.3529 86.5678 51.3127C86.6211 51.2724 86.6847 51.2536 86.7486 51.2591C86.8124 51.2646 86.8728 51.2942 86.92 51.3432C88.9847 52.7414 91.21 53.8092 93.5328 54.5161L94.4145 54.9159C92.8936 52.4175 90.4028 50.3188 88.948 48.32L88.7055 47.9453C86.8539 46.9959 83.261 45.7716 82.8201 43.2731C82.7895 43.1421 82.7931 43.0038 82.8306 42.875C82.8681 42.7462 82.9378 42.6326 83.0312 42.5479C83.1246 42.4632 83.2377 42.4111 83.3567 42.3979C83.4758 42.3847 83.5957 42.411 83.7018 42.4737C84.1085 42.7257 84.4739 43.0553 84.7819 43.4481C85.3765 44.0763 86.0181 44.6448 86.6996 45.147L87.5372 45.8465C86.6753 43.8571 86.3899 41.6098 86.7216 39.4256C86.7342 39.3873 86.7567 39.3543 86.7863 39.331C86.8158 39.3077 86.8509 39.2952 86.887 39.2952C86.923 39.2952 86.9581 39.3077 86.9877 39.331C87.0172 39.3543 87.0398 39.3873 87.0523 39.4256C87.6386 42.9279 89.2361 46.1097 91.5931 48.4699C91.6331 47.8934 91.7292 47.3236 91.8796 46.771C92.2423 45.1376 92.3097 43.4379 92.078 41.7741C92.0429 41.6449 92.0546 41.5052 92.1104 41.3857C92.1662 41.2662 92.2616 41.1767 92.3756 41.137C92.4896 41.0972 92.6129 41.1104 92.7183 41.1737C92.8237 41.237 92.9026 41.3451 92.9377 41.4743C93.4958 42.8211 93.6877 44.3258 93.4888 45.7966C93.4575 47.1276 93.1638 48.4337 92.6291 49.6192C93.7898 50.8801 94.8863 52.2148 95.9134 53.6167C96.7479 54.6813 97.3101 55.9839 97.5392 57.3841C97.7684 58.7842 97.6559 60.2288 97.214 61.5618C98.3383 61.597 99.4608 61.4369 100.542 61.0871C101.104 59.582 101.279 57.9281 101.049 56.315C100.655 54.3386 99.9044 52.4758 98.8451 50.8434C98.8451 50.6935 98.8451 50.5436 99.0435 50.6186C100.201 51.504 101.165 52.6782 101.86 54.051C102.556 55.4239 102.964 56.959 103.055 58.5386C103.2 58.1543 103.304 57.7517 103.364 57.3394C103.518 56.39 103.717 55.4906 103.915 54.5412C103.915 54.508 103.927 54.4763 103.947 54.4528C103.968 54.4294 103.996 54.4162 104.025 54.4162C104.054 54.4162 104.082 54.4294 104.103 54.4528C104.124 54.4763 104.135 54.508 104.135 54.5412C104.577 55.6698 104.737 56.9143 104.598 58.1389C104.598 58.1389 104.598 58.1389 104.598 58.2888C105.571 57.1293 106.65 56.0907 107.817 55.1907C108.213 54.9159 108.698 55.5155 108.346 55.8903C106.497 58.1792 104.5 60.3088 102.372 62.2613C102.053 62.9064 101.643 63.4886 101.16 63.9853C101.063 64.0838 100.949 64.157 100.824 64.1996C100.7 64.2421 100.569 64.2531 100.441 64.2316C100.312 64.2101 100.189 64.1567 100.081 64.0753C99.9732 63.9938 99.8823 63.8863 99.815 63.7604C98.1726 64.3408 96.4653 64.6521 94.7452 64.6848C94.1909 64.7117 93.6388 64.7785 93.092 64.8847C93.1584 64.9989 93.2321 65.1074 93.3124 65.2095C93.9076 65.984 95.0758 66.5337 95.5167 67.4831C95.5561 67.5601 95.5816 67.6452 95.5918 67.7334C95.602 67.8217 95.5968 67.9114 95.5763 67.9973C95.5558 68.0832 95.5205 68.1637 95.4724 68.2341C95.4244 68.3045 95.3645 68.3635 95.2963 68.4075C94.5882 68.7248 93.8001 68.7248 93.092 68.4075C93.8217 70.6169 94.8887 72.6635 96.2441 74.4538C98.3004 75.2843 100.2 76.5473 101.843 78.1764C105.339 79.507 109.001 80.1903 112.688 80.2001C116.48 79.787 120.304 79.9382 124.062 80.6499C124.903 80.8485 125.729 81.1242 126.531 81.4744C127.14 81.6784 127.714 81.9996 128.228 82.4238L129 82.9984C130.316 83.841 131.37 85.1237 132.019 86.6711C132.901 85.8217 134.113 84.4725 134.003 83.2483C134 83.2061 134.008 83.1638 134.027 83.1275C134.046 83.0911 134.075 83.0625 134.109 83.0459C134.144 83.0292 134.182 83.0253 134.218 83.0347C134.254 83.0442 134.287 83.0664 134.312 83.0983C134.819 83.8978 135.678 84.4975 135.745 85.5968C135.838 86.5754 135.778 87.5649 135.568 88.52C146.854 91.0184 158.272 92.8673 169.734 94.1665C169.665 94.0102 169.638 93.8338 169.657 93.6601C169.677 93.4864 169.742 93.3233 169.845 93.1921L169.602 93.1921C169.31 93.083 169.048 92.8891 168.842 92.6297C168.636 92.3703 168.494 92.0544 168.429 91.7133C168.365 91.3723 168.38 91.018 168.474 90.6857C168.567 90.3534 168.736 90.0547 168.963 89.8192C170.253 88.6853 171.85 88.0937 173.482 88.1452C174.018 88.1063 174.555 88.1063 175.091 88.1452C177.582 86.6711 179.61 84.2726 182.673 84.8723C184.546 83.9597 186.546 83.427 188.581 83.2982C188.945 82.2685 189.074 81.1514 188.956 80.0503C186.222 75.678 179.565 78.1514 177.405 73.2295C177.251 72.8797 177.604 72.6049 177.89 72.7548C180.437 73.9959 183.122 74.8365 185.87 75.2532L186.95 75.553C184.878 73.0546 181.726 70.9059 179.786 68.8073L179.455 68.4075C177.251 67.608 172.842 66.7835 172.049 63.9353C171.951 63.8122 171.889 63.6575 171.872 63.4928C171.855 63.3281 171.884 63.1615 171.954 63.0161C172.024 62.8706 172.133 62.7535 172.264 62.6809C172.396 62.6084 172.544 62.584 172.688 62.6111C173.2 62.8237 173.672 63.1461 174.077 63.5605C174.85 64.1866 175.669 64.7381 176.524 65.2095L177.56 65.8841C176.324 63.7073 175.716 61.1494 175.818 58.5637C175.818 58.3138 176.149 58.2888 176.215 58.5637C177.334 62.5249 179.583 65.9525 182.607 68.3076C182.553 67.6344 182.553 66.957 182.607 66.2838C182.836 64.3431 182.708 62.3697 182.233 60.4874C182.198 60.35 182.207 60.2031 182.26 60.073C182.312 59.9429 182.404 59.8382 182.518 59.7779C182.632 59.7176 182.762 59.7056 182.883 59.7441C183.005 59.7826 183.11 59.869 183.18 59.9878C184.008 61.4816 184.422 63.2217 184.371 64.9846C184.487 66.5341 184.307 68.0937 183.842 69.5568C185.381 70.824 186.853 72.1921 188.25 73.6542C189.351 74.758 190.164 76.1814 190.603 77.7709C191.042 79.3605 191.09 81.0557 190.741 82.6736C192.052 82.5176 193.337 82.1473 194.554 81.5743C195.007 79.7441 195.007 77.8081 194.554 75.9778C193.871 73.7457 192.791 71.6963 191.38 69.9566C191.365 69.9206 191.359 69.8802 191.364 69.8406C191.369 69.801 191.385 69.764 191.408 69.7344C191.432 69.7048 191.463 69.6839 191.497 69.6746C191.532 69.6652 191.568 69.6677 191.601 69.6817C193.055 70.5185 194.32 71.7251 195.295 73.2074C196.27 74.6897 196.929 76.4074 197.222 78.2264C197.343 77.7544 197.417 77.2682 197.442 76.7773C197.442 75.628 197.618 74.5537 197.729 73.4294C197.739 73.4026 197.756 73.3799 197.777 73.3639C197.799 73.3479 197.824 73.3394 197.85 73.3394C197.876 73.3394 197.901 73.3479 197.922 73.3639C197.944 73.3799 197.961 73.4026 197.971 73.4294C198.639 74.651 198.984 76.0647 198.963 77.5019C198.963 77.5019 198.963 77.6268 198.963 77.6767C199.951 76.1826 201.074 74.8094 202.314 73.5793C202.71 73.2045 203.372 73.8291 202.997 74.3038C201.173 77.2461 199.146 80.0198 196.935 82.5987C196.657 83.4061 196.254 84.1507 195.745 84.7973C195.648 84.9286 195.526 85.0342 195.389 85.1066C195.252 85.1791 195.103 85.2166 194.951 85.2166C194.8 85.2166 194.651 85.1791 194.514 85.1066C194.376 85.0342 194.255 84.9286 194.158 84.7973C192.329 85.7303 190.391 86.3614 188.405 86.6711C187.758 86.7965 187.117 86.9633 186.487 87.1708L186.795 87.5206C187.589 88.2951 189 88.7698 189.573 89.7942C189.682 89.9652 189.729 90.1771 189.704 90.3862C189.68 90.5954 189.585 90.7859 189.441 90.9185C188.662 91.3332 187.777 91.4131 186.95 91.1433C187.726 92.8343 188.68 94.4116 189.793 95.8404C214.541 97.1658 239.334 96.8988 264.055 95.0409L269.037 94.6412C268.979 94.3518 268.978 94.0515 269.036 93.762C269.093 93.4724 269.206 93.2009 269.367 92.9672C270.486 91.5852 272.002 90.6995 273.644 90.4688C274.158 90.3011 274.681 90.1677 275.209 90.069C277.413 88.2202 279.154 85.5219 282.284 85.5968C284.023 84.3976 285.932 83.5521 287.927 83.0984C288.172 82.025 288.172 80.8988 287.927 79.8254C284.665 75.9778 278.405 79.5256 275.628 75.0034C275.586 74.9351 275.565 74.8529 275.569 74.7697C275.572 74.6865 275.601 74.6072 275.649 74.5442C275.697 74.4812 275.762 74.4381 275.834 74.4217C275.906 74.4053 275.981 74.4166 276.046 74.4538C278.73 75.302 281.504 75.7307 284.29 75.728L285.392 75.8529C283.012 73.6543 279.617 72.1052 277.435 70.3563L277.038 70.0315C274.724 69.6068 270.425 69.4818 269.147 66.8085C269.083 66.6718 269.054 66.5174 269.063 66.3628C269.073 66.2083 269.121 66.06 269.201 65.9348C269.282 65.8096 269.392 65.7127 269.519 65.6551C269.645 65.5976 269.784 65.5816 269.918 65.6093C270.444 65.7512 270.944 65.9964 271.395 66.3338C272.245 66.8249 273.13 67.2344 274.04 67.558L275.165 68.0577C273.655 66.1166 272.722 63.6869 272.497 61.1121C272.511 61.068 272.536 61.0298 272.57 61.0027C272.603 60.9757 272.644 60.9611 272.685 60.9611C272.726 60.9611 272.766 60.9757 272.8 61.0027C272.833 61.0298 272.859 61.068 272.872 61.1121C274.498 64.8434 277.163 67.864 280.455 69.7067C280.348 69.039 280.296 68.3615 280.301 67.683C280.274 65.725 279.891 63.7943 279.176 62.0115C279.1 61.8757 279.075 61.7112 279.106 61.5542C279.137 61.3972 279.222 61.2607 279.342 61.1745C279.462 61.0884 279.607 61.0597 279.745 61.0949C279.884 61.13 280.004 61.2261 280.08 61.3619C281.062 62.7003 281.682 64.3312 281.866 66.059C282.163 67.5813 282.163 69.1588 281.866 70.6811C283.524 71.6893 285.128 72.8072 286.671 74.029C287.901 74.9351 288.889 76.206 289.526 77.7037C290.163 79.2014 290.426 80.8685 290.286 82.5237C291.561 82.1494 292.785 81.5776 293.923 80.8248C294.125 78.933 293.866 77.0146 293.174 75.2783C292.229 73.1764 290.899 71.3278 289.272 69.8566C289.247 69.8245 289.232 69.7843 289.229 69.7419C289.226 69.6995 289.235 69.6571 289.255 69.6209C289.275 69.5846 289.304 69.5565 289.339 69.5404C289.374 69.5244 289.412 69.5214 289.448 69.5318C290.985 70.1199 292.382 71.1023 293.529 72.4024C294.676 73.7025 295.542 75.2852 296.061 77.0272C296.106 76.5455 296.106 76.0597 296.061 75.5781C296.061 74.4288 296.061 73.3544 295.907 72.2052C295.917 72.1784 295.934 72.1556 295.956 72.1397C295.977 72.1237 296.002 72.1152 296.028 72.1152C296.054 72.1152 296.079 72.1237 296.101 72.1397C296.122 72.1556 296.139 72.1784 296.149 72.2052C296.967 73.3062 297.487 74.6506 297.648 76.0777L297.648 76.2776C298.435 74.6354 299.366 73.0869 300.426 71.6555C300.778 71.2308 301.506 71.6555 301.219 72.2551C299.767 75.4879 298.094 78.5871 296.215 81.5244C296.05 82.4123 295.744 83.2589 295.312 84.0228C295.232 84.1687 295.125 84.2925 294.998 84.3853C294.871 84.4781 294.727 84.5374 294.577 84.5589C294.426 84.5805 294.274 84.5637 294.13 84.5099C293.987 84.456 293.856 84.3664 293.747 84.2477C292.049 85.466 290.209 86.408 288.28 87.0459C287.641 87.2708 287.046 87.5456 286.451 87.8204C286.57 87.9286 286.695 88.0287 286.825 88.1203C287.685 88.7948 289.184 89.0197 289.845 89.9441C289.971 90.0967 290.04 90.2976 290.04 90.5062C290.04 90.7149 289.971 90.9158 289.845 91.0684C289.126 91.6138 288.254 91.8364 287.398 91.693L288.236 92.8923C308.67 90.3938 328.949 86.871 349.426 84.1477C371.601 81.1746 397.744 78.1764 417.957 93.6668C421.396 90.8159 425.223 88.6217 429.287 87.1708C429.169 86.6677 429.163 86.1391 429.271 85.6329C429.379 85.1267 429.596 84.6591 429.904 84.2726C431.18 82.5003 432.792 81.0767 434.62 80.1077C436.448 79.1388 438.445 78.6494 440.463 78.6761C446.591 78.4013 454.35 81.5244 458.957 74.8285C458.957 74.8285 459.265 74.8285 459.177 74.9784C457.149 79.5756 455.32 82.4738 451.683 83.748C448.608 85.8851 446.012 88.8013 444.1 92.2677C444.486 93.2695 444.628 94.3703 444.512 95.4555C444.396 96.5407 444.025 97.5708 443.439 98.4388C450.051 95.5406 456.907 93.4419 463.63 97.8642C465.26 99.0642 466.619 100.682 467.597 102.586C469.802 107.158 472.447 105.085 476.701 105.559C482.895 106.259 489.045 111.406 494.181 114.954C494.334 115.073 494.446 115.247 494.5 115.449C494.553 115.65 494.545 115.866 494.476 116.061C494.406 116.256 494.28 116.419 494.118 116.522C493.957 116.625 493.769 116.662 493.586 116.627C492.154 116.237 490.741 115.762 489.354 115.203C478.112 116.628 473.262 131.368 467.73 140.987C463.716 147.484 458.347 152.754 452.101 156.328C455.672 160.975 457.237 168.82 458.868 173.817C459.12 174.582 459.12 175.425 458.868 176.19C463.928 176.342 468.953 177.181 473.835 178.689C473.975 178.745 474.094 178.853 474.173 178.995C474.253 179.137 474.287 179.305 474.272 179.472C474.257 179.639 474.192 179.796 474.089 179.917C473.986 180.037 473.85 180.115 473.703 180.138C442.006 179.473 414.188 191.681 384.1 183.236C375.613 180.862 366.818 176.365 364.019 166.272C361.991 158.776 366.003 151.431 372.307 156.278C373.916 157.527 372.307 160.4 370.565 159.551C368.2 160.933 367.957 163.107 369.838 166.072C370.975 168.436 372.69 170.379 374.776 171.668C375.482 172.196 376.219 172.672 376.98 173.092C377.231 172.743 377.582 172.504 377.972 172.418C379.801 172.018 381.565 172.418 383.372 171.718C385.543 170.757 387.441 169.141 388.861 167.046C390.117 165.497 391.241 163.848 392.388 162.224C386.83 160.729 381.854 157.221 378.214 152.23C377.944 151.85 377.751 151.406 377.651 150.931C377.55 150.456 377.544 149.961 377.632 149.483C377.721 149.005 377.902 148.555 378.163 148.166C378.424 147.777 378.757 147.458 379.14 147.233C379.297 146.902 379.514 146.61 379.776 146.378C380.037 146.146 380.339 145.978 380.661 145.884C384.476 144.766 388.385 144.113 392.322 143.935C389.434 138.139 391.572 130.769 395.363 124.548C398.217 119.783 401.586 115.444 405.393 111.631C384.585 102.661 360.139 104.835 339.265 107.008C339.185 107.456 339.082 107.899 338.956 108.333C338.691 109.147 338.336 109.919 337.898 110.631C338.454 111.655 339.065 112.64 339.728 113.579C341.62 116.129 343.684 118.51 345.9 120.7C346.651 120.946 347.387 121.247 348.104 121.599L348.302 121.599C348.454 121.563 348.611 121.562 348.764 121.595C348.917 121.628 349.062 121.696 349.191 121.793C349.321 121.891 349.431 122.017 349.517 122.164C349.603 122.311 349.662 122.476 349.691 122.649C349.747 123.799 349.917 124.939 350.198 126.047C350.543 126.916 350.687 127.87 350.617 128.82C352.437 132.818 354.515 136.66 356.833 140.313C356.91 140.414 356.955 140.542 356.961 140.676C356.966 140.81 356.932 140.943 356.864 141.052C356.795 141.161 356.696 141.241 356.583 141.28C356.469 141.318 356.348 141.312 356.238 141.262C353.882 139.967 351.98 137.811 350.837 135.141C348.768 130.735 345.612 127.107 341.756 124.697C339.323 123.142 336.988 121.397 334.768 119.476C334.807 120.047 334.881 120.615 334.989 121.175C335.349 122.362 335.791 123.514 336.311 124.623C336.86 125.154 337.459 125.615 338.097 125.997C339.084 126.375 340.048 126.826 340.984 127.346C341.109 127.117 341.29 126.935 341.505 126.822C341.721 126.708 341.961 126.669 342.195 126.709C342.43 126.749 342.649 126.866 342.826 127.046C343.002 127.226 343.128 127.46 343.188 127.721C343.916 131.118 345.988 135.666 345.282 139.213C345.915 142.531 347.138 145.668 348.875 148.433C349.184 148.882 348.699 149.432 348.302 149.357C347.365 149.307 346.458 148.966 345.681 148.371C344.903 147.776 344.285 146.951 343.894 145.984C341.69 140.638 341.69 135.516 336.73 131.993C334.041 130.069 330.977 129.02 328.266 126.996C324.884 124.157 321.871 120.793 319.316 117.002C317.877 116.523 316.347 116.523 314.908 117.002C311.733 117.952 308.648 120.85 305.65 122.399C303.18 123.783 300.503 124.631 297.758 124.897C295.131 127.387 291.874 128.865 288.456 129.12C287.605 129.252 286.79 129.602 286.076 130.144C285.282 133.417 284.577 136.69 283.563 139.863C282.13 144.385 279.772 149.507 275.099 150.082C274.845 150.122 274.587 150.093 274.346 149.997C274.104 149.902 273.886 149.742 273.71 149.532C273.455 149.447 273.228 149.278 273.058 149.046C272.888 148.815 272.782 148.532 272.754 148.233C272.726 147.934 272.776 147.631 272.899 147.365C273.022 147.098 273.212 146.878 273.445 146.734C273.582 146.464 273.782 146.244 274.024 146.098C274.266 145.952 274.539 145.887 274.812 145.909C279.727 142.661 279.022 136.49 281.601 131.143C282.411 128.666 283.468 126.302 284.753 124.098C283.319 123.695 281.95 123.038 280.697 122.149C280.212 122.424 279.727 122.674 279.287 122.974C278 123.841 276.882 124.998 276.002 126.371C275.956 126.474 275.904 126.575 275.848 126.671C273.644 131.893 272.52 144.16 264.672 141.437C264.474 141.437 264.254 141.087 264.408 140.812C266.612 136.79 269.323 134.117 271.021 129.594C271.992 126.587 273.433 123.803 275.275 121.375C276.597 119.943 278.187 118.867 279.926 118.226L280.234 117.852C280.59 116.635 281.04 115.456 281.579 114.329C281.836 113.62 281.992 112.87 282.042 112.105C274.746 112.53 267.406 112.83 259.999 112.88C252.218 112.88 244.305 112.88 236.369 112.655C236.278 113.917 235.971 115.148 235.466 116.278C235.092 117.027 234.64 117.723 234.121 118.351C234.532 119.462 235.011 120.539 235.554 121.574C237.095 124.411 238.827 127.109 240.734 129.644C241.44 130.011 242.125 130.428 242.784 130.894L242.96 130.894C243.275 130.88 243.581 131.005 243.816 131.243C244.05 131.48 244.194 131.812 244.217 132.168C244.096 133.313 244.096 134.47 244.217 135.616C244.415 136.535 244.415 137.495 244.217 138.414C245.509 142.699 247.071 146.874 248.89 150.906C248.989 151.009 249.048 151.152 249.055 151.304C249.061 151.457 249.013 151.605 248.923 151.718C248.832 151.831 248.706 151.898 248.571 151.905C248.437 151.912 248.306 151.858 248.206 151.756C246.036 150.087 244.422 147.641 243.622 144.81C242.147 140.107 239.497 135.992 235.995 132.967C233.781 131.037 231.689 128.933 229.735 126.671C229.702 127.237 229.702 127.804 229.735 128.37C229.925 129.613 230.212 130.833 230.594 132.018C231.075 132.625 231.606 133.177 232.181 133.667C233.103 134.201 233.994 134.802 234.849 135.466C235.001 135.243 235.21 135.078 235.447 134.993C235.684 134.907 235.939 134.905 236.177 134.986C236.415 135.067 236.626 135.227 236.783 135.447C236.939 135.666 237.033 135.934 237.053 136.215C237.339 139.688 238.794 144.535 237.626 147.933C238.039 151.329 239.043 154.599 240.58 157.552C240.844 158.052 240.293 158.526 239.896 158.376C238.985 158.16 238.142 157.667 237.459 156.95C236.775 156.232 236.277 155.318 236.017 154.304C234.628 148.658 235.179 143.586 230.705 139.313C228.302 136.99 225.392 135.441 222.968 133.117C219.984 129.776 217.432 125.974 215.385 121.824C214.017 121.07 212.483 120.791 210.976 121.025C207.692 121.424 204.363 123.773 201.123 124.822C198.496 125.763 195.739 126.144 192.989 125.947C191.729 126.754 190.399 127.415 189.022 127.92C187.134 128.449 185.189 128.667 183.247 128.57C182.392 128.562 181.548 128.776 180.778 129.195C179.588 132.293 178.441 135.416 177.031 138.389C175.025 142.636 172.049 147.308 167.376 147.109C167.116 147.112 166.86 147.043 166.63 146.908C166.399 146.773 166.201 146.576 166.053 146.334C165.812 146.216 165.607 146.021 165.463 145.772C165.319 145.523 165.242 145.232 165.242 144.935C165.242 144.637 165.319 144.346 165.463 144.098C165.607 143.849 165.812 143.654 166.053 143.536C166.218 143.293 166.44 143.108 166.693 143.001C166.947 142.895 167.222 142.873 167.486 142.936L167.618 142.936C172.887 140.438 172.975 134.316 176.215 129.469C177.325 127.15 178.671 124.986 180.227 123.023C178.871 122.415 177.607 121.573 176.479 120.525C175.964 120.687 175.456 120.878 174.959 121.1C173.575 121.748 172.323 122.708 171.277 123.923C171.277 123.923 171.145 124.098 171.101 124.198C168.302 128.995 165.568 140.962 158.162 136.965C157.964 136.84 157.787 136.54 157.964 136.315C160.631 132.692 163.673 130.494 165.965 126.321C167.308 123.49 169.084 120.952 171.211 118.826C172.707 117.619 174.426 116.816 176.237 116.478C176.334 116.343 176.454 116.233 176.59 116.153C177.093 115.006 177.683 113.911 178.353 112.88C178.765 112.11 179.056 111.264 179.213 110.381C179.044 109.416 179.044 108.423 179.213 107.458C163.083 104.961 147.112 101.28 131.402 96.44C131.213 96.6833 131.006 96.9089 130.785 97.1146C131.047 98.1021 131.364 99.07 131.733 100.013C132.772 102.619 133.995 105.126 135.392 107.508C135.955 107.91 136.499 108.344 137.023 108.807L137.199 108.807C137.332 108.817 137.461 108.856 137.58 108.923C137.699 108.99 137.804 109.084 137.891 109.198C137.977 109.312 138.042 109.445 138.082 109.588C138.123 109.731 138.137 109.882 138.125 110.032C137.956 110.994 137.875 111.974 137.883 112.955C138.004 113.795 137.928 114.657 137.662 115.453C138.376 119.223 139.326 122.93 140.506 126.546C140.566 126.65 140.591 126.776 140.574 126.899C140.557 127.022 140.5 127.133 140.415 127.211C140.33 127.289 140.221 127.328 140.112 127.321C140.002 127.314 139.899 127.26 139.822 127.171C138.141 125.49 137.001 123.222 136.582 120.725C135.766 116.557 133.888 112.752 131.182 109.782C129.475 107.873 127.891 105.827 126.443 103.661C126.369 104.149 126.318 104.641 126.288 105.135C126.351 106.21 126.484 107.279 126.685 108.333C127.048 108.896 127.453 109.423 127.897 109.907C128.665 110.47 129.401 111.088 130.102 111.755C130.252 111.584 130.445 111.468 130.655 111.423C130.865 111.377 131.082 111.405 131.278 111.503C131.473 111.6 131.638 111.762 131.751 111.968C131.864 112.174 131.919 112.413 131.909 112.655C131.909 115.628 132.637 119.95 131.336 122.649C131.189 125.554 131.572 128.463 132.46 131.193C132.637 131.643 132.13 131.993 131.799 131.818C131.05 131.525 130.384 131.008 129.872 130.322C129.36 129.636 129.02 128.807 128.889 127.92C128.206 122.924 129.154 118.701 125.737 114.504C123.908 112.23 121.593 110.581 119.742 108.308C117.503 105.12 115.677 101.586 114.319 97.8142C113.237 97.0397 111.984 96.6243 110.704 96.6149C107.722 97.0463 104.774 97.7396 101.887 98.6886C99.5702 99.1756 97.1942 99.1756 94.8774 98.6886C93.7313 99.2231 92.5431 99.633 91.3286 99.9129C89.6778 100.138 88.0068 100.087 86.3689 99.763C85.6271 99.6505 84.8722 99.7361 84.1647 100.013C82.8642 102.511 81.6077 105.01 80.1309 107.508C78.0368 110.881 75.0831 114.504 71.1154 113.779C70.893 113.751 70.6801 113.66 70.4957 113.517C70.3112 113.373 70.1606 113.18 70.0574 112.955C69.8706 112.816 69.7236 112.619 69.6343 112.387C69.545 112.155 69.5174 111.899 69.5549 111.65C69.5923 111.4 69.6932 111.169 69.8451 110.983C69.997 110.798 70.1934 110.667 70.4101 110.606C70.5743 110.413 70.7843 110.277 71.0149 110.215C71.2455 110.153 71.4871 110.167 71.7106 110.256C76.4057 108.857 77.0669 103.561 80.2631 99.8129C81.423 97.9749 82.7695 96.2977 84.2749 94.816C83.168 94.1132 82.1641 93.2198 81.2991 92.1677L79.9766 92.4675C78.7461 92.8597 77.5987 93.5312 76.6041 94.4413L76.4057 94.6412C73.5842 98.3888 70.1676 108.258 64.2381 103.96C64.1932 103.936 64.1539 103.899 64.1231 103.855C64.0923 103.81 64.0708 103.759 64.0602 103.703C64.0496 103.648 64.0502 103.591 64.0619 103.536C64.0736 103.481 64.0962 103.429 64.1279 103.386C66.7289 100.637 69.5283 99.1134 71.8649 95.8904C73.2639 93.667 75.0034 91.7461 77.0008 90.2189C78.3592 89.3802 79.865 88.8937 81.4094 88.7948L81.74 88.5699C82.2811 87.6824 82.8856 86.8468 83.5475 86.0715C83.9656 85.4743 84.2866 84.7975 84.4954 84.0727C84.3914 82.9429 84.5352 81.8014 84.9141 80.7498C85.1786 79.9253 85.6195 79.0758 85.9501 78.2514C76.6873 73.4383 67.6919 67.99 59.014 61.9365C58.5106 62.206 57.9868 62.4234 57.4489 62.5861C56.8798 63.5212 56.1248 64.2914 55.2447 64.8347C54.7295 65.1015 54.1898 65.3026 53.6356 65.4344C53.4675 66.3076 53.3496 67.1922 53.2829 68.0827C53.1519 70.5807 53.1887 73.0864 53.3931 75.578C53.6925 76.1485 53.9576 76.7411 54.1866 77.3519L54.3189 77.3519C54.4177 77.4206 54.5033 77.5112 54.5705 77.6182C54.6376 77.7253 54.685 77.8467 54.7097 77.9751C54.7344 78.1034 54.736 78.2361 54.7143 78.3652C54.6926 78.4943 54.6481 78.617 54.5834 78.7261C54.0949 79.3776 53.6734 80.0901 53.327 80.8498C53.1189 81.51 52.7707 82.1021 52.313 82.5737C51.493 85.7918 50.8815 89.0734 50.4835 92.3926C50.4738 92.489 50.4369 92.5793 50.3783 92.65C50.3197 92.7208 50.2425 92.7681 50.1581 92.7849C50.0738 92.8018 49.987 92.7873 49.9105 92.7436C49.8341 92.6999 49.7721 92.6293 49.734 92.5425C49.0438 90.4834 48.9894 88.2201 49.5797 86.1215C50.4482 82.547 50.387 78.7642 49.4034 75.2283C48.774 72.9821 48.295 70.6854 47.9706 68.3575C47.7399 68.6931 47.5265 69.0435 47.3314 69.4069C46.9888 70.2135 46.7014 71.0488 46.4717 71.9053C46.5341 72.509 46.6523 73.1035 46.8244 73.6792C47.184 74.4898 47.5005 75.3241 47.7722 76.1776C47.9472 76.1123 48.1357 76.1093 48.3123 76.1688C48.489 76.2283 48.6454 76.3477 48.7605 76.5108C48.8756 76.6739 48.944 76.873 48.9564 77.0814C48.9689 77.2898 48.9249 77.4975 48.8303 77.6767C47.684 79.9253 46.7582 83.598 44.7523 85.172C43.6042 87.3362 42.8544 89.7414 42.5481 92.2427C42.5481 92.6674 41.997 92.6924 41.7986 92.3926C41.326 91.821 41.0003 91.1139 40.8565 90.3477C40.7128 89.5815 40.7565 88.7853 40.9831 88.0452C42.2615 83.9478 44.5099 81.1246 43.4298 76.3276C42.8346 73.8291 41.6664 71.3307 41.0713 68.8323C40.5164 65.3544 40.3902 61.806 40.6965 58.2888C40.1507 57.2143 39.3382 56.3454 38.36 55.7904C35.9471 54.7326 33.463 53.8971 30.9316 53.2919C28.9892 52.5691 27.1756 51.4609 25.5753 50.019C24.5064 49.8932 23.4507 49.6506 22.4231 49.2944C21.0688 48.6832 19.8052 47.8406 18.6759 46.796C18.1511 46.3726 17.5479 46.0906 16.9124 45.9715C15.0168 47.2707 13.1432 48.6198 11.1814 49.7691C8.35989 51.3681 4.78897 52.7673 2.01159 50.3688C1.8273 50.1761 1.70376 49.9203 1.65997 49.6406C1.61618 49.3608 1.65451 49.0724 1.7691 48.8197ZM133.408 91.618C133.295 92.6746 132.996 93.6944 132.526 94.6162C148.066 99.2477 163.851 102.744 179.786 105.085C180.447 103.65 180.672 102.007 180.425 100.413C180.376 100.234 180.317 100.058 180.249 99.8879C178.912 98.8537 177.504 97.943 176.039 97.1646C162.113 95.6839 148.27 93.3233 134.576 90.094C134.231 90.6432 133.84 91.1536 133.408 91.618ZM394.68 162.799C392.476 167.796 389.588 173.842 385.621 176.44L387.142 176.89C394.255 178.719 401.516 179.707 408.81 179.838C423.424 180.463 438.192 176.615 452.895 176.14C452.101 173.117 451.418 170.069 450.691 167.071C449.779 164.118 448.557 161.3 447.054 158.676C445.414 159.277 443.721 159.671 442.006 159.851C428.979 161.125 409.779 166.397 394.68 162.799ZM350.595 104.31C366.025 103.211 383.527 102.211 399.287 107.283C398.075 104.635 400.059 102.436 402.263 101.962C403.029 101.827 403.802 101.743 404.577 101.712L404.71 101.712C407.06 101.288 409.464 101.476 411.741 102.261C412.866 98.9514 414.82 96.0858 417.362 94.0166C393.424 78.0515 362.542 82.9985 337.303 87.2208C321.432 89.8692 305.76 92.5675 289.977 94.7161C290.808 95.6366 291.707 96.4726 292.667 97.2146C295.214 97.4112 297.706 98.1574 300.007 99.4132C304.305 99.708 308.616 99.2016 312.769 97.9142C316.927 96.1392 321.268 94.9722 325.687 94.4413C326.692 94.3665 327.701 94.3665 328.706 94.4413C329.459 94.4639 330.203 94.6242 330.911 94.916C331.263 95.0409 331.594 95.1409 331.925 95.2908C333.642 95.7667 335.184 96.8416 336.333 98.3639C337.105 97.0896 338.097 95.1659 337.634 93.8167C337.62 93.7711 337.62 93.7218 337.633 93.676C337.646 93.6303 337.672 93.5905 337.707 93.5626C337.741 93.5346 337.783 93.52 337.825 93.5207C337.867 93.5215 337.909 93.5377 337.942 93.5669C338.736 94.2914 339.86 94.6662 340.257 95.8404C340.856 97.4156 340.995 99.1663 340.653 100.837C340.373 101.82 339.988 102.759 339.507 103.636C339.551 104.167 339.551 104.703 339.507 105.235L350.595 104.31ZM264.628 110.157C270.514 110.157 276.355 109.907 282.262 109.632C282.207 108.967 282.207 108.298 282.262 107.633C282.417 105.709 283.276 103.461 282.461 101.587C282.393 101.42 282.312 101.262 282.218 101.112C278.883 99.2401 275.276 98.0717 271.572 97.6643C271.387 97.6567 271.211 97.5785 271.07 97.4423C270.93 97.3062 270.835 97.1202 270.8 96.9148C267.295 97.2645 263.813 97.5643 260.286 97.8142C238.273 99.4779 216.194 99.7115 194.158 98.5137C195.684 99.2111 197.158 100.047 198.566 101.012C202.777 102.009 207.103 102.22 211.373 101.637C215.713 100.55 220.158 100.104 224.599 100.313C225.608 100.427 226.61 100.619 227.597 100.887C228.328 101.037 229.035 101.315 229.691 101.712L230.638 102.261C232.261 103.034 233.643 104.339 234.606 106.009C235.51 104.885 236.81 103.136 236.458 101.737C236.444 101.689 236.446 101.637 236.462 101.59C236.477 101.543 236.507 101.503 236.545 101.477C236.583 101.451 236.628 101.44 236.672 101.447C236.716 101.453 236.757 101.476 236.788 101.512C237.494 102.361 238.552 102.936 238.794 104.185C239.182 105.836 239.105 107.583 238.574 109.182C238.464 109.432 238.309 109.707 238.177 109.957C246.818 110.082 255.679 110.206 264.452 110.082L264.628 110.157ZM86.7437 75.3032C86.7172 75.1503 86.6804 74.9999 86.6335 74.8535C86.1706 74.3788 85.6636 73.9291 85.1566 73.4794C77.5298 70.0315 70.0133 66.1839 62.6731 61.8866C70.4596 67.1767 78.5033 71.9647 86.7657 76.2276C86.745 75.9092 86.6779 75.5969 86.5673 75.3032L86.7437 75.3032Z" fill="url(#paint0_linear_0_571)"/>
</g>
<defs>
<filter id="filter0_d_0_571" x="0.534668" y="0.426758" width="502" height="200.797" filterUnits="userSpaceOnUse" color-interpolation-filters="sRGB">
<feFlood flood-opacity="0" result="BackgroundImageFix"/>
<feColorMatrix in="SourceAlpha" type="matrix" values="0 0 0 0 0 0 0 0 0 0 0 0 0 0 0 0 0 0 127 0" result="hardAlpha"/>
<feOffset dx="4" dy="11"/>
<feGaussianBlur stdDeviation="2"/>
<feComposite in2="hardAlpha" operator="out"/>
<feColorMatrix type="matrix" values="0 0 0 0 0.137153 0 0 0 0 0.137153 0 0 0 0 0.137153 0 0 0 0.2 0"/>
<feBlend mode="normal" in2="BackgroundImageFix" result="effect1_dropShadow_0_571"/>
<feBlend mode="normal" in="SourceGraphic" in2="effect1_dropShadow_0_571" result="shape"/>
</filter>
<linearGradient id="paint0_linear_0_571" x1="490.899" y1="69.6337" x2="4.41705" y2="102.96" gradientUnits="userSpaceOnUse">
<stop offset="0.01" stop-color="#E3D5C8"/>
<stop offset="0.359374" stop-color="#EDCAAA"/>
<stop offset="0.651041" stop-color="#DEB27B"/>
<stop offset="1" stop-color="#A58052"/>
</linearGradient>
</defs>
</svg>
