<svg width="1126" height="1126" viewBox="0 0 1126 1126" fill="none" xmlns="http://www.w3.org/2000/svg">
<path d="M191.305 188.561C181.258 188.63 180.08 178.376 178.833 170.684L173.082 177.821C164.767 188.353 148.276 176.782 155.206 165.418C139.754 167.843 133.934 143.731 158.393 142.484C150.702 138.673 141.971 133.199 147.168 123.43C153.404 113.66 162.481 119.203 169.895 123.915C167.816 115.531 165.737 104.791 176.893 102.297C188.048 99.8023 190.196 111.373 191.444 119.965L197.125 112.828C206.133 101.673 223.108 115.323 214.24 126.478L209.181 132.853C216.734 130.497 226.296 130.843 228.167 140.336C229.345 145.81 225.603 151.7 220.129 153.016C231.007 160.984 219.852 178.029 208.142 171.239L200.382 166.735C202.807 176.158 204.193 187.591 191.305 188.561ZM180.426 161.538C181.063 161.541 181.679 161.763 182.171 162.167C182.663 162.571 183.002 163.132 183.129 163.756L185.97 178.652C186.732 183.295 193.245 184.681 195.739 180.662C198.303 178.168 193.869 164.864 193.799 161.885C194.354 151.769 210.428 169.784 215.002 167.012C219.574 165.973 220.475 159.252 216.318 157.104L211.052 154.055C210.561 153.771 210.168 153.342 209.928 152.827C209.688 152.312 209.612 151.736 209.71 151.177C209.809 150.617 210.077 150.101 210.477 149.699C210.879 149.297 211.394 149.027 211.953 148.928C216.11 148.235 224.079 147.611 222.762 141.375C220.475 130.982 203.985 143.246 199.966 138.396C199.677 137.905 199.542 137.339 199.579 136.77C199.617 136.202 199.824 135.658 200.174 135.208L209.943 123.014C214.378 117.609 205.786 110.681 201.421 116.293L191.998 128.072C191.667 128.475 191.229 128.775 190.734 128.941C190.24 129.105 189.71 129.127 189.203 129.005C188.697 128.881 188.235 128.618 187.871 128.245C187.508 127.872 187.257 127.404 187.148 126.894C185.346 122.321 186.316 105.83 177.932 107.701C169.548 109.572 176.408 123.915 176.477 128.765C176.571 129.283 176.516 129.817 176.318 130.304C176.12 130.792 175.787 131.213 175.358 131.519C174.929 131.824 174.422 132 173.896 132.028C173.37 132.056 172.848 131.934 172.389 131.675L159.363 124.192C153.335 120.589 147.791 130.151 153.889 133.615L167.539 141.445C168.03 141.724 168.424 142.147 168.668 142.657C168.912 143.167 168.994 143.739 168.904 144.297C168.813 144.855 168.555 145.372 168.162 145.778C167.769 146.185 167.262 146.462 166.707 146.572L151.81 149.413C144.881 150.591 146.891 161.469 153.819 160.014L161.303 158.628C163.728 158.074 165.599 161.192 164.005 163.062L160.333 167.636C155.829 173.04 164.49 179.969 168.786 174.426C170.241 173.317 178.279 160.915 180.426 161.538Z" fill="#D13535"/>
<path d="M819.196 133.407C809.291 133.546 807.906 123.014 806.725 115.531L801.046 122.668C792.66 133.13 776.17 121.628 783.098 110.195C767.649 112.621 761.83 88.508 786.284 87.3301C778.596 83.4502 769.934 78.0456 775.062 68.2062C781.365 58.4366 790.443 63.9796 797.86 68.6914C795.778 60.3074 793.701 49.637 804.856 47.0733C816.011 44.5096 818.161 56.1501 819.337 64.7422C824.464 57.6746 831.184 49.0134 840.47 55.9422C849.756 62.8709 842.828 71.3241 837.076 77.6297C844.696 75.2738 854.191 75.6897 856.127 85.1127C856.656 87.8619 856.11 90.7086 854.602 93.0667C853.093 95.4248 850.741 97.116 848.023 97.7925C858.901 105.83 847.814 122.875 836.103 116.085L828.274 111.581C830.767 120.935 832.157 132.368 819.196 133.407ZM808.323 106.316C813.793 106.385 811.368 124.815 816.151 126.963C820.93 129.111 825.573 125.993 824.531 121.42C824.672 119.272 819.894 105.138 822.804 103.89C823.231 103.585 823.744 103.41 824.273 103.386C824.802 103.361 825.325 103.488 825.781 103.751L838.81 111.304C840.059 112.009 841.539 112.194 842.924 111.818C844.314 111.442 845.496 110.536 846.222 109.294C849.407 104.029 842.687 100.772 839.018 98.832C836.8 97.6541 837.42 94.1202 839.845 93.7741C844.072 93.0115 852.041 92.388 850.724 86.1522C848.439 75.759 831.876 88.0921 827.858 83.1727C827.587 82.6763 827.464 82.1135 827.503 81.549C827.537 80.9845 827.734 80.442 828.066 79.9856L837.836 67.8601C842.271 62.3863 833.683 55.5266 829.383 61.0694L819.894 72.918C819.556 73.3209 819.112 73.6203 818.611 73.7813C818.116 73.9423 817.581 73.9586 817.074 73.828C816.562 73.6974 816.106 73.4256 815.746 73.0435C815.386 72.6619 815.138 72.1858 815.043 71.6708C813.309 67.0975 814.277 50.6763 805.897 52.4778C797.512 54.2793 804.299 68.7606 804.372 73.6108C804.468 74.1291 804.411 74.6626 804.209 75.1506C804.012 75.6385 803.68 76.0595 803.252 76.3645C802.824 76.6701 802.318 76.8469 801.789 76.8744C801.265 76.902 800.742 76.7799 800.281 76.521L787.257 68.9688C781.23 65.3658 775.686 74.9272 781.855 78.3917L795.502 86.2214C795.992 86.5062 796.386 86.9344 796.628 87.4494C796.864 87.9644 796.943 88.5407 796.842 89.1001C796.746 89.6595 796.476 90.175 796.076 90.5774C795.677 90.9798 795.159 91.2488 794.602 91.349L779.705 94.1895C772.844 95.3674 774.853 106.246 781.714 104.86L789.267 103.405C791.692 102.851 793.561 105.969 791.9 107.84L788.225 112.413C783.791 117.817 792.384 124.746 796.752 119.203C798.136 118.094 806.241 105.692 808.323 106.316Z" fill="#D13535"/>
<path d="M484.674 207.962C484.126 207.973 483.59 207.802 483.149 207.477C482.547 207.069 482.131 206.441 481.988 205.728C481.845 205.015 481.988 204.274 482.387 203.667L519.456 149.483C519.865 148.881 520.493 148.464 521.206 148.322C521.918 148.179 522.659 148.322 523.267 148.72C523.874 149.142 524.292 149.782 524.434 150.506C524.576 151.23 524.431 151.981 524.029 152.601L486.96 206.784C486.702 207.151 486.36 207.45 485.962 207.655C485.563 207.86 485.121 207.965 484.674 207.962Z" fill="#CE9C5C"/>
<path d="M467.905 190.917C467.254 190.893 466.632 190.642 466.148 190.206C465.664 189.771 465.35 189.179 465.258 188.534C465.168 187.889 465.307 187.232 465.651 186.68C465.996 186.128 466.524 185.714 467.143 185.512L537.471 165.834C537.833 165.668 538.227 165.582 538.626 165.581C539.024 165.581 539.418 165.667 539.781 165.833C540.143 165.999 540.466 166.241 540.726 166.543C540.986 166.845 541.178 167.199 541.289 167.582C541.4 167.965 541.427 168.367 541.368 168.761C541.309 169.156 541.166 169.533 540.949 169.867C540.731 170.2 540.444 170.484 540.107 170.696C539.769 170.909 539.39 171.047 538.995 171.1L468.667 190.847L467.905 190.917Z" fill="#CE9C5C"/>
<path d="M509.825 216.97C509.185 216.98 508.562 216.763 508.066 216.357C507.572 215.951 507.237 215.382 507.123 214.753L493.611 142.969C493.541 142.61 493.543 142.239 493.616 141.881C493.69 141.522 493.834 141.181 494.04 140.879C494.246 140.575 494.511 140.316 494.818 140.117C495.124 139.916 495.468 139.779 495.828 139.712C496.544 139.591 497.279 139.755 497.875 140.17C498.471 140.584 498.88 141.216 499.015 141.93L512.526 213.713C512.648 214.429 512.484 215.164 512.07 215.76C511.655 216.356 511.023 216.766 510.31 216.9L509.825 216.97Z" fill="#CE9C5C"/>
<path d="M530.334 199.37C529.765 199.38 529.207 199.21 528.74 198.885L474.556 161.885C473.955 161.476 473.538 160.848 473.396 160.135C473.253 159.423 473.396 158.682 473.794 158.074C474.215 157.467 474.856 157.049 475.58 156.907C476.304 156.764 477.056 156.91 477.675 157.312L531.859 194.381C532.316 194.722 532.656 195.197 532.834 195.739C533.011 196.282 533.017 196.865 532.85 197.411C532.684 197.957 532.352 198.439 531.902 198.789C531.452 199.139 530.904 199.342 530.334 199.37Z" fill="#CE9C5C"/>
<path d="M965.192 332.127L967.202 345.015L959.649 351.736L865.138 436.199C859.87 440.841 852.875 439.456 849.549 432.943L814.278 364.069C811.025 357.626 812.826 348.895 818.229 344.668L927.288 260.275C931.655 256.879 937.615 258.751 940.593 264.432L970.387 321.526L972.329 325.129C975.306 330.88 969.419 328.316 965.192 332.127Z" fill="#EFDCC4"/>
<path d="M869.781 444.167C864.586 444.098 860.078 441.049 857.518 436.061L822.247 367.187C818.094 359.081 820.311 348.479 827.239 343.075L936.298 258.681C942.742 253.554 951.679 256.81 955.281 264.085L986.46 323.743C986.691 324.189 986.826 324.676 986.865 325.174C986.905 325.673 986.848 326.175 986.691 326.652C986.539 327.128 986.291 327.568 985.965 327.949C985.644 328.33 985.245 328.643 984.8 328.871C977.523 335.592 951.055 262.492 944.267 263.878C943.688 263.742 943.08 263.745 942.5 263.89C941.926 264.035 941.386 264.316 940.941 264.709L831.882 349.103C827.858 352.221 826.547 358.873 829.04 363.723L864.237 432.596C866.314 436.684 870.541 437.862 873.94 434.744L968.445 350.281C968.816 349.949 969.25 349.693 969.723 349.53C970.195 349.368 970.691 349.3 971.186 349.333C971.687 349.365 972.171 349.496 972.615 349.718C973.06 349.941 973.46 350.25 973.78 350.627C974.129 350.989 974.399 351.417 974.568 351.886C974.743 352.356 974.822 352.855 974.793 353.355C974.771 353.854 974.641 354.343 974.422 354.791C974.197 355.24 973.887 355.638 973.505 355.963C968.794 358.179 874.841 449.017 869.781 444.167Z" fill="#ffffff"/>
<path d="M874.075 368.92C877.474 375.641 875.876 384.718 870.332 389.291C864.794 393.864 857.309 392.201 853.842 385.341C850.381 378.481 852.115 369.335 857.793 364.832C863.477 360.328 870.614 362.268 874.075 368.92Z" fill="white"/>
<path d="M863.545 395.665C841.027 395.042 844.972 354.854 867.147 358.942C885.646 363.099 882.528 395.457 863.545 395.665ZM864.304 366.217C854.326 366.772 852.598 385.341 862.368 387.974C870.613 388.944 874.215 377.165 870.681 370.652C869.223 367.95 867.079 366.287 864.304 366.217Z" fill="#ffffff"/>
<path d="M893.547 352.914C894.999 355.755 894.375 359.497 892.09 361.367C889.805 363.238 886.687 362.476 885.229 359.635C883.777 356.794 884.469 352.983 886.754 351.182C889.039 349.38 892.09 350.073 893.547 352.914Z" fill="white"/>
<path d="M889.321 366.217C876.85 366.009 878.718 344.183 891.122 346.539C901.309 348.687 899.851 366.217 889.321 366.217ZM889.456 353.953C888.072 354.369 887.796 357.764 889.254 358.595C890.706 358.249 891.055 354.715 889.456 353.953Z" fill="#ffffff"/>
<path d="M787.19 343.907C790.859 330.049 779.981 319.309 766.125 323.05C779.981 319.309 783.931 304.55 773.745 294.365C783.931 304.55 798.688 300.532 802.363 286.605C798.688 300.532 809.499 311.271 823.355 307.53C809.499 311.271 805.548 326.03 815.735 336.146C805.548 326.03 790.859 330.049 787.19 343.907Z" fill="#CE9C5C"/>
<path d="M787.19 347.717C786.605 347.713 786.031 347.576 785.507 347.318C784.984 347.061 784.523 346.688 784.162 346.229C783.808 345.77 783.555 345.235 783.431 344.665C783.307 344.095 783.313 343.504 783.448 342.936C786.633 332.197 777.837 323.536 767.166 326.723C762.45 328.039 760.305 320.625 765.157 319.378C770.002 318.131 774.094 314.597 775.27 310.094C778.456 301.017 766.541 296.651 771.044 291.732C775.546 286.813 780.465 299.076 789.475 295.82C799.105 293.88 796.752 281.546 803.331 282.933C809.916 284.318 801.598 294.711 808.942 301.017C815.386 308.361 824.948 300.116 827.031 306.56C827.284 307.534 827.143 308.569 826.637 309.438C826.13 310.308 825.297 310.942 824.329 311.202C813.518 313.835 810.332 325.822 818.437 333.444C821.971 336.908 816.568 342.451 813.101 338.848C809.64 335.245 804.44 333.513 800.005 334.691C790.584 336.839 792.869 347.44 787.19 347.717ZM778.664 319.656C781.399 320.599 783.887 322.148 785.941 324.188C787.989 326.228 789.554 328.705 790.516 331.435C792.678 329.524 795.255 328.137 798.041 327.38C800.832 326.623 803.753 326.517 806.59 327.069C806.033 324.234 806.123 321.309 806.854 318.514C807.586 315.718 808.942 313.124 810.816 310.925C808.098 309.968 805.627 308.413 803.585 306.375C801.547 304.336 799.994 301.866 799.037 299.146C796.848 301.04 794.259 302.416 791.462 303.172C788.67 303.928 785.738 304.044 782.89 303.511C783.464 306.346 783.38 309.275 782.648 312.073C781.917 314.871 780.555 317.464 778.664 319.656Z" fill="#ffffff"/>
<path d="M975.997 329.009C976.412 329.078 976.485 329.009 976.345 329.009H975.997Z" fill="#ffffff"/>
<path d="M1010.57 371.414C1010.3 371.483 1010.16 371.622 1010.16 371.691L1010.43 371.484L1010.57 371.414Z" fill="#ffffff"/>
<path d="M969.486 334.691V334.483H969.419L969.486 334.691Z" fill="#ffffff"/>
<path d="M991.385 290.138C998.865 300.185 1003.92 309.47 1005.66 320.695V320.21C1006 322.433 1006.07 324.69 1005.87 326.931C1005.79 331.365 1012.79 331.434 1012.79 326.931C1012.93 301.571 993.529 275.657 971.428 264.363C951.68 256.117 947.594 271.707 957.64 269.629C968.727 265.748 983.624 280.369 991.385 290.138Z" fill="#ffffff"/>
<path d="M745.267 454.353L727.809 394.972C737.36 401.124 744.383 410.509 747.591 421.412C750.799 432.315 749.972 444.008 745.267 454.353Z" fill="#CE9C5C"/>
<path d="M609.6 476.179C609.003 469.991 607.191 463.982 604.27 458.494C601.344 453.007 597.37 448.149 592.57 444.198C587.769 440.247 582.237 437.281 576.293 435.468C570.345 433.656 564.098 433.034 557.911 433.636C550.082 434.398 545.301 435.091 540.381 438.07C541.767 443.89 549.112 447.84 549.874 454.007C550.359 457.61 549.527 464.054 545.994 463.638C543.638 467.102 557.149 521.494 558.535 522.325C563.456 525.374 562.485 526.483 568.583 525.859C594.568 523.365 612.166 502.232 609.6 476.179Z" fill="#CE9C5C"/>
<path d="M741.526 395.527C728.43 263.67 528.187 307.668 551.884 438.832C555.834 443.959 561.307 440.495 562.485 435.159C552.577 311.202 717.275 283.694 741.526 395.527Z" fill="#D13535"/>
<path d="M762.106 429.894C760.868 416.912 754.717 404.893 744.924 396.289C744.98 396.039 745.009 395.783 744.992 395.527C733.072 259.998 529.364 305.312 547.241 431.279C534.214 437.515 541.074 443.821 545.993 454.145C542.529 459.203 539.065 463.914 541.975 468.557C544.885 473.199 541.975 477.356 544.192 481.929C549.943 495.302 552.091 508.606 553.338 516.574C554.1 528.006 559.712 527.591 567.89 528.284C641.127 529.947 638.634 420.747 565.881 425.528C566.709 394.903 577.171 365.108 601.146 346.747C636.209 319.239 695.724 323.674 723.166 360.813C730.235 370.444 735.773 380.352 737.506 390.953C732.79 388.063 727.607 386.001 722.193 384.856C721.692 384.701 721.163 384.651 720.639 384.711C720.116 384.77 719.615 384.936 719.159 385.2C718.703 385.464 718.309 385.819 718 386.243C717.685 386.666 717.465 387.15 717.353 387.663C717.234 388.176 717.229 388.707 717.33 389.223C717.431 389.739 717.634 390.23 717.932 390.662C718.231 391.095 718.619 391.461 719.064 391.737C719.514 392.014 720.009 392.195 720.532 392.27C729.526 394.229 737.658 398.997 743.765 405.885C749.865 412.773 753.619 421.424 754.486 430.587C755.077 436.278 754.52 442.029 752.854 447.503C751.188 452.977 748.442 458.062 744.783 462.46C744.142 463.245 743.832 464.25 743.922 465.261C744.012 466.271 744.496 467.205 745.267 467.864C745.965 468.394 746.815 468.685 747.693 468.695C748.262 468.692 748.819 468.566 749.336 468.327C749.849 468.088 750.304 467.741 750.67 467.31C754.953 462.136 758.167 456.167 760.131 449.745C762.095 443.323 762.765 436.576 762.106 429.894ZM565.949 433.289C577.796 432.319 590.824 435.922 599.137 443.197C634.616 472.16 605.513 529.253 561.583 519.622C559.574 508.398 558.327 495.926 551.19 478.881C549.804 474.308 551.744 469.804 548.488 464.676C556.595 451.65 554.446 454.699 547.449 440.287C547.76 439.968 548.109 439.689 548.488 439.455C552.784 449.849 566.99 443.405 565.949 433.289ZM557.98 437.03H557.911C557.842 437.169 557.772 437.169 557.565 437.377C557.357 437.584 557.357 437.515 557.357 437.584C557.357 437.603 557.349 437.62 557.336 437.633C557.323 437.646 557.306 437.654 557.287 437.654C557.306 437.654 557.323 437.646 557.336 437.633C557.349 437.62 557.357 437.603 557.357 437.584C557.001 437.763 556.601 437.832 556.206 437.783C555.811 437.734 555.44 437.568 555.14 437.308C555.071 436.892 554.932 436.337 554.862 435.852C556.219 435.308 557.608 434.845 559.02 434.467C558.674 435.229 558.396 436.199 557.98 436.961C557.565 437.723 558.049 436.892 557.98 437.03ZM604.129 336.284C573.226 354.507 559.089 393.171 558.881 426.637C557.188 427.04 555.522 427.549 553.893 428.162C546.894 337.67 652.558 284.456 717.831 345.015C687.553 318.962 639.394 313.835 604.129 336.284Z" fill="#ffffff"/>
<path d="M557.356 437.585L557.565 437.377C557.519 437.377 557.449 437.446 557.356 437.585Z" fill="#ffffff"/>
<path d="M722.474 599.306C722.401 599.515 722.401 599.79 722.333 600.066L722.682 597.714C722.367 599.976 721.759 602.188 720.876 604.293L721.709 602.216C720.718 604.591 719.413 606.831 717.831 608.868L719.216 607.067C716.964 609.926 714.359 612.487 711.455 614.688L713.188 613.371C707.898 617.322 702.118 620.58 696.006 623.073L698.082 622.173C685.127 627.643 671.338 630.761 657.477 632.703L659.767 632.354C646.187 634.087 632.398 634.853 618.818 633.187L621.103 633.463C617.085 632.911 612.993 632.146 609.256 630.553L611.333 631.453C600.803 622.657 588.123 636.164 599.345 644.617C615.7 653.56 635.792 651.686 653.74 650.369C681.936 646.835 714.297 640.74 732.937 617.389C751.987 591.061 724.967 582.124 722.474 599.306Z" fill="#D13535"/>
<path d="M958.472 433.427C992.212 424.489 1006.14 421.995 1053.81 405.227C1055.25 404.714 1056.77 404.492 1058.3 404.574C1059.82 404.656 1061.31 405.04 1062.69 405.704C1064.06 406.369 1065.29 407.299 1066.3 408.443C1067.31 409.586 1068.08 410.919 1068.57 412.363C1072.66 424.42 1071.07 444.167 1063.58 450.126C1047.65 463.014 984.868 479.296 967.618 471.121C960.549 467.794 942.81 437.585 958.472 433.427Z" fill="#D13535"/>
<path d="M288.864 674.412C292.051 676.702 293.091 682.173 292.883 684.114C292.762 684.773 292.6 685.42 292.398 686.056C292.402 686 292.427 685.949 292.467 685.915C292.442 685.943 292.423 685.977 292.411 686.011C292.399 686.05 292.394 686.084 292.398 686.123C292.259 686.399 292.259 686.399 292.259 686.264C292.124 686.579 291.962 686.878 291.774 687.165C280.688 696.727 263.574 675.869 262.119 661.597C261.795 659.16 261.748 656.695 261.98 654.252V654.46C262.394 650.949 263.706 647.611 265.791 644.758C267.146 643.041 268.759 641.544 270.571 640.323C274.452 638.106 270.918 632.078 267.107 634.363C245.697 648.084 255.466 680.856 273.967 692.708C292.467 704.555 308.958 686.608 294.615 670.326C289.002 663.674 283.459 671.783 288.864 674.412Z" fill="#ffffff"/>
<path d="M292.397 686.124L292.258 686.332L292.397 686.191V686.124Z" fill="#ffffff"/>
<path d="M261.979 654.252C262.049 653.769 262.049 653.977 261.979 654.252V654.252Z" fill="#ffffff"/>
<path d="M262.741 697.695C263.151 698.342 263.522 699.012 263.85 699.704C263.226 698.46 264.127 700.261 264.127 700.537C264.127 700.813 264.404 701.989 264.543 702.338V702.889C264.612 703.812 264.612 704.741 264.543 705.664C264.057 707.949 264.057 707.949 263.018 709.682C261.979 711.416 262.603 710.234 261.425 710.932C259.995 711.388 258.486 711.556 256.99 711.416C254.08 710.859 254.08 710.791 251.655 709.333L250.892 708.782C239.876 699.636 236.342 681.689 241.47 669.983C243.409 666.099 245.211 664.09 248.121 662.081C249.402 661.237 250.773 660.539 252.209 660.004C256.505 658.755 254.634 652.035 250.338 653.279C226.503 661.664 228.374 695.41 243.34 711.275C258.307 727.14 279.162 714.393 269.116 694.785C266.067 687.649 257.129 691.875 262.741 697.695Z" fill="#ffffff"/>
<path d="M309.926 662.565L310.342 662.013C310.619 661.94 311.104 661.665 310.688 661.805H310.481C308.472 662.43 306.323 662.357 302.79 662.013C297.385 661.389 288.932 658.338 284.636 652.519L284.983 652.868C283.882 651.495 282.973 649.981 282.28 648.36C282.835 649.469 282.349 648.501 282.211 648.152C281.64 646.655 281.245 645.101 281.033 643.509V643.374H280.964V643.098C280.709 640.7 280.733 638.28 281.033 635.888C281.102 635.264 281.033 636.097 281.033 636.164C281.241 633.119 283.943 628.201 279.578 626.884C278.697 626.664 277.767 626.799 276.98 627.249C276.193 627.7 275.61 628.437 275.352 629.309C268.422 651.135 284.636 669.425 306.67 669.217C321.29 670.118 316.647 656.262 309.926 662.565Z" fill="#ffffff"/>
<path d="M281.033 643.581C281.102 643.024 280.963 642.957 280.963 643.165C280.953 643.283 280.977 643.406 281.033 643.513V643.581Z" fill="#ffffff"/>
<path d="M587.774 890.11C587.015 886.024 586.598 873.969 587.499 869.461C588.399 864.958 581.814 863.298 580.779 867.592C577.244 897.522 589.508 926.556 599.278 954.274C601.979 961.686 604.754 969.098 607.382 976.583C607.641 977.45 608.226 978.187 609.014 978.643C609.802 979.094 610.731 979.223 611.609 979.009C613.342 978.452 614.659 976.583 614.034 974.709C604.473 946.857 592.001 919.488 587.774 890.11Z" fill="#ffffff"/>
<path d="M703.351 514.565C691.847 514.565 684.503 504.587 681.801 500.014C681.295 499.179 681.024 498.22 681.024 497.242C681.024 496.265 681.295 495.306 681.801 494.471C682.324 493.641 683.067 492.97 683.945 492.531C684.829 492.091 685.808 491.9 686.787 491.977L689.905 492.323C698.719 493.16 707.588 491.554 715.546 487.681L718.456 486.295C719.323 485.856 720.291 485.669 721.259 485.755C722.227 485.841 723.15 486.196 723.926 486.78C724.698 487.373 725.3 488.161 725.66 489.062C726.026 489.963 726.144 490.945 726.009 491.907C724.968 497.866 721.084 511.932 706.744 514.288C705.624 514.48 704.487 514.573 703.351 514.565ZM691.087 500.014C694.34 503.964 699.192 507.844 705.495 506.804C711.804 505.765 715.682 500.153 717.347 495.233C709.102 498.916 700.098 500.556 691.087 500.014Z" fill="#ffffff"/>
<path d="M649.923 436.753L649.513 436.615C644.104 436.338 640.018 442.851 642.511 447.632C645.005 452.413 653.739 453.798 656.441 448.117C659.142 442.435 654.499 436.545 649.923 436.753Z" fill="#ffffff"/>
<path d="M716.514 418.669L714.921 418.392C698.842 419.986 710.695 442.505 721.157 430.587C725.243 425.598 720.949 419.431 716.514 418.669Z" fill="#ffffff"/>
<path d="M657.066 423.727C650.965 422.756 619.302 418.322 618.745 426.152C618.773 426.786 618.959 427.404 619.285 427.948C619.612 428.493 620.073 428.947 620.619 429.27C620.918 429.685 621.317 430.021 621.773 430.25C622.234 430.479 622.741 430.595 623.253 430.586C634.2 431.071 645.214 431.071 656.166 430.517C660.043 430.586 660.876 424.628 657.066 423.727Z" fill="#ffffff"/>
<path d="M733.421 406.474C733.421 406.336 733.489 406.128 733.489 405.92C733.421 404.118 731.963 402.317 730.027 402.455C728.086 402.594 711.179 404.326 703.767 407.721H703.694C699.467 409.661 698.083 412.017 703.694 414.651C712.913 413.819 722.126 412.779 731.204 411.117C733.562 410.562 734.113 408.276 733.421 406.474Z" fill="#ffffff"/>
<path d="M685.887 435.853C691.155 443.682 691.223 450.888 702.585 453.799C703.396 454.075 704.15 454.498 704.803 455.046C704.178 454.145 705.219 455.808 705.495 455.808C705.776 455.808 705.084 455.115 705.428 455.739L705.776 456.362C705.703 456.362 705.495 455.531 705.703 456.224C705.827 456.584 705.923 456.955 705.985 457.332C706.12 457.817 705.985 456.64 705.985 457.125V458.787C706.052 458.372 706.052 458.233 705.985 458.51C705.855 459.634 705.394 460.695 704.668 461.559L704.876 461.282C704.876 461.628 702.726 463.291 703.418 462.737C702.524 463.43 701.544 464.012 700.509 464.469H700.717C696.006 465.439 697.323 472.507 702.034 471.329C716.166 466.756 716.723 449.156 701.409 446.038C700.559 445.684 699.743 445.242 698.984 444.722L699.332 444.929C695.798 442.089 694.824 435.229 690.806 431.072C686.788 426.915 682.769 432.735 685.887 435.922V435.853Z" fill="#ffffff"/>
<path d="M593.593 535.767C591.168 531.957 590.34 519.9 584.724 521.078C583.063 521.633 581.679 523.503 582.298 525.305C590.267 547.616 600.037 569.304 606.273 592.17C607.382 596.532 614.102 594.731 612.925 590.369C608.007 571.656 600.246 553.852 593.593 535.767Z" fill="#ffffff"/>
<path d="M706.677 595.08C706.924 595.89 707.436 596.594 708.129 597.089C709.446 602.143 709.586 611.637 715.057 610.602C720.673 608.035 714.848 599.79 714.64 595.288C714.64 589.12 705.635 588.427 706.677 595.08ZM707.504 595.288L707.785 595.907C707.661 595.716 707.571 595.507 707.504 595.288Z" fill="#ffffff"/>
<path d="M632.399 623C632.145 620.996 632.168 618.97 632.466 616.972C635.517 609.352 628.864 606.926 626.506 611.913C624.154 616.905 623.737 632.978 631.425 632.426C636.485 630.626 632.258 625.009 632.399 623Z" fill="#ffffff"/>
<path d="M669.605 607.76C670.224 609.724 670.663 611.744 670.922 613.787C670.854 613.511 670.854 613.162 670.781 612.887C671.546 616.072 669.672 622.032 674.591 622.308C681.243 621.064 676.949 610.393 676.257 605.885C675.565 601.383 668.355 603.392 669.605 607.76Z" fill="#ffffff"/>
<path d="M970.736 434.051C970.145 433.717 969.464 433.565 968.789 433.612C968.113 433.66 967.46 433.906 966.926 434.319C966.385 434.733 965.98 435.296 965.755 435.938C965.536 436.58 965.508 437.273 965.676 437.931C966.926 442.504 967.342 450.126 971.636 452.551C976.206 453.313 976.488 448.74 975.447 447.285C973.088 443.405 973.786 436.823 970.736 434.051Z" fill="#ffffff"/>
<path d="M1002.81 427.746C1004.89 431.556 1004.27 442.089 1010.3 441.188C1016.12 438.555 1009.82 430.378 1009.47 425.875C1009.12 421.371 1001.56 423.381 1002.81 427.746Z" fill="#ffffff"/>
<path d="M1038.08 415.343C1037.42 415.178 1036.72 415.211 1036.07 415.437C1035.42 415.663 1034.85 416.073 1034.43 416.617C1034.02 417.161 1033.76 417.815 1033.71 418.499C1033.66 419.184 1033.8 419.868 1034.13 420.471C1034.97 422.341 1035.52 423.658 1036.49 426.083C1037.46 428.508 1038.08 435.853 1043 434.814C1044.66 434.259 1045.98 432.388 1045.36 430.587C1043.28 426.152 1042.31 417.768 1038.08 415.343Z" fill="#ffffff"/>
<path d="M956.805 456.985C956.255 456.155 956.598 456.777 956.805 456.985V456.985Z" fill="#ffffff"/>
<path d="M1075.57 526.621C1073.14 498.489 1067.67 470.635 1060.19 443.405C1069.96 429.409 1070.44 390.884 1046.47 394.626L1044.53 395.249C1041.48 387.766 1026.72 349.865 1017.99 338.155L1017.71 338.294C1014.87 333.998 1010.58 335.938 1011.27 340.026C1014.53 349.103 1018.34 364.347 1010.58 371.414H1010.64C1010.51 371.414 1010.23 371.691 1010.16 371.691C1009.34 372.271 1008.45 372.759 1007.53 373.146H1007.73C992.769 378.481 966.993 349.38 969.694 334.414L970.527 333.028C971.219 332.136 972.013 331.323 972.88 330.603L972.604 330.88C973.594 330.04 974.754 329.426 975.998 329.078H975.93C983.55 329.009 989.235 333.236 994.362 339.195C995.403 341.135 997.62 343.005 999.905 341.551C1008.5 332.265 969.694 309.123 962.834 333.097C959.164 367.118 1018.55 404.118 1022.01 360.466C1027.97 372.592 1033.16 384.856 1037.94 397.467C1037.94 397.476 1037.94 397.485 1037.95 397.493C1037.96 397.502 1037.96 397.509 1037.97 397.516C1037.97 397.522 1037.98 397.527 1037.99 397.53C1038 397.534 1038.01 397.536 1038.01 397.536C1021.18 403.217 1004.34 408.969 987.158 413.541C976.071 416.521 964.984 419.293 953.896 422.203C951.544 413.68 943.226 379.243 934.84 382.985C933.321 383.955 932.555 386.103 933.596 387.697C939.348 396.773 941.701 404.742 944.61 414.373C945.86 416.659 945.927 421.094 947.109 424.212C943.991 425.875 941.076 429.755 940.941 432.665C940.176 444.514 946.411 457.263 955.213 465.3C960.065 495.718 964.5 530.778 965.468 559.464C918.074 566.602 870.265 572.63 824.673 588.562C811.092 592.513 798.204 599.233 783.999 600.691C769.451 600.966 744.091 603.668 734.946 590.296C729.194 579.625 726.628 562.859 710.83 565.285C710.903 563.619 710.07 560.78 710.003 558.771C774.161 532.857 754.486 464.538 732.312 402.663C736.882 401.832 742.082 400.099 741.525 395.526C724.692 254.177 535.947 281.893 511.003 384.44C527.217 397.258 539.619 424.697 543.707 456.085C544.192 459.826 536.293 459.272 538.233 462.528C537.748 466.478 535.046 473.476 546.756 471.328C544.816 463.845 542.876 464.607 549.666 455.531C551.676 452.62 541.213 440.772 543.776 438.416C562.277 421.856 596.368 429.27 609.599 448.74C633.299 442.366 630.181 428.785 627.964 416.798C625.679 393.309 636.141 364.485 659.626 380.629C662.193 383.47 664.962 383.817 666.071 380.144C669.881 372.106 683.742 363.861 689.354 370.929C698.291 382.361 711.73 405.504 725.384 403.841C750.952 464.884 769.383 561.889 672.306 556.069C668.913 556.138 662.885 553.782 662.536 558.979C663.228 566.878 696.698 562.166 703.069 560.711C703.277 562.582 703.767 564.52 704.043 566.394C674.107 575.883 643.829 586.418 612.509 589.744H612.374C611.89 589.812 611.958 589.536 612.374 589.671C605.514 586.002 599.553 590.645 598.929 597.989C596.503 608.176 595.259 618.289 594.218 629.101C590.267 671.71 556.11 650.577 531.928 648.776C527.632 647.6 525.692 654.387 530.058 655.428C579.321 664.157 591.725 665.131 597.404 648.151C606.83 654.32 634.959 657.922 640.435 657.787C653.886 658.141 667.297 656.267 680.135 652.243C698.64 647.116 739.656 625.91 739.307 603.049C742.819 604.923 746.697 606.009 750.67 606.234C770.284 609.352 790.725 609.076 809.151 601.107C857.793 583.227 908.721 573.53 960.132 567.711C962.08 567.57 964.004 567.249 965.884 566.737C965.817 572.973 965.884 580.391 970.043 580.526C971.771 580.458 973.713 579 973.504 577.064C972.88 571.453 972.812 565.837 972.536 560.226C972.733 558.793 972.666 557.337 972.328 555.93C972.187 552.743 968.242 491.076 962.417 468.696C985.633 473.684 1033.03 461.559 1054.16 448.186C1068.08 504.171 1080.84 567.154 1056.44 621.683C1039.05 654.179 1004.89 676.629 971.636 690.558C940.873 703.587 904.77 712.04 873.383 716.267C865.138 717.376 856.825 718.276 848.507 718.76C844.072 718.76 843.937 725.829 848.507 725.688L850.724 725.547C865.07 788.947 909.345 973.19 954.729 1006.86C958.54 1009.08 962.141 1003.12 958.191 1000.9C957.11 1000.36 956.091 999.714 955.146 998.96C949.462 994.39 942.809 984.412 938.099 975.615C908.096 916.854 890.497 852.627 872.966 789.295C867.355 767.954 862.16 746.545 857.585 724.928C903.734 720.493 949.811 709.682 991.452 689.033C1061.02 654.944 1083.54 601.799 1075.57 526.621ZM689.838 641.364C663.228 653.211 627.823 654.252 601.354 642.4C600.645 642.011 599.908 641.69 599.137 641.432C601.354 631.037 602.739 616.139 606.898 595.423L607.939 595.288C615.419 598.822 624.362 594.939 632.123 593.763C651.173 589.604 670.021 584.477 688.661 578.798C703.559 575.055 718.315 563.135 724.618 584.409C725.609 587.51 727.01 590.47 728.777 593.206C728.834 593.639 728.974 594.055 729.205 594.421C729.43 594.793 729.734 595.113 730.094 595.355L730.646 595.772L731.136 596.397V596.532L731.271 596.672L731.687 597.365C731.935 598.085 732.12 598.828 732.244 599.582C733.837 617.456 709.378 632.843 689.838 641.364ZM1056.79 435.575C1052.84 448.532 1004.82 459.757 987.642 462.044C980.714 462.875 968.242 464.191 961.1 461.281L961.517 461.42L961.1 461.212L960.408 460.797C959.086 459.647 957.881 458.37 956.806 456.985H956.874C950.638 449.364 946.209 436.892 948.01 432.734C948.24 432.026 948.674 431.401 949.253 430.933H949.045L949.327 430.794C949.304 430.794 949.287 430.802 949.276 430.815C949.265 430.828 949.253 430.845 949.253 430.864L949.529 430.656L950.086 430.309L950.435 430.171C950.79 430.098 951.139 429.982 951.471 429.824C983.967 421.718 1016.19 412.71 1047.65 401.277C1048.64 401.048 1049.67 400.979 1050.69 401.07L1052.7 401.624C1052.71 401.624 1052.72 401.626 1052.73 401.629C1052.74 401.633 1052.75 401.638 1052.75 401.644C1052.76 401.651 1052.76 401.658 1052.77 401.666C1052.77 401.675 1052.77 401.684 1052.77 401.693C1052.91 401.763 1053.05 401.832 1053.05 401.763C1053.57 402.037 1054.08 402.337 1054.58 402.663L1054.71 402.801C1055.21 403.252 1055.67 403.739 1056.1 404.257H1056.17C1056.55 404.763 1056.85 405.324 1057.07 405.92C1057.95 408.337 1058.55 410.848 1058.87 413.403C1059.98 421.233 1058.87 430.448 1056.79 435.575Z" fill="#ffffff"/>
<path d="M608.356 437.17C614.451 437.377 621.936 431.072 619.854 424.697C617.361 421.025 613.275 423.728 612.993 427.469L613.342 426.638C613.078 427.304 612.729 427.933 612.301 428.509L612.858 427.815C612.352 428.438 611.767 428.997 611.125 429.478L611.817 428.924C611.221 429.396 610.573 429.792 609.876 430.102L610.708 429.756C610.039 430.021 609.341 430.208 608.632 430.31L609.6 430.171C604.405 429.34 603.021 436.684 608.356 437.17Z" fill="white"/>
<path d="M616.809 404.395C617.377 399.843 618.564 395.391 620.343 391.161C622.059 387.296 624.221 383.645 626.787 380.283C627.687 378.897 633.158 373.354 634.334 372.591C636.09 371.218 637.998 370.055 640.018 369.127C639.394 369.404 639.878 369.196 640.018 369.196C641.487 368.565 643.063 368.212 644.661 368.157C649.096 368.157 649.096 361.159 644.661 361.228C624.496 363.653 612.098 385.895 609.88 404.395C609.807 408.829 616.735 408.899 616.809 404.395Z" fill="white"/>
<path d="M634.543 313.419L637.25 312.934L636.349 313.072C639.535 312.103 643.553 314.181 646.322 312.033C646.694 311.659 646.969 311.206 647.138 310.709C647.307 310.212 647.358 309.683 647.29 309.162C647.223 308.642 647.042 308.143 646.755 307.704C646.463 307.265 646.08 306.898 645.63 306.628C641.544 305.243 636.901 305.935 632.742 306.767C628.588 307.598 630.249 314.597 634.543 313.419Z" fill="white"/>
<path d="M682.493 362.753C683.18 362.471 683.906 362.285 684.643 362.198L683.743 362.337C684.564 362.199 685.409 362.199 686.236 362.337L685.335 362.198C686 362.261 686.658 362.425 687.271 362.684C687.62 362.753 688.245 363.169 687.204 362.614C689.078 363.585 688.588 363.238 689.905 364.554C690.114 364.763 690.322 365.247 689.77 364.347C691.639 369.197 698.64 366.564 696.349 361.783C694.064 357.002 683.602 352.567 678.616 357.695C677.017 360.189 679.651 363.723 682.493 362.753Z" fill="white"/>
<path d="M230.66 487.335C230.645 487.078 230.668 486.821 230.729 486.572V487.057C230.839 486.324 231.024 485.604 231.284 484.909C233.501 479.92 238.836 476.317 243.756 472.368C247.497 469.389 254.08 464.885 259.485 462.598C260.523 461.975 267.383 460.104 268.423 460.104C270.974 459.77 273.557 459.747 276.113 460.034C278.885 460.52 283.112 462.459 284.29 458.51C284.221 447.978 257.821 454.491 252.417 458.372C241.746 465.439 225.602 473.408 223.8 487.335C223.731 491.769 230.66 491.838 230.729 487.335H230.66Z" fill="#ffffff"/>
<path d="M380.74 510.477C376.236 507.497 369.584 511.724 370.07 516.99C370.554 522.256 377.691 526.483 382.126 522.395C386.56 518.306 384.482 512.348 380.74 510.477Z" fill="#ffffff"/>
<path d="M478.715 512.555C474.211 509.576 467.629 513.733 468.045 519.069C468.461 524.403 475.736 528.561 480.101 524.403C484.466 520.246 482.526 514.426 478.715 512.555Z" fill="#ffffff"/>
<path d="M500.193 545.537C501.856 550.942 487.374 557.177 493.888 557.039C495.698 557.028 497.496 556.748 499.223 556.207C507.676 553.574 512.803 545.883 510.656 539.093C508.507 532.303 499.985 528.838 491.532 531.471C487.434 532.646 483.893 535.253 481.554 538.816C479.683 541.865 499.223 542.28 500.193 545.537Z" fill="#D13535"/>
<path d="M376.639 547.093C378.624 540.218 373.347 532.657 364.854 530.206C356.361 527.754 347.867 531.34 345.883 538.215C343.899 545.091 349.175 552.652 357.668 555.103C366.161 557.554 374.654 553.968 376.639 547.093Z" fill="#D13535"/>
<path d="M444.693 569.647C406.515 571.105 418.641 534.935 436.032 537.5C457.165 540.548 478.298 545.398 495.759 549.625C500.471 550.734 500.402 557.455 495.621 558.494L444.693 569.647Z" fill="#CE9C5C"/>
<path d="M496.729 539.232C477.813 534.659 457.511 530.016 436.655 526.968C430.419 526.067 424.183 528.908 420.026 534.589C415.869 540.271 414.483 548.724 417.463 554.891C419.472 559.048 425.015 566.045 440.189 566.737H441.505C443.954 566.732 446.394 566.456 448.781 565.91L496.521 555.515C498.379 555.119 500.046 554.099 501.243 552.623C502.441 551.148 503.097 549.308 503.104 547.408C503.163 545.515 502.558 543.661 501.394 542.168C500.229 540.674 498.579 539.635 496.729 539.232ZM446.286 541.864V542.003V541.864ZM447.118 558.494C444.957 558.969 442.747 559.178 440.536 559.118C432.221 558.702 426.47 556.069 424.322 551.635C422.174 547.2 423.282 543.042 426.123 539.093C428.964 535.144 431.39 534.451 434.369 534.451H435.547L440.812 535.283C435.685 549.14 447.395 549.348 446.286 541.934C446.356 542.211 446.356 542.419 446.425 542.696C446.367 542.376 446.344 542.051 446.356 541.726C447.083 540.047 447.573 538.275 447.811 536.46C458.758 538.331 469.568 540.617 479.961 543.042V543.597L479.753 544.29C479.664 544.511 479.548 544.721 479.406 544.914C476.704 548.309 478.506 550.803 481 551.011L463.054 554.96C464.163 550.872 465.895 546.23 461.876 544.429C455.71 543.667 457.304 552.535 455.71 556.554L447.118 558.494ZM494.927 548.032L483.425 550.526C484.742 549.833 485.92 548.447 486.474 546.161C486.667 545.693 486.807 545.205 486.89 544.705L494.927 546.645C495.135 546.645 495.482 546.784 495.482 547.339C495.491 547.42 495.484 547.504 495.462 547.583C495.439 547.662 495.401 547.736 495.349 547.801C495.298 547.865 495.234 547.919 495.161 547.958C495.089 547.998 495.009 548.023 494.927 548.032Z" fill="#ffffff"/>
<path d="M126.727 573.322C121.877 575.472 117.65 578.798 112.662 580.599C103.585 583.925 93.1226 581.291 85.1539 575.748C77.1859 570.204 71.5736 562.028 66.8619 553.574C50.3007 523.412 44.9032 488.378 51.6184 454.63C55.7757 433.912 65.4763 413.057 83.4222 401.901C101.368 390.746 128.46 393.032 139.754 410.909C151.048 428.785 142.04 454.145 140.585 475.971C140.474 477.205 140.626 478.449 141.032 479.619C141.438 480.791 142.089 481.861 142.941 482.761C148.345 488.304 156.383 481.652 163.45 479.366C176.477 475.07 189.849 488.651 190.473 502.301C191.097 515.95 183.059 528.422 174.537 539.093C168.634 546.53 162.294 553.61 155.551 560.295C148.484 567.154 146.96 564.66 137.121 565.561C136.151 565.628 127.559 572.973 126.727 573.322Z" fill="#D13535"/>
<path d="M228.928 698.736C199.272 674.412 158.53 609.004 146.335 571.172C145.989 569.58 145.781 568.747 145.643 567.987C157.699 565.145 166.845 558.979 176.199 548.032C189.156 533.204 204.884 516.921 205.162 496.065C205.439 475.209 183.197 459.896 164.005 472.784C163.242 473.13 160.055 474.17 158.669 473.962L158.046 473.823H157.837L157.63 473.685L157.006 473.338C157.006 473.269 157.006 473.269 156.937 473.269L156.313 472.576C156.056 472.262 155.846 471.912 155.69 471.537C155.69 471.518 155.682 471.501 155.669 471.488C155.657 471.474 155.639 471.467 155.621 471.467C155.639 471.467 155.657 471.474 155.669 471.488C155.682 471.501 155.69 471.518 155.69 471.537H155.621C155.623 471.499 155.619 471.462 155.607 471.425C155.595 471.39 155.576 471.357 155.551 471.329C155.348 470.918 155.23 470.47 155.205 470.012C155.234 470.127 155.257 470.242 155.274 470.359C155.066 467.171 155.69 463.984 156.036 460.797C160.886 434.883 167.538 397.19 133.448 386.45C59.3089 369.959 44.5503 475.278 65.1986 526.067C73.8595 551.565 95.131 587.871 127.073 575.68C131.231 573.874 134.903 571.246 138.922 569.371H139.199C145.85 599.515 164.836 625.983 180.772 652.035C193.244 670.05 205.785 688.758 222.692 702.89C227.057 707.882 233.847 703.655 228.928 698.736ZM123.817 569.445C122.105 570.159 120.314 570.671 118.481 570.964C116.5 571.172 114.504 571.172 112.523 570.964C112.384 570.964 111.137 570.829 112.037 570.964C109.466 570.486 106.94 569.794 104.485 568.887C101.716 567.666 99.1094 566.107 96.7248 564.244C87.4404 557.178 79.3333 542.35 74.6908 531.264C69.8242 519.566 66.4717 507.295 64.7135 494.748C61.3181 465.093 64.575 434.606 82.1743 410.424C83.7676 408.068 90.0039 401.763 92.0823 400.377C98.1769 395.522 105.486 392.43 113.215 391.439C120.63 390.4 129.014 391.716 134.141 393.933C142.247 397.536 146.821 401.971 150.424 410.008C154.027 418.046 153.68 431.003 152.364 439.387C151.047 449.226 148.83 459.065 148.275 469.042C148.553 481.376 160.748 483.316 169.755 477.773C173.012 476.248 174.536 475.278 178.07 474.586C179.155 474.505 180.246 474.529 181.326 474.655C184.791 475.278 186.315 476.04 189.433 478.258L190.472 479.158C191.373 480.059 192.274 480.96 193.106 481.93C193.937 482.9 193.175 482.069 193.244 482.138C194.605 483.898 195.724 485.832 196.57 487.889V487.681C196.847 488.651 197.332 489.76 197.54 490.799C197.748 491.838 197.887 492.254 198.025 492.947V493.016C198.718 499.391 197.609 504.241 195.184 510.408C187.77 525.998 174.189 541.241 160.332 553.852C154.909 557.94 148.549 560.608 141.832 561.612C140.16 561.541 138.497 561.873 136.982 562.582L136.15 562.86C132.201 564.593 126.935 568.195 123.817 569.445Z" fill="#ffffff"/>
<path d="M155.62 471.398C155.551 471.121 155.551 471.121 155.551 471.19C155.576 471.218 155.595 471.251 155.608 471.287C155.619 471.323 155.624 471.361 155.62 471.398Z" fill="#ffffff"/>
<path d="M733.628 738.508C735.705 743.354 736.47 748.689 738.823 753.406C743.117 762.067 752.476 767.397 762.106 768.854C771.735 770.312 781.438 768.303 790.651 765.388C823.434 754.965 851.495 733.325 869.921 704.279C881.143 686.399 888.488 664.574 883.22 644.133C877.958 623.692 856.684 606.718 836.243 611.845C815.802 616.972 804.715 641.572 790.792 658.411C789.998 659.368 789.019 660.15 787.91 660.713C786.801 661.27 785.586 661.596 784.348 661.664C776.587 661.94 775.41 651.618 771.876 645.033C765.359 633.046 746.376 633.603 736.47 643.024C726.559 652.451 723.791 667.067 722.609 680.72C721.742 690.164 721.466 699.653 721.781 709.13C722.125 718.968 724.967 718.203 731.478 725.62C732.171 726.38 733.279 737.608 733.628 738.508Z" fill="#D13535"/>
<path d="M548.279 791.789C546.772 789.768 545.494 787.579 544.469 785.277C542.113 779.525 540.935 770.104 544.538 761.927L544.399 762.27C545.088 760.582 545.971 758.978 547.032 757.492C549.319 753.682 543.291 750.147 541.004 753.958C531.581 768.095 534.145 788.879 546.686 800.242C549.873 803.427 554.793 798.509 551.605 795.323C550.391 794.248 549.278 793.066 548.279 791.789Z" fill="#ffffff"/>
<path d="M765.5 630.693C765.641 630.901 765.849 631.384 765.5 630.693V630.693Z" fill="#ffffff"/>
<path d="M878.584 619.955C869.573 604.85 851.35 594.038 833.543 598.541C815.736 603.049 803.124 621.683 793.562 634.155C790.444 637.83 786.983 643.306 783.656 645.033C782.756 645.382 780.747 645.591 779.706 644.69C778.664 643.79 778.113 642.957 777.139 640.807C772.845 618.154 750.395 611.569 732.796 625.15C713.397 640.047 706.328 703.722 722.475 721.737C681.452 755.758 612.166 772.181 559.437 770.312C549.875 768.162 549.112 775.85 554.794 776.959C614.935 779.384 675.425 764.56 725.176 729.082C754.414 818.398 925.56 689.517 878.584 619.955ZM873.108 674.411C859.871 704.696 831.466 730.263 800.906 743.078C783.099 749.939 759.13 758.46 741.874 745.504C740.141 744.328 736.055 739.893 734.873 736.499C733.354 734.49 733.005 726.588 730.855 722.362C728.711 718.135 725.452 714.95 723.51 709.614C717.139 691.25 721.574 662.913 727.945 643.649C730.444 637.83 735.571 629.793 742.983 626.951L742.634 627.159C744.756 626.225 746.996 625.594 749.286 625.29L748.87 625.426C750.288 625.184 751.735 625.11 753.17 625.217C753.654 625.082 756.423 625.634 754.971 625.29C756.625 625.555 758.252 626 759.822 626.607C759.822 626.585 759.811 626.568 759.799 626.557C759.788 626.546 759.771 626.534 759.749 626.534C761.049 627.159 762.298 627.874 763.491 628.684L763.216 628.543C764.06 629.168 764.825 629.889 765.501 630.693H765.433C766.092 631.549 766.649 632.477 767.093 633.462C767.234 633.744 767.651 634.987 767.302 633.879C777.837 668.941 793.01 647.324 806.45 628.684C813.519 618.773 826.547 605.677 838.186 604.709C858.351 602.148 876.434 621.272 878.651 640.188C880.103 652.727 877.61 663.33 873.108 674.411Z" fill="#ffffff"/>
<path d="M759.821 626.607C760.097 626.675 760.58 626.95 759.821 626.607V626.607Z" fill="#ffffff"/>
<path d="M498.67 368.504C469.638 326.169 361.755 324.021 327.249 335.384C243.133 363.1 237.312 424.005 237.797 439.317C237.797 439.317 262.326 412.087 275.906 402.872C289.487 393.656 307.71 380.768 330.99 373.493C354.272 366.218 387.461 358.665 413.791 357.141C460.769 354.369 498.67 368.504 498.67 368.504Z" fill="#D13535"/>
<path d="M568.026 907.224C624.289 823.733 603.572 700.053 521.813 640.464C563.732 594.247 575.787 518.791 543.708 464.399C558.813 306.282 244.242 285.08 236.689 448.879C222.901 467.933 211.26 527.937 244.103 527.73C235.788 671.226 417.533 750.423 516.547 646.075C662.328 753.057 581.195 993.625 400.28 990.923C250.686 994.458 156.314 817.008 238.906 693.468C239.449 692.613 239.629 691.577 239.408 690.592C239.187 689.602 238.583 688.746 237.729 688.2C236.874 687.66 235.839 687.48 234.852 687.699C233.864 687.919 233.005 688.527 232.463 689.382C191.651 753.473 189.642 840.015 230.176 903.69C184.584 947.132 160.125 1004.79 159.502 1070.68C159.492 1071.18 159.584 1071.68 159.772 1072.15C159.96 1072.61 160.241 1073.04 160.597 1073.39C160.953 1073.75 161.376 1074.03 161.843 1074.22C162.309 1074.4 162.809 1074.5 163.312 1074.49C164.311 1074.49 165.27 1074.09 165.983 1073.4C166.695 1072.7 167.105 1071.75 167.123 1070.74C167.747 1007.49 191.028 952.057 234.403 910.201C306.879 1025.15 488.831 1027.09 563.664 913.668C605.654 956.902 628.38 1014.21 627.755 1075.46C627.755 1076.47 628.155 1077.44 628.87 1078.15C629.585 1078.87 630.558 1079.27 631.566 1079.27C632.061 1079.28 632.556 1079.19 633.018 1079C633.479 1078.82 633.901 1078.55 634.256 1078.2C634.61 1077.85 634.892 1077.43 635.083 1076.98C635.28 1076.51 635.376 1076.02 635.376 1075.53C636.068 1011.71 612.166 952.057 568.026 907.224ZM263.781 392.894C315.193 329.771 423.354 329.355 488.277 370.167C402.983 348.757 303.553 373.423 244.103 439.802C245.766 424.627 253.041 406.474 263.781 392.894ZM236.689 519.137C228.028 511.169 229.76 497.519 230.73 486.918C234.403 447.354 269.74 421.925 300.989 402.455C373.673 361.159 537.68 336.423 540.105 458.441C503.59 452.828 466.659 430.379 427.303 433.843C368.961 436.407 314.362 465.3 274.244 506.735C264.127 513.872 247.775 525.789 236.689 519.137ZM402.913 686.332C318.311 688.2 245.489 610.804 251.794 526.552C264.613 523.087 278.817 513.179 287.894 504.033C369.308 423.935 451.484 433.982 535.463 465.369C593.042 560.156 512.598 689.658 402.913 686.332Z" fill="#ffffff"/>
<path d="M408.594 775.507C407.762 805.369 363.348 804.953 363.14 775.091C362.932 745.229 408.386 745.645 408.594 775.507Z" fill="#CE9C5C"/>
<path d="M407.347 892.811C406.585 922.679 362.102 922.262 361.894 892.395C362.725 862.533 407.209 862.949 407.347 892.811Z" fill="#CE9C5C"/>
<path d="M377.483 799.341C342.285 798.441 342.561 746.754 377.76 746.264C412.543 747.446 412.335 798.508 377.483 799.341ZM377.483 753.89C352.747 754.233 352.539 791.029 377.275 791.721C387.461 791.997 396.538 783.127 396.399 772.941C396.745 762.76 387.738 753.682 377.483 753.89Z" fill="#ffffff"/>
<path d="M376.306 916.645C353.163 917.343 340.76 886.783 357.736 871.126C373.604 854.563 403.744 867.316 402.843 890.385C402.752 897.37 399.918 904.039 394.953 908.952C389.988 913.865 383.29 916.628 376.306 916.645ZM376.306 871.194C351.569 871.543 351.362 908.4 376.098 909.025C400.834 909.65 401.249 871.61 376.306 871.194Z" fill="#ffffff"/>
</svg>
