<svg width="1127" height="1126" viewBox="0 0 1127 1126" fill="none" xmlns="http://www.w3.org/2000/svg">
<path d="M301.023 347.908C300.359 347.515 299.601 347.308 298.83 347.308C298.058 347.308 297.301 347.515 296.637 347.908C295.843 348.367 295.096 348.901 294.404 349.503C293.365 350.315 292.379 351.194 291.454 352.134C291.312 352.198 291.199 352.312 291.135 352.453C289.789 351.76 288.484 350.988 287.228 350.141L286.431 349.503L285.713 348.945L283.481 346.871C282.285 345.675 281.248 344.32 280.052 343.124C277.101 340.094 273.354 337.862 268.968 338.738C264.582 339.616 260.595 344.081 262.111 348.785C262.749 350.779 264.901 352.294 267.055 351.576C269.207 350.859 270.403 348.945 269.925 346.951C270.005 346.872 270.084 346.792 269.925 346.871L270.244 346.712L270.882 346.473H271.201L271.599 346.632H271.759C271.759 346.712 271.759 346.712 271.838 346.712L272.557 347.111L272.955 347.43C273.354 347.669 272.716 347.19 272.716 347.19C272.716 347.19 273.992 348.307 274.151 348.546C276.065 350.46 277.739 352.533 279.812 354.367C281.654 355.98 283.658 357.396 285.793 358.593C280.963 365.363 277.993 373.281 277.181 381.558C276.623 387.617 277.58 394.555 282.683 398.621C284.009 399.725 285.557 400.532 287.221 400.986C288.886 401.44 290.629 401.531 292.331 401.253C293.667 400.964 294.932 400.413 296.055 399.633C297.176 398.853 298.133 397.859 298.87 396.708C302.059 392.242 301.501 385.704 297.115 382.275C295.416 381.035 293.407 380.29 291.31 380.121C289.213 379.952 287.111 380.366 285.235 381.319V380.6L285.474 379.564C285.969 376.73 286.744 373.953 287.786 371.271C287.866 371.192 287.866 371.032 287.946 370.872C287.974 370.84 287.996 370.803 288.01 370.761C288.024 370.72 288.029 370.677 288.026 370.633L288.265 370.155C288.583 369.437 288.982 368.72 289.302 368.082C290.031 366.671 290.857 365.313 291.773 364.015L293.049 362.102L293.448 361.703C294.518 361.957 295.627 362.011 296.717 361.862C300.146 361.464 303.176 359.55 304.132 356.042C305.089 352.533 303.973 349.423 301.023 347.908ZM271.838 346.712H271.998C271.998 346.792 271.918 346.712 271.838 346.712ZM286.59 391.286L286.75 391.525C286.67 391.445 286.59 391.365 286.59 391.286ZM287.308 390.01L287.627 389.292C287.648 389.292 287.668 389.284 287.683 389.269C287.698 389.254 287.707 389.234 287.707 389.212L287.866 389.053L288.026 388.893H288.185L288.743 388.495L290.098 388.176H290.976L291.693 388.335L292.252 388.654L292.57 389.053L292.73 389.292C292.751 389.292 292.771 389.301 292.786 389.315C292.801 389.331 292.809 389.351 292.809 389.372C292.835 389.565 292.889 389.753 292.969 389.93V390.727C292.878 390.956 292.824 391.199 292.809 391.445C292.73 391.525 292.73 391.525 292.73 391.604C292.433 391.966 292.192 392.369 292.013 392.801H291.933C291.853 392.88 291.454 393.199 291.454 393.279H291.135L290.657 393.518H289.939L289.381 393.358H289.142L288.185 392.88L287.946 392.721L287.148 392.003L286.829 391.684L286.67 391.445L286.511 391.206C286.874 390.881 287.148 390.47 287.308 390.01ZM285.235 380.68C285.231 380.637 285.236 380.594 285.25 380.553C285.263 380.511 285.285 380.474 285.314 380.441C285.285 380.474 285.263 380.511 285.25 380.553C285.236 380.594 285.231 380.637 285.235 380.68ZM296.637 353.809H296.717C296.717 353.83 296.708 353.85 296.693 353.865C296.679 353.88 296.658 353.888 296.637 353.888V353.809ZM296.478 353.809C296.557 353.809 296.557 353.809 296.557 353.729C296.557 353.649 296.557 353.809 296.478 353.809ZM296.478 353.888H296.398C296.239 353.49 296.398 353.649 296.398 353.888H296.478Z" fill="#D13535"/>
<path d="M288.026 388.893L287.708 389.212L288.026 388.893Z" fill="#D13535"/>
<path d="M451.807 322.312C449.635 322.654 447.566 323.47 445.747 324.704C444.827 325.233 444.155 326.106 443.878 327.13C443.602 328.154 443.743 329.247 444.272 330.166C444.8 331.086 445.673 331.758 446.698 332.035C447.722 332.312 448.814 332.17 449.734 331.641L451.488 330.605L452.126 330.366L452.764 330.127H453.083V330.765C453.064 330.899 453.038 331.032 453.003 331.163L452.764 331.482L452.604 331.721L452.286 332.04L452.047 332.28C451.635 332.651 451.144 332.923 450.611 333.077L450.372 333.236L449.575 333.555L447.581 334.114L446.624 334.353H444.95L444.551 334.114H444.391L444.232 333.875L444.073 333.635V333.476C444.054 333.341 444.027 333.208 443.993 333.077L443.754 332.28V331.961C443.647 331.589 443.647 331.668 443.754 332.2C443.514 331.801 443.674 330.924 443.674 330.525C443.594 329.783 443.594 329.035 443.674 328.293C443.674 327.176 443.754 325.98 443.834 324.864C443.913 323.748 443.913 324.226 443.993 323.907C444.087 323.183 444.22 322.464 444.391 321.754C444.859 319.26 445.526 316.807 446.385 314.418C446.562 313.822 446.775 313.236 447.023 312.664C447.062 312.589 447.089 312.509 447.102 312.425C447.186 312.137 447.321 311.867 447.501 311.628C448.032 310.367 448.645 309.141 449.335 307.959C449.973 306.764 450.691 305.568 451.408 304.451L452.684 302.617L453.083 302.139L453.402 301.74C458.106 300.703 461.854 296.398 460.818 291.294C460.634 290.627 460.281 290.019 459.792 289.53C459.302 289.04 458.694 288.686 458.027 288.504C457.341 288.329 456.622 288.332 455.938 288.514C455.254 288.695 454.628 289.048 454.119 289.54C452.561 290.845 451.096 292.257 449.734 293.766H449.335L447.9 293.288C447.9 293.208 447.741 293.208 447.661 293.129L447.182 292.969L444.232 291.614C442.319 290.657 440.325 289.859 438.411 288.982C434.345 287.228 430.198 285.473 426.052 283.879C421.905 282.284 417.998 281.247 413.772 281.327C409.402 281.305 405.165 282.83 401.812 285.633C400.881 285.466 399.921 285.634 399.104 286.108C398.286 286.583 397.663 287.332 397.347 288.223C397.031 289.115 397.041 290.089 397.377 290.973C397.713 291.857 398.352 292.592 399.18 293.049C399.26 293.208 399.26 293.368 399.34 293.527C399.299 293.765 399.299 294.007 399.34 294.245C399.34 294.644 399.26 294.962 399.26 295.361C399.021 296.159 398.862 297.036 398.622 297.833L397.904 299.826C397.825 299.986 397.745 300.066 397.745 300.225C397.608 300.619 397.42 300.995 397.187 301.342C396.549 302.936 395.831 304.451 395.114 306.046C393.838 309.076 392.721 312.345 393.041 315.694C393.36 319.043 395.512 323.588 398.383 326.778C401.023 329.781 404.326 332.129 408.031 333.635C409.824 334.278 411.727 334.56 413.629 334.464C415.531 334.368 417.396 333.897 419.115 333.077C420.874 332.262 422.38 330.987 423.475 329.387C424.57 327.787 425.212 325.922 425.334 323.987C425.44 322.175 425.069 320.367 424.258 318.744C423.446 317.121 422.223 315.74 420.709 314.737C417.042 312.425 412.177 313.461 409.386 316.651C407.731 318.563 406.677 320.92 406.357 323.429L406.118 323.189L404.443 321.595L402.928 319.841V319.681C402.848 319.601 402.848 319.522 402.768 319.522L402.051 318.405L401.493 317.369C401.891 318.086 401.493 317.209 401.413 316.97C401.271 316.664 401.164 316.343 401.094 316.013V315.774C401.054 315.163 401.054 314.55 401.094 313.94V313.78L401.333 312.824C401.445 312.227 401.605 311.64 401.812 311.069C402.125 310.397 402.392 309.705 402.609 308.996C402.776 308.692 402.909 308.371 403.008 308.039L403.964 306.126C405.554 302.904 406.655 299.465 407.234 295.92C407.407 294.461 407.379 292.985 407.154 291.534C407.154 291.454 407.234 291.454 407.314 291.374C407.68 291.063 408.081 290.795 408.51 290.577L409.068 290.338C409.068 290.258 409.147 290.258 409.227 290.258L409.466 290.099L410.423 289.779L411.62 289.46H416.244L417.281 289.62L420.47 290.497C422.5 291.108 424.496 291.827 426.45 292.65L429.321 293.766L430.916 294.484L431.633 294.723L432.032 294.883L438.172 297.594C440.245 298.551 442.398 299.667 444.631 300.624C440.309 307.128 437.477 314.507 436.338 322.233C435.461 328.452 434.424 337.462 440.564 341.449C443.834 343.523 448.139 342.964 451.568 341.768C454.997 340.572 458.266 338.818 460.02 335.708C461.774 332.599 461.695 327.415 458.744 324.625C457.86 323.708 456.768 323.019 455.559 322.617C454.352 322.214 453.064 322.11 451.807 322.312ZM416.802 324.944C416.882 324.864 416.962 324.704 416.962 324.784C416.962 324.864 416.962 324.864 416.802 324.944ZM416.005 321.435C416.026 321.435 416.047 321.427 416.061 321.412C416.076 321.397 416.085 321.377 416.085 321.356C416.085 321.366 416.083 321.377 416.079 321.386C416.075 321.396 416.069 321.405 416.061 321.412C416.054 321.419 416.045 321.425 416.035 321.429C416.026 321.433 416.016 321.435 416.005 321.435ZM415.766 321.435C415.766 321.456 415.757 321.477 415.742 321.491C415.727 321.507 415.707 321.515 415.686 321.515C415.606 321.515 415.606 321.515 415.766 321.435ZM414.41 323.269C414.41 323.248 414.418 323.228 414.434 323.213C414.448 323.198 414.469 323.189 414.49 323.189C414.592 322.934 414.726 322.693 414.889 322.472C414.893 322.41 414.922 322.353 414.968 322.312C414.99 322.312 415.01 322.304 415.025 322.289C415.04 322.274 415.048 322.254 415.048 322.233C415.207 321.993 415.287 321.993 415.207 322.073L415.447 321.834H415.606C415.617 321.834 415.627 321.832 415.637 321.828C415.646 321.824 415.655 321.818 415.663 321.81C415.67 321.803 415.676 321.794 415.68 321.785C415.684 321.775 415.686 321.765 415.686 321.754C415.766 321.754 415.766 321.754 415.766 321.674H416.244C416.244 321.685 416.246 321.695 416.25 321.705C416.254 321.715 416.26 321.723 416.268 321.731C416.275 321.738 416.283 321.744 416.294 321.748C416.303 321.752 416.313 321.754 416.324 321.754C416.345 321.754 416.365 321.763 416.38 321.778C416.395 321.792 416.403 321.813 416.403 321.834L416.802 322.153C416.802 322.163 416.804 322.173 416.809 322.184C416.813 322.193 416.818 322.202 416.825 322.209C416.833 322.217 416.842 322.222 416.851 322.226C416.861 322.23 416.872 322.233 416.882 322.233L417.122 322.871C417.201 322.95 417.201 323.03 417.201 323.189C417.23 323.222 417.252 323.26 417.266 323.301C417.279 323.342 417.284 323.386 417.281 323.429V323.987C417.208 324.194 417.155 324.408 417.122 324.625L416.962 324.864C416.962 324.944 416.882 325.023 416.802 325.183L416.324 325.582C416.244 325.661 415.846 325.9 416.164 325.741H416.085L415.287 326.219H415.128L414.171 326.459H414.091V326.219C414.091 325.9 414.011 325.661 414.011 325.422C414.011 325.183 414.091 324.864 414.091 324.704C414.11 324.57 414.136 324.437 414.171 324.306L414.41 323.269ZM399.18 292.969C399.26 293.129 399.34 293.208 399.18 292.969V292.969ZM399.021 292.65C399.032 292.65 399.042 292.652 399.051 292.656C399.061 292.66 399.07 292.666 399.077 292.673C399.084 292.681 399.091 292.69 399.095 292.699C399.098 292.709 399.101 292.719 399.101 292.73L399.021 292.65ZM398.941 292.57C398.936 292.509 398.908 292.452 398.862 292.411C398.908 292.452 398.936 292.509 398.941 292.57ZM399.34 292.969L399.898 293.208L399.34 292.969ZM453.003 293.049C452.844 292.411 453.003 292.81 453.003 293.049V293.049ZM452.604 293.447H452.365H452.604ZM444.87 334.592H444.631H444.87ZM443.993 333.555C443.993 333.635 444.073 333.715 444.152 333.954C444.232 334.193 444.073 333.715 443.993 333.555ZM452.604 331.961L452.844 331.641C452.836 331.711 452.809 331.777 452.767 331.833C452.725 331.889 452.669 331.933 452.604 331.961Z" fill="#EFDCC4"/>
<path d="M415.208 321.993C415.128 322.073 415.048 322.233 414.969 322.233C415.024 322.213 415.074 322.181 415.115 322.14C415.156 322.098 415.188 322.049 415.208 321.993Z" fill="#D13535"/>
<path d="M415.845 321.595L416.163 321.435H415.845V321.595Z" fill="#D13535"/>
<path d="M402.848 319.841C402.609 319.522 402.689 319.522 402.768 319.681V319.841H402.848Z" fill="#D13535"/>
<path d="M603.07 354.526C602.828 353.091 601.714 351.496 600.2 351.257C595.338 350.434 590.34 351.427 586.164 354.048C586.141 354.048 586.125 354.056 586.108 354.071C586.091 354.086 586.085 354.106 586.085 354.127C585.686 354.127 584.971 353.809 584.729 353.809L583.215 353.33L581.937 352.931L581.622 352.772L580.665 352.214C579.759 351.729 578.881 351.197 578.032 350.619C577.953 350.459 577.632 350.3 577.553 350.22L577.075 349.822L575.561 348.466C568.779 342.087 561.685 332.917 551.24 334.114C546.375 334.671 541.91 337.064 539.677 341.37C539.092 341.701 538.619 342.201 538.322 342.805C533.299 353.011 529.949 366.168 536.01 376.374V376.534C536.069 377.424 536.399 378.275 536.954 378.973C537.509 379.671 538.265 380.183 539.12 380.441C541.395 382.689 544.385 384.071 547.572 384.348C551 384.667 554.35 382.993 556.741 380.521C557.931 379.338 558.95 377.996 559.772 376.534C560.728 374.859 561.685 373.025 561.606 371.032C561.287 367.045 557.778 364.573 554.03 364.015C550.283 363.457 545.259 363.537 541.591 366.008L540.874 366.567C540.782 366.12 540.728 365.667 540.714 365.211C540.66 363.988 540.686 362.763 540.794 361.543C540.781 361.222 540.808 360.9 540.874 360.586V360.108C541.033 359.47 541.113 358.832 541.272 358.194C541.505 356.838 541.852 355.504 542.309 354.207C542.716 352.828 543.195 351.47 543.744 350.14C543.833 349.966 543.887 349.777 543.903 349.583C544.044 349.388 544.151 349.173 544.223 348.944L544.781 347.748C545.655 347.228 546.308 346.406 546.614 345.436C546.619 345.375 546.648 345.317 546.694 345.277C546.774 345.037 546.774 345.037 546.694 345.117C546.615 345.197 546.774 345.037 546.774 344.958L547.093 344.559C547.173 344.479 547.173 344.479 547.173 344.399C547.173 344.32 547.333 344.24 547.253 344.399C547.173 344.559 547.811 343.762 547.89 343.762L548.05 343.602L548.529 343.283L549.326 342.805C549.246 342.884 549.166 342.884 549.405 342.805L549.645 342.645C549.645 342.725 549.645 342.725 549.565 342.725L550.203 342.566L551.479 342.247H554.11L555.545 342.566L556.263 342.884L556.901 343.123C557.758 343.542 558.585 344.022 559.373 344.559L560.728 345.436C560.728 345.457 560.737 345.478 560.751 345.492C560.767 345.507 560.787 345.516 560.808 345.516H560.888C561.14 345.822 561.436 346.09 561.765 346.313C565.273 349.264 568.143 352.851 571.734 355.802C574.092 357.807 576.754 359.423 579.624 360.586C576.647 365.398 575.353 371.066 575.96 376.693C576.219 380.234 577.137 383.695 578.667 386.899C580.187 389.77 582.894 392.481 586.243 393.119C593.66 394.475 600.437 386.023 596.767 379.165C594.375 374.54 588.235 373.265 583.851 375.337C583.772 374.302 583.772 373.263 583.851 372.228C583.851 371.989 583.93 371.75 583.93 371.51C583.93 371.271 584.014 371.111 584.014 371.032L584.492 368.959C584.65 368.4 584.886 367.843 585.05 367.284C585.207 366.726 585.128 367.204 585.128 367.124H585.207C585.325 366.826 585.46 366.533 585.607 366.248L586.406 364.892L586.884 364.174L587.278 363.776C587.638 363.313 588.038 362.885 588.477 362.5L588.635 362.341C593.058 362.321 597.392 361.079 601.157 358.752C601.849 358.311 602.406 357.676 602.744 356.925C603.082 356.174 603.194 355.341 603.07 354.526ZM549.166 376.295L549.565 376.135L549.166 376.295ZM544.861 373.583C544.861 373.663 544.781 373.743 544.701 373.902C544.622 374.062 544.781 373.743 544.861 373.583ZM544.781 373.822C544.81 373.79 544.831 373.753 544.845 373.711C544.859 373.67 544.864 373.626 544.861 373.583L545.259 373.265L545.658 372.945L546.694 372.308L547.333 372.069L548.289 371.829H552.675L553.233 371.989L552.515 373.185L552.037 373.902H551.877C551.522 374.367 551.121 374.794 550.681 375.178L550.522 375.337L549.884 375.736L549.565 375.976L549.087 376.135L548.529 376.295H547.731L547.173 376.135L546.854 375.976L546.455 375.816L545.658 375.337L545.259 375.178H545.498C545.089 374.875 544.714 374.528 544.382 374.141L544.621 373.822C544.621 373.982 544.701 373.902 544.781 373.822ZM586.884 384.587L587.2 384.906L586.884 384.587ZM589.434 384.268V384.109C589.451 384.16 589.451 384.217 589.434 384.268ZM586.642 382.993H586.721C586.642 382.993 586.721 382.913 586.884 382.673C586.963 382.594 586.963 382.594 586.963 382.514H588.477C588.477 382.493 588.471 382.473 588.455 382.458C588.438 382.443 588.421 382.434 588.398 382.434C588.421 382.434 588.438 382.443 588.455 382.458C588.471 382.473 588.477 382.493 588.477 382.514H588.635C589.034 382.514 589.113 382.673 588.877 382.594L589.355 382.753C588.798 382.594 589.113 382.514 589.355 382.753C589.591 382.993 589.434 382.753 589.434 382.753H589.513C589.513 382.833 589.591 382.833 589.676 382.913C589.676 382.934 589.681 382.954 589.698 382.969C589.71 382.984 589.732 382.993 589.755 382.993C589.755 383.072 589.833 383.232 589.833 383.312V383.71C589.794 383.785 589.766 383.866 589.755 383.949L589.591 384.188L589.355 384.587L588.798 385.066L588.556 385.225H588.477L587.999 385.384H587.599L587.278 385.225L587.042 385.066L586.8 384.906L586.243 384.188L586.564 384.587L586.243 384.109C586.226 384.109 586.203 384.1 586.186 384.086C586.175 384.07 586.164 384.05 586.164 384.029L586.642 382.993Z" fill="#D13535"/>
<path d="M586.885 382.594L587.2 382.434L587.521 382.275H587.2C587.183 382.275 587.16 382.284 587.143 382.298C587.132 382.313 587.121 382.334 587.121 382.354H587.2L586.963 382.514H586.885C586.806 382.594 586.806 382.753 586.721 382.833C586.795 382.769 586.851 382.686 586.885 382.594Z" fill="#D13535"/>
<path d="M547.093 344.479L547.253 344.24L547.093 344.399V344.479Z" fill="#D13535"/>
<path d="M546.615 345.277C546.695 345.277 546.695 345.117 546.695 345.038V345.197L546.615 345.277Z" fill="#D13535"/>
<path d="M589.675 382.673L589.434 382.514H589.355L589.675 382.673Z" fill="#D13535"/>
<path d="M577.475 265.619C576.63 265.619 575.814 265.283 575.218 264.685C574.621 264.087 574.283 263.276 574.283 262.43V186.918C574.283 186.072 574.621 185.261 575.218 184.663C575.814 184.065 576.63 183.729 577.475 183.729C578.319 183.729 579.129 184.065 579.731 184.663C580.328 185.261 580.666 186.072 580.666 186.918V262.43C580.666 263.276 580.328 264.087 579.731 264.685C579.129 265.283 578.319 265.619 577.475 265.619Z" fill="#CE9C5C"/>
<path d="M550.443 260.276C549.692 260.271 548.964 260.019 548.37 259.559C547.741 259.006 547.355 258.227 547.295 257.392C547.236 256.556 547.507 255.731 548.051 255.094L602.035 190.746C602.598 190.203 603.346 189.887 604.134 189.861C604.917 189.834 605.682 190.098 606.284 190.602C606.886 191.105 607.28 191.813 607.399 192.59C607.511 193.367 607.331 194.158 606.898 194.812L552.915 259.16C552.601 259.505 552.219 259.781 551.794 259.973C551.369 260.165 550.909 260.269 550.443 260.276Z" fill="#CE9C5C"/>
<path d="M607.134 257.805C606.312 257.791 605.519 257.479 604.905 256.928L545.499 197.444C545.2 197.154 544.962 196.807 544.8 196.423C544.638 196.039 544.554 195.627 544.554 195.211C544.554 194.795 544.638 194.382 544.8 193.999C544.962 193.615 545.2 193.268 545.499 192.978C546.095 192.394 546.897 192.067 547.732 192.067C548.567 192.067 549.369 192.394 549.965 192.978L609.447 252.383C610.021 253.001 610.336 253.813 610.336 254.655C610.336 255.497 610.021 256.309 609.447 256.928C608.811 257.491 607.989 257.803 607.134 257.805Z" fill="#CE9C5C"/>
<path d="M615.188 227.824H539.679C538.833 227.824 538.021 227.488 537.423 226.889C536.825 226.291 536.489 225.48 536.489 224.634C536.489 223.788 536.825 222.977 537.423 222.379C538.021 221.781 538.833 221.445 539.679 221.445H615.188C616.038 221.445 616.848 221.781 617.445 222.379C618.041 222.977 618.379 223.788 618.379 224.634C618.379 225.48 618.041 226.291 617.445 226.889C616.848 227.488 616.038 227.824 615.188 227.824Z" fill="#CE9C5C"/>
<path d="M421.268 505.869C420.853 505.869 420.442 505.786 420.06 505.624C419.677 505.463 419.331 505.227 419.041 504.93C418.751 504.632 418.524 504.28 418.372 503.894C418.22 503.507 418.148 503.094 418.159 502.679V427.168C418.148 426.752 418.22 426.34 418.372 425.953C418.524 425.566 418.751 425.214 419.041 424.917C419.331 424.62 419.677 424.383 420.06 424.222C420.442 424.061 420.853 423.978 421.268 423.978C422.114 423.978 422.926 424.314 423.524 424.913C424.122 425.51 424.458 426.322 424.458 427.168V502.679C424.458 503.525 424.122 504.336 423.524 504.934C422.926 505.533 422.114 505.869 421.268 505.869Z" fill="#CE9C5C"/>
<path d="M394.316 500.526C393.565 500.52 392.837 500.268 392.243 499.808C391.602 499.266 391.201 498.494 391.126 497.658C391.052 496.821 391.31 495.99 391.844 495.343L445.906 430.995C446.473 430.452 447.22 430.137 448.005 430.111C448.789 430.084 449.556 430.348 450.158 430.851C450.76 431.355 451.155 432.063 451.269 432.839C451.382 433.616 451.204 434.407 450.77 435.061L396.708 499.41C396.409 499.752 396.042 500.028 395.63 500.22C395.218 500.412 394.77 500.516 394.316 500.526Z" fill="#CE9C5C"/>
<path d="M451.01 498.054C450.184 498.04 449.392 497.729 448.777 497.177L389.373 437.693C388.912 437.078 388.689 436.318 388.743 435.553C388.797 434.787 389.126 434.067 389.669 433.523C390.212 432.98 390.932 432.652 391.698 432.598C392.464 432.543 393.224 432.767 393.838 433.227L453.243 492.632C453.544 492.928 453.783 493.282 453.947 493.672C454.11 494.063 454.194 494.481 454.194 494.904C454.194 495.327 454.11 495.746 453.947 496.136C453.783 496.526 453.544 496.88 453.243 497.177C452.629 497.729 451.836 498.04 451.01 498.054Z" fill="#CE9C5C"/>
<path d="M459.063 468.072H383.552C382.706 468.072 381.894 467.736 381.296 467.138C380.698 466.54 380.362 465.729 380.362 464.883C380.362 464.037 380.698 463.225 381.296 462.628C381.894 462.029 382.706 461.693 383.552 461.693H459.063C459.909 461.693 460.72 462.029 461.318 462.628C461.917 463.225 462.253 464.037 462.253 464.883C462.253 465.729 461.917 466.54 461.318 467.138C460.72 467.736 459.909 468.072 459.063 468.072Z" fill="#CE9C5C"/>
<path d="M204.701 288.583C193.219 288.743 191.703 276.702 190.348 268.011L183.73 276.224C174.161 288.264 155.184 275.108 163.157 261.951C146.811 265.38 141.628 240.501 158.054 237.232L166.825 235.558C157.974 231.172 147.927 224.873 153.908 213.63C161.084 202.387 171.529 208.686 180.061 214.188C177.67 204.46 175.277 192.181 188.115 189.231C200.953 186.28 203.504 199.755 204.86 209.643C210.76 201.51 218.416 191.543 229.1 199.437C239.785 207.331 231.891 217.139 225.273 224.395C247.839 216.421 255.254 241.618 237.871 247.598C250.39 256.848 237.552 276.463 224.077 268.649L215.146 263.466C217.857 274.47 219.771 287.148 204.701 288.583ZM192.182 257.486C192.914 257.489 193.623 257.745 194.189 258.209C194.756 258.674 195.145 259.32 195.291 260.037L198.561 277.181C199.996 285.155 212.435 282.842 210.84 274.869L207.571 257.885C208.209 246.242 226.788 266.974 231.971 263.785C237.233 262.589 238.27 254.854 233.486 252.383L227.426 248.874C224.954 247.518 225.672 243.452 228.463 242.973L235.958 241.538C237.574 241.229 239.002 240.291 239.928 238.931C240.855 237.571 241.205 235.899 240.902 234.282C238.35 222.321 219.292 236.435 214.668 230.773C214.353 230.217 214.207 229.581 214.25 228.944C214.292 228.306 214.52 227.694 214.907 227.186L226.15 213.152C231.253 206.932 221.366 198.958 216.422 205.337L205.498 218.973C203.903 221.045 200.315 220.169 199.916 217.617C197.923 212.354 198.96 193.377 189.311 195.529C179.663 197.683 187.557 214.188 187.637 219.77C187.745 220.366 187.682 220.98 187.453 221.542C187.225 222.103 186.842 222.588 186.348 222.939C185.855 223.29 185.271 223.494 184.666 223.526C184.061 223.557 183.46 223.417 182.932 223.119L167.942 214.507C161.005 210.361 154.625 221.365 161.722 225.272L177.35 234.362C177.927 234.666 178.394 235.144 178.684 235.728C178.975 236.312 179.074 236.973 178.968 237.616C178.863 238.26 178.557 238.855 178.095 239.315C177.633 239.775 177.038 240.079 176.394 240.183L159.25 243.452C153.908 244.329 152.313 251.904 156.938 254.775C159.729 257.326 167.064 254.376 170.174 254.137C170.812 254.014 171.473 254.089 172.067 254.352C172.662 254.615 173.162 255.054 173.5 255.609C173.838 256.164 173.999 256.81 173.96 257.458C173.922 258.107 173.685 258.729 173.284 259.24L169.058 264.502C163.955 270.722 173.842 278.696 178.786 272.317C180.46 271.041 189.71 256.688 192.182 257.486Z" fill="#D13535"/>
<path d="M632.173 760.154C631.07 758.133 630.648 755.809 630.98 753.535C630.895 750.344 615.03 734.952 613.274 736.95C609.132 741.013 610.404 746.917 610.961 752.1C606.976 756.242 607.776 763.339 612.239 766.851C582.258 778.49 613.916 788.536 602.271 794.676C593.261 794.439 587.121 805.121 593.897 811.982C594.28 812.41 594.55 812.922 594.674 813.485C594.797 814.042 594.781 814.621 594.617 815.173C592.625 818.28 588.078 815.967 585.286 818.122C583.153 819.445 581.577 821.516 580.874 823.924C580.165 826.339 580.373 828.928 581.459 831.196C575.561 829.682 569.263 834.544 569.342 840.685C565.673 841.084 562.403 844.275 561.447 847.781C560.49 851.293 583.215 856.955 585.207 854.642C587.841 849.774 594.375 849.937 597.566 845.311C600.302 842.221 601.979 838.338 602.35 834.229C611.045 830.16 615.987 820.036 614.315 810.626C623.162 804.806 627.231 793.083 623.72 783.116C631.058 778.332 635.285 768.601 632.173 760.154Z" fill="#CE9C5C"/>
<path d="M548.609 540.873C548.609 540.873 540.556 586.88 579.309 716.295C580.024 718.766 572.612 727.219 570.136 727.377L565.594 742.049L554.749 772.907L423.102 760.233L432.112 786.544L398.224 789.414C398.224 789.414 389.533 799.46 375.897 799.702C362.262 799.938 355.245 792.841 348.946 782.081C342.647 771.314 251.028 689.585 251.028 689.585C243.932 660.64 244.091 652.266 236.915 626.591C236.915 626.591 255.813 614.789 247.52 567.902C244.49 550.761 211.479 531.065 208.369 521.178C198.96 490.958 188.833 474.611 186.042 466.478C185.96 466.237 185.956 465.977 186.032 465.735C186.107 465.492 186.259 465.28 186.463 465.129C186.667 464.978 186.914 464.896 187.169 464.895C187.422 464.893 187.671 464.973 187.876 465.122L309.636 554.03C309.919 554.236 310.153 554.503 310.323 554.81C310.492 555.117 310.591 555.458 310.614 555.808C310.637 556.158 310.582 556.508 310.455 556.835C310.327 557.162 310.129 557.456 309.875 557.698C308.28 559.293 304.691 561.366 296.957 563.04C282.126 566.31 299.19 576.035 305.011 577.633C310.832 579.226 330.925 573.328 332.042 566.709C333.158 560.09 548.609 540.873 548.609 540.873Z" fill="#CE9C5C"/>
<path d="M599.558 710.475C566.629 606.02 560.41 546.933 559.533 536.089C559.452 535.112 559.084 534.181 558.473 533.414C557.863 532.648 557.038 532.08 556.104 531.783C554.898 531.38 553.581 531.465 552.437 532.022C510.096 538.88 467.277 541.909 429.401 544.541C384.668 547.73 345.756 550.441 320.639 558.734C306.366 542.787 283.163 527.078 258.763 510.652C234.363 494.226 208.289 476.604 194.175 459.7C193.528 458.893 192.7 458.249 191.758 457.819C190.817 457.39 189.787 457.187 188.753 457.228C182.135 457.468 174.719 467.116 173.284 469.029C172.572 470.021 172.258 471.245 172.407 472.458C172.541 473.386 172.959 474.249 173.603 474.93C173.609 475.522 173.69 476.111 173.842 476.684C175.676 481.947 179.424 493.11 184.527 508.738C184.844 509.812 185.553 510.728 186.512 511.304C187.472 511.88 188.614 512.074 189.71 511.848C190.304 511.722 190.864 511.472 191.355 511.115C191.845 510.757 192.255 510.3 192.556 509.772C192.857 509.245 193.044 508.661 193.103 508.056C193.162 507.452 193.093 506.842 192.899 506.267C190.268 498.054 187.956 491.117 186.122 485.535L196.567 493.429C208.369 502.2 224.715 514.161 245.208 528.833C263.866 542.228 282.684 555.545 296.16 565.032C293.556 566.174 290.826 567.007 288.026 567.508C280.452 569.179 278.777 572.928 278.697 575.719C278.684 576.119 278.711 576.518 278.777 576.912V577.233H278.857V577.79C278.903 577.83 278.932 577.892 278.937 577.954L332.919 775.462C309.077 751.537 257.407 705.292 246.882 695.882C241.778 674.833 236.516 654.657 230.456 632.489C230.159 631.425 229.488 630.496 228.566 629.883C227.644 629.269 226.532 629.005 225.433 629.14C224.831 629.252 224.259 629.489 223.751 629.832C223.244 630.175 222.813 630.614 222.483 631.132C222.155 631.65 221.935 632.224 221.839 632.832C221.743 633.434 221.772 634.053 221.924 634.644C227.745 655.856 232.848 675.312 237.792 695.404C238.583 698.809 240.424 701.876 243.054 704.178C279.654 736.865 332.839 785.665 337.065 792.925C343.045 803.286 350.86 812.781 367.126 812.781H367.844C380.203 812.539 388.974 805.363 392.164 802.33L441.442 798.109C442.018 798.058 442.58 797.895 443.093 797.625C443.606 797.355 444.061 796.989 444.432 796.544C444.802 796.099 445.081 795.587 445.252 795.036C445.423 794.479 445.483 793.899 445.428 793.319C445.307 792.166 444.74 791.102 443.846 790.359C442.953 789.61 441.804 789.245 440.644 789.335L394.237 793.319L330.048 577.554C333.477 576.755 339.138 575.719 346.474 574.684L439.368 563.76C472.141 560.329 506.906 556.98 535.692 554.349C535.053 567.266 535.293 602.75 551.4 660.797C556.184 679.932 562.085 699.63 569.263 720.122C569.516 720.853 569.961 721.506 570.546 722.007C571.137 722.514 571.846 722.851 572.612 722.992C573.428 723.651 574.435 724.011 575.482 724.028C576.022 724.028 576.557 723.949 577.075 723.791C578.15 723.364 579.016 722.531 579.478 721.467C579.939 720.409 579.967 719.21 579.545 718.129C570.856 695.167 564.316 674.592 559.294 656.256C550.283 619.494 545.659 584.73 544.941 549.883C546.137 549.135 547.282 548.309 548.37 547.412C549.247 546.773 550.363 545.976 551.559 544.939C554.111 566.63 562.882 623.478 591.19 713.188C591.342 713.768 591.612 714.314 591.983 714.786C592.355 715.259 592.816 715.653 593.345 715.94C593.874 716.227 594.46 716.396 595.056 716.452C595.658 716.503 596.26 716.43 596.829 716.238C597.403 716.047 597.926 715.738 598.371 715.332C598.821 714.933 599.176 714.438 599.429 713.892C599.677 713.346 599.806 712.749 599.817 712.147C599.829 711.545 599.71 710.948 599.48 710.397L599.558 710.475ZM430.039 553.312C452.445 551.717 476.686 550.043 501.484 547.491L438.013 555.146L432.272 555.704C400.935 558.973 375.818 561.923 357.797 564.317L346.554 565.91L327.816 568.065L326.46 566.067C350.621 558.893 387.698 556.262 430.039 553.312ZM188.354 466.318C203.345 483.86 229.021 501.164 253.819 517.909C276.704 533.298 300.226 549.165 313.862 564.396C313.93 564.857 314.037 565.307 314.181 565.752C314.202 565.87 314.258 565.983 314.34 566.067L310.353 564.396L306.127 561.366C305.645 560.523 304.993 559.79 304.213 559.212L183.172 470.863C184.69 469.125 186.433 467.596 188.354 466.318ZM385.944 796.274C383.632 798.503 377.014 803.928 367.764 804.086C357.239 804.249 351.577 799.544 346.315 791.248C346.3 790.978 346.246 790.708 346.155 790.449L290.977 588.714C292.555 589.457 294.179 590.099 295.841 590.628C302.06 592.384 315.217 588.557 321.995 584.33L322.792 583.773L385.944 796.195V796.274Z" fill="#452D34"/>
<path d="M482.665 618.695L477.243 619.494L474.532 619.893H474.293C474.691 619.893 474.053 619.972 473.974 619.972L472.458 620.13C468.791 620.608 465.123 621.087 461.535 621.407C454.199 622.207 446.863 622.764 439.527 623.163C435.381 623.4 431.155 623.642 427.008 623.72C425.957 623.743 424.955 624.165 424.212 624.914C423.469 625.656 423.042 626.658 423.021 627.705C423.042 628.757 423.469 629.759 424.212 630.502C424.955 631.245 425.957 631.673 427.008 631.695C441.839 631.296 456.75 630.097 471.502 628.268L484.818 626.354C486.891 626.034 488.167 623.4 487.609 621.486C487.051 619.573 484.898 618.379 482.665 618.695Z" fill="white"/>
<path d="M449.893 665.823L411.3 670.843C409.227 671.164 407.154 672.52 407.313 674.833C407.472 677.147 409.067 679.139 411.3 678.818L449.893 673.798C451.966 673.556 454.039 672.121 453.88 669.808C453.72 667.495 452.125 665.502 449.893 665.823Z" fill="white"/>
<path d="M279.095 644.933L263.228 636.716C261.393 635.759 258.842 636.159 257.806 638.151C256.769 640.149 257.247 642.62 259.241 643.655L275.029 651.788C276.942 652.744 279.494 652.345 280.531 650.352C281.567 648.36 281.088 645.968 279.095 644.933Z" fill="white"/>
<path d="M278.219 687.908L262.191 677.541C261.737 677.271 261.233 677.096 260.709 677.017C260.185 676.944 259.651 676.972 259.139 677.107C258.627 677.243 258.147 677.473 257.726 677.794C257.306 678.12 256.953 678.52 256.689 678.976C256.187 679.893 256.056 680.968 256.322 681.976C256.59 682.989 257.235 683.855 258.124 684.401L274.152 694.768C274.603 695.044 275.104 695.23 275.627 695.314C276.15 695.393 276.684 695.37 277.198 695.246C277.712 695.117 278.196 694.892 278.62 694.577C279.046 694.262 279.404 693.862 279.674 693.406C279.944 692.95 280.12 692.449 280.193 691.92C280.267 691.397 280.234 690.862 280.099 690.356C279.963 689.844 279.727 689.36 279.404 688.943C279.081 688.521 278.678 688.172 278.219 687.908Z" fill="white"/>
<path d="M147.847 486.093C136.525 511.529 137.003 540.952 143.382 568.065C145.216 575.798 147.529 583.452 151.196 590.549C162.519 612.475 186.281 626.669 210.84 629.224C214.986 629.618 219.133 629.781 223.2 628.825C229.1 627.547 234.203 624.041 239.147 620.608C242.815 618.137 246.483 615.509 249.194 611.997C251.905 608.491 253.34 604.664 254.456 600.516C258.762 584.009 255.334 566.151 247.36 551.079C239.386 536.009 227.107 523.57 213.551 513.203L192.66 501.403L185.563 478.039C185.563 478.039 172.087 476.285 162.599 481.229C151.276 487.13 147.847 486.093 147.847 486.093Z" fill="#D13535"/>
<path d="M210.442 517.749C204.78 514.958 202.628 523.331 206.694 524.846C225.911 541.351 244.33 561.605 249.353 586.722C249.698 589.795 249.725 592.896 249.433 595.974C249.353 596.453 249.035 597.725 249.433 596.368C248.956 599.452 248.154 602.469 247.041 605.379C246.882 605.699 246.324 606.898 246.961 605.621C240.742 619.173 230.855 626.591 219.053 632.252H219.452C218.654 632.489 218.336 632.652 219.053 632.331C218.034 632.781 216.963 633.102 215.864 633.288H215.306C186.361 634.487 159.011 618.458 147.449 592.142C134.691 560.329 128.551 477.322 176.553 479.475C175.517 476.764 174.161 474.213 173.204 471.501C139.794 473.016 130.146 505.709 130.624 543.823C131.342 707.92 351.099 636.158 210.442 517.749Z" fill="#452D34"/>
<path d="M173.284 528.115C178.068 523.012 163.317 512.805 160.606 507.941C157.017 504.273 151.356 509.935 154.945 513.603C158.532 517.27 167.942 533.457 173.284 528.115Z" fill="#452D34"/>
<path d="M157.018 530.587C153.429 526.919 147.768 532.501 151.436 536.168C155.104 539.837 157.735 546.933 163.078 548.448C173.763 545.737 159.49 535.132 157.018 530.587Z" fill="#452D34"/>
<path d="M146.891 561.605C150.479 564.795 153.749 575.162 159.649 570.772C163.556 565.352 154.785 560.488 152.552 555.943C148.964 552.195 143.143 557.936 146.891 561.605Z" fill="#452D34"/>
<path d="M782.242 633.53C780.408 625.955 769.883 623.72 765.015 629.782C759.517 618.858 751.542 626.512 743.246 626.112C744.845 620.214 739.74 613.753 733.521 613.911C730.015 613.275 727.46 617.58 724.269 616.145C721.798 609.206 720.205 602.43 710.559 604.343C706.889 604.9 705.533 608.812 702.584 610.405C691.581 614.153 700.429 591.506 681.614 596.847C677.545 590.313 674.354 582.175 666.464 579.468C668.856 572.292 661.517 564.717 654.262 566.945C649.079 568.223 646.923 573.485 645.888 578.19C645.274 580.374 645.139 582.664 645.494 584.899C645.848 587.139 646.681 589.277 647.936 591.163C649.197 593.048 650.846 594.641 652.776 595.828C654.707 597.016 656.874 597.775 659.125 598.046C663.83 605.942 668.535 615.667 678.738 617.102C684.006 628.026 697.716 633.766 709.118 629.14C711.223 631.515 713.817 633.395 716.727 634.661C719.631 635.927 722.777 636.547 725.946 636.479C731.287 645.247 742.453 647.724 751.778 645.332C761.509 654.899 784.792 649.238 782.242 633.53Z" fill="#CE9C5C"/>
<path d="M664.309 352.773C674.754 352.294 683.686 358.354 684.8 366.966C685.914 375.578 677.703 384.747 666.301 386.262C663.993 386.516 661.663 386.489 659.362 386.182C659.924 374.86 659.682 363.298 664.309 352.773Z" fill="#D13535"/>
<path d="M789.678 402.313C794.157 394.225 789.644 383.151 779.592 377.578C769.541 372.006 757.756 374.045 753.27 382.134C748.785 390.222 753.304 401.297 763.355 406.869C773.407 412.442 785.192 410.401 789.678 402.313Z" fill="#D13535"/>
<path d="M694.289 390.328C698.673 393.757 712.073 395.751 711.431 387.538C710.796 385.544 708.64 384.029 706.49 384.747C704.335 385.465 704.577 385.385 702.5 385.225L700.271 384.587C698.977 384.072 697.851 383.218 697.001 382.115C695.409 379.723 695.324 378.767 695.409 375.737C695.487 375.338 696.281 372.627 695.887 373.823C696.152 373.196 696.5 372.606 696.923 372.069L697.238 371.67C697.997 370.83 698.825 370.056 699.714 369.357L700.108 369.039L721.162 354.207C722.834 353.011 723.791 350.699 722.597 348.785C721.399 346.872 718.928 346.074 717.093 347.35C703.541 357.716 673.161 371.032 694.289 390.328Z" fill="#452D34"/>
<path d="M769.799 345.995C769.816 344.462 769.377 342.959 768.538 341.677C767.694 340.394 766.496 339.39 765.083 338.792C763.67 338.195 762.111 338.03 760.609 338.319C759.1 338.609 757.716 339.339 756.624 340.418C755.538 341.496 754.789 342.874 754.485 344.377C754.182 345.879 754.328 347.438 754.913 348.856C755.499 350.274 756.489 351.487 757.761 352.34C759.033 353.194 760.536 353.649 762.066 353.649C764.104 353.649 766.057 352.846 767.509 351.412C768.955 349.979 769.782 348.032 769.799 345.995Z" fill="#452D34"/>
<path d="M693.174 344.718C697.446 344.718 700.907 341.255 700.907 336.984C700.907 332.712 697.446 329.249 693.174 329.249C688.903 329.249 685.442 332.712 685.442 336.984C685.442 341.255 688.903 344.718 693.174 344.718Z" fill="#452D34"/>
<path d="M789.019 325.422C783.036 322.632 753.855 315.136 752.578 324.545C752.657 326.538 754.334 328.691 756.562 328.532C761.611 328.029 766.698 328.136 771.713 328.851C776.936 329.669 782.046 331.086 786.942 333.077C791.81 334.592 794.039 326.858 789.019 325.422Z" fill="#452D34"/>
<path d="M675.789 314.418C675.868 316.411 677.545 318.565 679.774 318.405C685.329 317.941 690.912 318.048 696.444 318.724C704.498 321.515 707.925 314.418 701.943 311.628C696.602 311.149 676.268 306.604 675.789 314.418Z" fill="#452D34"/>
<path d="M713.424 413.134C710.739 413.134 708.116 413.93 705.888 415.424C703.653 416.917 701.92 419.038 700.896 421.52C699.871 424.002 699.607 426.731 700.136 429.363C700.665 431.995 701.965 434.41 703.867 436.302C705.775 438.195 708.195 439.48 710.829 439.994C713.463 440.507 716.193 440.228 718.669 439.189C721.145 438.152 723.256 436.401 724.736 434.162C726.216 431.922 726.998 429.294 726.981 426.609C726.981 424.833 726.632 423.074 725.946 421.434C725.265 419.794 724.269 418.305 723.008 417.052C721.747 415.8 720.25 414.809 718.607 414.136C716.964 413.464 715.202 413.123 713.424 413.134Z" fill="#452D34"/>
<path d="M861.817 360.587C852.885 355.244 847.786 367.125 857.354 367.205H857.275C856.954 367.205 857.033 367.205 857.191 367.285C857.354 367.364 856.876 367.285 857.354 367.285H857.511L858.069 367.603C858.547 368.002 859.104 368.72 858.468 367.922C858.795 368.229 859.042 368.613 859.189 369.039L859.425 369.836V370.952C859.346 371.271 859.104 372.228 858.947 372.707C858.789 373.185 857.832 374.7 857.59 375.019H857.511C856.093 376.783 854.455 378.363 852.649 379.723C850.144 381.585 847.443 383.162 844.595 384.428C844.117 384.587 841.168 385.704 839.491 386.102C834.465 387.378 836.62 395.113 841.562 393.757C854.962 391.126 878.082 373.424 861.817 360.587ZM858.947 372.786C858.947 372.866 858.868 372.866 858.868 372.946C858.873 372.884 858.902 372.827 858.947 372.786ZM859.504 370.315C859.504 370.155 859.425 370.075 859.425 369.996C859.476 370.095 859.504 370.204 859.504 370.315Z" fill="#452D34"/>
<path d="M834.949 408.509L832.793 407.871L830.638 406.595C830.007 406.12 829.439 405.556 828.966 404.92C826.254 398.303 818.363 399.738 820.592 406.595C822.044 409.522 824.267 411.997 827.019 413.754C829.777 415.51 832.956 416.481 836.221 416.562C842.361 416.084 840.768 407.791 834.949 408.509Z" fill="#452D34"/>
<path d="M710.159 570.294C724.393 577.752 739.931 582.378 755.926 583.931C761.667 583.931 786.385 587.122 786.385 579.626C786.306 577.633 784.634 575.32 782.4 575.641C755.29 579.468 700.35 570.294 693.332 539.917C693.332 540.076 693.411 540.475 693.411 540.076C693.185 538.625 693.157 537.149 693.332 535.69C693.731 534.734 693.574 530.747 692.139 531.305C707.047 525.564 703.299 496.539 701.943 488.486C722.04 497.496 745.481 495.423 766.214 490.081C769.72 488.805 776.66 488.566 775.461 483.303C775.163 482.302 774.493 481.455 773.587 480.935C772.681 480.416 771.611 480.264 770.598 480.512C669.812 511.69 654.341 422.702 665.822 345.516C668.057 328.931 672.519 307.801 678.26 290.657C667.179 254.217 625.239 453.88 693.253 483.861C694.131 492.872 699.629 514.879 689.662 523.57C682.171 530.029 671.563 531.464 662.153 535.053C627.468 544.461 593.024 554.588 558.337 564.239C554.828 564.954 557.061 573.086 560.49 571.893C593.261 562.804 625.875 553.233 658.725 544.302C661.995 544.621 665.186 541.91 668.456 541.192C668 542.415 667.623 543.667 667.336 544.94C651.313 547.252 639.348 577.076 660.003 579.468C664.865 584.331 668.771 598.761 680.016 597.725C683.522 609.448 698.358 614.468 708.403 607.934C710.182 611.092 712.911 613.613 716.204 615.127C719.496 616.646 723.183 617.085 726.745 616.388C728.974 625.314 741.575 628.347 751.142 625.077C756.247 631.932 768.763 632.41 773.39 624.441C776.102 619.652 768.443 615.909 766.214 620.851C763.98 623.321 759.517 622.607 757.44 620.215C756.005 611.598 747.158 619.573 740.14 618.459H740.297C738.924 618.312 737.624 617.766 736.56 616.888C735.497 616.011 734.72 614.834 734.32 613.512C734.157 613.033 734.236 613.118 734.32 613.275V612.319C734.399 611.84 734.635 611.362 734.399 611.84C734.748 611.024 734.821 610.112 734.596 609.251C734.371 608.396 733.87 607.63 733.161 607.09C732.457 606.55 731.591 606.263 730.702 606.268C729.812 606.28 728.951 606.584 728.259 607.135C727.077 607.923 725.743 608.463 724.353 608.728H724.111C719.406 609.448 715.101 605.858 714.465 601.153C715.422 597.725 709.839 593.183 706.49 599.003C703.62 602.588 697.879 603.944 693.889 602.273C692.172 601.485 690.67 600.286 689.516 598.783C688.362 597.286 687.591 595.525 687.27 593.662C687.912 589.193 682.965 586.087 679.858 589.672C679.695 589.835 679.459 589.75 679.301 589.835H679.38C669.812 587.758 670.606 571.094 656.975 570.058C656.176 564.954 661.117 555.704 665.985 553.552H665.586C666.559 553.212 667.584 553.024 668.614 552.993C678.423 555.226 673.718 540.156 679.937 537.205L679.616 537.445C681.294 536.568 683.365 535.451 685.357 536.089C684.479 551.478 697.08 563.918 710.159 570.294ZM695.088 515.437C695.166 515.198 695.245 514.799 695.088 515.437V515.437ZM765.572 621.487H765.494C765.736 621.329 766.051 621.171 765.572 621.487ZM694.21 602.43L693.889 602.273L694.21 602.43ZM656.654 569.737C656.654 569.76 656.66 569.782 656.677 569.794C656.694 569.81 656.71 569.816 656.733 569.816C656.71 569.816 656.694 569.81 656.677 569.794C656.66 569.782 656.654 569.76 656.654 569.737Z" fill="#452D34"/>
<path d="M343.922 553.871C335.789 549.405 327.417 545.339 319.284 540.953C319.814 538.991 319.786 536.92 319.204 534.973C318.528 532.572 316.996 530.501 314.898 529.152C318.965 518.467 306.844 505.789 294.644 509.935C293.05 503.317 284.518 497.895 276.384 501.004C272.238 502.839 253.898 509.776 256.53 515.916C259.799 520.699 273.036 510.493 276.783 509.217C276.544 509.297 276.464 509.377 276.544 509.377C277.759 508.823 279.049 508.447 280.371 508.26C283.083 508.021 287.149 508.899 286.751 512.327C286.83 512.088 286.751 512.726 286.751 512.806V512.646C282.445 516.234 283.401 523.012 289.86 520.779C292.157 518.984 294.874 517.804 297.754 517.351H297.355C299.11 517.271 301.582 517.351 303.256 518.148L303.655 518.387C303.974 518.467 305.33 519.503 305.17 519.344C308.2 521.497 308.758 526.76 305.489 528.833C301.024 531.464 305.011 538.322 309.476 535.69C310.353 535.132 311.15 536.488 311.549 537.205C311.948 537.923 311.469 536.727 311.549 537.285H311.628C311.622 537.448 311.649 537.611 311.708 537.763V537.843C311.705 538.733 311.486 539.608 311.071 540.395C310.801 540.803 310.561 541.229 310.353 541.67L309.396 543.185C303.176 548.13 307.084 555.146 312.904 551.319C313.808 550.362 314.685 549.326 315.536 548.209C323.589 552.435 331.882 556.502 339.856 560.887C340.779 561.414 341.871 561.56 342.899 561.291C343.927 561.023 344.81 560.363 345.358 559.452C345.631 558.992 345.811 558.482 345.887 557.952C345.963 557.421 345.933 556.882 345.799 556.363C345.666 555.844 345.432 555.358 345.109 554.93C344.787 554.502 344.384 554.142 343.922 553.871Z" fill="#452D34"/>
<path d="M909.66 928.875C908.467 924.727 910.695 913.967 907.825 910.14C935.976 884.065 952.798 839.013 951.442 767.33C951.605 762.225 943.63 762.225 943.467 767.33C943.073 783.673 942.831 800.023 940.76 816.287C917.714 1016.27 679.538 908.305 570.456 843.718C570.535 843.24 570.698 842.761 570.777 842.283C578.667 842.204 584.971 834.545 583.693 826.891C593.103 824.42 598.523 813.096 594.938 804.086C605.383 799.938 609.61 786.386 603.47 777.055C611.36 774.027 617.579 765.017 613.195 756.805C614.72 755.781 616.031 754.464 617.044 752.928C618.058 751.397 618.755 749.675 619.099 747.874C657.211 760.154 755.847 812.697 811.502 813.817C814.451 814.453 818.92 814.053 818.841 810.068C817.884 803.371 807.439 806.641 802.571 804.964C809.11 790.691 817.485 770.037 825.696 759.434C828.167 757.762 828.488 753.136 824.739 752.179C815.093 750.581 799.942 793.404 794.517 803.529C738.941 795.076 672.362 758.24 617.343 738.385C616.757 737.546 616.06 736.792 615.272 736.151C618.699 729.296 613.915 719.644 602.671 717.651C604.027 714.382 604.185 708.877 604.427 704.015C614.709 705.371 606.34 685.758 601.472 683.523C598.286 682.488 595.017 686.551 596.93 689.422C597.656 690.418 598.326 691.459 598.922 692.534C595.174 696.76 596.609 710.076 595.253 716.374C565.273 672.6 515.358 867.958 564.873 849.774L574.047 854.957C575.718 895.304 579.466 936.771 577.317 977.518C594.06 1007.82 582.1 866.123 581.858 859.347C684.957 916.28 826.653 973.612 901.128 915.801C901.606 943.069 905.912 970.258 904.24 997.531C919.948 1021.53 908.945 934.537 909.66 928.875ZM825.617 759.434L825.375 759.591L825.617 759.434ZM575.797 829.84C575.797 830.239 575.797 830.003 575.881 829.761L575.797 829.84ZM610.882 743.248C610.803 743.169 610.724 743.09 610.724 743.005L610.882 743.248ZM563.36 839.891H563.438C563.517 839.97 563.438 839.97 563.36 839.891ZM569.978 834.151C566.072 831.916 561.048 834.944 563.36 839.492C563.36 839.649 563.438 839.807 563.36 839.97C563.168 840.786 562.727 841.523 562.099 842.08C561.471 842.638 560.686 842.987 559.851 843.077H559.772C556.901 842.919 554.988 840.527 553.871 838.135C553.871 838.214 553.792 837.893 553.712 837.814C552.998 835.614 552.516 833.34 552.277 831.038C547.492 812.382 567.029 721.557 586.006 718.13H585.927C586.006 718.209 586.563 718.13 586.406 718.209H586.485C586.563 718.287 586.884 718.287 586.884 718.451C586.884 718.529 586.963 718.529 586.884 718.529L587.199 718.687H586.963C591.111 727.619 597.887 724.748 604.263 726.662C608.49 727.377 610.325 734.395 604.826 734.395C599.879 735.83 601.95 743.405 606.976 742.049C609.047 741.092 611.203 743.09 611.602 745.082C611.523 745.003 611.523 745.003 611.602 744.919C611.681 744.84 611.681 745.718 611.602 745.24C611.681 752.815 602.513 749.23 601.714 755.607C601.742 756.597 602.113 757.548 602.772 758.291C603.425 759.034 604.32 759.524 605.305 759.676C605.305 759.653 605.293 759.631 605.276 759.619C605.265 759.602 605.243 759.591 605.22 759.591C605.625 759.867 605.929 760.255 606.098 760.711V760.469C610.961 771.714 585.607 769.558 594.381 779.047C601.714 784.472 598.444 796.589 589.276 797.631C583.929 797.546 582.973 802.493 587.441 807.198C587.998 808.436 588.257 809.793 588.201 811.149C588.15 812.511 587.779 813.839 587.121 815.027C586.462 816.22 585.533 817.244 584.413 818.015C583.294 818.786 582.01 819.287 580.665 819.478C576.197 818.758 571.492 821.707 574.925 826.333L574.762 826.097C577.553 829.682 574.683 835.107 570.057 834.466H570.135C569.899 834.151 569.342 834.151 569.978 834.151Z" fill="#452D34"/>
<path d="M619.577 399.1C625.441 393.937 630.118 387.564 633.287 380.42C636.45 373.275 638.031 365.529 637.913 357.716C637.677 337.941 642.618 224.156 721.956 193.536C815.329 157.415 834.47 203.982 861.816 214.826C899.057 229.578 912.93 248.157 926.882 279.892C941.554 313.063 931.193 327.735 959.816 407.472C986.448 481.708 929.358 509.456 961.966 554.189C1029.82 647.246 981.265 761.505 945.381 786.865C883.985 830.161 711.752 772.429 771.634 655.778C809.668 581.781 766.85 573.885 767.171 529.87C767.728 460.179 812.701 420.629 854.084 403.725C858.547 401.891 863.73 401.731 867.799 399.02C875.374 394.156 895.466 357.875 878.323 348.467C864.45 340.971 847.865 357.636 841.483 356.52C815.408 352.294 812.78 319.92 790.611 274.789C781.044 255.333 762.066 247.519 747.237 252.064C720.042 260.357 677.624 293.687 674.118 292.491C673.397 292.251 625.076 426.769 694.767 483.462C697.238 499.41 698.037 519.264 698.037 519.264C698.037 519.264 691.339 528.753 691.339 524.846C687.749 525.803 658.41 539.996 657.847 540.395C657.29 540.794 590.39 559.373 590.39 559.373C547.174 500.048 578.273 435.141 619.577 399.1Z" fill="#452D34"/>
<path d="M936.849 408.509C939.083 416.004 940.76 423.653 941.875 431.393C942.196 433.466 944.903 434.822 946.816 434.184C948.73 433.546 949.928 431.552 949.608 429.32C948.465 421.578 946.76 413.929 944.509 406.435C943.946 404.442 941.717 402.927 939.64 403.644C938.633 403.925 937.772 404.592 937.249 405.503C936.725 406.413 936.585 407.493 936.849 408.509Z" fill="white"/>
<path d="M937.327 480.272C935.577 487.05 933.663 493.828 932.065 500.685C930.405 507.06 929.656 513.636 929.836 520.221C930.472 532.74 934.62 544.86 940.76 555.704C944.283 561.836 948.363 567.626 952.956 573.007C953.716 573.665 954.695 574.014 955.697 573.986C956.704 573.952 957.655 573.541 958.376 572.838C959.09 572.134 959.512 571.183 959.557 570.181C959.603 569.174 959.265 568.195 958.618 567.424L955.826 563.996C955.432 563.36 956.147 564.317 955.669 563.76L954.954 562.803L953.597 560.967C951.92 558.575 950.328 556.103 948.814 553.631C947.294 551.159 945.859 548.448 944.587 545.817C944.266 545.179 944.03 544.461 943.709 543.823C943.54 543.519 943.411 543.199 943.31 542.866L943.073 542.467C942.51 541.112 942.032 539.756 941.554 538.321C940.602 535.605 939.803 532.836 939.162 530.029C938.847 528.593 938.605 527.158 938.368 525.802C938.126 524.447 938.205 524.447 938.284 525.005C938.368 525.563 938.205 524.527 938.205 524.367L937.969 522.214C937.743 519.349 937.715 516.472 937.89 513.603L938.126 511.45C938.126 511.051 938.205 510.732 938.205 510.413C938.205 510.094 938.205 510.493 938.205 510.573C938.205 510.653 938.284 510.094 938.284 509.775C938.526 508.181 938.847 506.506 939.24 504.832C940.918 497.336 943.073 489.841 945.065 482.425C945.544 480.352 944.345 477.96 942.274 477.481C941.25 477.231 940.169 477.38 939.246 477.898C938.329 478.417 937.642 479.266 937.327 480.272Z" fill="white"/>
<path d="M959.738 589.835L963.402 601.873C964.043 603.865 966.272 605.379 968.349 604.664C969.362 604.383 970.217 603.713 970.741 602.807C971.264 601.895 971.405 600.815 971.14 599.802L967.471 587.679C967.33 587.173 967.088 586.694 966.762 586.283C966.441 585.867 966.036 585.518 965.574 585.259C965.118 585 964.612 584.837 964.088 584.77C963.565 584.708 963.036 584.747 962.524 584.888C962.017 585.028 961.544 585.27 961.128 585.597C960.711 585.918 960.368 586.323 960.109 586.784C959.85 587.24 959.682 587.747 959.62 588.27C959.552 588.794 959.592 589.323 959.738 589.835Z" fill="white"/>
<path d="M616.386 414.17C606.605 423.333 599.216 434.748 594.859 447.421C594.606 448.445 594.758 449.527 595.276 450.445C595.794 451.364 596.643 452.05 597.645 452.365C598.675 452.616 599.756 452.466 600.673 451.948C601.59 451.429 602.277 450.581 602.592 449.574C603.071 448.139 603.628 446.624 604.185 445.268L604.427 444.63C604.264 445.029 604.264 445.108 604.427 444.63C604.607 444.362 604.742 444.065 604.827 443.753C605.119 443.039 605.468 442.346 605.862 441.68C607.196 438.832 608.744 436.087 610.488 433.467C611.282 432.191 612.16 430.915 613.117 429.639C613.347 429.361 613.561 429.068 613.753 428.763L614.073 428.364L615.508 426.609C617.546 424.216 619.729 421.952 622.048 419.832C622.797 419.081 623.219 418.063 623.219 417.001C623.219 415.939 622.797 414.921 622.048 414.17C621.3 413.42 620.281 412.998 619.217 412.998C618.154 412.998 617.135 413.42 616.386 414.17Z" fill="white"/>
<path d="M586.327 467.514C582.528 471.525 580.389 476.824 580.344 482.346C580.344 483.403 580.766 484.417 581.515 485.165C582.258 485.913 583.277 486.332 584.329 486.332C585.381 486.312 586.383 485.886 587.126 485.142C587.869 484.399 588.297 483.397 588.319 482.346C588.291 481.624 588.347 480.902 588.477 480.193L588.319 481.229C588.511 479.667 588.91 478.138 589.512 476.684L589.118 477.641C589.709 476.218 590.492 474.878 591.426 473.654L590.79 474.452L591.989 473.096C593.339 471.581 593.581 468.95 591.989 467.514C590.39 466.079 587.841 465.84 586.327 467.514Z" fill="white"/>
<path d="M745.245 230.934C739.555 232.863 734.377 236.051 730.094 240.263C729.379 241.017 728.985 242.016 728.985 243.054C728.985 244.091 729.379 245.09 730.094 245.845C730.46 246.218 730.904 246.515 731.388 246.717C731.872 246.92 732.396 247.024 732.925 247.024C733.448 247.024 733.972 246.92 734.456 246.717C734.94 246.515 735.384 246.218 735.756 245.845C736.549 245.047 737.427 244.33 738.305 243.612C739.183 242.894 739.42 242.814 738.384 243.532C738.536 243.356 738.727 243.219 738.941 243.134L740.297 242.177C742.149 240.912 744.125 239.843 746.201 238.987L745.245 239.386L747.316 238.588C749.308 237.871 750.822 235.798 750.107 233.724C749.387 231.651 747.316 230.136 745.245 230.934Z" fill="white"/>
<path d="M784.713 250.788C786.818 251.753 788.822 252.929 790.69 254.296C791.489 254.854 790.054 253.738 790.769 254.376L791.489 254.934C791.9 255.237 792.272 255.585 792.604 255.97C793.482 256.768 794.36 257.565 795.159 258.443L797.309 260.994C797.95 261.791 796.83 260.356 797.472 261.154L797.95 261.871C798.322 262.357 798.665 262.863 798.986 263.386C800.331 265.33 801.552 267.353 802.655 269.446C803.77 271.519 804.726 273.673 805.683 275.825C805.762 275.985 806.162 276.942 805.762 275.985L806.162 276.862L806.719 278.377C807.276 279.653 807.754 280.929 808.233 282.204C810.067 287.148 811.823 292.092 813.816 296.956C816.084 302.673 819.055 308.084 822.668 313.063C823.862 314.657 826.096 315.694 828.088 314.498C830.08 313.302 830.88 310.75 829.523 308.996C826.366 304.704 823.743 300.045 821.712 295.122L821.233 294.165C821.633 295.042 821.154 294.005 821.154 293.846C820.907 293.356 820.693 292.85 820.513 292.331L818.92 288.264C818.042 285.792 817.085 283.241 816.129 280.769C812.538 271.2 808.475 261.791 801.777 253.977C798.249 249.699 793.808 246.265 788.777 243.93C786.863 243.053 784.393 243.292 783.357 245.366C782.321 247.439 782.715 249.911 784.713 250.788Z" fill="white"/>
<path d="M831.679 330.446C833.553 332.322 835.737 333.859 838.134 334.991C840.796 336.266 843.655 337.076 846.588 337.383C847.37 337.372 848.13 337.132 848.777 336.693C849.418 336.255 849.919 335.637 850.218 334.914C850.516 334.193 850.595 333.4 850.448 332.634C850.296 331.868 849.925 331.163 849.379 330.606C848.619 329.893 847.629 329.47 846.588 329.409H846.188L847.224 329.569C845.389 329.326 843.593 328.843 841.882 328.133L842.839 328.532C841.213 327.832 839.688 326.92 838.297 325.821L839.091 326.459L837.256 324.944C836.902 324.563 836.468 324.258 835.99 324.051C835.506 323.843 834.994 323.736 834.47 323.736C833.947 323.736 833.429 323.843 832.945 324.051C832.467 324.258 832.034 324.563 831.679 324.944C831.308 325.308 831.009 325.742 830.812 326.222C830.61 326.7 830.503 327.215 830.503 327.735C830.503 328.255 830.61 328.769 830.812 329.249C831.009 329.728 831.308 330.162 831.679 330.526V330.446Z" fill="white"/>
<path d="M829.045 763.182L824.74 761.668L824.261 761.426H824.419L823.383 760.948L821.312 759.991C818.611 758.651 815.999 757.132 813.495 755.449L811.666 754.093L810.703 753.451C810.625 753.294 810.388 753.136 810.309 753.057C810.225 752.973 810.788 753.536 810.388 753.215L806.798 750.187C804.552 748.15 802.425 745.994 800.421 743.726L799.065 742.049L798.344 741.176L797.95 740.698C797.551 740.135 798.266 741.177 798.029 740.777L795.316 737.029C793.634 734.524 792.114 731.913 790.769 729.211C790.054 727.861 789.418 726.42 788.777 725.069L788.619 724.67C788.54 724.428 788.377 724.113 788.298 723.792C788.22 723.471 787.662 722.278 787.42 721.479C786.396 718.642 785.569 715.738 784.95 712.789C784.578 711.14 784.258 709.463 783.993 707.763C783.914 707.206 784.072 708.562 784.072 708.005C784.072 707.442 783.993 707.527 783.914 707.285C783.835 707.048 783.835 706.407 783.835 706.007L783.593 703.458C783.436 700.002 783.515 696.535 783.835 693.091C783.993 691.02 781.843 689.028 779.845 689.107C777.853 689.185 776.103 690.862 775.861 693.091C774.504 706.092 777.296 719.244 782.8 731.046C788.372 742.927 796.881 753.187 807.518 760.869C813.422 765.169 819.961 768.534 826.895 770.836C827.402 770.977 827.931 771.016 828.454 770.954C828.977 770.892 829.484 770.723 829.945 770.465C830.401 770.206 830.806 769.857 831.133 769.446C831.454 769.029 831.696 768.551 831.836 768.044C831.977 767.538 832.017 767.009 831.955 766.486C831.893 765.962 831.724 765.456 831.465 764.994C831.206 764.538 830.857 764.133 830.446 763.807C830.03 763.486 829.551 763.244 829.045 763.103V763.182Z" fill="white"/>
<path d="M785.749 647.961C785.749 648.281 785.67 648.597 785.67 648.917C785.67 649.238 785.749 648.203 785.67 648.681C785.682 648.844 785.653 649.007 785.586 649.159C785.513 649.745 785.406 650.336 785.271 650.91C784.972 652.131 784.595 653.33 784.151 654.5C784.072 654.821 783.914 655.136 783.836 655.457C783.757 655.778 784.235 654.658 783.836 655.457L782.958 657.292C782.322 658.406 781.68 659.442 780.965 660.477C780.436 661.4 780.29 662.498 780.56 663.522C780.83 664.552 781.489 665.436 782.4 665.981C783.329 666.488 784.41 666.623 785.434 666.359C786.458 666.088 787.342 665.441 787.899 664.546C791.203 659.594 793.201 653.893 793.724 647.961C793.718 646.897 793.319 645.878 792.604 645.09C791.827 644.364 790.797 643.965 789.734 643.976C787.421 644.055 785.985 645.726 785.749 647.961Z" fill="white"/>
<path d="M902.243 212.434C901.933 211.182 901.365 210.007 900.582 208.979C899.806 207.952 898.821 207.092 897.701 206.454C895.382 205.127 892.636 204.755 890.047 205.417C883.963 207.152 877.975 209.202 872.105 211.557C872.426 210.202 872.662 208.846 872.904 207.49C874.176 200.952 875.375 194.493 876.652 188.034C877.311 185.445 876.939 182.699 875.611 180.38C874.317 178.135 872.2 176.477 869.713 175.755C868.058 175.409 866.353 175.382 864.687 175.675C861.822 169.516 858.378 163.642 854.405 158.133C852.806 155.98 851.056 154.305 848.422 153.588C847.15 153.226 845.811 153.124 844.5 153.289C843.183 153.453 841.916 153.88 840.768 154.544C838.534 155.891 836.885 158.024 836.142 160.525C835.585 162.997 835.585 166.106 837.178 168.18C841.489 174.195 845.175 180.634 848.186 187.396C850.325 192.718 852.007 198.213 853.206 203.822C853.285 203.902 853.285 203.982 853.285 204.141C852.092 210.441 850.893 216.82 849.779 223.199C849.058 222.002 848.344 220.806 847.708 219.61C846.351 217.401 844.218 215.78 841.725 215.065C839.333 214.428 836.142 214.667 834.071 216.022C831.994 217.378 830.002 219.451 829.445 222.002C828.775 224.591 829.146 227.34 830.48 229.658L843.16 251.346C840.926 249.034 838.613 246.721 836.142 244.568C822.027 231.749 805.295 222.145 787.105 216.421C769.315 211.079 750.512 210.04 732.244 213.391C730.651 211.796 729.137 210.122 727.618 208.447C733.043 203.025 738.542 197.683 744.046 192.42C745.914 190.558 746.972 188.039 746.995 185.403C746.972 182.743 745.914 180.197 744.046 178.306C742.211 176.632 739.662 175.276 737.028 175.436C734.411 175.465 731.901 176.491 730.01 178.306L716.379 191.463C714.865 188.513 713.424 185.403 712.073 182.293L707.526 171.05L709.119 166.984C712.242 159.848 716.064 153.037 720.521 146.651C721.956 144.657 722.119 141.308 721.478 138.996C720.785 136.493 719.159 134.352 716.936 133.016C714.623 131.819 711.831 131.181 709.282 131.979C706.811 132.778 704.695 134.414 703.299 136.603C701.465 139.235 699.793 141.866 698.195 144.657C697.958 144.019 697.801 143.461 697.638 142.903C696.366 138.996 695.167 135.009 693.968 131.102C693.208 128.634 691.599 126.515 689.426 125.121C687.068 123.817 684.294 123.474 681.693 124.165C679.302 124.962 676.988 126.397 675.79 128.71C675.114 129.866 674.675 131.145 674.495 132.473C674.321 133.801 674.405 135.15 674.754 136.444C678.581 149.362 682.915 162.12 687.749 174.718L688.312 176.233C685.864 175.436 683.472 174.559 681.131 173.602L678.024 172.167C675.632 171.05 673.077 170.412 670.37 171.21C667.877 171.924 665.744 173.545 664.387 175.755C663.723 176.916 663.296 178.197 663.127 179.525C662.964 180.853 663.065 182.201 663.431 183.49C664.151 185.802 665.665 188.273 667.978 189.39C677.473 194.008 687.563 197.282 697.958 199.118C700.097 203.63 702.579 207.975 705.376 212.115C707.126 214.667 708.961 217.139 710.953 219.531C708.246 220.567 705.691 221.684 703.063 222.88C694.131 227.085 685.723 232.331 678.024 238.508C676.189 239.864 674.433 241.379 672.762 242.814C670.905 244.714 669.847 247.255 669.813 249.911C669.83 252.548 670.888 255.071 672.751 256.936C674.619 258.8 677.141 259.857 679.78 259.878C682.414 259.752 684.924 258.709 686.877 256.928C688.312 255.652 689.826 254.376 691.419 253.18C698.831 247.537 706.884 242.799 715.422 239.066C723.56 235.727 732.075 233.398 740.776 232.129C749.224 231.093 757.767 231.093 766.214 232.129C774.775 233.419 783.155 235.721 791.169 238.986C800.055 242.873 808.441 247.826 816.129 253.738C823.862 259.834 830.846 266.819 836.941 274.55C842.845 282.463 847.972 290.928 852.249 299.827C853.285 302.059 854.32 304.372 855.277 306.684C859.667 317.384 863.263 328.391 866.043 339.615C866.376 340.88 866.955 342.066 867.754 343.103C868.554 344.14 869.544 345.007 870.681 345.653C871.818 346.3 873.073 346.712 874.373 346.867C875.673 347.021 876.99 346.914 878.245 346.553C880.766 345.826 882.911 344.147 884.216 341.871C885.528 339.595 885.899 336.899 885.263 334.353C880.958 317.209 875.054 300.385 866.843 284.676C865.008 281.088 862.937 277.5 860.781 274.071C863.016 261.154 865.329 248.236 867.721 235.319C870.591 233.884 873.461 232.528 876.41 231.252C882.578 228.691 888.887 226.481 895.309 224.634C897.813 223.942 899.952 222.315 901.286 220.089C901.956 218.942 902.378 217.674 902.547 216.359C902.71 215.043 902.608 213.709 902.243 212.434Z" fill="#EFDCC4"/>
<path d="M546.935 822.827C546.855 825.298 493.909 828.404 458.745 797.709C445.349 785.986 430.438 774.905 423.581 758.477C416.723 742.049 417.68 721.4 429.561 708.163C444.073 692.134 468.951 691.419 490.321 694.605C507.178 697.194 523.737 701.443 539.758 707.285L540.555 707.527C552.197 710.797 576.754 715.496 575.161 717.809C543.665 765.332 547.971 792.284 546.935 822.827Z" fill="#D13535"/>
<path d="M571.177 723.549C536.648 712.71 501.803 698.117 464.964 699.709C407.872 701.865 401.333 764.696 439.448 797.709C466.16 821.707 501.484 840.206 538.322 838.135C542.548 837.336 551.878 838.85 550.762 832.153C549.087 827.768 544.941 829.682 542.07 829.839C534.452 830.588 526.773 830.453 519.185 829.446C511.052 828.404 499.41 825.14 490.719 821.392C471.343 813.017 448.777 798.587 436.099 782.238C432.461 777.595 429.433 772.502 427.089 767.088C426.211 765.652 423.58 755.848 423.66 754.408C423.102 749.962 423.102 745.465 423.66 741.013C423.819 739.578 425.175 733.438 426.451 730.731C427.682 728.018 429.207 725.452 430.996 723.071C436.258 715.181 450.292 709.041 459.86 708.163C469.429 707.285 480.433 707.605 486.972 708.562C506.747 710.954 525.724 717.094 544.702 723.234C549.964 724.827 555.227 726.662 560.49 728.418C565.751 730.168 571.655 734.473 573.963 728.497C574.216 727.472 574.07 726.392 573.546 725.469C573.028 724.551 572.178 723.865 571.177 723.549Z" fill="#452D34"/>
<path d="M543.027 754.97C537.685 754.571 519.744 745.082 518.229 752.1C516.714 759.113 536.01 760.154 540.874 762.625C545.738 765.095 547.971 756.327 543.027 754.97Z" fill="#452D34"/>
<path d="M536.01 776.74C530.987 776.74 521.896 770.915 519.265 777.134C518.468 784.394 529.232 782.48 533.857 784.473C538.482 786.465 540.954 778.012 536.01 776.74Z" fill="#452D34"/>
<path d="M532.501 805.206C527.558 803.45 510.892 794.361 508.341 801.615C507.942 803.529 508.979 806.078 511.131 806.478C515.9 807.395 520.572 808.757 525.086 810.547C532.342 815.567 537.605 809.59 532.501 805.206Z" fill="#452D34"/>
</svg>
