<svg width="1126" height="1127" viewBox="0 0 1126 1127" fill="none" xmlns="http://www.w3.org/2000/svg">
<path d="M574.847 161.484C598.338 154.659 612.521 132.384 606.521 111.73C600.516 91.0761 576.609 79.8658 553.12 86.6903C529.628 93.5153 515.449 115.791 521.449 136.445C527.45 157.098 551.357 168.309 574.847 161.484Z" fill="#EFDCC4"/>
<path d="M555.74 158.684C548.51 158.699 541.366 157.127 534.811 154.078C523.772 148.864 515.915 139.924 512.732 128.884C509.549 117.844 511.378 106.128 517.948 95.8328C524.517 85.5381 534.744 78.0884 546.935 74.5664C559.193 70.9769 571.926 71.8571 582.828 77.0044C593.735 82.1518 601.726 91.1594 604.979 102.199C608.227 113.239 606.33 124.955 599.762 135.25C593.194 145.545 582.968 152.994 570.705 156.516C565.854 157.97 560.808 158.7 555.74 158.684ZM561.903 79.8494C557.549 79.8578 553.218 80.4735 549.034 81.6779C538.537 84.7255 529.732 91.1594 524.246 99.8287C518.76 108.498 517.27 117.912 519.844 126.852C522.417 135.792 528.919 143.107 537.995 147.373C547.07 151.64 558.178 152.453 568.673 149.405C579.175 146.357 587.977 139.924 593.464 131.254C598.952 122.585 600.37 113.171 597.798 104.231C595.226 95.2909 588.788 87.9762 579.648 83.7096C574.087 81.1331 568.032 79.815 561.903 79.8494Z" fill="#452D34"/>
<path d="M407.146 126.242C413.172 122.777 419.391 119.656 425.77 116.895C436.441 112.436 447.537 109.077 458.889 106.871C463.088 105.788 461.327 99.2183 457.06 100.37C438.285 104.057 420.251 110.831 403.691 120.417C399.899 122.584 403.353 128.476 407.146 126.242Z" fill="#452D34"/>
<path d="M436.607 160.512C443.454 156.14 450.659 152.357 458.144 149.201C464.862 146.364 471.792 144.054 478.869 142.294C479.728 142.056 480.459 141.488 480.903 140.715C481.347 139.941 481.468 139.024 481.239 138.162C478.53 129.561 438.842 150.827 433.153 154.62C429.428 156.855 432.815 162.747 436.607 160.512Z" fill="#452D34"/>
<path d="M477.108 185.978C479.667 183.137 482.452 180.509 485.439 178.121C489.381 175.173 493.654 172.696 498.171 170.739C501.441 169.415 504.816 168.373 508.263 167.624C512.53 166.54 510.701 159.903 506.502 161.054C496.126 163.334 486.486 168.177 478.463 175.141C475.957 177.986 468.981 181.711 472.368 185.978C473.654 187.197 475.889 187.4 477.108 185.978Z" fill="#452D34"/>
<path d="M935.241 294.032C957.285 283.423 967.59 259.113 958.265 239.733C948.939 220.352 923.506 213.241 901.461 223.85C879.422 234.459 869.112 258.769 878.437 278.149C887.768 297.529 913.196 304.64 935.241 294.032Z" fill="#EFDCC4"/>
<path d="M909.076 294.342C892.344 294.342 877.036 286.011 869.995 271.382C859.837 250.184 870.941 223.567 894.781 212.121C918.688 200.675 946.389 208.599 956.548 229.798C966.712 250.996 955.67 277.613 931.762 289.059C924.699 292.515 916.938 294.321 909.076 294.342ZM898.034 218.826C877.852 228.511 868.301 250.658 876.698 268.199C882.455 280.119 895.124 286.892 909.008 286.892C915.784 286.845 922.47 285.295 928.577 282.354C948.697 272.669 958.242 250.522 949.845 233.049C941.448 215.575 918.216 209.141 898.034 218.826Z" fill="#452D34"/>
<path d="M1031.86 150.827C1013.13 154.71 995.178 161.716 978.767 171.552C974.974 173.719 978.424 179.611 982.217 177.376C988.824 173.395 995.707 169.888 1002.81 166.878C1012.78 162.73 1023.12 159.533 1033.69 157.329C1037.89 156.245 1036.13 149.676 1031.86 150.827Z" fill="#452D34"/>
<path d="M1032.75 196.002C1016.96 198.675 1001.69 203.817 987.502 211.24C986.731 211.705 986.168 212.455 985.937 213.328C985.712 214.202 985.836 215.129 986.28 215.913C989.196 220.586 998.268 212.459 1001.59 212.053C1012.17 207.594 1023.25 204.388 1034.57 202.503C1038.77 201.42 1037.01 194.85 1032.75 196.002Z" fill="#452D34"/>
<path d="M1021.36 241.852C1007.88 240.236 994.227 242.99 982.419 249.709C978.632 251.876 982.082 257.768 985.875 255.601C987.822 254.465 989.837 253.447 991.902 252.553C1001.19 248.612 1011.37 247.254 1021.36 248.625C1025.7 248.693 1025.7 241.92 1021.36 241.852Z" fill="#452D34"/>
<path d="M652.93 445.983C643.244 446.119 641.888 435.892 640.74 428.51L635.185 435.485C626.991 445.713 610.872 434.47 617.642 423.295C602.402 425.665 596.988 402.096 620.76 400.944C613.241 397.22 604.777 391.869 609.786 382.252C615.948 372.77 624.824 378.121 632.067 382.794C630.035 374.531 628.004 364.101 638.911 361.595C649.812 359.089 651.911 370.535 653.065 378.933L658.687 371.889C667.489 361.053 684.013 374.328 675.346 385.3L670.405 391.463C689.635 384.69 695.866 406.092 681.103 411.171C691.735 419.028 680.833 435.689 669.454 429.052L661.8 424.649C664.169 433.996 665.728 444.764 652.93 445.983ZM642.293 419.57C642.918 419.572 643.52 419.79 643.998 420.184C644.482 420.579 644.814 421.127 644.938 421.737L647.713 436.298C648.934 443.003 659.565 441.039 658.141 434.334L655.367 419.84C655.907 409.952 671.688 427.561 676.157 424.92C680.631 423.904 681.441 417.335 677.445 415.167L672.296 412.255C670.129 411.103 670.742 407.65 673.112 407.243L679.477 406.024C680.164 405.902 680.816 405.645 681.402 405.268C681.993 404.892 682.499 404.403 682.893 403.83C683.293 403.257 683.569 402.612 683.715 401.931C683.861 401.249 683.872 400.546 683.743 399.861C681.509 389.702 665.323 401.689 661.394 396.881C661.124 396.409 661 395.868 661.04 395.326C661.074 394.785 661.271 394.266 661.597 393.833L671.148 381.913C675.481 376.63 667.152 369.858 662.886 375.276L653.605 386.857C652.316 388.618 649.204 387.873 648.866 385.638C647.172 381.168 648.118 365.117 639.924 366.878C631.729 368.639 638.365 382.794 638.432 387.535C638.528 388.041 638.472 388.563 638.28 389.039C638.083 389.516 637.762 389.928 637.34 390.226C636.924 390.525 636.423 390.697 635.911 390.724C635.399 390.752 634.887 390.632 634.436 390.379L621.706 383.065C615.813 379.543 610.394 388.889 616.421 392.207L629.765 399.928C630.243 400.201 630.621 400.614 630.851 401.111C631.082 401.609 631.155 402.166 631.054 402.705C630.941 403.239 630.682 403.73 630.294 404.115C629.911 404.501 629.422 404.764 628.887 404.873L614.322 407.65C609.853 408.395 608.429 414.829 612.358 417.267C614.733 419.366 620.963 416.928 623.67 416.657C626.377 416.386 627.868 419.163 626.242 420.992L622.657 425.53C618.318 430.813 626.72 437.585 630.986 432.099C632.337 431.083 640.261 418.893 642.293 419.57Z" fill="#D13535"/>
<path d="M793.939 177.647C784.253 177.715 782.897 167.488 781.748 160.105L776.194 167.149C767.999 177.376 751.881 166.065 758.651 154.958C743.411 157.329 737.997 133.692 761.764 132.608C754.25 128.816 745.713 123.533 750.795 113.915C755.877 104.298 765.968 109.784 773.008 114.389C771.044 106.127 768.945 95.7647 779.919 93.2586C790.888 90.7524 792.92 102.131 794.074 110.529C797.321 106.872 801.182 99.6925 806.872 99.6249C816.017 98.2703 822.382 109.92 816.355 116.896L811.408 123.126C830.442 116.354 837.01 137.62 822.112 142.835C832.744 150.691 821.842 167.284 810.395 160.647L802.808 156.245C805.11 165.659 806.737 176.428 793.939 177.647ZM783.302 151.165C783.938 151.172 784.546 151.398 785.03 151.806C785.508 152.214 785.834 152.778 785.947 153.4L788.722 167.894C789.943 174.667 800.574 172.703 799.15 165.93L796.376 151.504C796.286 150.998 796.336 150.476 796.533 149.999C796.725 149.523 797.051 149.111 797.467 148.812C797.889 148.514 798.385 148.341 798.897 148.314C799.409 148.287 799.921 148.407 800.371 148.66L813.102 156.042C818.994 159.496 824.414 150.217 818.387 146.831C816.76 145.544 811.273 143.919 811.954 141.074C812.629 138.229 818.589 138.365 820.486 137.687C825.022 136.943 826.378 130.508 822.45 128.07C818.522 125.632 805.245 132.541 802.403 128.544C802.139 128.06 802.015 127.509 802.054 126.957C802.088 126.406 802.279 125.875 802.606 125.429L812.156 113.577C815.134 110.123 811.954 104.298 807.412 104.975C803.962 104.637 796.781 116.557 794.614 118.453C794.293 118.847 793.86 119.141 793.381 119.302C792.897 119.464 792.38 119.485 791.884 119.365C791.389 119.245 790.939 118.987 790.579 118.623C790.224 118.257 789.982 117.8 789.875 117.302L787.095 102.741C785.879 96.0354 775.31 97.9996 776.666 104.772L779.441 119.198C779.537 119.704 779.48 120.227 779.289 120.703C779.092 121.18 778.766 121.591 778.349 121.89C777.927 122.188 777.432 122.361 776.92 122.388C776.407 122.415 775.895 122.296 775.445 122.043C772.738 121.027 761.837 112.561 758.719 114.119C754.25 115.202 753.367 121.637 757.43 123.871L770.706 131.524C771.19 131.794 771.579 132.205 771.821 132.701C772.063 133.197 772.147 133.756 772.063 134.301C771.973 134.852 771.719 135.361 771.331 135.761C770.943 136.161 770.442 136.432 769.896 136.537L755.331 139.313C750.862 139.99 749.438 146.424 753.367 148.863C755.736 151.03 761.972 148.524 764.679 148.321C767.386 148.118 768.81 150.827 767.251 152.656L763.66 157.125C759.327 162.408 767.724 169.181 771.928 163.763C773.346 162.679 781.203 150.556 783.302 151.165Z" fill="#D13535"/>
<path d="M808.363 629.797C807.643 629.797 806.956 629.51 806.45 629.003C805.938 628.491 805.656 627.805 805.656 627.084V562.948C805.656 562.23 805.938 561.541 806.45 561.033C806.956 560.525 807.643 560.24 808.363 560.24C809.084 560.24 809.77 560.525 810.277 561.033C810.789 561.541 811.07 562.23 811.07 562.948V627.084C811.07 627.805 810.789 628.491 810.277 629.003C809.77 629.51 809.084 629.797 808.363 629.797Z" fill="#CE9C5C"/>
<path d="M785.401 625.255C784.782 625.267 784.18 625.047 783.707 624.647C783.167 624.186 782.824 623.533 782.762 622.824C782.7 622.109 782.919 621.406 783.369 620.854L829.221 566.201C829.446 565.92 829.722 565.694 830.037 565.526C830.346 565.357 830.695 565.255 831.05 565.222C831.399 565.194 831.759 565.233 832.097 565.34C832.434 565.452 832.749 565.627 833.014 565.863C833.56 566.319 833.897 566.978 833.965 567.687C834.027 568.396 833.807 569.105 833.352 569.651L787.5 624.31C787.242 624.608 786.921 624.85 786.555 625.013C786.195 625.177 785.801 625.261 785.401 625.255Z" fill="#CE9C5C"/>
<path d="M833.627 623.156C832.901 623.156 832.203 622.891 831.663 622.413L781.202 571.891C780.707 571.384 780.431 570.703 780.431 569.994C780.431 569.285 780.707 568.604 781.202 568.097C781.45 567.844 781.743 567.641 782.069 567.501C782.395 567.366 782.744 567.292 783.099 567.292C783.453 567.292 783.802 567.366 784.129 567.501C784.455 567.641 784.748 567.844 784.996 568.097L835.524 618.552C836.008 619.075 836.278 619.768 836.278 620.482C836.278 621.197 836.008 621.889 835.524 622.413C835 622.88 834.325 623.144 833.627 623.156Z" fill="#CE9C5C"/>
<path d="M840.465 597.695H776.261C775.541 597.695 774.854 597.408 774.342 596.901C773.836 596.389 773.549 595.702 773.549 594.982C773.549 594.267 773.836 593.575 774.342 593.068C774.854 592.562 775.541 592.275 776.261 592.275H840.465C841.186 592.275 841.872 592.562 842.379 593.068C842.891 593.575 843.172 594.267 843.172 594.982C843.172 595.702 842.891 596.389 842.379 596.901C841.872 597.408 841.186 597.695 840.465 597.695Z" fill="#CE9C5C"/>
<path d="M1008.7 472.532C1007.98 472.532 1007.29 472.247 1006.78 471.739C1006.28 471.231 1005.99 470.542 1005.99 469.823V405.685C1005.99 404.967 1006.28 404.278 1006.78 403.77C1007.29 403.262 1007.98 402.977 1008.7 402.977C1009.05 402.976 1009.4 403.047 1009.73 403.184C1010.05 403.32 1010.35 403.521 1010.59 403.774C1010.84 404.026 1011.03 404.326 1011.16 404.654C1011.29 404.982 1011.35 405.333 1011.34 405.685V469.823C1011.35 470.176 1011.29 470.526 1011.16 470.855C1011.03 471.183 1010.84 471.483 1010.59 471.735C1010.35 471.987 1010.05 472.188 1009.73 472.325C1009.4 472.462 1009.05 472.533 1008.7 472.532Z" fill="#CE9C5C"/>
<path d="M985.74 467.995C985.104 467.99 984.485 467.776 983.978 467.385C983.449 466.915 983.123 466.261 983.055 465.556C982.993 464.851 983.202 464.149 983.641 463.592L1029.56 408.936C1030.04 408.475 1030.67 408.208 1031.34 408.185C1032.01 408.163 1032.66 408.387 1033.17 408.814C1033.68 409.242 1034.02 409.843 1034.11 410.503C1034.21 411.163 1034.06 411.835 1033.69 412.39L987.772 467.046C987.535 467.355 987.226 467.603 986.871 467.768C986.517 467.933 986.128 468.011 985.74 467.995Z" fill="#CE9C5C"/>
<path d="M1033.89 465.895C1033.19 465.884 1032.52 465.619 1032 465.15L981.541 414.626C981.288 414.38 981.086 414.085 980.945 413.759C980.81 413.433 980.737 413.083 980.737 412.73C980.737 412.376 980.81 412.026 980.945 411.7C981.086 411.374 981.288 411.08 981.541 410.833C982.048 410.337 982.729 410.059 983.438 410.059C984.147 410.059 984.828 410.337 985.335 410.833L1035.79 461.29C1036.05 461.542 1036.25 461.843 1036.39 462.174C1036.53 462.505 1036.6 462.861 1036.6 463.22C1036.6 463.58 1036.53 463.935 1036.39 464.267C1036.25 464.598 1036.05 464.898 1035.79 465.15C1035.28 465.63 1034.6 465.897 1033.89 465.895Z" fill="#CE9C5C"/>
<path d="M1040.74 440.43H976.6C975.88 440.43 975.188 440.144 974.681 439.636C974.175 439.128 973.888 438.439 973.888 437.72C973.888 437.368 973.961 437.018 974.096 436.694C974.231 436.369 974.434 436.075 974.687 435.828C974.94 435.582 975.238 435.389 975.565 435.26C975.897 435.132 976.246 435.07 976.6 435.079H1040.74C1041.09 435.07 1041.44 435.132 1041.77 435.26C1042.09 435.389 1042.4 435.582 1042.64 435.828C1042.9 436.075 1043.1 436.369 1043.24 436.694C1043.38 437.018 1043.44 437.368 1043.44 437.72C1043.44 438.439 1043.16 439.128 1042.65 439.636C1042.14 440.144 1041.45 440.43 1040.74 440.43Z" fill="#CE9C5C"/>
<path d="M306.773 303.281C306.055 303.281 305.366 302.996 304.858 302.488C304.349 301.98 304.064 301.291 304.064 300.573V236.367C304.064 235.648 304.349 234.959 304.858 234.451C305.366 233.943 306.055 233.658 306.773 233.658C307.492 233.658 308.181 233.943 308.689 234.451C309.197 234.959 309.482 235.648 309.482 236.367V300.573C309.482 301.291 309.197 301.98 308.689 302.488C308.181 302.996 307.492 303.281 306.773 303.281Z" fill="#CE9C5C"/>
<path d="M283.814 298.744C283.195 298.751 282.594 298.535 282.121 298.134C281.577 297.674 281.236 297.018 281.173 296.307C281.109 295.598 281.328 294.891 281.782 294.342L327.634 239.618C328.1 239.07 328.766 238.73 329.484 238.673C330.201 238.616 330.912 238.846 331.46 239.314C332.008 239.78 332.348 240.446 332.405 241.163C332.462 241.881 332.232 242.592 331.765 243.14L285.914 297.796C285.652 298.095 285.329 298.334 284.966 298.498C284.604 298.662 284.211 298.746 283.814 298.744Z" fill="#CE9C5C"/>
<path d="M332.036 296.645C331.681 296.647 331.329 296.576 331.003 296.436C330.677 296.297 330.382 296.091 330.14 295.832L279.615 245.375C279.119 244.868 278.841 244.187 278.841 243.478C278.841 242.769 279.119 242.089 279.615 241.582C279.867 241.326 280.167 241.123 280.499 240.984C280.83 240.845 281.186 240.774 281.545 240.774C281.905 240.774 282.26 240.845 282.591 240.984C282.923 241.123 283.223 241.326 283.475 241.582L333.933 292.039C334.429 292.545 334.707 293.226 334.707 293.935C334.707 294.644 334.429 295.325 333.933 295.832C333.687 296.087 333.393 296.291 333.067 296.431C332.741 296.57 332.39 296.643 332.036 296.645Z" fill="#CE9C5C"/>
<path d="M338.876 271.179H274.67C273.952 271.179 273.263 270.893 272.754 270.385C272.247 269.877 271.961 269.188 271.961 268.469C271.961 267.751 272.247 267.062 272.754 266.554C273.263 266.046 273.952 265.761 274.67 265.761H338.876C339.595 265.761 340.283 266.046 340.792 266.554C341.299 267.062 341.585 267.751 341.585 268.469C341.585 269.188 341.299 269.877 340.792 270.385C340.283 270.893 339.595 271.179 338.876 271.179Z" fill="#CE9C5C"/>
<path d="M155.538 260.817C154.319 252.351 162.176 244.223 170.709 243.478C179.243 242.734 187.573 247.949 192.45 255.06C197.326 262.172 199.223 270.84 200.239 279.374C201.254 287.908 201.322 296.577 203.015 305.043C204.37 311.68 206.672 318.114 208.163 324.684C211.333 338.856 210.749 353.61 206.469 367.487C205.183 371.619 203.286 376.021 199.426 378.121C196.988 379.543 194.008 379.678 191.231 379.814C166.849 380.965 140.096 379.069 122.014 362.611C120.794 361.46 119.44 360.038 119.508 358.344C119.575 356.651 120.32 355.839 121.133 354.755L129.531 343.444V342.902C117.069 335.926 106.842 325.429 98.3086 313.983C91.062 304.366 84.7632 293.732 81.9864 282.015C79.2095 270.298 80.2935 257.295 86.9305 247.272C93.5682 237.248 106.301 230.881 118.017 233.658C124.858 235.283 130.682 239.686 136.304 243.953C141.925 248.219 148.224 253.096 152.558 259.192L155.538 260.817Z" fill="#D13535"/>
<path d="M1038.3 640.833C1037.82 625.936 1036.74 610.358 1028.88 597.695C1021.03 585.026 1007.21 577.305 993.056 578.661C978.902 580.017 965.896 592.14 965.356 606.362V607.037C969.014 604.263 974.36 601.691 981.947 599.248C1002.47 592.613 1025.23 605.343 1033.15 628.508C1041.07 651.673 1030.98 676.053 1010.67 683.032C990.344 690.005 967.59 686.009 967.05 649.371C966.864 645.882 966.11 642.449 964.815 639.207C964.815 639.207 956.756 619.706 935.555 638.396C929.624 643.529 925.611 650.53 924.176 658.241C922.887 665.399 923.028 672.738 924.581 679.846C926.14 686.617 928.92 693.731 926.545 700.298C925.464 703.281 923.433 706.056 923.568 709.174C923.635 710.935 925.262 713.305 926.613 715.066C927.693 716.406 928.971 717.571 930.406 718.516C941.786 725.653 953.436 732.288 965.356 738.428C977.816 744.799 997.458 763.354 1010.33 757.8C1017.57 754.687 1018.11 735.721 1022.32 729.018C1038.23 703.281 1039.25 671.179 1038.3 640.833Z" fill="#D13535"/>
<path d="M481.036 735.518C493.498 750.281 495.259 770.536 500.745 788.41C511.988 829.86 530.003 868.873 549.237 907.138C571.116 949.196 560.142 984.145 593.802 1021.87L598.473 1027.76C601.456 1030.81 606.397 1026.14 603.285 1022.95C578.021 994.439 575.449 975.135 568.538 939.51C560.548 908.629 542.735 881.604 530.612 852.35C518.489 823.09 508.533 793.154 500.948 762.538C497.9 751.164 493.836 739.649 485.844 730.706C482.797 727.729 477.92 732.333 481.036 735.518Z" fill="#452D34"/>
<path d="M513.681 842.664C497.358 814.012 459.093 838.803 474.738 865.958C492.211 888.785 522.892 868.266 513.681 842.664ZM483.813 840.497C485.71 838.533 490.315 836.501 491.331 836.501C492.32 836.366 493.322 836.366 494.311 836.501H493.905C496.494 836.923 498.979 837.841 501.219 839.208C497.9 841.578 496.885 846.457 494.378 849.704C490.372 846.992 486.134 844.634 481.714 842.664C482.391 841.915 483.068 841.173 483.813 840.497ZM481.375 863.521C479.549 861.202 478.359 858.45 477.921 855.529C477.853 854.854 477.921 855.664 477.989 855.732C477.785 854.184 477.785 852.614 477.989 851.061C477.785 852.35 478.327 849.029 478.598 848.624C482.837 850.521 486.915 852.766 490.789 855.327C488.486 858.85 486.048 862.305 483.474 865.62C482.708 864.99 482.005 864.287 481.375 863.521ZM502.235 866.031H502.167C498.51 868.873 492.617 869.211 489.705 868.401C492.008 865.418 494.175 862.373 496.275 859.255C498.645 861.084 500.813 863.251 503.048 865.283L502.37 865.823C502.438 865.823 502.506 865.891 502.235 866.031ZM508.33 853.498C508.084 855.591 507.56 857.64 506.773 859.593C504.606 857.494 502.303 855.462 499.932 853.565C501.896 849.975 504.47 846.592 505.825 842.664L506.502 843.407H506.434C506.869 844.076 507.254 844.78 507.586 845.506L507.45 845.168C508.442 847.825 508.745 850.695 508.33 853.498Z" fill="#D13535"/>
<path d="M502.37 865.891C502.324 865.908 502.281 865.936 502.246 865.969C502.211 866.009 502.185 866.048 502.168 866.093L502.37 865.891Z" fill="#D13535"/>
<path d="M552.15 951.16C540.569 926.509 505.079 948.925 512.529 970.869C525.126 998.097 560.074 975.478 552.15 951.16ZM542.939 949.606C543.537 950.135 544.102 950.698 544.632 951.295L544.429 951.092C544.985 951.734 545.42 952.465 545.716 953.259C545.919 953.67 546.596 956.782 546.393 955.566C546.562 956.956 546.562 958.369 546.393 959.765C546.048 962.252 545.269 964.655 544.09 966.873L536.098 959.832C537.927 956.107 539.688 952.448 541.449 948.723L542.939 949.606ZM529.394 948.588C530.767 947.946 532.227 947.513 533.728 947.299H534.676C533.389 950.011 532.102 952.719 530.748 955.426L525.939 951.57C525.995 951.345 526.018 951.12 526.007 950.889C527.005 949.944 528.148 949.167 529.394 948.588ZM520.657 971.752C517.067 967.346 517.677 960.643 521.334 956.444C523.501 958.138 525.668 959.832 527.768 961.594L522.079 973.306L520.657 971.752ZM538.875 973.306C535.895 975.681 531.899 977.234 528.174 976.356C529.8 972.968 531.425 969.518 533.118 966.13L540.027 972.225L538.875 973.306Z" fill="#D13535"/>
<path d="M477.921 476.663L499.797 478.898H499.458C500.697 479.103 501.919 479.397 503.115 479.779C503.589 479.914 502.438 479.44 503.251 479.846L504.605 480.592C505.419 481.235 506.089 482.042 506.569 482.962C506.705 483.165 507.314 484.181 506.841 483.368C507.138 484.108 507.342 484.881 507.45 485.671C507.382 484.452 507.518 487.025 507.45 487.364C507.382 487.703 507.585 486.687 507.45 487.161C507.314 487.635 506.637 489.87 507.044 488.719C506.867 489.241 506.591 489.724 506.231 490.141C506.163 490.344 505.825 491.021 506.231 490.277C505.736 490.906 505.168 491.475 504.538 491.97C504.605 491.902 505.215 491.496 504.673 491.834C504.197 492.162 503.7 492.456 503.183 492.715C497.697 493.054 497.359 500.368 503.183 499.758C515.781 497.591 518.083 479.034 506.366 473.886C497.359 470.703 487.335 471.448 477.921 469.958C473.586 469.823 473.518 476.663 477.921 476.663Z" fill="#452D34"/>
<path d="M493.024 532.945C483.136 536.671 467.423 537.009 457.399 534.368C457.06 534.265 456.698 534.267 456.361 534.373C456.023 534.479 455.725 534.684 455.506 534.961C455.286 535.239 455.156 535.577 455.131 535.93C455.106 536.283 455.189 536.636 455.367 536.941C459.499 544.798 469.319 561.594 477.921 562.407C486.522 563.219 493.227 545.475 496.342 536.061C496.494 535.607 496.512 535.118 496.395 534.654C496.278 534.19 496.03 533.769 495.68 533.441C495.332 533.113 494.895 532.892 494.425 532.804C493.954 532.716 493.468 532.765 493.024 532.945Z" fill="#452D34"/>
<path d="M437.826 490.683C441.454 490.683 444.396 487.741 444.396 484.113C444.396 480.485 441.454 477.544 437.826 477.544C434.198 477.544 431.256 480.485 431.256 484.113C431.256 487.741 434.198 490.683 437.826 490.683Z" fill="#452D34"/>
<path d="M487.199 457.903C490.828 457.903 493.769 454.962 493.769 451.333C493.769 447.705 490.828 444.764 487.199 444.764C483.571 444.764 480.63 447.705 480.63 451.333C480.63 454.962 483.571 457.903 487.199 457.903Z" fill="#452D34"/>
<path d="M423.467 456.954C419.471 458.106 414.324 477.95 416.085 486.416C415.954 487.053 416.036 487.716 416.317 488.303C416.598 488.89 417.064 489.369 417.643 489.667C418.04 489.902 418.476 490.062 418.93 490.141H419.336C420.078 490.109 420.793 489.853 421.386 489.405C421.979 488.958 422.422 488.34 422.655 487.635C426.38 482.894 429.766 472.6 431.391 469.958C435.387 462.644 433.22 454.381 423.467 456.954Z" fill="#452D34"/>
<path d="M497.63 434.605C497.35 434.104 496.935 433.692 496.432 433.416C495.928 433.141 495.358 433.013 494.785 433.047C485.845 431.76 475.144 430.744 467.017 434.74C466.322 435.075 465.714 435.568 465.244 436.18C464.774 436.792 464.453 437.505 464.307 438.262C460.583 455.059 487.47 442.326 495.733 439.684C496.541 439.469 497.241 438.962 497.697 438.262C498.094 437.732 498.303 437.084 498.29 436.422C498.278 435.759 498.045 435.12 497.63 434.605Z" fill="#452D34"/>
<path d="M364.477 554.075H364.543C364.543 554.009 364.477 554.075 364.477 554.075Z" fill="#452D34"/>
<path d="M341.179 534.231C341.246 534.163 341.246 534.028 341.314 533.96C341.382 533.893 341.246 534.028 341.179 534.231Z" fill="#452D34"/>
<path d="M315.849 416.454C322.08 415.438 322.215 408.665 316.323 409.139C309.373 411.395 303.338 415.837 299.12 421.804C296.885 427.426 304.065 428.103 305.284 424.784C308.109 421.223 311.726 418.37 315.849 416.454Z" fill="#452D34"/>
<path d="M620.079 752.926C615.002 726.919 592.513 705.245 566.303 701.25L562.037 700.434L564.88 698.402C571.02 693.657 576.524 688.148 581.274 682.013C585.185 677.117 588.461 671.748 591.027 666.03C593.464 660.407 594.888 654.447 596.374 648.487C597.46 643.884 598.608 639.274 598.749 634.603C598.861 628.705 597.449 622.874 594.635 617.685C591.821 612.496 587.707 608.129 582.692 605.006C576.94 601.482 569.759 599.316 566.506 593.423C563.259 587.531 565.425 579.815 562.783 573.511C560.141 567.214 552.353 563.558 545.444 564.709C538.536 565.863 532.712 571.075 529.732 577.372C528.445 580.152 527.632 583.13 526.21 585.842C524.178 589.838 521.062 593.153 517.744 596.203C501.41 611.286 480.981 621.209 459.024 624.715C445.885 626.746 431.866 626.341 420.081 620.111C415.679 617.809 411.344 614.624 406.4 614.894C403.691 615.096 401.05 616.318 398.273 616.183C395.496 616.048 394.413 615.232 392.516 614.624C390.689 614.038 388.804 613.656 386.895 613.476C372.74 612.052 360.007 621.94 356.959 635.824C354.86 645.51 352.963 659.867 357.907 667.521C360.345 671.247 363.597 674.832 363.664 679.306C363.732 683.775 361.294 686.752 360.887 690.613C360.21 697.997 366.847 703.687 372.875 708.02C377.548 711.408 382.29 714.864 387.233 717.908L383.17 720.075C375.584 729.828 366.712 738.428 358.923 747.979C351.135 757.529 344.362 768.296 341.992 780.418C340.84 786.378 341.179 793.492 345.92 797.353C347.681 798.777 349.916 799.52 352.083 800.33C371.792 807.106 392.516 814.012 412.97 810.286C415.531 809.926 418.02 809.172 420.352 808.052C424.009 806.29 426.922 803.313 429.428 800.127C440.331 786.378 445.005 768.909 449.475 751.975C450.762 746.966 452.116 742.019 453.403 737.077L454.825 733.014C468.466 733.121 482.068 731.551 495.326 728.337L494.92 732.811C495.597 747.438 506.704 759.223 517.067 769.517C527.429 779.811 536.708 788.956 548.56 795.929C553.797 799.008 559.363 801.484 565.155 803.313C566.377 803.803 567.694 804.033 569.016 803.988C570.84 803.718 572.399 802.503 573.822 801.281L615.272 766.061C617.102 764.502 618.931 762.882 619.876 760.715C620.827 758.542 620.552 755.498 620.079 752.926Z" fill="#CE9C5C"/>
<path d="M552.895 767.553H553.098L553.301 767.688C552.895 767.215 553.437 767.891 553.437 767.891C553.437 767.891 552.962 767.215 553.301 767.688C553.64 768.161 553.03 766.81 553.234 767.485C553.437 768.161 553.301 767.553 553.301 767.418C553.301 767.283 553.369 767.35 553.234 767.485C553.098 767.621 553.64 766.332 553.301 767.08C554.781 764.581 556.943 762.561 559.532 761.255C558.448 761.458 560.345 761.053 560.548 760.985C560.751 760.918 559.939 760.985 560.413 760.985H560.955C571.859 765.251 576.26 757.935 575.517 747.844C575.382 748.317 575.517 747.304 575.517 747.844C575.596 747.365 575.708 746.887 575.855 746.42C576.057 745.745 575.585 746.898 575.787 746.488C575.99 746.116 576.215 745.75 576.462 745.407L576.665 745.002C576.868 744.658 576.192 745.542 576.598 745.137C577.02 744.67 577.47 744.242 577.954 743.848C578.224 743.51 577.414 744.186 577.751 743.915C578.269 743.561 578.809 743.246 579.378 742.97C579.513 742.902 579.918 742.559 579.513 742.902C579.108 743.24 579.918 742.7 580.053 742.7L581.342 742.424C582.017 742.289 581.274 742.492 581.207 742.424C583.103 742.424 582.76 742.222 584.589 742.902C594.815 747.101 596.509 735.316 597.393 729.829C597.393 729.559 597.798 729.086 597.933 728.883C598.068 728.675 597.393 729.356 598.001 728.883C598.609 728.405 598.609 728.337 598.203 728.675C597.798 729.018 598.271 728.607 598.338 728.54C598.406 728.472 598.541 728.607 598.271 728.54L599.492 728.202C599.357 728.27 598.744 728.202 599.29 728.27C599.83 728.337 600.168 728.337 599.357 728.202C598.541 728.067 600.64 728.675 600.168 728.405H600.303C600.235 728.472 600.916 728.816 600.303 728.405C600.37 728.337 601.456 729.559 600.775 728.742C600.044 727.6 598.89 726.79 597.567 726.486C596.239 726.176 594.849 726.401 593.684 727.105C592.525 727.814 591.686 728.945 591.343 730.262C591.005 731.573 591.191 732.975 591.866 734.151C592.536 735.333 593.645 736.205 594.956 736.577C596.262 736.954 597.663 736.802 598.862 736.16C600.055 735.519 600.955 734.432 601.366 733.132C601.772 731.838 601.659 730.431 601.051 729.221C601.136 729.367 601.203 729.53 601.254 729.694C601.456 730.369 601.186 729.018 601.254 729.761C601.254 734.162 608.092 734.162 608.024 729.761C606.195 716.755 589.671 720.21 590.009 732.468C590.009 732.536 589.874 733.419 590.009 732.812C590.144 732.198 589.941 733.149 589.941 733.284C589.941 733.419 589.064 736.397 589.469 735.248C589.266 735.761 588.996 736.239 588.653 736.667C588.788 736.667 589.131 736.126 588.653 736.599L588.315 736.942C587.91 737.28 588.383 736.734 588.45 736.807L588.112 737.01C587.505 737.415 588.653 736.807 588.247 736.942C587.842 737.078 588.247 736.74 588.45 736.942H588.045C589.131 737.145 587.437 736.74 587.234 736.599C576.125 731.725 566.844 742.835 568.606 752.858C568.527 753.359 568.414 753.855 568.268 754.344C568.065 754.89 568.336 754.412 568.268 754.277C568.201 754.142 567.93 754.958 567.795 755.093C567.66 755.228 568.201 754.823 567.863 755.025C567.525 755.228 567.188 755.565 567.66 755.228C568.133 754.89 567.458 755.295 567.458 755.363C567.458 755.43 567.525 755.16 567.593 755.295L567.12 755.43H567.458C567.255 755.43 566.034 755.498 567.052 755.498C556.484 749.403 537.86 766.878 551.066 773.918C555.265 775.14 557.094 768.572 552.895 767.418V767.553Z" fill="#D13535"/>
<path d="M357.433 764.03C357.027 765.049 357.501 764.03 357.636 763.828C357.772 763.625 358.043 763.22 357.704 763.693C357.366 764.165 357.704 763.693 357.839 763.625L358.517 763.017C357.433 763.895 358.923 762.68 359.262 762.612L358.991 762.747L360.819 762.201C359.533 762.539 360.955 762.201 361.294 762.269C361.633 762.336 362.649 762.539 361.497 762.201L363.122 762.68C361.971 762.336 363.326 762.68 363.529 762.95C363.732 763.22 363.055 762.471 363.326 762.815C363.596 763.152 364.748 764.3 363.935 763.355C369.015 774.87 375.72 775.072 383.17 767.621C383.722 767.171 384.339 766.805 384.998 766.535C383.644 767.013 386.217 766.129 386.489 766.197C385.337 766.332 387.233 766.129 387.64 766.197C388.046 766.265 388.655 766.332 387.978 766.265C387.301 766.197 388.046 766.265 388.114 766.265C388.789 766.4 389.447 766.602 390.078 766.878C390.485 767.013 390.078 767.013 389.875 766.743C389.672 766.467 391.229 767.418 391.771 767.891C392.313 768.364 391.704 768.026 391.635 767.688L393.058 769.112C392.787 769.045 392.584 768.572 392.99 769.112C393.256 769.495 393.483 769.9 393.668 770.328L393.465 769.855C394.142 778.05 403.285 780.284 409.109 775.41C411.209 773.919 412.022 772.973 414.46 771.819C413.376 772.225 415.137 771.549 415.34 771.617H416.288C414.866 771.414 417.101 771.819 417.101 771.954L416.695 771.752C417.328 772.033 417.92 772.399 418.456 772.838C419.173 773.519 419.851 774.245 420.487 775.005L420.284 774.667C421.232 776.018 422.113 777.442 422.926 778.866C425.025 782.726 430.985 779.271 428.75 775.478C424.077 765.319 414.053 761.323 406.332 769.112C404.368 770.604 404.097 770.806 402.201 771.211H401.117C401.659 771.076 401.727 771.347 401.321 771.211L400.847 771.076C401.185 771.009 401.524 771.414 400.982 771.144L400.644 770.941L401.05 771.211C400.914 771.144 400.847 771.009 400.779 770.941C399.628 760.507 384.795 754.48 375.72 765.116L375.991 764.846C375.591 765.195 375.16 765.516 374.704 765.792L374.297 765.994C374.297 765.927 375.042 765.724 374.297 765.927C373.552 766.129 373.146 766.197 374.162 765.994H373.755C373.078 765.994 373.959 765.927 373.959 765.994L373.349 765.859C373.62 765.724 373.959 766.197 373.62 765.927C373.281 765.657 373.281 765.657 373.146 765.657C373.011 765.657 373.62 766.062 373.281 765.724C372.943 765.387 371.52 762.815 370.505 760.986C366.509 753.061 353.912 753.872 350.932 762.201C349.645 766.332 356.214 768.161 357.433 763.963V764.03Z" fill="#D13535"/>
<path d="M384.118 641.919C384.457 639.206 387.437 636.094 390.214 635.008C391.283 634.592 392.396 634.293 393.532 634.13H393.329C395.019 633.95 396.724 633.972 398.409 634.198C407.416 635.419 417.44 643.748 427.735 646.59C457.061 651.808 499.661 653.299 527.091 641.036C539.756 635.351 548.29 617.741 537.927 606.226C534.473 602.906 529.935 608.461 533.525 611.444C533.457 611.37 533.186 610.965 533.525 611.511C534.055 612.226 534.509 612.997 534.879 613.813C535.286 614.623 534.676 613.2 535.015 614.016C535.312 614.899 535.538 615.805 535.692 616.723C535.76 616.925 535.895 617.263 535.692 616.52C536.437 620.854 534.337 625.801 532.238 628.44C531.039 629.92 529.676 631.26 528.174 632.436C520.995 637.856 508.737 640.495 498.442 641.987C479.478 644.221 457.602 643.613 437.758 641.784C435.252 641.581 427.125 639.617 424.823 638.464C411.209 631.08 388.927 618.349 378.7 637.107C374.366 644.626 382.425 648.69 384.118 641.919Z" fill="white"/>
<path d="M526.21 659.529C524.179 661.493 520.115 664.876 518.828 665.895C511.556 671.506 503.589 676.149 495.124 679.711C488.825 682.553 475.956 686.076 469.116 686.819C450.897 689.397 430.782 686.279 415.002 679.509C410.193 677.477 403.623 674.089 400.237 671.652C398.477 670.161 398.205 669.958 397.866 668.399C397.731 668.061 397.935 668.737 397.935 668.804C397.935 668.872 397.866 668.196 397.866 668.129V667.656C397.866 667.724 397.663 668.399 397.799 668.061C397.871 667.819 397.916 667.566 397.935 667.318C397.663 667.859 398.07 666.772 397.935 667.318L398.273 666.84C398.341 667.11 397.799 667.318 398.138 667.043C398.477 666.772 398.273 666.975 398.138 666.975L398.477 666.84C404.775 660.205 391.5 656.749 391.026 667.994C391.839 682.621 427.057 691.226 439.316 693.258C460.701 696.393 482.537 693.168 502.099 683.977C507.382 681.405 536.776 665.692 530.951 659.529C530.307 658.905 529.445 658.556 528.547 658.556C527.649 658.556 526.787 658.905 526.143 659.529H526.21Z" fill="white"/>
<path d="M1020.42 745.069L1020.28 745.406C1020.28 745.39 1020.29 745.373 1020.3 745.356C1020.31 745.345 1020.33 745.339 1020.35 745.339L1020.42 745.069Z" fill="#452D34"/>
<path d="M983.911 696.573C989.606 694.502 995.476 692.96 1001.45 691.969C1003.21 691.699 1004.3 689.465 1003.82 687.838C1001.66 681.946 986.758 689.059 982.149 690.005C977.545 690.95 979.712 697.794 983.911 696.573Z" fill="#452D34"/>
<path d="M123.572 379.339L137.184 384.621C138.878 385.231 140.977 383.877 141.384 382.251C142.603 376.697 129.193 375.275 125.4 372.837C121.201 371.55 119.373 378.12 123.572 379.339Z" fill="#452D34"/>
<path d="M1018.73 748.248C1018.79 748.046 1018.73 748.046 1018.52 748.518L1018.73 748.248Z" fill="#452D34"/>
<path d="M331.291 550.554C327.634 550.215 324.518 547.845 321.877 545.271C307.248 531.184 301.084 509.714 303.252 489.532C305.419 469.349 315.375 450.588 328.717 435.282C342.059 419.976 352.964 401.757 370.234 391.124C394.413 376.224 420.082 361.324 448.46 363.491C451.507 363.694 461.396 362.678 461.396 362.678C445.344 347.101 416.899 334.3 404.369 332.946C395.293 331.93 372.401 333.691 359.601 340.532C353.099 343.986 315.24 362.475 301.829 374.328C296.344 379.136 290.858 383.945 286.117 389.498C277.572 399.497 271.638 411.457 268.846 424.31C266.137 436.907 266.544 449.979 265.189 462.779C262.751 486.416 253.337 509.986 257.536 533.351C261.735 556.717 296.073 599.726 302.033 594.577C318.22 580.557 330.072 591.189 330.072 591.189C331.291 588.279 338.063 578.458 339.554 575.138C339.554 575.138 328.717 559.088 331.494 550.554C331.494 550.486 331.359 550.554 331.291 550.554Z" fill="#D13535"/>
<path d="M990.344 573.039C979.307 577.851 970.708 588.955 970.229 601.213C971.18 607.105 977.951 604.533 977.14 599.248C977.467 597.318 978.007 595.433 978.767 593.632C989.06 570.805 1018.59 572.769 1032.06 591.122C1048.39 615.98 1043.38 651.605 1041.75 679.847C1039.92 697.186 1033.49 712.084 1025.63 726.643C1023.53 732.671 1022.79 739.109 1020.42 745.069C1020.42 745.137 1020.35 745.204 1020.35 745.272V745.407C1019.94 746.409 1019.42 747.366 1018.79 748.249L1018.59 748.519L1018.46 748.66C1018.18 748.93 1017.89 749.178 1017.57 749.403L1018.11 749.065L1017.57 749.403L1017.17 749.605C1016.46 749.881 1015.74 750.084 1015 750.213H1014.59C1013.6 750.315 1012.6 750.315 1011.61 750.213H1011.27C995.831 746.696 982.763 732.744 967.117 726.103C957.769 721.027 948.556 715.742 939.686 709.985H939.551C939.551 709.968 939.546 709.951 939.529 709.939C939.517 709.923 939.501 709.917 939.484 709.917C938.718 709.264 938.015 708.538 937.384 707.75L937.047 707.277C936.461 706.484 935.944 705.645 935.488 704.767C935.375 704.508 935.285 704.233 935.218 703.957C941.448 689.667 938.735 685.672 935.353 669.621C933.861 656.885 936.366 636.973 950.931 634.468C954.651 633.793 959.598 636.095 960.611 637.721C960.971 638.188 961.286 638.689 961.562 639.207L961.765 639.618C965.288 655.264 966.301 671.517 968.879 687.366C969.959 691.564 976.527 689.803 975.379 685.537C972.942 669.823 971.653 653.84 968.468 638.329C964.269 625.464 946.322 624.783 937.925 633.928C924.513 648.285 927.699 669.688 932.167 687.096C932.376 688.688 932.398 690.303 932.235 691.902C932.302 691.159 932.167 692.172 932.167 692.24C932.015 693.095 931.79 693.933 931.492 694.744H931.424C927.293 701.115 928.374 706.732 932.437 711.814C931.83 713.17 931.357 714.656 930.541 715.674C909.346 741.073 881.375 766.945 858.278 787.803C780.122 728.472 695.663 665.079 596.92 648.488C604.912 626.139 606.876 600.875 582.901 587.807C578.697 585.432 573.89 583.811 570.772 579.95C566.844 574.53 569.692 564.372 565.899 557.869C559.464 546.084 544.7 545.949 535.015 552.993C535.353 551.435 535.692 549.877 535.895 548.184C539.011 531.049 536.776 513.101 532.509 496.372C533.118 492.783 518.692 454.382 505.418 426.614C505.936 426.568 506.436 426.396 506.874 426.113C507.31 425.83 507.671 425.443 507.924 424.988C522.959 403.586 509.075 373.447 486.387 364.033C483.215 362.761 479.955 361.72 476.634 360.918C476.67 360.43 476.597 359.94 476.422 359.483C476.246 359.027 475.971 358.615 475.618 358.277C449.949 333.759 413.512 307.346 376.532 321.568C346.394 332.54 292.077 363.559 278.193 392.953C269.388 409.411 268.914 428.374 267.898 446.593C266.882 464.812 260.516 482.827 258.823 501.317C256.113 524.954 266.679 547.71 280.902 565.998C283.679 569.111 294.041 582.86 301.761 589.36C292.889 594.51 286.929 603.655 286.929 614.084C286.929 630.067 300.949 643.068 318.152 643.068C335.354 643.068 349.442 630.067 349.442 614.084C349.442 604.668 344.633 596.406 337.183 591.054C338.809 587.328 343.075 577.986 345.581 572.499L346.055 571.412L348.9 574.125C352.422 582.387 357.095 591.189 366.848 593.086C373.078 594.577 379.784 596.136 384.931 592.275L385.947 592.681C385.998 592.821 386.093 592.939 386.218 593.018L388.317 595.663L389.469 597.217C388.46 597.059 387.442 596.969 386.421 596.947C371.453 595.934 357.366 607.308 354.318 621.805C352.354 631.559 350.526 642.055 353.573 651.808C354.995 656.479 359.397 660.34 360.685 664.876C361.971 669.418 356.959 675.243 358.247 680.792C359.533 686.347 363.055 690.951 367.457 694.676C339.486 704.767 351.88 703.889 321.944 676.256C288.894 643.546 252.524 614.489 215.409 586.586C207.147 517.233 201.728 447.27 203.828 377.443C203.895 375.073 203.963 372.702 204.098 370.332C204.113 370.037 204.089 369.741 204.031 369.451C212.158 363.356 213.174 349.675 214.596 340.126C217.034 322.313 209.855 305.585 206.875 288.382C205.182 275.039 205.724 258.378 198.545 245.578C190.147 227.698 161.362 222.144 154.183 243.817C86.3883 170.807 40.8079 278.9 126.347 333.352C120.794 340.667 113.344 347.44 120.929 354.551C11.0079 612.12 104.336 741.006 330.884 871.108C349.238 929.627 362.377 991.327 371.995 1052.21C372.536 1056.48 379.309 1056.54 378.768 1052.21C370.437 992.543 354.995 934.096 340.163 875.711C339.832 873.066 338.848 870.539 337.299 868.361C335.751 866.189 333.686 864.433 331.291 863.251C217.712 795.457 83.2051 706.191 81.9185 559.02C80.225 502.062 94.1093 446.051 113.48 392.682C138.086 404.65 165.44 409.84 192.72 407.717C193.985 407.849 195.261 407.803 196.513 407.582C196.446 466.098 201.322 524.615 208.094 582.725C207.887 583.265 207.816 583.845 207.891 584.419C207.282 589.022 203.963 599.384 201.999 606.092C200.848 610.291 207.417 612.12 208.569 607.854C209.72 603.588 211.549 598.168 212.903 593.288C216.899 596.609 222.588 599.727 225.162 602.299C245.751 618.147 266.069 634.401 285.575 651.538C305.08 668.67 323.231 688.041 342.466 705.651C349.713 709.782 358.517 705.313 365.357 702.398C368.062 701.12 370.872 700.079 373.756 699.286C376.194 700.98 378.7 702.601 380.935 704.227L381.273 704.497C366.915 722.445 320.59 764.779 345.649 787.667C362.039 794.714 379.784 800.06 397.664 801.417C438.503 806.971 447.511 761.593 455.503 731.185C455.841 728.883 457.535 725.563 457.196 723.193C468.932 723.176 480.63 721.86 492.076 719.265V719.603C488.621 741.006 555.807 804.872 574.977 791.866C589.063 780.081 602.88 768.093 616.899 756.241C620.04 754.299 622.409 751.328 623.608 747.833C624.807 744.338 624.756 740.539 623.467 737.078C617.102 704.632 584.724 687.433 570.367 685.199C580.526 676.931 589.063 666.84 594.41 654.65C687.604 668.805 780.054 736.059 852.79 791.866C846.222 796.745 839.587 801.619 832.676 806.088C828.95 808.255 832.338 814.147 836.132 811.913C844.461 806.499 852.385 800.539 860.377 794.579C864.103 792.817 867.963 787.33 870.67 785.636C876.428 780.351 882.05 775.005 887.672 769.652C899.66 758.138 911.513 746.555 922.819 734.5C928.987 740.325 935.42 745.947 941.921 751.502C957.836 764.981 975.717 777.171 996.169 782.456C965.085 849.097 922.346 921.563 847.714 934.704C838.236 935.841 828.663 935.796 819.197 934.569C795.424 930.843 773.413 920.752 753.299 906.935C752.804 906.412 752.207 905.996 751.537 905.714C719.368 883.095 692.14 850.993 670.539 819.904L667.827 815.774C665.457 812.115 659.565 815.503 661.934 819.162C679.747 846.187 700.677 871.243 724.788 892.781C732.397 899.794 740.45 906.305 748.898 912.288C762.107 936.263 771.584 962.067 784.996 985.907C787.163 989.701 793.055 986.312 790.821 982.519C780.392 963.896 772.333 944.052 762.985 924.816C762.039 923.228 761.201 921.574 760.48 919.874C835.996 965.59 909.346 938.43 963.526 855.665C984.384 824.851 1000.78 791.258 1015.07 756.922C1023.19 755.836 1028.82 747.709 1032 728.883C1057.4 689.195 1069.38 551.367 990.344 573.039ZM196.581 400.809C184.39 401.825 163.259 401.148 151.136 398.371C141.745 396.425 132.561 393.59 123.706 389.905C121.336 389.363 118.288 386.858 115.715 386.519C119.168 377.172 122.826 367.894 126.551 358.75C146.734 372.905 173.283 374.057 197.191 372.161C196.874 381.733 196.671 391.282 196.581 400.809ZM198.342 364.982C199.019 364.643 198.138 364.982 198.071 365.049L195.768 365.591C171.048 366.945 142.331 366.471 124.248 347.779C125.535 343.444 138.471 333.963 132.646 329.357C105.894 312.696 76.1617 276.191 88.3524 243.681C91.0617 235.216 102.982 226.276 110.567 226.005C125.467 224.312 140.164 238.805 150.797 249.913C150.863 250.062 150.955 250.2 151.068 250.319C152.756 252.772 154.207 255.38 155.402 258.108C157.705 263.729 159.195 269.689 160.618 275.649C160.836 276.119 160.974 276.623 161.024 277.139C163.562 285.498 166.896 293.595 170.98 301.317C173.147 305.11 179.039 301.656 176.805 297.864C175.382 295.357 172.876 289.736 172.335 288.45C170.574 285.944 169.422 278.764 167.255 275.107C167.274 274.674 167.228 274.24 167.119 273.82C166.036 270.163 163.665 258.717 160.008 251.538C160.213 251.022 160.284 250.463 160.212 249.913V249.371C159.94 247 161.092 243.682 162.514 241.853C163.279 240.93 164.117 240.069 165.02 239.279H165.155C167.661 237.518 168.88 236.909 171.793 236.367C173.098 236.232 174.415 236.232 175.721 236.367H175.789C182.087 237.112 187.641 241.988 190.147 245.172C199.29 257.972 198.003 271.856 199.899 287.231C200.983 299.083 205.859 310.122 207.485 321.907C208.908 335.046 208.298 355.161 199.899 364.237L198.342 364.982ZM492.211 375.276C504.537 384.216 510.972 401.69 505.079 415.98C504.367 417.614 503.506 419.179 502.506 420.654C500.745 417.132 499.052 413.88 497.426 410.968C498.78 410.359 498.307 408.192 497.426 406.024C499.39 406.16 501.151 405.754 501.829 403.654C503.86 396.136 478.53 397.423 473.586 396.881C450.084 397.152 425.364 398.913 405.113 411.917C379.716 427.358 362.039 453.027 352.625 480.863C350.729 486.146 341.585 518.248 342.195 531.456C341.61 532.077 341.294 532.905 341.314 533.758V534.097H341.247L341.043 534.571H340.976L340.366 535.18L339.418 535.722C337.996 536.128 338.47 536.128 336.98 536.061C336.239 535.93 335.513 535.725 334.813 535.451C335.422 535.722 334.474 535.316 334.338 535.18C333.646 534.839 332.988 534.43 332.374 533.961C332.357 533.961 332.339 533.958 332.322 533.951C332.306 533.944 332.291 533.934 332.279 533.922C332.266 533.909 332.256 533.894 332.249 533.878C332.242 533.861 332.239 533.844 332.239 533.826C309.55 514.388 307.247 480.998 318.422 455.33C342.601 403.721 434.981 338.432 492.211 375.276ZM341.043 534.571C341.043 534.503 341.111 534.503 341.043 534.571V534.571ZM341.924 613.949C341.924 625.801 331.223 635.487 318.084 635.487C304.945 635.487 294.312 625.801 294.312 613.949C294.312 602.096 304.945 592.41 318.084 592.41C331.223 592.41 341.924 602.029 341.924 613.949ZM332.374 584.959C331.845 585.775 331.392 586.636 331.02 587.531C326.918 585.837 322.523 584.965 318.084 584.959C314.923 584.936 311.775 585.37 308.738 586.248C288.284 567.079 268.304 543.24 265.324 514.253C264.105 496.372 269.862 479.034 272.774 461.561C276.635 435.959 273.181 407.717 290.113 385.977C299.662 373.38 313.275 364.779 325.94 355.567C345.716 342.361 367.051 329.695 390.552 324.548C419.268 321.23 445.615 339.923 466.475 358.954C398.341 350.623 308.06 418.757 305.013 485.198C304.809 506.6 313.343 531.726 333.255 542.224L333.932 542.495C332.713 558.072 334 560.307 340.773 566.539C337.996 572.634 335.151 578.796 332.374 584.959ZM387.775 579.539C384.05 575.408 380.596 566.944 373.824 566.944C365.493 567.963 355.334 568.908 349.374 561.662C345.716 557.395 339.554 549.336 338.944 542.901C341.206 542.6 343.328 541.634 345.039 540.124C347.004 547.981 351.135 555.973 358.247 559.969C364.071 563.152 372.875 559.359 372.537 552.248C371.656 546.288 364.68 549.403 365.764 552.79C365.764 552.857 365.696 552.857 365.696 552.925C365.615 553.053 365.547 553.19 365.493 553.331L365.019 553.805C364.884 553.873 364.816 553.941 364.816 553.873C364.816 553.805 364.68 554.009 364.545 554.077H364.342L363.461 554.347H363.393C361.294 554.483 358.517 552.044 357.23 550.284C354.023 546.105 351.905 541.194 351.067 535.993C350.964 535.402 350.681 534.857 350.257 534.433C349.833 534.008 349.288 533.725 348.696 533.623C353.146 533.269 357.621 533.846 361.836 535.316C363.868 535.993 365.899 536.874 367.931 536.603C370.979 536.197 373.146 533.217 373.417 530.168C373.688 527.121 372.401 524.141 370.573 521.703C368.744 519.264 366.509 517.165 364.545 514.862C359.744 509.294 356.538 502.531 355.267 495.289C357.248 487.77 359.737 480.393 362.716 473.21C370.911 453.636 383.576 436.028 399.899 423.566C417.237 420.992 436.336 426.207 451.507 417.402C456.113 414.694 460.04 410.833 464.714 408.259C471.066 404.67 478.529 403.582 485.641 405.212C517.609 458.987 572.466 577.17 477.04 591.735C473.993 592.073 467.017 592.748 462.614 592.613C459.296 593.018 453.336 590.987 453.064 595.934C453.082 596.823 453.444 597.678 454.076 598.309C454.707 598.939 455.558 599.299 456.451 599.316C468.566 600.273 480.752 598.894 492.347 595.253C492.377 595.889 492.445 596.525 492.55 597.149C480.347 603.154 467.233 607.088 453.742 608.799C438.91 610.966 425.567 606.16 412.835 599.181C408.5 597.487 403.962 598.776 399.628 599.524H399.425C397.189 595.32 392.381 590.581 390.891 588.144C390.828 585.01 389.733 581.987 387.775 579.539ZM365.087 553.738H365.154C365.222 553.67 365.154 553.67 365.087 553.738ZM365.561 553.263C365.561 553.196 365.629 553.128 365.629 553.196C365.611 553.196 365.593 553.203 365.581 553.216C365.568 553.228 365.561 553.245 365.561 553.263ZM503.386 590.919L499.187 593.632C499.119 593.356 499.119 593.153 499.052 592.883C500.541 592.275 501.964 591.668 503.386 590.919ZM437.69 766.743C433.695 775.815 429.36 783.942 422.181 790.104L421.842 790.375C420.881 791.055 419.861 791.641 418.795 792.136L418.388 792.339C415.691 793.284 412.897 793.92 410.058 794.235C390.552 796.678 366.645 789.429 348.629 781.572L348.493 781.437L347.342 780.284C346.867 779.642 346.48 778.933 346.191 778.184C345.325 775.337 345.116 772.326 345.581 769.382C346.597 760.439 353.709 747.236 359.872 739.65C368.067 729.086 377.887 719.873 386.082 709.309C386.394 709.022 386.648 708.673 386.827 708.29C405.791 719.94 428.615 722.783 450.626 723.126C446.834 737.415 442.905 754.209 437.69 766.743ZM580.121 695.357C583.171 696.506 590.279 700.501 594.14 703.619C601.726 709.444 609.65 718.86 613.917 729.153C614.733 730.707 617.372 739.65 617.507 741.749C617.653 742.621 617.698 743.51 617.642 744.388C617.62 744.968 617.507 745.542 617.305 746.082C617.079 746.527 616.826 746.955 616.556 747.371C601.861 760.58 583.103 776.288 569.692 787.195L569.219 787.33H568.403C552.963 783.199 540.365 773.513 528.716 762.404C518.151 751.975 507.111 742.768 501.219 729.559C500.474 728 498.713 721.972 498.849 719.603C498.853 718.961 498.69 718.331 498.374 717.774C508.752 715.089 518.898 711.577 528.716 707.277C541.178 703.011 553.572 697.254 564.542 689.6C564.97 690.202 565.448 690.765 565.966 691.294C570.829 692.071 575.584 693.438 580.121 695.357ZM589.469 649.236C589.35 649.399 589.26 649.579 589.198 649.776C578.291 674.967 554.588 691.699 526.075 701.182C497.496 713.958 466.031 718.888 434.914 715.472C417.169 714.386 399.56 709.647 385.134 698.948C382.831 697.389 380.326 695.763 377.887 694.001C377.678 693.635 377.428 693.298 377.142 692.988C376.636 692.526 375.995 692.24 375.313 692.172C371.114 689.127 367.39 685.739 365.493 681.878C365.143 681.051 364.893 680.19 364.748 679.306C367.999 664.066 370.031 665.152 360.278 650.519C358.924 647.064 358.382 641.785 358.788 636.838C358.314 633.928 360.549 627.968 360.685 623.77V623.499C361.922 617.466 365.317 612.097 370.234 608.394C371.934 607.178 373.749 606.137 375.652 605.276C383.238 601.894 388.724 604.263 394.887 605.484C395.408 606.03 396.099 606.39 396.847 606.497C397.596 606.61 398.361 606.464 399.018 606.092C399.036 606.092 399.053 606.086 399.066 606.07C399.079 606.058 399.086 606.041 399.086 606.025C401.646 606.177 404.214 605.878 406.671 605.141C411.819 604.803 416.153 608.799 420.691 610.763C426.111 613.251 431.897 614.855 437.826 615.508C471.148 618.282 506.366 603.109 527.7 577.508C532.712 569.043 534.676 556.853 546.054 554.889L547.206 554.754C548.264 554.652 549.33 554.652 550.389 554.754L552.556 555.296L553.775 555.702C556.01 556.785 557.026 557.395 558.584 559.156C558.826 559.437 559.052 559.73 559.261 560.036L560.209 561.73C561.767 565.452 561.225 572.229 562.241 576.967C567.12 596.001 591.838 589.838 595.631 616.656C595.823 627.822 593.729 638.909 589.469 649.236ZM1002.47 768.707C1002.2 763.49 991.43 758.07 987.637 756.443C983.843 754.823 981.609 761.796 985.875 763.017C994.548 765.792 996.917 774.459 1001.18 771.616C1000.51 773.175 999.759 774.734 999.084 776.22C994.294 775.066 989.606 773.524 985.065 771.616C975.717 767.823 962.373 759.359 954.651 753.196C946.935 747.034 936.844 738.361 929.393 731.388C929.618 730.814 929.708 730.195 929.652 729.587C929.59 728.973 929.387 728.382 929.055 727.865C932.235 724.409 935.353 720.824 937.519 716.755C950.655 727.324 974.636 735.451 982.83 743.038C992.584 749.741 1000.98 754.755 1007.95 756.443C1006.19 760.507 1004.36 764.576 1002.47 768.707Z" fill="#452D34"/>
<path d="M1033.08 635.96C1041.01 659.052 1030.92 683.505 1010.6 690.478C990.276 697.457 967.522 693.461 966.982 656.75C966.639 638.262 940.226 620.044 981.879 606.633C1002.4 600.065 1025.16 612.795 1033.08 635.96Z" fill="#EFDCC4"/>
<path d="M995.088 689.6C988.245 689.6 982.217 687.838 977.343 684.45C968.265 678.017 963.527 666.232 963.256 649.438C963.189 644.829 961.09 639.955 959.125 635.143C955.94 627.63 952.693 619.841 956.21 612.052C959.396 605.276 967.185 600.064 980.731 595.663C991.7 592.14 1003.55 593.491 1014.05 599.451C1024.55 605.411 1032.47 615.299 1036.61 627.287C1040.74 639.347 1040.47 652.145 1035.86 663.255C1031.25 674.359 1022.65 682.823 1011.81 686.549C1006.45 688.48 1000.79 689.509 995.088 689.6ZM993.124 601.145C989.697 601.15 986.286 601.702 983.033 602.771C971.923 606.362 965.153 610.56 962.986 615.164C960.819 619.773 963.189 625.666 965.963 632.301C968.265 637.721 970.567 643.343 970.708 649.303C970.91 663.593 974.569 673.413 981.677 678.355C990.552 684.585 1002.81 681.743 1009.38 679.509C1018.18 676.526 1025.16 669.688 1029.02 660.407C1032.89 650.581 1033.08 639.685 1029.56 629.729C1023.6 612.254 1008.7 601.145 993.124 601.145Z" fill="#452D34"/>
</svg>
