<svg width="1127" height="1126" viewBox="0 0 1127 1126" fill="none" xmlns="http://www.w3.org/2000/svg">
<path d="M402.847 817.351C429.792 795.948 440.707 787.253 465.862 763.801L215.336 464.84L212.01 466.631C213.63 472.429 191.971 467.995 186.514 470.553C181.056 473.112 187.878 480.189 184.041 478.739C180.204 477.29 176.281 486.585 176.281 486.585C176.537 490.422 158.63 495.197 153.087 502.871L140.979 512.763C140.979 515.236 130.405 522.143 124.265 525.894C123.736 526.233 123.285 526.681 122.942 527.207C122.598 527.733 122.371 528.326 122.274 528.947C122.177 529.568 122.213 530.202 122.381 530.808C122.548 531.413 122.841 531.976 123.242 532.46L372.576 828.269C381.018 823.919 395.428 823.238 402.847 817.351Z" fill="#CE9C5C"/>
<path d="M477.289 750.327L221.048 444.46C220.355 443.639 219.401 443.081 218.345 442.879C217.29 442.677 216.197 442.845 215.25 443.352C214.303 443.842 213.557 444.646 213.137 445.626C212.718 446.606 212.651 447.7 212.948 448.724L215.25 457.251C215.759 459 215.637 460.873 214.904 462.541C214.171 464.209 212.875 465.567 211.242 466.375C206.211 468.762 200.498 467.995 194.273 464.073C188.048 460.151 183.103 466.631 179.009 472.003C178.369 472.928 178.041 474.033 178.072 475.158C178.242 477.119 177.39 483.43 173.637 486.499C169.886 489.569 167.157 489.058 162.04 487.693C161.327 487.488 160.574 487.458 159.847 487.607C159.119 487.755 158.439 488.077 157.862 488.545L145.754 498.523C144.811 499.396 144.208 500.574 144.048 501.848C143.622 503.809 139.444 510.801 134.669 513.445C132.196 514.809 130.917 514.297 130.405 514.127C129.643 513.861 128.825 513.799 128.031 513.949C127.238 514.099 126.498 514.454 125.886 514.98L125.374 515.321C124.895 515.716 124.498 516.202 124.208 516.752C123.918 517.301 123.74 517.903 123.685 518.522C123.629 519.14 123.697 519.764 123.884 520.356C124.072 520.948 124.376 521.498 124.777 521.972L254.304 674.35C228.978 666.763 191.288 672.988 190.436 700.7C192.141 715.794 208.599 722.531 222.157 721.253C229.52 720.831 236.759 719.16 243.56 716.306C228.126 748.026 246.288 777.702 274.087 756.04C277.255 753.35 279.987 750.187 282.188 746.664C283.296 752.714 285.514 758.257 289.436 762.608C289.033 765.309 289.326 768.067 290.288 770.622C294.552 785.373 312.63 791.175 325.847 784.692C329.002 783.414 334.204 780.685 331.731 776.509C327.723 770.881 323.033 778.467 316.467 778.726C314.711 778.94 312.936 778.94 311.18 778.726H311.095C309.726 778.484 308.384 778.113 307.087 777.617C305.838 777.088 304.663 776.402 303.591 775.569C302.663 774.854 301.832 774.021 301.118 773.098L300.777 772.755C300.052 771.736 299.424 770.65 298.901 769.513L298.645 768.917C311.01 772.412 325.762 758.6 314.676 747.513C306.916 742.06 298.304 746.067 293.359 753.141C292.762 752.134 292.249 751.082 291.823 749.99C289.521 745.724 288.924 733.871 290.033 728.412C290.459 725.176 291.312 721.934 291.994 718.777L383.149 826.052C383.607 826.547 384.16 826.947 384.775 827.222C385.39 827.504 386.055 827.656 386.731 827.667C387.472 827.673 388.203 827.498 388.862 827.16C397.73 822.641 405.916 816.411 413.506 810.361L416.149 808.228C441.048 788.446 452.389 779.407 476.777 756.636C477.653 755.854 478.194 754.757 478.289 753.586C478.384 752.41 478.026 751.245 477.289 750.327ZM309.304 754.166L309.134 753.997C309.219 753.997 309.219 754.081 309.304 754.166ZM302.483 755.443L303.165 755.021L304.785 754.166C305.584 753.856 306.412 753.625 307.257 753.485H308.963L309.304 753.912L309.73 754.593C309.816 754.847 309.901 755.274 309.986 755.443C309.915 755.753 309.887 756.068 309.901 756.383C309.883 756.591 309.825 756.794 309.73 756.98C309.641 757.261 309.496 757.52 309.304 757.745C309.304 757.835 309.304 757.835 309.219 757.919C308.564 758.719 307.712 759.338 306.746 759.709H306.49C305.979 759.962 305.126 759.962 304.614 760.221C303.479 760.306 302.339 760.306 301.203 760.221H301.033L300.01 759.878L299.328 759.625L299.072 759.45C299.903 757.886 301.067 756.518 302.483 755.443ZM141.064 520.522C146.521 516.685 151.467 509.523 153.002 504.747L162.04 497.328C170.823 499.034 176.366 496.391 179.606 493.747C185.661 488.801 187.281 480.871 187.451 476.437C188.503 475.191 189.642 474.022 190.862 472.941C201.436 478.995 209.963 477.375 215.25 474.902C217.591 473.798 219.647 472.17 221.259 470.144C222.87 468.119 223.994 465.749 224.545 463.22L356.971 621.312C354.583 623.191 352.366 625.746 350.149 626.94C330.963 641.865 309.901 657.556 289.521 672.222C287.304 674.524 279.63 678.7 273.917 682.966L137.483 522.484C138.727 521.927 139.925 521.271 141.064 520.522ZM241.173 708.118C236.445 710.11 231.49 711.517 226.421 712.299C222.546 712.794 218.63 712.879 214.738 712.552C212.553 712.254 210.408 711.708 208.343 710.932C205.017 709.401 203.483 708.461 201.265 705.647C199.594 703.413 198.75 700.672 198.878 697.886C199.111 696.811 199.425 695.759 199.816 694.734C201.226 692.061 203.206 689.731 205.614 687.908C205.444 687.998 205.188 688.166 205.529 687.997L205.87 687.739C208.082 686.157 210.454 684.818 212.948 683.732H213.118C222.142 679.978 232.014 678.74 241.684 680.152C246.563 680.918 251.34 682.234 255.924 684.075C259.011 685.476 261.978 687.131 264.793 689.016L265.56 689.359L263.428 691.408C259.882 694.413 256.575 697.695 253.537 701.212C249.674 703.947 245.529 706.266 241.173 708.118ZM280.227 727.478C280.232 727.41 280.263 727.348 280.312 727.303C280.244 727.405 280.214 727.528 280.227 727.647C279.693 730.674 278.864 733.646 277.754 736.516C274.94 742.825 272.211 746.664 266.924 750.924H266.839C265.376 751.999 263.804 752.911 262.149 753.654L261.552 753.912C260.553 754.273 259.526 754.56 258.483 754.762C258.397 754.762 258.312 754.762 258.312 754.847C256.674 755.083 255.004 754.909 253.452 754.334H253.196C252.637 754.025 252.096 753.682 251.575 753.316C251.575 753.226 251.49 753.226 251.49 753.141L250.126 751.779L249.87 751.52L250.041 751.695C241.769 739.927 247.994 722.362 256.607 711.618C257.8 709.997 259.25 708.376 260.699 706.671C264.592 703.88 268.27 700.801 271.699 697.458C271.785 697.548 271.785 697.717 271.87 697.801C274.102 700.79 275.99 704.026 277.498 707.437C278.265 708.889 280.227 715.963 280.227 717.415C280.653 720.752 280.653 724.135 280.227 727.478ZM410.351 800.895L407.707 803.028C401.483 807.975 394.831 813.091 387.839 817.013L284.319 695.241C285.717 695.516 287.087 695.916 288.413 696.439C298.73 702.405 308.878 714.854 324.568 717.668L329.172 718.608C330.234 721.709 331.636 724.681 333.35 727.478C343.839 744.699 363.196 754.678 371.04 772.502C372.064 776.762 380.25 776.846 379.227 770.11C372.575 752.888 353.73 740.608 343.754 727.647C341.636 724.827 339.807 721.794 338.296 718.608C340.556 718.18 342.669 717.179 344.436 715.71C349.126 711.787 349.041 702.917 343.413 699.76C337.785 696.608 329.343 702.574 328.149 709.057C328.157 709.288 328.129 709.519 328.064 709.738C324.947 709.063 321.895 708.123 318.94 706.924C314.933 705.208 311.152 703.002 307.684 700.362C302.227 695.331 293.188 687.485 283.978 686.63C310.583 667.703 336.79 648.146 362.598 627.964L467.141 752.804C445.227 773.183 433.886 782.221 410.351 800.895ZM336.591 710.251V710.082C336.591 709.907 336.676 709.823 336.676 709.738V709.907C337.017 709.226 337.955 707.78 337.273 708.804C337.612 708.32 338.048 707.915 338.552 707.605L338.126 707.864L338.893 707.437C338.978 707.437 339.064 707.437 339.064 707.352H339.149C339.149 707.605 339.234 707.864 339.234 708.033C339.221 707.859 339.192 707.69 339.149 707.521C339.149 707.695 339.234 708.033 339.234 708.202C339.139 708.393 339.082 708.596 339.064 708.804L338.808 709.142L338.552 709.401C338.53 709.401 338.508 709.406 338.492 709.423C338.476 709.44 338.467 709.463 338.467 709.485C338.159 709.575 337.87 709.716 337.614 709.907H337.444L336.505 710.251C336.505 710.166 336.505 710.082 336.591 710.082V710.251ZM338.978 707.009H339.064V707.268L338.978 707.009Z" fill="#452D34"/>
<path d="M339.15 707.352C339.15 707.436 339.235 707.437 339.235 707.521C339.235 707.605 339.15 707.436 339.15 707.352Z" fill="#452D34"/>
<path d="M171.079 540.476C173.297 540.476 175.428 540.561 177.56 540.732L180.459 540.987C180.971 541.073 180.971 541.073 180.459 541.073H181.312L182.932 541.329C187.074 542.019 191.152 543.046 195.126 544.399C196.167 544.567 197.233 544.343 198.118 543.772C199.004 543.201 199.646 542.321 199.922 541.304C200.198 540.287 200.086 539.203 199.61 538.263C199.134 537.323 198.326 536.592 197.343 536.212C188.889 533.321 180.014 531.852 171.079 531.863C169.949 531.863 168.864 532.312 168.064 533.112C167.265 533.912 166.816 534.996 166.816 536.127C166.858 537.244 167.321 538.305 168.112 539.095C168.902 539.885 169.962 540.349 171.079 540.391V540.476Z" fill="white"/>
<path d="M236.739 537.918L231.878 551.561C231.111 553.607 232.731 556.251 234.863 556.762C235.948 557.05 237.103 556.898 238.077 556.339C239.051 555.78 239.765 554.86 240.065 553.778L244.925 540.22C245.215 539.123 245.065 537.957 244.508 536.969C243.95 535.982 243.029 535.251 241.94 534.933C240.856 534.668 239.711 534.83 238.743 535.385C237.775 535.941 237.057 536.848 236.739 537.918Z" fill="white"/>
<path d="M227.188 608.182L245.692 614.75C246.778 615.037 247.933 614.885 248.906 614.322C249.88 613.765 250.594 612.847 250.893 611.761C251.184 610.664 251.034 609.499 250.476 608.514C249.919 607.523 248.998 606.792 247.909 606.476L229.405 599.993C227.359 599.228 224.63 600.848 224.204 602.981C223.916 604.068 224.068 605.221 224.627 606.195C225.186 607.169 226.106 607.883 227.188 608.182Z" fill="white"/>
<path d="M286.708 590.532C286.707 591.928 286.622 593.324 286.452 594.708C286.367 595.648 286.622 593.858 286.452 594.793C286.281 595.732 286.367 595.389 286.281 595.648C286.189 596.368 286.046 597.077 285.855 597.775C285.599 599.059 285.258 600.336 284.917 601.529C284.652 602.199 284.424 602.88 284.235 603.578C284.085 603.842 283.971 604.129 283.894 604.428L283.638 604.94V604.771C283.075 605.784 282.922 606.971 283.212 608.097C283.521 609.166 284.222 610.078 285.173 610.652C286.964 611.592 290.034 611.249 290.971 609.121C293.581 603.263 295.001 596.942 295.15 590.532C295.15 589.401 294.7 588.315 293.901 587.516C293.101 586.716 292.017 586.266 290.886 586.266C289.762 586.289 288.69 586.744 287.896 587.538C287.101 588.332 286.644 589.407 286.622 590.532H286.708Z" fill="white"/>
<path d="M267.095 660.196C275.593 660.652 284.114 660.162 292.506 658.749C294.723 658.322 296.087 655.508 295.49 653.459C295.154 652.384 294.42 651.478 293.438 650.921C292.456 650.369 291.299 650.206 290.203 650.476L287.133 650.988H286.451L284.831 651.157L279.033 651.585C275.056 651.799 271.071 651.799 267.095 651.585C266.532 651.574 265.972 651.675 265.449 651.883C264.927 652.097 264.453 652.412 264.054 652.806C263.656 653.206 263.342 653.679 263.132 654.202C262.922 654.725 262.82 655.283 262.831 655.851C262.853 656.971 263.31 658.046 264.104 658.84C264.899 659.633 265.971 660.089 267.095 660.111V660.196Z" fill="white"/>
<path d="M350.15 658.153L345.801 679.556C345.374 681.774 346.398 684.329 348.785 684.841C351.173 685.353 353.56 684.16 353.987 681.858L358.336 660.455C358.762 658.237 357.738 655.677 355.351 655.164C352.964 654.652 350.576 655.851 350.15 658.153Z" fill="white"/>
<path d="M396.282 711.443C393.678 716.25 392.439 721.675 392.7 727.134C392.87 729.436 394.576 731.569 396.964 731.4C399.351 731.226 401.397 729.52 401.227 727.134C401.156 725.485 401.213 723.831 401.397 722.187V723.296C401.663 721.095 402.237 718.945 403.103 716.902L402.677 717.927L403.7 715.794C404.724 713.83 404.297 711.016 402.165 709.913C401.186 709.372 400.038 709.232 398.959 709.519C397.879 709.806 396.951 710.492 396.367 711.443H396.282Z" fill="white"/>
<path d="M388.351 795.435L389.63 794.923L388.607 795.351C391.817 793.978 395.204 793.06 398.669 792.621H398.925C400.039 792.56 401.094 792.104 401.909 791.344C402.311 790.956 402.631 790.494 402.85 789.982C403.07 789.47 403.185 788.918 403.189 788.361C403.196 787.787 403.087 787.219 402.867 786.69C402.647 786.166 402.321 785.688 401.909 785.288C401.524 784.889 401.059 784.579 400.545 784.371C400.031 784.168 399.478 784.073 398.925 784.095C396.336 784.315 393.77 784.742 391.25 785.373C388.763 786.082 386.338 786.993 384.002 788.102C383.039 788.665 382.335 789.582 382.041 790.663C381.752 791.783 381.904 792.976 382.467 793.989C382.748 794.456 383.118 794.861 383.557 795.182C383.997 795.503 384.496 795.734 385.025 795.863C386.148 796.15 387.338 795.998 388.351 795.435Z" fill="white"/>
<path d="M434.483 749.478C433.825 749.771 433.22 750.176 432.692 750.671C432.367 750.907 432.079 751.194 431.84 751.521C430.861 752.646 430.108 753.952 429.622 755.359C429.476 755.922 429.362 756.49 429.281 757.064C429.168 757.655 429.139 758.258 429.196 758.854C429.251 760.351 429.661 761.814 430.39 763.12C430.953 764.082 431.872 764.786 432.948 765.079C433.49 765.225 434.055 765.264 434.611 765.191C435.167 765.118 435.703 764.938 436.189 764.657C437.152 764.094 437.856 763.171 438.15 762.096C438.434 761.004 438.282 759.839 437.723 758.854C437.628 758.702 437.57 758.528 437.553 758.342L437.979 759.366C437.786 758.933 437.643 758.471 437.553 758.004L437.723 759.197V758.77C437.745 758.207 437.89 757.655 438.15 757.149L437.723 758.173C437.876 757.695 438.139 757.256 438.491 756.896L437.809 757.745C438.053 757.351 438.372 757.002 438.746 756.727L437.894 757.408L438.832 756.811C439.795 756.248 440.5 755.325 440.793 754.25C440.955 753.699 441.002 753.119 440.928 752.545C440.855 751.971 440.664 751.42 440.367 750.924C440.086 750.457 439.716 750.052 439.277 749.731C438.838 749.41 438.338 749.174 437.809 749.05L436.7 748.881C435.947 748.864 435.205 749.073 434.568 749.478H434.483Z" fill="white"/>
<path d="M666.334 787.078C674.523 789.723 695.583 788.53 698.481 787.078C701.38 785.632 700.53 780.854 716.221 782.649C718.511 782.835 720.74 783.476 722.783 784.523C716.558 767.808 703.001 756.636 680.151 754.931C663.864 753.654 653.97 757.661 642.545 768.748C647.83 773.864 660.025 785.12 666.334 787.078Z" fill="#D13535"/>
<path d="M659.857 886.592L658.917 883.694C658.917 883.694 628.475 890.261 563.499 887.785C540.305 886.935 533.824 866.641 550.111 859.73C556.677 857.006 585.072 850.269 570.49 850.776C536.126 851.974 529.134 815.73 552.499 809.765L574.329 809.933C563.158 801.576 561.026 798.25 553.778 790.151C546.53 782.047 535.53 771.646 531.266 764.741C531.266 764.741 530.84 769.091 529.561 771.05C528.282 773.008 522.142 778.13 522.142 778.13L495.281 804.305C495.281 804.305 451.452 842.677 430.646 859.218C409.84 875.764 394.662 877.897 394.662 877.897C423.91 901.343 454.948 930.164 481.979 956.086C501.165 974.422 521.033 992.33 544.739 1004.35C595.135 1029.76 656.446 977.152 693.625 913.708L687.569 911.918C681.243 910.252 675.418 907.078 670.595 902.666C665.766 898.259 662.08 892.738 659.857 886.592Z" fill="#D13535"/>
<path d="M740.607 780.769C731.569 733.871 667.702 729.267 640.924 763.632C637.086 767.554 643.142 773.605 646.98 769.687C649.935 766.491 653.126 763.525 656.531 760.818C677.591 742.482 718.861 745.724 729.694 774.544C729.52 774.117 729.436 774.032 729.436 774.117C730.708 776.998 731.681 779.998 732.334 783.071C733.786 788.361 742.059 786.144 740.607 780.769Z" fill="#452D34"/>
<path d="M700.698 902.795C586.946 1077.94 533.653 969.818 414.785 869.027C442.157 861.266 466.715 833.126 487.948 817.097C506.111 799.274 528.451 783.667 543.033 762.861C547.351 768.708 552.051 774.263 557.103 779.491C561.026 783.414 567.079 777.358 563.157 773.52C556.762 766.615 551.56 760.987 547.041 753.316C546.615 736.516 524.87 718.861 514.723 706.587C510.289 696.349 439.599 727.562 459.638 734.98L472.258 748.622C442.754 773.695 415.296 802.172 381.103 821.02L370.359 808.656C374.622 803.962 367.289 797.653 363.708 803.112C352.367 819.827 354.413 828.691 358.421 831.933C364.39 855.126 377.351 873.034 403.188 871.07C518.219 962.569 582.089 1094.57 702.916 915.328C704.706 912.599 706.411 909.869 708.032 907.055C710.846 902.367 703.428 898.017 700.698 902.795ZM376.498 852.571C372.064 846.172 371.126 841.652 367.886 833.295C400.886 828.866 434.142 790.916 459.638 771.303C477.971 753.997 499.289 738.643 514.211 718.18C521.971 728.074 531.521 736.854 537.661 747.941C538.197 749.1 538.543 750.338 538.684 751.605C538.599 750.327 538.77 753.057 538.684 753.484C538.599 753.912 537.746 757.064 538.002 755.955C510.886 788.873 474.219 817.778 442.328 843.87C424.336 859.048 394.917 872.95 376.498 852.571Z" fill="#452D34"/>
<path d="M537.832 748.284C537.746 748.194 537.746 748.026 537.662 747.941L537.832 748.284Z" fill="#452D34"/>
<path d="M406.684 846.769L409.242 846.516C410.668 846.594 412.087 846.268 413.335 845.576C414.615 845.086 415.776 844.332 416.746 843.358C417.715 842.39 418.47 841.231 418.963 839.948C419.655 838.698 419.98 837.28 419.901 835.856L419.56 833.042C419.065 831.253 418.092 829.632 416.746 828.354L414.614 826.649C412.985 825.692 411.13 825.191 409.242 825.197L406.684 825.456C405.263 825.422 403.856 825.743 402.591 826.39C401.275 826.812 400.097 827.577 399.181 828.607C398.138 829.514 397.37 830.695 396.963 832.018C396.272 833.267 395.947 834.686 396.025 836.109L396.452 838.923C396.878 840.747 397.826 842.407 399.181 843.702L401.312 845.322C402.941 846.274 404.796 846.774 406.684 846.769Z" fill="#D13535"/>
<path d="M444.204 822.214H445.483C446.904 822.248 448.311 821.921 449.576 821.274C450.855 820.785 452.017 820.025 452.987 819.057C453.956 818.089 454.711 816.924 455.204 815.646C455.852 814.38 456.175 812.973 456.142 811.555L455.715 808.656C455.233 806.878 454.292 805.263 452.987 803.963L450.855 802.347C449.235 801.368 447.374 800.867 445.483 800.895H444.204C442.758 800.777 441.31 801.075 440.025 801.745C438.746 802.24 437.584 802.995 436.615 803.963C435.646 804.936 434.89 806.096 434.398 807.373C433.724 808.662 433.429 810.108 433.545 811.555L433.886 814.369C434.403 816.13 435.339 817.74 436.614 819.057L438.746 820.678C440.403 821.651 442.283 822.18 444.204 822.214Z" fill="#D13535"/>
<path d="M481.637 791.175C484.478 791.136 487.194 790.005 489.226 788.018C491.017 786.144 492.466 783.155 492.296 780.516C492.305 777.679 491.203 774.955 489.226 772.924C487.163 770.999 484.459 769.907 481.637 769.856C478.81 769.856 476.099 770.976 474.1 772.98C472.101 774.978 470.978 777.685 470.978 780.516C471.149 783.245 472.001 786.144 474.133 788.018C476.124 790.016 478.819 791.147 481.637 791.175Z" fill="#D13535"/>
<path d="M499.46 754.678V755.956C499.396 757.368 499.689 758.781 500.312 760.047C500.752 761.353 501.515 762.529 502.529 763.464C503.475 764.46 504.644 765.219 505.94 765.675C507.232 766.339 508.669 766.66 510.118 766.615L512.932 766.187C514.708 765.709 516.326 764.764 517.622 763.464L519.328 761.331C520.263 759.693 520.763 757.841 520.777 755.956V754.678C520.821 753.226 520.499 751.791 519.839 750.497C519.347 749.219 518.591 748.06 517.622 747.086C516.653 746.118 515.491 745.364 514.211 744.874C512.94 744.25 511.533 743.957 510.118 744.019L507.219 744.362C505.458 744.874 503.849 745.814 502.529 747.086L500.909 749.219C499.923 750.868 499.421 752.759 499.46 754.678Z" fill="#D13535"/>
<path d="M521.119 962.823C538.094 955.619 555.917 950.605 574.16 947.903L575.094 947.735L576.63 947.56L580.3 947.222C582.512 946.964 584.729 946.795 587.036 946.71C591.578 946.451 596.131 946.451 600.679 946.71L607.584 947.132L610.567 947.476L611.591 947.645L613.465 947.903C617.81 948.556 622.11 949.468 626.342 950.633C628.475 951.23 630.608 951.911 632.651 952.676L633.338 952.935C633.422 953.019 634.531 953.357 633.507 953.019L635.043 953.7C636.067 954.145 637.069 954.657 638.026 955.237L640.755 956.942C641.239 957.206 641.701 957.516 642.117 957.882C642.033 957.792 641.436 957.28 642.033 957.792L642.63 958.304C643.468 959.002 644.262 959.739 645.016 960.521L646.125 961.714L646.637 962.401C646.299 961.799 646.552 962.227 646.811 962.57C648.089 964.36 650.559 965.468 652.608 964.106C654.657 962.739 655.506 960.184 654.144 958.219C648.854 950.971 641.183 946.536 632.741 943.637C624.299 940.739 614.749 939.203 605.626 938.437C586.609 936.901 567.423 939.377 549.003 944.318C538.749 947.082 528.692 950.526 518.902 954.64C517.837 954.955 516.926 955.653 516.344 956.599C515.786 957.584 515.633 958.749 515.917 959.84C516.515 961.889 518.987 963.763 521.119 962.823Z" fill="white"/>
<path d="M272.468 228.809C260.103 228.895 258.654 216.275 257.118 206.81L250.041 215.593C239.809 228.554 219.514 214.313 228.041 200.244C210.561 203.996 205.018 177.391 222.584 173.895L231.964 172.104L223.096 166.988C212.863 161.53 214.995 144.903 226.336 142.345C232.902 139.872 240.747 146.352 246.119 149.251C243.561 138.849 241.002 125.802 254.731 122.562C268.46 119.321 271.188 133.818 272.638 144.391L279.63 135.608C290.716 121.88 311.607 138.592 300.693 152.406L294.467 160.166C318.429 151.639 326.7 178.414 307.94 184.98C321.328 194.787 307.685 215.848 293.188 207.492L283.638 201.949C286.623 213.461 288.328 227.531 272.468 228.809ZM259.08 195.554C259.863 195.558 260.621 195.831 261.227 196.328C261.832 196.825 262.249 197.515 262.405 198.283L265.902 216.616C266.84 222.329 274.855 224.035 278.01 219.089C281.08 216.019 275.623 199.561 275.537 195.98C275.421 195.343 275.489 194.685 275.734 194.085C275.977 193.485 276.387 192.967 276.915 192.591C277.443 192.215 278.067 191.998 278.714 191.964C279.361 191.93 280.004 192.081 280.568 192.399L296.599 201.608C304.018 206.042 310.84 194.275 303.25 190.011L296.77 186.345C294.126 184.895 294.894 180.546 297.879 180.035L305.894 178.5C314.421 177.05 311.863 163.662 303.421 165.368L286.708 168.608C283.723 169.29 281.421 165.453 283.382 163.151C285.343 160.848 298.134 147.461 296.77 143.282C296.343 137.484 288.413 135.182 285.002 139.786L273.32 154.368C271.615 156.585 267.777 155.647 267.351 152.918C265.219 147.205 266.328 126.996 256.01 129.298C254.281 129.629 252.755 130.631 251.763 132.086C250.773 133.54 250.399 135.328 250.723 137.058L254.22 155.22C252.94 169.461 230.514 139.104 224.033 151.98C216.018 164.089 255.84 169.461 242.196 177.05L223.863 180.546C215.336 182.081 217.809 195.469 226.336 193.678L235.545 191.887C238.615 191.29 240.832 195.042 238.871 197.345L234.351 203.058C228.894 209.709 239.467 218.236 244.754 211.329C246.46 209.965 256.436 194.701 259.08 195.554Z" fill="#D13535"/>
<path d="M980.218 329.515C972.8 333.438 978.597 246.631 976.892 245.267C976.881 244.827 976.959 244.39 977.123 243.981C977.286 243.572 977.528 243.201 977.843 242.889C978.153 242.578 978.524 242.334 978.935 242.171C979.34 242.008 979.779 241.93 980.218 241.942C987.726 238.019 981.923 324.825 983.628 326.104C983.628 327.009 983.268 327.876 982.632 328.516C981.991 329.156 981.124 329.515 980.218 329.515Z" fill="#CE9C5C"/>
<path d="M951.397 323.802C948.583 323.887 946.877 320.306 948.752 318.259C951.228 318.089 1007.85 241.43 1011.34 249.019C1012.03 249.599 1012.45 250.425 1012.54 251.319C1012.62 252.213 1012.34 253.102 1011.77 253.794L953.957 322.608C953.637 322.974 953.243 323.269 952.804 323.475C952.359 323.681 951.881 323.792 951.397 323.802Z" fill="#CE9C5C"/>
<path d="M1012.03 321.158C1011.58 321.156 1011.14 321.065 1010.73 320.889C1010.32 320.714 1009.94 320.457 1009.64 320.135L946.112 256.608C945.792 256.298 945.538 255.927 945.364 255.516C945.189 255.107 945.099 254.665 945.099 254.22C945.099 253.775 945.189 253.334 945.364 252.924C945.538 252.514 945.792 252.143 946.112 251.833C948.583 243.732 1012.28 315.701 1014.41 315.36C1014.88 315.836 1015.2 316.44 1015.33 317.095C1015.45 317.75 1015.39 318.429 1015.13 319.047C1014.88 319.664 1014.45 320.193 1013.9 320.568C1013.34 320.944 1012.69 321.149 1012.03 321.158Z" fill="#CE9C5C"/>
<path d="M1020.64 289.096H939.888C938.982 289.096 938.115 288.737 937.473 288.097C936.832 287.457 936.477 286.59 936.477 285.685C932.554 278.267 1019.36 283.98 1020.64 282.275C1024.99 282.275 1025.07 289.181 1020.64 289.096Z" fill="#CE9C5C"/>
<path d="M400.545 465.267C393.041 469.189 398.84 382.383 397.134 381.104C397.134 380.2 397.494 379.332 398.133 378.692C398.773 378.053 399.641 377.693 400.545 377.693C407.964 373.771 402.165 460.577 403.871 461.856C403.882 462.3 403.805 462.741 403.643 463.155C403.481 463.568 403.237 463.945 402.927 464.263C402.617 464.58 402.247 464.833 401.838 465.006C401.429 465.178 400.989 465.267 400.545 465.267Z" fill="#CE9C5C"/>
<path d="M371.637 459.554C370.996 459.551 370.369 459.366 369.828 459.023C369.287 458.679 368.854 458.19 368.578 457.611C368.302 457.033 368.194 456.388 368.268 455.752C368.342 455.115 368.593 454.512 368.994 454.012C371.467 453.841 428.087 377.182 431.583 384.771C432.268 385.351 432.697 386.177 432.777 387.071C432.857 387.965 432.581 388.854 432.01 389.546L374.196 458.36C373.896 458.749 373.507 459.061 373.062 459.269C372.616 459.476 372.128 459.574 371.637 459.554Z" fill="#CE9C5C"/>
<path d="M432.266 456.91C431.383 456.895 430.536 456.562 429.879 455.972L366.351 392.36C366.032 392.05 365.778 391.679 365.604 391.269C365.431 390.859 365.341 390.418 365.341 389.972C365.341 389.527 365.431 389.086 365.604 388.676C365.778 388.266 366.032 387.895 366.351 387.585C368.91 379.484 432.522 451.453 434.654 451.112C436.871 453.158 435.166 457.081 432.266 456.91Z" fill="#CE9C5C"/>
<path d="M440.878 424.848H360.126C359.221 424.848 358.354 424.489 357.714 423.849C357.075 423.209 356.715 422.342 356.715 421.438C352.793 414.019 439.599 419.817 440.878 418.112C445.312 418.027 445.312 424.934 440.878 424.848Z" fill="#CE9C5C"/>
<path d="M511.483 335.228C509.925 335.073 508.356 335.044 506.793 335.143C511.142 346.569 509.095 359.956 514.894 370.701C524.018 369.251 531.095 363.111 531.862 355.182C532.801 345.29 523.677 336.336 511.483 335.228Z" fill="#D13535"/>
<path d="M651.133 344.512C661.995 338.76 667.049 327.012 662.423 318.272C657.797 309.532 645.235 307.11 634.373 312.861C623.511 318.613 618.457 330.361 623.083 339.101C627.715 347.841 640.271 350.264 651.133 344.512Z" fill="#D13535"/>
<path d="M267.863 460.918C252.343 441.561 235.289 422.716 214.568 408.732C201.01 398.584 195.979 411.119 204.762 413.166C214.909 417.259 234.095 435.081 245.777 448.042C251.405 454.125 256.777 460.435 261.893 466.972C265.646 470.894 271.785 464.925 267.863 460.918Z" fill="#452D34"/>
<path d="M178.583 463.477C176.793 462.112 173.723 463.135 172.699 465.011C171.676 466.887 172.358 469.446 174.235 470.895C174.235 470.81 173.467 470.128 173.894 470.639L174.149 470.81C174.389 470.963 174.593 471.167 174.746 471.407L175.343 472.003V472.174C175.965 473.092 176.507 474.062 176.963 475.074H177.049L177.304 475.926L177.816 477.802C177.901 478.058 177.901 478.314 177.986 478.655C177.986 479.252 178.072 479.848 178.072 480.53C178.086 481.072 178.057 481.614 177.986 482.151V482.321C177.986 482.492 177.901 483.003 177.901 483.174C177.901 483.344 177.645 484.197 177.475 484.709C177.304 485.221 177.304 484.965 177.304 485.135L177.134 485.391C176.91 485.836 176.653 486.263 176.366 486.67L175.77 487.267H175.684L175.172 487.608L174.576 487.949L172.273 488.631L171.335 488.802H167.839L167.243 488.631L164.94 488.035L164.343 487.779H164.173L163.576 487.523C162.077 486.774 160.649 485.889 159.312 484.88L158.886 484.538L157.777 483.6C157.095 483.003 156.498 482.321 155.816 481.639C155.146 480.969 154.519 480.257 153.94 479.507L153.343 478.825H153.258L153.087 478.57C153.087 478.655 153.173 478.655 153.258 478.74L152.832 478.058C151.623 476.437 150.54 474.727 149.591 472.942C149.079 472.089 148.653 471.151 148.142 470.213L147.545 468.848L147.289 468.337V468.166C145.689 464.334 144.544 460.328 143.878 456.228V455.802C143.779 455.238 143.722 454.668 143.708 454.096C143.622 453.073 143.537 452.05 143.537 451.027C143.537 450.004 143.537 448.98 143.622 448.042C143.707 447.104 143.708 447.104 143.708 446.593C143.708 446.081 143.792 446.167 143.792 445.91C144.116 444.005 144.572 442.125 145.157 440.283L145.669 438.918C145.669 438.833 145.669 438.748 145.754 438.748C145.758 438.63 145.788 438.513 145.839 438.407C146.242 437.5 146.698 436.617 147.204 435.763C147.715 434.911 148.312 434.229 148.824 433.376C149.335 432.523 149.079 433.12 149.25 432.949L150.273 431.756C150.949 431.008 151.691 430.323 152.491 429.709L153.002 429.283H153.087L154.366 428.43C155.312 427.78 156.31 427.209 157.351 426.725C158.319 426.155 159.023 425.227 159.31 424.141C159.598 423.055 159.445 421.9 158.886 420.926C158.285 419.968 157.342 419.277 156.248 418.991C155.155 418.706 153.994 418.849 153.002 419.391C148.725 421.557 144.984 424.647 142.049 428.437C139.114 432.227 137.059 436.623 136.033 441.306C133.986 450.43 135.181 460.151 138.336 468.848C141.491 477.546 146.265 485.391 153.258 491.104C160.25 496.817 168.01 499.461 176.196 496.732C178.811 495.958 181.15 494.448 182.932 492.383C184.851 489.944 186.061 487.023 186.428 483.942C186.864 480.908 186.681 477.818 185.889 474.857C185.098 471.897 183.715 469.128 181.824 466.717C180.883 465.506 179.794 464.418 178.583 463.477Z" fill="#452D34"/>
<path d="M153.429 478.909C153.429 478.824 153.344 478.824 153.344 478.74H153.429V478.909Z" fill="#452D34"/>
<path d="M215.932 443.864C214.795 442.968 213.566 442.196 212.265 441.561C210.219 440.623 207.576 440.879 206.467 443.096C205.359 445.313 205.785 447.956 208.002 448.895L209.366 449.662L210.049 450.088C210.134 450.088 210.134 450.088 210.134 450.174L211.413 451.282L212.01 451.964V452.135C212.032 452.135 212.054 452.144 212.07 452.16C212.086 452.176 212.095 452.198 212.095 452.22C212.522 452.646 212.265 452.391 212.095 452.135C211.924 451.879 212.777 453.073 212.948 453.499L213.886 455.119L214.141 455.801C214.227 455.801 214.227 455.887 214.227 455.972C214.464 456.555 214.664 457.154 214.824 457.763C214.97 458.296 215.083 458.837 215.165 459.383C215.165 459.724 215.25 459.98 215.25 460.321C215.262 460.863 215.233 461.404 215.165 461.941V462.111C215.165 462.282 215.079 462.709 215.079 462.794C214.976 463.232 214.833 463.66 214.653 464.073L214.227 464.84C214.227 464.925 214.141 464.925 214.141 465.011C214.141 465.096 213.886 465.352 213.8 465.352L213.204 465.864C212.574 466.369 211.887 466.798 211.157 467.143L210.645 467.398L209.793 467.739C209.046 467.991 208.274 468.163 207.49 468.251H203.397L202.374 468.08L199.901 467.398L198.708 466.972L198.281 466.802C196.618 466.056 195.021 465.172 193.506 464.158L191.203 462.538L190.692 462.197L189.584 461.259C188.051 459.925 186.598 458.502 185.234 456.996C184.536 456.267 183.881 455.499 183.273 454.693L182.847 454.182L181.909 452.902C180.702 451.204 179.592 449.439 178.583 447.615C178.05 446.704 177.566 445.765 177.134 444.801C176.878 444.375 176.707 443.949 176.452 443.437C176.417 443.287 176.36 443.143 176.281 443.011C176.281 442.926 176.196 442.84 176.196 442.755C175.443 440.895 174.816 438.986 174.32 437.042C174.064 436.018 173.808 435.081 173.638 434.057C173.467 433.034 173.552 433.546 173.552 433.29C173.521 433.255 173.498 433.215 173.484 433.171C173.469 433.127 173.463 433.08 173.467 433.034V432.778C173.467 432.522 173.382 432.267 173.382 432.011C173.211 430.025 173.211 428.028 173.382 426.042C173.373 425.812 173.402 425.581 173.467 425.36C173.552 424.934 173.552 424.507 173.638 424.081C173.723 423.654 174.064 422.12 174.405 421.181C174.508 420.743 174.651 420.315 174.832 419.902L175.087 419.306C175.491 418.371 175.946 417.46 176.452 416.577C176.942 415.748 177.483 414.951 178.072 414.189L178.583 413.592L179.692 412.313L182.165 410.011C183.87 408.561 183.7 405.492 182.165 404.042C181.769 403.642 181.297 403.325 180.777 403.109C180.258 402.892 179.7 402.781 179.137 402.781C178.575 402.781 178.018 402.892 177.498 403.109C176.979 403.325 176.507 403.642 176.111 404.042C172.483 407.159 169.587 411.036 167.627 415.398C165.666 419.76 164.691 424.5 164.769 429.282C164.94 438.662 168.351 447.872 173.467 455.546C178.583 463.22 184.979 469.786 193.08 473.708C201.18 477.631 209.366 478.398 216.7 473.879C219.056 472.506 220.977 470.497 222.242 468.08C223.519 465.43 224.049 462.482 223.777 459.554C223.265 453.67 220.622 447.615 215.932 443.864Z" fill="#452D34"/>
<path d="M144.731 488.888C143.281 487.182 140.126 487.352 138.677 488.888C137.94 489.664 137.515 490.684 137.483 491.754C137.452 492.824 137.816 493.868 138.506 494.686C138.484 494.686 138.462 494.677 138.446 494.661C138.43 494.645 138.421 494.623 138.421 494.6L138.677 494.942L139.188 495.709C139.284 495.944 139.399 496.173 139.529 496.391L139.7 496.647C139.956 497.841 140.382 498.949 140.638 500.058V500.228C140.619 500.544 140.648 500.86 140.723 501.166V503.127C140.656 503.435 140.628 503.75 140.638 504.066C140.467 504.748 140.382 505.345 140.211 505.941C140.064 506.527 139.864 507.097 139.615 507.647C139.525 507.981 139.381 508.298 139.188 508.585L138.335 509.864C138.335 509.875 138.333 509.886 138.329 509.897C138.325 509.907 138.319 509.916 138.311 509.924C138.303 509.932 138.293 509.938 138.283 509.943C138.272 509.947 138.261 509.949 138.251 509.949L137.568 510.632C137.568 510.717 137.568 510.717 137.483 510.717H137.653L137.397 510.887C137.397 510.973 137.312 510.973 137.312 511.058H137.056L136.289 511.484L134.754 511.91H131.258L130.661 511.74L128.444 511.143H128.188L127.25 510.632C126.527 510.276 125.841 509.847 125.204 509.353C124.978 509.253 124.774 509.108 124.607 508.926L125.033 509.267L124.01 508.414C122.766 507.328 121.624 506.129 120.599 504.833L120.258 504.407L119.491 503.213C118.958 502.448 118.474 501.651 118.041 500.825L116.762 498.438L116.165 497.073C116.07 496.918 116.012 496.743 115.995 496.562C114.477 492.809 113.418 488.886 112.84 484.879C112.803 484.739 112.774 484.597 112.754 484.453C112.669 483.856 112.669 483.345 112.584 482.748C112.498 482.151 112.413 480.701 112.413 479.678C112.299 477.63 112.356 475.577 112.584 473.538C112.584 473.027 112.669 472.515 112.669 472.089C112.733 471.897 112.761 471.695 112.754 471.492C112.925 470.469 113.181 469.531 113.351 468.508C113.78 466.582 114.379 464.699 115.141 462.88C115.227 462.709 115.227 462.624 115.312 462.538L115.995 461.089L117.359 458.616L118.212 457.422L118.553 456.91C119.235 456.228 119.746 455.461 120.343 454.779L122.475 452.817L123.072 452.391C123.049 452.391 123.027 452.4 123.012 452.416C122.996 452.432 122.987 452.454 122.987 452.476L124.181 451.624C125.033 451.027 125.971 450.6 126.824 450.089L128.188 449.492L128.956 449.236C129.979 448.834 131.034 448.52 132.111 448.298C132.654 448.147 133.162 447.891 133.606 447.543C134.05 447.196 134.421 446.764 134.698 446.273C134.975 445.782 135.153 445.241 135.221 444.681C135.289 444.122 135.246 443.554 135.095 443.011C134.944 442.468 134.687 441.96 134.34 441.516C133.992 441.072 133.561 440.701 133.07 440.424C132.579 440.147 132.038 439.969 131.478 439.901C130.919 439.833 130.352 439.876 129.809 440.027C125.199 441.16 120.894 443.29 117.196 446.266C113.499 449.241 110.498 452.991 108.405 457.252C104.312 465.437 103.118 474.988 104.142 484.112C105.165 493.236 107.808 501.849 113.095 509.096C118.382 516.345 124.948 520.95 133.475 520.779C136.157 520.777 138.796 520.103 141.149 518.818C143.795 517.213 145.879 514.831 147.119 511.996C148.481 509.014 149.193 505.776 149.208 502.497C149.222 499.219 148.539 495.975 147.204 492.98C146.556 491.517 145.725 490.141 144.731 488.888ZM139.7 496.817C139.87 497.073 139.956 497.329 139.7 496.817V496.817Z" fill="#452D34"/>
<path d="M137.482 510.802L137.056 511.142L137.397 510.887C137.482 510.887 137.482 510.887 137.482 510.802Z" fill="#452D34"/>
<path d="M725.084 783.843C698.227 818.117 703 868.769 718.949 906.887C722.782 912.346 729.519 906.29 725.68 901.175C720.919 889.643 717.649 877.548 715.961 865.189C714.425 852.813 714.425 840.302 715.961 827.926C716.473 822.552 719.715 809.506 721.932 804.649C723.795 800.378 726.108 796.314 728.838 792.538L731.055 789.893C734.978 785.97 728.922 779.92 725.084 783.843Z" fill="#452D34"/>
<path d="M291.824 485.306C284.832 485.562 260.7 497.158 266.584 505.941C271.615 510.205 274.685 502.36 278.437 500.058C278.181 500.313 278.096 500.313 278.181 500.313C280.541 498.471 283.119 496.925 285.855 495.709C286.708 495.368 291.739 493.748 294.127 493.577C299.499 492.213 297.196 483.941 291.824 485.306Z" fill="#452D34"/>
<path d="M633.934 983.889C636.404 988.83 634.53 1000.86 642.376 1000.09C649.112 997.531 642.544 986.872 642.201 981.671C641.863 976.471 632.482 978.598 633.934 983.889Z" fill="#452D34"/>
<path d="M678.362 550.879C699.934 549.77 762.523 512.251 747.001 475.243L768.747 478.995C774.972 481.979 782.474 488.545 778.979 494.429C777.02 497.755 770.537 504.406 766.783 505.344C772.754 510.119 771.904 523.933 769.687 531.181C768.494 534.792 766.282 537.98 763.316 540.357C760.35 542.734 756.754 544.197 752.972 544.569C746.488 544.995 737.962 543.374 735.491 549.258C734.636 551.305 734.979 553.522 734.895 555.739C734.81 568.701 719.547 579.017 707.352 574.329C701.808 572.111 695.842 567.423 690.636 570.322C688.509 571.515 687.226 573.732 685.864 575.691C682.026 580.981 676.741 585.585 670.342 587.206C663.949 588.827 656.531 586.778 652.777 581.403C650.475 578.167 649.794 574.07 648.004 570.575C646.209 567.08 642.714 563.754 638.876 564.435C635.043 565.121 633.338 568.532 630.608 570.834C624.896 575.606 615.002 574.329 610.742 568.189C604.427 559.235 605.879 541.499 597.949 533.909C596.497 538.77 588.314 539.196 581.234 537.832C576.287 536.894 571.256 534.506 569.55 529.731C566.055 519.328 596.582 490.251 598.202 501.08C603.149 534.933 653.97 552.072 678.362 550.879Z" fill="#EFDCC4"/>
<path d="M555.056 852.824C564.434 856.662 580.041 859.729 597.178 859.729C602.71 859.752 608.231 859.442 613.724 858.795C614.962 858.621 616.082 857.974 616.848 856.989C617.613 855.998 617.962 854.749 617.816 853.505C617.731 852.897 617.529 852.306 617.219 851.777C616.91 851.242 616.493 850.781 616.003 850.41C615.514 850.038 614.951 849.762 614.355 849.61C613.758 849.453 613.139 849.413 612.531 849.498C591.043 852.143 569.466 848.564 558.638 844.129C549.94 840.544 543.459 832.788 543.886 826.389C544.312 819.996 549.94 818.375 554.63 817.182C555.236 817.041 555.808 816.782 556.311 816.417C556.814 816.051 557.237 815.589 557.556 815.055C557.874 814.52 558.082 813.929 558.165 813.31C558.249 812.696 558.206 812.066 558.041 811.47C557.72 810.265 556.943 809.241 555.876 808.605C554.809 807.969 553.537 807.772 552.328 808.059C541.669 810.783 535.189 817.266 534.591 825.793C533.824 836.283 542.436 847.624 555.056 852.824Z" fill="#452D34"/>
<path d="M615.598 359.787H615.514C615.429 359.872 615.345 360.042 615.17 360.128C610.994 363.368 600.588 369.166 593.345 372.321C592.383 372.751 591.381 373.094 590.357 373.345C584.903 373.43 584.903 381.872 590.441 381.872C602.237 378.702 613.15 372.867 622.335 364.818C625.064 360.469 618.755 356.376 615.598 359.787Z" fill="#452D34"/>
<path d="M700.27 306.747C711.104 298.732 726.193 279.376 712.725 267.608C708.543 263.515 696.348 265.05 699.505 272.554C700.124 273.542 701.103 274.249 702.234 274.52C703.366 274.791 704.564 274.605 705.561 274.003L705.898 273.833H707.097C706.5 273.748 707.35 274.089 707.862 274.344L708.712 275.197C708.836 275.436 708.982 275.665 709.14 275.88C709.236 276.311 709.348 276.738 709.483 277.158C709.523 277.697 709.523 278.239 709.483 278.779V279.376C709.236 280.872 708.808 282.333 708.206 283.724C706.326 288.67 700.27 296.259 696.01 299.073C691.744 301.887 695.582 309.561 700.27 306.747ZM707.947 274.515C708.116 274.629 708.206 274.714 708.206 274.771C708.093 274.714 708.003 274.625 707.947 274.515ZM709.055 275.88C709.055 275.965 709.055 275.965 709.14 276.05C709.089 276.006 709.061 275.945 709.055 275.88Z" fill="#452D34"/>
<path d="M609.289 288.5L608.777 288.841C607.871 289.308 607.06 289.945 606.391 290.717C599.142 298.22 609.886 310.841 618.581 305.128C629.156 298.647 620.202 282.531 609.289 288.5Z" fill="#452D34"/>
<path d="M525.297 305.213L524.785 305.554C523.849 305.936 523.027 306.552 522.398 307.345C515.15 314.934 525.894 327.554 534.592 321.84C545.165 315.36 536.212 299.244 525.297 305.213Z" fill="#452D34"/>
<path d="M572.707 349.213C570.152 349.383 569.297 349.383 567.248 348.701H566.995L565.717 347.934C564.794 347.278 564.063 346.397 563.584 345.376C563.515 345.086 563.429 344.802 563.328 344.523V343.073C564.862 338.469 571.768 330.965 569.128 321.755C568.273 317.151 566.736 313.655 567.079 309.562C567.248 304.104 558.638 304.019 558.552 309.562C558.467 315.104 560.258 319.794 561.111 324.91C561.238 325.929 561.238 326.961 561.111 327.98C560.877 329.354 560.354 330.662 559.576 331.817C547.553 346.399 561.025 362.43 577.823 356.717C584.56 353.391 579.697 345.887 572.707 349.213Z" fill="#452D34"/>
<path d="M545.677 290.888C533.142 285.004 516.002 288.159 506.878 298.732C503.041 302.655 509.095 308.709 512.933 304.787C514.025 303.467 515.254 302.267 516.6 301.205C518.39 299.585 524.529 297.198 526.917 297.112C530.839 296.601 535.189 296.259 537.917 296.942L540.049 297.624H540.22C544.995 301.717 551.049 294.384 545.677 290.888Z" fill="#452D34"/>
<path d="M629.071 271.53C616.622 265.561 599.394 268.716 590.356 279.375C586.433 283.212 592.489 289.352 596.412 285.344C597.526 284.045 598.753 282.846 600.081 281.763C601.786 280.143 608.011 277.755 610.397 277.67C614.32 277.158 618.67 276.817 621.394 277.584L623.527 278.181H623.702C628.39 282.274 634.53 274.941 629.071 271.53Z" fill="#452D34"/>
<path d="M560.599 673.241C560.77 704.792 564.266 736.432 566.055 767.893C559.064 769.514 554.118 773.611 552.072 779.661C548.747 789.639 554.289 802.854 565.206 810.958C576.118 819.057 597.094 828.438 620.461 831.506H621.058C622.2 831.5 623.298 831.084 624.159 830.329C625.02 829.581 625.583 828.545 625.746 827.414C625.892 826.182 625.543 824.943 624.772 823.97C624.007 822.991 622.887 822.36 621.654 822.214C600.167 819.4 580.21 810.53 570.749 803.45C563.243 797.828 558.979 788.699 561.026 782.649C563.072 776.594 568.785 776.425 573.563 776.425H573.732C574.976 776.425 576.169 775.929 577.047 775.046C577.925 774.168 578.42 772.975 578.42 771.731C578.409 770.712 578.071 769.727 577.458 768.911C576.844 768.101 575.989 767.504 575.01 767.212C574.841 762.861 573.473 757.661 573.816 754.678C570.575 713.149 566.568 671.198 571.43 629.67C571.858 626.602 572.961 621.993 568.954 620.974C566.911 620.462 564.097 621.571 563.669 623.957C561.952 636.108 560.955 648.354 560.685 660.623L559.832 661.304C553.377 668.086 546.515 674.463 539.281 680.406C529.475 688.336 516.429 696.946 504.576 704.623C499.801 707.437 504.064 714.855 508.84 712.041C513.615 709.227 546.871 687.486 560.599 673.241Z" fill="#452D34"/>
<path d="M965.551 920.191C960.863 901.686 955.404 883.266 951.566 864.508C999.066 810.53 1007.33 726.622 979.194 658.49C945.426 569.467 865.357 505.003 777.189 473.964C754.165 469.445 739.414 454.864 730.032 436.189C732.249 435.422 734.467 434.654 735.491 434.143C848.388 379.569 762.95 150.786 675.035 124.096C639.731 113.352 603.065 104.484 536.979 142.259C523.591 149.933 511.227 141.151 486.754 158.461C443.948 188.817 443.436 267.437 460.32 294.297C462.11 297.197 466.46 302.825 466.886 305.212C473.025 339.577 499.374 516.344 601.528 472.6C601.888 472.445 602.209 472.212 602.468 471.918C603.284 474.005 603.858 476.18 604.173 478.398C604.37 480.068 604.398 481.754 604.258 483.43C604.145 484.005 604.005 484.574 603.83 485.135C603.802 485.341 603.746 485.542 603.661 485.732C603.487 485.969 603.346 486.227 603.234 486.499H603.149L602.637 487.011H602.468C602.384 487.011 602.384 487.011 602.384 487.096C602.384 487.181 600.932 487.352 602.125 487.181C532.971 496.817 471.746 539.026 419.219 583.283C385.537 557.445 350.576 529.22 317.32 501.081C293.614 483.003 276.304 449.321 241.258 461.344C237.421 462.793 230.172 464.67 232.816 470.127C233.43 471.069 234.373 471.748 235.461 472.032C236.549 472.316 237.704 472.184 238.7 471.662C258.738 461.259 275.281 471.747 288.754 485.732C279.63 488.119 261.382 498.096 266.584 505.856C271.615 510.119 274.684 502.274 278.436 499.972C278.18 500.228 278.095 500.228 278.18 500.228C280.541 498.385 283.118 496.839 285.855 495.623C286.708 495.282 291.739 493.662 294.126 493.491C294.524 493.391 294.9 493.217 295.235 492.98C295.734 493.48 296.191 494.022 296.599 494.6C329.855 523.421 364.219 551.135 398.924 578.336C404.809 582.771 410.436 587.375 416.32 591.725L417.258 592.406L418.196 592.834C425.103 596.498 444.886 612.785 447.614 603.493C448.894 597.522 438.32 596.329 433.971 592.575L426.552 588.14C473.707 547.98 528.537 511.654 589.422 497.755C553.777 520.011 584.132 546.7 599.823 530.499C602.125 539.708 599.395 552.925 609.289 559.918C619.178 566.912 630.946 562.135 636.405 554.631L636.664 554.46L637.17 554.119H637.26L637.682 553.949H638.279L638.966 554.119L639.815 554.631C639.838 554.631 639.86 554.64 639.877 554.656C639.894 554.672 639.9 554.694 639.9 554.716H639.984C641.11 555.742 642.01 556.991 642.629 558.383L642.798 558.724C649.113 584.73 677.506 581.15 689.105 561.026L690.383 559.662H690.467C690.49 559.662 690.512 559.653 690.529 559.637C690.546 559.621 690.552 559.599 690.552 559.577L690.979 559.406L691.745 559.151H693.028C693.872 559.287 694.699 559.516 695.499 559.832L696.18 560.088C714.853 573.052 739.667 558.212 737.281 537.321C737.298 537.057 737.354 536.799 737.45 536.554V536.383C737.585 536.195 737.697 535.995 737.793 535.786L738.046 535.616L738.902 535.018L740.86 534.507H741.372C764.481 537.747 781.111 516.344 768.831 498.267C776.08 494.685 777.616 488.119 774.887 482.15C833.468 503.212 887.868 538.003 927.439 586.435C1012.71 685.78 1014.75 858.621 872.78 904.5C825.28 919.335 774.802 916.094 726.79 904.928C726.936 903.577 726.537 902.226 725.681 901.174C720.92 889.642 717.65 877.548 715.962 865.189C714.425 852.813 714.425 840.302 715.962 827.926C716.474 822.551 719.716 809.505 721.933 804.648C723.796 800.377 726.109 796.313 728.839 792.537L731.056 789.892C731.456 789.476 731.776 788.98 731.996 788.446L733.189 788.699C746.488 789.982 759.877 789.042 773.182 788.958C809.167 788.277 845.062 784.776 880.282 777.443C885.651 776.424 883.434 768.151 878.065 769.175C872.69 770.194 866.55 771.562 860.837 772.502C860.668 771.657 860.252 770.886 859.644 770.284C857.005 767.892 850.093 754.419 849.069 751.436C837.132 722.531 829.715 686.799 825.707 658.321C823.749 643.823 821.954 622.679 823.574 611.249C825.792 605.367 817.693 601.614 815.56 607.669C811.891 654.995 823.49 703.086 838.5 747.772C841.91 756.811 845.833 766.187 851.714 773.948C815.048 779.576 777.87 780.943 740.691 780.853C726.621 780.341 712.551 775.822 698.825 781.028C695.639 782.12 692.583 783.549 689.702 785.288H673.414C669.587 785.39 665.85 784.151 662.839 781.793C644.081 767.211 618.924 749.9 605.62 750.586C588.736 751.605 584.903 758.257 584.048 761.246C583.198 764.228 578.763 774.972 589.507 786.571C596.232 793.702 603.695 800.101 611.76 805.667C612.531 806.23 613.454 806.528 614.405 806.523C615.424 806.54 616.414 806.224 617.236 805.628C618.058 805.031 618.665 804.181 618.964 803.208C619.262 802.24 619.234 801.193 618.891 800.242C618.547 799.285 617.9 798.469 617.05 797.912C609.571 792.7 602.626 786.757 596.328 780.172C589.079 772.243 592.236 765.849 592.574 765.253C592.833 764.836 593.007 764.369 593.086 763.885C593.345 763.463 595.731 760.559 606.132 759.962C613.808 759.54 633.422 770.706 657.043 789.211C661.793 792.886 667.663 794.811 673.668 794.67H679.296C666.762 810.957 667.612 835.94 664.888 857.006C664.134 862.617 664.477 868.323 665.907 873.799C656.187 876.529 624.552 884.29 579.191 884.29C574.328 884.29 569.297 884.206 564.181 883.947C553.692 883.609 547.638 878.065 547.296 873.034C547.126 869.792 549.428 867.491 553.777 866.81C554.388 866.703 554.971 866.477 555.494 866.145C556.017 865.813 556.47 865.38 556.826 864.873C557.183 864.367 557.435 863.799 557.57 863.191C557.706 862.589 557.721 861.964 557.614 861.35C557.508 860.743 557.282 860.157 556.951 859.634C556.619 859.11 556.187 858.66 555.681 858.3C555.173 857.945 554.602 857.692 553.997 857.557C553.393 857.422 552.767 857.411 552.157 857.512C541.754 859.392 537.49 866.894 538.002 873.631C538.599 883.013 547.638 892.732 563.838 893.329C569.212 893.582 574.413 893.672 579.529 893.672C627.451 893.672 660.025 885.314 669.317 882.669C676.909 897.42 692.938 906.971 711.015 909.785C770.964 925.644 837.391 930.676 895.286 904.928C913.656 897.263 930.365 886.113 944.492 872.094C950.288 898.36 959.755 928.543 964.105 951.314C964.443 953.531 965.895 955.748 968.365 955.574C970.842 955.405 972.969 953.7 972.631 951.314C971.095 940.823 968.112 930.591 965.551 920.191ZM603.746 454.778C609.452 454.51 615.097 453.507 620.545 451.794C638.538 447.019 654.91 437.127 669.233 425.359C673.155 421.522 667.274 415.553 663.267 419.391L660.11 421.863C645.955 432.693 627.62 443.011 608.524 445.569C605.451 446.166 594.707 446.166 591.893 445.569C586.524 444.814 581.273 443.352 576.287 441.22C573.816 440.453 563.413 434.313 561.537 432.522C554.923 427.288 548.993 421.243 543.886 414.53C530.839 397.561 521.289 376.158 515.576 354.329C509.863 332.499 502.955 308.965 497.668 286.027C499.428 285.386 501.139 284.616 502.785 283.724C521.63 273.065 513.87 226.336 518.56 225.654C523.25 224.972 528.281 266.329 553.692 266.414C581.065 266.499 624.637 254.902 658.061 243.305C661.297 249.52 665.85 254.953 671.405 259.224C676.954 263.496 683.376 266.503 690.214 268.034C691.356 268.282 692.555 268.159 693.624 267.684C694.699 267.209 695.594 266.406 696.18 265.39C707.182 247.739 717.498 257.29 720.909 263.344C720.729 264.076 720.757 264.845 720.993 265.561C721.838 268.235 722.468 270.972 722.867 273.747C723.638 279.375 723.126 288.499 720.143 295.236C720.228 294.895 720.312 294.809 720.312 294.895C719.344 297.021 718.174 299.049 716.817 300.949C715.579 302.514 714.178 303.943 712.636 305.212L712.467 305.383C708.201 308.367 705.134 309.817 699.933 310.584C697.457 310.84 695.926 311.011 694.221 310.414C691.233 308.111 684.586 313.569 690.214 317.833C697.632 319.964 704.368 319.367 710.081 316.894C698.909 328.065 702.404 343.073 704.537 356.631C704.74 358.295 705.229 359.911 705.989 361.406C706.074 366.267 706.327 371.127 706.67 375.988V377.096C708.544 400.205 713.322 423.484 724.319 443.778C728.023 451.249 732.987 458.028 738.986 463.817C738.907 464.152 738.879 464.497 738.902 464.84C739.031 466.116 739.031 467.402 738.902 468.677C736.515 481.724 726.706 496.05 719.8 506.111C715.602 511.403 710.829 516.209 705.561 520.437C700.654 524.169 695.335 527.317 689.702 529.817C678.615 534.422 668.895 535.871 657.127 534.422C651.831 533.616 646.648 532.185 641.689 530.158C635.212 527.771 625.064 520.437 620.714 514.298C618.063 510.819 615.778 507.075 613.893 503.127C611.934 498.096 610.994 494.344 611.422 489.228C615.514 480.359 609.633 465.352 603.746 454.778ZM602.637 487.011C602.98 486.84 603.318 486.414 602.637 487.011V487.011ZM625.661 553.267C625.83 553.011 626.004 552.84 625.661 553.267V553.267ZM637.26 554.119C637.345 554.119 637.429 554.034 637.429 554.119H637.26ZM726.109 548.918C726.621 548.15 726.88 547.639 726.109 548.918V548.918ZM767.807 488.204C767.807 488.119 767.807 488.119 767.891 488.034C767.869 488.023 767.846 488.021 767.818 488.029C767.796 488.037 767.779 488.054 767.767 488.077C767.756 488.099 767.751 488.126 767.762 488.149C767.767 488.173 767.784 488.193 767.807 488.204ZM767.891 487.863C767.807 488.034 767.807 488.204 767.722 488.29C767.655 488.469 767.57 488.641 767.469 488.801H767.379L766.783 489.399H766.698C766.073 489.818 765.421 490.189 764.74 490.507C763.293 491.034 761.807 491.461 760.305 491.786C754.333 494.855 757.834 498.523 761.245 501.763C761.329 501.848 761.329 501.933 761.413 501.933C762.038 502.881 762.578 503.879 763.034 504.918H763.119C763.575 506.227 763.946 507.566 764.227 508.925C764.357 510.287 764.357 511.657 764.227 513.019C764.07 514.284 763.721 515.52 763.203 516.685C762.691 517.774 762.061 518.803 761.329 519.755C759.449 522.313 755.104 525.212 751.435 525.553C739.07 525.298 727.049 525.809 728.585 542.778C728.417 543.767 728.163 544.737 727.814 545.677C727.803 545.767 727.775 545.854 727.73 545.933C727.646 545.933 727.646 546.018 727.646 546.104L725.94 549.088C725.856 549.173 725.771 549.259 725.771 549.344C724.764 550.606 723.622 551.75 722.361 552.755C719.811 554.743 716.778 556.01 713.576 556.422C711.24 556.655 708.876 556.364 706.67 555.569C681.513 541.84 685.948 559.747 669.829 567.593C668.721 568.02 667.584 568.364 666.419 568.617H666.334C664.837 568.831 663.312 568.831 661.815 568.617H661.562C660.706 568.442 659.17 568.274 658.489 567.761L657.892 567.424L656.446 566.568C654.397 564.863 654.144 564.266 652.945 561.708C649.366 547.895 637.941 538.088 625.577 553.267H625.492C625.025 553.557 624.541 553.814 624.04 554.034H623.787L621.485 554.631H618.924C618.075 554.29 616.966 554.29 616.195 553.864H616.026C614.799 553.412 613.713 552.647 612.869 551.646C612.7 551.561 612.615 551.305 612.447 551.135C611.996 550.483 611.597 549.799 611.248 549.088C608.349 541.755 610.567 533.228 606.819 524.786C605.198 519.67 598.287 514.809 595.9 521.802V521.972C595.9 522.057 595.816 522.143 595.816 522.228C595.304 523.323 594.544 524.285 593.598 525.042C593.683 524.957 593.767 524.957 593.514 525.127H593.345C592.27 526.008 590.97 526.569 589.591 526.748H587.627C586.299 526.503 585.044 525.953 583.963 525.138C582.883 524.324 582.005 523.269 581.403 522.057C581.352 521.681 581.268 521.31 581.149 520.949C581.065 520.441 581.065 519.922 581.149 519.414C581.403 516.77 587.374 509.608 591.64 506.538C595.208 503.866 599.035 501.552 603.065 499.631L604.005 499.46C606.729 510.887 614.49 521.205 623.359 528.708C658.151 557.615 711.274 540.135 732.334 502.871C738.305 492.724 745.723 482.065 747.259 470.298C750.326 472.363 753.545 474.187 756.894 475.755C756.984 476.386 757.226 476.986 757.598 477.506C757.969 478.024 758.459 478.448 759.027 478.739C760.496 479.51 761.92 480.364 763.288 481.298L763.546 481.468C764.7 482.381 765.753 483.41 766.698 484.538C767.07 485.087 767.413 485.657 767.722 486.244L767.981 487.011L767.891 487.863ZM700.868 898.101C682.881 893.672 670.769 875.595 673.33 857.259C675.457 842.677 675.716 827.667 678.958 813.259C680.939 805.836 685.351 799.291 691.491 794.67H691.576C692.471 794.67 693.349 794.411 694.108 793.927C694.863 793.449 695.465 792.757 695.842 791.941C703.597 787.765 713.064 786.397 722.614 787.078C699.421 819.996 703.175 866.213 717.245 902.62C711.786 901.174 706.327 899.722 700.868 898.101Z" fill="#452D34"/>
<path d="M727.645 546.188H727.73C727.73 546.103 727.814 545.933 727.814 545.848C727.814 545.763 727.645 546.018 727.645 546.188Z" fill="#452D34"/>
<path d="M593.255 525.298H593.345C593.43 525.213 593.43 525.128 593.514 525.128L593.255 525.298Z" fill="#452D34"/>
<path d="M595.731 522.312C595.731 522.289 595.742 522.268 595.754 522.252C595.771 522.236 595.793 522.227 595.815 522.227C595.821 522.161 595.849 522.101 595.9 522.057C595.9 521.887 595.731 522.057 595.731 522.312Z" fill="#452D34"/>
<path d="M623.872 554.205H624.04L623.787 554.376L623.872 554.205Z" fill="#452D34"/>
<path d="M457.931 234.607C457.316 235.319 456.773 236.09 456.312 236.91C455.855 237.781 455.484 238.695 455.203 239.638C454.978 240.562 454.835 241.503 454.776 242.452C454.692 243.103 454.692 243.762 454.776 244.413C454.759 244.973 454.876 245.528 455.118 246.034C455.3 246.566 455.624 247.038 456.056 247.398C456.437 247.808 456.899 248.133 457.413 248.353C457.926 248.574 458.481 248.684 459.04 248.677C460.163 248.652 461.232 248.194 462.025 247.398L462.707 246.545C463.111 245.909 463.319 245.167 463.304 244.413C463.218 243.649 463.218 242.876 463.304 242.111L463.133 243.22C463.27 242.4 463.499 241.599 463.816 240.832L463.389 241.856C463.692 241.139 464.063 240.454 464.498 239.809L463.901 240.661C464.332 240.301 464.657 239.829 464.839 239.297C465.081 238.792 465.197 238.237 465.18 237.677C465.158 236.553 464.702 235.481 463.907 234.687C463.112 233.891 462.04 233.436 460.916 233.414L459.808 233.584C459.073 233.726 458.41 234.118 457.931 234.692V234.607Z" fill="white"/>
<path d="M456.227 261.639C455.118 267.608 455.63 273.832 458.699 279.204C460.18 281.804 462.26 284.011 464.767 285.643C467.274 287.274 470.135 288.283 473.11 288.584C476.346 288.892 479.598 288.176 482.405 286.538C483.373 285.968 484.077 285.04 484.365 283.954C484.652 282.869 484.499 281.713 483.94 280.74C483.354 279.765 482.411 279.06 481.311 278.773C480.211 278.486 479.043 278.641 478.056 279.204C477.971 279.29 477.118 279.801 477.118 279.716C477.118 279.631 477.8 279.46 477.459 279.546L477.033 279.716L476.01 279.972H475.754C475.242 280.086 475.328 280.086 476.01 279.972C475.839 279.801 475.157 279.972 474.901 280.057H473.025L471.064 279.546L470.723 279.375C470.382 279.205 470.552 279.29 471.064 279.46C471.576 279.631 470.211 279.034 470.041 278.949L468.506 278.011L468.762 278.181L468.335 277.84C468.087 277.635 467.858 277.406 467.653 277.158L466.971 276.391C466.374 275.708 467.312 276.987 466.886 276.305C466.467 275.711 466.096 275.083 465.777 274.429C465.546 274.078 465.346 273.707 465.18 273.321L465.436 273.747L465.18 273.15C464.942 272.48 464.743 271.797 464.583 271.104C464.486 270.8 464.429 270.484 464.413 270.166C464.327 269.995 464.327 269.74 464.242 269.569C464.157 269.398 464.327 270.251 464.327 269.74C464.225 269.005 464.168 268.264 464.157 267.522C464.143 266.811 464.171 266.099 464.242 265.39C464.224 265.075 464.253 264.759 464.327 264.453C464.242 265.049 464.242 265.135 464.327 264.623C464.413 264.112 464.413 264.197 464.413 264.026C464.839 261.809 463.816 259.336 461.428 258.739C459.041 258.143 456.653 259.421 456.227 261.724V261.639Z" fill="white"/>
<path d="M762.437 398.84L765.251 392.956C765.584 392.513 765.764 391.975 765.764 391.421C765.865 390.854 765.837 390.27 765.679 389.716C765.527 389.184 765.263 388.69 764.908 388.266C764.649 387.772 764.227 387.382 763.715 387.158C762.702 386.594 761.514 386.442 760.389 386.731C759.865 386.879 759.381 387.127 758.959 387.464C758.532 387.801 758.177 388.219 757.918 388.692L755.104 394.576C754.772 395.019 754.592 395.557 754.592 396.111C754.406 396.671 754.44 397.278 754.677 397.817C754.761 398.355 754.997 398.857 755.357 399.266C755.667 399.72 756.078 400.099 756.551 400.375C757.564 400.938 758.757 401.091 759.877 400.801C760.957 400.507 761.875 399.803 762.437 398.84Z" fill="white"/>
<path d="M769.771 338.639L770.024 340.345C770.193 341.027 769.94 339.321 770.109 340.6C770.097 340.859 770.125 341.119 770.193 341.368C770.283 342.477 770.367 343.671 770.367 344.779C770.435 347.083 770.379 349.389 770.193 351.686C770.097 352.192 770.041 352.705 770.024 353.221C770.109 352.368 769.94 353.306 769.94 353.477C769.94 353.647 769.855 353.988 769.855 354.244C769.855 354.5 769.428 356.461 769.174 357.655C768.6 359.952 767.857 362.204 766.957 364.391C766.186 366.523 767.891 369.166 769.94 369.678C771.037 369.946 772.191 369.787 773.176 369.232C774.155 368.678 774.892 367.77 775.224 366.693C778.883 357.013 779.851 346.524 778.038 336.337C777.616 334.205 774.802 332.756 772.754 333.438C771.673 333.737 770.75 334.451 770.193 335.425C769.636 336.399 769.484 337.554 769.771 338.639Z" fill="white"/>
<path d="M626.769 134.158L632.397 134.67L635.127 135.011L636.573 135.181H637.085C636.663 135.096 636.832 135.096 637.17 135.181C640.924 135.693 644.677 136.29 648.426 137.058C655.781 138.569 663.041 140.505 670.172 142.856C674.179 144.22 678.186 145.67 682.109 147.29C684.242 148.142 686.887 146.352 687.399 144.305C687.906 142.259 686.628 139.957 684.411 139.104C670.29 133.315 655.517 129.277 640.411 127.081C635.892 126.399 631.373 125.887 626.769 125.546C624.552 125.375 622.419 127.677 622.503 129.809C622.526 130.933 622.982 132.005 623.781 132.8C624.574 133.595 625.644 134.051 626.769 134.073V134.158Z" fill="white"/>
</svg>
