<svg width="1127" height="1127" viewBox="0 0 1127 1127" fill="none" xmlns="http://www.w3.org/2000/svg">
<path d="M437.745 157.953C427.708 158.023 426.305 147.425 425.182 139.776L419.356 147.075C410.864 157.672 394.231 145.952 401.179 134.441C385.528 136.898 379.633 112.474 404.407 111.281C396.617 107.351 387.844 101.876 393.038 91.9103C399.424 82.0146 408.618 87.6291 416.128 92.4016C414.023 83.9096 411.917 73.1016 423.217 70.5048C434.516 67.9075 436.692 79.6987 437.885 88.4012L443.71 81.1727C452.834 69.8728 469.959 83.6991 460.975 94.9984L455.852 101.455C475.573 94.3669 482.381 116.475 466.941 121.879C478.03 129.95 466.73 147.215 454.869 140.337L446.939 135.775C449.465 145.32 450.869 156.9 437.745 157.953ZM426.726 130.511C432.34 130.652 429.814 149.18 434.657 151.356C439.499 153.532 444.201 150.443 443.149 145.811C443.289 143.566 438.447 129.318 441.464 128.055C445.886 125.598 456.834 138.091 461.817 136.056C466.8 134.02 467.292 128.265 463.151 126.02L457.817 122.932C455.571 121.739 456.203 118.159 458.659 117.808C461.115 117.457 467.362 117.036 468.766 114.229C471.643 110.369 467.853 104.684 463.221 105.737L449.465 108.333C447.009 108.895 445.114 105.737 446.798 103.842C448.482 101.947 458.94 90.998 457.817 87.4889C457.396 82.7164 450.939 80.8215 448.061 84.6817L438.447 96.613C428.972 103.491 435.779 73.1016 424.269 75.9786C412.478 77.5933 429.954 103.21 418.584 100.333L405.39 92.6824C399.284 89.0327 393.669 98.7184 399.916 102.227L413.742 110.158C414.228 110.447 414.616 110.877 414.854 111.39C415.092 111.904 415.169 112.478 415.075 113.035C414.995 113.61 414.734 114.144 414.33 114.56C413.926 114.976 413.401 115.253 412.83 115.352L397.74 118.229C390.792 119.422 392.827 130.441 399.845 129.037L407.425 127.564C409.882 127.002 411.777 130.16 410.092 132.055L406.373 136.688C401.881 142.162 410.584 149.18 415.005 143.566C416.409 142.442 424.62 129.879 426.726 130.511Z" fill="#D13535"/>
<path d="M966.249 547.747C956.074 547.747 954.881 537.43 953.615 529.569L947.863 536.869C939.37 547.466 922.734 535.816 929.684 524.236C914.033 526.692 908.135 502.268 932.909 501.075C925.12 497.145 916.279 491.671 921.541 481.705C927.855 471.809 937.125 477.423 944.632 482.196C942.527 473.634 940.349 462.895 951.718 460.299C963.092 457.702 965.197 469.493 966.39 478.196C969.756 474.406 973.757 466.966 979.655 466.896C989.127 465.562 995.723 477.494 989.482 484.793L984.355 491.25C1004.07 484.161 1010.88 506.269 995.447 511.673C1006.46 519.744 995.233 537.009 983.302 530.131L975.44 525.569C977.899 535.114 979.374 546.694 966.249 547.747ZM955.23 520.305C955.883 520.311 956.519 520.547 957.014 520.969C957.515 521.393 957.852 521.977 957.965 522.622L960.846 537.641C961.617 542.343 968.214 543.747 970.808 539.746C973.335 537.149 968.917 523.674 968.776 520.656C969.756 508.936 988.288 533.921 993.618 523.324C996.849 517.989 990.039 514.691 986.319 512.725C984.073 511.532 984.709 507.953 987.163 507.532C991.373 506.83 999.516 506.199 998.183 499.882C995.864 489.355 979.092 501.777 975.023 496.864C974.748 496.362 974.618 495.791 974.658 495.219C974.697 494.648 974.894 494.099 975.232 493.636L985.126 481.284C989.69 475.809 980.916 468.861 976.565 474.476L966.953 486.407C966.615 486.815 966.171 487.119 965.67 487.286C965.169 487.454 964.634 487.476 964.122 487.352C963.604 487.227 963.137 486.961 962.771 486.582C962.4 486.204 962.147 485.73 962.04 485.214C960.284 480.582 961.263 463.878 952.77 465.773C952.061 465.9 951.386 466.166 950.778 466.556C950.17 466.946 949.647 467.452 949.236 468.046C948.819 468.64 948.532 469.309 948.38 470.015C948.229 470.721 948.217 471.45 948.352 472.16L951.228 487.179C951.307 487.698 951.24 488.229 951.031 488.712C950.829 489.194 950.485 489.609 950.058 489.909C949.624 490.209 949.118 490.381 948.594 490.408C948.071 490.434 947.548 490.312 947.086 490.057L933.894 482.477C927.788 478.827 922.171 488.512 928.418 492.021L942.246 499.952C942.73 500.241 943.118 500.671 943.36 501.185C943.597 501.698 943.676 502.272 943.58 502.83C943.49 503.4 943.225 503.928 942.82 504.343C942.421 504.757 941.903 505.038 941.334 505.146L926.246 508.023C919.295 509.216 921.332 520.235 928.277 518.832L935.931 517.358C938.385 516.796 940.282 519.955 938.593 521.85L934.879 526.481C930.382 531.956 939.089 538.974 943.507 533.359C944.914 532.237 953.125 519.674 955.23 520.305Z" fill="#D13535"/>
<path d="M946.444 182.072C941.317 185.16 937.107 114.555 935.773 113.573C935.284 109.994 940.968 109.292 941.317 112.941L949.179 178.914C949.23 179.305 949.196 179.702 949.078 180.079C948.965 180.457 948.774 180.806 948.515 181.103C948.256 181.402 947.941 181.642 947.581 181.809C947.226 181.975 946.838 182.065 946.444 182.072Z" fill="#EFDCC4"/>
<path d="M969.463 174.632C968.754 174.622 968.078 174.347 967.566 173.86L913.667 123.258C913.127 122.74 912.811 122.033 912.789 121.286C912.761 120.539 913.025 119.812 913.526 119.257C915.423 112.59 969.603 170.141 971.359 169.789C973.25 171.403 971.916 174.703 969.463 174.632Z" fill="#EFDCC4"/>
<path d="M919.632 178.352C919.114 178.34 918.614 178.185 918.18 177.906C917.747 177.627 917.398 177.234 917.173 176.77C916.948 176.306 916.858 175.789 916.908 175.276C916.953 174.763 917.145 174.273 917.454 173.861C919.491 173.65 964.059 109.152 967.076 115.258C967.374 115.478 967.622 115.757 967.808 116.077C967.993 116.396 968.117 116.75 968.162 117.118C968.207 117.485 968.179 117.858 968.078 118.214C967.976 118.57 967.802 118.901 967.566 119.188L921.805 177.3C921.557 177.639 921.231 177.911 920.848 178.095C920.471 178.278 920.054 178.367 919.632 178.352Z" fill="#EFDCC4"/>
<path d="M909.458 153.017C906.087 153.086 905.738 147.753 909.176 147.402L975.147 139.541C975.879 139.462 976.616 139.675 977.196 140.135C977.776 140.595 978.147 141.264 978.237 141.998C982.514 147.612 910.296 151.543 909.458 153.017Z" fill="#EFDCC4"/>
<path d="M660.796 269.864C655.742 272.951 651.532 202.347 650.198 201.365C649.703 197.785 655.32 197.083 655.742 200.733L663.604 266.705C663.649 267.102 663.615 267.506 663.497 267.888C663.379 268.27 663.182 268.622 662.912 268.921C662.647 269.22 662.321 269.459 661.955 269.622C661.589 269.784 661.195 269.867 660.796 269.864Z" fill="#CE9C5C"/>
<path d="M683.882 262.424C683.156 262.412 682.458 262.138 681.918 261.652L628.019 211.05C627.479 210.532 627.163 209.825 627.141 209.078C627.113 208.331 627.377 207.604 627.878 207.049C629.775 200.382 684.023 257.933 685.779 257.581C687.602 259.196 686.268 262.495 683.882 262.424Z" fill="#CE9C5C"/>
<path d="M634.053 266.144C631.807 266.213 630.338 263.406 631.807 261.652C633.844 261.441 678.412 196.942 681.497 203.048C682.071 203.516 682.436 204.185 682.526 204.916C682.622 205.647 682.425 206.386 681.992 206.979L636.231 265.091C635.972 265.417 635.64 265.681 635.263 265.863C634.886 266.045 634.475 266.141 634.053 266.144Z" fill="#CE9C5C"/>
<path d="M623.876 240.807C620.511 240.878 620.089 235.543 623.527 235.192L689.572 227.332C690.303 227.253 691.04 227.466 691.62 227.926C692.194 228.386 692.571 229.055 692.656 229.788C696.871 235.403 624.721 239.333 623.876 240.807Z" fill="#CE9C5C"/>
<path d="M496.058 604.206C457.387 535.143 542.73 440.185 543.221 440.676C545.608 442.571 585.961 430.781 611.512 431.062C588.348 417.727 561.89 411.48 534.729 414.358C510.095 441.097 495.918 473.242 492.479 482.295C490.026 488.723 486.208 494.543 481.289 499.353C476.37 504.163 470.466 507.85 463.985 510.158C418.576 526.3 377.87 564.478 386.853 615.856C386.853 615.856 449.737 640.631 450.369 640.49C451.001 640.349 468.476 611.714 471.705 612.136C482.443 620.415 488.829 626.172 488.829 626.172C488.829 626.172 492.9 618.029 496.058 604.206Z" fill="#452D34"/>
<path d="M691.446 578.656C693.275 567.991 676.712 496.052 645.269 458.364C645.207 460.249 644.875 462.117 644.284 463.908C624.985 524.476 659.023 546.022 565.751 644.982C508.901 705.269 560.345 721.269 505.322 769.557C418.505 845.563 543.432 957.295 604.91 933.084C694.744 897.779 709.906 756.995 675.446 670.6C659.372 630.242 672.007 601.185 691.446 578.656Z" fill="#452D34"/>
<path d="M670.814 715.932C671.236 718.459 671.658 720.919 672.007 723.446C673.69 727.093 670.324 737.972 676.571 739.024C685.413 739.238 675.935 697.405 670.814 715.932Z" fill="white"/>
<path d="M457.036 521.317C445.998 525.537 436.183 532.435 428.472 541.389C427.279 542.793 426.998 544.969 428.472 546.372C429.945 547.776 432.191 547.846 433.455 546.372C435.199 544.29 437.074 542.321 439.069 540.477L442.157 537.81L443.07 537.108C443.701 536.547 442.719 537.389 443.28 536.898L445.035 535.634C447.251 534.05 449.572 532.62 451.983 531.353L455.562 529.458L457.457 528.686C457.668 528.546 457.598 528.616 457.246 528.756L457.808 528.476L458.861 528.054C460.615 527.423 461.949 525.668 461.317 523.773C460.686 521.878 458.861 520.615 457.036 521.317Z" fill="white"/>
<path d="M414.294 555.567C412.219 556.518 410.357 557.879 408.82 559.567C407.972 560.487 407.197 561.473 406.504 562.515C405.831 563.603 405.267 564.754 404.819 565.953C404.648 566.622 404.676 567.32 404.901 567.973C405.126 568.626 405.536 569.194 406.082 569.611C406.628 570.033 407.286 570.281 407.972 570.331C408.658 570.376 409.344 570.224 409.943 569.887L410.645 569.391C411.088 568.975 411.405 568.44 411.557 567.849L411.697 567.568L411.347 568.412C411.864 567.213 412.524 566.082 413.312 565.041L412.75 565.744C413.583 564.664 414.55 563.698 415.628 562.866L414.926 563.427C415.825 562.729 416.789 562.118 417.804 561.602C418.597 561.139 419.176 560.383 419.418 559.497C419.555 559.053 419.594 558.586 419.533 558.125C419.473 557.665 419.314 557.223 419.067 556.83C418.603 556.037 417.848 555.457 416.961 555.215C416.058 555.021 415.116 555.145 414.294 555.567Z" fill="white"/>
<path d="M647.582 442.713C648.252 443.405 648.888 444.131 649.479 444.889C652.569 448.889 655.022 455.696 655.726 462.083C657.482 474.646 654.251 492.122 658.18 505.948C658.304 506.397 658.512 506.817 658.799 507.184C659.086 507.551 659.44 507.858 659.846 508.086C660.251 508.315 660.695 508.46 661.157 508.515C661.618 508.57 662.086 508.532 662.536 508.404C667.376 507.071 663.515 499.982 663.729 497.947C661.759 482.086 665.761 465.522 660.076 450.152C659.587 443.555 644.639 427.974 647.582 442.713Z" fill="white"/>
<path d="M660.009 523.142C664.849 536.758 682.887 534.932 670.392 525.387L671.096 525.879C669.824 524.945 668.687 523.834 667.725 522.58L668.288 523.282C666.672 517.527 658.18 515.211 660.009 523.142Z" fill="white"/>
<path d="M517.815 876.376C514.601 873.702 511.683 870.686 509.112 867.393C507.428 865.429 503.357 858.479 501.672 854.41C499.584 849.221 498.123 843.801 497.321 838.263C495.917 830.688 497.602 815.526 501.111 808.3C505.041 804.298 501.953 795.102 496.83 801C468.476 833.845 517.885 901.15 517.815 876.376Z" fill="white"/>
<path d="M522.377 766.044C520.813 766.489 519.481 767.524 518.657 768.925C518.096 769.837 517.534 770.608 516.973 771.452L517.464 770.676C516.064 772.555 514.411 774.233 512.551 775.662L513.253 775.099C511.218 776.292 508.972 778.47 510.516 780.924C517.394 789.135 532.203 763.517 522.377 766.044Z" fill="white"/>
<path d="M760.507 489.104C757.699 522.581 716.643 592.135 694.677 590.306C697.271 580.412 681.901 492.332 644.284 458.434C616.144 433.168 588.77 410.99 551.152 415.06L549.678 413.797C570.383 379.758 607.438 372.459 647.233 375.969C650.531 376.319 656.215 375.126 662.535 373.231C687.344 366.057 713.767 366.719 738.192 375.126C785.282 391.268 852.446 412.604 874.344 382.636C874.98 401.445 872.87 418.64 862.908 434.641C852.941 450.643 838.134 468.61 812.442 475.91C784.933 483.7 761.211 481.243 760.507 489.104Z" fill="#D13535"/>
<path d="M688.008 577.676C687.957 577.76 687.929 577.85 687.918 577.946C687.901 578.042 687.912 578.143 687.94 578.233C687.991 578.053 688.019 577.862 688.008 577.676Z" fill="#452D34"/>
<path d="M876.027 340.034C863.116 344.456 855.327 360.739 862.064 373.021C820.096 405.305 754.755 363.967 708.994 356.878C686.606 352.738 664.5 357.58 642.882 362.984C602.597 359.756 558.24 372.67 534.378 407.27C531.992 410.218 527.991 417.236 534.237 417.868C630.951 409.165 678.322 494.437 688.008 577.676C688.148 577.536 687.94 578.166 687.94 578.307C687.822 578.824 687.827 579.365 687.946 579.882C688.064 580.4 688.295 580.884 688.627 581.301C688.953 581.717 689.37 582.055 689.848 582.286C690.326 582.522 690.844 582.651 691.379 582.657C723.098 579.567 753.281 509.106 756.089 479.769C756.157 479.91 755.875 480.541 756.089 480.19C784.933 471.628 822.482 473.312 843.959 445.8C860.522 426.781 867.118 415.271 870.135 385.092C882.696 396.532 905.788 395.97 914.207 379.267C926.774 355.825 899.332 329.858 876.027 340.034ZM756.157 479.91C756.157 479.891 756.162 479.873 756.179 479.86C756.191 479.847 756.207 479.84 756.224 479.84L756.157 479.91ZM812.515 459.978C800.162 465.311 786.334 467.136 773.069 468.961C754.474 470.014 749.279 475.418 749.139 479.278C742.543 514.089 725.209 557.322 694.677 575.217C687.799 494.157 631.441 403.691 540.834 410.288C562.592 379.618 603.155 366.915 639.652 370.143C646.462 370.494 653.266 367.757 659.727 366.072C673.938 362.5 688.672 361.502 703.237 363.125C746.961 368.389 823.18 412.745 863.257 380.881C863.184 414.078 843.041 446.292 812.515 459.978ZM909.997 369.582C909.294 381.934 893.012 389.865 881.858 384.18H881.784C881.362 383.969 881.503 384.04 881.717 384.109C868.592 378.495 860.522 359.265 873.151 349.579C888.24 337.648 912.947 350.211 909.997 369.582Z" fill="#452D34"/>
<path d="M623.021 383.407C627.512 386.215 631.93 389.163 636.213 392.251L639.444 394.566L640.918 395.689L641.689 396.251C641.757 396.321 642.252 396.672 641.83 396.392C641.408 396.111 641.971 396.532 642.038 396.602L648.218 401.515C656.339 408.327 664.004 415.666 671.163 423.482C674.742 427.342 678.181 431.342 681.552 435.484C682.323 436.466 683.168 437.449 683.939 438.501C684.378 438.985 684.772 439.501 685.132 440.046C685.413 440.326 685.064 439.905 685.064 439.905L685.34 440.326L686.043 441.168C687.659 443.274 689.201 445.45 690.748 447.555C696.922 456.196 702.612 465.169 707.801 474.435C712.973 483.742 717.639 493.325 721.77 503.14C721.556 502.579 721.697 503.07 721.837 503.351C721.984 503.642 722.102 503.948 722.186 504.263L723.031 506.158C723.661 507.913 725.349 509.246 727.313 508.615C729.278 507.983 730.538 506.158 729.767 504.333C725.636 494.188 720.999 484.256 715.872 474.575C710.767 465.163 705.167 456.026 699.1 447.204C692.836 438.235 686.066 429.636 678.817 421.447C671.726 413.456 664.106 405.953 656.007 398.988C647.801 391.892 639.101 385.395 629.966 379.548L626.601 377.372C626.201 377.127 625.762 376.964 625.301 376.892C624.839 376.82 624.372 376.84 623.916 376.952C623.466 377.062 623.038 377.263 622.667 377.541C622.29 377.818 621.975 378.168 621.738 378.568C621.502 378.97 621.344 379.414 621.282 379.875C621.215 380.337 621.243 380.806 621.367 381.257C621.485 381.707 621.693 382.129 621.975 382.498C622.262 382.868 622.616 383.177 623.021 383.407Z" fill="white"/>
<path d="M464.757 619.295C462.932 622.031 460.967 624.557 459.002 627.152C456.054 631.086 453.106 635.087 450.299 639.083C447.491 643.085 445.175 646.242 443 650.035C442.004 651.763 441.204 653.603 440.613 655.506C440.319 656.755 440.131 658.021 440.052 659.299C439.912 660.301 439.842 661.308 439.842 662.316C439.875 664.933 440.157 667.544 440.684 670.105C441.712 674.528 443.366 678.783 445.596 682.74C446.836 684.923 448.269 686.989 449.878 688.913C452.707 692.341 455.856 695.493 459.283 698.318C468.824 706.45 479.425 713.249 490.795 718.533C503.568 724.426 517.394 728.782 531.571 728.85L536.063 728.709C538.379 728.675 540.592 727.741 542.239 726.114C543.881 724.477 544.814 722.254 544.836 719.935C544.695 717.689 543.994 715.303 542.239 713.761C540.485 712.219 538.379 711.026 536.063 711.161C531.729 711.42 527.38 711.256 523.079 710.671L525.395 711.026C517.06 709.788 508.921 707.474 501.182 704.143L503.287 704.987C494.984 701.441 487.059 697.068 479.636 691.936C477.67 690.669 475.846 689.268 473.951 687.861L475.775 689.195C470.723 685.334 465.809 681.124 461.949 676.07L463.353 677.826C461.484 675.373 459.95 672.682 458.791 669.823L459.703 671.934C458.504 669.199 457.677 666.323 457.247 663.368L457.598 665.687C457.318 663.565 457.318 661.415 457.598 659.299L457.247 661.612C457.358 660.774 457.57 659.946 457.879 659.158L456.967 661.263C457.878 659.305 458.958 657.425 460.195 655.646C461.809 653.052 463.564 650.598 465.318 648.071C468.897 643.085 472.617 638.104 476.267 633.191C477.46 631.508 478.723 629.893 479.846 628.137C480.969 626.381 481.32 623.505 480.758 621.4C480.13 619.205 478.702 617.326 476.758 616.138C474.723 615.08 472.196 614.523 469.95 615.294C467.789 615.947 465.943 617.371 464.757 619.295Z" fill="#EFDCC4"/>
<path d="M520.552 681.479L510.586 697.901C510.122 698.712 509.994 699.674 510.231 700.58C510.466 701.481 511.048 702.257 511.849 702.741C517.043 706.253 523.289 688.564 526.588 684.985C529.886 681.406 522.798 677.545 520.552 681.479Z" fill="#452D34"/>
<path d="M497.321 665.827L483.355 683.865C482.723 684.54 482.372 685.43 482.372 686.353C482.372 687.281 482.723 688.171 483.355 688.846C484.618 689.966 487.145 690.388 488.338 688.846L502.304 670.808C505.533 667.651 500.409 662.524 497.321 665.827Z" fill="#452D34"/>
<path d="M472.968 646.241C468.406 652.066 461.738 662.664 458.931 666.316C456.124 669.963 460.686 674.528 463.844 671.297C465.793 668.883 467.598 666.35 469.248 663.716C471.775 660.069 476.898 652.562 477.951 651.228C481.109 647.997 476.126 643.017 472.968 646.241Z" fill="#452D34"/>
<path d="M508.62 486.787C517.604 488.682 523.991 495.771 523.078 503.351C522.165 510.931 513.182 517.036 503.146 515.843C501.121 515.596 499.138 515.076 497.25 514.299C500.128 504.754 502.445 494.858 508.62 486.787Z" fill="#D13535"/>
<path d="M603.194 564.349C608.766 558.417 607.303 547.992 599.93 541.067C592.557 534.142 582.061 533.338 576.489 539.272C570.918 545.205 572.375 555.63 579.754 562.555C587.126 569.482 597.622 570.287 603.194 564.349Z" fill="#D13535"/>
<path d="M559.434 500.052C550.661 502.439 541.397 503.632 532.905 506.93C519.71 512.966 524.132 533.951 538.659 534.091C543.573 534.091 543.011 526.581 538.168 527.073C537.396 527.002 538.73 527.213 538.238 527.073C537.549 526.928 536.87 526.74 536.203 526.511C536.484 526.441 536.764 526.722 536.343 526.511C535.674 526.205 535.039 525.829 534.448 525.388C534.659 525.529 535.01 525.95 534.448 525.388C534.238 525.248 532.905 524.055 532.273 522.371C532.273 522.862 532.413 522.862 532.343 522.511C531.781 520.616 531.781 520.826 531.922 518.791C531.992 519.353 531.852 519.283 531.922 518.931C532.025 518.202 532.238 517.492 532.554 516.826C531.852 517.879 533.185 515.633 533.326 515.422C533.466 515.212 533.676 514.861 533.255 515.563C533.677 514.943 534.199 514.398 534.8 513.948C533.887 514.51 536.343 513.036 536.764 512.896C543.221 510.931 553.539 508.755 561.329 506.79C565.678 505.667 563.855 498.789 559.434 500.052Z" fill="#452D34"/>
<path d="M597.054 520.194C600.813 520.194 603.858 517.146 603.858 513.386C603.858 509.627 600.813 506.579 597.054 506.579C593.294 506.579 590.244 509.627 590.244 513.386C590.244 517.146 593.294 520.194 597.054 520.194Z" fill="#452D34"/>
<path d="M547.783 488.962C551.543 488.962 554.591 485.915 554.591 482.155C554.591 478.395 551.543 475.347 547.783 475.347C544.023 475.347 540.975 478.395 540.975 482.155C540.975 485.915 544.023 488.962 547.783 488.962Z" fill="#452D34"/>
<path d="M624.215 509.526C619.279 500.758 612.267 493.335 603.791 487.91C599.93 485.524 596.351 491.63 600.279 493.946L603.791 496.402C603.858 496.472 604.629 497.104 603.999 496.542C607.933 499.628 611.45 503.214 614.456 507.21C615.801 509.083 617.045 511.027 618.176 513.036C620.421 516.966 626.528 513.457 624.215 509.526Z" fill="#452D34"/>
<path d="M557.749 460.679C551.221 460.234 544.663 460.635 538.238 461.872C537.789 461.994 537.369 462.204 537.002 462.489C536.635 462.775 536.328 463.13 536.1 463.534C535.871 463.939 535.725 464.386 535.671 464.847C535.616 465.309 535.654 465.777 535.781 466.224C536.554 470.014 542.168 468.259 543.502 468.048C548.229 467.477 553 467.36 557.749 467.698C562.311 467.768 562.311 460.679 557.749 460.679Z" fill="#452D34"/>
<path d="M906.21 935.892C905.647 932.661 904.944 923.746 902 920.167C902.417 918.203 901.437 915.816 898.702 915.749C795.463 890.62 684.147 812.155 609.334 734.252C608.141 732.778 605.614 732.992 604.353 734.252C598.945 738.186 619.999 754.817 622.881 758.678C700.08 828.442 793.352 897.081 895.821 922.137C904.803 942.561 893.367 962.911 885.994 981.928C880.805 1001.93 864.377 1005.86 845.923 1005.72C761.914 1008.39 675.795 983.403 615.159 923.887C615.581 922.249 616.003 920.707 616.42 919.255C617.686 914.342 610.038 913.081 609.475 918.135C598.663 906.907 588.848 894.768 580.136 881.852C578.594 879.533 577.12 877.569 574.103 877.287C569.612 877.22 569.471 884.238 574.103 884.305C583.423 899.569 594.549 913.661 607.229 926.273C598.737 961.369 607.933 998.565 584.841 1030.01C582.522 1033.87 588.561 1037.45 590.874 1033.51C614.315 1000.74 605.682 968.945 613.262 932.098C662.321 978 731.591 1005.93 798.338 1011.27C822.899 1012.11 874.063 1020.39 887.469 995.616C892.596 986.003 895.612 975.406 900.03 965.506C904.454 955.612 906.981 946.14 906.21 935.892Z" fill="#452D34"/>
<path d="M552.415 625.402C539.431 623.854 521.955 618.384 511.498 610.099C507.92 607.319 504.691 604.111 501.883 600.554C499.317 597.088 497.151 593.345 495.426 589.394C494.162 586.94 491.777 577.677 491.636 575.077C488.969 552.76 495.707 531.564 504.339 510.65C512.972 489.736 526.868 465.803 540.694 448.117C542.519 444.537 549.537 440.677 546.168 436.396C544.835 435.203 542.449 434.852 541.185 436.396C509.884 475.839 461.036 556.62 496.057 603.852C495.834 604.168 495.69 604.528 495.636 604.905C494.142 611.822 492.028 618.586 489.32 625.12L489.179 625.329C462.931 604.134 474.02 603.785 450.508 638.667C348.392 600.273 237.151 534.864 169.775 447.977C168.582 445.941 166.337 445.941 164.792 446.994C144.58 446.082 129.35 460.82 116.717 474.646C109.348 482.296 100.013 489.455 96.8554 500.052C91.3108 522.651 110.681 552.69 120.086 573.112C161.564 653.193 241.292 720.076 329.723 732.778C324.319 742.745 321.862 754.046 319.196 764.993C306.142 825.983 298.702 888.307 295.544 950.631C295.264 965.506 294.421 980.668 297.579 995.334C298.773 999.617 305.58 997.861 304.317 993.443C298.281 945.015 307.194 893.08 312.248 846.266C317.511 811.035 321.862 773.975 333.723 740.291C335.478 736.498 339.198 731.658 335.197 728.146C331.197 724.64 326.425 725.901 322.354 724.499C225.501 706.039 148.229 627.856 111.593 539.215C105.417 524.476 96.2234 505.106 109.839 491.7C125.981 476.33 140.579 453.521 165.284 453.731C225.782 534.653 350.919 610.24 446.368 644.633C416.68 682.25 468.826 712.219 499.076 724.989C510.726 729.694 523.359 733.133 536.062 732.288C540.554 732.288 540.624 725.27 536.062 725.27C532.27 725.54 528.46 725.422 524.693 724.921C515.943 723.559 507.404 721.083 499.286 717.549C481.53 709.478 454.579 694.671 446.789 677.686C445.787 675.176 445.058 672.564 444.613 669.897C444.415 668.22 444.391 666.525 444.543 664.843C444.792 663.019 445.24 661.235 445.877 659.507C448.263 654.876 451.14 650.103 454.229 645.263C454.455 644.982 454.644 644.678 454.79 644.351C460.053 636.067 465.949 627.574 471.213 619.363C488.829 635.155 508.62 648.769 530.377 658.247C535.15 659.581 555.994 670.949 557.468 663.931C557.705 663.036 557.58 662.085 557.12 661.286C556.66 660.481 555.902 659.896 555.012 659.648C548.356 657.768 541.817 655.495 535.431 652.844C521.07 646.664 507.46 638.87 494.864 629.612C496.479 625.61 500.409 616.977 501.742 610.522C504.539 613.319 507.568 615.879 510.796 618.17C525.324 627.856 542.87 631.857 560.065 633.259C561.889 633.399 563.646 631.508 563.574 629.752C563.012 624.485 556.065 626.522 552.415 625.402Z" fill="#452D34"/>
<path d="M539.502 585.325C535.201 585.302 530.976 584.188 527.22 582.095C512.832 574.024 513.534 556.62 514.516 549.532C514.639 548.478 515.061 547.481 515.732 546.66C516.404 545.839 517.298 545.228 518.306 544.899C519.3 544.558 520.368 544.496 521.395 544.718C522.422 544.941 523.369 545.441 524.132 546.163L526.939 548.9C534.982 556.69 545.007 562.128 555.925 564.62L559.855 565.531C560.881 565.762 561.825 566.269 562.581 567C563.337 567.732 563.877 568.655 564.136 569.674C564.389 570.692 564.361 571.762 564.051 572.763C563.742 573.765 563.164 574.66 562.381 575.358C558.451 578.87 549.818 585.325 539.502 585.325ZM521.815 554.655C521.535 561.603 522.868 570.799 531.01 575.358C539.15 579.922 548.415 576.27 554.1 572.133C541.959 569.325 530.803 563.286 521.815 554.655Z" fill="#452D34"/>
<path d="M913.932 1034.92C899.333 1038.36 875.752 1024.53 860.939 1011.48C856.661 1007.69 857.084 1002.07 857.5 996.386C859.537 968.596 867.822 946.416 885.786 927.821C888.735 924.872 890.7 921.084 894.701 920.032C935.408 908.939 969.305 925.012 982.571 933.505C1001.45 945.577 1001.66 959.895 998.852 966.069L994.147 971.894C1004.32 987.618 993.725 1008.18 987.27 1024.74C980.815 1041.3 963.058 1058.22 942.567 1051.55C870.343 1027.9 923.826 956.456 939.404 966.418" fill="#D13535"/>
<path d="M984.675 930.207C974.708 923.887 938.773 904.099 893.716 916.312C889.573 917.431 887.12 920.307 885.015 922.907L883.05 925.153C865.221 943.613 855.817 966.142 853.639 996.105C853.222 1002 852.659 1009.3 858.344 1014.36C870.483 1025.09 895.398 1042.01 913.295 1038.99L913.509 1039.13L913.999 1039.62L914.702 1040.32L915.259 1040.89L916.036 1041.58L916.666 1042.08L917.511 1042.78L918.068 1043.27L918.979 1043.97L919.615 1044.47L920.668 1045.24L921.225 1045.59L922.913 1046.78L923.195 1046.92L924.737 1047.83L925.44 1048.25L926.634 1048.96L927.472 1049.37L928.665 1050.01L929.509 1050.43L930.77 1051.06L931.688 1051.48L933.021 1052.04L933.933 1052.46L935.334 1053.03L936.319 1053.38L937.929 1054.01L938.773 1054.36L941.3 1055.2C944.699 1056.31 948.251 1056.88 951.83 1056.89C958.916 1056.89 965.866 1054.57 972.389 1050.01C980.747 1044.02 987.185 1035.73 990.922 1026.15C991.62 1024.18 992.464 1022.21 993.308 1020.11C999.201 1005.58 1006.5 987.686 998.992 972.664C1000.41 971.218 1001.54 969.53 1002.36 967.684C1005.59 960.666 1005.94 943.889 984.675 930.207ZM995.554 964.031L991.479 969.085C988.541 971.004 985.249 972.316 981.793 972.946C969.305 975.546 954.357 972.456 950.778 969.226C950.406 968.877 949.973 968.607 949.5 968.427C949.022 968.252 948.521 968.173 948.014 968.201C947.508 968.23 947.012 968.359 946.557 968.584C946.101 968.809 945.701 969.124 945.369 969.507C945.026 969.873 944.756 970.306 944.581 970.779C944.401 971.252 944.322 971.753 944.345 972.254C944.362 972.755 944.48 973.25 944.694 973.706C944.908 974.162 945.206 974.572 945.583 974.91C950.142 979.052 960.953 981.579 971.691 981.579C975.597 981.596 979.497 981.242 983.341 980.527C986.583 979.868 989.718 978.782 992.672 977.296C997.585 989.087 991.552 1003.97 986.149 1017.23C985.305 1019.34 984.461 1021.3 983.69 1023.34C978.709 1036.26 963.407 1054.29 943.754 1047.9C924.107 1041.52 911.68 1029.87 909.789 1014.99C907.543 996.741 920.527 977.651 930.354 971.471L931.333 970.841L931.614 970.7L932.385 970.351L932.599 970.211L933.511 969.856H933.719L934.35 969.648H934.631L935.334 969.507H936.876L937.372 969.721C937.794 970.064 938.284 970.312 938.807 970.453C939.33 970.593 939.882 970.622 940.416 970.537C940.957 970.453 941.469 970.256 941.919 969.957C942.375 969.659 942.763 969.265 943.056 968.809C943.349 968.353 943.546 967.836 943.624 967.301C943.709 966.761 943.675 966.215 943.529 965.691C943.382 965.168 943.124 964.678 942.78 964.262C942.431 963.84 941.998 963.502 941.508 963.26C937.512 960.666 932.104 961.296 926.211 965.016C920.313 968.736 913.087 976.739 908.523 985.44C904.803 992.599 900.593 1003.69 902.141 1016.04C902.208 1016.39 902.208 1016.74 902.276 1017.09C902.343 1017.2 902.371 1017.32 902.349 1017.44C902.416 1017.65 902.416 1017.94 902.49 1018.22C902.557 1018.49 902.557 1018.43 902.557 1018.57L902.771 1019.55V1019.69C902.838 1020.04 902.979 1020.46 903.052 1020.81C903.08 1020.93 903.103 1021.04 903.12 1021.16L903.334 1022.01C903.401 1022.07 903.401 1022.21 903.469 1022.35L903.75 1023.27C903.75 1023.34 903.823 1023.41 903.823 1023.55L904.245 1024.67C904.245 1024.81 904.313 1024.88 904.386 1025.02C904.454 1025.16 904.594 1025.58 904.662 1025.87L904.876 1026.29C904.96 1026.6 905.078 1026.91 905.225 1027.2C905.298 1027.27 905.298 1027.41 905.365 1027.48L905.928 1028.67C906.001 1028.75 906.046 1028.85 906.069 1028.96L906.559 1029.87L906.772 1030.29L907.33 1031.2C907.403 1031.27 907.403 1031.41 907.47 1031.48C907.543 1031.55 907.543 1031.55 907.543 1031.62C894.841 1030.92 876.663 1020.32 863.465 1008.67C860.871 1006.29 860.938 1002.63 861.36 996.741C863.398 968.663 872.098 947.682 888.594 930.556C889.421 929.717 890.192 928.828 890.907 927.888C892.804 925.643 893.997 924.309 895.753 923.819C937.721 912.451 971.196 930.905 980.465 936.803C996.888 947.192 997.585 958.91 995.554 964.031Z" fill="#452D34"/>
<path d="M1020.11 794.19C1022.78 772.854 1021.03 749.555 1007.91 731.725C1005.59 727.864 999.482 731.376 1001.8 735.237C1008.54 744.36 1011.84 753.838 1013.45 765.206C1014.64 773.485 1014.36 784.926 1013.1 794.19C1013.03 798.681 1020.05 798.754 1020.11 794.19Z" fill="#CE9C5C"/>
<path d="M995.273 800.156C977.798 794.753 953.935 791.871 942.426 809.419C940.04 814.681 947.407 816.719 949.371 811.665C950.564 809.768 955.759 806.054 958.004 805.277C964.392 802.542 971.618 802.542 977.725 803.386C982.638 803.031 996.185 810.472 997.727 804.506C997.952 803.605 997.817 802.654 997.361 801.844C996.905 801.039 996.156 800.431 995.273 800.156Z" fill="#CE9C5C"/>
<path d="M1043.21 820.721C1047.84 819.691 1052.47 818.846 1057.1 818.194C1066.55 816.961 1076.08 816.561 1085.6 817C1089.67 817.186 1093.74 817.535 1097.81 818.053C1102.3 818.194 1102.37 811.102 1097.81 811.035C1090.86 809.56 1036.26 808.226 1038.92 818.261C1039.19 819.145 1039.78 819.888 1040.58 820.349C1041.37 820.805 1042.32 820.94 1043.21 820.721Z" fill="#CE9C5C"/>
<path d="M1039.7 798.331C1039.97 796.953 1040.39 795.613 1040.96 794.33C1041.1 793.84 1040.89 794.397 1040.82 794.538C1041.6 792.839 1042.54 791.218 1043.63 789.698C1044.68 788.297 1049.52 784.717 1046.36 781.836C1040.12 777.418 1034.01 791.662 1032.96 796.435C1031.91 801.207 1038.51 802.682 1039.7 798.331Z" fill="#CE9C5C"/>
<path d="M1049.31 834.053C1048.86 835.021 1048.06 835.775 1047.07 836.158C1047.44 836.017 1047.3 836.017 1046.64 836.158H1046.3C1047 836.512 1047.84 836.721 1048.61 837.07C1052.91 838.961 1056.99 841.341 1060.75 844.161C1063.77 847.948 1069.66 843.035 1066.16 839.529C1060.33 835.105 1053.74 830.614 1046.44 829.213C1037.52 830.614 1045.52 841.775 1049.31 834.126V834.053Z" fill="#CE9C5C"/>
<path d="M992.672 784.578C989.729 780.998 982.007 767.238 976.812 771.594C973.233 776.012 980.324 778.961 982.288 782.259L983.831 784.082C984.185 784.504 983.904 784.296 983.763 784.015C985.795 786.328 987.551 791.455 991.411 789.35C992.954 788.365 993.73 786.187 992.672 784.578Z" fill="#CE9C5C"/>
<path d="M1000.47 730.465C998.92 730.453 997.4 730.065 996.044 729.333C994.682 728.596 993.528 727.538 992.673 726.255C991.862 725 991.401 723.548 991.339 722.056C991.277 720.559 991.615 719.079 992.324 717.762C992.842 716.727 993.556 715.804 994.429 715.05C995.307 714.29 996.32 713.716 997.417 713.35C998.515 712.99 999.674 712.849 1000.83 712.933C1001.98 713.018 1003.11 713.333 1004.14 713.856C1005.17 714.38 1006.08 715.1 1006.84 715.978C1007.59 716.856 1008.16 717.875 1008.52 718.978C1008.88 720.075 1009.01 721.235 1008.92 722.388C1008.83 723.542 1008.5 724.662 1007.98 725.692C1007.37 727.043 1006.39 728.196 1005.17 729.024C1003.94 729.857 1002.5 730.33 1001.02 730.391L1000.47 730.465ZM1000.19 720.706C999.984 720.706 999.792 720.756 999.618 720.858C999.443 720.953 999.303 721.1 999.201 721.268C998.993 721.691 999.061 721.831 999.134 721.972C999.297 722.186 999.511 722.36 999.753 722.478C999.995 722.602 1000.26 722.67 1000.54 722.675C1000.68 722.602 1000.82 722.602 1001.02 722.18C1001.15 721.927 1001.18 721.634 1001.11 721.364C1001.03 721.088 1000.85 720.858 1000.6 720.706H1000.19Z" fill="#CE9C5C"/>
<path d="M1054.93 783.66C1053.38 783.654 1051.86 783.266 1050.51 782.529C1049.15 781.797 1047.99 780.739 1047.13 779.45C1046.32 778.212 1045.86 776.771 1045.8 775.291C1045.74 773.806 1046.08 772.337 1046.79 771.031C1047.42 769.68 1048.41 768.527 1049.64 767.688C1050.88 766.844 1052.31 766.354 1053.8 766.258C1055.43 766.174 1057.05 766.523 1058.51 767.26C1059.96 767.998 1061.19 769.106 1062.09 770.468C1062.9 771.712 1063.37 773.147 1063.43 774.633C1063.48 776.113 1063.15 777.588 1062.44 778.888C1061.81 780.233 1060.83 781.381 1059.61 782.219C1058.39 783.058 1056.97 783.553 1055.49 783.66H1054.93ZM1054.29 773.98H1054.23C1054.09 773.98 1053.94 773.98 1053.74 774.47H1053.66C1053.45 774.892 1053.52 775.032 1053.6 775.173C1053.76 775.387 1053.97 775.556 1054.21 775.68C1054.46 775.803 1054.73 775.865 1055 775.871C1055.14 775.871 1055.28 775.871 1055.49 775.381H1055.56C1055.77 774.892 1055.7 774.751 1055.63 774.678C1055.48 774.464 1055.28 774.295 1055.05 774.171C1054.82 774.048 1054.56 773.98 1054.29 773.98Z" fill="#CE9C5C"/>
<path d="M936.32 969.439L1014.78 811.456C1012.04 816.859 1015.2 815.807 1017.8 817.067C1019.02 817.714 1019.94 818.806 1020.37 820.112C1020.8 821.423 1020.71 822.847 1020.11 824.085L946.495 970.559L936.32 969.439Z" fill="#CE9C5C"/>
<path d="M1048.68 846.828L1036.75 829.353C1044.4 826.827 1042.01 821.559 1035.56 819.668C1037.8 816.37 1040.05 812.999 1042.23 809.627C1044.4 806.262 1041.17 803.527 1038.29 804.506C1035.42 805.491 1033.66 806.189 1031.42 807.106C1030.64 803.105 1029.94 799.03 1029.31 795.034C1025.38 787.172 1019.7 798.962 1016.61 801.979C1004.82 786.823 996.184 784.577 1000.88 807.174C996.111 807.736 991.412 808.997 986.707 809.841C983.06 810.821 983.622 816.229 987.269 816.859C987.663 817.163 987.979 817.557 988.187 818.013C988.395 818.463 988.491 818.959 988.463 819.454H988.536C988.463 819.668 988.463 819.876 988.395 820.09C988.322 820.298 988.114 820.647 988.322 820.366C986.78 823.455 976.886 824.789 979.34 830.755C981.518 834.194 985.165 831.318 988.04 830.755C990.567 830.113 993.156 829.781 995.762 829.77C993.449 832.719 991.063 835.46 988.603 838.195C988.052 838.735 987.691 839.45 987.585 840.215C987.478 840.987 987.63 841.769 988.012 842.444C988.395 843.12 988.997 843.643 989.712 843.941C990.427 844.239 991.226 844.29 991.974 844.088C995.942 843.103 1000.02 842.63 1004.11 842.686C1005.52 847.037 1010.08 866.898 1016.25 857.144C1017.36 851.516 1019.23 846.057 1021.8 840.93L1043.91 851.742C1046.86 853.424 1050.58 849.845 1048.68 846.828ZM1015.34 803.594L1015.06 803.735L1015.34 803.594ZM988.114 820.647C988.069 820.788 987.995 820.861 987.9 820.861L988.114 820.647ZM1003.76 841.352C1003.79 841.38 1003.81 841.414 1003.82 841.454C1003.83 841.487 1003.84 841.527 1003.83 841.566L1003.76 841.352Z" fill="#EFDCC4"/>
<path d="M988.462 819.527C988.254 820.083 988.462 819.735 988.462 819.527V819.527Z" fill="#CE9C5C"/>
<path d="M1022.5 849.142L1024.12 850.127C1024.26 850.194 1024.96 850.689 1024.26 850.194C1025.28 851.027 1026.19 851.967 1026.99 853.003C1026.72 852.58 1026.72 852.58 1026.92 852.862C1027.76 854.038 1028.48 855.282 1029.1 856.582C1029.24 856.863 1029.45 857.212 1029.17 856.723C1030.01 858.338 1030.85 862.548 1030.93 863.319C1032.54 867.675 1028.33 877.569 1034.65 878.34C1041.31 878.058 1037.66 860.375 1036.4 856.092C1034.57 850.757 1031.13 845.776 1026.08 843.109C1022.15 840.79 1018.57 846.896 1022.5 849.142Z" fill="#CE9C5C"/>
<path d="M978.006 833.985C971.202 837.913 963.48 840.789 958.078 846.614C954.847 849.845 959.828 854.825 962.985 851.601C963.852 850.638 964.792 849.749 965.794 848.933C969.373 846.333 976.605 842.759 981.518 840.091C986.431 837.424 981.935 831.739 978.006 833.985Z" fill="#CE9C5C"/>
<path d="M905.506 1029.87L897.925 1045.1C897.616 1045.71 897.436 1046.38 897.402 1047.06C897.363 1047.75 897.47 1048.43 897.717 1049.07C897.959 1049.72 898.336 1050.3 898.82 1050.79C899.304 1051.28 899.884 1051.65 900.526 1051.9C901.826 1052.4 903.266 1052.39 904.561 1051.88C905.855 1051.38 906.919 1050.41 907.544 1049.16L912.665 1038.92L905.506 1029.87Z" fill="#CE9C5C"/>
<path d="M55.7984 451.976C55.4475 466.996 73.9059 487.138 89.837 498.929C94.3991 502.298 99.803 500.684 105.277 499.07C132.018 491.279 151.95 478.576 166.337 457.03C168.653 453.591 171.882 450.854 172.162 446.642C174.408 404.533 151.598 374.775 140.51 363.616C124.788 347.684 110.682 350.492 105.277 354.492L100.575 360.317C83.0294 353.72 65.2028 368.388 50.3241 378.144C35.4452 387.899 22.6719 408.884 33.4801 427.482C71.7999 493.174 130.403 425.868 117.349 412.674" fill="#D13535"/>
<path d="M108.155 397.584L158.897 228.653C157.143 234.478 155.599 231.53 152.862 230.758C151.531 230.364 150.099 230.512 148.876 231.17C147.654 231.827 146.74 232.94 146.335 234.267L100.014 391.548L108.155 397.584Z" fill="#CE9C5C"/>
<path d="M92.644 452.609L84.573 479.067C84.3777 479.73 84.0462 480.344 83.601 480.872C83.1553 481.4 82.6048 481.829 81.9841 482.132C81.3639 482.436 80.6874 482.607 79.9974 482.635C79.3074 482.664 78.6191 482.548 77.9758 482.296C76.6893 481.763 75.647 480.772 75.0504 479.514C74.4538 478.256 74.3458 476.821 74.7476 475.488L82.257 451.696L92.644 452.609Z" fill="#CE9C5C"/>
<path d="M181.918 226.196C186.971 216.932 168.794 219.81 164.021 220.511C166.337 201.071 162.547 204.088 149.704 214.125C147.949 211.247 147.248 205.562 143.036 205.913C141.773 206.054 140.299 207.036 140.089 208.44C139.387 212.44 138.755 216.441 138.053 220.442C132.088 217.423 126.754 219.669 130.614 226.758C126.263 228.582 106.541 229.565 107.453 234.689C106.611 239.461 128.999 242.97 133.632 245.357C132.072 250.811 129.732 256.012 126.683 260.797C124.297 272.377 141.282 260.867 145.353 258.691C148.379 261.41 151.023 264.527 153.213 267.955C154.967 270.973 159.81 269.64 159.74 266.131C159.67 262.622 160.021 258.761 160.302 255.042C163.407 257.909 165.871 261.401 167.53 265.289C169.144 268.377 174.198 266.973 174.127 263.534C174.058 260.095 172.022 256.796 172.092 253.428C171.882 254.55 172.232 252.796 172.443 252.656C172.443 252.665 172.441 252.674 172.438 252.683C172.434 252.691 172.429 252.698 172.423 252.705C172.416 252.712 172.409 252.717 172.4 252.72C172.391 252.724 172.382 252.726 172.373 252.726C172.41 252.726 172.446 252.711 172.472 252.684C172.499 252.658 172.513 252.622 172.513 252.585C172.724 252.164 172.654 252.375 172.584 252.515C172.895 252.134 173.294 251.834 173.746 251.639C174.198 251.443 174.689 251.359 175.18 251.392C174.689 251.252 175.04 251.322 175.391 251.392H175.32C178.339 253.357 182.409 249.918 180.444 246.69C178.479 243.462 175.04 238.759 171.952 235.039C175.53 232.394 178.866 229.435 181.918 226.196ZM173.987 251.533H174.058C173.847 251.673 173.426 251.673 173.987 251.533Z" fill="#EFDCC4"/>
<path d="M172.444 252.655L172.583 252.516L172.444 252.655Z" fill="#CE9C5C"/>
<path d="M172.373 216.582C173.075 215.529 173.846 214.547 174.548 213.564C175.25 212.581 175.25 212.721 174.758 213.353C180.01 206.371 186.117 200.076 192.936 194.615C192.936 194.615 193.708 193.983 193.287 194.263C192.866 194.544 193.708 193.983 193.638 194.053C198.214 190.54 203.212 187.616 208.517 185.35C212.321 183.809 216.272 182.657 220.308 181.911C222.132 181.56 223.326 179.244 222.764 177.56C222.488 176.692 221.891 175.962 221.096 175.519C220.301 175.075 219.366 174.952 218.483 175.173C201.499 178.192 186.9 188.719 175.601 201.352C172.302 205.071 169.214 209.002 166.266 213.002C163.319 217.003 170.056 220.442 172.373 216.582Z" fill="#CE9C5C"/>
<path d="M177.426 239.883C182.69 242.69 189.498 246.55 193.498 249.638C196.223 251.732 198.696 254.134 200.868 256.796C202.296 258.785 203.541 260.899 204.587 263.113C206.111 266.575 206.738 270.364 206.412 274.132C204.657 278.834 211.395 281.712 213.079 276.799C214.413 269.289 212.448 261.71 208.377 255.323C201.921 245.287 191.252 239.321 181.006 233.847C177.075 231.531 173.496 237.637 177.426 239.883Z" fill="#CE9C5C"/>
<path d="M129.14 244.094C116.788 240.795 105.84 249.849 98.6104 258.832C97.3475 260.236 97.1364 262.482 98.5401 263.815C99.9442 265.148 102.26 265.289 103.523 263.815C105.909 260.938 109.84 256.797 112.085 255.113C113.634 253.912 115.305 252.877 117.068 252.024L117.42 251.884C120.789 250.621 122.543 250.199 125.912 250.551C129.912 252.656 135.036 247.111 129.14 244.094Z" fill="#CE9C5C"/>
<path d="M137.842 212.37C127.038 196.412 113.523 182.469 97.9084 171.173C96.4345 170.05 93.9075 170.821 93.1359 172.436C90.8898 175.804 96.645 178.682 97.5572 179.525C108.3 187.869 117.945 197.537 126.262 208.299C128.719 210.054 131.456 219.599 136.579 217.142C138.053 216.16 138.966 213.984 137.842 212.37Z" fill="#CE9C5C"/>
<path d="M155.809 205.423C158.266 201.282 163.599 186.684 156.16 185.42C151.458 185.701 153.072 190.895 152.581 194.053C152.628 193.585 152.628 193.515 152.581 193.842C152.291 195.799 151.748 197.71 150.967 199.528C146.826 204.651 151.598 210.055 155.809 205.423Z" fill="#CE9C5C"/>
<path d="M163.6 272.167C164.793 275.816 166.056 279.466 167.25 283.045C167.811 284.8 168.303 286.484 168.724 288.239C168.793 288.66 168.934 289.081 169.004 289.502C169.074 289.923 169.074 290.064 169.145 290.344C169.215 290.625 169.074 289.853 169.145 290.415C169.215 290.976 169.285 292.239 169.285 293.222C169.285 294.153 169.654 295.045 170.313 295.703C170.971 296.361 171.863 296.731 172.794 296.731C173.719 296.713 174.601 296.338 175.255 295.684C175.91 295.029 176.285 294.147 176.303 293.222C176.374 289.222 175.321 285.291 174.128 281.501L170.338 270.342C169.145 265.991 162.337 267.816 163.6 272.167Z" fill="#CE9C5C"/>
<path d="M124.368 224.934C128.298 216.511 107.594 214.827 102.33 213.985C96.0837 215.178 98.6804 221.915 104.646 221.213C109.529 221.943 114.31 223.238 118.893 225.074C119.806 225.565 119.455 224.934 117.911 223.039L118.402 221.284C115.805 225.144 121.981 229.004 124.368 224.934Z" fill="#CE9C5C"/>
<path d="M195.323 230.828C197.218 230.407 199.183 229.986 201.148 229.706H201.569C204.481 229.365 207.41 229.201 210.342 229.214C214.833 229.285 214.833 222.196 210.342 222.196C205.85 222.196 189.638 221.494 191.042 228.442C191.303 229.32 191.897 230.061 192.696 230.507C193.497 230.953 194.439 231.068 195.323 230.828Z" fill="#CE9C5C"/>
<path d="M211.044 297.362C210.188 297.384 209.335 297.266 208.517 297.012C206.446 296.227 204.748 294.687 203.765 292.702C202.783 290.717 202.587 288.434 203.218 286.31C203.848 284.187 205.259 282.381 207.166 281.255C209.073 280.128 211.336 279.765 213.5 280.238C214.602 280.559 215.63 281.097 216.521 281.82C217.413 282.543 218.151 283.437 218.694 284.449C219.257 285.455 219.61 286.564 219.731 287.71C219.851 288.857 219.737 290.016 219.396 291.116C219.085 292.223 218.552 293.256 217.827 294.149C217.103 295.042 216.204 295.777 215.184 296.31C213.914 297.002 212.49 297.364 211.044 297.362ZM211.044 287.607C210.823 287.584 210.601 287.643 210.42 287.772C210.239 287.902 210.111 288.093 210.061 288.309C209.971 288.57 209.986 288.856 210.104 289.105C210.222 289.354 210.434 289.547 210.693 289.642C210.981 289.708 211.284 289.658 211.535 289.502C211.749 289.366 211.92 289.171 212.026 288.941C212.078 288.659 212.054 288.368 211.956 288.099C211.79 287.884 211.573 287.715 211.325 287.607H211.044Z" fill="#CE9C5C"/>
<path d="M230.836 181.911C230.006 181.893 229.182 181.775 228.38 181.561C226.159 180.894 224.292 179.376 223.187 177.338C222.083 175.299 221.83 172.907 222.484 170.682C222.806 169.58 223.343 168.553 224.066 167.661C224.79 166.769 225.683 166.031 226.695 165.488C228.73 164.365 231.125 164.088 233.363 164.717C235.583 165.383 237.45 166.901 238.555 168.939C239.659 170.978 239.912 173.371 239.258 175.595C238.727 177.417 237.619 179.018 236.1 180.157C234.581 181.296 232.734 181.911 230.836 181.911ZM230.836 172.085L230.345 172.226C230.113 172.374 229.94 172.597 229.854 172.858C229.787 173.118 229.823 173.394 229.953 173.629C230.084 173.864 230.299 174.04 230.555 174.121C230.825 174.19 231.111 174.157 231.357 174.027C231.604 173.897 231.793 173.68 231.889 173.419C231.93 173.289 231.938 173.15 231.914 173.016C231.89 172.881 231.833 172.755 231.749 172.647C231.633 172.416 231.432 172.24 231.187 172.156L230.836 172.085Z" fill="#CE9C5C"/>
<path d="M174.689 312.732C173.857 312.724 173.032 312.606 172.232 312.381C170.554 311.916 169.055 310.958 167.928 309.631C166.801 308.305 166.097 306.671 165.908 304.94C165.719 303.21 166.053 301.462 166.868 299.923C167.682 298.385 168.94 297.126 170.477 296.309C172.508 295.203 174.894 294.944 177.115 295.588C179.337 296.233 181.214 297.727 182.338 299.748C183.462 301.783 183.739 304.178 183.11 306.416C182.443 308.651 180.933 310.538 178.9 311.68C177.604 312.372 176.158 312.734 174.689 312.732ZM174.689 302.907C174.466 302.924 174.255 303.006 174.08 303.143C173.905 303.281 173.775 303.467 173.706 303.678C173.663 303.807 173.648 303.944 173.66 304.079C173.673 304.214 173.714 304.345 173.78 304.464C173.846 304.583 173.936 304.686 174.044 304.769C174.152 304.851 174.276 304.91 174.408 304.942C174.533 304.987 174.668 305.005 174.801 304.993C174.935 304.981 175.064 304.94 175.179 304.872C175.302 304.807 175.408 304.717 175.492 304.608C175.577 304.5 175.638 304.374 175.671 304.24C175.725 303.982 175.7 303.713 175.601 303.468C175.536 303.346 175.446 303.24 175.337 303.155C175.228 303.071 175.103 303.01 174.969 302.977L174.689 302.907Z" fill="#CE9C5C"/>
<path d="M154.967 183.455C153.698 183.452 152.442 183.196 151.273 182.702C150.104 182.208 149.046 181.486 148.159 180.578C147.15 179.482 146.449 178.138 146.128 176.683C145.808 175.228 145.879 173.714 146.334 172.296C146.706 170.856 147.465 169.545 148.529 168.506C149.593 167.466 150.922 166.738 152.37 166.401C153.953 166.018 155.609 166.057 157.173 166.512C158.736 166.968 160.153 167.825 161.283 168.997C162.306 170.085 163.015 171.429 163.336 172.887C163.658 174.345 163.579 175.862 163.108 177.279C162.749 178.714 162.003 180.023 160.951 181.062C159.899 182.102 158.582 182.833 157.143 183.174C156.434 183.371 155.702 183.465 154.967 183.455ZM154.476 173.84H154.195C154.055 173.84 153.914 173.91 153.774 174.401H153.703C153.563 174.893 153.703 175.033 153.774 175.103C153.969 175.285 154.204 175.418 154.46 175.491C154.717 175.564 154.986 175.576 155.248 175.524C155.388 175.524 155.598 175.454 155.739 174.963C155.879 174.472 155.739 174.331 155.669 174.261C155.334 173.983 154.911 173.834 154.476 173.84Z" fill="#CE9C5C"/>
<path d="M143.317 360.878C125.49 342.911 109.138 346.841 102.961 351.403C101.341 352.604 99.9392 354.076 98.8209 355.755C82.5381 351.614 66.6064 362.422 53.6226 371.265L48.2185 374.915C39.6562 380.529 32.4975 388.952 28.7076 398.005C24.0755 409.024 24.5668 419.902 30.1814 429.447L31.5149 431.693L31.936 432.395L32.8484 433.799C33.0187 434.068 33.2062 434.325 33.4098 434.57C33.6906 434.992 33.9012 435.413 34.1819 435.763L34.8135 436.606L35.5856 437.729C35.7492 438.002 35.9371 438.261 36.147 438.501C36.3871 438.841 36.6448 439.169 36.919 439.483L37.5507 440.325L38.3227 441.238L38.9544 442.01L39.6562 442.852L40.358 443.554L41.0598 444.396L41.7617 445.098L42.4635 445.8L43.0951 446.502L43.8672 447.134L44.4988 447.765L45.2708 448.467L45.9025 449.029L46.6043 449.59L47.3062 450.151L48.008 450.712L48.7098 451.274L49.4116 451.765L50.1135 452.257L50.8153 452.748L51.5171 453.169L51.9382 453.45C52.7804 471.627 74.467 492.402 87.5211 502.016C90.0171 503.858 93.0528 504.82 96.1538 504.754C99.7332 504.754 103.242 503.701 106.33 502.789C135.175 494.367 155.318 480.47 169.565 459.205C170.112 458.364 170.722 457.566 171.39 456.819C173.425 454.152 175.741 451.134 176.022 446.853C178.479 400.251 151.598 369.3 143.317 360.878ZM168.302 446.432C168.162 448.256 167.109 449.73 165.284 452.046L163.179 454.853C149.914 474.575 131.175 487.488 104.155 495.419C98.5401 497.033 94.9607 497.876 92.0831 495.771C77.976 485.313 63.7288 469.803 60.3605 457.521H60.571L60.9919 457.661L61.7641 457.871L62.2554 458.012L63.027 458.293H63.5183L64.3608 458.503H64.7115L65.9046 458.783H65.975L67.0977 458.995H76.7829C89.2056 457.871 99.1716 451.485 105.348 446.291C112.857 440.045 118.963 431.974 121.63 424.745C124.297 417.516 123.455 412.814 120.157 409.445C119.44 408.71 118.46 408.289 117.434 408.276C116.407 408.263 115.417 408.658 114.682 409.375C113.947 410.091 113.526 411.071 113.513 412.097C113.5 413.124 113.895 414.114 114.612 414.849C115.735 415.902 115.595 418.709 114.401 422.078C110.331 432.956 94.399 449.66 76.0811 451.274H68.0804L67.3082 451.064H66.8169L65.975 450.853H65.4836L64.7115 450.643L64.2201 450.502L63.4486 450.222L62.9572 450.081L62.1851 449.8L61.7641 449.59L60.9216 449.239L60.5006 449.098L59.6587 448.677L59.3075 448.537L58.4655 448.116L58.1144 447.905L57.2021 447.414L56.9915 447.274L56.0089 446.712C56.0089 446.642 55.9387 446.642 55.8685 446.642C54.3947 445.66 52.9208 444.607 51.5171 443.484L51.3768 443.343L50.5346 442.641L50.2539 442.361L49.4818 441.659L49.0607 441.308L48.4291 440.677L47.9378 440.185L47.3062 439.554C47.1605 439.373 46.9958 439.208 46.8149 439.063L46.1832 438.361C46.0376 438.179 45.8729 438.015 45.6919 437.869L45.1305 437.168L44.6392 436.606L44.0076 435.904L43.5162 435.272L42.9548 434.57C42.8078 434.325 42.6437 434.091 42.4635 433.868L41.9021 433.167L41.4107 432.395L40.8493 431.693L40.2878 430.921L39.8667 430.219L39.2351 429.307L38.814 428.675L38.1823 427.623C38.0498 427.445 37.9324 427.258 37.8314 427.061C37.4805 426.57 37.1998 426.008 36.8488 425.447C26.3915 407.55 40.8493 388.811 52.4295 381.231L57.9039 377.512C69.7648 369.441 83.0294 360.457 95.5218 362.773C94.7277 365.987 94.3506 369.289 94.399 372.599C94.5397 386.355 100.856 403.339 107.734 408.322C108.576 408.903 109.612 409.133 110.621 408.963C111.63 408.793 112.534 408.235 113.138 407.41C113.727 406.576 113.968 405.546 113.811 404.537C113.654 403.529 113.11 402.621 112.296 402.006C108.365 399.198 102.26 385.302 102.12 372.529C102.12 369.37 102.47 365.51 103.874 362.211L107.944 357.159C112.506 354.14 124.087 352.386 137.772 366.212C145.563 374.143 170.618 403.058 168.302 446.432Z" fill="#452D34"/>
</svg>
