<svg width="1126" height="1126" viewBox="0 0 1126 1126" fill="none" xmlns="http://www.w3.org/2000/svg">
<path d="M984.805 456.973C971.557 457.159 969.705 443.168 968.219 433.069L960.532 442.612C949.321 456.603 927.36 441.129 936.534 425.935C915.874 429.27 908.18 396.934 940.89 395.358C930.512 390.262 918.93 382.942 925.88 369.786C932.825 356.629 946.541 364.134 956.271 370.434C953.491 359.13 950.711 344.954 965.625 341.526C980.545 338.098 983.415 353.664 985.086 365.153C989.437 360.15 994.812 350.421 1002.51 350.235C1015.01 348.383 1023.72 364.319 1015.57 373.955L1008.71 382.387C1034.75 373.121 1043.74 402.215 1023.44 409.349C1037.99 420.097 1023.08 442.89 1007.41 433.81L996.945 427.787C1000.19 440.573 1002.41 455.306 984.805 456.973ZM970.352 420.838C971.208 420.824 972.041 421.115 972.705 421.658C973.363 422.201 973.814 422.961 973.966 423.803L977.764 443.724C979.34 452.897 993.889 450.21 992.031 440.944L988.233 421.209C988.109 420.516 988.182 419.802 988.446 419.15C988.711 418.498 989.161 417.935 989.73 417.526C990.304 417.118 990.985 416.882 991.688 416.845C992.392 416.808 993.09 416.972 993.703 417.318L1011.12 427.417C1019.18 432.235 1026.5 419.448 1018.35 414.816L1011.31 410.739C1010.63 410.379 1010.09 409.816 1009.76 409.13C1009.43 408.444 1009.32 407.671 1009.46 406.92C1009.59 406.17 1009.96 405.481 1010.5 404.952C1011.05 404.423 1011.76 404.081 1012.51 403.975L1021.22 402.307C1027.34 401.288 1029.28 392.486 1023.91 389.151C1019.55 383.776 991.666 399.157 996.759 385.63C998.706 382.109 1012.79 368.581 1011.31 363.949C1010.84 357.74 1002.22 355.239 998.425 360.242L985.824 376.086C985.379 376.625 984.783 377.025 984.118 377.241C983.449 377.456 982.734 377.478 982.053 377.303C981.378 377.128 980.759 376.765 980.28 376.254C979.802 375.744 979.475 375.107 979.34 374.418C976.932 368.303 978.226 346.344 967.015 348.753C965.13 349.134 963.469 350.242 962.395 351.837C961.32 353.432 960.92 355.387 961.275 357.277L964.978 377.013C963.683 392.486 939.314 359.501 932.274 373.492C931.79 374.312 931.474 375.22 931.339 376.164C931.21 377.107 931.266 378.067 931.508 378.988C931.75 379.91 932.172 380.774 932.746 381.532C933.32 382.29 934.041 382.927 934.868 383.406L953.12 393.876C956.086 395.451 955.247 400.176 952.005 400.732C948.764 401.288 929.308 403.141 927.456 407.588C923.747 412.685 928.565 420.189 934.772 418.8L944.779 416.854C948.021 416.113 950.525 420.282 948.392 422.784L943.484 428.899C937.463 436.126 948.949 445.392 954.785 437.98C956.637 436.497 967.482 419.912 970.352 420.838Z" fill="#D13535"/>
<path d="M790.235 186.329C789.25 186.329 788.304 185.939 787.612 185.244C786.914 184.549 786.526 183.606 786.526 182.623V94.7871C786.548 93.8202 786.954 92.9011 787.646 92.2258C788.338 91.551 789.267 91.1728 790.235 91.1733C791.191 91.1733 792.109 91.5538 792.79 92.232C793.465 92.9096 793.848 93.8286 793.848 94.7871V182.623C793.859 183.106 793.775 183.585 793.6 184.034C793.42 184.484 793.156 184.893 792.818 185.239C792.486 185.584 792.081 185.858 791.636 186.046C791.191 186.233 790.713 186.329 790.235 186.329Z" fill="#CE9C5C"/>
<path d="M758.826 180.122C757.954 180.115 757.104 179.822 756.417 179.288C755.669 178.658 755.201 177.76 755.117 176.789C755.033 175.817 755.331 174.851 755.95 174.099L818.769 99.2342C819.411 98.4845 820.323 98.0197 821.302 97.9414C822.281 97.8632 823.255 98.1784 824.003 98.8171C824.758 99.4565 825.219 100.367 825.298 101.349C825.377 102.33 825.062 103.303 824.426 104.052L761.601 178.824C761.257 179.222 760.829 179.543 760.351 179.766C759.873 179.989 759.349 180.11 758.826 180.122Z" fill="#CE9C5C"/>
<path d="M824.7 177.249C824.216 177.247 823.738 177.148 823.288 176.957C822.843 176.766 822.443 176.487 822.106 176.137L753.079 107.11C752.651 106.791 752.302 106.385 752.049 105.919C751.796 105.452 751.644 104.937 751.604 104.407C751.565 103.878 751.644 103.346 751.829 102.849C752.015 102.351 752.308 101.899 752.679 101.524C753.056 101.149 753.506 100.858 754.007 100.672C754.503 100.487 755.037 100.41 755.566 100.448C756.095 100.486 756.607 100.636 757.075 100.891C757.542 101.145 757.947 101.496 758.268 101.921L827.295 170.948C827.644 171.285 827.919 171.688 828.105 172.134C828.297 172.58 828.392 173.059 828.392 173.543C828.392 174.027 828.297 174.506 828.105 174.952C827.919 175.397 827.644 175.8 827.295 176.137C826.963 176.491 826.558 176.773 826.113 176.965C825.668 177.156 825.184 177.253 824.7 177.249Z" fill="#CE9C5C"/>
<path d="M834.061 142.412H746.315C745.33 142.412 744.39 142.021 743.692 141.326C743 140.631 742.606 139.688 742.606 138.705C742.606 137.722 743 136.78 743.692 136.085C744.39 135.39 745.33 134.999 746.315 134.999H834.061C835.04 134.999 835.985 135.39 836.678 136.085C837.375 136.78 837.764 137.722 837.764 138.705C837.764 139.688 837.375 140.631 836.678 141.326C835.985 142.021 835.04 142.412 834.061 142.412Z" fill="#CE9C5C"/>
<path d="M190.851 311.042C189.867 311.042 188.925 310.652 188.23 309.957C187.535 309.262 187.145 308.319 187.145 307.336V219.592C187.145 218.61 187.535 217.667 188.23 216.972C188.925 216.277 189.867 215.886 190.851 215.886C191.333 215.886 191.811 215.982 192.255 216.17C192.7 216.357 193.102 216.632 193.439 216.977C193.776 217.322 194.04 217.732 194.216 218.181C194.392 218.63 194.477 219.11 194.464 219.592V307.336C194.477 307.819 194.392 308.298 194.216 308.747C194.04 309.197 193.776 309.606 193.439 309.952C193.102 310.297 192.7 310.571 192.255 310.759C191.811 310.946 191.333 311.042 190.851 311.042Z" fill="#CE9C5C"/>
<path d="M159.44 304.927C158.55 304.925 157.692 304.596 157.031 304.001C156.287 303.37 155.821 302.473 155.734 301.501C155.647 300.53 155.947 299.564 156.568 298.812L219.387 224.04C220.046 223.409 220.914 223.043 221.826 223.012C222.738 222.981 223.629 223.288 224.328 223.873C225.028 224.458 225.488 225.28 225.619 226.183C225.75 227.086 225.544 228.005 225.04 228.765L162.22 303.537C161.894 303.966 161.473 304.315 160.992 304.556C160.51 304.796 159.979 304.924 159.44 304.927Z" fill="#CE9C5C"/>
<path d="M225.318 302.055C224.833 302.053 224.353 301.954 223.907 301.763C223.462 301.572 223.059 301.293 222.723 300.943L153.696 231.915C153.346 231.571 153.068 231.159 152.878 230.706C152.688 230.253 152.59 229.766 152.59 229.275C152.59 228.783 152.688 228.297 152.878 227.843C153.068 227.39 153.346 226.979 153.696 226.634C154.388 225.955 155.32 225.575 156.29 225.575C157.26 225.575 158.192 225.955 158.885 226.634L227.912 295.754C228.26 296.091 228.536 296.494 228.724 296.94C228.913 297.386 229.01 297.865 229.01 298.348C229.01 298.832 228.913 299.311 228.724 299.757C228.536 300.203 228.26 300.606 227.912 300.943C227.58 301.297 227.178 301.579 226.731 301.77C226.285 301.962 225.804 302.058 225.318 302.055Z" fill="#CE9C5C"/>
<path d="M234.676 267.124H146.932C146.45 267.136 145.97 267.052 145.521 266.876C145.071 266.7 144.662 266.436 144.317 266.099C143.971 265.762 143.697 265.36 143.51 264.915C143.322 264.47 143.226 263.993 143.226 263.511C143.226 262.528 143.616 261.585 144.311 260.89C145.006 260.195 145.949 259.804 146.932 259.804H234.676C235.659 259.804 236.602 260.195 237.297 260.89C237.992 261.585 238.382 262.528 238.382 263.511C238.382 263.993 238.286 264.47 238.099 264.915C237.911 265.36 237.637 265.762 237.291 266.099C236.945 266.436 236.536 266.7 236.087 266.876C235.638 267.052 235.158 267.136 234.676 267.124Z" fill="#CE9C5C"/>
<path d="M272.015 758.009C275.258 752.539 277.946 746.798 273.962 741.795C220.222 673.877 180.473 619.488 180.473 619.488C166.853 602.441 168.057 577.514 183.994 562.691C188.189 558.803 193.14 555.821 198.54 553.933C203.939 552.044 209.67 551.29 215.374 551.716C221.078 552.142 226.633 553.74 231.692 556.41C236.751 559.079 241.205 562.763 244.775 567.232L258.025 583.908C262.568 589.654 269.195 593.368 276.464 594.252C283.733 595.141 291.058 593.121 296.847 588.635L297.218 588.264C302.99 583.778 306.762 577.194 307.716 569.945C308.67 562.697 306.729 555.363 302.314 549.535L283.69 524.981C250.89 483.75 191.128 476.059 148.97 506.821C103.57 539.992 95.7866 604.202 130.81 648.213L236.066 773.295C240.05 778.208 241.718 778.855 247.833 777.004C257.376 774.128 267.012 766.44 272.015 758.009Z" fill="#D13535"/>
<path d="M384.591 874.289L404.511 899.395C409.056 905.091 411.201 912.328 410.492 919.583C409.783 926.832 406.274 933.518 400.713 938.223C400.603 938.391 400.44 938.521 400.249 938.588C397.389 941.037 394.066 942.883 390.477 944.014C386.888 945.145 383.108 945.539 379.362 945.173C375.617 944.813 371.983 943.699 368.679 941.898C365.374 940.097 362.466 937.649 360.13 934.7L341.321 911.073C337.337 906.07 339.19 901.624 341.506 895.596C346.417 882.534 357.628 875.679 367.727 872.252C374.213 869.933 380.329 868.824 384.591 874.289Z" fill="#D13535"/>
<path d="M118.95 578.444C131.737 582.985 144.801 586.503 157.68 590.859C167.13 593.915 176.118 582.332 170.744 573.902C162.312 564.452 144.06 563.619 132.478 558.523C127.289 556.855 121.359 553.89 116.171 557.318C107.461 562.136 109.314 575.945 118.95 578.444Z" fill="#CE9C5C"/>
<path d="M161.757 678.419C175.285 676.382 188.257 669.803 198.726 661.186C209.938 648.951 191.407 633.575 180.751 646.081L183.068 644.319C177.85 648.118 172.186 651.258 166.204 653.678L168.892 652.474C165.781 653.977 162.475 655.04 159.07 655.626L162.128 655.164C146.747 654.883 146.469 678.419 161.757 678.419Z" fill="#CE9C5C"/>
<path d="M220.778 748.555C230.785 747.632 255.245 732.898 255.338 722.058C255.431 715.941 249.964 710.29 243.756 710.476C237.549 710.662 234.12 715.851 229.488 719.093L231.804 717.241C227.542 720.578 222.909 723.91 217.906 726.043L220.686 724.929C219.802 725.334 218.866 725.615 217.906 725.762L220.964 725.396C205.768 725.21 205.675 748.651 220.778 748.555Z" fill="#CE9C5C"/>
<path d="M373.936 926.827C382.46 920.805 396.265 915.43 397.562 903.848C397.655 897.73 392.188 892.079 385.981 892.265C379.772 892.451 376.066 897.73 371.434 901.067L373.75 899.216C368.376 904.309 359.111 905.975 356.887 913.758C353.922 923.394 365.226 932.106 373.936 926.827Z" fill="#CE9C5C"/>
<path d="M201.135 496.815C199.19 511.083 198.726 525.538 196.78 539.806L197.244 536.749C193.908 546.478 205.397 555.836 214.2 550.277C223.002 544.717 220.593 512.196 223.836 500.336L223.372 503.486C227.82 488.661 205.212 481.897 201.135 496.815Z" fill="#CE9C5C"/>
<path d="M231.248 785.806C227.079 785.806 224.114 783.858 220.5 779.317L115.152 654.235C106.267 643.159 99.7298 630.389 95.9388 616.707C92.1478 603.026 91.182 588.714 93.1 574.644C99.4006 519.515 154.067 478.191 208.825 486.622C251.354 492.552 271.367 516.55 294.716 549.257C319.455 584.65 270.533 622.729 242.366 589.93C231.063 576.22 223.372 560.931 203.267 559.541C171.486 556.947 152.677 594.471 172.875 619.302C173.246 619.769 213.273 674.338 266.271 741.423C272.85 749.758 267.383 758.932 264.696 763.384C257.84 774.78 244.498 784.787 231.248 785.806ZM123.12 647.841L228.376 772.737C229.951 774.87 231.063 775.703 231.063 775.613C240.143 774.78 251.169 766.254 255.987 758.195C259.785 751.801 259.693 749.483 258.303 747.721C206.139 681.75 166.483 627.733 164.722 625.324C139.335 593.638 163.61 546.106 204.1 549.442C227.727 551.202 237.178 566.86 250.335 583.536C254.058 588.342 259.537 591.472 265.566 592.237C271.596 593.002 277.682 591.337 282.486 587.616C287.29 583.891 290.419 578.415 291.183 572.382C291.948 566.354 290.286 560.268 286.563 555.464L268.032 530.911C186.311 436.959 49.2745 547.681 123.12 647.841Z" fill="#452D34"/>
<path d="M370.507 953.233C350.308 955.085 336.781 929.972 325.662 917.096C313.803 900.234 336.503 874.936 354.385 870.215C358.925 868.543 369.673 864.84 376.9 873.918L396.821 898.934C414.611 919.876 397.47 953.784 370.507 953.233ZM364.763 878.274C351.699 879.664 337.707 889.575 334.372 900.786C332.056 906.813 331.778 908.294 333.723 910.702C341.969 919.229 354.2 943.131 368.191 942.855C387.834 945.264 401.917 920.619 388.853 905.328C386.258 903.38 368.747 876.608 364.763 878.274Z" fill="#452D34"/>
<path d="M989.161 602.345C955.619 571.031 902.344 574.92 872.6 609.853L691.464 821.662C714.161 821.566 735.289 822.219 751.503 822.495L903.458 645.062C915.035 631.532 935.144 628.572 949.597 639.04C953.367 641.792 956.525 645.287 958.883 649.317C961.241 653.341 962.744 657.809 963.301 662.441C963.858 667.073 963.453 671.772 962.119 676.241C960.779 680.709 958.534 684.857 955.528 688.425L944.132 701.764C940.26 706.322 938.335 712.215 938.768 718.175C939.202 724.14 941.959 729.69 946.445 733.641L946.816 733.916C951.313 737.839 957.177 739.826 963.126 739.443C969.081 739.06 974.641 736.342 978.598 731.879L995.465 713.07C1023.35 680.456 1020.3 631.346 989.161 602.345Z" fill="#EFDCC4"/>
<path d="M954.229 732.155C959.232 734.198 970.628 737.529 971.647 729.656C971.557 724.191 965.811 725.3 962.012 725.024L963.216 725.21C961.539 724.962 959.89 724.529 958.309 723.91L959.418 724.377C954.229 720.758 948.764 728.913 954.229 732.155Z" fill="#CE9C5C"/>
<path d="M980.821 722.429C993.056 712.322 1002.13 698.91 1006.95 683.793C1007.78 678.419 1013.53 668.598 1006.58 665.632C998.797 664.427 1000.83 674.896 998.521 679.623C996.546 686.506 993.512 693.034 989.533 698.989C985.391 705.405 980.225 711.1 974.242 715.85C969.982 719.925 976.471 726.6 980.821 722.429Z" fill="#CE9C5C"/>
<path d="M993.979 640.801C996.388 644.229 998.335 650.994 998.611 653.774C997.688 662.942 1006.77 665.171 1008.16 657.387C1007.69 651.179 1004.91 630.699 995.645 634.408C994.587 635.044 993.821 636.068 993.512 637.261C993.197 638.46 993.365 639.726 993.979 640.801Z" fill="#CE9C5C"/>
<path d="M980.82 625.606C983.882 626.996 987.681 630.7 990.923 627.919C996.945 622.826 986.938 616.618 981.935 617.176C976.932 617.727 977.303 623.749 980.82 625.606Z" fill="#CE9C5C"/>
<path d="M765.956 827.87C749.556 827.594 727.967 827.223 705.359 827.409C701.189 827.499 698.595 822.124 701.47 818.972L873.343 617.541C880.997 608.616 890.379 601.322 900.915 596.099C911.456 590.876 922.937 587.837 934.682 587.156C1008.71 581.967 1052.35 671.84 1003.99 727.433C1004.08 727.523 987.124 746.242 987.124 746.332C982.233 751.926 975.322 755.342 967.91 755.838C960.498 756.333 953.199 753.862 947.604 748.977C942.016 744.087 938.6 737.175 938.104 729.763C937.609 722.351 940.074 715.046 944.965 709.458L956.271 696.209C958.838 693.17 960.751 689.636 961.899 685.826C963.047 682.016 963.402 678.014 962.941 674.063C960.436 649.233 927.918 640.059 912.075 659.425L769.85 826.019C769.372 826.593 768.781 827.054 768.106 827.375C767.436 827.696 766.704 827.865 765.956 827.87ZM716.385 817.121L763.643 817.588L904.291 652.75C925.695 626.715 969.795 639.412 973.037 672.859C975.632 691.482 963.959 703.34 952.748 716.037C949.642 719.588 948.071 724.225 948.381 728.936C948.696 733.647 950.863 738.036 954.414 741.143C957.965 744.255 962.609 745.826 967.319 745.51C972.024 745.201 976.42 743.028 979.526 739.477L996.298 720.759C1039.19 672.583 999.815 592.159 935.234 597.343C924.879 597.928 914.743 600.601 905.445 605.199C896.148 609.803 887.875 616.241 881.127 624.121L716.385 817.121Z" fill="#452D34"/>
<path d="M905.215 535.822C863.523 516.735 814.233 537.211 796.995 579.833L697.391 826.018C714.719 825.736 731.952 825.736 747.519 825.922L837.488 603.459C844.157 586.969 862.318 577.796 879.276 583.171C883.727 584.566 887.841 586.874 891.364 589.941C894.882 593.008 897.724 596.773 899.716 600.994C901.714 605.215 902.812 609.802 902.941 614.468C903.076 619.133 902.243 623.776 900.493 628.104L894.004 644.319C891.73 649.862 891.741 656.081 894.032 661.619C896.323 667.157 900.707 671.564 906.239 673.877H906.701C912.205 676.195 918.407 676.235 923.945 674C929.483 671.761 933.906 667.416 936.259 661.923L946.265 638.764C953.902 619.612 953.902 598.259 946.265 579.107C938.628 559.955 923.939 544.462 905.215 535.822Z" fill="#D13535"/>
<path d="M912.999 635.983C924.767 634.126 940.981 637.649 949.226 627.181C952.378 621.992 950.526 614.299 945.061 611.333C939.591 608.373 934.126 611.243 928.566 611.89L931.717 611.429C922.915 613.466 912.076 610.128 904.754 616.246C897.432 622.364 902.992 636.445 912.999 635.983Z" fill="white"/>
<path d="M898.545 577.053C900.582 570.384 902.068 563.523 904.753 556.947L903.548 559.727C904.42 557.654 905.54 555.694 906.886 553.889L905.124 556.206C919.487 545.921 905.124 525.444 891.409 537.026C883.907 542.585 872.414 571.492 877.327 579.833C882.235 588.174 896.046 586.688 898.545 577.053Z" fill="white"/>
<path d="M838.596 571.493H838.23L841.286 571.865H840.729L843.51 572.979L842.677 572.512L844.99 574.273C844.123 573.469 843.346 572.568 842.677 571.589L844.438 573.902C837.302 566.861 835.169 553.891 825.444 549.999C819.602 548.331 812.657 552.13 811.171 558.153C809.967 570.384 821.83 581.038 828.404 590.488C845.733 606.426 861.761 574.921 838.596 571.589V571.493Z" fill="white"/>
<path d="M815.988 623.569C805.52 623.011 793.105 614.114 783.56 618.655C774.021 623.197 776.705 637.188 786.25 639.783C795.79 642.377 808.301 648.771 818.769 644.69C827.385 640.059 825.629 625.792 815.988 623.569Z" fill="white"/>
<path d="M788.934 688.611C778.466 687.682 767.441 679.066 757.249 683.512C751.874 686.574 749.741 694.171 753.079 699.45C754.677 701.994 757.148 703.868 760.029 704.729C770.221 706.587 781.432 714.089 791.715 709.733C800.331 705.101 798.569 690.834 788.934 688.611Z" fill="white"/>
<path d="M761.6 748.189C755.691 748.465 749.765 748.189 743.906 747.35L746.962 747.817C716.571 737.439 717.961 776.633 741.683 767.645L735.847 769.221H736.123L733.067 768.754C744.739 769.868 759.473 775.428 769.851 768.016C777.077 761.156 771.607 747.817 761.6 748.189Z" fill="white"/>
<path d="M742.605 795.255C737.005 795.475 731.4 795.227 725.84 794.512L728.896 794.884C706.845 787.286 699.152 809.337 715.366 816.011C726.577 817.216 740.939 822.219 750.76 814.993C758.082 808.228 752.612 794.884 742.605 795.255Z" fill="white"/>
<path d="M687.108 827.594C686.275 827.571 685.465 827.352 684.733 826.952C684.007 826.552 683.382 825.984 682.921 825.297C682.459 824.605 682.167 823.812 682.071 822.99C681.981 822.163 682.088 821.324 682.381 820.547L781.985 574.368C786.431 563.478 793.021 553.592 801.362 545.299C809.702 537.006 819.624 530.475 830.537 526.093C897.988 497.185 969.61 570.288 940.705 637.278C932.088 658.591 923.1 685.645 894.099 674.991C887.351 672.138 881.994 666.757 879.174 660.004C876.349 653.25 876.287 645.652 878.994 638.854C883.721 627.367 891.876 611.986 884.83 599.661C874.919 576.963 840.639 578.443 831.927 601.794L741.958 824.256C741.559 825.207 740.895 826.023 740.034 826.597C739.178 827.177 738.176 827.487 737.141 827.498C718.608 827.312 702.214 827.312 687.108 827.594ZM862.133 530.17C831.837 529.892 802.555 549.905 791.44 578.167L694.706 817.306C706.75 817.12 719.632 817.12 733.803 817.216L822.478 597.995C834.15 566.585 880.755 564.728 894.099 595.305C910.128 625.51 868.616 650.155 898.36 665.817C919.577 673.877 924.676 646.913 931.255 633.389C951.82 585.669 913.831 529.336 862.133 530.17Z" fill="#452D34"/>
<path d="M669.874 585.113H670.336C676.11 586.655 682.256 585.873 687.456 582.923C692.656 579.98 696.489 575.106 698.132 569.366L702.86 552.5C704.16 548.022 706.372 543.858 709.349 540.267C712.326 536.677 716.013 533.735 720.172 531.624C724.331 529.514 728.878 528.28 733.532 527.998C738.192 527.716 742.858 528.392 747.242 529.985C763.918 536.193 772.72 554.539 767.807 571.679L698.132 819.529C714.718 819.253 730.842 819.344 745.852 819.529L814.322 577.796C826.833 533.692 800.517 487.271 755.763 476.709C714.347 466.98 671.912 491.626 660.239 532.95L653.936 557.411C652.405 563.197 653.221 569.354 656.204 574.543C659.187 579.732 664.1 583.531 669.874 585.113Z" fill="#CE9C5C"/>
<path d="M690.721 491.996C681.086 494.313 679.139 508.488 687.941 513.214C690.085 514.271 692.128 515.511 694.059 516.92C696.749 519.131 699.203 521.615 701.375 524.332C701.471 524.425 701.561 524.518 701.561 524.61C703.136 533.227 715.18 537.397 721.669 530.633C735.193 518.218 703.598 488.939 690.721 491.996Z" fill="#D13535"/>
<path d="M770.587 531.19C773.53 526.205 776.778 521.408 780.318 516.828L778.556 519.144C784.302 511.639 796.532 502.281 787.172 492.645C771.701 479.488 758.267 509.323 750.574 519.515C743.072 532.672 762.803 544.254 770.587 531.19Z" fill="#D13535"/>
<path d="M765.308 610.501C775.686 613.742 790.325 624.402 800.888 619.488C803.522 617.924 805.436 615.386 806.218 612.42C807 609.459 806.578 606.308 805.059 603.646C798.851 595.677 786.712 595.958 778.281 591.045L781.061 592.249C766.603 581.685 750.484 599.571 765.308 610.501Z" fill="#D13535"/>
<path d="M741.868 699.822C748.998 705.011 757.801 707.048 766.417 707.42L763.361 706.953L765.213 707.42L762.438 706.305L763.271 706.772L760.952 704.915L761.414 705.472L759.658 703.064C759.748 703.249 759.844 703.339 759.844 703.525L758.729 700.745C760.677 710.661 775.219 712.98 780.042 703.992C786.34 691.943 772.906 682.679 761.695 683.883L764.847 684.255C762.067 683.883 759.354 683.135 756.782 682.032L759.472 683.236C743.072 669.802 727.134 688.239 741.868 699.822Z" fill="#D13535"/>
<path d="M722.502 778.208C733.341 778.67 746.409 785.063 756.596 781.078C765.308 776.447 763.546 762.084 753.821 759.861C744.09 757.638 733.988 755.786 724.077 755.601C711.848 756.524 710.643 775.518 722.502 778.208Z" fill="#D13535"/>
<path d="M687.851 827.594C687.068 827.571 686.297 827.38 685.599 827.025C684.907 826.671 684.299 826.159 683.827 825.534C683.354 824.909 683.027 824.189 682.875 823.423C682.718 822.652 682.74 821.865 682.937 821.105L752.246 576.31C756.411 561.487 748.813 545.921 734.827 540.732C720.836 535.544 701.189 544.161 697.114 559.912L692.387 576.682C690.124 583.48 685.341 589.153 679.026 592.541C672.711 595.929 665.339 596.774 658.422 594.905C651.505 593.031 645.568 588.585 641.819 582.479C638.077 576.367 636.81 569.056 638.279 562.043C638.369 562.043 644.577 537.675 644.577 537.582C664.404 466.331 762.528 452.804 799.774 517.384C805.734 527.514 809.584 538.743 811.098 550.397C812.606 562.052 811.75 573.89 808.576 585.208L741.035 823.699C740.742 824.774 740.106 825.725 739.212 826.395C738.322 827.07 737.236 827.425 736.122 827.408C718.242 827.312 702.489 827.312 687.851 827.594ZM724.815 528.78C750.203 528.317 769.479 554.353 762.067 579.09L694.61 817.306C706.288 817.12 718.703 817.12 732.323 817.216L798.756 582.428C801.553 572.427 802.312 561.971 800.99 551.673C799.673 541.376 796.296 531.449 791.068 522.48C758.819 465.868 671.265 477.635 654.398 540.269L648.19 564.638C646.963 569.197 647.594 574.053 649.952 578.145C652.304 582.242 656.188 585.231 660.746 586.458C665.305 587.684 670.167 587.054 674.259 584.702C678.351 582.343 681.339 578.46 682.566 573.901L687.293 557.132C691.649 540.732 707.954 528.502 724.815 528.78Z" fill="#452D34"/>
<path d="M436.014 603.369L436.755 604.202L434.903 601.794C435.881 603.071 436.691 604.472 437.311 605.964L436.107 603.184C438.053 607.816 438.609 612.819 439.998 617.636C440.925 620.985 442.23 624.221 443.89 627.271C445.685 630.249 447.73 633.074 450.005 635.702C456.769 643.857 464.922 650.808 473.354 657.105C480.957 662.728 489.087 667.601 497.63 671.654C507.021 676.195 516.825 679.825 526.908 682.493C546.163 687.66 566.225 689.106 586.024 686.753C596.323 685.633 606.482 683.427 616.319 680.18C627.069 676.471 637.447 671.744 645.877 663.966C650.014 660.313 653.329 655.828 655.608 650.808C656.514 648.883 657.285 646.902 657.921 644.876C658.49 642.495 658.923 640.081 659.221 637.649C659.576 634.819 659.604 631.959 659.311 629.123C658.653 622.33 657.285 615.622 655.237 609.11C653.38 603.274 651.624 597.252 648.562 591.877C646.902 588.951 644.842 586.272 642.45 583.908C640.238 581.752 637.289 580.525 634.205 580.48C631.138 580.503 628.206 581.735 626.039 583.902C623.872 586.069 622.645 589.001 622.623 592.063C622.707 595.141 623.928 598.073 626.05 600.308L628.273 602.717L626.422 600.403C628.065 602.553 629.404 604.923 630.406 607.444L629.292 604.664C630.811 608.542 632.111 612.504 633.181 616.522C634.605 620.878 635.657 625.341 636.332 629.866L635.961 626.81C636.456 630.406 636.49 634.047 636.057 637.649L636.428 634.593C636.051 637.098 635.398 639.552 634.481 641.91L635.59 639.13C634.627 641.381 633.383 643.497 631.886 645.433L633.738 643.114C631.706 645.641 629.371 647.915 626.787 649.879L629.106 648.117C624.75 651.382 619.983 654.061 614.929 656.087L617.709 654.978C607.056 659.373 595.873 662.362 584.448 663.87L587.504 663.409C574.498 665.12 561.32 665.12 548.311 663.409L551.369 663.78C537.976 661.996 524.885 658.417 512.454 653.121L515.234 654.325C503.787 649.496 493.011 643.204 483.175 635.612L485.492 637.464C477.934 631.791 471.118 625.189 465.2 617.822L466.961 620.135C465.197 617.845 463.705 615.357 462.513 612.723L463.718 615.503C462.05 611.519 461.309 607.168 460.29 602.902C459.711 600.426 458.905 598.006 457.881 595.676C456.562 592.485 454.714 589.541 452.414 586.969C450.561 584.836 446.948 583.536 444.261 583.536C441.17 583.565 438.211 584.791 436.014 586.969C434.069 589.193 432.493 592.063 432.679 595.119C432.792 598.175 433.972 601.096 436.014 603.369Z" fill="#CE9C5C"/>
<path d="M595.287 915.148C607.41 891.95 611.051 865.239 605.57 839.638C598.811 823.328 576.94 831.297 584.538 852.976L584.076 849.83C585.236 858.655 585.236 867.592 584.076 876.422L584.448 873.271C583.277 882.084 580.976 890.712 577.587 898.934L578.702 896.154C564.986 916.448 585.095 928.864 595.287 915.148Z" fill="#CE9C5C"/>
<path d="M222.723 865.763C222.538 925.526 286.84 965.367 342.248 957.217C363.465 956.66 357.628 927.845 337.708 934.7L340.765 934.238C332.09 935.364 323.303 935.33 314.636 934.143L317.694 934.514C308.318 933.304 299.152 930.805 290.453 927.102L293.233 928.306C285.302 924.98 277.828 920.652 270.996 915.43L273.405 917.281C267.599 912.852 262.398 907.68 257.932 901.9L259.785 904.309C255.846 899.17 252.547 893.571 249.963 887.633L251.168 890.413C248.685 884.476 246.973 878.251 246.072 871.88L246.535 874.936C245.423 869.1 247.184 862.06 242.459 857.518C235.602 850.291 222.353 855.756 222.723 865.763Z" fill="#CE9C5C"/>
<path d="M487.9 351.996C481.6 348.29 472.52 354.127 473.169 361.539C473.817 368.952 483.916 375.067 490.217 369.229C496.517 364.782 494.572 354.034 487.9 351.996Z" fill="#452D34"/>
<path d="M581.02 351.996C574.627 348.29 565.543 354.127 566.196 361.539C566.843 368.952 577.035 375.067 583.333 369.229C589.636 364.782 587.689 354.034 581.02 351.996Z" fill="#452D34"/>
<path d="M536.081 365.153C536.353 365.87 536.539 366.616 536.637 367.376C536.266 386.278 535.432 385.722 546.921 399.25C547.014 399.898 547.477 400.454 547.477 401.102C547.477 399.25 547.292 403.697 547.477 401.659C547.422 402.337 547.232 402.999 546.921 403.604C547.662 402.307 546.18 404.901 545.902 405.179C545.624 405.457 544.883 406.106 544.698 406.384C544.512 406.662 545.346 405.921 544.79 406.199L543.4 407.125C543.215 407.218 542.103 407.681 543.122 407.311C539.88 408.422 538.582 408.422 534.969 408.144C528.946 408.052 528.946 417.41 534.969 417.41C555.909 419.356 564.063 399.064 547.662 385.629C548.218 386.556 547.848 385.908 547.662 385.722L546.458 383.591C546.55 383.683 546.736 384.425 546.458 383.591C546.199 382.831 545.982 382.058 545.809 381.275C545.809 380.997 545.532 380.255 545.809 381.182C545.161 375.067 546.828 368.766 545.068 362.744C543.308 356.721 534.505 359.408 536.081 365.153Z" fill="#452D34"/>
<path d="M489.569 310.486C536.915 324.662 628.363 301.221 649.305 334.484C655.608 344.398 673.393 317.991 673.393 317.991C673.393 317.991 692.483 247.388 636.98 198.096C596.121 161.775 544.327 160.942 516.902 172.894C489.476 184.847 506.432 170.022 453.526 179.195C397.285 188.924 376.345 292.696 386.815 327.535C388.019 331.426 410.905 337.171 415.816 333.835C420.726 330.499 415.538 325.033 433.42 320.308C456.121 314.377 462.05 262.769 467.146 263.418C472.243 264.066 462.884 302.518 489.569 310.486Z" fill="#452D34"/>
<path d="M590.656 527.947C595.547 528.535 600.466 528.844 605.385 528.873C651.438 528.873 666.91 500.706 674.136 467.721C682.662 428.435 674.136 370.434 674.136 370.434L661.349 383.498L651.714 388.409L624.565 449.653L605.385 472.261L596.307 489.865L591.861 511.917L590.656 527.947Z" fill="#452D34"/>
<path d="M386.814 366.82C386.814 366.82 376.437 426.119 386.444 467.536C394.412 500.428 413.962 525.445 447.688 528.873C463.161 530.448 472.89 529.615 472.89 529.615L463.81 480.23L446.02 459.66L425.544 428.436L414.703 391.281L412.48 382.572L389.13 363.948L386.258 357.092L386.814 366.82Z" fill="#452D34"/>
<path d="M561.283 347.27L561.654 346.992C562.722 346.221 563.873 345.568 565.083 345.047C564.711 345.139 564.621 345.232 564.987 345.047C566.946 344.368 568.966 343.872 571.015 343.564C572.123 343.286 580.183 342.915 581.111 343.193C585.282 343.471 590.099 346.251 592.137 347.733C596.397 351.996 602.976 345.417 598.626 341.248C592.682 336.355 585.197 333.728 577.498 333.835C569.439 334.02 561.005 335.225 554.798 340.692C550.443 344.861 557.021 351.439 561.283 347.27Z" fill="#452D34"/>
<path d="M468.259 344.212C469.278 343.378 467.518 344.676 468.629 343.934C469.707 343.177 470.855 342.526 472.058 341.989H471.872C473.817 341.267 475.838 340.77 477.895 340.506C479.1 340.228 487.16 339.765 488.087 340.135C492.164 340.413 497.074 343.1 499.02 344.676C503.282 348.845 509.953 342.267 505.598 338.097C499.608 333.225 492.102 330.603 484.381 330.685C476.412 330.87 467.888 332.075 461.68 337.542C457.418 341.711 463.997 348.289 468.259 344.12V344.212Z" fill="#452D34"/>
<path d="M612.228 417.258C625.02 413.42 632.888 401.965 629.804 391.672C626.714 381.379 613.837 376.146 601.045 379.985C588.252 383.822 580.39 395.277 583.474 405.57C586.564 415.863 599.435 421.096 612.228 417.258Z" fill="#D13535"/>
<path d="M482.774 408.439C485.862 398.146 477.995 386.691 465.203 382.853C452.41 379.015 439.536 384.248 436.448 394.541C433.36 404.834 441.227 416.289 454.02 420.126C466.812 423.965 479.686 418.732 482.774 408.439Z" fill="#D13535"/>
<path d="M535.34 473.837C513.196 476.617 484.102 433.532 508.655 434.181C526.086 439.898 544.892 439.865 562.302 434.088C586.576 433.439 558.596 476.524 535.34 473.837ZM511.25 445.484C521.442 469.667 550.072 469.111 559.801 445.392C543.919 449.779 527.149 449.81 511.25 445.484Z" fill="#452D34"/>
<path d="M406.92 346.158C407.754 335.596 398.674 334.206 397.284 341.711C398.118 347.363 397.655 361.169 405.994 360.149C412.943 357.648 406.642 349.957 406.735 344.954C406.828 345.325 406.828 345.695 406.92 346.158Z" fill="#452D34"/>
<path d="M660.425 345.695C660.684 346.517 660.898 347.353 661.072 348.197C661.162 348.997 661.162 349.806 661.072 350.606C660.886 351.255 660.791 351.903 660.611 352.552C656.812 357.74 664.685 363.67 668.208 358.018C671.726 352.367 671.54 340.785 664.499 336.986C660.791 335.782 657.087 340.507 659.31 343.842L660.425 345.695Z" fill="#452D34"/>
<path d="M684.7 681.014C682.291 678.324 680.901 674.339 677.474 672.859C674.046 671.379 669.876 676.382 672.189 679.624C685.995 698.151 696.187 708.996 705.732 730.118C707.105 733.574 708.191 737.142 708.974 740.777C710.549 746.518 719.537 744.019 717.961 738.273C711.478 713.904 698.967 701.399 684.7 681.014Z" fill="#452D34"/>
<path d="M744.277 635.056C738.52 626.321 731.237 618.695 722.778 612.538C717.499 608.002 668.947 578.073 667.557 590.116C667.27 591.298 667.444 592.542 668.052 593.594C668.654 594.647 669.639 595.424 670.804 595.773C674.507 597.163 678.12 598.547 681.829 600.123C692.387 604.389 709.811 613.838 718.518 620.789C723.724 624.869 728.451 629.535 732.599 634.684C735.194 637.74 737.602 644.229 742.606 641.449C744.553 640.149 745.667 637.279 744.277 635.056Z" fill="#452D34"/>
<path d="M621.233 583.818L624.75 584.279C632.14 585.315 639.473 586.733 646.711 588.54C652.457 590.116 655.051 581.128 649.215 579.557C643.373 577.982 615.858 571.678 603.443 573.53C600.663 567.137 596.768 552.407 596.307 546.663C594.545 535.637 595.378 518.496 596.678 510.435C597.325 500.15 601.406 489.68 601.771 479.488C617.063 465.452 629.495 448.587 638.37 429.825C644.955 416.373 649.93 402.191 653.194 387.575C654.235 387.954 655.344 388.081 656.442 387.945C682.662 380.162 701.842 333.743 673.86 317.621C668.575 314.748 662.649 315.397 657.832 318.084V312.988C658.293 309.93 656.717 306.224 653.194 306.409C644.859 306.317 649.767 327.256 648.562 333.279C648.748 344.768 648.562 360.056 647.082 369.785C644.876 385.812 640.576 401.481 634.295 416.39C628.409 430.206 620.85 443.244 611.778 455.212C606.628 461.716 600.995 467.818 594.916 473.466C594.579 473.638 594.292 473.893 594.084 474.207C584.426 482.97 573.412 490.105 561.469 495.332C557.114 497.556 541.826 501.447 537.842 501.911C510.416 504.69 485.399 493.201 465.664 474.577C465.284 473.972 464.737 473.489 464.089 473.188C450.322 459.577 439.311 443.438 431.66 425.656C427.676 417.039 422.672 398.601 421.653 389.335C420.171 385.351 421.56 375.808 420.356 369.971C421.838 362.651 419.615 349.587 420.541 345.232C420.449 330.87 420.356 316.416 420.449 302.054C420.541 296.125 411.183 296.032 411.183 302.054V316.694C400.898 313.081 388.668 322.253 384.035 331.519C381.348 338.283 381.904 345.973 383.387 352.922C386.908 367.747 397.655 380.903 411.925 386.37C415.631 421.023 432.772 455.676 457.603 479.673C460.753 490.885 464.552 506.173 465.757 515.16C467.887 528.687 465.572 541.752 461.124 553.241C457.513 561.88 451.738 569.444 444.354 575.201C393.115 601.422 342.434 640.334 315.378 694.171C311.394 702.321 280.077 763.846 291.659 765.236C292.85 765.551 294.118 765.388 295.191 764.78C296.264 764.178 297.058 763.176 297.404 761.994C301.017 750.412 306.669 734.935 310.56 725.671C319.455 704.178 332.705 680.917 345.955 663.87C365.875 638.297 389.78 617.636 417.854 600.865C429.251 594.657 440.277 589.193 449.635 582.152C458.9 622.64 489.94 658.681 530.986 668.688C582.963 680.827 665.705 670.354 629.106 597.809C627.531 595.305 624.66 589.097 621.233 583.818ZM658.665 329.388C659.908 327.737 661.529 326.404 663.386 325.496L663.758 325.311L664.962 325.033H665.615C666.825 325.009 668.03 325.262 669.133 325.774C672.189 327.256 672.374 327.627 674.783 330.129L675.25 330.685C675.155 330.685 675.065 330.5 674.879 330.222C675.734 331.401 676.511 332.64 677.192 333.928C678.492 337.449 678.12 341.711 677.659 346.899C677.017 351.13 675.864 355.268 674.232 359.222C672.78 362.389 671.007 365.4 668.947 368.21C665.446 372.581 660.972 376.071 655.884 378.402L654.956 378.587C657.162 366.081 658.124 353.387 657.832 340.692V330.685C658.158 330.289 658.439 329.853 658.665 329.388ZM399.88 366.357C393.208 357.277 390.614 349.123 391.726 338.097C391.911 335.41 393.949 332.167 398.86 328.183L398.397 328.554C401.454 326.237 402.288 325.867 405.346 325.126C408.404 324.384 406.55 324.941 408.311 325.496L409.423 326.145C409.93 326.606 410.531 326.954 411.183 327.164C411.183 341.433 411.276 355.701 411.183 369.971C411.183 371.916 411.183 373.955 411.276 375.993C406.93 373.491 403.069 370.227 399.88 366.357ZM623.732 646.727C619.376 651.916 616.23 653.954 609.651 656.92C605.666 658.777 593.898 661.461 587.043 662.204C576.755 663.684 559.43 664.332 546.829 662.48C500.131 657.477 465.572 617.822 457.603 575.939C457.618 575.719 457.587 575.5 457.511 575.291C465.471 567.266 470.914 557.091 473.169 546.014C478.358 527.576 474.744 508.489 470.019 490.329C477.978 496.338 486.703 501.261 495.962 504.968C529.317 519.237 563.321 509.323 590.842 488.568C585.839 516.272 582.687 544.809 592.879 571.588C595.564 578.257 609.369 612.537 617.805 607.72C619.747 606.425 621.047 603.459 619.471 601.326C615.11 595.462 611.204 589.266 607.793 582.799H608.165L608.632 583.261C617.338 591.973 626.973 613.095 628.273 624.215C629.849 633.479 627.069 642.563 623.732 646.727Z" fill="#452D34"/>
<path d="M441.296 611.705C438.053 616.246 424.896 626.067 436.385 628.757C439.813 628.757 448.801 618.379 449.264 615.042C449.727 611.705 444.075 608.739 441.296 611.705Z" fill="#452D34"/>
<path d="M478.079 655.715C477.359 658.602 476.398 661.422 475.207 664.146C475.4 663.797 475.555 663.42 475.67 663.037C474.373 667.208 468.443 672.858 473.817 676.381C482.156 679.713 484.75 663.685 486.974 658.22C489.198 652.749 479.654 649.975 478.079 655.715Z" fill="#452D34"/>
<path d="M548.868 682.955C551.648 688.33 550.999 704.64 559.152 703.064C567.306 701.488 558.226 686.574 557.855 680.546C557.485 674.524 547.293 677.214 548.868 682.955Z" fill="#452D34"/>
<path d="M620.118 669.802C616.229 669.616 613.82 675.081 616.876 677.676C618.913 679.437 620.776 681.39 622.436 683.512L621.694 682.589C625.217 685.921 626.235 695.556 632.814 692.314C639.388 689.072 625.678 670.539 620.118 669.802Z" fill="#452D34"/>
<path d="M660.144 631.256C654.769 632.185 643.93 628.015 642.911 635.888C642.934 637.109 643.429 638.274 644.296 639.141C645.157 640.002 646.322 640.497 647.543 640.52H660.144C666.166 640.52 666.166 631.166 660.144 631.256Z" fill="#452D34"/>
<path d="M646.34 592.248C636.891 590.954 634.482 600.032 642.355 601.608C654.956 603.921 656.904 590.672 646.34 592.248Z" fill="#452D34"/>
<path d="M549.053 185.032L551.926 184.569C552.018 184.569 552.667 184.476 552.111 184.569H552.389L554.056 184.384C555.971 184.199 557.917 184.106 559.894 184.106C561.839 184.013 563.783 184.106 565.73 184.199L568.51 184.476H570.547C574.425 185.11 578.263 185.977 582.04 187.071L587.595 189.109L588.152 189.387C587.966 189.294 587.415 189.016 588.247 189.387L589.452 189.943L592.418 191.333C596.492 193.371 600.381 195.688 604.366 198.097C605.435 198.711 606.707 198.875 607.895 198.554C609.088 198.233 610.101 197.452 610.714 196.383C611.328 195.314 611.491 194.044 611.17 192.854C610.849 191.664 610.067 190.65 608.998 190.036C601.681 185.588 594.084 181.419 585.929 178.64C573.238 174.43 559.684 173.537 546.551 176.045C545.376 176.37 544.376 177.146 543.768 178.204C543.161 179.263 542.996 180.518 543.309 181.697C543.674 182.867 544.471 183.853 545.539 184.455C546.606 185.058 547.863 185.231 549.053 184.94V185.032Z" fill="white"/>
<path d="M619.471 207.084C621.165 209.119 623.062 210.98 625.121 212.643C625.521 213.085 626.033 213.407 626.607 213.569C627.159 213.814 627.761 213.941 628.363 213.941C628.971 213.941 629.573 213.814 630.125 213.569C630.699 213.407 631.211 213.085 631.61 212.643C632.055 212.211 632.41 211.693 632.652 211.119C632.888 210.545 633.006 209.929 633 209.307L632.815 208.102C632.635 207.314 632.213 206.602 631.61 206.064C629.567 204.378 627.676 202.518 625.954 200.505C625.56 200.062 625.043 199.741 624.474 199.578C623.934 199.278 623.332 199.121 622.713 199.121C622.099 199.121 621.491 199.278 620.951 199.578C620.371 199.713 619.848 200.04 619.471 200.505C619.026 200.919 618.672 201.421 618.43 201.979C618.193 202.538 618.075 203.14 618.081 203.748L618.266 205.045C618.469 205.825 618.886 206.532 619.471 207.084Z" fill="white"/>
<path d="M411.183 499.038C418.299 507.011 427.669 512.634 438.053 515.16C439.232 515.473 440.487 515.308 441.545 514.7C442.604 514.093 443.379 513.093 443.705 511.917C443.993 510.739 443.817 509.495 443.213 508.443C442.609 507.391 441.624 506.611 440.462 506.266C438.151 505.707 435.89 504.963 433.698 504.042C434.254 504.32 433.976 504.227 433.605 504.042L432.864 503.671C432.29 503.43 431.733 503.152 431.196 502.837C430.118 502.337 429.066 501.78 428.046 501.17L425.267 499.316L423.692 498.205C424.062 498.39 424.155 498.482 423.784 498.205L423.043 497.649C421.171 496.07 419.406 494.367 417.761 492.553C416.187 490.699 412.851 490.792 411.183 492.553C410.355 493.429 409.895 494.59 409.895 495.795C409.895 497.002 410.355 498.162 411.183 499.038Z" fill="white"/>
<path d="M482.99 182.345C476.753 180.731 470.179 180.988 464.089 183.086C461.865 183.92 460.012 186.329 460.846 188.831C461.679 191.333 464.089 192.908 466.59 192.074C468.439 191.353 470.368 190.855 472.335 190.591L471.13 190.777C473.593 190.499 476.08 190.499 478.542 190.777L477.246 190.591L480.489 191.24C481.679 191.532 482.936 191.358 484.003 190.756C485.07 190.153 485.867 189.167 486.233 187.997C486.696 185.588 485.492 182.901 482.99 182.345Z" fill="white"/>
<path d="M486.233 294.55L489.106 297.145C490.392 298.146 491.755 299.045 493.182 299.831C493.701 300.157 494.284 300.368 494.892 300.448C495.499 300.528 496.117 300.475 496.703 300.295C497.287 300.201 497.833 299.944 498.278 299.554C498.772 299.217 499.184 298.774 499.482 298.257C500.095 297.156 500.261 295.863 499.946 294.643C499.61 293.482 498.849 292.49 497.815 291.863C496.711 291.272 495.657 290.59 494.665 289.825L495.684 290.566C494.663 289.774 493.703 288.907 492.812 287.972C492.401 287.546 491.891 287.228 491.329 287.045C490.793 286.748 490.179 286.619 489.569 286.675C488.928 286.606 488.28 286.735 487.715 287.045C487.153 287.228 486.644 287.546 486.233 287.972C485.797 288.408 485.457 288.93 485.234 289.504C485.011 290.078 484.909 290.692 484.936 291.307C484.948 292.513 485.41 293.67 486.233 294.55Z" fill="white"/>
<path d="M508.655 306.595C513.699 308.257 519.018 308.918 524.314 308.541C525.535 308.517 526.7 308.021 527.564 307.157C528.428 306.293 528.923 305.129 528.947 303.908C528.854 301.499 526.909 299.09 524.314 299.275C521.686 299.46 519.046 299.367 516.438 298.997L517.736 299.182C515.505 298.876 513.304 298.379 511.157 297.7C510.558 297.482 509.921 297.391 509.285 297.43C508.649 297.471 508.027 297.642 507.461 297.932C506.893 298.223 506.392 298.629 505.989 299.122C505.586 299.615 505.288 300.187 505.116 300.8C504.943 301.413 504.899 302.056 504.986 302.688C505.073 303.319 505.29 303.925 505.622 304.469C505.955 305.013 506.395 305.482 506.917 305.848C507.439 306.214 508.031 306.468 508.655 306.595Z" fill="white"/>
<path d="M675.249 420.189L667.556 406.754C667.483 406.604 667.443 406.438 667.443 406.269C667.449 406.101 667.494 405.936 667.578 405.789C667.657 405.642 667.775 405.518 667.916 405.427C668.062 405.337 668.225 405.284 668.389 405.272H670.893C671.056 405.278 671.219 405.239 671.366 405.16C671.512 405.081 671.636 404.964 671.72 404.822C671.805 404.681 671.85 404.518 671.85 404.354C671.85 404.188 671.81 404.025 671.726 403.882L664.871 392.022C664.792 391.886 664.747 391.732 664.747 391.574C664.742 391.416 664.781 391.26 664.854 391.121C664.927 390.982 665.034 390.864 665.169 390.778C665.305 390.693 665.456 390.643 665.614 390.633H667.466C667.629 390.638 667.792 390.599 667.938 390.521C668.085 390.441 668.209 390.325 668.293 390.183C668.377 390.042 668.422 389.879 668.422 389.714C668.422 389.549 668.383 389.386 668.299 389.242L659.772 374.511C659.699 374.354 659.581 374.222 659.435 374.13C659.283 374.037 659.114 373.988 658.939 373.988C658.765 373.988 658.596 374.037 658.45 374.13C658.303 374.222 658.185 374.354 658.106 374.511L649.676 389.242C649.591 389.386 649.552 389.549 649.552 389.714C649.552 389.879 649.597 390.042 649.681 390.183C649.766 390.325 649.889 390.441 650.036 390.521C650.182 390.599 650.345 390.638 650.509 390.633H652.27C652.433 390.627 652.597 390.665 652.743 390.745C652.889 390.823 653.013 390.94 653.097 391.082C653.182 391.223 653.227 391.386 653.227 391.551C653.227 391.716 653.187 391.879 653.103 392.022L646.248 403.882C646.164 404.025 646.119 404.188 646.124 404.354C646.124 404.518 646.169 404.681 646.254 404.822C646.338 404.964 646.462 405.081 646.608 405.16C646.749 405.239 646.918 405.278 647.081 405.272H649.58C649.749 405.284 649.912 405.337 650.053 405.427C650.199 405.518 650.317 405.642 650.396 405.789C650.48 405.936 650.525 406.101 650.531 406.269C650.531 406.438 650.492 406.604 650.418 406.754L642.635 420.189C642.551 420.332 642.506 420.495 642.511 420.661C642.511 420.826 642.556 420.988 642.641 421.13C642.725 421.272 642.849 421.388 642.995 421.467C643.136 421.546 643.299 421.585 643.468 421.579H674.506C674.664 421.569 674.816 421.519 674.951 421.433C675.08 421.348 675.187 421.23 675.266 421.091C675.339 420.952 675.373 420.796 675.373 420.638C675.367 420.48 675.328 420.326 675.249 420.189Z" fill="#EFDCC4"/>
<path d="M658.94 376.641C660.679 376.641 662.091 375.231 662.091 373.491C662.091 371.751 660.679 370.341 658.94 370.341C657.201 370.341 655.788 371.751 655.788 373.491C655.788 375.231 657.201 376.641 658.94 376.641Z" fill="#CE9C5C"/>
<path d="M423.876 416.854L416.186 403.419C416.106 403.283 416.064 403.128 416.061 402.97C416.057 402.813 416.095 402.657 416.169 402.518C416.244 402.378 416.352 402.261 416.485 402.175C416.617 402.09 416.769 402.039 416.927 402.029H419.429C419.594 402.035 419.758 401.996 419.903 401.917C420.048 401.838 420.17 401.721 420.255 401.58C420.34 401.438 420.385 401.276 420.387 401.11C420.388 400.945 420.345 400.782 420.263 400.639L413.406 388.779C413.329 388.63 413.29 388.463 413.294 388.294C413.297 388.126 413.341 387.961 413.424 387.814C413.507 387.667 413.624 387.543 413.767 387.453C413.909 387.362 414.072 387.309 414.24 387.297H416.093C416.25 387.287 416.402 387.237 416.535 387.151C416.668 387.066 416.776 386.947 416.85 386.808C416.925 386.669 416.962 386.514 416.96 386.355C416.957 386.198 416.913 386.044 416.834 385.907L408.403 371.175C408.309 371.041 408.184 370.932 408.039 370.857C407.893 370.781 407.733 370.742 407.569 370.742C407.405 370.742 407.244 370.781 407.099 370.857C406.954 370.932 406.829 371.041 406.735 371.175L398.303 385.907C398.224 386.044 398.181 386.198 398.179 386.355C398.176 386.514 398.213 386.669 398.287 386.808C398.361 386.947 398.47 387.066 398.602 387.151C398.735 387.237 398.887 387.287 399.045 387.297H400.898C401.066 387.309 401.228 387.362 401.371 387.453C401.513 387.543 401.631 387.667 401.713 387.814C401.796 387.961 401.841 388.126 401.844 388.294C401.847 388.463 401.809 388.63 401.731 388.779L394.875 400.639C394.792 400.782 394.749 400.945 394.75 401.11C394.752 401.276 394.798 401.438 394.883 401.58C394.968 401.721 395.089 401.838 395.234 401.917C395.38 401.996 395.543 402.035 395.709 402.029H398.211C398.368 402.039 398.52 402.09 398.653 402.175C398.785 402.261 398.894 402.378 398.968 402.518C399.042 402.657 399.08 402.813 399.077 402.97C399.074 403.128 399.031 403.283 398.952 403.419L391.262 416.854C391.185 417.004 391.146 417.17 391.149 417.339C391.153 417.507 391.197 417.672 391.28 417.819C391.362 417.966 391.48 418.09 391.622 418.18C391.765 418.271 391.927 418.324 392.096 418.336H423.042C423.21 418.324 423.373 418.271 423.515 418.18C423.657 418.09 423.775 417.966 423.858 417.819C423.941 417.672 423.986 417.507 423.988 417.339C423.992 417.17 423.953 417.004 423.876 416.854Z" fill="#EFDCC4"/>
<path d="M407.569 373.399C409.309 373.399 410.719 371.989 410.719 370.249C410.719 368.509 409.309 367.099 407.569 367.099C405.829 367.099 404.419 368.509 404.419 370.249C404.419 371.989 405.829 373.399 407.569 373.399Z" fill="#CE9C5C"/>
<path d="M268.865 827.685H268.402C268.68 827.87 268.865 827.774 268.865 827.685Z" fill="#452D34"/>
<path d="M265.159 838.152C264.974 837.781 265.066 837.506 265.159 838.152V838.152Z" fill="#452D34"/>
<path d="M240.883 800.444C240.888 800.393 240.882 800.343 240.866 800.292C240.85 800.247 240.824 800.202 240.791 800.163C240.754 800.18 240.724 800.202 240.706 800.236C240.689 800.275 240.686 800.315 240.699 800.348C240.711 800.388 240.737 800.416 240.772 800.433C240.806 800.45 240.847 800.455 240.883 800.444Z" fill="#452D34"/>
<path d="M275.907 874.66C275.907 874.565 275.907 874.29 275.814 874.2V874.66H275.907Z" fill="#452D34"/>
<path d="M278.315 879.202H278.408L277.946 878.921L278.223 879.106L278.315 879.202Z" fill="#452D34"/>
<path d="M336.781 834.353C345.49 841.579 340.302 857.889 334.835 863.911C321.864 879.202 298.144 886.243 280.262 880.125L278.409 879.202C278.501 879.292 278.501 879.382 278.316 879.202C278.131 879.017 277.945 879.017 277.945 878.921C277.482 878.459 276.741 877.255 277.482 878.46C276.641 877.345 276.099 876.039 275.907 874.661C275.814 874.661 275.814 874.565 275.814 874.475C275.722 874.103 275.814 874.199 275.814 874.289C275.768 873.642 275.768 872.989 275.814 872.342C275.814 872.241 275.847 872.145 275.907 872.066C276.015 871.306 276.202 870.563 276.463 869.843C276.463 869.815 276.473 869.792 276.49 869.776C276.507 869.759 276.531 869.747 276.556 869.747C276.84 869.134 277.181 868.543 277.575 867.991L278.686 866.877C280.447 865.858 284.246 864.373 283.041 860.484C271.923 844.084 246.35 895.417 297.218 891.618C322.512 889.575 352.162 872.342 350.772 843.712C347.714 821.386 331.129 823.975 336.781 834.353Z" fill="#452D34"/>
<path d="M425.174 780.708C423.784 794.513 422.487 808.319 421.468 822.124C419.8 840.747 419.337 860.023 417.947 878.179C415.826 870.795 412.676 863.749 408.589 857.243C403.863 850.478 397.656 844.917 389.687 842.604C383.943 840.933 381.349 849.831 387.185 851.496C391.262 852.144 398.119 858.076 399.416 860.299C411.09 877.256 413.685 896.526 412.017 917.743C402.937 951.748 381.534 974.355 325.292 967.962C266.827 960.921 209.474 913.759 231.619 855.852C223.187 891.433 260.156 942.022 344.194 938.314C353.089 937.852 325.2 908.384 325.2 908.384H324.922C329.276 904.681 328.535 900.696 320.289 900.972C298.516 914.502 271.645 898.287 255.06 876.699C246.906 866.321 238.568 849.921 236.715 834.354C235.139 825.647 236.622 818.235 238.197 812.399C244.961 818.049 254.504 820.087 264.511 819.344C256.265 823.238 252.652 834.725 257.284 842.97C270.071 866.506 318.9 852.701 331.315 834.449C338.171 824.533 336.504 811.746 329.74 802.944C345.213 792.847 353.181 766.998 333.446 757.267C320.474 751.521 305.372 755.23 291.659 756.249C288.323 757.082 287.767 760.419 288.972 762.828C286.192 763.013 283.413 763.199 280.726 763.103C274.796 763.103 274.703 772.367 280.726 772.367C286.748 772.367 291.196 771.63 296.384 772.187H296.291C296.935 772.271 297.56 772.457 298.145 772.739C298.238 772.649 298.423 772.739 298.608 772.834H298.701L299.442 773.296L299.905 773.757C302.87 778.856 303.611 783.859 301.295 790.529C295.458 804.801 262.195 813.232 249.038 808.6C247.598 808.077 246.252 807.328 245.054 806.371C244.498 805.538 242.922 804.891 242.552 803.872L242.83 804.334C242.344 803.692 241.911 803.011 241.533 802.297L241.348 801.925C241.109 801.464 240.952 800.963 240.884 800.445C240.851 800.406 240.825 800.361 240.809 800.316C240.793 800.265 240.787 800.214 240.792 800.164C240.699 799.798 240.792 799.888 240.792 800.074C240.771 799.792 240.803 799.511 240.884 799.241L241.162 797.851L242.274 796.089C242.725 795.47 243.254 794.907 243.849 794.423H244.035C244.869 793.77 245.795 793.495 246.629 792.937L248.204 792.476C254.412 792.847 255.06 783.212 248.667 783.212C238.846 783.398 230.599 792.847 231.711 801.925C226.708 814.436 225.967 827.685 228.376 840.561C178.806 929.14 303.889 999.929 376.531 972.318C376.809 986.033 376.994 999.653 377.179 1013.36C378.476 1019.11 374.029 1033.29 382.09 1034.03C383.311 1034 384.476 1033.51 385.339 1032.64C386.203 1031.78 386.699 1030.61 386.722 1029.39C386.444 1014.11 386.259 998.82 385.981 983.529C385.24 979.916 386.722 972.875 385.889 968.057C399.476 960.764 410.213 949.114 416.372 934.976C418.04 932.567 419.522 928.954 420.448 923.675C421.869 918.452 422.861 913.123 423.414 907.737C430.27 865.763 428.973 822.771 434.44 780.522C434.532 774.872 425.267 774.686 425.174 780.708ZM302.407 764.494C314.545 763.199 331.13 761.528 335.485 772.001C335.787 772.778 336.004 773.583 336.133 774.41V774.686C336.133 775.243 336.041 776.723 336.041 777.095C335.725 779.171 335.133 781.197 334.28 783.117C333.314 785.345 332.102 787.461 330.666 789.42C330.666 789.51 330.574 789.51 330.574 789.606C330.574 789.696 330.666 789.51 330.666 789.42C330.481 789.51 330.296 789.881 330.481 789.696C328.34 792.414 325.659 794.654 322.606 796.275C318.9 793.855 314.611 792.481 310.19 792.29C313.711 784.045 312.599 774.686 304.074 765.326L302.407 764.494ZM267.291 828.517L268.403 827.87H268.495C268.773 827.684 268.866 827.684 268.866 827.774L269.515 827.594C274.888 827.684 275.907 820.272 271.645 818.607C284.895 816.012 298.052 809.152 305.65 799.978C306.051 800.53 306.583 800.968 307.198 801.261C307.813 801.554 308.491 801.689 309.17 801.649L310.653 801.835H310.839C312.295 802.094 313.723 802.499 315.101 803.04H315.193C316.62 803.681 317.985 804.458 319.27 805.353H319.455C320.733 806.354 321.884 807.508 322.884 808.78L322.698 808.414C323.564 809.714 324.338 811.076 325.014 812.489C325.61 814.048 326.045 815.663 326.312 817.306V818.325C326.42 819.625 326.389 820.925 326.219 822.22C325.979 823.638 325.606 825.034 325.107 826.39V826.57C324.392 828.185 323.491 829.711 322.42 831.112H322.328C321.124 832.468 319.823 833.74 318.436 834.911C316.058 836.644 313.513 838.136 310.839 839.357L310.19 839.638C296.199 843.989 281.652 850.754 268.588 842.323L267.846 841.766C267.568 841.58 266.086 839.638 266.457 840.195C265.971 839.548 265.537 838.867 265.16 838.153V838.338C264.882 837.505 264.604 836.672 264.418 835.929C264.233 835.187 264.604 834.449 264.511 833.892C264.697 832.311 265.305 830.802 266.272 829.536L267.291 828.517Z" fill="#452D34"/>
<path d="M625.307 851.681C626.421 842.693 610.573 844.731 604.737 843.712C598.9 842.693 598.715 852.976 604.737 852.976C607.562 853.009 610.376 853.229 613.167 853.629L611.963 853.443C616.319 853.533 623.36 857.703 625.307 851.681Z" fill="#452D34"/>
<path d="M617.152 886.057C615.115 885.5 610.207 883.649 609.835 883.463C606.397 881.96 603.082 880.193 599.919 878.178C594.826 875.122 590.098 883.182 595.287 886.148C601.303 890.031 607.86 892.997 614.743 894.95C620.489 896.621 622.988 887.633 617.152 886.057Z" fill="#452D34"/>
<path d="M588.798 914.591L606.959 920.433C608.141 920.743 609.396 920.58 610.454 919.972C611.512 919.364 612.289 918.362 612.616 917.186C614.096 909.127 596.677 908.755 591.212 905.609C585.466 903.938 582.962 912.925 588.798 914.591Z" fill="#452D34"/>
<path d="M525.148 889.298C531.818 889.574 531.911 879.016 525.24 879.106C502.354 877.902 471.408 873.731 470.574 853.814C471.315 849.829 475.948 848.439 479.654 847.972C486.233 847.235 484.936 836.947 478.357 837.876C464.366 839.637 461.216 848.254 460.567 851.867C459.363 881.329 495.312 887.818 525.148 889.298Z" fill="#452D34"/>
<path d="M534.784 867.063C540.621 867.249 541.733 858.261 536.081 856.961C518.291 852.425 502.54 842.97 495.313 836.115C485.584 826.851 486.233 812.95 499.76 815.359C506.246 816.288 507.636 806.005 501.057 805.263C487.067 803.501 481.878 811.009 480.21 814.34C471.593 842.79 506.061 859.004 534.784 867.063Z" fill="#452D34"/>
<path d="M834.06 745.223C830.999 740.124 823.125 744.666 826.091 749.945C888.353 846.031 866.489 937.852 746.405 954.252C686.18 961.478 620.118 947.948 572.68 908.204C584.167 886.89 587.504 861.964 587.78 838.062C587.876 837.876 587.876 837.691 587.966 837.601L588.709 837.133L589.266 836.948C654.033 820.829 723.983 828.613 790.511 827.774C793.477 828.146 796.904 826.48 796.809 823.142C795.514 814.993 784.118 819.625 778.371 818.325C725.93 817.588 673.303 816.287 621.047 821.201C597.421 823.795 586.761 826.204 581.944 830.74C579.558 830.239 577.363 829.046 575.646 827.313C561.098 812.86 541.363 795.441 529.688 794.609C508.841 792.476 500.317 808.133 511.343 825.09C522.09 838.152 525.982 843.713 531.727 845.103C551.462 840.009 507.451 821.015 518.569 806.281C539.417 796.274 557.392 832.04 578.145 839.914C577.126 850.202 580.002 866.782 568.324 896.154C568.048 898.563 565.172 901.9 563.507 905.238C557.763 906.346 528.299 910.978 480.859 903.38C472.057 901.99 468.443 896.711 468.629 893.47C468.814 890.228 471.872 889.946 473.725 889.856C474.446 889.907 475.168 889.8 475.845 889.547C476.522 889.299 477.138 888.905 477.652 888.399C478.166 887.892 478.566 887.279 478.826 886.609C479.086 885.934 479.201 885.213 479.161 884.493C479.121 883.773 478.929 883.063 478.596 882.427C478.264 881.786 477.799 881.223 477.232 880.773C476.666 880.323 476.011 880.002 475.31 879.827C474.609 879.653 473.879 879.63 473.169 879.754C463.44 880.221 458.808 886.705 458.437 892.912C457.974 901.439 464.922 911.164 479.192 913.483C496.561 916.325 514.126 917.816 531.727 917.929C552.296 917.929 564.249 915.52 566.473 915.058C604.09 946.283 652.732 962.958 701.842 965.277C701.747 976.116 701.747 987.052 701.747 997.981C701.657 1003.91 711.016 1003.91 711.016 997.981C711.016 987.142 711.016 976.302 711.106 965.553C737.034 965.812 762.838 961.934 787.545 954.066C887.059 922.842 885.483 819.996 834.06 745.223Z" fill="#452D34"/>
</svg>
