<svg width="1126" height="1126" viewBox="0 0 1126 1126" fill="none" xmlns="http://www.w3.org/2000/svg">
<path d="M929.584 882.073C973.021 927.592 916.347 989.769 863.168 983.815C841.529 984.186 821.521 975.412 800.619 971.321C744.992 961.134 702.073 1010.96 648.078 1011.93C626.141 1011.71 607.546 1000.1 589.249 989.246C542.021 961.061 488.249 944.397 433.212 941.645C422.279 940.975 411.271 940.305 400.785 936.81C384.943 932.201 367.167 912.936 377.506 896.204C385.092 886.012 407.553 884.898 405.619 902.08C401.454 921.491 377.951 934.283 362.184 943.806C329.98 962.175 286.025 941.273 279.331 905.057C272.786 866.157 305.213 831.426 298.371 792.38C290.71 760.323 253.226 749.759 224.368 746.86C111.543 729.008 90.8661 587.031 124.856 496.441C142.612 443.837 175.115 397.445 218.493 362.79C233.517 352.155 232.401 332.892 228.682 316.902C226.971 308.423 222.36 300.167 215.518 294.738C202.651 283.21 180.86 289.457 175.951 306.117C170.298 343.825 225.93 336.016 246.309 323.446C277.844 305.745 292.496 269.153 323.361 250.708C359.507 228.47 378.695 254.353 400.041 281.276C403.016 284.995 408.296 279.714 405.321 275.996C357.573 204.596 313.692 237.841 271.001 292.507C254.862 311.919 232.029 327.165 205.923 326.124C196.998 326.124 185.694 324.86 182.868 314.522C180.636 306.266 188.668 298.085 196.181 296.374C205.031 294.44 213.286 301.134 217.526 308.348C221.765 315.563 222.658 325.232 223.476 333.71C227.046 353.419 205.478 361.675 194.47 373.872C87.5197 465.948 48.0266 712.502 219.98 753.631C235.599 755.713 251.515 757.644 265.572 765.303C344.26 805.391 209.642 902.153 310.271 952.878C338.236 965.89 368.283 952.726 390.223 934.058C398.182 927.811 406.14 920.748 410.453 911.451C418.114 896.947 408.148 878.803 390.967 881.178C375.2 882.146 363.449 897.763 367.837 913.161C376.315 946.479 415.808 948.561 444.145 949.828C501.19 953.919 555.112 975.638 603.156 1005.9C656.858 1040.86 710.481 996.309 762.022 980.472C782.103 974.371 803 978.165 822.563 984.564C873.878 1003.08 949.518 983.297 951.826 919.634C952.569 903.639 946.992 887.65 934.869 876.793C931.295 873.67 926.016 878.876 929.584 882.073Z" fill="#452D34"/>
<path d="M432.17 302.473C503.645 318.241 597.134 299.87 626.439 224.752C637.222 192.697 623.017 154.096 646.593 126.28C696.052 69.012 779.796 102.555 825.315 147.626C849.785 169.195 878.64 200.134 869.495 235.537C864.137 253.684 846.583 271.831 826.356 268.261C817.655 266.551 806.349 258.89 810.142 248.477C819.068 231.595 843.538 233.826 859.229 238.139C914.637 253.386 951.753 322.034 926.388 375.36C906.234 417.679 864.289 444.529 843.088 486.253C821.893 527.977 815.421 580.785 830.892 626.45C841.676 657.46 872.247 673.455 900.505 685.949C904.821 687.879 908.615 681.486 904.225 679.55C884.516 670.551 863.619 661.034 849.335 644.15C821.595 604.659 826.283 547.983 842.717 504.697C860.27 458.66 903.184 430.249 927.8 388.747C974.062 319.208 899.092 205.117 816.834 232.412C808.504 236.354 801.289 244.015 802.111 253.833C803.073 265.36 813.637 273.319 824.347 275.475C857.743 281.351 883.919 243.643 877.97 213.001C866.591 158.262 795.937 106.348 744.323 91.8447C703.34 81.1352 652.542 95.1917 632.461 134.759C621.605 156.774 625.544 181.094 623.091 204.597C613.866 274.211 533.023 304.853 470.548 299.87C458.341 299.138 446.193 297.622 434.179 295.333C429.493 294.441 427.485 301.581 432.17 302.473Z" fill="#452D34"/>
<path d="M950.413 711.461C1155.46 857.085 761.127 1245.84 516.586 866.68C475.233 794.31 429.939 714.804 427.262 629.647C426.593 597.517 445.409 568.437 478.58 563.749C505.652 560.85 530.047 586.733 538.898 610.309C540.311 614.845 547.525 612.909 546.112 608.3C536.443 581.826 510.189 554.974 480.365 555.941C445.037 558.916 419.899 590.825 419.973 625.409C419.824 706.998 461.623 782.261 499.405 852.323C554.814 950.199 653.734 1039.15 772.209 1035.73C888.832 1032.83 1008.2 938.302 1014.89 817.813C1015.93 783.229 1002.4 748.87 977.855 724.546C970.606 717.269 962.659 710.718 954.128 704.989C950.115 702.31 946.395 708.782 950.413 711.461Z" fill="#452D34"/>
<path d="M648.303 683.793C653.267 681.998 658.366 680.602 663.55 679.629L667.27 679.032C668.311 678.88 666.375 679.179 667.416 679.032H668.159L670.095 678.807C672.476 678.582 674.856 678.436 677.237 678.436C679.612 678.436 681.846 678.509 684.154 678.661L687.57 678.959L688.465 679.105C688.988 679.179 687.423 678.959 688.318 679.105L690.102 679.33C694.47 680.079 698.769 681.171 702.968 682.6C704.032 682.904 705.073 683.281 706.091 683.715L707.504 684.238L708.32 684.609H708.697C709.288 684.908 708.697 684.683 708.399 684.536L714.421 687.288C718.372 689.309 722.199 691.571 725.874 694.053L731.378 697.998L732.644 698.961C731.603 698.218 732.492 698.888 732.717 699.04L733.46 699.631L736.139 701.792C739.634 704.69 743.056 707.814 746.326 711.01C752.961 717.595 759.22 724.551 765.073 731.839C766.558 733.624 767.971 735.408 769.384 737.265L770.425 738.604C770.869 739.128 769.98 737.935 770.2 738.379L770.498 738.677L771.095 739.42C771.764 740.388 772.507 741.283 773.177 742.172L781.281 753.254C786.341 760.323 791.327 767.465 796.308 774.528C801.289 781.591 805.532 787.393 810.44 793.567C814.233 798.328 818.246 803.011 822.934 806.956C827.622 810.896 831.117 813.203 836.098 814.171C837.313 814.469 838.563 814.621 839.818 814.616C840.797 814.599 841.731 814.199 842.424 813.507C843.116 812.815 843.515 811.875 843.538 810.896C843.515 809.916 843.116 808.982 842.424 808.29C841.731 807.598 840.797 807.198 839.818 807.176H838.405C837.51 807.102 839.593 807.401 838.551 807.176L837.882 807.029C836.897 806.827 835.929 806.551 834.983 806.213C834.685 806.061 834.089 805.763 835.428 806.359L835.13 806.213L834.387 805.915L832.901 805.093C831.86 804.502 830.892 803.833 829.924 803.163L829.254 802.639C830.368 803.461 829.479 802.791 829.108 802.493L827.622 801.227L824.572 798.402C822.371 796.207 820.283 793.899 818.325 791.485C817.205 790.218 816.09 788.885 815.049 787.466L813.338 785.384L813.71 785.834L813.49 785.609C813.338 785.429 813.214 785.226 813.119 785.013L812.224 783.825C809.843 780.775 807.615 777.651 805.38 774.528C800.399 767.611 795.565 760.548 790.657 753.631C785.744 746.714 779.576 738.379 773.773 730.945C768.033 723.578 761.927 716.498 755.477 709.75C748.903 702.912 741.79 696.62 734.203 690.93C726.819 685.482 718.799 680.934 710.329 677.394C701.82 673.911 692.804 671.823 683.63 671.221C673.607 670.579 663.55 671.631 653.881 674.344C651.275 675.014 648.748 675.757 646.294 676.652C643.84 677.541 643.024 679.252 643.694 681.261C644.358 683.27 646.294 684.536 648.303 683.867V683.793Z" fill="#452D34"/>
<path d="M829.997 552.149C836.767 550.884 836.914 551.628 843.909 551.405L829.997 552.149Z" fill="#D13535"/>
<path d="M843.24 552.669C843.313 552.669 843.386 552.669 843.386 552.743C863.99 577.661 885.331 551.032 888.308 548.132C888.562 547.893 888.759 547.601 888.888 547.277C889.012 546.953 889.068 546.605 889.046 546.258C889.029 545.91 888.927 545.572 888.764 545.265C888.595 544.96 888.365 544.694 888.083 544.488C884.515 541.885 876.929 533.926 864.136 536.976C851.344 540.025 846.509 546.793 842.868 550.81C842.727 550.939 842.626 551.102 842.564 551.283C842.508 551.464 842.497 551.657 842.536 551.842C842.57 552.029 842.654 552.203 842.778 552.347C842.902 552.492 843.059 552.602 843.24 552.669Z" fill="#D13535"/>
<path d="M889.051 432.703C895.895 433.967 895.749 434.636 902.367 436.868L889.051 432.703Z" fill="#CE9C5C"/>
<path d="M901.325 437.835C901.365 437.873 901.393 437.926 901.398 437.983C911.957 468.477 941.335 450.999 945.128 449.363C945.449 449.225 945.736 449.019 945.966 448.759C946.197 448.499 946.366 448.191 946.467 447.858C946.563 447.524 946.591 447.174 946.54 446.83C946.49 446.486 946.36 446.157 946.169 445.867C943.715 442.149 939.404 432.108 926.314 430.472C913.223 428.836 906.379 433.521 901.545 435.975C901.382 436.057 901.235 436.18 901.128 436.331C901.021 436.483 900.954 436.66 900.931 436.844C900.909 437.029 900.931 437.217 900.999 437.39C901.072 437.562 901.179 437.715 901.325 437.835Z" fill="#CE9C5C"/>
<path d="M932.488 300.019C939.107 297.936 939.332 298.606 946.249 297.564L932.488 300.019Z" fill="#D13535"/>
<path d="M945.725 298.978H945.877C969.227 321.364 987.377 292.433 989.977 289.161C990.197 288.892 990.354 288.58 990.439 288.244C990.523 287.909 990.535 287.56 990.473 287.22C990.405 286.881 990.27 286.559 990.067 286.277C989.87 285.996 989.612 285.761 989.308 285.59C985.441 283.434 977.039 276.442 964.691 280.979C952.343 285.516 948.252 292.73 945.128 297.119C945.027 297.275 944.965 297.453 944.942 297.637C944.914 297.823 944.931 298.011 944.987 298.188C945.044 298.366 945.139 298.529 945.269 298.666C945.398 298.802 945.55 298.909 945.725 298.978Z" fill="#D13535"/>
<path d="M826.952 147.7C823.53 153.724 822.934 153.352 818.544 158.857L826.952 147.7Z" fill="#CE9C5C"/>
<path d="M818.026 157.517H817.874C785.598 157.146 792.07 190.688 792.442 194.853C792.464 195.194 792.56 195.527 792.723 195.826C792.892 196.124 793.117 196.383 793.398 196.583C793.674 196.782 793.995 196.917 794.327 196.978C794.665 197.039 795.014 197.025 795.34 196.936C799.657 195.895 810.586 195.225 816.541 183.548C822.489 171.872 820.407 163.69 819.737 158.335C819.709 158.149 819.636 157.972 819.529 157.818C819.422 157.664 819.276 157.539 819.107 157.452C818.944 157.365 818.758 157.318 818.567 157.317C818.381 157.316 818.195 157.358 818.026 157.443V157.517Z" fill="#EFDCC4"/>
<path d="M709.142 94.0762C710.183 100.919 709.513 100.993 709.44 107.984L709.142 94.0762Z" fill="#D13535"/>
<path d="M708.174 107.315V107.463C682.516 127.098 708.32 149.41 711.151 152.534C711.382 152.791 711.669 152.994 711.99 153.128C712.311 153.262 712.659 153.324 713.008 153.31C713.352 153.296 713.695 153.206 714.005 153.046C714.309 152.886 714.579 152.661 714.792 152.385C717.545 148.89 725.728 141.601 723.201 128.734C720.668 115.868 713.976 110.736 710.183 106.943C710.042 106.805 709.874 106.704 709.688 106.647C709.502 106.59 709.305 106.58 709.119 106.616C708.928 106.653 708.748 106.736 708.596 106.858C708.444 106.979 708.326 107.136 708.247 107.315H708.174Z" fill="#D13535"/>
<path d="M627.479 212.926C633.057 217.017 632.685 217.538 637.666 222.521L627.479 212.926Z" fill="#CE9C5C"/>
<path d="M636.254 222.893C636.254 222.967 636.327 222.967 636.327 223.041C632.461 255.097 666.448 252.27 670.613 252.419C670.962 252.446 671.316 252.394 671.643 252.266C671.964 252.137 672.256 251.936 672.493 251.679C672.729 251.42 672.903 251.112 673.005 250.776C673.106 250.441 673.129 250.087 673.067 249.742C672.476 245.353 672.993 234.42 661.985 227.206C650.982 219.992 642.726 221.182 637.295 221.33C637.11 221.328 636.924 221.371 636.761 221.458C636.592 221.545 636.451 221.672 636.35 221.827C636.243 221.983 636.181 222.162 636.164 222.348C636.147 222.534 636.181 222.721 636.254 222.893Z" fill="#CE9C5C"/>
<path d="M556.376 291.317C559.648 297.415 559.054 297.787 561.359 304.406L556.376 291.317Z" fill="#D13535"/>
<path d="M559.945 304.109V304.258C542.541 331.479 574.447 343.676 578.094 345.61C578.403 345.768 578.741 345.859 579.09 345.876C579.433 345.894 579.782 345.837 580.103 345.711C580.429 345.584 580.722 345.391 580.964 345.142C581.206 344.894 581.392 344.598 581.516 344.271C582.855 340.032 588.134 330.438 581.29 319.133C574.447 307.828 566.489 305.373 561.581 303.142C561.411 303.072 561.227 303.042 561.043 303.055C560.859 303.069 560.681 303.124 560.522 303.218C560.364 303.312 560.229 303.441 560.129 303.595C560.028 303.75 559.966 303.926 559.945 304.109Z" fill="#D13535"/>
<path d="M579.653 324.116C579.63 324.085 579.608 324.05 579.596 324.012C579.58 323.974 579.574 323.933 579.579 323.893C579.731 324.264 579.653 324.19 579.653 324.116Z" fill="#452D34"/>
<path d="M558.607 321.513C558.607 321.884 558.755 322.404 558.607 321.513V321.513Z" fill="#452D34"/>
<path d="M457.904 304.035C458.201 310.952 457.532 311.026 456.713 317.943L457.904 304.035Z" fill="#CE9C5C"/>
<path d="M455.524 317.125C455.524 317.199 455.45 317.199 455.45 317.274C427.783 333.934 450.987 358.998 453.442 362.344C453.642 362.63 453.904 362.868 454.206 363.04C454.509 363.214 454.846 363.318 455.194 363.347C455.542 363.375 455.891 363.326 456.218 363.205C456.545 363.083 456.841 362.891 457.086 362.642C460.21 359.518 469.135 353.197 468.019 340.032C466.904 326.868 460.805 321.141 457.458 316.976C457.329 316.844 457.172 316.741 456.999 316.676C456.826 316.611 456.641 316.585 456.457 316.599C456.272 316.613 456.093 316.668 455.932 316.758C455.771 316.849 455.631 316.974 455.524 317.125Z" fill="#CE9C5C"/>
<path d="M447.788 346.875H447.863L447.714 346.652C447.741 346.682 447.761 346.717 447.774 346.756C447.787 346.794 447.792 346.835 447.788 346.875Z" fill="#452D34"/>
<path d="M471.662 339.363C470.919 330.215 466.754 322.034 460.804 315.117C461.027 310.654 464.448 301.283 457.903 300.316C456.923 300.336 455.988 300.733 455.295 301.427C454.601 302.12 454.203 303.055 454.185 304.035C454.375 307.323 454.15 310.621 453.515 313.853C431.723 326.497 436.484 349.255 450.317 364.353C456.862 372.237 464.894 360.411 468.465 355.056C471.106 350.274 472.222 344.798 471.662 339.363ZM454.631 359.816H454.556C454.567 359.81 454.58 359.806 454.594 359.806C454.607 359.806 454.619 359.81 454.631 359.816ZM456.564 360.337L456.341 360.039L456.639 360.486C456.596 360.447 456.569 360.394 456.564 360.337ZM464.299 343.974C464.002 350.073 459.985 355.131 455.523 358.998C452.432 355.323 449.855 351.245 447.863 346.875L447.714 346.577C443.103 338.322 447.193 326.72 453.738 322.778C454.333 322.257 455.002 321.885 455.598 321.439C455.878 321.561 456.185 321.612 456.49 321.588L457.531 322.852H457.457C462.211 328.837 464.641 336.339 464.299 343.974Z" fill="#452D34"/>
<path d="M457.456 322.925L457.234 322.555C457.16 322.48 457.234 322.703 457.456 322.925Z" fill="#452D34"/>
<path d="M327.898 246.766C328.12 253.758 327.451 253.758 326.633 260.749L327.898 246.766Z" fill="#D13535"/>
<path d="M325.443 259.857C325.443 259.931 325.368 259.931 325.368 260.005C297.701 276.665 320.906 301.729 323.36 305.076C323.561 305.361 323.822 305.599 324.125 305.772C324.428 305.945 324.765 306.05 325.113 306.078C325.461 306.107 325.81 306.059 326.137 305.936C326.464 305.815 326.76 305.622 327.005 305.374C330.129 302.25 339.053 295.928 337.938 282.764C336.823 269.599 330.798 263.873 327.377 259.708C327.248 259.575 327.091 259.473 326.918 259.408C326.745 259.343 326.559 259.317 326.375 259.331C326.191 259.345 326.012 259.399 325.851 259.49C325.69 259.581 325.55 259.706 325.443 259.857Z" fill="#D13535"/>
<path d="M317.782 289.606C317.756 289.576 317.735 289.541 317.722 289.502C317.71 289.464 317.705 289.424 317.708 289.383C317.705 289.424 317.71 289.464 317.722 289.502C317.735 289.541 317.756 289.576 317.782 289.606Z" fill="#452D34"/>
<path d="M341.583 282.169C340.839 273.02 336.674 264.765 330.724 257.848C330.947 253.386 334.368 244.089 327.898 243.047C325.89 243.197 324.105 244.684 324.179 246.766C324.304 250.081 324.055 253.399 323.435 256.658C301.643 269.228 306.403 291.986 320.311 307.084C326.857 314.968 334.815 303.142 338.459 297.862C341.062 293.067 342.151 287.595 341.583 282.169ZM324.551 302.547C324.477 302.622 324.477 302.622 324.551 302.547V302.547ZM326.485 303.068L326.261 302.77L326.559 303.217C326.559 303.142 326.485 303.142 326.485 303.068ZM326.187 302.696C326.113 302.547 326.113 302.622 326.187 302.696V302.696ZM334.22 286.705C333.922 292.804 329.906 297.862 325.444 301.729C322.352 298.054 319.775 293.975 317.783 289.606C317.708 289.457 317.486 288.862 317.708 289.309C313.097 281.053 317.114 269.45 323.733 265.509C324.291 265.004 324.917 264.578 325.592 264.245H326.41L327.452 265.509H327.377C332.148 271.513 334.579 279.044 334.22 286.705Z" fill="#452D34"/>
<path d="M327.376 265.657L327.153 265.286L327.376 265.657Z" fill="#452D34"/>
<path d="M251.813 317.943C252.11 324.859 251.367 324.859 250.548 331.851L251.813 317.943Z" fill="#CE9C5C"/>
<path d="M249.433 331.033C249.413 331.033 249.394 331.041 249.38 331.055C249.366 331.069 249.358 331.088 249.358 331.107C221.691 347.842 244.896 372.906 247.35 376.253C247.551 376.538 247.812 376.776 248.115 376.949C248.418 377.122 248.755 377.226 249.103 377.255C249.45 377.283 249.8 377.235 250.127 377.113C250.454 376.991 250.75 376.799 250.994 376.55C254.118 373.352 263.043 367.03 261.853 353.94C260.663 340.851 254.713 335.049 251.292 330.884C251.178 330.738 251.03 330.623 250.861 330.548C250.691 330.473 250.506 330.442 250.322 330.457C250.138 330.472 249.96 330.532 249.805 330.632C249.649 330.733 249.521 330.871 249.433 331.033Z" fill="#EFDCC4"/>
<path d="M241.697 360.708H241.772L241.623 360.485C241.697 360.634 241.697 360.634 241.697 360.708Z" fill="#452D34"/>
<path d="M251.365 336.759L251.143 336.462C251.068 336.388 251.143 336.611 251.365 336.759Z" fill="#452D34"/>
<path d="M265.571 353.271C264.827 344.123 260.588 335.942 254.713 329.025C254.861 324.563 258.357 315.191 251.812 314.225C250.832 314.244 249.897 314.642 249.203 315.334C248.51 316.028 248.112 316.963 248.093 317.943C248.278 321.231 248.053 324.528 247.424 327.76C225.632 340.33 230.318 363.163 244.226 378.261C250.771 386.144 258.803 374.319 262.373 368.964C265.015 364.182 266.131 358.706 265.571 353.271ZM250.399 374.245L250.176 373.947C250.324 374.021 250.399 374.17 250.547 374.319L250.399 374.245ZM258.208 357.808C257.91 363.981 253.894 369.038 249.432 372.906C246.34 369.231 243.763 365.153 241.772 360.783L241.622 360.485C237.011 352.23 241.028 340.627 247.647 336.685C248.242 336.165 248.911 335.793 249.506 335.347L250.399 335.496L251.366 336.76C255.977 342.71 258.654 350.296 258.208 357.808Z" fill="#452D34"/>
<path d="M181.379 392.838C176.768 387.632 177.288 387.186 173.569 381.236L181.379 392.838Z" fill="#D13535"/>
<path d="M174.984 381.161V381.012C185.842 350.593 152.076 345.833 148.06 344.792C147.721 344.691 147.364 344.667 147.014 344.722C146.665 344.777 146.332 344.909 146.04 345.108C145.748 345.307 145.504 345.57 145.326 345.875C145.148 346.181 145.04 346.522 145.011 346.875C144.639 351.263 141.664 361.824 150.812 371.269C159.96 380.715 168.29 381.384 173.645 382.5C173.826 382.525 174.011 382.507 174.184 382.448C174.358 382.389 174.516 382.292 174.646 382.162C174.775 382.033 174.873 381.875 174.932 381.701C174.99 381.527 175.008 381.343 174.984 381.161Z" fill="#D13535"/>
<path d="M119.5 496.888C114.963 491.681 115.484 491.236 111.691 485.285L119.5 496.888Z" fill="#CE9C5C"/>
<path d="M113.104 485.211V485.062C123.963 454.644 90.1967 449.883 86.1806 448.842C85.8418 448.742 85.4844 448.717 85.1349 448.773C84.7854 448.827 84.4528 448.959 84.1607 449.158C83.8686 449.358 83.6249 449.62 83.4465 449.925C83.2687 450.231 83.1612 450.572 83.1313 450.925C82.7593 455.313 79.7844 465.874 89.007 475.32C98.2295 484.765 106.485 485.434 111.765 486.55C111.947 486.575 112.132 486.557 112.306 486.499C112.479 486.439 112.637 486.342 112.767 486.212C112.896 486.083 112.994 485.925 113.052 485.751C113.111 485.578 113.129 485.393 113.104 485.211Z" fill="#CE9C5C"/>
<path d="M106.262 593.2C112.212 596.774 111.84 597.365 117.269 601.907L106.262 593.2Z" fill="#D13535"/>
<path d="M115.856 602.351V602.497C114.74 634.779 148.358 629.123 152.523 628.904C152.872 628.887 153.214 628.797 153.524 628.639C153.834 628.476 154.105 628.251 154.319 627.975C154.531 627.699 154.681 627.379 154.756 627.035C154.831 626.698 154.831 626.343 154.754 626C153.862 621.689 153.415 610.68 141.813 604.506C130.211 598.333 122.103 600.122 116.748 600.713C116.566 600.736 116.39 600.798 116.235 600.899C116.08 601 115.951 601.135 115.858 601.293C115.764 601.45 115.708 601.631 115.695 601.811C115.682 601.996 115.711 602.182 115.782 602.351H115.856Z" fill="#D13535"/>
<path d="M213.807 745.003C218.493 739.871 219.013 740.315 224.517 735.926L213.807 745.003Z" fill="#CE9C5C"/>
<path d="M224.74 737.338H224.889C256.275 744.778 257.316 710.639 257.911 706.547C257.966 706.21 257.944 705.855 257.849 705.523C257.754 705.191 257.588 704.882 257.361 704.623C257.134 704.358 256.853 704.15 256.537 704.009C256.221 703.863 255.878 703.795 255.531 703.795C251.144 703.874 240.284 702.084 231.88 712.277C223.476 722.463 223.774 730.72 223.253 736.151C223.247 736.336 223.284 736.516 223.362 736.685C223.439 736.854 223.555 737 223.699 737.119C223.843 737.231 224.013 737.316 224.193 737.349C224.374 737.389 224.561 737.389 224.74 737.338Z" fill="#EFDCC4"/>
<path d="M293.164 809.258C288.181 814.171 287.735 813.648 282.008 817.739L293.164 809.258Z" fill="#D13535"/>
<path d="M281.86 816.326H281.711C250.771 807.102 247.796 841.089 246.978 845.181C246.902 845.524 246.901 845.879 246.976 846.217C247.051 846.56 247.201 846.881 247.414 847.156C247.626 847.432 247.898 847.657 248.208 847.821C248.518 847.978 248.86 848.068 249.21 848.085C253.672 848.231 264.381 850.612 273.307 840.943C282.232 831.274 282.455 822.945 283.273 817.593C283.288 817.407 283.26 817.221 283.192 817.052C283.124 816.884 283.017 816.732 282.88 816.608C282.743 816.484 282.58 816.394 282.403 816.349C282.226 816.298 282.04 816.293 281.86 816.326Z" fill="#D13535"/>
<path d="M315.551 948.415C317.782 941.87 318.452 942.095 321.724 935.848L315.551 948.415Z" fill="#CE9C5C"/>
<path d="M322.468 937.109H322.617C354.449 931.458 341.805 899.7 340.764 895.681C340.667 895.349 340.498 895.034 340.271 894.77C340.044 894.505 339.762 894.291 339.445 894.145C339.128 893.993 338.783 893.92 338.434 893.914C338.083 893.908 337.737 893.982 337.417 894.122C333.401 895.98 322.765 898.659 319.121 911.305C315.476 923.945 318.973 931.458 320.683 936.591C320.728 936.771 320.819 936.94 320.947 937.075C321.074 937.216 321.234 937.317 321.412 937.379C321.59 937.435 321.78 937.447 321.965 937.418C322.149 937.385 322.322 937.3 322.468 937.182V937.109Z" fill="#CE9C5C"/>
<path d="M450.094 942.838C452.326 936.293 452.995 936.518 456.268 930.344L450.094 942.838Z" fill="#D13535"/>
<path d="M457.085 931.531H457.16C488.917 925.881 476.348 894.195 475.307 890.177C475.221 889.839 475.059 889.518 474.834 889.243C474.609 888.973 474.326 888.753 474.005 888.601C473.685 888.455 473.335 888.376 472.981 888.382C472.627 888.382 472.278 888.466 471.96 888.618C467.944 890.402 457.383 893.081 453.664 905.721C449.945 918.367 453.59 925.954 455.226 931.087C455.291 931.261 455.397 931.424 455.536 931.548C455.674 931.678 455.841 931.773 456.022 931.824C456.204 931.875 456.395 931.88 456.58 931.841C456.765 931.807 456.938 931.723 457.085 931.605V931.531Z" fill="#D13535"/>
<path d="M583.227 986.348C585.529 979.802 586.199 980.022 589.474 973.854L583.227 986.348Z" fill="#D13535"/>
<path d="M590.217 975.041H590.363C622.122 969.391 609.482 937.705 608.44 933.614C608.35 933.282 608.187 932.972 607.968 932.708C607.748 932.437 607.472 932.224 607.163 932.077C606.853 931.931 606.51 931.852 606.167 931.846C605.823 931.841 605.48 931.914 605.165 932.055C601.147 933.912 590.515 936.591 586.868 949.231C583.227 961.877 586.722 969.464 588.354 974.597C588.422 974.771 588.529 974.929 588.664 975.058C588.804 975.188 588.973 975.278 589.153 975.328C589.333 975.385 589.525 975.39 589.71 975.351C589.896 975.311 590.071 975.233 590.217 975.114V975.041Z" fill="#D13535"/>
<path d="M713.531 995.049C712.265 988.205 712.934 988.132 712.782 981.063L713.531 995.049Z" fill="#D13535"/>
<path d="M714.049 981.812C714.049 981.733 714.049 981.66 714.122 981.66C739.037 961.135 712.484 939.641 709.586 936.664C709.344 936.417 709.046 936.225 708.719 936.101C708.393 935.978 708.044 935.933 707.695 935.961C707.346 935.989 707.008 936.09 706.704 936.265C706.406 936.439 706.142 936.675 705.945 936.962C703.339 940.531 695.454 948.044 698.431 960.836C701.403 973.629 708.246 978.536 712.192 982.183C712.327 982.301 712.49 982.391 712.67 982.437C712.845 982.487 713.03 982.493 713.21 982.459C713.39 982.42 713.559 982.346 713.706 982.234C713.852 982.121 713.97 981.975 714.049 981.812Z" fill="#D13535"/>
<path d="M821.746 977.94C821.149 971.023 821.892 970.95 822.337 963.96L821.746 977.94Z" fill="#CE9C5C"/>
<path d="M823.53 964.776C823.536 964.72 823.558 964.669 823.603 964.63C850.302 946.558 825.911 922.684 823.305 919.482C823.091 919.206 822.821 918.981 822.512 918.823C822.208 918.666 821.864 918.576 821.515 918.559C821.172 918.542 820.823 918.61 820.502 918.739C820.182 918.874 819.895 919.077 819.658 919.336C816.76 922.684 808.132 929.449 809.916 942.467C811.7 955.478 818.026 960.983 821.667 965.001C821.797 965.13 821.949 965.226 822.123 965.282C822.292 965.344 822.472 965.361 822.652 965.339C822.832 965.322 823.007 965.26 823.153 965.159C823.305 965.063 823.435 964.933 823.53 964.776Z" fill="#EFDCC4"/>
<path d="M784.854 1030.3C784.258 1023.39 784.927 1023.31 785.372 1016.32L784.854 1030.3Z" fill="#CE9C5C"/>
<path d="M786.565 1017.14L786.712 1016.99C813.411 998.915 788.946 975.115 786.34 971.845C786.121 971.575 785.851 971.355 785.535 971.197C785.226 971.045 784.883 970.961 784.534 970.955C784.19 970.95 783.841 971.017 783.526 971.158C783.211 971.299 782.924 971.507 782.699 971.771C779.795 975.041 771.167 981.812 772.951 994.897C774.741 1007.99 781.061 1013.35 784.703 1017.36C784.832 1017.49 784.99 1017.58 785.158 1017.64C785.327 1017.7 785.507 1017.72 785.687 1017.7C785.868 1017.68 786.042 1017.62 786.194 1017.52C786.34 1017.42 786.47 1017.29 786.565 1017.14Z" fill="#CE9C5C"/>
<path d="M911.513 983.224C910.843 976.307 911.586 976.228 912.036 969.239L911.513 983.224Z" fill="#D13535"/>
<path d="M913.224 970.061C913.269 970.021 913.297 969.965 913.297 969.909C940.075 951.837 915.604 927.963 912.999 924.767C912.785 924.491 912.509 924.271 912.2 924.119C911.884 923.967 911.541 923.883 911.198 923.877C910.849 923.872 910.506 923.939 910.185 924.08C909.87 924.221 909.588 924.429 909.357 924.688C906.459 927.963 897.831 934.728 899.615 947.746C901.399 960.763 907.72 966.267 911.367 970.28C911.49 970.409 911.648 970.505 911.817 970.567C911.986 970.623 912.171 970.646 912.351 970.623C912.526 970.601 912.7 970.539 912.852 970.443C913.004 970.342 913.134 970.212 913.224 970.061Z" fill="#D13535"/>
<path d="M948.178 896.204C953.311 891.516 953.756 892.04 959.631 888.173L948.178 896.204Z" fill="#D13535"/>
<path d="M959.711 889.659C959.784 889.659 959.857 889.586 959.857 889.659C990.423 899.998 994.666 866.083 995.707 862.065C995.781 861.727 995.786 861.378 995.713 861.035C995.645 860.697 995.499 860.377 995.297 860.095C995.094 859.814 994.829 859.577 994.531 859.403C994.227 859.234 993.895 859.127 993.552 859.093C989.162 858.795 978.525 856.043 969.228 865.341C959.93 874.638 959.413 882.967 958.371 888.246C958.349 888.432 958.366 888.618 958.422 888.792C958.484 888.972 958.58 889.13 958.709 889.265C958.833 889.4 958.99 889.507 959.165 889.575C959.339 889.642 959.525 889.67 959.711 889.659Z" fill="#D13535"/>
<path d="M1009.39 796.392C1012.66 790.219 1013.26 790.517 1017.43 784.939L1009.39 796.392Z" fill="#CE9C5C"/>
<path d="M1018.02 786.279H1018.17C1050.44 785.536 1042.86 752.291 1042.41 748.127C1042.37 747.778 1042.26 747.446 1042.08 747.148C1041.9 746.855 1041.65 746.602 1041.36 746.41C1041.07 746.219 1040.74 746.089 1040.39 746.039C1040.05 745.988 1039.7 746.016 1039.36 746.118C1035.13 747.305 1024.19 748.273 1018.69 760.249C1013.18 772.22 1015.49 780.178 1016.31 785.463C1016.33 785.648 1016.41 785.823 1016.51 785.975C1016.62 786.133 1016.77 786.256 1016.94 786.346C1017.1 786.431 1017.28 786.476 1017.48 786.481C1017.66 786.481 1017.85 786.436 1018.02 786.352V786.279Z" fill="#CE9C5C"/>
<path d="M799.06 771.252C804.193 766.57 804.637 767.088 810.513 763.221L799.06 771.252Z" fill="#CE9C5C"/>
<path d="M810.586 764.712C810.659 764.712 810.737 764.634 810.811 764.712C841.303 775.045 845.541 741.131 846.582 737.119C846.661 736.775 846.661 736.426 846.593 736.089C846.52 735.745 846.379 735.424 846.177 735.143C845.974 734.862 845.71 734.631 845.411 734.456C845.107 734.282 844.775 734.175 844.427 734.141C840.037 733.843 829.405 731.091 820.108 740.388C810.811 749.686 810.287 758.015 809.246 763.294C809.224 763.48 809.246 763.671 809.302 763.846C809.359 764.02 809.46 764.183 809.584 764.318C809.713 764.454 809.871 764.56 810.045 764.628C810.214 764.696 810.4 764.724 810.586 764.712Z" fill="#CE9C5C"/>
<path d="M702.298 676.652C707.431 672.043 707.875 672.56 713.751 668.694L702.298 676.652Z" fill="#D13535"/>
<path d="M713.825 670.107H713.977C744.542 680.445 748.786 646.604 749.748 642.513C749.838 642.186 749.855 641.837 749.793 641.499C749.731 641.167 749.596 640.847 749.399 640.571C749.196 640.289 748.938 640.064 748.639 639.896C748.341 639.732 748.009 639.637 747.666 639.614C743.203 639.243 732.645 636.491 723.347 645.788C714.05 655.085 713.532 663.488 712.491 668.767C712.463 668.947 712.479 669.133 712.541 669.307C712.598 669.482 712.699 669.639 712.828 669.769C712.958 669.898 713.115 669.994 713.284 670.056C713.459 670.112 713.644 670.129 713.825 670.107Z" fill="#D13535"/>
<path d="M487.951 563.158C489.067 570.074 488.323 570.148 488.323 577.138L487.951 563.158Z" fill="#D13535"/>
<path d="M487.058 576.468C487.058 576.479 487.056 576.49 487.052 576.496C487.049 576.507 487.043 576.513 487.037 576.518C487.029 576.53 487.021 576.535 487.012 576.535C487.003 576.541 486.994 576.541 486.984 576.541C461.473 596.329 487.356 618.565 490.182 621.615C490.416 621.869 490.704 622.071 491.025 622.206C491.345 622.341 491.691 622.403 492.039 622.386C492.386 622.375 492.726 622.285 493.035 622.128C493.344 621.964 493.614 621.739 493.826 621.463C496.504 617.968 504.685 610.68 502.082 597.815C499.479 584.949 492.785 579.816 488.917 576.096C488.787 575.956 488.625 575.854 488.444 575.798C488.263 575.736 488.07 575.725 487.884 575.764C487.698 575.804 487.524 575.888 487.38 576.012C487.235 576.13 487.124 576.288 487.058 576.468Z" fill="#D13535"/>
<path d="M442.137 712.947C448.756 711.011 448.979 711.68 455.97 710.712L442.137 712.947Z" fill="#CE9C5C"/>
<path d="M455.375 712.051H455.523C478.579 734.586 497.099 705.956 499.776 702.754C499.983 702.484 500.13 702.169 500.208 701.837C500.286 701.505 500.294 701.161 500.231 700.824C500.168 700.486 500.036 700.171 499.842 699.884C499.648 699.602 499.398 699.366 499.107 699.186C495.239 696.957 486.909 689.888 474.489 694.205C462.068 698.516 457.978 705.804 454.78 710.194C454.679 710.346 454.613 710.515 454.589 710.695C454.565 710.875 454.582 711.061 454.64 711.23C454.697 711.404 454.793 711.562 454.921 711.691C455.048 711.821 455.203 711.916 455.375 711.978V712.051Z" fill="#CE9C5C"/>
<path d="M493.232 830.903C499.925 828.967 500.074 829.637 507.065 828.674L493.232 830.903Z" fill="#D13535"/>
<path d="M506.545 830.009H506.693C529.675 852.622 548.195 823.914 550.872 820.717C551.103 820.452 551.271 820.137 551.364 819.8C551.457 819.462 551.472 819.113 551.407 818.764C551.343 818.421 551.2 818.1 550.992 817.818C550.783 817.537 550.513 817.306 550.203 817.143C546.409 814.914 538.079 807.846 525.659 812.235C513.239 816.625 509.148 823.84 505.876 828.151C505.775 828.309 505.713 828.484 505.694 828.669C505.674 828.855 505.698 829.041 505.763 829.209C505.828 829.384 505.932 829.542 506.068 829.665C506.204 829.795 506.367 829.885 506.545 829.936V830.009Z" fill="#D13535"/>
<path d="M551.541 916.212C558.234 914.203 558.383 914.872 565.375 913.978L551.541 916.212Z" fill="#CE9C5C"/>
<path d="M564.779 915.317H565.004C587.983 937.931 606.504 909.296 609.183 906.099C609.403 905.823 609.56 905.502 609.645 905.165C609.729 904.821 609.74 904.467 609.679 904.123C609.617 903.774 609.476 903.448 609.273 903.161C609.076 902.874 608.812 902.632 608.514 902.452C604.72 900.223 596.312 893.155 583.97 897.544C571.622 901.929 567.384 909.144 564.188 913.46C564.086 913.618 564.019 913.792 563.996 913.978C563.968 914.164 563.985 914.349 564.041 914.53C564.103 914.71 564.193 914.873 564.323 915.008C564.452 915.143 564.604 915.25 564.779 915.317Z" fill="#EFDCC4"/>
<path d="M655.367 1003.01C657.303 996.388 657.973 996.534 661.023 990.214L655.367 1003.01Z" fill="#D13535"/>
<path d="M661.838 991.402H661.985C693.524 984.485 679.69 953.323 678.424 949.31C678.323 948.978 678.148 948.674 677.912 948.415C677.681 948.162 677.394 947.96 677.079 947.824C676.758 947.689 676.415 947.627 676.071 947.639C675.723 947.65 675.385 947.74 675.075 947.892C671.136 949.901 660.651 952.952 657.448 965.744C654.252 978.536 658.118 985.977 659.981 991.03C660.049 991.205 660.161 991.357 660.308 991.475C660.448 991.593 660.617 991.678 660.797 991.723C660.977 991.768 661.163 991.768 661.349 991.723C661.529 991.683 661.698 991.599 661.838 991.481V991.402Z" fill="#D13535"/>
<path d="M889.721 541.066C875.218 526.489 852.312 532.959 840.561 547.686C836.098 548.132 825.534 546.124 826.429 553.189C828.584 558.47 835.873 553.933 840.262 555.123L841.078 555.718C847.252 563.451 857.293 568.808 867.333 566.501C874.998 565.533 901.101 549.247 889.721 541.066ZM851.344 555.495L851.642 555.644L851.344 555.495ZM878.566 552.52C869.567 561.073 855.661 562.412 847.624 551.85C847.663 551.579 847.663 551.304 847.624 551.032C850.972 547.388 855.064 544.116 859.673 542.256C866.517 538.537 878.043 539.578 884.667 546.57C882.742 548.665 880.705 550.651 878.566 552.52Z" fill="#452D34"/>
<path d="M935.386 437.909L935.167 437.76C935.611 438.132 935.538 438.057 935.386 437.909Z" fill="#452D34"/>
<path d="M946.766 452.635C954.426 448.395 947.137 440.066 943.496 435.455C932.786 423.108 913.668 424.67 900.583 432.256C896.193 431.141 888.083 425.934 885.483 431.736C885.038 433.521 886.001 435.975 888.083 436.347C891.404 436.898 894.645 437.821 897.752 439.099C905.564 462.601 927.58 463.642 946.766 452.635ZM908.912 436.421C908.912 436.441 908.901 436.46 908.89 436.474C908.873 436.488 908.856 436.496 908.833 436.496L908.912 436.421ZM938.589 448.396C926.387 454.717 910.398 453.528 905.637 438.727C905.794 438.444 905.918 438.144 906.008 437.835C909.464 435.968 913.212 434.711 917.09 434.116H917.017C917.169 434.116 917.613 434.041 917.388 434.116C923.489 433.372 930.107 433.967 935.167 437.76H935.015C936.585 438.956 937.986 440.357 939.18 441.925C938.808 441.404 939.106 441.851 939.331 442.074C939.551 442.297 939.253 441.999 939.253 441.925C940.373 443.487 941.262 445.049 942.23 446.685L938.589 448.396ZM942.9 447.726L943.046 447.949L942.9 447.726Z" fill="#452D34"/>
<path d="M933.529 303.589C936.635 302.563 939.86 301.939 943.125 301.729C960.898 319.356 981.35 309.464 992.955 291.391C998.307 283.136 985.216 278.748 979.267 276.591C964.691 272.872 950.34 282.541 942.528 294.366C938.138 295.333 928.171 294.441 928.92 300.986C929.212 301.924 929.848 302.716 930.709 303.2C931.565 303.684 932.572 303.823 933.529 303.589ZM950.711 295.705C952.546 293.299 954.668 291.126 957.031 289.234C956.879 289.383 957.256 289.086 957.256 289.012C957.256 289.051 957.239 289.089 957.211 289.116C957.183 289.144 957.144 289.16 957.104 289.16C965.586 282.243 977.41 281.053 986.184 288.045C983.415 292 980.14 295.576 976.442 298.68C976.453 298.68 976.459 298.678 976.47 298.674C976.482 298.671 976.487 298.665 976.493 298.659C976.504 298.651 976.51 298.643 976.51 298.634C976.515 298.625 976.515 298.615 976.515 298.606C973.392 300.986 969.897 302.994 965.957 303.589H965.805C959.93 304.333 954.279 301.506 949.963 297.713C950.013 297.414 949.985 297.107 949.889 296.82L950.711 295.705Z" fill="#452D34"/>
<path d="M957.031 289.233C957.048 289.233 957.07 289.225 957.081 289.212C957.097 289.198 957.103 289.179 957.103 289.161L957.031 289.233Z" fill="#452D34"/>
<path d="M976.144 298.903L976.442 298.68L976.144 298.903Z" fill="#452D34"/>
<path d="M797.574 172.318C797.574 172.392 797.495 172.392 797.495 172.467C797.523 172.437 797.546 172.401 797.557 172.363C797.568 172.325 797.574 172.284 797.574 172.244V172.318Z" fill="#452D34"/>
<path d="M789.391 197.531C791.991 202.811 798.39 200.208 802.78 199.167C820.035 194.853 826.654 174.698 823.451 158.782C826.046 155.985 828.292 152.889 830.149 149.559C832.603 145.469 826.13 141.676 823.75 145.84C822.196 148.707 820.266 151.357 818.026 153.724L817.283 153.873H817.576L817.058 154.022H817.204C792.515 152.758 783.814 176.78 789.391 197.531ZM795.638 180.127C795.919 177.504 796.55 174.928 797.495 172.467C797.276 172.913 797.647 172.243 797.647 172.02C797.647 172.06 797.647 172.101 797.63 172.14C797.619 172.178 797.597 172.213 797.574 172.243C800.399 164.955 808.284 161.31 815.792 161.31C815.978 161.547 816.208 161.748 816.462 161.905C818.842 175.813 811.329 192.102 795.936 193.143C795.351 188.828 795.255 184.463 795.638 180.127Z" fill="#452D34"/>
<path d="M718.36 140.857C718.512 140.189 718.512 140.486 718.36 140.857V140.857Z" fill="#452D34"/>
<path d="M708.247 154.915C716.43 162.129 723.274 147.923 726.026 141.602C730.264 128.14 723.122 113.86 713.233 104.786C713.824 100.026 713.751 84.8537 705.945 92.1425C704.904 96.0101 706.609 100.249 705.866 104.266C686.236 119.066 691.813 140.189 708.247 154.915ZM704.527 116.016L704.38 116.24L704.527 116.016ZM702.298 134.61C698.28 126.429 701.78 117.058 708.77 111.703C709.063 111.74 709.367 111.74 709.66 111.703C714.944 116.314 719.03 125.016 719.7 130.594C720.156 134.098 719.694 137.659 718.36 140.932C716.914 143.871 715.034 146.578 712.783 148.964C708.545 144.725 704.679 140.114 702.298 134.61Z" fill="#452D34"/>
<path d="M670.837 256.138C678.052 255.766 676.938 247.734 675.97 242.602C673.589 224.901 654.325 216.274 638.037 217.538C635.066 213.819 624.131 203.184 623.906 213.968C625.842 217.389 630.079 219.099 632.46 222.446C632.381 222.929 632.46 223.424 632.685 223.86C628.892 246.321 648.973 257.849 670.837 256.138ZM652.467 246.469C647.706 244.908 643.316 241.561 641.313 236.875C641.386 236.875 641.386 236.95 641.386 237.024C641.386 237.098 641.015 235.909 641.313 236.801C639.968 233.22 639.456 229.378 639.821 225.571L640.418 224.975C642.529 224.926 644.645 225.025 646.738 225.273H646.44C652.985 225.868 661.765 230.554 664.737 234.57C667.714 238.586 668.828 242.974 669.278 248.775C663.622 248.626 657.82 248.478 652.467 246.469Z" fill="#452D34"/>
<path d="M566.714 343.751C571.177 346.056 575.938 350.296 581.144 349.329C589.772 343.528 589.991 327.091 585.23 318.538C580.474 309.985 572.736 303.737 563.889 300.093C562.87 296.392 561.422 292.822 559.573 289.458C557.193 285.293 550.723 289.011 553.103 293.176C554.684 296.014 555.908 299.037 556.747 302.176C546.409 317.125 551.169 334.826 566.714 343.751ZM578.021 342.933C577.722 343.453 577.942 343.231 578.021 342.933V342.933ZM580.919 328.876C580.908 328.798 580.885 328.722 580.846 328.653C580.885 328.722 580.908 328.798 580.919 328.876ZM570.434 312.216L570.063 311.993L570.434 312.216ZM560.317 311.249C560.813 310.145 561.385 309.077 562.028 308.051L562.845 307.754C570.063 310.952 576.31 316.604 579.58 323.893C582.107 329.62 580.846 336.09 578.465 341.668C568.723 337.057 559.945 331.182 558.532 321.364C558.532 321.439 558.606 321.438 558.606 321.513C558.16 318.017 559.053 314.522 560.317 311.249Z" fill="#452D34"/>
<path d="M181.975 387.781C180.73 386.105 179.612 384.34 178.628 382.5C184.8 365.691 177.661 350.221 160.555 344.42C155.125 343.081 148.06 338.693 143.077 342.784C133.036 363.311 151.63 383.615 172.083 385.995C173.891 389.423 176.142 392.599 178.776 395.441C184.578 399.234 187.404 392.094 181.975 387.781ZM167.174 377.219C155.572 373.947 144.936 362.568 148.506 348.734C163.083 350.742 178.553 361.452 172.083 377.815L171.413 378.26L167.174 377.219Z" fill="#452D34"/>
<path d="M108.567 489.674L110.203 490.046C112.881 493.69 116.525 503.656 122.103 499.565C125.673 494.806 118.087 491.013 116.748 486.55C122.922 469.742 115.781 454.271 98.6751 448.47C93.2458 447.132 86.1804 442.744 81.1974 446.908C71.5286 466.469 88.7834 486.922 108.567 489.674ZM103.733 480.749C92.9487 477.179 83.2055 465.948 86.6267 452.784C101.204 454.792 116.674 465.502 110.203 481.864L109.534 482.311C107.566 481.93 105.627 481.407 103.733 480.749Z" fill="#452D34"/>
<path d="M146.498 613.134L146.35 612.836L146.498 613.134Z" fill="#452D34"/>
<path d="M157.208 618.638C153.266 601.236 133.259 594.246 117.195 596.92C114.463 594.286 111.444 591.967 108.195 590.003C104.03 587.549 100.237 594.021 104.402 596.402C107.197 598.057 109.792 600.026 112.138 602.278C112.121 602.525 112.147 602.778 112.212 603.02C112.137 602.424 112.212 603.167 112.286 603.392C112.36 603.617 112.212 603.167 112.212 603.094C110.724 620.276 124.26 633.141 141.144 633.068C153.118 633.288 162.117 633.811 157.208 618.638ZM137.201 606.29H137.276C137.647 606.515 137.276 606.369 137.201 606.29ZM141.738 625.628C131.326 625.78 120.616 619.606 119.872 608.373V608.525C119.71 607.241 119.66 605.947 119.723 604.658L120.244 604.062C129.541 603.02 140.102 605.401 146.349 612.836C146.349 612.914 146.721 613.286 146.498 613.134C149.25 616.556 150.217 620.946 150.96 625.257C147.906 625.679 144.817 625.803 141.738 625.628Z" fill="#452D34"/>
<path d="M240.582 733.398L241.101 733.1L240.582 733.398Z" fill="#452D34"/>
<path d="M259.622 719.267C260.586 715.231 261.257 711.128 261.63 706.998C261.558 707.183 261.532 707.392 261.555 707.589C262.82 700.3 254.862 699.484 249.507 700.081C231.359 700.081 220.129 718.451 219.609 735.036C216.336 738.087 207.337 742.324 211.204 747.603C211.55 747.952 211.961 748.228 212.414 748.419C212.867 748.605 213.354 748.707 213.844 748.707C214.335 748.707 214.821 748.605 215.274 748.419C215.727 748.228 216.139 747.952 216.484 747.603C218.647 745.116 221.122 742.915 223.848 741.058C240.73 745.594 255.977 736.449 259.622 719.267ZM250.771 722.317H250.697C250.845 722.092 250.994 721.793 250.771 722.317ZM238.202 711.235H238.127C238.139 711.241 238.152 711.247 238.165 711.247C238.177 711.247 238.19 711.241 238.202 711.235ZM247.424 728.119L247.276 728.339L247.424 728.119C245.613 730.444 243.23 732.262 240.507 733.398H240.582C236.491 734.963 232.029 734.963 227.715 734.141C227.611 733.871 227.461 733.618 227.269 733.398C228.013 723.73 232.996 713.093 242.218 709.007C243.557 708.112 250.623 707.071 254.118 707.515C253.374 714.73 251.887 722.171 247.424 728.119Z" fill="#452D34"/>
<path d="M290.562 806.658C288.246 808.954 285.676 810.975 282.901 812.68L282.232 812.534C282.826 812.68 282.082 812.534 281.86 812.607H282.082C266.018 806.956 250.251 816.473 246.011 832.614C245.044 838.118 240.879 845.48 245.193 850.314C266.166 859.313 285.504 839.458 286.843 819.006C290.07 817.013 293.064 814.672 295.767 812.01C299.189 808.594 293.908 803.236 290.562 806.658ZM254.192 831.646H254.267C254.118 831.871 254.043 832.018 254.192 831.646ZM277.174 827.926C277.025 828.376 276.802 828.748 276.653 829.192C273.976 834.995 269.885 840.572 263.861 843.251C260.589 844.737 255.085 844.962 250.92 844.439C252.481 829.637 261.555 813.946 278.662 819.377L279.107 820.047C278.728 822.731 278.08 825.371 277.174 827.926Z" fill="#452D34"/>
<path d="M276.654 829.191L276.802 828.966C276.802 828.747 276.654 828.82 276.654 829.191Z" fill="#452D34"/>
<path d="M323.658 909.667C323.583 909.74 323.583 909.886 323.509 909.886C323.583 909.813 323.658 909.74 323.658 909.667Z" fill="#452D34"/>
<path d="M345.3 897.842C344.631 892.856 340.392 888.095 335.185 890.999C316.815 895.833 309.154 917.771 316.889 936.962C315.03 941.054 308.187 949.158 314.509 951.984C320.459 952.726 319.938 944.251 323.137 940.902C345.598 937.109 351.994 917.85 345.3 897.842ZM324.029 940.531C323.806 940.604 323.88 940.531 324.029 940.531V940.531ZM340.243 915.987C339.871 924.913 332.434 931.531 323.955 932.944C323.75 932.77 323.525 932.623 323.285 932.5C321.501 926.922 320.98 923.275 321.575 917.253C321.986 914.743 322.634 912.278 323.509 909.892C323.509 909.813 323.657 909.442 323.657 909.667C325.963 903.639 331.764 900.144 337.565 897.989C339.425 903.791 340.838 909.892 340.243 915.987Z" fill="#452D34"/>
<path d="M479.844 892.265C479.175 887.279 474.936 882.517 469.729 885.495C451.359 890.329 443.698 912.267 451.433 931.385C449.574 935.55 442.731 943.581 449.127 946.479C455.003 947.222 454.483 938.673 457.68 935.398C480.142 931.531 486.538 912.346 479.844 892.265ZM473.299 892.04H473.225L473.448 891.888C473.373 891.967 473.299 891.967 473.299 892.04ZM474.787 910.483C474.415 919.409 466.977 925.954 458.499 927.367L457.829 926.995C456.044 921.345 455.524 917.771 456.193 911.676C456.574 909.188 457.197 906.746 458.052 904.388L458.201 904.089C460.507 898.062 466.308 894.567 472.109 892.485C473.969 898.287 475.381 904.309 474.787 910.483Z" fill="#452D34"/>
<path d="M458.201 904.089C458.201 904.146 458.187 904.202 458.162 904.252C458.136 904.303 458.098 904.348 458.052 904.387C458.104 904.353 458.145 904.314 458.172 904.258C458.198 904.207 458.208 904.146 458.201 904.089Z" fill="#452D34"/>
<path d="M612.977 935.769C612.307 930.788 608.143 926.027 602.937 928.931C584.561 933.765 576.829 955.776 584.561 974.895C582.777 978.981 575.86 987.091 582.259 989.916C588.135 990.732 587.69 982.183 590.887 978.834C613.348 975.041 619.742 955.85 612.977 935.769ZM607.991 953.992C607.619 962.845 600.185 969.464 591.703 970.876C591.478 970.707 591.23 970.584 590.96 970.505C589.176 964.849 588.653 961.207 589.323 955.185C589.733 952.704 590.352 950.267 591.185 947.892C591.259 947.818 591.405 947.447 591.405 947.599C593.712 941.571 599.515 938.076 605.312 935.994C607.175 941.723 608.514 947.818 607.991 953.992Z" fill="#452D34"/>
<path d="M591.404 947.599L591.185 947.891C591.331 947.745 591.404 947.672 591.404 947.599Z" fill="#452D34"/>
<path d="M716.948 938.673C706.317 924.84 699.619 937.109 695.083 948.044C691.217 961.652 698.877 975.638 709.069 984.485C709.514 988.948 707.504 999.438 714.494 998.617C719.852 996.461 715.316 989.1 716.503 984.71C716.74 984.496 716.942 984.243 717.1 983.967C733.089 971.991 730.562 951.392 716.948 938.673ZM716.802 973.702L717.027 973.403C717.016 973.471 716.993 973.533 716.954 973.583C716.914 973.634 716.864 973.679 716.802 973.702ZM720.893 964.703C720.15 969.762 717.027 974.146 713.307 977.422C713.037 977.343 712.755 977.343 712.485 977.422C708.692 974.118 705.692 969.998 703.711 965.372C700.07 958.456 701.111 946.929 708.028 940.311C714.719 946.631 721.935 954.887 720.893 964.703Z" fill="#452D34"/>
<path d="M831.038 922.977C821.595 908.102 815.049 916.73 808.431 928.036C802.257 941.499 808.656 957.043 818.325 967.01C818.398 971.473 815.494 980.692 821.746 981.66C823.677 981.587 825.686 980.022 825.461 977.94C825.163 974.597 825.241 971.231 825.686 967.899C842.643 956.97 843.459 937.93 831.038 922.977ZM824.791 926.922L824.645 926.697L824.791 926.922ZM832.231 946.479C832.006 951.91 826.952 957.64 823.604 960.093L823.232 960.313H822.337C812.449 950.273 809.325 932.646 821.369 923.056C827.099 929.376 832.901 937.407 832.231 946.479Z" fill="#452D34"/>
<path d="M794.073 975.34C784.63 960.465 778.084 969.093 771.466 980.472C765.365 993.856 771.691 1009.4 781.36 1019.37C781.433 1023.83 778.535 1033.05 784.855 1034.02C786.712 1033.94 788.721 1032.38 788.575 1030.3C788.215 1026.96 788.265 1023.59 788.721 1020.26C805.678 1009.33 806.573 990.288 794.073 975.34ZM787.826 979.279L787.68 979.06L787.826 979.279ZM795.267 998.842C795.041 1004.27 789.988 1010.07 786.639 1012.45L786.267 1012.75L785.373 1012.6C775.557 1002.64 772.434 984.935 784.483 975.34C790.207 981.812 795.936 989.77 795.267 998.842Z" fill="#452D34"/>
<path d="M920.736 928.261C911.292 913.387 904.747 922.014 898.123 933.315C892.028 946.777 898.348 962.322 908.017 972.289C908.09 976.752 905.192 985.976 911.512 986.939C913.375 986.866 915.378 985.307 915.232 983.224C914.872 979.881 914.922 976.51 915.378 973.184C932.335 962.249 933.23 943.209 920.736 928.261ZM914.489 932.201C914.416 932.128 914.337 932.055 914.337 931.976C914.337 931.903 914.416 932.128 914.489 932.201ZM921.924 951.764C921.704 957.189 916.645 962.919 913.296 965.372L912.924 965.671L912.035 965.519C902.141 955.478 899.091 937.852 911.14 928.261C916.87 934.728 922.593 942.686 921.924 951.764Z" fill="#452D34"/>
<path d="M992.803 855.3C973.021 850.685 956.88 868.239 954.876 886.76C951.303 889.513 941.414 893.227 945.579 898.804C950.34 902.451 954.128 894.566 958.518 893.227H959.339C975.255 899.474 991.464 890.475 996.225 874.413C998.161 868.312 1003.44 855.818 992.803 855.3ZM964.838 878.133C964.838 878.234 964.81 878.335 964.765 878.425C964.765 878.352 964.838 878.279 964.838 878.133ZM989.235 872.032C988.149 875.172 986.596 878.133 984.626 880.806L984.772 880.66C984.547 880.958 984.176 881.403 984.626 880.885C979.791 887.723 970.64 889.287 963.054 886.682C962.924 886.451 962.772 886.226 962.609 886.012C964.618 872.032 976.741 858.941 991.762 862.662C991.182 865.847 990.338 868.982 989.235 872.032Z" fill="#452D34"/>
<path d="M959.186 893.301C959.186 893.379 959.259 893.379 959.338 893.379C959.41 893.379 959.186 893.379 959.186 893.301Z" fill="#452D34"/>
<path d="M1046.65 751.841C1047.25 734.44 1025.53 744.925 1019.21 752.365C1011.84 761.51 1010.21 774.004 1012.51 785.238C1010.06 789.031 1002.4 795.424 1007.53 799.589C1009.24 800.484 1011.7 800.113 1012.66 798.255C1014.16 795.289 1016 792.515 1018.17 789.999C1040.11 790.145 1050.22 772.001 1046.65 751.841ZM1024.42 757.717C1024.26 757.869 1024.34 757.869 1024.42 757.717V757.717ZM1039.66 762.777C1039.36 767.239 1038.1 771.849 1035.34 775.496C1035.79 774.899 1035.5 775.271 1035.27 775.569H1035.34C1031.78 780.178 1025.83 782.114 1020.17 782.413L1019.43 781.889C1017.5 770.735 1020.92 756.456 1032.37 751.92H1032.15C1034.35 751.093 1036.62 750.423 1038.92 749.911C1039.65 754.154 1039.9 758.471 1039.66 762.777Z" fill="#452D34"/>
<path d="M843.684 730.348C823.902 725.739 807.834 743.293 805.752 761.809C802.184 764.561 792.29 768.281 796.454 773.858C801.216 777.505 805.009 769.62 809.399 768.281L810.068 768.427C809.995 768.354 810.513 768.427 810.586 768.427H810.288C826.131 774.674 842.345 765.675 847.106 749.613C849.042 743.439 854.321 730.945 843.684 730.348ZM815.719 753.254C815.708 753.333 815.679 753.412 815.646 753.479C815.646 753.406 815.719 753.333 815.719 753.254ZM840.116 747.086C839.058 750.238 837.499 753.198 835.501 755.86C835.58 755.86 835.58 755.787 835.653 755.714C835.726 755.635 835.057 756.456 835.501 755.933C830.667 762.777 821.521 764.336 813.935 761.735L813.49 761.066C815.494 747.086 827.622 733.995 842.643 737.71C842.063 740.901 841.219 744.036 840.116 747.086Z" fill="#452D34"/>
<path d="M746.922 635.821C727.14 631.133 710.999 648.687 708.989 667.281C705.421 670.033 695.527 673.748 699.619 679.331C704.453 682.899 708.173 675.087 712.636 673.748H713.452C729.368 680.074 745.509 671.001 750.344 655.007C752.28 648.833 757.486 636.339 746.922 635.821ZM718.957 658.654L718.81 658.952L718.957 658.654ZM743.354 652.553C742.251 655.665 740.697 658.597 738.739 661.254H738.818C738.666 661.479 738.294 661.997 738.666 661.406C733.831 668.249 724.759 669.882 717.173 667.208L716.728 666.538C718.737 652.553 730.86 639.462 745.808 643.182C745.239 646.368 744.418 649.503 743.354 652.553Z" fill="#452D34"/>
<path d="M738.737 661.333C738.737 661.404 738.737 661.404 738.666 661.404L738.737 661.333Z" fill="#452D34"/>
<path d="M497.396 609.937C497.411 609.78 497.462 609.628 497.544 609.493C497.431 609.639 497.379 609.825 497.396 610.01V609.937Z" fill="#452D34"/>
<path d="M483.117 619.68C493.232 633.665 500.372 621.165 505.058 610.607C509.223 597.145 502.008 582.94 492.117 573.868C492.712 569.18 492.563 554.007 484.754 561.296C483.712 565.161 485.497 569.405 484.679 573.418C484.44 573.66 484.239 573.935 484.084 574.239C467.647 585.692 469.804 606.589 483.117 619.68ZM479.621 594.618C480.068 589.035 483.489 584.28 487.729 580.858H488.547C495.91 587.921 501.488 599.453 497.546 609.493C497.62 609.493 497.397 609.938 497.397 610.011C495.972 612.949 494.117 615.656 491.893 618.042C485.571 611.795 479.101 603.91 479.621 594.618Z" fill="#452D34"/>
<path d="M448.458 715.254L452.772 714.803C470.919 733.325 494.496 722.244 504.016 701.566C503.495 694.65 494.273 692.269 488.769 690.04C474.34 686.393 460.135 695.837 452.177 707.369C447.788 708.337 437.748 707.29 438.566 713.914C440.128 718.67 445.111 715.625 448.458 715.254ZM497.025 700.227L496.801 700.598C497.173 699.929 497.173 700.081 497.025 700.227ZM460.284 709.08C464.523 702.833 473.894 697.402 479.695 696.805C485.496 696.209 491.223 698.443 495.983 701.64C486.835 714.73 472.258 723.285 459.614 710.864C459.662 710.566 459.637 710.256 459.54 709.969L460.06 709.378H459.912C459.986 709.378 460.284 709.001 460.284 709.08Z" fill="#452D34"/>
<path d="M460.061 709.378C460.135 709.226 460.209 709.08 460.283 709.08L460.061 709.378Z" fill="#452D34"/>
<path d="M511.229 827.183V827.335L511.452 827.037C511.304 827.11 511.304 827.183 511.229 827.183Z" fill="#452D34"/>
<path d="M553.326 823.688C560.02 815.286 546.186 810.153 539.939 807.998C525.436 804.424 511.23 813.8 503.272 825.399C498.958 826.367 488.918 825.326 489.661 831.945C489.955 832.884 490.595 833.678 491.452 834.162C492.308 834.64 493.317 834.781 494.273 834.55C497.382 833.549 500.606 832.946 503.867 832.761C520.601 849.943 541.426 841.687 553.326 823.688ZM548.194 818.257L547.897 818.556C548.343 817.965 548.343 818.038 548.194 818.257ZM546.186 820.863C537.038 833.509 522.833 840.719 510.784 828.821C510.784 828.523 510.71 828.225 510.71 828.005L511.156 827.335H511.082C511.156 827.335 511.379 826.964 511.379 826.964C515.618 820.79 525.064 815.359 530.865 814.689C536.666 814.02 542.393 816.327 547.079 819.597L546.186 820.863Z" fill="#452D34"/>
<path d="M562.846 918.441C580.177 936.664 604.647 924.766 613.421 904.759C612.898 897.842 603.679 895.461 598.248 893.227C583.745 889.659 569.54 899.103 561.582 910.635C557.194 911.597 547.153 910.556 547.972 917.18C548.249 918.125 548.886 918.93 549.748 919.414C550.609 919.904 551.627 920.033 552.583 919.78C555.692 918.778 558.916 918.182 562.177 917.996L562.846 918.441ZM606.504 903.493L606.206 903.864C606.206 903.791 606.279 903.791 606.206 903.791C606.133 903.791 606.651 903.346 606.504 903.493ZM569.686 912.345C573.93 906.098 583.3 900.667 589.103 899.998C594.899 899.328 600.702 901.635 605.39 904.905C596.239 917.996 581.736 926.472 569.095 914.056C569.095 913.831 569.022 913.533 569.022 913.235L569.467 912.565C569.393 912.638 569.393 912.638 569.393 912.717C569.393 912.79 569.686 912.267 569.686 912.345Z" fill="#452D34"/>
<path d="M569.466 912.565C569.54 912.492 569.613 912.346 569.686 912.346L569.466 912.565Z" fill="#452D34"/>
<path d="M683.033 951.167C679.611 934.953 659.756 950.571 655.963 959.052C651.055 969.239 652.023 981.288 656.188 991.475C654.291 994.812 652.794 998.358 651.725 1002.04C650.458 1006.65 657.673 1008.66 658.94 1003.97C659.829 1000.87 661.101 997.902 662.733 995.122L663.251 994.897C663.251 994.824 663.622 994.751 663.695 994.604L663.476 994.824C685.194 990.732 690.473 969.762 683.033 951.167ZM678.57 971.546C677.9 978.019 673.364 983.444 667.342 985.825C667.269 985.898 666.971 986.05 666.898 985.977C665.705 986.528 664.461 986.95 663.178 987.237L662.435 986.866C659.452 979.364 659.317 971.029 662.063 963.436C664.444 957.713 669.869 954.139 675.373 951.837C677.681 958.084 679.392 964.776 678.57 971.546Z" fill="#452D34"/>
<path d="M495.983 628.234C498.66 644.369 500.074 661.405 507.659 676.207C511.429 683.208 515.969 689.77 521.196 695.764C525.95 701.414 531.257 706.57 537.038 711.162C543.316 716.239 550.036 720.741 557.119 724.624C564.142 728.417 571.515 731.535 579.135 733.922C583.041 735.109 587.048 735.931 591.105 736.375C594.437 736.792 597.792 736.994 601.146 736.966C608.896 736.798 616.595 735.649 624.057 733.545C638.904 729.447 652.569 721.878 663.92 711.46C665.187 710.267 666.374 709.153 667.488 707.887C669.205 706.136 670.19 703.795 670.241 701.341C670.218 698.888 669.233 696.535 667.488 694.796C665.744 693.068 663.402 692.083 660.943 692.044C659.716 692.038 658.495 692.28 657.358 692.753C656.221 693.226 655.191 693.918 654.325 694.796C651.618 697.677 648.68 700.34 645.551 702.754L647.408 701.268C641.386 705.917 634.784 709.766 627.772 712.721L630.006 711.832C622.836 714.837 615.311 716.908 607.618 718L610.072 717.629C603.785 718.535 597.409 718.585 591.105 717.781L593.565 718.079C586.795 717.184 580.474 714.955 574.227 712.35L576.456 713.244C566.922 709.237 557.948 704.009 549.756 697.7L551.615 699.186C544.068 693.35 537.295 686.579 531.46 679.032L532.873 680.962C528.782 675.61 524.84 669.808 522.237 663.561L523.13 665.789C518.816 655.456 517.254 644.15 515.543 633.215L513.981 623.248C513.61 621.092 511.453 618.785 509.668 617.743C508.603 617.113 507.423 616.702 506.196 616.539C504.969 616.37 503.722 616.455 502.528 616.781C500.296 617.524 498.065 618.863 496.95 621.019L495.983 623.248C495.612 624.891 495.612 626.591 495.983 628.234Z" fill="#D13535"/>
<path d="M838.034 791.631C837.736 796.173 839.222 800.636 841.231 804.648C843.234 808.402 845.818 811.818 848.891 814.762C852.459 818.257 856.314 821.442 860.417 824.284C864.379 827.02 868.47 829.552 872.691 831.871C882.591 837.189 892.884 841.742 903.482 845.479C912.588 848.839 921.936 851.501 931.447 853.437C935.967 854.349 940.536 854.974 945.129 855.3C949.147 855.649 953.199 855.323 957.105 854.332L958.816 853.736C960.527 853.066 962.384 852.396 963.577 850.984C964.765 849.571 966.329 846.971 966.329 844.365C966.307 841.906 965.316 839.559 963.577 837.82C961.833 836.092 959.486 835.107 957.032 835.068C954.651 835.22 952.046 835.962 950.487 837.82H950.34L952.198 836.407L951.674 836.705L953.835 835.737C952.428 836.323 950.954 836.722 949.446 836.925L951.899 836.553C948.033 837.077 944.015 836.632 940.221 836.109L942.675 836.48C930.778 834.842 919.1 831.348 907.793 827.262C904.225 825.995 900.73 824.583 897.235 823.091L899.39 824.059C890.144 820.255 881.257 815.623 872.838 810.226C870.755 808.813 868.673 807.4 866.664 805.842L868.6 807.327C864.891 804.558 861.542 801.333 858.633 797.732L860.124 799.589C858.706 797.822 857.529 795.869 856.623 793.792L857.591 795.948C856.984 794.631 856.578 793.224 856.404 791.783L856.702 794.237C856.601 793.347 856.578 792.453 856.623 791.558C856.601 789.098 855.616 786.751 853.871 785.012C852.239 783.38 849.633 782.114 847.332 782.26C846.099 782.255 844.878 782.497 843.741 782.969C842.604 783.442 841.574 784.134 840.707 785.012C839.019 786.774 838.057 789.115 838.034 791.558V791.631Z" fill="#D13535"/>
<path d="M221.541 429.133C222.657 434.265 225.483 438.727 228.83 442.669C232.177 446.611 236.193 449.66 240.358 452.412C244.541 455.197 248.972 457.587 253.597 459.552C259.351 462.091 265.235 464.325 271.223 466.246C282.159 469.698 293.316 472.407 304.617 474.352C314.741 476.234 324.977 477.452 335.26 477.997C345.078 478.443 356.308 477.699 363.522 470.188C364.177 469.408 364.873 468.663 365.605 467.956C367.336 466.184 368.321 463.814 368.357 461.337C368.334 458.879 367.345 456.528 365.605 454.792C363.86 453.065 361.515 452.079 359.06 452.04C356.59 452.112 354.233 453.091 352.441 454.792C351.301 456.08 350.084 457.297 348.796 458.436L350.655 457.023C349.758 457.683 348.784 458.232 347.755 458.659L349.986 457.692C347.707 458.65 345.303 459.276 342.846 459.552L345.375 459.254C342.681 459.515 339.972 459.589 337.268 459.477C333.401 459.403 329.533 459.105 325.74 458.659C323.162 458.412 320.559 458.114 317.931 457.767L320.385 458.064C312.873 457.097 305.436 455.758 298.073 454.122C290.71 452.486 282.528 450.403 274.942 447.949C270.778 446.536 266.687 445.048 262.671 443.338L264.902 444.305C258.292 441.659 252.044 438.185 246.308 433.967L248.168 435.454C245.593 433.462 243.27 431.165 241.25 428.612L242.664 430.546C241.436 428.916 240.411 427.143 239.614 425.265L240.507 427.496C240.048 426.444 239.7 425.348 239.466 424.224C238.805 421.844 237.23 419.82 235.086 418.595C232.941 417.369 230.399 417.04 228.012 417.679C225.68 418.37 223.689 419.909 222.434 421.993C221.251 424.176 220.932 426.725 221.541 429.133Z" fill="#D13535"/>
<path d="M778.382 499.863C762.32 486.253 792.441 441.776 766.113 455.089C708.173 509.383 667.044 391.574 648.674 447.057C639.079 467.138 629.19 463.866 620.709 462.527C619.42 462.32 618.098 462.398 616.843 462.758C615.582 463.118 614.423 463.749 613.432 464.607C612.447 465.466 611.665 466.531 611.136 467.726C610.601 468.922 610.342 470.219 610.37 471.526C611.265 512.655 582.332 481.567 569.466 499.491C554.07 522.473 596.762 545.752 558.16 554.231C519.114 549.917 502.008 498.45 513.535 464.312C500 428.017 513.685 376.996 547.45 362.791C588.877 347.247 636.771 249.816 726.695 330.512C736.066 338.842 779.198 338.768 798.834 363.683C805.594 371.217 810.687 380.094 813.777 389.733C816.861 399.371 817.879 409.554 816.76 419.613C816.551 421.973 817.272 424.322 818.769 426.158C825.534 434.488 827.695 447.801 825.241 457.99C823.378 465.874 811.998 466.246 812.448 474.948C812.448 493.839 790.657 518.754 778.382 499.863Z" fill="#452D34"/>
<path d="M795.638 484.765C801.441 482.088 804.564 475.022 802.999 468.849C801.441 462.676 793.927 466.915 796.01 471.824V470.783C796.083 471.649 796.083 472.519 796.01 473.386L796.162 472.419C795.998 473.366 795.723 474.291 795.34 475.171L795.711 474.278C795.357 475.119 794.906 475.917 794.372 476.658L794.968 475.915C794.389 476.571 793.764 477.192 793.111 477.774L793.854 477.179C787.978 479.038 789.464 487.071 795.638 484.765Z" fill="white"/>
<path d="M800.844 395.218C800.546 374.319 781.805 355.651 760.829 355.502C756.074 355.502 756.074 362.94 760.829 362.94C762.152 362.962 763.469 363.061 764.775 363.237C768.118 363.311 777.269 367.253 779.869 369.708C782.328 371.646 784.551 373.868 786.493 376.327C786.937 376.848 786.493 376.253 786.414 376.178C788.277 378.645 789.847 381.315 791.102 384.137L790.95 383.839C792.093 386.473 792.869 389.251 793.258 392.094C792.368 400.052 799.803 401.243 800.844 395.218Z" fill="white"/>
<path d="M681.176 322.331C665.929 307.977 639.529 308.572 624.8 323.447C621.305 328.653 627.479 332.967 632.905 326.124C635.116 324.465 637.514 323.068 640.046 321.96C640.418 321.811 640.345 321.885 639.821 322.108C646.519 319.43 651.572 318.836 658.788 319.654C662.581 320.175 669.869 322.331 674.186 326.05C678.052 331.182 684.823 327.686 681.176 322.331Z" fill="white"/>
<path d="M742.459 451.668C742.904 449.734 741.79 453.825 742.386 452.04C742.116 452.552 741.818 453.048 741.491 453.528C742.831 452.04 739.409 455.461 740.9 454.123C740.208 454.655 739.46 455.104 738.666 455.461C739.189 455.238 739.263 455.164 738.891 455.312C737.991 455.629 737.073 455.878 736.139 456.056C736.736 455.957 736.809 455.957 736.364 456.056C734.423 456.235 732.475 455.902 730.708 455.089L731.006 455.238C729.211 454.385 727.517 453.337 725.947 452.115C725.654 451.891 721.861 448.619 720.595 447.28C717.246 443.859 711.894 449.14 715.316 452.561C718.737 455.982 724.163 460.816 729.965 462.675C738.148 465.502 749.078 460.891 749.899 451.668C750.046 446.908 742.532 446.834 742.459 451.668Z" fill="white"/>
<path d="M723.572 347.246C721.039 347.47 717.246 346.577 716.132 349.626C713.976 355.353 723.049 356.023 726.245 353.643C729.448 351.262 726.769 347.172 723.572 347.246Z" fill="white"/>
<path d="M637.222 434.339C637.233 434.935 637.211 435.531 637.149 436.124C637.07 437.017 637.295 436.273 637.149 436.124C636.997 435.976 635.882 440.512 636.4 439.174C634.397 443.264 632.534 444.975 628.442 446.983H628.667C627.649 447.426 626.574 447.727 625.471 447.876C624.649 448.098 626.36 447.876 625.471 447.95H622.938C622.719 447.95 621.525 447.801 622.645 447.95C618.031 446.685 616.021 453.9 620.636 455.089C623.602 455.501 626.63 455.277 629.506 454.429C632.382 453.582 635.044 452.133 637.318 450.177C639.586 448.221 641.42 445.804 642.687 443.086C643.953 440.368 644.623 437.411 644.656 434.413C644.656 429.579 637.149 429.579 637.222 434.413V434.339Z" fill="white"/>
<path d="M560.764 371.939C539.79 369.41 521.866 390.979 527.891 411.134C529.08 415.82 536.295 413.812 535.03 409.201C533.766 404.59 533.915 399.16 536.221 393.359C538.526 387.558 544.104 382.723 548.567 381.162C552.415 379.542 556.612 378.927 560.764 379.376C565.521 379.451 565.521 372.013 560.764 371.939Z" fill="white"/>
<path d="M541.724 527.456C538.025 524.673 534.679 521.452 531.758 517.862C530.277 515.865 529.006 513.722 527.965 511.465C527.741 511.093 527.965 511.614 528.039 511.614C527.127 509.526 526.502 507.324 526.179 505.069C525.733 502.986 526.328 497.929 527.221 495.995C530.568 491.607 524.543 486.401 521.345 491.087C518.388 497.153 517.829 504.113 519.783 510.573C522.535 520.315 529.973 527.902 537.931 533.852C542.021 536.381 545.814 529.91 541.724 527.456Z" fill="white"/>
<path d="M527.815 454.941L528.559 455.461L527.815 454.866C528.1 455.076 528.35 455.326 528.559 455.61L527.964 454.866C528.254 455.165 528.482 455.519 528.634 455.907L528.262 455.015C528.42 455.451 528.544 455.899 528.634 456.354L528.485 455.387C528.559 455.855 528.559 456.332 528.485 456.8L528.634 455.833C528.544 456.289 528.42 456.736 528.262 457.172L528.634 456.28C528.488 456.592 528.314 456.891 528.113 457.172L528.708 456.428L527.964 457.098L528.708 456.503C525.882 457.99 526.402 462.601 529.526 463.42C537.261 464.089 537.93 451.148 531.534 448.544C527.369 446.09 523.576 452.635 527.815 454.941Z" fill="white"/>
<path d="M632.832 381.905C630.598 379.723 627.711 378.326 624.616 377.924C621.515 377.522 618.374 378.136 615.65 379.674C611.041 382.649 616.174 389.119 620.265 385.698C620.856 385.4 620.113 385.772 619.967 385.772C620.738 385.496 621.537 385.297 622.347 385.178L621.379 385.326C622.314 385.178 623.27 385.178 624.205 385.326L623.237 385.178C625.691 385.698 625.1 385.475 626.884 386.516C627.401 386.888 626.732 386.442 626.585 386.367C629.861 390.83 636.479 386.293 632.832 381.905Z" fill="white"/>
<path d="M392.156 288.342C392.27 288.245 392.348 288.115 392.379 287.97L392.156 288.342Z" fill="#452D34"/>
<path d="M585.011 514.515L584.859 514.738L585.011 514.515Z" fill="#452D34"/>
<path d="M586.271 534.522C589.772 537.125 595.94 544.786 600.032 539.653C602.266 535.34 596.689 533.778 594.156 531.547C589.693 527.605 584.56 522.622 584.414 516.3C584.476 515.759 584.628 515.231 584.859 514.738L585.084 514.441H585.011C585.382 514.069 586.35 513.251 585.528 513.92C585.979 513.508 586.558 513.269 587.166 513.25C587.464 513.325 587.909 513.548 587.537 513.325C591.629 515.259 594.978 509.011 590.959 506.78C584.189 503.433 576.529 509.904 576.901 516.969C577.272 524.035 581.735 529.762 586.271 534.522Z" fill="#452D34"/>
<path d="M591.107 560.478C595.722 561.742 597.731 554.528 593.116 553.264C590.212 552.375 587.488 550.963 585.085 549.099C580.622 546.942 577.273 536.679 572.517 539.505C565.15 545.604 585.383 559.363 591.107 560.478Z" fill="#452D34"/>
<path d="M377.505 409.869C377.579 409.72 377.951 408.978 377.505 409.869V409.869Z" fill="#452D34"/>
<path d="M731.822 556.61C731.772 556.701 731.749 556.803 731.749 556.907C731.738 556.803 731.766 556.697 731.822 556.61Z" fill="#452D34"/>
<path d="M728.997 551.255C730.37 552.78 731.338 554.619 731.822 556.61C731.822 556.685 731.901 557.205 731.749 556.908C732.79 563.45 724.759 567.992 719.553 564.047C715.462 561.519 711.668 567.992 715.833 570.446C728.029 578.921 744.322 564.868 737.923 551.553C732.863 542.851 725.282 535.785 719.182 527.753C717.915 526.266 715.163 526.414 713.903 527.753C710.109 532.885 719.851 538.612 722.153 543L728.997 551.255ZM725.429 565.459C724.905 565.533 725.204 565.459 725.429 565.386V565.459ZM730.111 562.859C730.19 562.635 730.409 562.486 730.111 562.859V562.859Z" fill="#452D34"/>
<path d="M670.168 574.087C674.777 578.033 691.29 600.787 696.867 595.434C698.06 594.095 698.505 591.495 696.867 590.155C691.605 585.856 686.68 581.156 682.144 576.097L675.447 568.808C672.104 565.387 666.819 570.666 670.168 574.087Z" fill="#452D34"/>
<path d="M674.929 514.886C683.928 517.489 687.721 503.358 678.722 501.052C669.723 498.747 665.93 512.581 674.929 514.886Z" fill="#452D34"/>
<path d="M733.758 518.456C731.231 527.456 745.363 531.249 747.665 522.25C749.973 513.25 736.066 509.457 733.758 518.456Z" fill="#452D34"/>
<path d="M695.978 502.243C699.917 496.888 698.133 491.459 691.886 489.153C687.795 486.327 655.738 474.65 663.696 488.186C670.613 492.426 688.611 509.829 695.978 502.243Z" fill="#452D34"/>
<path d="M733.24 511.912C743.055 513.102 753.022 511.243 762.764 510.201C764.7 509.904 765.888 507.375 765.365 505.59C761.948 499.491 736.139 495.103 729.965 498.599C725.727 502.838 726.47 511.019 733.24 511.912Z" fill="#452D34"/>
<path d="M646.666 675.756C646.66 675.655 646.638 675.554 646.593 675.458C646.638 675.554 646.66 675.655 646.666 675.756Z" fill="#452D34"/>
<path d="M811.48 844.365L811.329 844.067C811.34 844.185 811.39 844.286 811.48 844.365Z" fill="#452D34"/>
<path d="M729.368 950.941H729.447C728.627 950.273 729.149 950.795 729.368 950.941Z" fill="#452D34"/>
<path d="M460.135 258.741C460.135 258.741 460.061 259.112 460.061 259.187C460.061 259.261 460.135 258.815 460.135 258.741Z" fill="#452D34"/>
<path d="M380.629 226.091C371.034 241.933 382.339 264.022 401.453 253.535C405.544 251.081 401.825 244.61 397.661 247.064C396.757 247.764 395.719 248.27 394.611 248.552C393.413 248.817 392.17 248.812 390.975 248.537C389.779 248.262 388.659 247.724 387.697 246.962C386.736 246.199 385.956 245.232 385.415 244.131C384.874 243.029 384.586 241.821 384.57 240.594C384.793 220.438 412.387 199.316 430.608 212.555L430.98 212.778H430.831C434.178 217.315 441.021 213.001 437.227 208.464C418.708 191.284 390.297 206.456 380.629 226.091Z" fill="#452D34"/>
<path d="M430.832 212.704L430.609 212.555L430.832 212.704Z" fill="#452D34"/>
<path d="M416.626 232.487C406.808 243.643 398.999 264.914 411.419 276.219C409.486 275.619 407.489 275.245 405.47 275.103C399.52 274.731 393.495 276.442 389.107 280.607C384.719 284.772 380.703 292.432 381.372 299.424C381.576 301.517 382.077 303.571 382.86 305.522C382.989 305.998 383.21 306.443 383.513 306.832C383.815 307.221 384.192 307.546 384.621 307.788C385.05 308.031 385.523 308.185 386.012 308.243C386.501 308.301 386.997 308.261 387.471 308.125C389.182 307.531 390.818 305.448 389.999 303.514C389.683 302.661 389.41 301.792 389.182 300.911C389.047 300.474 388.948 300.026 388.884 299.573C388.81 299.498 388.81 299.498 388.81 299.424V298.829C388.735 298.062 388.735 297.29 388.81 296.523V296.003C388.944 295.565 389.044 295.117 389.107 294.664C389.262 293.925 389.486 293.203 389.777 292.507C389.777 292.432 389.925 292.21 389.925 292.061C389.925 291.912 390.297 291.391 390.446 291.02C390.595 290.648 391.115 289.829 391.487 289.235L392.007 288.416H392.157C392.082 288.416 392.082 288.416 392.305 288.193C392.529 287.97 392.379 288.119 392.379 288.044C393.14 287.147 393.96 286.302 394.834 285.516L395.206 285.144L395.652 284.846L396.842 284.177L397.362 283.88L397.883 283.657C398.957 283.222 400.082 282.922 401.23 282.764H401.974L403.461 282.615L406.362 282.764H406.883L408.37 283.061C409.284 283.291 410.178 283.59 411.047 283.954L411.642 284.177C412.103 284.37 412.551 284.594 412.981 284.846L415.584 286.334L416.7 287.078L417.369 287.598H417.444C419.027 288.933 420.541 290.348 421.98 291.837C422.65 292.656 423.394 293.474 423.989 294.292L424.212 294.515L424.51 294.887L425.551 296.374C426.804 298.162 427.947 300.025 428.972 301.953C429.493 302.92 429.939 303.961 430.459 304.928C430.69 305.41 430.888 305.907 431.054 306.415L431.426 307.233C432.244 309.316 432.914 311.398 433.509 313.48C434.037 315.54 434.459 317.625 434.773 319.728C434.848 319.951 434.848 320.174 434.922 320.397C434.996 320.621 434.996 321.438 434.996 321.96C434.996 322.48 435.145 323.968 435.145 324.935C435.145 325.901 435.07 326.793 434.996 327.76C434.922 328.727 434.922 328.579 434.922 329.025C434.922 329.471 434.848 329.471 434.773 329.768C434.646 330.602 434.446 331.424 434.178 332.223C434.088 332.654 433.964 333.076 433.806 333.487C433.657 333.859 432.988 335.273 433.657 333.934C433.33 334.675 432.958 335.395 432.542 336.09L431.873 337.131L431.724 337.355H431.649C431.117 337.985 430.546 338.582 429.939 339.14L429.715 339.289C429.199 339.679 428.652 340.026 428.079 340.33L425.476 341.817L424.286 342.338H424.138L423.543 342.561L421.385 343.305L420.27 343.528L419.749 343.677H417.667L416.105 343.528H415.436L414.469 343.305L412.535 342.71L412.014 342.486L411.345 342.189L409.486 341.148C408.625 340.656 407.606 340.521 406.647 340.771C405.688 341.021 404.865 341.637 404.354 342.486C403.885 343.34 403.763 344.341 404.012 345.283C404.261 346.225 404.863 347.034 405.692 347.544C408.502 349.301 411.64 350.465 414.915 350.966C418.407 351.389 421.949 350.981 425.253 349.775C430.534 347.841 435.591 344.867 438.715 340.032C443.252 332.892 443.178 323.596 441.615 315.489C457.823 297.675 467.203 274.701 468.093 250.634C467.646 245.725 468.688 233.379 461.399 233.974C459.688 234.569 458.052 236.652 458.796 238.586C464.299 257.476 456.565 278.078 447.714 294.812C445.291 299.104 442.478 303.162 439.31 306.936C436.966 300.186 433.468 293.895 428.972 288.342C426.239 285.036 423.031 282.153 419.452 279.789C425.848 280.533 434.252 278.376 432.393 272.128C429.79 268.112 426.146 272.203 422.873 272.5C417.221 273.393 413.13 268.186 412.609 263.055C411.642 249.816 420.047 236.8 430.906 229.735C437.525 225.495 446.301 224.603 453.144 228.694C457.308 231.074 461.102 224.603 456.937 222.223C443.178 214.34 426.071 220.81 416.626 232.487ZM389.851 292.209V292.061C389.851 292.284 389.628 292.73 389.851 292.209ZM412.238 342.71H412.163C412.386 342.784 412.609 342.933 412.238 342.71ZM413.65 266.922C413.65 267.071 413.725 267.145 413.65 266.922V266.922ZM413.576 266.773L413.428 266.55L413.576 266.773Z" fill="#452D34"/>
<path d="M398.106 192.845L397.661 192.622C397.782 192.741 397.938 192.819 398.106 192.845Z" fill="#452D34"/>
<path d="M366.423 229.586C370.96 226.611 365.828 219.992 361.812 223.636C361.23 224.023 360.57 224.277 359.878 224.38C355.118 224.454 353.779 218.877 354.523 215.083C359.283 198.275 381.149 186.895 397.66 192.622H397.586L398.106 192.845C403.61 194.035 407.031 203.853 411.717 201.175C419.154 194.928 399.743 183.995 394.016 183.995C372.968 181.094 342.326 199.093 347.829 222.967C349.763 230.702 360.027 234.42 366.423 229.586ZM355.937 222.818H355.862C355.873 222.812 355.886 222.808 355.899 222.808C355.912 222.808 355.925 222.812 355.937 222.818Z" fill="#452D34"/>
<path d="M983.286 645.934L983.061 645.788L983.286 645.934Z" fill="#452D34"/>
<path d="M969.081 665.868C957.774 677.248 951.972 702.833 965.805 710.937C969.897 715.029 984.625 717.258 984.327 708.782C983.731 707.071 981.648 705.433 979.712 706.176C976.144 708.039 972.126 706.846 969.227 704.392C969.154 704.246 969.154 704.319 969.227 704.319C968.563 703.801 967.961 703.199 967.443 702.535C956.733 682.899 984.254 652.181 1003.21 660.882C1008.13 664.827 1014.52 660.212 1009.39 655.603C995.555 647.572 978.452 654.117 969.081 665.868Z" fill="#452D34"/>
<path d="M969.379 704.465H969.452L969.227 704.319H969.379V704.465Z" fill="#452D34"/>
<path d="M894.257 726.037C896.12 722.542 892.546 720.679 889.946 719.042C888.06 717.668 886.575 715.822 885.629 713.689C875.071 687.66 916.718 678.509 935.684 686.838C943.271 690.632 949.445 697.475 948.404 704.021C947.362 710.566 942.455 717.483 935.167 718.152C930.552 719.34 932.488 726.555 937.17 725.367C953.086 723.133 961.494 702.085 951.156 689.664C955.99 687.66 952.642 680.22 948.032 682.826C944.757 685.499 937.919 679.331 937.468 675.83C935.24 659.244 952.197 644.522 967.37 641.696C970.122 641.263 972.93 641.392 975.632 642.085C978.328 642.771 980.855 644.009 983.061 645.709L983.432 645.934H983.286C986.635 650.47 993.472 646.159 989.679 641.623C986.798 638.972 983.404 636.946 979.706 635.669C976.009 634.391 972.086 633.885 968.186 634.183C948.178 636.49 926.685 656.2 930.18 677.468C926.213 676.714 922.172 676.365 918.131 676.427C927.501 676.207 926.837 665.497 919.026 668.621C915.007 670.551 911.141 666.91 908.833 663.859C901.917 652.181 913.668 638.871 922.892 632.247C932.116 625.628 945.725 623.175 954.426 631.729C957.847 635.151 963.132 629.872 959.71 626.523C927.58 595.879 870.237 664.006 916.499 676.5C894.184 676.95 867.186 692.568 879.461 718C881.763 722.019 889.721 731.615 894.257 726.037ZM908.912 664.006H908.985C908.974 664 908.963 664 908.946 664C908.935 664 908.923 664 908.912 664.006Z" fill="#452D34"/>
<path d="M885.483 713.244C885.556 713.39 885.556 713.542 885.629 713.688C885.708 713.834 885.483 713.171 885.483 713.244Z" fill="#452D34"/>
<path d="M1017.57 679.178C1016.38 674.569 1009.17 676.5 1010.43 681.188C1011.7 685.876 1008.72 691.599 1007.23 696.586C1001.73 713.464 993.845 729.459 984.846 744.705C977.484 768.95 969.38 793.122 959.413 816.473C958.146 819.523 955.546 825.399 953.757 829.344C920.737 821.015 889.541 806.641 861.756 786.949C865.105 780.178 897.831 732.729 889.795 730.348C888.084 729.459 885.557 729.751 884.668 731.688C877.081 747.159 868.453 762.107 859.375 776.756C854.991 772.592 845.097 767.611 842.272 775.794C834.832 785.311 827.769 800.259 838.034 810.299C831.337 820.418 824.493 830.385 817.802 840.426C803.968 812.308 781.951 789.031 761.353 765.754C744.323 746.934 726.026 729.161 705.276 714.657C694.954 707.324 684.171 700.666 672.994 694.723C665.261 690.71 657.376 687.063 649.418 683.495C647.038 682.004 647.263 678.289 646.666 675.757C646.666 676.128 646.666 675.836 646.593 675.458C645.625 664.9 645.698 653.447 650.684 643.852C730.112 661.777 767.825 541.289 782.919 482.087C784.186 477.551 777.044 475.393 775.783 480.154C770.797 504.251 762.321 527.53 752.95 550.215C737.034 585.912 716.059 630.463 673.59 638.201H673.737C647.932 641.471 624.576 625.184 607.771 607.185C607.422 606.836 607.011 606.561 606.561 606.369C606.105 606.184 605.621 606.082 605.126 606.082C604.636 606.082 604.152 606.184 603.697 606.369C603.246 606.561 602.835 606.836 602.486 607.185C596.836 615.661 635.359 639.389 643.469 641.544C638.112 652.479 633.575 687.508 649.047 691.453C640.864 709.671 618.402 712.502 600.556 711.309C576.232 709.969 551.17 696.434 537.262 677.918C532.61 671.721 528.691 665.007 525.585 657.91C522.52 650.493 520.397 642.72 519.263 634.779C518.65 629.545 518.426 624.278 518.594 619.01C527.37 618.042 538.006 620.422 544.402 612.763C558.087 595.581 560.467 572.45 566.192 551.851C567.531 547.314 560.318 545.231 559.054 549.917C553.104 569.703 551.691 592.755 537.708 608.896C534.584 611.868 529.899 610.68 525.957 611.204C512.941 611.874 499.926 612.616 486.91 613.207C477.316 607.557 470.771 598.034 463.334 589.93C445.204 569.028 425.858 549.207 405.396 530.58C390.001 516.448 374.159 502.763 358.094 489.45C356.234 487.963 353.929 486.327 354.375 483.723C354.301 484.69 354.375 483.426 354.524 483.277C355.212 482.651 355.724 481.857 356.011 480.972C367.911 477.699 378.547 465.279 372.225 452.709C371.897 452.094 371.497 451.52 371.035 450.999C369.473 448.767 368.283 446.239 366.498 444.156C366.285 443.918 366.033 443.717 365.755 443.562C368.99 432.129 372.915 420.903 377.506 409.944C385.836 390.16 396.174 371.27 407.255 352.973C407.728 352.109 407.853 351.096 407.604 350.142C407.356 349.188 406.752 348.365 405.916 347.841C399.075 342.71 378.621 391.425 374.605 398.118C367.157 414.366 361.159 431.241 356.681 448.545C316.444 447.652 279.331 428.984 241.698 416.638C265.498 354.163 310.718 302.994 355.491 254.502C357.648 251.824 362.854 248.626 359.507 244.982C359.168 244.635 358.762 244.36 358.316 244.172C357.869 243.985 357.389 243.888 356.904 243.888C356.419 243.888 355.939 243.985 355.492 244.172C355.045 244.36 354.64 244.635 354.301 244.982C308.784 293.92 262.597 345.387 237.161 407.936H237.012L236.715 408.084L236.194 408.234L234.707 408.68L231.657 409.126L224.964 410.242C224.044 410.493 223.249 411.076 222.733 411.878C222.658 411.952 222.584 411.952 222.584 412.027C214.775 421.919 218.196 437.016 225.559 446.239C196.776 576.243 307.222 679.848 399.669 753.333C403.239 756.085 408.743 758.837 408.148 764.116C409.635 837.223 410.528 910.556 406.14 983.596C405.941 987.411 405.644 991.205 405.247 994.976C404.801 999.731 412.238 999.731 412.685 994.976C418.56 920.377 416.701 845.26 415.809 770.509C415.734 763.818 416.032 756.603 410.082 752.066C319.419 679.775 207.337 581.004 231.806 452.412C264.085 474.129 308.932 475.468 346.566 481.195C344.335 489.153 342.773 497.334 340.541 505.292C340.291 506.239 340.423 507.246 340.911 508.095C341.398 508.945 342.201 509.568 343.145 509.829C349.912 510.796 349.169 497.855 351.251 493.392C384.497 520.836 416.85 549.545 445.93 581.376C458.425 594.022 468.019 610.084 483.266 619.606C492.117 622.06 502.083 619.01 511.231 619.308C509 660.662 536.518 701.341 576.086 713.836C602.413 722.244 641.905 723.358 655.817 694.425C702.968 715.4 740.529 751.324 773.324 790.297C787.309 807.102 801.959 823.986 811.329 843.994C811.256 843.842 811.408 844.292 811.481 844.365C813.789 849.644 813.935 855.374 814.83 860.951C815.719 866.528 822.338 865.262 822.265 860.579C821.893 857.456 821.37 854.259 820.925 851.136C820.886 850.888 820.858 850.64 820.852 850.387C820.768 850.1 820.717 849.802 820.706 849.498C828.286 838.045 836.098 826.738 843.685 815.285C870.98 837.893 905.418 849.425 939.405 857.754C905.418 924.389 833.2 998.172 752.354 964.404C746.551 962.024 735.914 956.148 729.448 951.015C727.737 949.755 726.172 948.19 724.388 947.003C726.172 897.763 723.195 848.53 718.659 799.516C718.068 796.094 719.256 790.145 714.421 789.847C712.564 789.847 710.482 791.558 710.701 793.567C712.238 809.635 713.577 825.748 714.72 841.911C716.948 875.01 718.141 908.102 717.1 941.2C716.059 974.298 713.234 1005.91 706.536 1037.82C706.092 1041.23 703.115 1046.59 707.803 1048.23C717.916 1052.76 723.274 965.817 723.944 956.148C758.528 984.187 808.802 987.091 847.923 966.785C892.547 944.476 923.709 902.598 946.919 859.538C956.509 862.437 966.33 855.222 968.485 845.851C970.269 838.788 974.878 826.069 963.876 824.881C974.659 799.809 983.9 774.1 991.543 747.902C1002.4 727.45 1017.65 702.754 1017.57 679.178ZM354.673 482.756V482.608C354.747 482.608 354.673 482.682 354.673 482.756ZM337.418 472.716C333.352 472.27 329.261 471.749 325.146 471.154C295.842 466.394 262.82 464.014 237.012 447.206C228.757 441.256 222.955 429.356 226.749 419.018C271.001 433.446 315.329 457.172 362.854 455.684C363.226 455.758 364.936 455.461 365.383 455.908C367.168 458.213 366.944 461.783 365.829 464.312C359.581 476.137 348.723 474.576 337.418 472.716ZM961.495 843.324C961.124 844.438 960.825 845.48 960.454 846.521C960.082 847.562 960.454 846.594 960.454 846.448C960.454 846.301 959.559 848.012 959.413 848.232C959.261 848.457 959.486 848.159 959.486 848.085C959.486 848.012 959.413 848.232 959.34 848.232H959.413L959.261 848.384C958.051 849.948 956.503 851.22 954.725 852.098C953.425 852.605 952.023 852.807 950.633 852.695C930.626 848.305 908.615 842.058 890.69 834.55C872.764 827.037 856.477 817.593 842.717 804.502C837.511 798.255 841.827 789.847 845.621 784.05C879.535 810.676 920.068 830.903 962.609 838.563C962.311 840.201 961.94 841.759 961.495 843.324ZM963.651 830.903C963.651 830.886 963.656 830.864 963.673 830.852C963.684 830.836 963.707 830.83 963.724 830.83L963.651 830.903Z" fill="#452D34"/>
<path d="M992.73 541.29C992.009 541.294 991.311 541.03 990.777 540.548C990.242 540.067 989.905 539.404 989.831 538.687L981.502 468.7C981.417 467.933 981.631 467.163 982.104 466.553C982.577 465.942 983.263 465.539 984.029 465.428C984.817 465.343 985.605 465.567 986.229 466.053C986.854 466.538 987.265 467.248 987.378 468.031L995.707 538.017C995.769 538.792 995.538 539.562 995.054 540.17C994.57 540.779 993.872 541.179 993.101 541.29H992.73Z" fill="#CE9C5C"/>
<path d="M1017.2 533.405C1016.43 533.392 1015.69 533.102 1015.12 532.587L958 478.963C957.696 478.7 957.448 478.378 957.274 478.016C957.099 477.656 957.003 477.263 956.981 476.862C956.964 476.462 957.026 476.061 957.167 475.685C957.302 475.309 957.521 474.965 957.797 474.674C958.073 474.383 958.405 474.152 958.771 473.992C959.136 473.832 959.536 473.749 959.936 473.747C960.335 473.744 960.735 473.823 961.106 473.978C961.472 474.134 961.81 474.362 962.086 474.65L1019.21 528.274C1019.78 528.823 1020.11 529.572 1020.14 530.363C1020.17 531.155 1019.88 531.925 1019.36 532.513C1018.78 533.078 1018.01 533.398 1017.2 533.405Z" fill="#CE9C5C"/>
<path d="M964.393 537.348C963.723 537.376 963.064 537.165 962.535 536.753C961.933 536.257 961.539 535.549 961.444 534.774C961.348 533.999 961.551 533.216 962.012 532.588L1010.51 471.006C1011.01 470.443 1011.71 470.093 1012.46 470.026C1013.2 469.958 1013.95 470.177 1014.55 470.64C1015.15 471.103 1015.54 471.774 1015.66 472.518C1015.78 473.263 1015.61 474.025 1015.19 474.65L966.7 536.232C966.424 536.578 966.07 536.857 965.67 537.051C965.276 537.244 964.837 537.345 964.393 537.348Z" fill="#CE9C5C"/>
<path d="M953.609 510.498C952.883 510.488 952.185 510.221 951.645 509.744C951.099 509.267 950.739 508.611 950.632 507.895C950.547 507.117 950.778 506.337 951.262 505.724C951.752 505.112 952.461 504.716 953.238 504.622L1023.22 496.218C1024 496.134 1024.78 496.36 1025.39 496.848C1026.01 497.335 1026.4 498.044 1026.5 498.822C1026.55 499.208 1026.52 499.602 1026.42 499.978C1026.31 500.355 1026.14 500.706 1025.89 501.012C1025.65 501.318 1025.34 501.571 1025 501.757C1024.66 501.942 1024.28 502.057 1023.89 502.094L953.98 510.498H953.609Z" fill="#CE9C5C"/>
<path d="M512.495 170.533C510.161 170.542 507.878 169.842 505.95 168.525C503.363 166.777 501.571 164.077 500.967 161.013L499.108 151.344L493.009 159.005C491.051 161.424 488.219 162.974 485.126 163.319C482.952 163.558 480.755 163.187 478.781 162.246C476.808 161.305 475.135 159.832 473.953 157.993C472.771 156.154 472.124 154.021 472.088 151.835C472.052 149.649 472.626 147.495 473.746 145.618H473.374C470.339 146.187 467.202 145.539 464.64 143.813C462.08 142.087 460.301 139.422 459.689 136.395C459.106 133.325 459.747 130.149 461.474 127.545C463.231 124.979 465.931 123.214 468.986 122.636L477.167 121.074L469.433 116.612C466.743 115.042 464.781 112.474 463.973 109.466C463.166 106.458 463.577 103.253 465.119 100.547C466.687 97.855 469.261 95.8959 472.274 95.1013C475.286 94.306 478.491 94.74 481.184 96.3073L489.588 101.142L487.729 91.6221C487.436 90.1093 487.45 88.5531 487.77 87.0454C488.089 85.5382 488.707 84.1098 489.588 82.8458C490.447 81.5587 491.554 80.4556 492.843 79.6001C494.133 78.7447 495.58 78.1537 497.1 77.8628C500.156 77.2972 503.312 77.9652 505.878 79.7217C508.442 81.4782 510.207 84.1791 510.785 87.2339L512.644 96.9022L518.817 89.1677C520.771 86.7432 523.607 85.1932 526.703 84.8589C529.799 84.5241 532.901 85.4319 535.328 87.3825C537.752 89.3365 539.302 92.173 539.637 95.269C539.971 98.3644 539.064 101.467 537.113 103.894L531.684 110.662L538.378 109.397C541.334 108.931 544.357 109.61 546.83 111.296C549.303 112.982 551.039 115.549 551.684 118.471C552.33 121.394 551.835 124.453 550.302 127.024C548.769 129.595 546.313 131.483 543.435 132.304C545.77 134.009 547.39 136.52 547.981 139.35C548.572 142.18 548.091 145.129 546.633 147.626C545.064 150.295 542.509 152.243 539.519 153.049C536.529 153.856 533.342 153.458 530.642 151.939L522.238 147.105L524.023 156.625C524.314 158.135 524.304 159.686 523.995 161.192C523.685 162.697 523.08 164.127 522.216 165.398C521.353 166.669 520.246 167.758 518.961 168.601C517.676 169.443 516.237 170.025 514.727 170.31C513.992 170.458 513.245 170.532 512.495 170.533ZM500.818 141.527H501.562C502.102 141.671 502.59 141.963 502.971 142.37C503.353 142.778 503.612 143.285 503.719 143.833L506.768 159.823C507.081 161.331 507.959 162.662 509.222 163.542C510.176 164.208 511.308 164.572 512.471 164.587C513.634 164.602 514.774 164.267 515.745 163.625C516.715 162.984 517.47 162.066 517.911 160.99C518.353 159.914 518.461 158.73 518.222 157.592L515.247 141.75C515.124 141.197 515.166 140.621 515.366 140.091C515.567 139.562 515.919 139.102 516.377 138.77C516.836 138.438 517.382 138.248 517.947 138.222C518.513 138.196 519.074 138.337 519.561 138.626L533.543 146.733C534.903 147.486 536.496 147.699 538.006 147.328C539.474 146.923 540.727 145.963 541.501 144.651C541.891 143.997 542.144 143.272 542.246 142.518C542.349 141.763 542.297 140.996 542.096 140.263C541.708 138.767 540.746 137.484 539.419 136.693L533.766 133.495C533.238 133.178 532.815 132.713 532.55 132.158C532.286 131.602 532.191 130.98 532.279 130.371C532.398 129.784 532.688 129.246 533.111 128.823C533.534 128.4 534.072 128.11 534.659 127.991L541.65 126.652C543.168 126.346 544.506 125.46 545.381 124.182C546.256 122.904 546.598 121.336 546.336 119.81C546.023 118.302 545.145 116.972 543.881 116.091C542.582 115.255 541.016 114.937 539.493 115.199L524.915 118.025C524.314 118.12 523.698 118.036 523.143 117.785C522.588 117.534 522.118 117.126 521.792 116.612C521.488 116.092 521.353 115.49 521.407 114.891C521.46 114.291 521.698 113.723 522.09 113.265L532.502 100.175C533.471 98.9576 533.925 97.4093 533.766 95.861C533.55 94.3499 532.782 92.9716 531.609 91.9935C530.392 91.0244 528.844 90.5708 527.296 90.7295C525.784 90.9456 524.406 91.7138 523.428 92.8861L513.239 105.604C512.89 106.039 512.426 106.367 511.901 106.551C511.375 106.735 510.808 106.768 510.264 106.645C509.705 106.501 509.198 106.2 508.803 105.779C508.408 105.358 508.141 104.833 508.033 104.265L504.983 88.3494C504.861 87.5913 504.578 86.8675 504.155 86.2265C503.732 85.5855 503.178 85.0418 502.529 84.6304C501.909 84.1841 501.206 83.8684 500.461 83.7013C499.717 83.5341 498.946 83.5195 498.195 83.6585C497.444 83.7975 496.73 84.0873 496.094 84.51C495.459 84.9326 494.915 85.4797 494.497 86.1179C493.635 87.4073 493.289 88.9741 493.53 90.506L496.579 106.348C496.68 106.904 496.621 107.477 496.408 108.001C496.195 108.524 495.838 108.976 495.378 109.304C494.917 109.632 494.373 109.821 493.808 109.851C493.244 109.881 492.683 109.749 492.191 109.472L478.208 101.365C477.544 100.984 476.811 100.738 476.052 100.64C475.293 100.542 474.522 100.595 473.783 100.795C473.044 100.995 472.351 101.339 471.746 101.807C471.14 102.275 470.631 102.858 470.25 103.522C469.869 104.186 469.623 104.919 469.525 105.678C469.428 106.437 469.48 107.209 469.681 107.948C469.881 108.687 470.225 109.379 470.693 109.985C471.16 110.591 471.743 111.099 472.408 111.48L487.059 119.958C487.582 120.257 487.999 120.711 488.253 121.258C488.505 121.804 488.582 122.416 488.472 123.008C488.353 123.595 488.063 124.133 487.64 124.556C487.217 124.979 486.679 125.268 486.092 125.388L470.102 128.437C468.594 128.75 467.264 129.628 466.383 130.892C465.947 131.526 465.643 132.241 465.49 132.995C465.337 133.749 465.337 134.526 465.491 135.279C465.796 136.793 466.686 138.125 467.966 138.988C469.247 139.852 470.815 140.176 472.333 139.891L480.366 138.329C480.957 138.23 481.565 138.312 482.108 138.564C482.653 138.816 483.108 139.227 483.415 139.742C483.74 140.251 483.894 140.85 483.853 141.452C483.813 142.054 483.581 142.628 483.192 143.089L479.25 147.997C478.314 149.229 477.888 150.774 478.06 152.311C478.127 153.072 478.355 153.809 478.726 154.475C479.098 155.142 479.606 155.722 480.216 156.179C481.407 157.144 482.931 157.598 484.456 157.443C485.226 157.377 485.975 157.151 486.654 156.779C487.332 156.408 487.926 155.9 488.398 155.286L498.513 142.642C498.786 142.292 499.136 142.01 499.536 141.817C499.936 141.623 500.374 141.524 500.818 141.527Z" fill="#D13535"/>
</svg>
